%TF.GenerationSoftware,KiCad,Pcbnew,8.0.2*%
%TF.CreationDate,2024-05-30T14:14:35+02:00*%
%TF.ProjectId,Sensors_expansion_board,53656e73-6f72-4735-9f65-7870616e7369,1.0*%
%TF.SameCoordinates,Original*%
%TF.FileFunction,Drillmap*%
%TF.FilePolarity,Positive*%
%FSLAX45Y45*%
G04 Gerber Fmt 4.5, Leading zero omitted, Abs format (unit mm)*
G04 Created by KiCad (PCBNEW 8.0.2) date 2024-05-30 14:14:35*
%MOMM*%
%LPD*%
G01*
G04 APERTURE LIST*
%ADD10C,0.100000*%
%ADD11C,0.200000*%
%ADD12C,0.320000*%
G04 APERTURE END LIST*
D10*
X15495000Y-8697500D02*
G75*
G02*
X15795000Y-8397500I300000J0D01*
G01*
X15495000Y-10297500D02*
X15495000Y-10197500D01*
X19495000Y-10597500D02*
X23195000Y-10597500D01*
X15795000Y-10597500D02*
G75*
G02*
X15495000Y-10297500I0J300000D01*
G01*
X23495000Y-10297500D02*
X23495000Y-10197500D01*
X23495000Y-8697500D02*
X23495000Y-10197500D01*
X23495000Y-10297500D02*
G75*
G02*
X23195000Y-10597500I-300000J0D01*
G01*
X23195000Y-8397500D02*
G75*
G02*
X23495000Y-8697500I0J-300000D01*
G01*
X15495000Y-8697500D02*
X15495000Y-10197500D01*
X23195000Y-8397500D02*
X15795000Y-8397500D01*
X19495000Y-10597500D02*
X15795000Y-10597500D01*
D11*
D10*
X16294300Y-8631100D02*
X16314300Y-8651100D01*
X16314300Y-8631100D02*
X16294300Y-8651100D01*
X17894500Y-8631100D02*
X17914500Y-8651100D01*
X17914500Y-8631100D02*
X17894500Y-8651100D01*
X18542200Y-10459900D02*
X18562200Y-10479900D01*
X18562200Y-10459900D02*
X18542200Y-10479900D01*
X19189900Y-10523400D02*
X19209900Y-10543400D01*
X19209900Y-10523400D02*
X19189900Y-10543400D01*
X19482000Y-8631100D02*
X19502000Y-8651100D01*
X19502000Y-8631100D02*
X19482000Y-8651100D01*
X21094900Y-8631100D02*
X21114900Y-8651100D01*
X21114900Y-8631100D02*
X21094900Y-8651100D01*
X22682400Y-8631100D02*
X22702400Y-8651100D01*
X22702400Y-8631100D02*
X22682400Y-8651100D01*
X23304700Y-9342300D02*
X23324700Y-9362300D01*
X23324700Y-9342300D02*
X23304700Y-9362300D01*
X15680000Y-8797500D02*
G75*
G02*
X15630000Y-8797500I-25000J0D01*
G01*
X15630000Y-8797500D02*
G75*
G02*
X15680000Y-8797500I25000J0D01*
G01*
X15750294Y-8627794D02*
G75*
G02*
X15700294Y-8627794I-25000J0D01*
G01*
X15700294Y-8627794D02*
G75*
G02*
X15750294Y-8627794I25000J0D01*
G01*
X15750294Y-8967206D02*
G75*
G02*
X15700294Y-8967206I-25000J0D01*
G01*
X15700294Y-8967206D02*
G75*
G02*
X15750294Y-8967206I25000J0D01*
G01*
X15920000Y-8557500D02*
G75*
G02*
X15870000Y-8557500I-25000J0D01*
G01*
X15870000Y-8557500D02*
G75*
G02*
X15920000Y-8557500I25000J0D01*
G01*
X15920000Y-9037500D02*
G75*
G02*
X15870000Y-9037500I-25000J0D01*
G01*
X15870000Y-9037500D02*
G75*
G02*
X15920000Y-9037500I25000J0D01*
G01*
X16089706Y-8627794D02*
G75*
G02*
X16039706Y-8627794I-25000J0D01*
G01*
X16039706Y-8627794D02*
G75*
G02*
X16089706Y-8627794I25000J0D01*
G01*
X16089706Y-8967206D02*
G75*
G02*
X16039706Y-8967206I-25000J0D01*
G01*
X16039706Y-8967206D02*
G75*
G02*
X16089706Y-8967206I25000J0D01*
G01*
X16160000Y-8797500D02*
G75*
G02*
X16110000Y-8797500I-25000J0D01*
G01*
X16110000Y-8797500D02*
G75*
G02*
X16160000Y-8797500I25000J0D01*
G01*
X22880000Y-8797500D02*
G75*
G02*
X22830000Y-8797500I-25000J0D01*
G01*
X22830000Y-8797500D02*
G75*
G02*
X22880000Y-8797500I25000J0D01*
G01*
X22950294Y-8627794D02*
G75*
G02*
X22900294Y-8627794I-25000J0D01*
G01*
X22900294Y-8627794D02*
G75*
G02*
X22950294Y-8627794I25000J0D01*
G01*
X22950294Y-8967206D02*
G75*
G02*
X22900294Y-8967206I-25000J0D01*
G01*
X22900294Y-8967206D02*
G75*
G02*
X22950294Y-8967206I25000J0D01*
G01*
X23120000Y-8557500D02*
G75*
G02*
X23070000Y-8557500I-25000J0D01*
G01*
X23070000Y-8557500D02*
G75*
G02*
X23120000Y-8557500I25000J0D01*
G01*
X23120000Y-9037500D02*
G75*
G02*
X23070000Y-9037500I-25000J0D01*
G01*
X23070000Y-9037500D02*
G75*
G02*
X23120000Y-9037500I25000J0D01*
G01*
X23289706Y-8627794D02*
G75*
G02*
X23239706Y-8627794I-25000J0D01*
G01*
X23239706Y-8627794D02*
G75*
G02*
X23289706Y-8627794I25000J0D01*
G01*
X23289706Y-8967206D02*
G75*
G02*
X23239706Y-8967206I-25000J0D01*
G01*
X23239706Y-8967206D02*
G75*
G02*
X23289706Y-8967206I25000J0D01*
G01*
X23360000Y-8797500D02*
G75*
G02*
X23310000Y-8797500I-25000J0D01*
G01*
X23310000Y-8797500D02*
G75*
G02*
X23360000Y-8797500I25000J0D01*
G01*
X18768100Y-9995400D02*
X18768100Y-10055400D01*
X18738100Y-10025400D02*
X18798100Y-10025400D01*
X18984000Y-10478000D02*
X18984000Y-10538000D01*
X18954000Y-10508000D02*
X19014000Y-10508000D01*
X19354840Y-10137640D02*
X19354840Y-10197640D01*
X19324840Y-10167640D02*
X19384840Y-10167640D01*
X19492000Y-10478000D02*
X19492000Y-10538000D01*
X19462000Y-10508000D02*
X19522000Y-10508000D01*
X20076200Y-10333050D02*
X20076200Y-10393050D01*
X20046200Y-10363050D02*
X20106200Y-10363050D01*
X15853588Y-10116888D02*
X15853588Y-10049712D01*
X15786412Y-10049712D01*
X15786412Y-10116888D01*
X15853588Y-10116888D01*
X16103588Y-10116888D02*
X16103588Y-10049712D01*
X16036412Y-10049712D01*
X16036412Y-10116888D01*
X16103588Y-10116888D01*
X16353588Y-10116888D02*
X16353588Y-10049712D01*
X16286412Y-10049712D01*
X16286412Y-10116888D01*
X16353588Y-10116888D01*
X16603588Y-10116888D02*
X16603588Y-10049712D01*
X16536412Y-10049712D01*
X16536412Y-10116888D01*
X16603588Y-10116888D01*
X16606068Y-9379728D02*
X16606068Y-9312552D01*
X16538892Y-9312552D01*
X16538892Y-9379728D01*
X16606068Y-9379728D01*
X16856068Y-9379728D02*
X16856068Y-9312552D01*
X16788892Y-9312552D01*
X16788892Y-9379728D01*
X16856068Y-9379728D01*
X17106068Y-9379728D02*
X17106068Y-9312552D01*
X17038892Y-9312552D01*
X17038892Y-9379728D01*
X17106068Y-9379728D01*
X17253588Y-10116888D02*
X17253588Y-10049712D01*
X17186412Y-10049712D01*
X17186412Y-10116888D01*
X17253588Y-10116888D01*
X17356068Y-9379728D02*
X17356068Y-9312552D01*
X17288892Y-9312552D01*
X17288892Y-9379728D01*
X17356068Y-9379728D01*
X17503588Y-10116888D02*
X17503588Y-10049712D01*
X17436412Y-10049712D01*
X17436412Y-10116888D01*
X17503588Y-10116888D01*
X17753588Y-10116888D02*
X17753588Y-10049712D01*
X17686412Y-10049712D01*
X17686412Y-10116888D01*
X17753588Y-10116888D01*
X18003588Y-10116888D02*
X18003588Y-10049712D01*
X17936412Y-10049712D01*
X17936412Y-10116888D01*
X18003588Y-10116888D01*
X18104668Y-9378588D02*
X18104668Y-9311412D01*
X18037492Y-9311412D01*
X18037492Y-9378588D01*
X18104668Y-9378588D01*
X18354668Y-9378588D02*
X18354668Y-9311412D01*
X18287492Y-9311412D01*
X18287492Y-9378588D01*
X18354668Y-9378588D01*
X18604668Y-9378588D02*
X18604668Y-9311412D01*
X18537492Y-9311412D01*
X18537492Y-9378588D01*
X18604668Y-9378588D01*
X18854668Y-9378588D02*
X18854668Y-9311412D01*
X18787492Y-9311412D01*
X18787492Y-9378588D01*
X18854668Y-9378588D01*
X19603268Y-9378588D02*
X19603268Y-9311412D01*
X19536092Y-9311412D01*
X19536092Y-9378588D01*
X19603268Y-9378588D01*
X19853268Y-9378588D02*
X19853268Y-9311412D01*
X19786092Y-9311412D01*
X19786092Y-9378588D01*
X19853268Y-9378588D01*
X20103268Y-9378588D02*
X20103268Y-9311412D01*
X20036092Y-9311412D01*
X20036092Y-9378588D01*
X20103268Y-9378588D01*
X20353268Y-9378588D02*
X20353268Y-9311412D01*
X20286092Y-9311412D01*
X20286092Y-9378588D01*
X20353268Y-9378588D01*
X21053588Y-10116888D02*
X21053588Y-10049712D01*
X20986412Y-10049712D01*
X20986412Y-10116888D01*
X21053588Y-10116888D01*
X21106948Y-9378588D02*
X21106948Y-9311412D01*
X21039772Y-9311412D01*
X21039772Y-9378588D01*
X21106948Y-9378588D01*
X21303588Y-10116888D02*
X21303588Y-10049712D01*
X21236412Y-10049712D01*
X21236412Y-10116888D01*
X21303588Y-10116888D01*
X21356948Y-9378588D02*
X21356948Y-9311412D01*
X21289772Y-9311412D01*
X21289772Y-9378588D01*
X21356948Y-9378588D01*
X21553588Y-10116888D02*
X21553588Y-10049712D01*
X21486412Y-10049712D01*
X21486412Y-10116888D01*
X21553588Y-10116888D01*
X21606948Y-9378588D02*
X21606948Y-9311412D01*
X21539772Y-9311412D01*
X21539772Y-9378588D01*
X21606948Y-9378588D01*
X21803588Y-10116888D02*
X21803588Y-10049712D01*
X21736412Y-10049712D01*
X21736412Y-10116888D01*
X21803588Y-10116888D01*
X21856948Y-9378588D02*
X21856948Y-9311412D01*
X21789772Y-9311412D01*
X21789772Y-9378588D01*
X21856948Y-9378588D01*
X22453588Y-10116888D02*
X22453588Y-10049712D01*
X22386412Y-10049712D01*
X22386412Y-10116888D01*
X22453588Y-10116888D01*
X22703588Y-10116888D02*
X22703588Y-10049712D01*
X22636412Y-10049712D01*
X22636412Y-10116888D01*
X22703588Y-10116888D01*
X22953588Y-10116888D02*
X22953588Y-10049712D01*
X22886412Y-10049712D01*
X22886412Y-10116888D01*
X22953588Y-10116888D01*
X23203588Y-10116888D02*
X23203588Y-10049712D01*
X23136412Y-10049712D01*
X23136412Y-10116888D01*
X23203588Y-10116888D01*
X18984000Y-10050000D02*
X19034000Y-10000000D01*
X18984000Y-9950000D01*
X18934000Y-10000000D01*
X18984000Y-10050000D01*
X19238000Y-10050000D02*
X19288000Y-10000000D01*
X19238000Y-9950000D01*
X19188000Y-10000000D01*
X19238000Y-10050000D01*
X19492000Y-10050000D02*
X19542000Y-10000000D01*
X19492000Y-9950000D01*
X19442000Y-10000000D01*
X19492000Y-10050000D01*
X19746000Y-10050000D02*
X19796000Y-10000000D01*
X19746000Y-9950000D01*
X19696000Y-10000000D01*
X19746000Y-10050000D01*
X20000000Y-10050000D02*
X20050000Y-10000000D01*
X20000000Y-9950000D01*
X19950000Y-10000000D01*
X20000000Y-10050000D01*
D12*
X15735000Y-8637500D02*
X16055000Y-8957500D01*
X16055000Y-8637500D02*
X15735000Y-8957500D01*
X16055000Y-8797500D02*
G75*
G02*
X15735000Y-8797500I-160000J0D01*
G01*
X15735000Y-8797500D02*
G75*
G02*
X16055000Y-8797500I160000J0D01*
G01*
X22935000Y-8637500D02*
X23255000Y-8957500D01*
X23255000Y-8637500D02*
X22935000Y-8957500D01*
X23255000Y-8797500D02*
G75*
G02*
X22935000Y-8797500I-160000J0D01*
G01*
X22935000Y-8797500D02*
G75*
G02*
X23255000Y-8797500I160000J0D01*
G01*
D11*
X15750777Y-10913984D02*
X15750777Y-10713984D01*
X15750777Y-10713984D02*
X15798396Y-10713984D01*
X15798396Y-10713984D02*
X15826967Y-10723508D01*
X15826967Y-10723508D02*
X15846015Y-10742555D01*
X15846015Y-10742555D02*
X15855539Y-10761603D01*
X15855539Y-10761603D02*
X15865062Y-10799698D01*
X15865062Y-10799698D02*
X15865062Y-10828270D01*
X15865062Y-10828270D02*
X15855539Y-10866365D01*
X15855539Y-10866365D02*
X15846015Y-10885412D01*
X15846015Y-10885412D02*
X15826967Y-10904460D01*
X15826967Y-10904460D02*
X15798396Y-10913984D01*
X15798396Y-10913984D02*
X15750777Y-10913984D01*
X15950777Y-10913984D02*
X15950777Y-10780650D01*
X15950777Y-10818746D02*
X15960301Y-10799698D01*
X15960301Y-10799698D02*
X15969824Y-10790174D01*
X15969824Y-10790174D02*
X15988872Y-10780650D01*
X15988872Y-10780650D02*
X16007920Y-10780650D01*
X16074586Y-10913984D02*
X16074586Y-10780650D01*
X16074586Y-10713984D02*
X16065062Y-10723508D01*
X16065062Y-10723508D02*
X16074586Y-10733031D01*
X16074586Y-10733031D02*
X16084110Y-10723508D01*
X16084110Y-10723508D02*
X16074586Y-10713984D01*
X16074586Y-10713984D02*
X16074586Y-10733031D01*
X16198396Y-10913984D02*
X16179348Y-10904460D01*
X16179348Y-10904460D02*
X16169824Y-10885412D01*
X16169824Y-10885412D02*
X16169824Y-10713984D01*
X16303158Y-10913984D02*
X16284110Y-10904460D01*
X16284110Y-10904460D02*
X16274586Y-10885412D01*
X16274586Y-10885412D02*
X16274586Y-10713984D01*
X16531729Y-10913984D02*
X16531729Y-10713984D01*
X16531729Y-10713984D02*
X16598396Y-10856841D01*
X16598396Y-10856841D02*
X16665062Y-10713984D01*
X16665062Y-10713984D02*
X16665062Y-10913984D01*
X16846015Y-10913984D02*
X16846015Y-10809222D01*
X16846015Y-10809222D02*
X16836491Y-10790174D01*
X16836491Y-10790174D02*
X16817444Y-10780650D01*
X16817444Y-10780650D02*
X16779348Y-10780650D01*
X16779348Y-10780650D02*
X16760301Y-10790174D01*
X16846015Y-10904460D02*
X16826967Y-10913984D01*
X16826967Y-10913984D02*
X16779348Y-10913984D01*
X16779348Y-10913984D02*
X16760301Y-10904460D01*
X16760301Y-10904460D02*
X16750777Y-10885412D01*
X16750777Y-10885412D02*
X16750777Y-10866365D01*
X16750777Y-10866365D02*
X16760301Y-10847317D01*
X16760301Y-10847317D02*
X16779348Y-10837793D01*
X16779348Y-10837793D02*
X16826967Y-10837793D01*
X16826967Y-10837793D02*
X16846015Y-10828270D01*
X16941253Y-10780650D02*
X16941253Y-10980650D01*
X16941253Y-10790174D02*
X16960301Y-10780650D01*
X16960301Y-10780650D02*
X16998396Y-10780650D01*
X16998396Y-10780650D02*
X17017444Y-10790174D01*
X17017444Y-10790174D02*
X17026967Y-10799698D01*
X17026967Y-10799698D02*
X17036491Y-10818746D01*
X17036491Y-10818746D02*
X17036491Y-10875889D01*
X17036491Y-10875889D02*
X17026967Y-10894936D01*
X17026967Y-10894936D02*
X17017444Y-10904460D01*
X17017444Y-10904460D02*
X16998396Y-10913984D01*
X16998396Y-10913984D02*
X16960301Y-10913984D01*
X16960301Y-10913984D02*
X16941253Y-10904460D01*
X17122205Y-10894936D02*
X17131729Y-10904460D01*
X17131729Y-10904460D02*
X17122205Y-10913984D01*
X17122205Y-10913984D02*
X17112682Y-10904460D01*
X17112682Y-10904460D02*
X17122205Y-10894936D01*
X17122205Y-10894936D02*
X17122205Y-10913984D01*
X17122205Y-10790174D02*
X17131729Y-10799698D01*
X17131729Y-10799698D02*
X17122205Y-10809222D01*
X17122205Y-10809222D02*
X17112682Y-10799698D01*
X17112682Y-10799698D02*
X17122205Y-10790174D01*
X17122205Y-10790174D02*
X17122205Y-10809222D01*
D10*
X15470000Y-11232500D02*
X15490000Y-11252500D01*
X15490000Y-11232500D02*
X15470000Y-11252500D01*
D11*
X15788872Y-11133984D02*
X15807920Y-11133984D01*
X15807920Y-11133984D02*
X15826967Y-11143508D01*
X15826967Y-11143508D02*
X15836491Y-11153031D01*
X15836491Y-11153031D02*
X15846015Y-11172079D01*
X15846015Y-11172079D02*
X15855539Y-11210174D01*
X15855539Y-11210174D02*
X15855539Y-11257793D01*
X15855539Y-11257793D02*
X15846015Y-11295888D01*
X15846015Y-11295888D02*
X15836491Y-11314936D01*
X15836491Y-11314936D02*
X15826967Y-11324460D01*
X15826967Y-11324460D02*
X15807920Y-11333984D01*
X15807920Y-11333984D02*
X15788872Y-11333984D01*
X15788872Y-11333984D02*
X15769824Y-11324460D01*
X15769824Y-11324460D02*
X15760301Y-11314936D01*
X15760301Y-11314936D02*
X15750777Y-11295888D01*
X15750777Y-11295888D02*
X15741253Y-11257793D01*
X15741253Y-11257793D02*
X15741253Y-11210174D01*
X15741253Y-11210174D02*
X15750777Y-11172079D01*
X15750777Y-11172079D02*
X15760301Y-11153031D01*
X15760301Y-11153031D02*
X15769824Y-11143508D01*
X15769824Y-11143508D02*
X15788872Y-11133984D01*
X15941253Y-11314936D02*
X15950777Y-11324460D01*
X15950777Y-11324460D02*
X15941253Y-11333984D01*
X15941253Y-11333984D02*
X15931729Y-11324460D01*
X15931729Y-11324460D02*
X15941253Y-11314936D01*
X15941253Y-11314936D02*
X15941253Y-11333984D01*
X16026967Y-11153031D02*
X16036491Y-11143508D01*
X16036491Y-11143508D02*
X16055539Y-11133984D01*
X16055539Y-11133984D02*
X16103158Y-11133984D01*
X16103158Y-11133984D02*
X16122205Y-11143508D01*
X16122205Y-11143508D02*
X16131729Y-11153031D01*
X16131729Y-11153031D02*
X16141253Y-11172079D01*
X16141253Y-11172079D02*
X16141253Y-11191127D01*
X16141253Y-11191127D02*
X16131729Y-11219698D01*
X16131729Y-11219698D02*
X16017443Y-11333984D01*
X16017443Y-11333984D02*
X16141253Y-11333984D01*
X16265062Y-11133984D02*
X16284110Y-11133984D01*
X16284110Y-11133984D02*
X16303158Y-11143508D01*
X16303158Y-11143508D02*
X16312682Y-11153031D01*
X16312682Y-11153031D02*
X16322205Y-11172079D01*
X16322205Y-11172079D02*
X16331729Y-11210174D01*
X16331729Y-11210174D02*
X16331729Y-11257793D01*
X16331729Y-11257793D02*
X16322205Y-11295888D01*
X16322205Y-11295888D02*
X16312682Y-11314936D01*
X16312682Y-11314936D02*
X16303158Y-11324460D01*
X16303158Y-11324460D02*
X16284110Y-11333984D01*
X16284110Y-11333984D02*
X16265062Y-11333984D01*
X16265062Y-11333984D02*
X16246015Y-11324460D01*
X16246015Y-11324460D02*
X16236491Y-11314936D01*
X16236491Y-11314936D02*
X16226967Y-11295888D01*
X16226967Y-11295888D02*
X16217443Y-11257793D01*
X16217443Y-11257793D02*
X16217443Y-11210174D01*
X16217443Y-11210174D02*
X16226967Y-11172079D01*
X16226967Y-11172079D02*
X16236491Y-11153031D01*
X16236491Y-11153031D02*
X16246015Y-11143508D01*
X16246015Y-11143508D02*
X16265062Y-11133984D01*
X16455539Y-11133984D02*
X16474586Y-11133984D01*
X16474586Y-11133984D02*
X16493634Y-11143508D01*
X16493634Y-11143508D02*
X16503158Y-11153031D01*
X16503158Y-11153031D02*
X16512682Y-11172079D01*
X16512682Y-11172079D02*
X16522205Y-11210174D01*
X16522205Y-11210174D02*
X16522205Y-11257793D01*
X16522205Y-11257793D02*
X16512682Y-11295888D01*
X16512682Y-11295888D02*
X16503158Y-11314936D01*
X16503158Y-11314936D02*
X16493634Y-11324460D01*
X16493634Y-11324460D02*
X16474586Y-11333984D01*
X16474586Y-11333984D02*
X16455539Y-11333984D01*
X16455539Y-11333984D02*
X16436491Y-11324460D01*
X16436491Y-11324460D02*
X16426967Y-11314936D01*
X16426967Y-11314936D02*
X16417443Y-11295888D01*
X16417443Y-11295888D02*
X16407920Y-11257793D01*
X16407920Y-11257793D02*
X16407920Y-11210174D01*
X16407920Y-11210174D02*
X16417443Y-11172079D01*
X16417443Y-11172079D02*
X16426967Y-11153031D01*
X16426967Y-11153031D02*
X16436491Y-11143508D01*
X16436491Y-11143508D02*
X16455539Y-11133984D01*
X16607920Y-11333984D02*
X16607920Y-11200650D01*
X16607920Y-11219698D02*
X16617443Y-11210174D01*
X16617443Y-11210174D02*
X16636491Y-11200650D01*
X16636491Y-11200650D02*
X16665063Y-11200650D01*
X16665063Y-11200650D02*
X16684110Y-11210174D01*
X16684110Y-11210174D02*
X16693634Y-11229222D01*
X16693634Y-11229222D02*
X16693634Y-11333984D01*
X16693634Y-11229222D02*
X16703158Y-11210174D01*
X16703158Y-11210174D02*
X16722205Y-11200650D01*
X16722205Y-11200650D02*
X16750777Y-11200650D01*
X16750777Y-11200650D02*
X16769824Y-11210174D01*
X16769824Y-11210174D02*
X16779348Y-11229222D01*
X16779348Y-11229222D02*
X16779348Y-11333984D01*
X16874586Y-11333984D02*
X16874586Y-11200650D01*
X16874586Y-11219698D02*
X16884110Y-11210174D01*
X16884110Y-11210174D02*
X16903158Y-11200650D01*
X16903158Y-11200650D02*
X16931729Y-11200650D01*
X16931729Y-11200650D02*
X16950777Y-11210174D01*
X16950777Y-11210174D02*
X16960301Y-11229222D01*
X16960301Y-11229222D02*
X16960301Y-11333984D01*
X16960301Y-11229222D02*
X16969825Y-11210174D01*
X16969825Y-11210174D02*
X16988872Y-11200650D01*
X16988872Y-11200650D02*
X17017444Y-11200650D01*
X17017444Y-11200650D02*
X17036491Y-11210174D01*
X17036491Y-11210174D02*
X17046015Y-11229222D01*
X17046015Y-11229222D02*
X17046015Y-11333984D01*
X17436491Y-11124460D02*
X17265063Y-11381603D01*
X17693634Y-11133984D02*
X17712682Y-11133984D01*
X17712682Y-11133984D02*
X17731729Y-11143508D01*
X17731729Y-11143508D02*
X17741253Y-11153031D01*
X17741253Y-11153031D02*
X17750777Y-11172079D01*
X17750777Y-11172079D02*
X17760301Y-11210174D01*
X17760301Y-11210174D02*
X17760301Y-11257793D01*
X17760301Y-11257793D02*
X17750777Y-11295888D01*
X17750777Y-11295888D02*
X17741253Y-11314936D01*
X17741253Y-11314936D02*
X17731729Y-11324460D01*
X17731729Y-11324460D02*
X17712682Y-11333984D01*
X17712682Y-11333984D02*
X17693634Y-11333984D01*
X17693634Y-11333984D02*
X17674587Y-11324460D01*
X17674587Y-11324460D02*
X17665063Y-11314936D01*
X17665063Y-11314936D02*
X17655539Y-11295888D01*
X17655539Y-11295888D02*
X17646015Y-11257793D01*
X17646015Y-11257793D02*
X17646015Y-11210174D01*
X17646015Y-11210174D02*
X17655539Y-11172079D01*
X17655539Y-11172079D02*
X17665063Y-11153031D01*
X17665063Y-11153031D02*
X17674587Y-11143508D01*
X17674587Y-11143508D02*
X17693634Y-11133984D01*
X17846015Y-11314936D02*
X17855539Y-11324460D01*
X17855539Y-11324460D02*
X17846015Y-11333984D01*
X17846015Y-11333984D02*
X17836491Y-11324460D01*
X17836491Y-11324460D02*
X17846015Y-11314936D01*
X17846015Y-11314936D02*
X17846015Y-11333984D01*
X17979348Y-11133984D02*
X17998396Y-11133984D01*
X17998396Y-11133984D02*
X18017444Y-11143508D01*
X18017444Y-11143508D02*
X18026968Y-11153031D01*
X18026968Y-11153031D02*
X18036491Y-11172079D01*
X18036491Y-11172079D02*
X18046015Y-11210174D01*
X18046015Y-11210174D02*
X18046015Y-11257793D01*
X18046015Y-11257793D02*
X18036491Y-11295888D01*
X18036491Y-11295888D02*
X18026968Y-11314936D01*
X18026968Y-11314936D02*
X18017444Y-11324460D01*
X18017444Y-11324460D02*
X17998396Y-11333984D01*
X17998396Y-11333984D02*
X17979348Y-11333984D01*
X17979348Y-11333984D02*
X17960301Y-11324460D01*
X17960301Y-11324460D02*
X17950777Y-11314936D01*
X17950777Y-11314936D02*
X17941253Y-11295888D01*
X17941253Y-11295888D02*
X17931729Y-11257793D01*
X17931729Y-11257793D02*
X17931729Y-11210174D01*
X17931729Y-11210174D02*
X17941253Y-11172079D01*
X17941253Y-11172079D02*
X17950777Y-11153031D01*
X17950777Y-11153031D02*
X17960301Y-11143508D01*
X17960301Y-11143508D02*
X17979348Y-11133984D01*
X18169825Y-11133984D02*
X18188872Y-11133984D01*
X18188872Y-11133984D02*
X18207920Y-11143508D01*
X18207920Y-11143508D02*
X18217444Y-11153031D01*
X18217444Y-11153031D02*
X18226968Y-11172079D01*
X18226968Y-11172079D02*
X18236491Y-11210174D01*
X18236491Y-11210174D02*
X18236491Y-11257793D01*
X18236491Y-11257793D02*
X18226968Y-11295888D01*
X18226968Y-11295888D02*
X18217444Y-11314936D01*
X18217444Y-11314936D02*
X18207920Y-11324460D01*
X18207920Y-11324460D02*
X18188872Y-11333984D01*
X18188872Y-11333984D02*
X18169825Y-11333984D01*
X18169825Y-11333984D02*
X18150777Y-11324460D01*
X18150777Y-11324460D02*
X18141253Y-11314936D01*
X18141253Y-11314936D02*
X18131729Y-11295888D01*
X18131729Y-11295888D02*
X18122206Y-11257793D01*
X18122206Y-11257793D02*
X18122206Y-11210174D01*
X18122206Y-11210174D02*
X18131729Y-11172079D01*
X18131729Y-11172079D02*
X18141253Y-11153031D01*
X18141253Y-11153031D02*
X18150777Y-11143508D01*
X18150777Y-11143508D02*
X18169825Y-11133984D01*
X18303158Y-11133984D02*
X18436491Y-11133984D01*
X18436491Y-11133984D02*
X18350777Y-11333984D01*
X18522206Y-11333984D02*
X18560301Y-11333984D01*
X18560301Y-11333984D02*
X18579349Y-11324460D01*
X18579349Y-11324460D02*
X18588872Y-11314936D01*
X18588872Y-11314936D02*
X18607920Y-11286365D01*
X18607920Y-11286365D02*
X18617444Y-11248269D01*
X18617444Y-11248269D02*
X18617444Y-11172079D01*
X18617444Y-11172079D02*
X18607920Y-11153031D01*
X18607920Y-11153031D02*
X18598396Y-11143508D01*
X18598396Y-11143508D02*
X18579349Y-11133984D01*
X18579349Y-11133984D02*
X18541253Y-11133984D01*
X18541253Y-11133984D02*
X18522206Y-11143508D01*
X18522206Y-11143508D02*
X18512682Y-11153031D01*
X18512682Y-11153031D02*
X18503158Y-11172079D01*
X18503158Y-11172079D02*
X18503158Y-11219698D01*
X18503158Y-11219698D02*
X18512682Y-11238746D01*
X18512682Y-11238746D02*
X18522206Y-11248269D01*
X18522206Y-11248269D02*
X18541253Y-11257793D01*
X18541253Y-11257793D02*
X18579349Y-11257793D01*
X18579349Y-11257793D02*
X18598396Y-11248269D01*
X18598396Y-11248269D02*
X18607920Y-11238746D01*
X18607920Y-11238746D02*
X18617444Y-11219698D01*
X18693634Y-11133984D02*
X18693634Y-11172079D01*
X18769825Y-11133984D02*
X18769825Y-11172079D01*
X19065063Y-11410174D02*
X19055539Y-11400650D01*
X19055539Y-11400650D02*
X19036491Y-11372079D01*
X19036491Y-11372079D02*
X19026968Y-11353031D01*
X19026968Y-11353031D02*
X19017444Y-11324460D01*
X19017444Y-11324460D02*
X19007920Y-11276841D01*
X19007920Y-11276841D02*
X19007920Y-11238746D01*
X19007920Y-11238746D02*
X19017444Y-11191127D01*
X19017444Y-11191127D02*
X19026968Y-11162555D01*
X19026968Y-11162555D02*
X19036491Y-11143508D01*
X19036491Y-11143508D02*
X19055539Y-11114936D01*
X19055539Y-11114936D02*
X19065063Y-11105412D01*
X19169825Y-11219698D02*
X19150777Y-11210174D01*
X19150777Y-11210174D02*
X19141253Y-11200650D01*
X19141253Y-11200650D02*
X19131730Y-11181603D01*
X19131730Y-11181603D02*
X19131730Y-11172079D01*
X19131730Y-11172079D02*
X19141253Y-11153031D01*
X19141253Y-11153031D02*
X19150777Y-11143508D01*
X19150777Y-11143508D02*
X19169825Y-11133984D01*
X19169825Y-11133984D02*
X19207920Y-11133984D01*
X19207920Y-11133984D02*
X19226968Y-11143508D01*
X19226968Y-11143508D02*
X19236491Y-11153031D01*
X19236491Y-11153031D02*
X19246015Y-11172079D01*
X19246015Y-11172079D02*
X19246015Y-11181603D01*
X19246015Y-11181603D02*
X19236491Y-11200650D01*
X19236491Y-11200650D02*
X19226968Y-11210174D01*
X19226968Y-11210174D02*
X19207920Y-11219698D01*
X19207920Y-11219698D02*
X19169825Y-11219698D01*
X19169825Y-11219698D02*
X19150777Y-11229222D01*
X19150777Y-11229222D02*
X19141253Y-11238746D01*
X19141253Y-11238746D02*
X19131730Y-11257793D01*
X19131730Y-11257793D02*
X19131730Y-11295888D01*
X19131730Y-11295888D02*
X19141253Y-11314936D01*
X19141253Y-11314936D02*
X19150777Y-11324460D01*
X19150777Y-11324460D02*
X19169825Y-11333984D01*
X19169825Y-11333984D02*
X19207920Y-11333984D01*
X19207920Y-11333984D02*
X19226968Y-11324460D01*
X19226968Y-11324460D02*
X19236491Y-11314936D01*
X19236491Y-11314936D02*
X19246015Y-11295888D01*
X19246015Y-11295888D02*
X19246015Y-11257793D01*
X19246015Y-11257793D02*
X19236491Y-11238746D01*
X19236491Y-11238746D02*
X19226968Y-11229222D01*
X19226968Y-11229222D02*
X19207920Y-11219698D01*
X19484111Y-11333984D02*
X19484111Y-11133984D01*
X19569825Y-11333984D02*
X19569825Y-11229222D01*
X19569825Y-11229222D02*
X19560301Y-11210174D01*
X19560301Y-11210174D02*
X19541253Y-11200650D01*
X19541253Y-11200650D02*
X19512682Y-11200650D01*
X19512682Y-11200650D02*
X19493634Y-11210174D01*
X19493634Y-11210174D02*
X19484111Y-11219698D01*
X19693634Y-11333984D02*
X19674587Y-11324460D01*
X19674587Y-11324460D02*
X19665063Y-11314936D01*
X19665063Y-11314936D02*
X19655539Y-11295888D01*
X19655539Y-11295888D02*
X19655539Y-11238746D01*
X19655539Y-11238746D02*
X19665063Y-11219698D01*
X19665063Y-11219698D02*
X19674587Y-11210174D01*
X19674587Y-11210174D02*
X19693634Y-11200650D01*
X19693634Y-11200650D02*
X19722206Y-11200650D01*
X19722206Y-11200650D02*
X19741253Y-11210174D01*
X19741253Y-11210174D02*
X19750777Y-11219698D01*
X19750777Y-11219698D02*
X19760301Y-11238746D01*
X19760301Y-11238746D02*
X19760301Y-11295888D01*
X19760301Y-11295888D02*
X19750777Y-11314936D01*
X19750777Y-11314936D02*
X19741253Y-11324460D01*
X19741253Y-11324460D02*
X19722206Y-11333984D01*
X19722206Y-11333984D02*
X19693634Y-11333984D01*
X19874587Y-11333984D02*
X19855539Y-11324460D01*
X19855539Y-11324460D02*
X19846015Y-11305412D01*
X19846015Y-11305412D02*
X19846015Y-11133984D01*
X20026968Y-11324460D02*
X20007920Y-11333984D01*
X20007920Y-11333984D02*
X19969825Y-11333984D01*
X19969825Y-11333984D02*
X19950777Y-11324460D01*
X19950777Y-11324460D02*
X19941253Y-11305412D01*
X19941253Y-11305412D02*
X19941253Y-11229222D01*
X19941253Y-11229222D02*
X19950777Y-11210174D01*
X19950777Y-11210174D02*
X19969825Y-11200650D01*
X19969825Y-11200650D02*
X20007920Y-11200650D01*
X20007920Y-11200650D02*
X20026968Y-11210174D01*
X20026968Y-11210174D02*
X20036492Y-11229222D01*
X20036492Y-11229222D02*
X20036492Y-11248269D01*
X20036492Y-11248269D02*
X19941253Y-11267317D01*
X20112682Y-11324460D02*
X20131730Y-11333984D01*
X20131730Y-11333984D02*
X20169825Y-11333984D01*
X20169825Y-11333984D02*
X20188873Y-11324460D01*
X20188873Y-11324460D02*
X20198396Y-11305412D01*
X20198396Y-11305412D02*
X20198396Y-11295888D01*
X20198396Y-11295888D02*
X20188873Y-11276841D01*
X20188873Y-11276841D02*
X20169825Y-11267317D01*
X20169825Y-11267317D02*
X20141253Y-11267317D01*
X20141253Y-11267317D02*
X20122206Y-11257793D01*
X20122206Y-11257793D02*
X20112682Y-11238746D01*
X20112682Y-11238746D02*
X20112682Y-11229222D01*
X20112682Y-11229222D02*
X20122206Y-11210174D01*
X20122206Y-11210174D02*
X20141253Y-11200650D01*
X20141253Y-11200650D02*
X20169825Y-11200650D01*
X20169825Y-11200650D02*
X20188873Y-11210174D01*
X20265063Y-11410174D02*
X20274587Y-11400650D01*
X20274587Y-11400650D02*
X20293634Y-11372079D01*
X20293634Y-11372079D02*
X20303158Y-11353031D01*
X20303158Y-11353031D02*
X20312682Y-11324460D01*
X20312682Y-11324460D02*
X20322206Y-11276841D01*
X20322206Y-11276841D02*
X20322206Y-11238746D01*
X20322206Y-11238746D02*
X20312682Y-11191127D01*
X20312682Y-11191127D02*
X20303158Y-11162555D01*
X20303158Y-11162555D02*
X20293634Y-11143508D01*
X20293634Y-11143508D02*
X20274587Y-11114936D01*
X20274587Y-11114936D02*
X20265063Y-11105412D01*
D10*
X15490000Y-11506500D02*
G75*
G02*
X15440000Y-11506500I-25000J0D01*
G01*
X15440000Y-11506500D02*
G75*
G02*
X15490000Y-11506500I25000J0D01*
G01*
D11*
X15788872Y-11397984D02*
X15807920Y-11397984D01*
X15807920Y-11397984D02*
X15826967Y-11407508D01*
X15826967Y-11407508D02*
X15836491Y-11417031D01*
X15836491Y-11417031D02*
X15846015Y-11436079D01*
X15846015Y-11436079D02*
X15855539Y-11474174D01*
X15855539Y-11474174D02*
X15855539Y-11521793D01*
X15855539Y-11521793D02*
X15846015Y-11559888D01*
X15846015Y-11559888D02*
X15836491Y-11578936D01*
X15836491Y-11578936D02*
X15826967Y-11588460D01*
X15826967Y-11588460D02*
X15807920Y-11597984D01*
X15807920Y-11597984D02*
X15788872Y-11597984D01*
X15788872Y-11597984D02*
X15769824Y-11588460D01*
X15769824Y-11588460D02*
X15760301Y-11578936D01*
X15760301Y-11578936D02*
X15750777Y-11559888D01*
X15750777Y-11559888D02*
X15741253Y-11521793D01*
X15741253Y-11521793D02*
X15741253Y-11474174D01*
X15741253Y-11474174D02*
X15750777Y-11436079D01*
X15750777Y-11436079D02*
X15760301Y-11417031D01*
X15760301Y-11417031D02*
X15769824Y-11407508D01*
X15769824Y-11407508D02*
X15788872Y-11397984D01*
X15941253Y-11578936D02*
X15950777Y-11588460D01*
X15950777Y-11588460D02*
X15941253Y-11597984D01*
X15941253Y-11597984D02*
X15931729Y-11588460D01*
X15931729Y-11588460D02*
X15941253Y-11578936D01*
X15941253Y-11578936D02*
X15941253Y-11597984D01*
X16131729Y-11397984D02*
X16036491Y-11397984D01*
X16036491Y-11397984D02*
X16026967Y-11493222D01*
X16026967Y-11493222D02*
X16036491Y-11483698D01*
X16036491Y-11483698D02*
X16055539Y-11474174D01*
X16055539Y-11474174D02*
X16103158Y-11474174D01*
X16103158Y-11474174D02*
X16122205Y-11483698D01*
X16122205Y-11483698D02*
X16131729Y-11493222D01*
X16131729Y-11493222D02*
X16141253Y-11512269D01*
X16141253Y-11512269D02*
X16141253Y-11559888D01*
X16141253Y-11559888D02*
X16131729Y-11578936D01*
X16131729Y-11578936D02*
X16122205Y-11588460D01*
X16122205Y-11588460D02*
X16103158Y-11597984D01*
X16103158Y-11597984D02*
X16055539Y-11597984D01*
X16055539Y-11597984D02*
X16036491Y-11588460D01*
X16036491Y-11588460D02*
X16026967Y-11578936D01*
X16265062Y-11397984D02*
X16284110Y-11397984D01*
X16284110Y-11397984D02*
X16303158Y-11407508D01*
X16303158Y-11407508D02*
X16312682Y-11417031D01*
X16312682Y-11417031D02*
X16322205Y-11436079D01*
X16322205Y-11436079D02*
X16331729Y-11474174D01*
X16331729Y-11474174D02*
X16331729Y-11521793D01*
X16331729Y-11521793D02*
X16322205Y-11559888D01*
X16322205Y-11559888D02*
X16312682Y-11578936D01*
X16312682Y-11578936D02*
X16303158Y-11588460D01*
X16303158Y-11588460D02*
X16284110Y-11597984D01*
X16284110Y-11597984D02*
X16265062Y-11597984D01*
X16265062Y-11597984D02*
X16246015Y-11588460D01*
X16246015Y-11588460D02*
X16236491Y-11578936D01*
X16236491Y-11578936D02*
X16226967Y-11559888D01*
X16226967Y-11559888D02*
X16217443Y-11521793D01*
X16217443Y-11521793D02*
X16217443Y-11474174D01*
X16217443Y-11474174D02*
X16226967Y-11436079D01*
X16226967Y-11436079D02*
X16236491Y-11417031D01*
X16236491Y-11417031D02*
X16246015Y-11407508D01*
X16246015Y-11407508D02*
X16265062Y-11397984D01*
X16455539Y-11397984D02*
X16474586Y-11397984D01*
X16474586Y-11397984D02*
X16493634Y-11407508D01*
X16493634Y-11407508D02*
X16503158Y-11417031D01*
X16503158Y-11417031D02*
X16512682Y-11436079D01*
X16512682Y-11436079D02*
X16522205Y-11474174D01*
X16522205Y-11474174D02*
X16522205Y-11521793D01*
X16522205Y-11521793D02*
X16512682Y-11559888D01*
X16512682Y-11559888D02*
X16503158Y-11578936D01*
X16503158Y-11578936D02*
X16493634Y-11588460D01*
X16493634Y-11588460D02*
X16474586Y-11597984D01*
X16474586Y-11597984D02*
X16455539Y-11597984D01*
X16455539Y-11597984D02*
X16436491Y-11588460D01*
X16436491Y-11588460D02*
X16426967Y-11578936D01*
X16426967Y-11578936D02*
X16417443Y-11559888D01*
X16417443Y-11559888D02*
X16407920Y-11521793D01*
X16407920Y-11521793D02*
X16407920Y-11474174D01*
X16407920Y-11474174D02*
X16417443Y-11436079D01*
X16417443Y-11436079D02*
X16426967Y-11417031D01*
X16426967Y-11417031D02*
X16436491Y-11407508D01*
X16436491Y-11407508D02*
X16455539Y-11397984D01*
X16607920Y-11597984D02*
X16607920Y-11464650D01*
X16607920Y-11483698D02*
X16617443Y-11474174D01*
X16617443Y-11474174D02*
X16636491Y-11464650D01*
X16636491Y-11464650D02*
X16665063Y-11464650D01*
X16665063Y-11464650D02*
X16684110Y-11474174D01*
X16684110Y-11474174D02*
X16693634Y-11493222D01*
X16693634Y-11493222D02*
X16693634Y-11597984D01*
X16693634Y-11493222D02*
X16703158Y-11474174D01*
X16703158Y-11474174D02*
X16722205Y-11464650D01*
X16722205Y-11464650D02*
X16750777Y-11464650D01*
X16750777Y-11464650D02*
X16769824Y-11474174D01*
X16769824Y-11474174D02*
X16779348Y-11493222D01*
X16779348Y-11493222D02*
X16779348Y-11597984D01*
X16874586Y-11597984D02*
X16874586Y-11464650D01*
X16874586Y-11483698D02*
X16884110Y-11474174D01*
X16884110Y-11474174D02*
X16903158Y-11464650D01*
X16903158Y-11464650D02*
X16931729Y-11464650D01*
X16931729Y-11464650D02*
X16950777Y-11474174D01*
X16950777Y-11474174D02*
X16960301Y-11493222D01*
X16960301Y-11493222D02*
X16960301Y-11597984D01*
X16960301Y-11493222D02*
X16969825Y-11474174D01*
X16969825Y-11474174D02*
X16988872Y-11464650D01*
X16988872Y-11464650D02*
X17017444Y-11464650D01*
X17017444Y-11464650D02*
X17036491Y-11474174D01*
X17036491Y-11474174D02*
X17046015Y-11493222D01*
X17046015Y-11493222D02*
X17046015Y-11597984D01*
X17436491Y-11388460D02*
X17265063Y-11645603D01*
X17693634Y-11397984D02*
X17712682Y-11397984D01*
X17712682Y-11397984D02*
X17731729Y-11407508D01*
X17731729Y-11407508D02*
X17741253Y-11417031D01*
X17741253Y-11417031D02*
X17750777Y-11436079D01*
X17750777Y-11436079D02*
X17760301Y-11474174D01*
X17760301Y-11474174D02*
X17760301Y-11521793D01*
X17760301Y-11521793D02*
X17750777Y-11559888D01*
X17750777Y-11559888D02*
X17741253Y-11578936D01*
X17741253Y-11578936D02*
X17731729Y-11588460D01*
X17731729Y-11588460D02*
X17712682Y-11597984D01*
X17712682Y-11597984D02*
X17693634Y-11597984D01*
X17693634Y-11597984D02*
X17674587Y-11588460D01*
X17674587Y-11588460D02*
X17665063Y-11578936D01*
X17665063Y-11578936D02*
X17655539Y-11559888D01*
X17655539Y-11559888D02*
X17646015Y-11521793D01*
X17646015Y-11521793D02*
X17646015Y-11474174D01*
X17646015Y-11474174D02*
X17655539Y-11436079D01*
X17655539Y-11436079D02*
X17665063Y-11417031D01*
X17665063Y-11417031D02*
X17674587Y-11407508D01*
X17674587Y-11407508D02*
X17693634Y-11397984D01*
X17846015Y-11578936D02*
X17855539Y-11588460D01*
X17855539Y-11588460D02*
X17846015Y-11597984D01*
X17846015Y-11597984D02*
X17836491Y-11588460D01*
X17836491Y-11588460D02*
X17846015Y-11578936D01*
X17846015Y-11578936D02*
X17846015Y-11597984D01*
X17979348Y-11397984D02*
X17998396Y-11397984D01*
X17998396Y-11397984D02*
X18017444Y-11407508D01*
X18017444Y-11407508D02*
X18026968Y-11417031D01*
X18026968Y-11417031D02*
X18036491Y-11436079D01*
X18036491Y-11436079D02*
X18046015Y-11474174D01*
X18046015Y-11474174D02*
X18046015Y-11521793D01*
X18046015Y-11521793D02*
X18036491Y-11559888D01*
X18036491Y-11559888D02*
X18026968Y-11578936D01*
X18026968Y-11578936D02*
X18017444Y-11588460D01*
X18017444Y-11588460D02*
X17998396Y-11597984D01*
X17998396Y-11597984D02*
X17979348Y-11597984D01*
X17979348Y-11597984D02*
X17960301Y-11588460D01*
X17960301Y-11588460D02*
X17950777Y-11578936D01*
X17950777Y-11578936D02*
X17941253Y-11559888D01*
X17941253Y-11559888D02*
X17931729Y-11521793D01*
X17931729Y-11521793D02*
X17931729Y-11474174D01*
X17931729Y-11474174D02*
X17941253Y-11436079D01*
X17941253Y-11436079D02*
X17950777Y-11417031D01*
X17950777Y-11417031D02*
X17960301Y-11407508D01*
X17960301Y-11407508D02*
X17979348Y-11397984D01*
X18236491Y-11597984D02*
X18122206Y-11597984D01*
X18179348Y-11597984D02*
X18179348Y-11397984D01*
X18179348Y-11397984D02*
X18160301Y-11426555D01*
X18160301Y-11426555D02*
X18141253Y-11445603D01*
X18141253Y-11445603D02*
X18122206Y-11455127D01*
X18331729Y-11597984D02*
X18369825Y-11597984D01*
X18369825Y-11597984D02*
X18388872Y-11588460D01*
X18388872Y-11588460D02*
X18398396Y-11578936D01*
X18398396Y-11578936D02*
X18417444Y-11550365D01*
X18417444Y-11550365D02*
X18426968Y-11512269D01*
X18426968Y-11512269D02*
X18426968Y-11436079D01*
X18426968Y-11436079D02*
X18417444Y-11417031D01*
X18417444Y-11417031D02*
X18407920Y-11407508D01*
X18407920Y-11407508D02*
X18388872Y-11397984D01*
X18388872Y-11397984D02*
X18350777Y-11397984D01*
X18350777Y-11397984D02*
X18331729Y-11407508D01*
X18331729Y-11407508D02*
X18322206Y-11417031D01*
X18322206Y-11417031D02*
X18312682Y-11436079D01*
X18312682Y-11436079D02*
X18312682Y-11483698D01*
X18312682Y-11483698D02*
X18322206Y-11502746D01*
X18322206Y-11502746D02*
X18331729Y-11512269D01*
X18331729Y-11512269D02*
X18350777Y-11521793D01*
X18350777Y-11521793D02*
X18388872Y-11521793D01*
X18388872Y-11521793D02*
X18407920Y-11512269D01*
X18407920Y-11512269D02*
X18417444Y-11502746D01*
X18417444Y-11502746D02*
X18426968Y-11483698D01*
X18493634Y-11397984D02*
X18626968Y-11397984D01*
X18626968Y-11397984D02*
X18541253Y-11597984D01*
X18693634Y-11397984D02*
X18693634Y-11436079D01*
X18769825Y-11397984D02*
X18769825Y-11436079D01*
X19065063Y-11674174D02*
X19055539Y-11664650D01*
X19055539Y-11664650D02*
X19036491Y-11636079D01*
X19036491Y-11636079D02*
X19026968Y-11617031D01*
X19026968Y-11617031D02*
X19017444Y-11588460D01*
X19017444Y-11588460D02*
X19007920Y-11540841D01*
X19007920Y-11540841D02*
X19007920Y-11502746D01*
X19007920Y-11502746D02*
X19017444Y-11455127D01*
X19017444Y-11455127D02*
X19026968Y-11426555D01*
X19026968Y-11426555D02*
X19036491Y-11407508D01*
X19036491Y-11407508D02*
X19055539Y-11378936D01*
X19055539Y-11378936D02*
X19065063Y-11369412D01*
X19246015Y-11597984D02*
X19131730Y-11597984D01*
X19188872Y-11597984D02*
X19188872Y-11397984D01*
X19188872Y-11397984D02*
X19169825Y-11426555D01*
X19169825Y-11426555D02*
X19150777Y-11445603D01*
X19150777Y-11445603D02*
X19131730Y-11455127D01*
X19417444Y-11397984D02*
X19379349Y-11397984D01*
X19379349Y-11397984D02*
X19360301Y-11407508D01*
X19360301Y-11407508D02*
X19350777Y-11417031D01*
X19350777Y-11417031D02*
X19331730Y-11445603D01*
X19331730Y-11445603D02*
X19322206Y-11483698D01*
X19322206Y-11483698D02*
X19322206Y-11559888D01*
X19322206Y-11559888D02*
X19331730Y-11578936D01*
X19331730Y-11578936D02*
X19341253Y-11588460D01*
X19341253Y-11588460D02*
X19360301Y-11597984D01*
X19360301Y-11597984D02*
X19398396Y-11597984D01*
X19398396Y-11597984D02*
X19417444Y-11588460D01*
X19417444Y-11588460D02*
X19426968Y-11578936D01*
X19426968Y-11578936D02*
X19436491Y-11559888D01*
X19436491Y-11559888D02*
X19436491Y-11512269D01*
X19436491Y-11512269D02*
X19426968Y-11493222D01*
X19426968Y-11493222D02*
X19417444Y-11483698D01*
X19417444Y-11483698D02*
X19398396Y-11474174D01*
X19398396Y-11474174D02*
X19360301Y-11474174D01*
X19360301Y-11474174D02*
X19341253Y-11483698D01*
X19341253Y-11483698D02*
X19331730Y-11493222D01*
X19331730Y-11493222D02*
X19322206Y-11512269D01*
X19674587Y-11597984D02*
X19674587Y-11397984D01*
X19760301Y-11597984D02*
X19760301Y-11493222D01*
X19760301Y-11493222D02*
X19750777Y-11474174D01*
X19750777Y-11474174D02*
X19731730Y-11464650D01*
X19731730Y-11464650D02*
X19703158Y-11464650D01*
X19703158Y-11464650D02*
X19684111Y-11474174D01*
X19684111Y-11474174D02*
X19674587Y-11483698D01*
X19884111Y-11597984D02*
X19865063Y-11588460D01*
X19865063Y-11588460D02*
X19855539Y-11578936D01*
X19855539Y-11578936D02*
X19846015Y-11559888D01*
X19846015Y-11559888D02*
X19846015Y-11502746D01*
X19846015Y-11502746D02*
X19855539Y-11483698D01*
X19855539Y-11483698D02*
X19865063Y-11474174D01*
X19865063Y-11474174D02*
X19884111Y-11464650D01*
X19884111Y-11464650D02*
X19912682Y-11464650D01*
X19912682Y-11464650D02*
X19931730Y-11474174D01*
X19931730Y-11474174D02*
X19941253Y-11483698D01*
X19941253Y-11483698D02*
X19950777Y-11502746D01*
X19950777Y-11502746D02*
X19950777Y-11559888D01*
X19950777Y-11559888D02*
X19941253Y-11578936D01*
X19941253Y-11578936D02*
X19931730Y-11588460D01*
X19931730Y-11588460D02*
X19912682Y-11597984D01*
X19912682Y-11597984D02*
X19884111Y-11597984D01*
X20065063Y-11597984D02*
X20046015Y-11588460D01*
X20046015Y-11588460D02*
X20036492Y-11569412D01*
X20036492Y-11569412D02*
X20036492Y-11397984D01*
X20217444Y-11588460D02*
X20198396Y-11597984D01*
X20198396Y-11597984D02*
X20160301Y-11597984D01*
X20160301Y-11597984D02*
X20141253Y-11588460D01*
X20141253Y-11588460D02*
X20131730Y-11569412D01*
X20131730Y-11569412D02*
X20131730Y-11493222D01*
X20131730Y-11493222D02*
X20141253Y-11474174D01*
X20141253Y-11474174D02*
X20160301Y-11464650D01*
X20160301Y-11464650D02*
X20198396Y-11464650D01*
X20198396Y-11464650D02*
X20217444Y-11474174D01*
X20217444Y-11474174D02*
X20226968Y-11493222D01*
X20226968Y-11493222D02*
X20226968Y-11512269D01*
X20226968Y-11512269D02*
X20131730Y-11531317D01*
X20303158Y-11588460D02*
X20322206Y-11597984D01*
X20322206Y-11597984D02*
X20360301Y-11597984D01*
X20360301Y-11597984D02*
X20379349Y-11588460D01*
X20379349Y-11588460D02*
X20388873Y-11569412D01*
X20388873Y-11569412D02*
X20388873Y-11559888D01*
X20388873Y-11559888D02*
X20379349Y-11540841D01*
X20379349Y-11540841D02*
X20360301Y-11531317D01*
X20360301Y-11531317D02*
X20331730Y-11531317D01*
X20331730Y-11531317D02*
X20312682Y-11521793D01*
X20312682Y-11521793D02*
X20303158Y-11502746D01*
X20303158Y-11502746D02*
X20303158Y-11493222D01*
X20303158Y-11493222D02*
X20312682Y-11474174D01*
X20312682Y-11474174D02*
X20331730Y-11464650D01*
X20331730Y-11464650D02*
X20360301Y-11464650D01*
X20360301Y-11464650D02*
X20379349Y-11474174D01*
X20455539Y-11674174D02*
X20465063Y-11664650D01*
X20465063Y-11664650D02*
X20484111Y-11636079D01*
X20484111Y-11636079D02*
X20493634Y-11617031D01*
X20493634Y-11617031D02*
X20503158Y-11588460D01*
X20503158Y-11588460D02*
X20512682Y-11540841D01*
X20512682Y-11540841D02*
X20512682Y-11502746D01*
X20512682Y-11502746D02*
X20503158Y-11455127D01*
X20503158Y-11455127D02*
X20493634Y-11426555D01*
X20493634Y-11426555D02*
X20484111Y-11407508D01*
X20484111Y-11407508D02*
X20465063Y-11378936D01*
X20465063Y-11378936D02*
X20455539Y-11369412D01*
D10*
X15460000Y-11740500D02*
X15460000Y-11800500D01*
X15430000Y-11770500D02*
X15490000Y-11770500D01*
D11*
X15788872Y-11661984D02*
X15807920Y-11661984D01*
X15807920Y-11661984D02*
X15826967Y-11671508D01*
X15826967Y-11671508D02*
X15836491Y-11681031D01*
X15836491Y-11681031D02*
X15846015Y-11700079D01*
X15846015Y-11700079D02*
X15855539Y-11738174D01*
X15855539Y-11738174D02*
X15855539Y-11785793D01*
X15855539Y-11785793D02*
X15846015Y-11823888D01*
X15846015Y-11823888D02*
X15836491Y-11842936D01*
X15836491Y-11842936D02*
X15826967Y-11852460D01*
X15826967Y-11852460D02*
X15807920Y-11861984D01*
X15807920Y-11861984D02*
X15788872Y-11861984D01*
X15788872Y-11861984D02*
X15769824Y-11852460D01*
X15769824Y-11852460D02*
X15760301Y-11842936D01*
X15760301Y-11842936D02*
X15750777Y-11823888D01*
X15750777Y-11823888D02*
X15741253Y-11785793D01*
X15741253Y-11785793D02*
X15741253Y-11738174D01*
X15741253Y-11738174D02*
X15750777Y-11700079D01*
X15750777Y-11700079D02*
X15760301Y-11681031D01*
X15760301Y-11681031D02*
X15769824Y-11671508D01*
X15769824Y-11671508D02*
X15788872Y-11661984D01*
X15941253Y-11842936D02*
X15950777Y-11852460D01*
X15950777Y-11852460D02*
X15941253Y-11861984D01*
X15941253Y-11861984D02*
X15931729Y-11852460D01*
X15931729Y-11852460D02*
X15941253Y-11842936D01*
X15941253Y-11842936D02*
X15941253Y-11861984D01*
X16122205Y-11661984D02*
X16084110Y-11661984D01*
X16084110Y-11661984D02*
X16065062Y-11671508D01*
X16065062Y-11671508D02*
X16055539Y-11681031D01*
X16055539Y-11681031D02*
X16036491Y-11709603D01*
X16036491Y-11709603D02*
X16026967Y-11747698D01*
X16026967Y-11747698D02*
X16026967Y-11823888D01*
X16026967Y-11823888D02*
X16036491Y-11842936D01*
X16036491Y-11842936D02*
X16046015Y-11852460D01*
X16046015Y-11852460D02*
X16065062Y-11861984D01*
X16065062Y-11861984D02*
X16103158Y-11861984D01*
X16103158Y-11861984D02*
X16122205Y-11852460D01*
X16122205Y-11852460D02*
X16131729Y-11842936D01*
X16131729Y-11842936D02*
X16141253Y-11823888D01*
X16141253Y-11823888D02*
X16141253Y-11776269D01*
X16141253Y-11776269D02*
X16131729Y-11757222D01*
X16131729Y-11757222D02*
X16122205Y-11747698D01*
X16122205Y-11747698D02*
X16103158Y-11738174D01*
X16103158Y-11738174D02*
X16065062Y-11738174D01*
X16065062Y-11738174D02*
X16046015Y-11747698D01*
X16046015Y-11747698D02*
X16036491Y-11757222D01*
X16036491Y-11757222D02*
X16026967Y-11776269D01*
X16265062Y-11661984D02*
X16284110Y-11661984D01*
X16284110Y-11661984D02*
X16303158Y-11671508D01*
X16303158Y-11671508D02*
X16312682Y-11681031D01*
X16312682Y-11681031D02*
X16322205Y-11700079D01*
X16322205Y-11700079D02*
X16331729Y-11738174D01*
X16331729Y-11738174D02*
X16331729Y-11785793D01*
X16331729Y-11785793D02*
X16322205Y-11823888D01*
X16322205Y-11823888D02*
X16312682Y-11842936D01*
X16312682Y-11842936D02*
X16303158Y-11852460D01*
X16303158Y-11852460D02*
X16284110Y-11861984D01*
X16284110Y-11861984D02*
X16265062Y-11861984D01*
X16265062Y-11861984D02*
X16246015Y-11852460D01*
X16246015Y-11852460D02*
X16236491Y-11842936D01*
X16236491Y-11842936D02*
X16226967Y-11823888D01*
X16226967Y-11823888D02*
X16217443Y-11785793D01*
X16217443Y-11785793D02*
X16217443Y-11738174D01*
X16217443Y-11738174D02*
X16226967Y-11700079D01*
X16226967Y-11700079D02*
X16236491Y-11681031D01*
X16236491Y-11681031D02*
X16246015Y-11671508D01*
X16246015Y-11671508D02*
X16265062Y-11661984D01*
X16455539Y-11661984D02*
X16474586Y-11661984D01*
X16474586Y-11661984D02*
X16493634Y-11671508D01*
X16493634Y-11671508D02*
X16503158Y-11681031D01*
X16503158Y-11681031D02*
X16512682Y-11700079D01*
X16512682Y-11700079D02*
X16522205Y-11738174D01*
X16522205Y-11738174D02*
X16522205Y-11785793D01*
X16522205Y-11785793D02*
X16512682Y-11823888D01*
X16512682Y-11823888D02*
X16503158Y-11842936D01*
X16503158Y-11842936D02*
X16493634Y-11852460D01*
X16493634Y-11852460D02*
X16474586Y-11861984D01*
X16474586Y-11861984D02*
X16455539Y-11861984D01*
X16455539Y-11861984D02*
X16436491Y-11852460D01*
X16436491Y-11852460D02*
X16426967Y-11842936D01*
X16426967Y-11842936D02*
X16417443Y-11823888D01*
X16417443Y-11823888D02*
X16407920Y-11785793D01*
X16407920Y-11785793D02*
X16407920Y-11738174D01*
X16407920Y-11738174D02*
X16417443Y-11700079D01*
X16417443Y-11700079D02*
X16426967Y-11681031D01*
X16426967Y-11681031D02*
X16436491Y-11671508D01*
X16436491Y-11671508D02*
X16455539Y-11661984D01*
X16607920Y-11861984D02*
X16607920Y-11728650D01*
X16607920Y-11747698D02*
X16617443Y-11738174D01*
X16617443Y-11738174D02*
X16636491Y-11728650D01*
X16636491Y-11728650D02*
X16665063Y-11728650D01*
X16665063Y-11728650D02*
X16684110Y-11738174D01*
X16684110Y-11738174D02*
X16693634Y-11757222D01*
X16693634Y-11757222D02*
X16693634Y-11861984D01*
X16693634Y-11757222D02*
X16703158Y-11738174D01*
X16703158Y-11738174D02*
X16722205Y-11728650D01*
X16722205Y-11728650D02*
X16750777Y-11728650D01*
X16750777Y-11728650D02*
X16769824Y-11738174D01*
X16769824Y-11738174D02*
X16779348Y-11757222D01*
X16779348Y-11757222D02*
X16779348Y-11861984D01*
X16874586Y-11861984D02*
X16874586Y-11728650D01*
X16874586Y-11747698D02*
X16884110Y-11738174D01*
X16884110Y-11738174D02*
X16903158Y-11728650D01*
X16903158Y-11728650D02*
X16931729Y-11728650D01*
X16931729Y-11728650D02*
X16950777Y-11738174D01*
X16950777Y-11738174D02*
X16960301Y-11757222D01*
X16960301Y-11757222D02*
X16960301Y-11861984D01*
X16960301Y-11757222D02*
X16969825Y-11738174D01*
X16969825Y-11738174D02*
X16988872Y-11728650D01*
X16988872Y-11728650D02*
X17017444Y-11728650D01*
X17017444Y-11728650D02*
X17036491Y-11738174D01*
X17036491Y-11738174D02*
X17046015Y-11757222D01*
X17046015Y-11757222D02*
X17046015Y-11861984D01*
X17436491Y-11652460D02*
X17265063Y-11909603D01*
X17693634Y-11661984D02*
X17712682Y-11661984D01*
X17712682Y-11661984D02*
X17731729Y-11671508D01*
X17731729Y-11671508D02*
X17741253Y-11681031D01*
X17741253Y-11681031D02*
X17750777Y-11700079D01*
X17750777Y-11700079D02*
X17760301Y-11738174D01*
X17760301Y-11738174D02*
X17760301Y-11785793D01*
X17760301Y-11785793D02*
X17750777Y-11823888D01*
X17750777Y-11823888D02*
X17741253Y-11842936D01*
X17741253Y-11842936D02*
X17731729Y-11852460D01*
X17731729Y-11852460D02*
X17712682Y-11861984D01*
X17712682Y-11861984D02*
X17693634Y-11861984D01*
X17693634Y-11861984D02*
X17674587Y-11852460D01*
X17674587Y-11852460D02*
X17665063Y-11842936D01*
X17665063Y-11842936D02*
X17655539Y-11823888D01*
X17655539Y-11823888D02*
X17646015Y-11785793D01*
X17646015Y-11785793D02*
X17646015Y-11738174D01*
X17646015Y-11738174D02*
X17655539Y-11700079D01*
X17655539Y-11700079D02*
X17665063Y-11681031D01*
X17665063Y-11681031D02*
X17674587Y-11671508D01*
X17674587Y-11671508D02*
X17693634Y-11661984D01*
X17846015Y-11842936D02*
X17855539Y-11852460D01*
X17855539Y-11852460D02*
X17846015Y-11861984D01*
X17846015Y-11861984D02*
X17836491Y-11852460D01*
X17836491Y-11852460D02*
X17846015Y-11842936D01*
X17846015Y-11842936D02*
X17846015Y-11861984D01*
X17979348Y-11661984D02*
X17998396Y-11661984D01*
X17998396Y-11661984D02*
X18017444Y-11671508D01*
X18017444Y-11671508D02*
X18026968Y-11681031D01*
X18026968Y-11681031D02*
X18036491Y-11700079D01*
X18036491Y-11700079D02*
X18046015Y-11738174D01*
X18046015Y-11738174D02*
X18046015Y-11785793D01*
X18046015Y-11785793D02*
X18036491Y-11823888D01*
X18036491Y-11823888D02*
X18026968Y-11842936D01*
X18026968Y-11842936D02*
X18017444Y-11852460D01*
X18017444Y-11852460D02*
X17998396Y-11861984D01*
X17998396Y-11861984D02*
X17979348Y-11861984D01*
X17979348Y-11861984D02*
X17960301Y-11852460D01*
X17960301Y-11852460D02*
X17950777Y-11842936D01*
X17950777Y-11842936D02*
X17941253Y-11823888D01*
X17941253Y-11823888D02*
X17931729Y-11785793D01*
X17931729Y-11785793D02*
X17931729Y-11738174D01*
X17931729Y-11738174D02*
X17941253Y-11700079D01*
X17941253Y-11700079D02*
X17950777Y-11681031D01*
X17950777Y-11681031D02*
X17960301Y-11671508D01*
X17960301Y-11671508D02*
X17979348Y-11661984D01*
X18122206Y-11681031D02*
X18131729Y-11671508D01*
X18131729Y-11671508D02*
X18150777Y-11661984D01*
X18150777Y-11661984D02*
X18198396Y-11661984D01*
X18198396Y-11661984D02*
X18217444Y-11671508D01*
X18217444Y-11671508D02*
X18226968Y-11681031D01*
X18226968Y-11681031D02*
X18236491Y-11700079D01*
X18236491Y-11700079D02*
X18236491Y-11719127D01*
X18236491Y-11719127D02*
X18226968Y-11747698D01*
X18226968Y-11747698D02*
X18112682Y-11861984D01*
X18112682Y-11861984D02*
X18236491Y-11861984D01*
X18303158Y-11661984D02*
X18426968Y-11661984D01*
X18426968Y-11661984D02*
X18360301Y-11738174D01*
X18360301Y-11738174D02*
X18388872Y-11738174D01*
X18388872Y-11738174D02*
X18407920Y-11747698D01*
X18407920Y-11747698D02*
X18417444Y-11757222D01*
X18417444Y-11757222D02*
X18426968Y-11776269D01*
X18426968Y-11776269D02*
X18426968Y-11823888D01*
X18426968Y-11823888D02*
X18417444Y-11842936D01*
X18417444Y-11842936D02*
X18407920Y-11852460D01*
X18407920Y-11852460D02*
X18388872Y-11861984D01*
X18388872Y-11861984D02*
X18331729Y-11861984D01*
X18331729Y-11861984D02*
X18312682Y-11852460D01*
X18312682Y-11852460D02*
X18303158Y-11842936D01*
X18598396Y-11661984D02*
X18560301Y-11661984D01*
X18560301Y-11661984D02*
X18541253Y-11671508D01*
X18541253Y-11671508D02*
X18531729Y-11681031D01*
X18531729Y-11681031D02*
X18512682Y-11709603D01*
X18512682Y-11709603D02*
X18503158Y-11747698D01*
X18503158Y-11747698D02*
X18503158Y-11823888D01*
X18503158Y-11823888D02*
X18512682Y-11842936D01*
X18512682Y-11842936D02*
X18522206Y-11852460D01*
X18522206Y-11852460D02*
X18541253Y-11861984D01*
X18541253Y-11861984D02*
X18579349Y-11861984D01*
X18579349Y-11861984D02*
X18598396Y-11852460D01*
X18598396Y-11852460D02*
X18607920Y-11842936D01*
X18607920Y-11842936D02*
X18617444Y-11823888D01*
X18617444Y-11823888D02*
X18617444Y-11776269D01*
X18617444Y-11776269D02*
X18607920Y-11757222D01*
X18607920Y-11757222D02*
X18598396Y-11747698D01*
X18598396Y-11747698D02*
X18579349Y-11738174D01*
X18579349Y-11738174D02*
X18541253Y-11738174D01*
X18541253Y-11738174D02*
X18522206Y-11747698D01*
X18522206Y-11747698D02*
X18512682Y-11757222D01*
X18512682Y-11757222D02*
X18503158Y-11776269D01*
X18693634Y-11661984D02*
X18693634Y-11700079D01*
X18769825Y-11661984D02*
X18769825Y-11700079D01*
X19065063Y-11938174D02*
X19055539Y-11928650D01*
X19055539Y-11928650D02*
X19036491Y-11900079D01*
X19036491Y-11900079D02*
X19026968Y-11881031D01*
X19026968Y-11881031D02*
X19017444Y-11852460D01*
X19017444Y-11852460D02*
X19007920Y-11804841D01*
X19007920Y-11804841D02*
X19007920Y-11766746D01*
X19007920Y-11766746D02*
X19017444Y-11719127D01*
X19017444Y-11719127D02*
X19026968Y-11690555D01*
X19026968Y-11690555D02*
X19036491Y-11671508D01*
X19036491Y-11671508D02*
X19055539Y-11642936D01*
X19055539Y-11642936D02*
X19065063Y-11633412D01*
X19236491Y-11661984D02*
X19141253Y-11661984D01*
X19141253Y-11661984D02*
X19131730Y-11757222D01*
X19131730Y-11757222D02*
X19141253Y-11747698D01*
X19141253Y-11747698D02*
X19160301Y-11738174D01*
X19160301Y-11738174D02*
X19207920Y-11738174D01*
X19207920Y-11738174D02*
X19226968Y-11747698D01*
X19226968Y-11747698D02*
X19236491Y-11757222D01*
X19236491Y-11757222D02*
X19246015Y-11776269D01*
X19246015Y-11776269D02*
X19246015Y-11823888D01*
X19246015Y-11823888D02*
X19236491Y-11842936D01*
X19236491Y-11842936D02*
X19226968Y-11852460D01*
X19226968Y-11852460D02*
X19207920Y-11861984D01*
X19207920Y-11861984D02*
X19160301Y-11861984D01*
X19160301Y-11861984D02*
X19141253Y-11852460D01*
X19141253Y-11852460D02*
X19131730Y-11842936D01*
X19484111Y-11861984D02*
X19484111Y-11661984D01*
X19569825Y-11861984D02*
X19569825Y-11757222D01*
X19569825Y-11757222D02*
X19560301Y-11738174D01*
X19560301Y-11738174D02*
X19541253Y-11728650D01*
X19541253Y-11728650D02*
X19512682Y-11728650D01*
X19512682Y-11728650D02*
X19493634Y-11738174D01*
X19493634Y-11738174D02*
X19484111Y-11747698D01*
X19693634Y-11861984D02*
X19674587Y-11852460D01*
X19674587Y-11852460D02*
X19665063Y-11842936D01*
X19665063Y-11842936D02*
X19655539Y-11823888D01*
X19655539Y-11823888D02*
X19655539Y-11766746D01*
X19655539Y-11766746D02*
X19665063Y-11747698D01*
X19665063Y-11747698D02*
X19674587Y-11738174D01*
X19674587Y-11738174D02*
X19693634Y-11728650D01*
X19693634Y-11728650D02*
X19722206Y-11728650D01*
X19722206Y-11728650D02*
X19741253Y-11738174D01*
X19741253Y-11738174D02*
X19750777Y-11747698D01*
X19750777Y-11747698D02*
X19760301Y-11766746D01*
X19760301Y-11766746D02*
X19760301Y-11823888D01*
X19760301Y-11823888D02*
X19750777Y-11842936D01*
X19750777Y-11842936D02*
X19741253Y-11852460D01*
X19741253Y-11852460D02*
X19722206Y-11861984D01*
X19722206Y-11861984D02*
X19693634Y-11861984D01*
X19874587Y-11861984D02*
X19855539Y-11852460D01*
X19855539Y-11852460D02*
X19846015Y-11833412D01*
X19846015Y-11833412D02*
X19846015Y-11661984D01*
X20026968Y-11852460D02*
X20007920Y-11861984D01*
X20007920Y-11861984D02*
X19969825Y-11861984D01*
X19969825Y-11861984D02*
X19950777Y-11852460D01*
X19950777Y-11852460D02*
X19941253Y-11833412D01*
X19941253Y-11833412D02*
X19941253Y-11757222D01*
X19941253Y-11757222D02*
X19950777Y-11738174D01*
X19950777Y-11738174D02*
X19969825Y-11728650D01*
X19969825Y-11728650D02*
X20007920Y-11728650D01*
X20007920Y-11728650D02*
X20026968Y-11738174D01*
X20026968Y-11738174D02*
X20036492Y-11757222D01*
X20036492Y-11757222D02*
X20036492Y-11776269D01*
X20036492Y-11776269D02*
X19941253Y-11795317D01*
X20112682Y-11852460D02*
X20131730Y-11861984D01*
X20131730Y-11861984D02*
X20169825Y-11861984D01*
X20169825Y-11861984D02*
X20188873Y-11852460D01*
X20188873Y-11852460D02*
X20198396Y-11833412D01*
X20198396Y-11833412D02*
X20198396Y-11823888D01*
X20198396Y-11823888D02*
X20188873Y-11804841D01*
X20188873Y-11804841D02*
X20169825Y-11795317D01*
X20169825Y-11795317D02*
X20141253Y-11795317D01*
X20141253Y-11795317D02*
X20122206Y-11785793D01*
X20122206Y-11785793D02*
X20112682Y-11766746D01*
X20112682Y-11766746D02*
X20112682Y-11757222D01*
X20112682Y-11757222D02*
X20122206Y-11738174D01*
X20122206Y-11738174D02*
X20141253Y-11728650D01*
X20141253Y-11728650D02*
X20169825Y-11728650D01*
X20169825Y-11728650D02*
X20188873Y-11738174D01*
X20265063Y-11938174D02*
X20274587Y-11928650D01*
X20274587Y-11928650D02*
X20293634Y-11900079D01*
X20293634Y-11900079D02*
X20303158Y-11881031D01*
X20303158Y-11881031D02*
X20312682Y-11852460D01*
X20312682Y-11852460D02*
X20322206Y-11804841D01*
X20322206Y-11804841D02*
X20322206Y-11766746D01*
X20322206Y-11766746D02*
X20312682Y-11719127D01*
X20312682Y-11719127D02*
X20303158Y-11690555D01*
X20303158Y-11690555D02*
X20293634Y-11671508D01*
X20293634Y-11671508D02*
X20274587Y-11642936D01*
X20274587Y-11642936D02*
X20265063Y-11633412D01*
D10*
X15476088Y-12068088D02*
X15476088Y-12000912D01*
X15408912Y-12000912D01*
X15408912Y-12068088D01*
X15476088Y-12068088D01*
D11*
X15788872Y-11925984D02*
X15807920Y-11925984D01*
X15807920Y-11925984D02*
X15826967Y-11935508D01*
X15826967Y-11935508D02*
X15836491Y-11945031D01*
X15836491Y-11945031D02*
X15846015Y-11964079D01*
X15846015Y-11964079D02*
X15855539Y-12002174D01*
X15855539Y-12002174D02*
X15855539Y-12049793D01*
X15855539Y-12049793D02*
X15846015Y-12087888D01*
X15846015Y-12087888D02*
X15836491Y-12106936D01*
X15836491Y-12106936D02*
X15826967Y-12116460D01*
X15826967Y-12116460D02*
X15807920Y-12125984D01*
X15807920Y-12125984D02*
X15788872Y-12125984D01*
X15788872Y-12125984D02*
X15769824Y-12116460D01*
X15769824Y-12116460D02*
X15760301Y-12106936D01*
X15760301Y-12106936D02*
X15750777Y-12087888D01*
X15750777Y-12087888D02*
X15741253Y-12049793D01*
X15741253Y-12049793D02*
X15741253Y-12002174D01*
X15741253Y-12002174D02*
X15750777Y-11964079D01*
X15750777Y-11964079D02*
X15760301Y-11945031D01*
X15760301Y-11945031D02*
X15769824Y-11935508D01*
X15769824Y-11935508D02*
X15788872Y-11925984D01*
X15941253Y-12106936D02*
X15950777Y-12116460D01*
X15950777Y-12116460D02*
X15941253Y-12125984D01*
X15941253Y-12125984D02*
X15931729Y-12116460D01*
X15931729Y-12116460D02*
X15941253Y-12106936D01*
X15941253Y-12106936D02*
X15941253Y-12125984D01*
X16046015Y-12125984D02*
X16084110Y-12125984D01*
X16084110Y-12125984D02*
X16103158Y-12116460D01*
X16103158Y-12116460D02*
X16112682Y-12106936D01*
X16112682Y-12106936D02*
X16131729Y-12078365D01*
X16131729Y-12078365D02*
X16141253Y-12040269D01*
X16141253Y-12040269D02*
X16141253Y-11964079D01*
X16141253Y-11964079D02*
X16131729Y-11945031D01*
X16131729Y-11945031D02*
X16122205Y-11935508D01*
X16122205Y-11935508D02*
X16103158Y-11925984D01*
X16103158Y-11925984D02*
X16065062Y-11925984D01*
X16065062Y-11925984D02*
X16046015Y-11935508D01*
X16046015Y-11935508D02*
X16036491Y-11945031D01*
X16036491Y-11945031D02*
X16026967Y-11964079D01*
X16026967Y-11964079D02*
X16026967Y-12011698D01*
X16026967Y-12011698D02*
X16036491Y-12030746D01*
X16036491Y-12030746D02*
X16046015Y-12040269D01*
X16046015Y-12040269D02*
X16065062Y-12049793D01*
X16065062Y-12049793D02*
X16103158Y-12049793D01*
X16103158Y-12049793D02*
X16122205Y-12040269D01*
X16122205Y-12040269D02*
X16131729Y-12030746D01*
X16131729Y-12030746D02*
X16141253Y-12011698D01*
X16322205Y-11925984D02*
X16226967Y-11925984D01*
X16226967Y-11925984D02*
X16217443Y-12021222D01*
X16217443Y-12021222D02*
X16226967Y-12011698D01*
X16226967Y-12011698D02*
X16246015Y-12002174D01*
X16246015Y-12002174D02*
X16293634Y-12002174D01*
X16293634Y-12002174D02*
X16312682Y-12011698D01*
X16312682Y-12011698D02*
X16322205Y-12021222D01*
X16322205Y-12021222D02*
X16331729Y-12040269D01*
X16331729Y-12040269D02*
X16331729Y-12087888D01*
X16331729Y-12087888D02*
X16322205Y-12106936D01*
X16322205Y-12106936D02*
X16312682Y-12116460D01*
X16312682Y-12116460D02*
X16293634Y-12125984D01*
X16293634Y-12125984D02*
X16246015Y-12125984D01*
X16246015Y-12125984D02*
X16226967Y-12116460D01*
X16226967Y-12116460D02*
X16217443Y-12106936D01*
X16455539Y-11925984D02*
X16474586Y-11925984D01*
X16474586Y-11925984D02*
X16493634Y-11935508D01*
X16493634Y-11935508D02*
X16503158Y-11945031D01*
X16503158Y-11945031D02*
X16512682Y-11964079D01*
X16512682Y-11964079D02*
X16522205Y-12002174D01*
X16522205Y-12002174D02*
X16522205Y-12049793D01*
X16522205Y-12049793D02*
X16512682Y-12087888D01*
X16512682Y-12087888D02*
X16503158Y-12106936D01*
X16503158Y-12106936D02*
X16493634Y-12116460D01*
X16493634Y-12116460D02*
X16474586Y-12125984D01*
X16474586Y-12125984D02*
X16455539Y-12125984D01*
X16455539Y-12125984D02*
X16436491Y-12116460D01*
X16436491Y-12116460D02*
X16426967Y-12106936D01*
X16426967Y-12106936D02*
X16417443Y-12087888D01*
X16417443Y-12087888D02*
X16407920Y-12049793D01*
X16407920Y-12049793D02*
X16407920Y-12002174D01*
X16407920Y-12002174D02*
X16417443Y-11964079D01*
X16417443Y-11964079D02*
X16426967Y-11945031D01*
X16426967Y-11945031D02*
X16436491Y-11935508D01*
X16436491Y-11935508D02*
X16455539Y-11925984D01*
X16607920Y-12125984D02*
X16607920Y-11992650D01*
X16607920Y-12011698D02*
X16617443Y-12002174D01*
X16617443Y-12002174D02*
X16636491Y-11992650D01*
X16636491Y-11992650D02*
X16665063Y-11992650D01*
X16665063Y-11992650D02*
X16684110Y-12002174D01*
X16684110Y-12002174D02*
X16693634Y-12021222D01*
X16693634Y-12021222D02*
X16693634Y-12125984D01*
X16693634Y-12021222D02*
X16703158Y-12002174D01*
X16703158Y-12002174D02*
X16722205Y-11992650D01*
X16722205Y-11992650D02*
X16750777Y-11992650D01*
X16750777Y-11992650D02*
X16769824Y-12002174D01*
X16769824Y-12002174D02*
X16779348Y-12021222D01*
X16779348Y-12021222D02*
X16779348Y-12125984D01*
X16874586Y-12125984D02*
X16874586Y-11992650D01*
X16874586Y-12011698D02*
X16884110Y-12002174D01*
X16884110Y-12002174D02*
X16903158Y-11992650D01*
X16903158Y-11992650D02*
X16931729Y-11992650D01*
X16931729Y-11992650D02*
X16950777Y-12002174D01*
X16950777Y-12002174D02*
X16960301Y-12021222D01*
X16960301Y-12021222D02*
X16960301Y-12125984D01*
X16960301Y-12021222D02*
X16969825Y-12002174D01*
X16969825Y-12002174D02*
X16988872Y-11992650D01*
X16988872Y-11992650D02*
X17017444Y-11992650D01*
X17017444Y-11992650D02*
X17036491Y-12002174D01*
X17036491Y-12002174D02*
X17046015Y-12021222D01*
X17046015Y-12021222D02*
X17046015Y-12125984D01*
X17436491Y-11916460D02*
X17265063Y-12173603D01*
X17693634Y-11925984D02*
X17712682Y-11925984D01*
X17712682Y-11925984D02*
X17731729Y-11935508D01*
X17731729Y-11935508D02*
X17741253Y-11945031D01*
X17741253Y-11945031D02*
X17750777Y-11964079D01*
X17750777Y-11964079D02*
X17760301Y-12002174D01*
X17760301Y-12002174D02*
X17760301Y-12049793D01*
X17760301Y-12049793D02*
X17750777Y-12087888D01*
X17750777Y-12087888D02*
X17741253Y-12106936D01*
X17741253Y-12106936D02*
X17731729Y-12116460D01*
X17731729Y-12116460D02*
X17712682Y-12125984D01*
X17712682Y-12125984D02*
X17693634Y-12125984D01*
X17693634Y-12125984D02*
X17674587Y-12116460D01*
X17674587Y-12116460D02*
X17665063Y-12106936D01*
X17665063Y-12106936D02*
X17655539Y-12087888D01*
X17655539Y-12087888D02*
X17646015Y-12049793D01*
X17646015Y-12049793D02*
X17646015Y-12002174D01*
X17646015Y-12002174D02*
X17655539Y-11964079D01*
X17655539Y-11964079D02*
X17665063Y-11945031D01*
X17665063Y-11945031D02*
X17674587Y-11935508D01*
X17674587Y-11935508D02*
X17693634Y-11925984D01*
X17846015Y-12106936D02*
X17855539Y-12116460D01*
X17855539Y-12116460D02*
X17846015Y-12125984D01*
X17846015Y-12125984D02*
X17836491Y-12116460D01*
X17836491Y-12116460D02*
X17846015Y-12106936D01*
X17846015Y-12106936D02*
X17846015Y-12125984D01*
X17979348Y-11925984D02*
X17998396Y-11925984D01*
X17998396Y-11925984D02*
X18017444Y-11935508D01*
X18017444Y-11935508D02*
X18026968Y-11945031D01*
X18026968Y-11945031D02*
X18036491Y-11964079D01*
X18036491Y-11964079D02*
X18046015Y-12002174D01*
X18046015Y-12002174D02*
X18046015Y-12049793D01*
X18046015Y-12049793D02*
X18036491Y-12087888D01*
X18036491Y-12087888D02*
X18026968Y-12106936D01*
X18026968Y-12106936D02*
X18017444Y-12116460D01*
X18017444Y-12116460D02*
X17998396Y-12125984D01*
X17998396Y-12125984D02*
X17979348Y-12125984D01*
X17979348Y-12125984D02*
X17960301Y-12116460D01*
X17960301Y-12116460D02*
X17950777Y-12106936D01*
X17950777Y-12106936D02*
X17941253Y-12087888D01*
X17941253Y-12087888D02*
X17931729Y-12049793D01*
X17931729Y-12049793D02*
X17931729Y-12002174D01*
X17931729Y-12002174D02*
X17941253Y-11964079D01*
X17941253Y-11964079D02*
X17950777Y-11945031D01*
X17950777Y-11945031D02*
X17960301Y-11935508D01*
X17960301Y-11935508D02*
X17979348Y-11925984D01*
X18112682Y-11925984D02*
X18236491Y-11925984D01*
X18236491Y-11925984D02*
X18169825Y-12002174D01*
X18169825Y-12002174D02*
X18198396Y-12002174D01*
X18198396Y-12002174D02*
X18217444Y-12011698D01*
X18217444Y-12011698D02*
X18226968Y-12021222D01*
X18226968Y-12021222D02*
X18236491Y-12040269D01*
X18236491Y-12040269D02*
X18236491Y-12087888D01*
X18236491Y-12087888D02*
X18226968Y-12106936D01*
X18226968Y-12106936D02*
X18217444Y-12116460D01*
X18217444Y-12116460D02*
X18198396Y-12125984D01*
X18198396Y-12125984D02*
X18141253Y-12125984D01*
X18141253Y-12125984D02*
X18122206Y-12116460D01*
X18122206Y-12116460D02*
X18112682Y-12106936D01*
X18303158Y-11925984D02*
X18436491Y-11925984D01*
X18436491Y-11925984D02*
X18350777Y-12125984D01*
X18598396Y-11992650D02*
X18598396Y-12125984D01*
X18550777Y-11916460D02*
X18503158Y-12059317D01*
X18503158Y-12059317D02*
X18626968Y-12059317D01*
X18693634Y-11925984D02*
X18693634Y-11964079D01*
X18769825Y-11925984D02*
X18769825Y-11964079D01*
X19065063Y-12202174D02*
X19055539Y-12192650D01*
X19055539Y-12192650D02*
X19036491Y-12164079D01*
X19036491Y-12164079D02*
X19026968Y-12145031D01*
X19026968Y-12145031D02*
X19017444Y-12116460D01*
X19017444Y-12116460D02*
X19007920Y-12068841D01*
X19007920Y-12068841D02*
X19007920Y-12030746D01*
X19007920Y-12030746D02*
X19017444Y-11983127D01*
X19017444Y-11983127D02*
X19026968Y-11954555D01*
X19026968Y-11954555D02*
X19036491Y-11935508D01*
X19036491Y-11935508D02*
X19055539Y-11906936D01*
X19055539Y-11906936D02*
X19065063Y-11897412D01*
X19122206Y-11925984D02*
X19246015Y-11925984D01*
X19246015Y-11925984D02*
X19179349Y-12002174D01*
X19179349Y-12002174D02*
X19207920Y-12002174D01*
X19207920Y-12002174D02*
X19226968Y-12011698D01*
X19226968Y-12011698D02*
X19236491Y-12021222D01*
X19236491Y-12021222D02*
X19246015Y-12040269D01*
X19246015Y-12040269D02*
X19246015Y-12087888D01*
X19246015Y-12087888D02*
X19236491Y-12106936D01*
X19236491Y-12106936D02*
X19226968Y-12116460D01*
X19226968Y-12116460D02*
X19207920Y-12125984D01*
X19207920Y-12125984D02*
X19150777Y-12125984D01*
X19150777Y-12125984D02*
X19131730Y-12116460D01*
X19131730Y-12116460D02*
X19122206Y-12106936D01*
X19322206Y-11945031D02*
X19331730Y-11935508D01*
X19331730Y-11935508D02*
X19350777Y-11925984D01*
X19350777Y-11925984D02*
X19398396Y-11925984D01*
X19398396Y-11925984D02*
X19417444Y-11935508D01*
X19417444Y-11935508D02*
X19426968Y-11945031D01*
X19426968Y-11945031D02*
X19436491Y-11964079D01*
X19436491Y-11964079D02*
X19436491Y-11983127D01*
X19436491Y-11983127D02*
X19426968Y-12011698D01*
X19426968Y-12011698D02*
X19312682Y-12125984D01*
X19312682Y-12125984D02*
X19436491Y-12125984D01*
X19674587Y-12125984D02*
X19674587Y-11925984D01*
X19760301Y-12125984D02*
X19760301Y-12021222D01*
X19760301Y-12021222D02*
X19750777Y-12002174D01*
X19750777Y-12002174D02*
X19731730Y-11992650D01*
X19731730Y-11992650D02*
X19703158Y-11992650D01*
X19703158Y-11992650D02*
X19684111Y-12002174D01*
X19684111Y-12002174D02*
X19674587Y-12011698D01*
X19884111Y-12125984D02*
X19865063Y-12116460D01*
X19865063Y-12116460D02*
X19855539Y-12106936D01*
X19855539Y-12106936D02*
X19846015Y-12087888D01*
X19846015Y-12087888D02*
X19846015Y-12030746D01*
X19846015Y-12030746D02*
X19855539Y-12011698D01*
X19855539Y-12011698D02*
X19865063Y-12002174D01*
X19865063Y-12002174D02*
X19884111Y-11992650D01*
X19884111Y-11992650D02*
X19912682Y-11992650D01*
X19912682Y-11992650D02*
X19931730Y-12002174D01*
X19931730Y-12002174D02*
X19941253Y-12011698D01*
X19941253Y-12011698D02*
X19950777Y-12030746D01*
X19950777Y-12030746D02*
X19950777Y-12087888D01*
X19950777Y-12087888D02*
X19941253Y-12106936D01*
X19941253Y-12106936D02*
X19931730Y-12116460D01*
X19931730Y-12116460D02*
X19912682Y-12125984D01*
X19912682Y-12125984D02*
X19884111Y-12125984D01*
X20065063Y-12125984D02*
X20046015Y-12116460D01*
X20046015Y-12116460D02*
X20036492Y-12097412D01*
X20036492Y-12097412D02*
X20036492Y-11925984D01*
X20217444Y-12116460D02*
X20198396Y-12125984D01*
X20198396Y-12125984D02*
X20160301Y-12125984D01*
X20160301Y-12125984D02*
X20141253Y-12116460D01*
X20141253Y-12116460D02*
X20131730Y-12097412D01*
X20131730Y-12097412D02*
X20131730Y-12021222D01*
X20131730Y-12021222D02*
X20141253Y-12002174D01*
X20141253Y-12002174D02*
X20160301Y-11992650D01*
X20160301Y-11992650D02*
X20198396Y-11992650D01*
X20198396Y-11992650D02*
X20217444Y-12002174D01*
X20217444Y-12002174D02*
X20226968Y-12021222D01*
X20226968Y-12021222D02*
X20226968Y-12040269D01*
X20226968Y-12040269D02*
X20131730Y-12059317D01*
X20303158Y-12116460D02*
X20322206Y-12125984D01*
X20322206Y-12125984D02*
X20360301Y-12125984D01*
X20360301Y-12125984D02*
X20379349Y-12116460D01*
X20379349Y-12116460D02*
X20388873Y-12097412D01*
X20388873Y-12097412D02*
X20388873Y-12087888D01*
X20388873Y-12087888D02*
X20379349Y-12068841D01*
X20379349Y-12068841D02*
X20360301Y-12059317D01*
X20360301Y-12059317D02*
X20331730Y-12059317D01*
X20331730Y-12059317D02*
X20312682Y-12049793D01*
X20312682Y-12049793D02*
X20303158Y-12030746D01*
X20303158Y-12030746D02*
X20303158Y-12021222D01*
X20303158Y-12021222D02*
X20312682Y-12002174D01*
X20312682Y-12002174D02*
X20331730Y-11992650D01*
X20331730Y-11992650D02*
X20360301Y-11992650D01*
X20360301Y-11992650D02*
X20379349Y-12002174D01*
X20455539Y-12202174D02*
X20465063Y-12192650D01*
X20465063Y-12192650D02*
X20484111Y-12164079D01*
X20484111Y-12164079D02*
X20493634Y-12145031D01*
X20493634Y-12145031D02*
X20503158Y-12116460D01*
X20503158Y-12116460D02*
X20512682Y-12068841D01*
X20512682Y-12068841D02*
X20512682Y-12030746D01*
X20512682Y-12030746D02*
X20503158Y-11983127D01*
X20503158Y-11983127D02*
X20493634Y-11954555D01*
X20493634Y-11954555D02*
X20484111Y-11935508D01*
X20484111Y-11935508D02*
X20465063Y-11906936D01*
X20465063Y-11906936D02*
X20455539Y-11897412D01*
D10*
X15440000Y-12348500D02*
X15490000Y-12298500D01*
X15440000Y-12248500D01*
X15390000Y-12298500D01*
X15440000Y-12348500D01*
D11*
X15855539Y-12389984D02*
X15741253Y-12389984D01*
X15798396Y-12389984D02*
X15798396Y-12189984D01*
X15798396Y-12189984D02*
X15779348Y-12218555D01*
X15779348Y-12218555D02*
X15760301Y-12237603D01*
X15760301Y-12237603D02*
X15741253Y-12247127D01*
X15941253Y-12370936D02*
X15950777Y-12380460D01*
X15950777Y-12380460D02*
X15941253Y-12389984D01*
X15941253Y-12389984D02*
X15931729Y-12380460D01*
X15931729Y-12380460D02*
X15941253Y-12370936D01*
X15941253Y-12370936D02*
X15941253Y-12389984D01*
X16074586Y-12189984D02*
X16093634Y-12189984D01*
X16093634Y-12189984D02*
X16112682Y-12199508D01*
X16112682Y-12199508D02*
X16122205Y-12209031D01*
X16122205Y-12209031D02*
X16131729Y-12228079D01*
X16131729Y-12228079D02*
X16141253Y-12266174D01*
X16141253Y-12266174D02*
X16141253Y-12313793D01*
X16141253Y-12313793D02*
X16131729Y-12351888D01*
X16131729Y-12351888D02*
X16122205Y-12370936D01*
X16122205Y-12370936D02*
X16112682Y-12380460D01*
X16112682Y-12380460D02*
X16093634Y-12389984D01*
X16093634Y-12389984D02*
X16074586Y-12389984D01*
X16074586Y-12389984D02*
X16055539Y-12380460D01*
X16055539Y-12380460D02*
X16046015Y-12370936D01*
X16046015Y-12370936D02*
X16036491Y-12351888D01*
X16036491Y-12351888D02*
X16026967Y-12313793D01*
X16026967Y-12313793D02*
X16026967Y-12266174D01*
X16026967Y-12266174D02*
X16036491Y-12228079D01*
X16036491Y-12228079D02*
X16046015Y-12209031D01*
X16046015Y-12209031D02*
X16055539Y-12199508D01*
X16055539Y-12199508D02*
X16074586Y-12189984D01*
X16265062Y-12189984D02*
X16284110Y-12189984D01*
X16284110Y-12189984D02*
X16303158Y-12199508D01*
X16303158Y-12199508D02*
X16312682Y-12209031D01*
X16312682Y-12209031D02*
X16322205Y-12228079D01*
X16322205Y-12228079D02*
X16331729Y-12266174D01*
X16331729Y-12266174D02*
X16331729Y-12313793D01*
X16331729Y-12313793D02*
X16322205Y-12351888D01*
X16322205Y-12351888D02*
X16312682Y-12370936D01*
X16312682Y-12370936D02*
X16303158Y-12380460D01*
X16303158Y-12380460D02*
X16284110Y-12389984D01*
X16284110Y-12389984D02*
X16265062Y-12389984D01*
X16265062Y-12389984D02*
X16246015Y-12380460D01*
X16246015Y-12380460D02*
X16236491Y-12370936D01*
X16236491Y-12370936D02*
X16226967Y-12351888D01*
X16226967Y-12351888D02*
X16217443Y-12313793D01*
X16217443Y-12313793D02*
X16217443Y-12266174D01*
X16217443Y-12266174D02*
X16226967Y-12228079D01*
X16226967Y-12228079D02*
X16236491Y-12209031D01*
X16236491Y-12209031D02*
X16246015Y-12199508D01*
X16246015Y-12199508D02*
X16265062Y-12189984D01*
X16455539Y-12189984D02*
X16474586Y-12189984D01*
X16474586Y-12189984D02*
X16493634Y-12199508D01*
X16493634Y-12199508D02*
X16503158Y-12209031D01*
X16503158Y-12209031D02*
X16512682Y-12228079D01*
X16512682Y-12228079D02*
X16522205Y-12266174D01*
X16522205Y-12266174D02*
X16522205Y-12313793D01*
X16522205Y-12313793D02*
X16512682Y-12351888D01*
X16512682Y-12351888D02*
X16503158Y-12370936D01*
X16503158Y-12370936D02*
X16493634Y-12380460D01*
X16493634Y-12380460D02*
X16474586Y-12389984D01*
X16474586Y-12389984D02*
X16455539Y-12389984D01*
X16455539Y-12389984D02*
X16436491Y-12380460D01*
X16436491Y-12380460D02*
X16426967Y-12370936D01*
X16426967Y-12370936D02*
X16417443Y-12351888D01*
X16417443Y-12351888D02*
X16407920Y-12313793D01*
X16407920Y-12313793D02*
X16407920Y-12266174D01*
X16407920Y-12266174D02*
X16417443Y-12228079D01*
X16417443Y-12228079D02*
X16426967Y-12209031D01*
X16426967Y-12209031D02*
X16436491Y-12199508D01*
X16436491Y-12199508D02*
X16455539Y-12189984D01*
X16607920Y-12389984D02*
X16607920Y-12256650D01*
X16607920Y-12275698D02*
X16617443Y-12266174D01*
X16617443Y-12266174D02*
X16636491Y-12256650D01*
X16636491Y-12256650D02*
X16665063Y-12256650D01*
X16665063Y-12256650D02*
X16684110Y-12266174D01*
X16684110Y-12266174D02*
X16693634Y-12285222D01*
X16693634Y-12285222D02*
X16693634Y-12389984D01*
X16693634Y-12285222D02*
X16703158Y-12266174D01*
X16703158Y-12266174D02*
X16722205Y-12256650D01*
X16722205Y-12256650D02*
X16750777Y-12256650D01*
X16750777Y-12256650D02*
X16769824Y-12266174D01*
X16769824Y-12266174D02*
X16779348Y-12285222D01*
X16779348Y-12285222D02*
X16779348Y-12389984D01*
X16874586Y-12389984D02*
X16874586Y-12256650D01*
X16874586Y-12275698D02*
X16884110Y-12266174D01*
X16884110Y-12266174D02*
X16903158Y-12256650D01*
X16903158Y-12256650D02*
X16931729Y-12256650D01*
X16931729Y-12256650D02*
X16950777Y-12266174D01*
X16950777Y-12266174D02*
X16960301Y-12285222D01*
X16960301Y-12285222D02*
X16960301Y-12389984D01*
X16960301Y-12285222D02*
X16969825Y-12266174D01*
X16969825Y-12266174D02*
X16988872Y-12256650D01*
X16988872Y-12256650D02*
X17017444Y-12256650D01*
X17017444Y-12256650D02*
X17036491Y-12266174D01*
X17036491Y-12266174D02*
X17046015Y-12285222D01*
X17046015Y-12285222D02*
X17046015Y-12389984D01*
X17436491Y-12180460D02*
X17265063Y-12437603D01*
X17693634Y-12189984D02*
X17712682Y-12189984D01*
X17712682Y-12189984D02*
X17731729Y-12199508D01*
X17731729Y-12199508D02*
X17741253Y-12209031D01*
X17741253Y-12209031D02*
X17750777Y-12228079D01*
X17750777Y-12228079D02*
X17760301Y-12266174D01*
X17760301Y-12266174D02*
X17760301Y-12313793D01*
X17760301Y-12313793D02*
X17750777Y-12351888D01*
X17750777Y-12351888D02*
X17741253Y-12370936D01*
X17741253Y-12370936D02*
X17731729Y-12380460D01*
X17731729Y-12380460D02*
X17712682Y-12389984D01*
X17712682Y-12389984D02*
X17693634Y-12389984D01*
X17693634Y-12389984D02*
X17674587Y-12380460D01*
X17674587Y-12380460D02*
X17665063Y-12370936D01*
X17665063Y-12370936D02*
X17655539Y-12351888D01*
X17655539Y-12351888D02*
X17646015Y-12313793D01*
X17646015Y-12313793D02*
X17646015Y-12266174D01*
X17646015Y-12266174D02*
X17655539Y-12228079D01*
X17655539Y-12228079D02*
X17665063Y-12209031D01*
X17665063Y-12209031D02*
X17674587Y-12199508D01*
X17674587Y-12199508D02*
X17693634Y-12189984D01*
X17846015Y-12370936D02*
X17855539Y-12380460D01*
X17855539Y-12380460D02*
X17846015Y-12389984D01*
X17846015Y-12389984D02*
X17836491Y-12380460D01*
X17836491Y-12380460D02*
X17846015Y-12370936D01*
X17846015Y-12370936D02*
X17846015Y-12389984D01*
X17979348Y-12189984D02*
X17998396Y-12189984D01*
X17998396Y-12189984D02*
X18017444Y-12199508D01*
X18017444Y-12199508D02*
X18026968Y-12209031D01*
X18026968Y-12209031D02*
X18036491Y-12228079D01*
X18036491Y-12228079D02*
X18046015Y-12266174D01*
X18046015Y-12266174D02*
X18046015Y-12313793D01*
X18046015Y-12313793D02*
X18036491Y-12351888D01*
X18036491Y-12351888D02*
X18026968Y-12370936D01*
X18026968Y-12370936D02*
X18017444Y-12380460D01*
X18017444Y-12380460D02*
X17998396Y-12389984D01*
X17998396Y-12389984D02*
X17979348Y-12389984D01*
X17979348Y-12389984D02*
X17960301Y-12380460D01*
X17960301Y-12380460D02*
X17950777Y-12370936D01*
X17950777Y-12370936D02*
X17941253Y-12351888D01*
X17941253Y-12351888D02*
X17931729Y-12313793D01*
X17931729Y-12313793D02*
X17931729Y-12266174D01*
X17931729Y-12266174D02*
X17941253Y-12228079D01*
X17941253Y-12228079D02*
X17950777Y-12209031D01*
X17950777Y-12209031D02*
X17960301Y-12199508D01*
X17960301Y-12199508D02*
X17979348Y-12189984D01*
X18112682Y-12189984D02*
X18236491Y-12189984D01*
X18236491Y-12189984D02*
X18169825Y-12266174D01*
X18169825Y-12266174D02*
X18198396Y-12266174D01*
X18198396Y-12266174D02*
X18217444Y-12275698D01*
X18217444Y-12275698D02*
X18226968Y-12285222D01*
X18226968Y-12285222D02*
X18236491Y-12304269D01*
X18236491Y-12304269D02*
X18236491Y-12351888D01*
X18236491Y-12351888D02*
X18226968Y-12370936D01*
X18226968Y-12370936D02*
X18217444Y-12380460D01*
X18217444Y-12380460D02*
X18198396Y-12389984D01*
X18198396Y-12389984D02*
X18141253Y-12389984D01*
X18141253Y-12389984D02*
X18122206Y-12380460D01*
X18122206Y-12380460D02*
X18112682Y-12370936D01*
X18331729Y-12389984D02*
X18369825Y-12389984D01*
X18369825Y-12389984D02*
X18388872Y-12380460D01*
X18388872Y-12380460D02*
X18398396Y-12370936D01*
X18398396Y-12370936D02*
X18417444Y-12342365D01*
X18417444Y-12342365D02*
X18426968Y-12304269D01*
X18426968Y-12304269D02*
X18426968Y-12228079D01*
X18426968Y-12228079D02*
X18417444Y-12209031D01*
X18417444Y-12209031D02*
X18407920Y-12199508D01*
X18407920Y-12199508D02*
X18388872Y-12189984D01*
X18388872Y-12189984D02*
X18350777Y-12189984D01*
X18350777Y-12189984D02*
X18331729Y-12199508D01*
X18331729Y-12199508D02*
X18322206Y-12209031D01*
X18322206Y-12209031D02*
X18312682Y-12228079D01*
X18312682Y-12228079D02*
X18312682Y-12275698D01*
X18312682Y-12275698D02*
X18322206Y-12294746D01*
X18322206Y-12294746D02*
X18331729Y-12304269D01*
X18331729Y-12304269D02*
X18350777Y-12313793D01*
X18350777Y-12313793D02*
X18388872Y-12313793D01*
X18388872Y-12313793D02*
X18407920Y-12304269D01*
X18407920Y-12304269D02*
X18417444Y-12294746D01*
X18417444Y-12294746D02*
X18426968Y-12275698D01*
X18598396Y-12256650D02*
X18598396Y-12389984D01*
X18550777Y-12180460D02*
X18503158Y-12323317D01*
X18503158Y-12323317D02*
X18626968Y-12323317D01*
X18693634Y-12189984D02*
X18693634Y-12228079D01*
X18769825Y-12189984D02*
X18769825Y-12228079D01*
X19065063Y-12466174D02*
X19055539Y-12456650D01*
X19055539Y-12456650D02*
X19036491Y-12428079D01*
X19036491Y-12428079D02*
X19026968Y-12409031D01*
X19026968Y-12409031D02*
X19017444Y-12380460D01*
X19017444Y-12380460D02*
X19007920Y-12332841D01*
X19007920Y-12332841D02*
X19007920Y-12294746D01*
X19007920Y-12294746D02*
X19017444Y-12247127D01*
X19017444Y-12247127D02*
X19026968Y-12218555D01*
X19026968Y-12218555D02*
X19036491Y-12199508D01*
X19036491Y-12199508D02*
X19055539Y-12170936D01*
X19055539Y-12170936D02*
X19065063Y-12161412D01*
X19236491Y-12189984D02*
X19141253Y-12189984D01*
X19141253Y-12189984D02*
X19131730Y-12285222D01*
X19131730Y-12285222D02*
X19141253Y-12275698D01*
X19141253Y-12275698D02*
X19160301Y-12266174D01*
X19160301Y-12266174D02*
X19207920Y-12266174D01*
X19207920Y-12266174D02*
X19226968Y-12275698D01*
X19226968Y-12275698D02*
X19236491Y-12285222D01*
X19236491Y-12285222D02*
X19246015Y-12304269D01*
X19246015Y-12304269D02*
X19246015Y-12351888D01*
X19246015Y-12351888D02*
X19236491Y-12370936D01*
X19236491Y-12370936D02*
X19226968Y-12380460D01*
X19226968Y-12380460D02*
X19207920Y-12389984D01*
X19207920Y-12389984D02*
X19160301Y-12389984D01*
X19160301Y-12389984D02*
X19141253Y-12380460D01*
X19141253Y-12380460D02*
X19131730Y-12370936D01*
X19484111Y-12389984D02*
X19484111Y-12189984D01*
X19569825Y-12389984D02*
X19569825Y-12285222D01*
X19569825Y-12285222D02*
X19560301Y-12266174D01*
X19560301Y-12266174D02*
X19541253Y-12256650D01*
X19541253Y-12256650D02*
X19512682Y-12256650D01*
X19512682Y-12256650D02*
X19493634Y-12266174D01*
X19493634Y-12266174D02*
X19484111Y-12275698D01*
X19693634Y-12389984D02*
X19674587Y-12380460D01*
X19674587Y-12380460D02*
X19665063Y-12370936D01*
X19665063Y-12370936D02*
X19655539Y-12351888D01*
X19655539Y-12351888D02*
X19655539Y-12294746D01*
X19655539Y-12294746D02*
X19665063Y-12275698D01*
X19665063Y-12275698D02*
X19674587Y-12266174D01*
X19674587Y-12266174D02*
X19693634Y-12256650D01*
X19693634Y-12256650D02*
X19722206Y-12256650D01*
X19722206Y-12256650D02*
X19741253Y-12266174D01*
X19741253Y-12266174D02*
X19750777Y-12275698D01*
X19750777Y-12275698D02*
X19760301Y-12294746D01*
X19760301Y-12294746D02*
X19760301Y-12351888D01*
X19760301Y-12351888D02*
X19750777Y-12370936D01*
X19750777Y-12370936D02*
X19741253Y-12380460D01*
X19741253Y-12380460D02*
X19722206Y-12389984D01*
X19722206Y-12389984D02*
X19693634Y-12389984D01*
X19874587Y-12389984D02*
X19855539Y-12380460D01*
X19855539Y-12380460D02*
X19846015Y-12361412D01*
X19846015Y-12361412D02*
X19846015Y-12189984D01*
X20026968Y-12380460D02*
X20007920Y-12389984D01*
X20007920Y-12389984D02*
X19969825Y-12389984D01*
X19969825Y-12389984D02*
X19950777Y-12380460D01*
X19950777Y-12380460D02*
X19941253Y-12361412D01*
X19941253Y-12361412D02*
X19941253Y-12285222D01*
X19941253Y-12285222D02*
X19950777Y-12266174D01*
X19950777Y-12266174D02*
X19969825Y-12256650D01*
X19969825Y-12256650D02*
X20007920Y-12256650D01*
X20007920Y-12256650D02*
X20026968Y-12266174D01*
X20026968Y-12266174D02*
X20036492Y-12285222D01*
X20036492Y-12285222D02*
X20036492Y-12304269D01*
X20036492Y-12304269D02*
X19941253Y-12323317D01*
X20112682Y-12380460D02*
X20131730Y-12389984D01*
X20131730Y-12389984D02*
X20169825Y-12389984D01*
X20169825Y-12389984D02*
X20188873Y-12380460D01*
X20188873Y-12380460D02*
X20198396Y-12361412D01*
X20198396Y-12361412D02*
X20198396Y-12351888D01*
X20198396Y-12351888D02*
X20188873Y-12332841D01*
X20188873Y-12332841D02*
X20169825Y-12323317D01*
X20169825Y-12323317D02*
X20141253Y-12323317D01*
X20141253Y-12323317D02*
X20122206Y-12313793D01*
X20122206Y-12313793D02*
X20112682Y-12294746D01*
X20112682Y-12294746D02*
X20112682Y-12285222D01*
X20112682Y-12285222D02*
X20122206Y-12266174D01*
X20122206Y-12266174D02*
X20141253Y-12256650D01*
X20141253Y-12256650D02*
X20169825Y-12256650D01*
X20169825Y-12256650D02*
X20188873Y-12266174D01*
X20265063Y-12466174D02*
X20274587Y-12456650D01*
X20274587Y-12456650D02*
X20293634Y-12428079D01*
X20293634Y-12428079D02*
X20303158Y-12409031D01*
X20303158Y-12409031D02*
X20312682Y-12380460D01*
X20312682Y-12380460D02*
X20322206Y-12332841D01*
X20322206Y-12332841D02*
X20322206Y-12294746D01*
X20322206Y-12294746D02*
X20312682Y-12247127D01*
X20312682Y-12247127D02*
X20303158Y-12218555D01*
X20303158Y-12218555D02*
X20293634Y-12199508D01*
X20293634Y-12199508D02*
X20274587Y-12170936D01*
X20274587Y-12170936D02*
X20265063Y-12161412D01*
X15290000Y-12462500D02*
X15490000Y-12662500D01*
X15490000Y-12462500D02*
X15290000Y-12662500D01*
X15490000Y-12562500D02*
G75*
G02*
X15290000Y-12562500I-100000J0D01*
G01*
X15290000Y-12562500D02*
G75*
G02*
X15490000Y-12562500I100000J0D01*
G01*
X15731729Y-12453984D02*
X15855539Y-12453984D01*
X15855539Y-12453984D02*
X15788872Y-12530174D01*
X15788872Y-12530174D02*
X15817443Y-12530174D01*
X15817443Y-12530174D02*
X15836491Y-12539698D01*
X15836491Y-12539698D02*
X15846015Y-12549222D01*
X15846015Y-12549222D02*
X15855539Y-12568269D01*
X15855539Y-12568269D02*
X15855539Y-12615888D01*
X15855539Y-12615888D02*
X15846015Y-12634936D01*
X15846015Y-12634936D02*
X15836491Y-12644460D01*
X15836491Y-12644460D02*
X15817443Y-12653984D01*
X15817443Y-12653984D02*
X15760301Y-12653984D01*
X15760301Y-12653984D02*
X15741253Y-12644460D01*
X15741253Y-12644460D02*
X15731729Y-12634936D01*
X15941253Y-12634936D02*
X15950777Y-12644460D01*
X15950777Y-12644460D02*
X15941253Y-12653984D01*
X15941253Y-12653984D02*
X15931729Y-12644460D01*
X15931729Y-12644460D02*
X15941253Y-12634936D01*
X15941253Y-12634936D02*
X15941253Y-12653984D01*
X16026967Y-12473031D02*
X16036491Y-12463508D01*
X16036491Y-12463508D02*
X16055539Y-12453984D01*
X16055539Y-12453984D02*
X16103158Y-12453984D01*
X16103158Y-12453984D02*
X16122205Y-12463508D01*
X16122205Y-12463508D02*
X16131729Y-12473031D01*
X16131729Y-12473031D02*
X16141253Y-12492079D01*
X16141253Y-12492079D02*
X16141253Y-12511127D01*
X16141253Y-12511127D02*
X16131729Y-12539698D01*
X16131729Y-12539698D02*
X16017443Y-12653984D01*
X16017443Y-12653984D02*
X16141253Y-12653984D01*
X16265062Y-12453984D02*
X16284110Y-12453984D01*
X16284110Y-12453984D02*
X16303158Y-12463508D01*
X16303158Y-12463508D02*
X16312682Y-12473031D01*
X16312682Y-12473031D02*
X16322205Y-12492079D01*
X16322205Y-12492079D02*
X16331729Y-12530174D01*
X16331729Y-12530174D02*
X16331729Y-12577793D01*
X16331729Y-12577793D02*
X16322205Y-12615888D01*
X16322205Y-12615888D02*
X16312682Y-12634936D01*
X16312682Y-12634936D02*
X16303158Y-12644460D01*
X16303158Y-12644460D02*
X16284110Y-12653984D01*
X16284110Y-12653984D02*
X16265062Y-12653984D01*
X16265062Y-12653984D02*
X16246015Y-12644460D01*
X16246015Y-12644460D02*
X16236491Y-12634936D01*
X16236491Y-12634936D02*
X16226967Y-12615888D01*
X16226967Y-12615888D02*
X16217443Y-12577793D01*
X16217443Y-12577793D02*
X16217443Y-12530174D01*
X16217443Y-12530174D02*
X16226967Y-12492079D01*
X16226967Y-12492079D02*
X16236491Y-12473031D01*
X16236491Y-12473031D02*
X16246015Y-12463508D01*
X16246015Y-12463508D02*
X16265062Y-12453984D01*
X16455539Y-12453984D02*
X16474586Y-12453984D01*
X16474586Y-12453984D02*
X16493634Y-12463508D01*
X16493634Y-12463508D02*
X16503158Y-12473031D01*
X16503158Y-12473031D02*
X16512682Y-12492079D01*
X16512682Y-12492079D02*
X16522205Y-12530174D01*
X16522205Y-12530174D02*
X16522205Y-12577793D01*
X16522205Y-12577793D02*
X16512682Y-12615888D01*
X16512682Y-12615888D02*
X16503158Y-12634936D01*
X16503158Y-12634936D02*
X16493634Y-12644460D01*
X16493634Y-12644460D02*
X16474586Y-12653984D01*
X16474586Y-12653984D02*
X16455539Y-12653984D01*
X16455539Y-12653984D02*
X16436491Y-12644460D01*
X16436491Y-12644460D02*
X16426967Y-12634936D01*
X16426967Y-12634936D02*
X16417443Y-12615888D01*
X16417443Y-12615888D02*
X16407920Y-12577793D01*
X16407920Y-12577793D02*
X16407920Y-12530174D01*
X16407920Y-12530174D02*
X16417443Y-12492079D01*
X16417443Y-12492079D02*
X16426967Y-12473031D01*
X16426967Y-12473031D02*
X16436491Y-12463508D01*
X16436491Y-12463508D02*
X16455539Y-12453984D01*
X16607920Y-12653984D02*
X16607920Y-12520650D01*
X16607920Y-12539698D02*
X16617443Y-12530174D01*
X16617443Y-12530174D02*
X16636491Y-12520650D01*
X16636491Y-12520650D02*
X16665063Y-12520650D01*
X16665063Y-12520650D02*
X16684110Y-12530174D01*
X16684110Y-12530174D02*
X16693634Y-12549222D01*
X16693634Y-12549222D02*
X16693634Y-12653984D01*
X16693634Y-12549222D02*
X16703158Y-12530174D01*
X16703158Y-12530174D02*
X16722205Y-12520650D01*
X16722205Y-12520650D02*
X16750777Y-12520650D01*
X16750777Y-12520650D02*
X16769824Y-12530174D01*
X16769824Y-12530174D02*
X16779348Y-12549222D01*
X16779348Y-12549222D02*
X16779348Y-12653984D01*
X16874586Y-12653984D02*
X16874586Y-12520650D01*
X16874586Y-12539698D02*
X16884110Y-12530174D01*
X16884110Y-12530174D02*
X16903158Y-12520650D01*
X16903158Y-12520650D02*
X16931729Y-12520650D01*
X16931729Y-12520650D02*
X16950777Y-12530174D01*
X16950777Y-12530174D02*
X16960301Y-12549222D01*
X16960301Y-12549222D02*
X16960301Y-12653984D01*
X16960301Y-12549222D02*
X16969825Y-12530174D01*
X16969825Y-12530174D02*
X16988872Y-12520650D01*
X16988872Y-12520650D02*
X17017444Y-12520650D01*
X17017444Y-12520650D02*
X17036491Y-12530174D01*
X17036491Y-12530174D02*
X17046015Y-12549222D01*
X17046015Y-12549222D02*
X17046015Y-12653984D01*
X17436491Y-12444460D02*
X17265063Y-12701603D01*
X17693634Y-12453984D02*
X17712682Y-12453984D01*
X17712682Y-12453984D02*
X17731729Y-12463508D01*
X17731729Y-12463508D02*
X17741253Y-12473031D01*
X17741253Y-12473031D02*
X17750777Y-12492079D01*
X17750777Y-12492079D02*
X17760301Y-12530174D01*
X17760301Y-12530174D02*
X17760301Y-12577793D01*
X17760301Y-12577793D02*
X17750777Y-12615888D01*
X17750777Y-12615888D02*
X17741253Y-12634936D01*
X17741253Y-12634936D02*
X17731729Y-12644460D01*
X17731729Y-12644460D02*
X17712682Y-12653984D01*
X17712682Y-12653984D02*
X17693634Y-12653984D01*
X17693634Y-12653984D02*
X17674587Y-12644460D01*
X17674587Y-12644460D02*
X17665063Y-12634936D01*
X17665063Y-12634936D02*
X17655539Y-12615888D01*
X17655539Y-12615888D02*
X17646015Y-12577793D01*
X17646015Y-12577793D02*
X17646015Y-12530174D01*
X17646015Y-12530174D02*
X17655539Y-12492079D01*
X17655539Y-12492079D02*
X17665063Y-12473031D01*
X17665063Y-12473031D02*
X17674587Y-12463508D01*
X17674587Y-12463508D02*
X17693634Y-12453984D01*
X17846015Y-12634936D02*
X17855539Y-12644460D01*
X17855539Y-12644460D02*
X17846015Y-12653984D01*
X17846015Y-12653984D02*
X17836491Y-12644460D01*
X17836491Y-12644460D02*
X17846015Y-12634936D01*
X17846015Y-12634936D02*
X17846015Y-12653984D01*
X18046015Y-12653984D02*
X17931729Y-12653984D01*
X17988872Y-12653984D02*
X17988872Y-12453984D01*
X17988872Y-12453984D02*
X17969825Y-12482555D01*
X17969825Y-12482555D02*
X17950777Y-12501603D01*
X17950777Y-12501603D02*
X17931729Y-12511127D01*
X18122206Y-12473031D02*
X18131729Y-12463508D01*
X18131729Y-12463508D02*
X18150777Y-12453984D01*
X18150777Y-12453984D02*
X18198396Y-12453984D01*
X18198396Y-12453984D02*
X18217444Y-12463508D01*
X18217444Y-12463508D02*
X18226968Y-12473031D01*
X18226968Y-12473031D02*
X18236491Y-12492079D01*
X18236491Y-12492079D02*
X18236491Y-12511127D01*
X18236491Y-12511127D02*
X18226968Y-12539698D01*
X18226968Y-12539698D02*
X18112682Y-12653984D01*
X18112682Y-12653984D02*
X18236491Y-12653984D01*
X18407920Y-12453984D02*
X18369825Y-12453984D01*
X18369825Y-12453984D02*
X18350777Y-12463508D01*
X18350777Y-12463508D02*
X18341253Y-12473031D01*
X18341253Y-12473031D02*
X18322206Y-12501603D01*
X18322206Y-12501603D02*
X18312682Y-12539698D01*
X18312682Y-12539698D02*
X18312682Y-12615888D01*
X18312682Y-12615888D02*
X18322206Y-12634936D01*
X18322206Y-12634936D02*
X18331729Y-12644460D01*
X18331729Y-12644460D02*
X18350777Y-12653984D01*
X18350777Y-12653984D02*
X18388872Y-12653984D01*
X18388872Y-12653984D02*
X18407920Y-12644460D01*
X18407920Y-12644460D02*
X18417444Y-12634936D01*
X18417444Y-12634936D02*
X18426968Y-12615888D01*
X18426968Y-12615888D02*
X18426968Y-12568269D01*
X18426968Y-12568269D02*
X18417444Y-12549222D01*
X18417444Y-12549222D02*
X18407920Y-12539698D01*
X18407920Y-12539698D02*
X18388872Y-12530174D01*
X18388872Y-12530174D02*
X18350777Y-12530174D01*
X18350777Y-12530174D02*
X18331729Y-12539698D01*
X18331729Y-12539698D02*
X18322206Y-12549222D01*
X18322206Y-12549222D02*
X18312682Y-12568269D01*
X18550777Y-12453984D02*
X18569825Y-12453984D01*
X18569825Y-12453984D02*
X18588872Y-12463508D01*
X18588872Y-12463508D02*
X18598396Y-12473031D01*
X18598396Y-12473031D02*
X18607920Y-12492079D01*
X18607920Y-12492079D02*
X18617444Y-12530174D01*
X18617444Y-12530174D02*
X18617444Y-12577793D01*
X18617444Y-12577793D02*
X18607920Y-12615888D01*
X18607920Y-12615888D02*
X18598396Y-12634936D01*
X18598396Y-12634936D02*
X18588872Y-12644460D01*
X18588872Y-12644460D02*
X18569825Y-12653984D01*
X18569825Y-12653984D02*
X18550777Y-12653984D01*
X18550777Y-12653984D02*
X18531729Y-12644460D01*
X18531729Y-12644460D02*
X18522206Y-12634936D01*
X18522206Y-12634936D02*
X18512682Y-12615888D01*
X18512682Y-12615888D02*
X18503158Y-12577793D01*
X18503158Y-12577793D02*
X18503158Y-12530174D01*
X18503158Y-12530174D02*
X18512682Y-12492079D01*
X18512682Y-12492079D02*
X18522206Y-12473031D01*
X18522206Y-12473031D02*
X18531729Y-12463508D01*
X18531729Y-12463508D02*
X18550777Y-12453984D01*
X18693634Y-12453984D02*
X18693634Y-12492079D01*
X18769825Y-12453984D02*
X18769825Y-12492079D01*
X19065063Y-12730174D02*
X19055539Y-12720650D01*
X19055539Y-12720650D02*
X19036491Y-12692079D01*
X19036491Y-12692079D02*
X19026968Y-12673031D01*
X19026968Y-12673031D02*
X19017444Y-12644460D01*
X19017444Y-12644460D02*
X19007920Y-12596841D01*
X19007920Y-12596841D02*
X19007920Y-12558746D01*
X19007920Y-12558746D02*
X19017444Y-12511127D01*
X19017444Y-12511127D02*
X19026968Y-12482555D01*
X19026968Y-12482555D02*
X19036491Y-12463508D01*
X19036491Y-12463508D02*
X19055539Y-12434936D01*
X19055539Y-12434936D02*
X19065063Y-12425412D01*
X19131730Y-12473031D02*
X19141253Y-12463508D01*
X19141253Y-12463508D02*
X19160301Y-12453984D01*
X19160301Y-12453984D02*
X19207920Y-12453984D01*
X19207920Y-12453984D02*
X19226968Y-12463508D01*
X19226968Y-12463508D02*
X19236491Y-12473031D01*
X19236491Y-12473031D02*
X19246015Y-12492079D01*
X19246015Y-12492079D02*
X19246015Y-12511127D01*
X19246015Y-12511127D02*
X19236491Y-12539698D01*
X19236491Y-12539698D02*
X19122206Y-12653984D01*
X19122206Y-12653984D02*
X19246015Y-12653984D01*
X19484111Y-12653984D02*
X19484111Y-12453984D01*
X19569825Y-12653984D02*
X19569825Y-12549222D01*
X19569825Y-12549222D02*
X19560301Y-12530174D01*
X19560301Y-12530174D02*
X19541253Y-12520650D01*
X19541253Y-12520650D02*
X19512682Y-12520650D01*
X19512682Y-12520650D02*
X19493634Y-12530174D01*
X19493634Y-12530174D02*
X19484111Y-12539698D01*
X19693634Y-12653984D02*
X19674587Y-12644460D01*
X19674587Y-12644460D02*
X19665063Y-12634936D01*
X19665063Y-12634936D02*
X19655539Y-12615888D01*
X19655539Y-12615888D02*
X19655539Y-12558746D01*
X19655539Y-12558746D02*
X19665063Y-12539698D01*
X19665063Y-12539698D02*
X19674587Y-12530174D01*
X19674587Y-12530174D02*
X19693634Y-12520650D01*
X19693634Y-12520650D02*
X19722206Y-12520650D01*
X19722206Y-12520650D02*
X19741253Y-12530174D01*
X19741253Y-12530174D02*
X19750777Y-12539698D01*
X19750777Y-12539698D02*
X19760301Y-12558746D01*
X19760301Y-12558746D02*
X19760301Y-12615888D01*
X19760301Y-12615888D02*
X19750777Y-12634936D01*
X19750777Y-12634936D02*
X19741253Y-12644460D01*
X19741253Y-12644460D02*
X19722206Y-12653984D01*
X19722206Y-12653984D02*
X19693634Y-12653984D01*
X19874587Y-12653984D02*
X19855539Y-12644460D01*
X19855539Y-12644460D02*
X19846015Y-12625412D01*
X19846015Y-12625412D02*
X19846015Y-12453984D01*
X20026968Y-12644460D02*
X20007920Y-12653984D01*
X20007920Y-12653984D02*
X19969825Y-12653984D01*
X19969825Y-12653984D02*
X19950777Y-12644460D01*
X19950777Y-12644460D02*
X19941253Y-12625412D01*
X19941253Y-12625412D02*
X19941253Y-12549222D01*
X19941253Y-12549222D02*
X19950777Y-12530174D01*
X19950777Y-12530174D02*
X19969825Y-12520650D01*
X19969825Y-12520650D02*
X20007920Y-12520650D01*
X20007920Y-12520650D02*
X20026968Y-12530174D01*
X20026968Y-12530174D02*
X20036492Y-12549222D01*
X20036492Y-12549222D02*
X20036492Y-12568269D01*
X20036492Y-12568269D02*
X19941253Y-12587317D01*
X20112682Y-12644460D02*
X20131730Y-12653984D01*
X20131730Y-12653984D02*
X20169825Y-12653984D01*
X20169825Y-12653984D02*
X20188873Y-12644460D01*
X20188873Y-12644460D02*
X20198396Y-12625412D01*
X20198396Y-12625412D02*
X20198396Y-12615888D01*
X20198396Y-12615888D02*
X20188873Y-12596841D01*
X20188873Y-12596841D02*
X20169825Y-12587317D01*
X20169825Y-12587317D02*
X20141253Y-12587317D01*
X20141253Y-12587317D02*
X20122206Y-12577793D01*
X20122206Y-12577793D02*
X20112682Y-12558746D01*
X20112682Y-12558746D02*
X20112682Y-12549222D01*
X20112682Y-12549222D02*
X20122206Y-12530174D01*
X20122206Y-12530174D02*
X20141253Y-12520650D01*
X20141253Y-12520650D02*
X20169825Y-12520650D01*
X20169825Y-12520650D02*
X20188873Y-12530174D01*
X20265063Y-12730174D02*
X20274587Y-12720650D01*
X20274587Y-12720650D02*
X20293634Y-12692079D01*
X20293634Y-12692079D02*
X20303158Y-12673031D01*
X20303158Y-12673031D02*
X20312682Y-12644460D01*
X20312682Y-12644460D02*
X20322206Y-12596841D01*
X20322206Y-12596841D02*
X20322206Y-12558746D01*
X20322206Y-12558746D02*
X20312682Y-12511127D01*
X20312682Y-12511127D02*
X20303158Y-12482555D01*
X20303158Y-12482555D02*
X20293634Y-12463508D01*
X20293634Y-12463508D02*
X20274587Y-12434936D01*
X20274587Y-12434936D02*
X20265063Y-12425412D01*
M02*
