M48
; DRILL file {KiCad 8.0.2} date 2024-05-30T14:14:35+0200
; FORMAT={-:-/ absolute / inch / decimal}
; #@! TF.CreationDate,2024-05-30T14:14:35+02:00
; #@! TF.GenerationSoftware,Kicad,Pcbnew,8.0.2
; #@! TF.FileFunction,Plated,1,2,PTH
FMAT,2
INCH
; #@! TA.AperFunction,Plated,PTH,ViaDrill
T1C0.0079
; #@! TA.AperFunction,Plated,PTH,ComponentDrill
T2C0.0197
; #@! TA.AperFunction,Plated,PTH,ViaDrill
T3C0.0236
; #@! TA.AperFunction,Plated,PTH,ComponentDrill
T4C0.0374
; #@! TA.AperFunction,Plated,PTH,ComponentDrill
T5C0.0394
; #@! TA.AperFunction,Plated,PTH,ComponentDrill
T6C0.1260
%
G90
G05
T1
X6.419Y-3.402
X7.049Y-3.402
X7.304Y-4.122
X7.559Y-4.147
X7.674Y-3.402
X8.309Y-3.402
X8.934Y-3.402
X9.179Y-3.682
T2
X6.1634Y-3.4636
X6.1911Y-3.3968
X6.1911Y-3.5304
X6.2579Y-3.3691
X6.2579Y-3.5581
X6.3247Y-3.3968
X6.3247Y-3.5304
X6.3524Y-3.4636
X8.998Y-3.4636
X9.0257Y-3.3968
X9.0257Y-3.5304
X9.0925Y-3.3691
X9.0925Y-3.5581
X9.1593Y-3.3968
X9.1593Y-3.5304
X9.187Y-3.4636
T3
X7.389Y-3.947
X7.474Y-4.137
X7.62Y-4.003
X7.674Y-4.137
X7.904Y-4.0799
T4
X6.2283Y-3.9698
X6.3268Y-3.9698
X6.4252Y-3.9698
X6.5236Y-3.9698
X6.5246Y-3.6796
X6.623Y-3.6796
X6.7214Y-3.6796
X6.7795Y-3.9698
X6.8199Y-3.6796
X6.878Y-3.9698
X6.9764Y-3.9698
X7.0748Y-3.9698
X7.1146Y-3.6791
X7.213Y-3.6791
X7.3114Y-3.6791
X7.4099Y-3.6791
X7.7046Y-3.6791
X7.803Y-3.6791
X7.9014Y-3.6791
X7.9999Y-3.6791
X8.2756Y-3.9698
X8.2966Y-3.6791
X8.374Y-3.9698
X8.395Y-3.6791
X8.4724Y-3.9698
X8.4934Y-3.6791
X8.5709Y-3.9698
X8.5919Y-3.6791
X8.8268Y-3.9698
X8.9252Y-3.9698
X9.0236Y-3.9698
X9.122Y-3.9698
T5
X7.474Y-3.937
X7.574Y-3.937
X7.674Y-3.937
X7.774Y-3.937
X7.874Y-3.937
T6
X6.2579Y-3.4636
X9.0925Y-3.4636
M30
