%TF.GenerationSoftware,KiCad,Pcbnew,8.0.2*%
%TF.CreationDate,2024-05-30T14:14:33+02:00*%
%TF.ProjectId,Sensors_expansion_board,53656e73-6f72-4735-9f65-7870616e7369,1.0*%
%TF.SameCoordinates,Original*%
%TF.FileFunction,Copper,L1,Top*%
%TF.FilePolarity,Positive*%
%FSLAX46Y46*%
G04 Gerber Fmt 4.6, Leading zero omitted, Abs format (unit mm)*
G04 Created by KiCad (PCBNEW 8.0.2) date 2024-05-30 14:14:33*
%MOMM*%
%LPD*%
G01*
G04 APERTURE LIST*
G04 Aperture macros list*
%AMRoundRect*
0 Rectangle with rounded corners*
0 $1 Rounding radius*
0 $2 $3 $4 $5 $6 $7 $8 $9 X,Y pos of 4 corners*
0 Add a 4 corners polygon primitive as box body*
4,1,4,$2,$3,$4,$5,$6,$7,$8,$9,$2,$3,0*
0 Add four circle primitives for the rounded corners*
1,1,$1+$1,$2,$3*
1,1,$1+$1,$4,$5*
1,1,$1+$1,$6,$7*
1,1,$1+$1,$8,$9*
0 Add four rect primitives between the rounded corners*
20,1,$1+$1,$2,$3,$4,$5,0*
20,1,$1+$1,$4,$5,$6,$7,0*
20,1,$1+$1,$6,$7,$8,$9,0*
20,1,$1+$1,$8,$9,$2,$3,0*%
G04 Aperture macros list end*
%TA.AperFunction,ComponentPad*%
%ADD10RoundRect,0.250000X0.600000X0.725000X-0.600000X0.725000X-0.600000X-0.725000X0.600000X-0.725000X0*%
%TD*%
%TA.AperFunction,ComponentPad*%
%ADD11O,1.700000X1.950000*%
%TD*%
%TA.AperFunction,ComponentPad*%
%ADD12C,0.800000*%
%TD*%
%TA.AperFunction,ComponentPad*%
%ADD13C,6.400000*%
%TD*%
%TA.AperFunction,SMDPad,CuDef*%
%ADD14RoundRect,0.243750X0.456250X-0.243750X0.456250X0.243750X-0.456250X0.243750X-0.456250X-0.243750X0*%
%TD*%
%TA.AperFunction,SMDPad,CuDef*%
%ADD15RoundRect,0.225000X-0.225000X-0.250000X0.225000X-0.250000X0.225000X0.250000X-0.225000X0.250000X0*%
%TD*%
%TA.AperFunction,SMDPad,CuDef*%
%ADD16RoundRect,0.237500X-0.237500X0.250000X-0.237500X-0.250000X0.237500X-0.250000X0.237500X0.250000X0*%
%TD*%
%TA.AperFunction,ComponentPad*%
%ADD17R,1.700000X1.700000*%
%TD*%
%TA.AperFunction,ComponentPad*%
%ADD18O,1.700000X1.700000*%
%TD*%
%TA.AperFunction,ViaPad*%
%ADD19C,1.500000*%
%TD*%
%TA.AperFunction,ViaPad*%
%ADD20C,0.460000*%
%TD*%
%TA.AperFunction,Conductor*%
%ADD21C,1.000000*%
%TD*%
%TA.AperFunction,Conductor*%
%ADD22C,0.250000*%
%TD*%
G04 APERTURE END LIST*
D10*
%TO.P,J6,1,Pin_1*%
%TO.N,+3V3*%
X203196800Y-93450000D03*
D11*
%TO.P,J6,2,Pin_2*%
%TO.N,GND*%
X200696800Y-93450000D03*
%TO.P,J6,3,Pin_3*%
%TO.N,/I2C_SCL*%
X198196800Y-93450000D03*
%TO.P,J6,4,Pin_4*%
%TO.N,/I2C_SDA*%
X195696800Y-93450000D03*
%TD*%
D10*
%TO.P,J7,1,Pin_1*%
%TO.N,+3V3*%
X217700000Y-100833000D03*
D11*
%TO.P,J7,2,Pin_2*%
%TO.N,GND*%
X215200000Y-100833000D03*
%TO.P,J7,3,Pin_3*%
%TO.N,/I2C_SCL*%
X212700000Y-100833000D03*
%TO.P,J7,4,Pin_4*%
%TO.N,/I2C_SDA*%
X210200000Y-100833000D03*
%TD*%
D10*
%TO.P,J9,1,Pin_1*%
%TO.N,+5V*%
X231700000Y-100833000D03*
D11*
%TO.P,J9,2,Pin_2*%
%TO.N,GND*%
X229200000Y-100833000D03*
%TO.P,J9,3,Pin_3*%
%TO.N,/I2C_SCL*%
X226700000Y-100833000D03*
%TO.P,J9,4,Pin_4*%
%TO.N,/I2C_SDA*%
X224200000Y-100833000D03*
%TD*%
D10*
%TO.P,J8,1,Pin_1*%
%TO.N,+5V*%
X218233600Y-93450000D03*
D11*
%TO.P,J8,2,Pin_2*%
%TO.N,GND*%
X215733600Y-93450000D03*
%TO.P,J8,3,Pin_3*%
%TO.N,/I2C_SCL*%
X213233600Y-93450000D03*
%TO.P,J8,4,Pin_4*%
%TO.N,/I2C_SDA*%
X210733600Y-93450000D03*
%TD*%
D12*
%TO.P,H2,1*%
%TO.N,N/C*%
X228550000Y-87975000D03*
X229252944Y-86277944D03*
X229252944Y-89672056D03*
X230950000Y-85575000D03*
D13*
X230950000Y-87975000D03*
D12*
X230950000Y-90375000D03*
X232647056Y-86277944D03*
X232647056Y-89672056D03*
X233350000Y-87975000D03*
%TD*%
D14*
%TO.P,D2,1,K*%
%TO.N,Net-(D2-K)*%
X186246000Y-102120500D03*
%TO.P,D2,2,A*%
%TO.N,+3V3*%
X186246000Y-100245500D03*
%TD*%
D15*
%TO.P,C9,1*%
%TO.N,+3V3*%
X194907000Y-102286000D03*
%TO.P,C9,2*%
%TO.N,GND*%
X196457000Y-102286000D03*
%TD*%
D10*
%TO.P,J1,1,Pin_1*%
%TO.N,+3V3*%
X173224800Y-93461400D03*
D11*
%TO.P,J1,2,Pin_2*%
%TO.N,GND*%
X170724800Y-93461400D03*
%TO.P,J1,3,Pin_3*%
%TO.N,/I2C_SCL*%
X168224800Y-93461400D03*
%TO.P,J1,4,Pin_4*%
%TO.N,/I2C_SDA*%
X165724800Y-93461400D03*
%TD*%
D14*
%TO.P,D1,1,K*%
%TO.N,Net-(D1-K)*%
X203772000Y-102120500D03*
%TO.P,D1,2,A*%
%TO.N,+5V*%
X203772000Y-100245500D03*
%TD*%
D15*
%TO.P,C10,1*%
%TO.N,+3V3*%
X194907000Y-103810000D03*
%TO.P,C10,2*%
%TO.N,GND*%
X196457000Y-103810000D03*
%TD*%
D10*
%TO.P,J2,1,Pin_1*%
%TO.N,+3V3*%
X165700000Y-100833000D03*
D11*
%TO.P,J2,2,Pin_2*%
%TO.N,GND*%
X163200000Y-100833000D03*
%TO.P,J2,3,Pin_3*%
%TO.N,/I2C_SCL*%
X160700000Y-100833000D03*
%TO.P,J2,4,Pin_4*%
%TO.N,/I2C_SDA*%
X158200000Y-100833000D03*
%TD*%
D16*
%TO.P,R2,1*%
%TO.N,GND*%
X184214000Y-100290500D03*
%TO.P,R2,2*%
%TO.N,Net-(D2-K)*%
X184214000Y-102115500D03*
%TD*%
D15*
%TO.P,C6,1*%
%TO.N,+5V*%
X189827000Y-102286000D03*
%TO.P,C6,2*%
%TO.N,GND*%
X191377000Y-102286000D03*
%TD*%
D10*
%TO.P,J4,1,Pin_1*%
%TO.N,+3V3*%
X188210800Y-93450000D03*
D11*
%TO.P,J4,2,Pin_2*%
%TO.N,GND*%
X185710800Y-93450000D03*
%TO.P,J4,3,Pin_3*%
%TO.N,/I2C_SCL*%
X183210800Y-93450000D03*
%TO.P,J4,4,Pin_4*%
%TO.N,/I2C_SDA*%
X180710800Y-93450000D03*
%TD*%
D10*
%TO.P,J5,1,Pin_1*%
%TO.N,+3V3*%
X179700000Y-100833000D03*
D11*
%TO.P,J5,2,Pin_2*%
%TO.N,GND*%
X177200000Y-100833000D03*
%TO.P,J5,3,Pin_3*%
%TO.N,/I2C_SCL*%
X174700000Y-100833000D03*
%TO.P,J5,4,Pin_4*%
%TO.N,/I2C_SDA*%
X172200000Y-100833000D03*
%TD*%
D12*
%TO.P,H1,1*%
%TO.N,N/C*%
X156550000Y-87975000D03*
X157252944Y-86277944D03*
X157252944Y-89672056D03*
X158950000Y-85575000D03*
D13*
X158950000Y-87975000D03*
D12*
X158950000Y-90375000D03*
X160647056Y-86277944D03*
X160647056Y-89672056D03*
X161350000Y-87975000D03*
%TD*%
D15*
%TO.P,C8,1*%
%TO.N,+5V*%
X189827000Y-103810000D03*
%TO.P,C8,2*%
%TO.N,GND*%
X191377000Y-103810000D03*
%TD*%
D16*
%TO.P,R1,1*%
%TO.N,GND*%
X205804000Y-100290500D03*
%TO.P,R1,2*%
%TO.N,Net-(D1-K)*%
X205804000Y-102115500D03*
%TD*%
D17*
%TO.P,J3,1,Pin_1*%
%TO.N,/I2C_SCL*%
X200000000Y-100000000D03*
D18*
%TO.P,J3,2,Pin_2*%
%TO.N,/I2C_SDA*%
X197460000Y-100000000D03*
%TO.P,J3,3,Pin_3*%
%TO.N,+3V3*%
X194920000Y-100000000D03*
%TO.P,J3,4,Pin_4*%
%TO.N,GND*%
X192380000Y-100000000D03*
%TO.P,J3,5,Pin_5*%
%TO.N,+5V*%
X189840000Y-100000000D03*
%TD*%
D19*
%TO.N,+3V3*%
X187681000Y-100254000D03*
X194920000Y-105080000D03*
X193548400Y-101676400D03*
D20*
%TO.N,GND*%
X226924000Y-86411000D03*
X233147000Y-93523000D03*
X194920000Y-86411000D03*
X191999000Y-105334000D03*
X185522000Y-104699000D03*
X163043000Y-86411000D03*
X179045000Y-86411000D03*
X211049000Y-86411000D03*
D19*
%TO.N,+5V*%
X200762000Y-103630500D03*
X189840000Y-105080000D03*
%TD*%
D21*
%TO.N,+3V3*%
X193548400Y-104597400D02*
X194031000Y-105080000D01*
X194920000Y-102273000D02*
X194907000Y-102286000D01*
X194907000Y-102286000D02*
X194907000Y-103810000D01*
X193548400Y-101676400D02*
X193548400Y-104597400D01*
X187681000Y-100254000D02*
X187672500Y-100245500D01*
X194907000Y-105067000D02*
X194920000Y-105080000D01*
X194920000Y-100000000D02*
X194920000Y-102273000D01*
X194907000Y-103810000D02*
X194907000Y-105067000D01*
X187672500Y-100245500D02*
X186246000Y-100245500D01*
X194031000Y-105080000D02*
X194920000Y-105080000D01*
%TO.N,GND*%
X191377000Y-103810000D02*
X191377000Y-102286000D01*
X196457000Y-103810000D02*
X196457000Y-102286000D01*
%TO.N,+5V*%
X200762000Y-103630500D02*
X200762000Y-102032000D01*
X189827000Y-103810000D02*
X189827000Y-102286000D01*
X202548500Y-100245500D02*
X203772000Y-100245500D01*
X200762000Y-103630500D02*
X230532500Y-103630500D01*
X228502000Y-93450000D02*
X231700000Y-96648000D01*
X189827000Y-103810000D02*
X189827000Y-105067000D01*
X231700000Y-102463000D02*
X231700000Y-100833000D01*
X230532500Y-103630500D02*
X231700000Y-102463000D01*
X189827000Y-102286000D02*
X189827000Y-100013000D01*
X189827000Y-100013000D02*
X189840000Y-100000000D01*
X200762000Y-102032000D02*
X202548500Y-100245500D01*
X189827000Y-105067000D02*
X189840000Y-105080000D01*
X218233600Y-93450000D02*
X228502000Y-93450000D01*
X231700000Y-96648000D02*
X231700000Y-100833000D01*
D22*
%TO.N,Net-(D1-K)*%
X205799000Y-102120500D02*
X205804000Y-102115500D01*
X203772000Y-102120500D02*
X205799000Y-102120500D01*
%TO.N,Net-(D2-K)*%
X186246000Y-102120500D02*
X184219000Y-102120500D01*
X184219000Y-102120500D02*
X184214000Y-102115500D01*
%TO.N,/I2C_SCL*%
X213233600Y-93450000D02*
X213233600Y-97565400D01*
X213233600Y-97565400D02*
X213255200Y-97587000D01*
X198167600Y-97587000D02*
X201778000Y-97587000D01*
X225527000Y-97587000D02*
X226700000Y-98760000D01*
X169774000Y-97587000D02*
X162154000Y-97587000D01*
X174700000Y-100833000D02*
X174700000Y-97614000D01*
X185776000Y-97587000D02*
X174727000Y-97587000D01*
X183210800Y-97514600D02*
X183283200Y-97587000D01*
X183283200Y-97587000D02*
X185776000Y-97587000D01*
X200000000Y-97587000D02*
X201778000Y-97587000D01*
X212700000Y-100833000D02*
X212700000Y-97587000D01*
X168224800Y-97587000D02*
X169774000Y-97587000D01*
X226700000Y-98760000D02*
X226700000Y-100833000D01*
X162154000Y-97587000D02*
X160700000Y-99041000D01*
X174700000Y-97614000D02*
X174727000Y-97587000D01*
X160700000Y-99041000D02*
X160700000Y-100833000D01*
X213255200Y-97587000D02*
X217780000Y-97587000D01*
X183210800Y-93450000D02*
X183210800Y-97514600D01*
X200000000Y-97587000D02*
X185776000Y-97587000D01*
X198196800Y-97557800D02*
X198167600Y-97587000D01*
X201778000Y-97587000D02*
X212700000Y-97587000D01*
X168224800Y-93461400D02*
X168224800Y-97587000D01*
X200000000Y-100000000D02*
X200000000Y-97587000D01*
X198196800Y-93450000D02*
X198196800Y-97557800D01*
X212700000Y-97587000D02*
X213255200Y-97587000D01*
X217780000Y-97587000D02*
X225527000Y-97587000D01*
X174727000Y-97587000D02*
X169774000Y-97587000D01*
%TD*%
%TA.AperFunction,Conductor*%
%TO.N,/I2C_SCL*%
G36*
X198201741Y-97076694D02*
G01*
X198260398Y-97114657D01*
X198260877Y-97115217D01*
X198493596Y-97388808D01*
X198522038Y-97452627D01*
X198511462Y-97521691D01*
X198465226Y-97574075D01*
X198400150Y-97593146D01*
X197925465Y-97596998D01*
X197858268Y-97577858D01*
X197812086Y-97525427D01*
X197801582Y-97456352D01*
X197830090Y-97392562D01*
X197830871Y-97391656D01*
X198072975Y-97114055D01*
X198131871Y-97076471D01*
X198201741Y-97076694D01*
G37*
%TD.AperFunction*%
%TD*%
%TA.AperFunction,Conductor*%
%TO.N,/I2C_SCL*%
G36*
X183215741Y-97127876D02*
G01*
X183274398Y-97165839D01*
X183274877Y-97166399D01*
X183507596Y-97439990D01*
X183536038Y-97503809D01*
X183525462Y-97572873D01*
X183479226Y-97625257D01*
X183414150Y-97644328D01*
X182939465Y-97648180D01*
X182872268Y-97629040D01*
X182826086Y-97576609D01*
X182815582Y-97507534D01*
X182844090Y-97443744D01*
X182844871Y-97442838D01*
X183086975Y-97165237D01*
X183145871Y-97127653D01*
X183215741Y-97127876D01*
G37*
%TD.AperFunction*%
%TD*%
%TA.AperFunction,Conductor*%
%TO.N,/I2C_SCL*%
G36*
X168280541Y-97089397D02*
G01*
X168339198Y-97127360D01*
X168339677Y-97127920D01*
X168572396Y-97401511D01*
X168600838Y-97465330D01*
X168590262Y-97534394D01*
X168544026Y-97586778D01*
X168478950Y-97605849D01*
X168004265Y-97609701D01*
X167937068Y-97590561D01*
X167890886Y-97538130D01*
X167880382Y-97469055D01*
X167908890Y-97405265D01*
X167909671Y-97404359D01*
X168151775Y-97126758D01*
X168210671Y-97089174D01*
X168280541Y-97089397D01*
G37*
%TD.AperFunction*%
%TD*%
%TA.AperFunction,Conductor*%
%TO.N,/I2C_SCL*%
G36*
X213289342Y-97088537D02*
G01*
X213347999Y-97126500D01*
X213348478Y-97127060D01*
X213581196Y-97400651D01*
X213609638Y-97464470D01*
X213599062Y-97533535D01*
X213552826Y-97585918D01*
X213487750Y-97604989D01*
X213139175Y-97607818D01*
X213139174Y-97607818D01*
X212737436Y-97611079D01*
X213160574Y-97125899D01*
X213219472Y-97088314D01*
X213289342Y-97088537D01*
G37*
%TD.AperFunction*%
%TD*%
%TA.AperFunction,Conductor*%
%TO.N,/I2C_SCL*%
G36*
X175011184Y-97577872D02*
G01*
X175057366Y-97630303D01*
X175067870Y-97699378D01*
X175039362Y-97763168D01*
X175038445Y-97764230D01*
X174796479Y-98041673D01*
X174737581Y-98079259D01*
X174667711Y-98079036D01*
X174609054Y-98041073D01*
X174608575Y-98040513D01*
X174375856Y-97766922D01*
X174347414Y-97703103D01*
X174357990Y-97634039D01*
X174404226Y-97581655D01*
X174469299Y-97562584D01*
X174943987Y-97558732D01*
X175011184Y-97577872D01*
G37*
%TD.AperFunction*%
%TD*%
%TA.AperFunction,Conductor*%
%TO.N,/I2C_SCL*%
G36*
X213139175Y-97607817D02*
G01*
X213139174Y-97607818D01*
X212800997Y-97995579D01*
X212742099Y-98033165D01*
X212672229Y-98032942D01*
X212613572Y-97994979D01*
X212613093Y-97994419D01*
X212380373Y-97720826D01*
X212351932Y-97657009D01*
X212362508Y-97587945D01*
X212408744Y-97535561D01*
X212473817Y-97516490D01*
X213224136Y-97510401D01*
X213139175Y-97607817D01*
G37*
%TD.AperFunction*%
%TD*%
%TA.AperFunction,Conductor*%
%TO.N,/I2C_SCL*%
G36*
X200316064Y-97520648D02*
G01*
X200362246Y-97573079D01*
X200372750Y-97642154D01*
X200344242Y-97705944D01*
X200343325Y-97707006D01*
X200101359Y-97984449D01*
X200042461Y-98022035D01*
X199972591Y-98021812D01*
X199913934Y-97983849D01*
X199913455Y-97983289D01*
X199680736Y-97709698D01*
X199652294Y-97645879D01*
X199662870Y-97576815D01*
X199709106Y-97524431D01*
X199774179Y-97505360D01*
X200248867Y-97501508D01*
X200316064Y-97520648D01*
G37*
%TD.AperFunction*%
%TD*%
%TA.AperFunction,Conductor*%
%TO.N,GND*%
G36*
X231951212Y-83975016D02*
G01*
X232109799Y-83977240D01*
X232126835Y-83978316D01*
X232443215Y-84013964D01*
X232462439Y-84017230D01*
X232722665Y-84076625D01*
X232771627Y-84087801D01*
X232790376Y-84093202D01*
X233089730Y-84197950D01*
X233107753Y-84205415D01*
X233393498Y-84343022D01*
X233410575Y-84352461D01*
X233679108Y-84521191D01*
X233695014Y-84532476D01*
X233897101Y-84693635D01*
X233942971Y-84730215D01*
X233957521Y-84743217D01*
X234181782Y-84967478D01*
X234194784Y-84982028D01*
X234392517Y-85229977D01*
X234403808Y-85245891D01*
X234572538Y-85514424D01*
X234581977Y-85531501D01*
X234719582Y-85817241D01*
X234727049Y-85835269D01*
X234831797Y-86134623D01*
X234837198Y-86153372D01*
X234907767Y-86462553D01*
X234911036Y-86481790D01*
X234946682Y-86798160D01*
X234947759Y-86815202D01*
X234949983Y-86973786D01*
X234950000Y-86976226D01*
X234950000Y-102973773D01*
X234949983Y-102976213D01*
X234947759Y-103134797D01*
X234946682Y-103151839D01*
X234911036Y-103468209D01*
X234907767Y-103487446D01*
X234837198Y-103796627D01*
X234831797Y-103815376D01*
X234727049Y-104114730D01*
X234719582Y-104132758D01*
X234581977Y-104418498D01*
X234572538Y-104435575D01*
X234403808Y-104704108D01*
X234392517Y-104720022D01*
X234194784Y-104967971D01*
X234181782Y-104982521D01*
X233957521Y-105206782D01*
X233942971Y-105219784D01*
X233695022Y-105417517D01*
X233679108Y-105428808D01*
X233410575Y-105597538D01*
X233393498Y-105606977D01*
X233107758Y-105744582D01*
X233089730Y-105752049D01*
X232790376Y-105856797D01*
X232771627Y-105862198D01*
X232462446Y-105932767D01*
X232443209Y-105936036D01*
X232126839Y-105971682D01*
X232109797Y-105972759D01*
X231954799Y-105974932D01*
X231951211Y-105974983D01*
X231948774Y-105975000D01*
X195782993Y-105975000D01*
X195702131Y-105955069D01*
X195639794Y-105899843D01*
X195610262Y-105821973D01*
X195620300Y-105739299D01*
X195648490Y-105690615D01*
X195714134Y-105610627D01*
X195714136Y-105610625D01*
X195802396Y-105445501D01*
X195856747Y-105266331D01*
X195875099Y-105080000D01*
X195856747Y-104893669D01*
X195828857Y-104801728D01*
X195802397Y-104714501D01*
X195796842Y-104704108D01*
X195772345Y-104658277D01*
X195751805Y-104577572D01*
X195771124Y-104496562D01*
X195825877Y-104433809D01*
X195903521Y-104403689D01*
X195986270Y-104413102D01*
X196004794Y-104421222D01*
X196099029Y-104469237D01*
X196099032Y-104469238D01*
X196198552Y-104484999D01*
X196207000Y-104484999D01*
X196207000Y-104060001D01*
X196707000Y-104060001D01*
X196707000Y-104484998D01*
X196707001Y-104484999D01*
X196715449Y-104484999D01*
X196814964Y-104469238D01*
X196814970Y-104469237D01*
X196934921Y-104408118D01*
X197030118Y-104312921D01*
X197091238Y-104192967D01*
X197091238Y-104192966D01*
X197107000Y-104093449D01*
X197107000Y-104060001D01*
X197106999Y-104060000D01*
X196707001Y-104060000D01*
X196707000Y-104060001D01*
X196207000Y-104060001D01*
X196207000Y-103857000D01*
X196226931Y-103776138D01*
X196282157Y-103713801D01*
X196360027Y-103684269D01*
X196381000Y-103683000D01*
X197078999Y-103683000D01*
X197079000Y-103683000D01*
X197079000Y-103660072D01*
X197098931Y-103579210D01*
X197106999Y-103568244D01*
X197106999Y-103526550D01*
X197091237Y-103427030D01*
X197087515Y-103415571D01*
X197079000Y-103361806D01*
X197079000Y-102734193D01*
X197087517Y-102680422D01*
X197091238Y-102668969D01*
X197107000Y-102569449D01*
X197107000Y-102536001D01*
X197106999Y-102536000D01*
X196381000Y-102536000D01*
X196300138Y-102516069D01*
X196237801Y-102460843D01*
X196208269Y-102382973D01*
X196207000Y-102362000D01*
X196207000Y-101611001D01*
X196707000Y-101611001D01*
X196707000Y-102035999D01*
X196707001Y-102036000D01*
X197106998Y-102036000D01*
X197106999Y-102035999D01*
X197106999Y-102002550D01*
X197091238Y-101903035D01*
X197091237Y-101903029D01*
X197030118Y-101783078D01*
X196934921Y-101687881D01*
X196814967Y-101626761D01*
X196715450Y-101611000D01*
X196707001Y-101611000D01*
X196707000Y-101611001D01*
X196207000Y-101611001D01*
X196207000Y-101611000D01*
X196198552Y-101611001D01*
X196198539Y-101611002D01*
X196099034Y-101626761D01*
X196099029Y-101626762D01*
X195979078Y-101687881D01*
X195917537Y-101749423D01*
X195846266Y-101792507D01*
X195763136Y-101797536D01*
X195687191Y-101763356D01*
X195635829Y-101697798D01*
X195620500Y-101626386D01*
X195620500Y-100864393D01*
X195640431Y-100783531D01*
X195662168Y-100753987D01*
X195660987Y-100753018D01*
X195676052Y-100734661D01*
X195797685Y-100586450D01*
X195895232Y-100403954D01*
X195955300Y-100205934D01*
X195969100Y-100065826D01*
X195975583Y-100000001D01*
X195975583Y-99999998D01*
X196404417Y-99999998D01*
X196404417Y-100000001D01*
X196424699Y-100205932D01*
X196484769Y-100403957D01*
X196582314Y-100586449D01*
X196688025Y-100715259D01*
X196713590Y-100746410D01*
X196787329Y-100806926D01*
X196873550Y-100877685D01*
X197056038Y-100975228D01*
X197056046Y-100975232D01*
X197254066Y-101035300D01*
X197357033Y-101045441D01*
X197459999Y-101055583D01*
X197460000Y-101055583D01*
X197460001Y-101055583D01*
X197535650Y-101048132D01*
X197665934Y-101035300D01*
X197863954Y-100975232D01*
X198046450Y-100877685D01*
X198206410Y-100746410D01*
X198337685Y-100586450D01*
X198435232Y-100403954D01*
X198495300Y-100205934D01*
X198509100Y-100065826D01*
X198515583Y-100000001D01*
X198515583Y-99999998D01*
X198495300Y-99794067D01*
X198492809Y-99785855D01*
X198435232Y-99596046D01*
X198431738Y-99589510D01*
X198337685Y-99413550D01*
X198258657Y-99317253D01*
X198206410Y-99253590D01*
X198111654Y-99175826D01*
X198046449Y-99122314D01*
X197863957Y-99024769D01*
X197665932Y-98964699D01*
X197460001Y-98944417D01*
X197459999Y-98944417D01*
X197254067Y-98964699D01*
X197056042Y-99024769D01*
X196873550Y-99122314D01*
X196713595Y-99253585D01*
X196713585Y-99253595D01*
X196582314Y-99413550D01*
X196484769Y-99596042D01*
X196424699Y-99794067D01*
X196404417Y-99999998D01*
X195975583Y-99999998D01*
X195955300Y-99794067D01*
X195952809Y-99785855D01*
X195895232Y-99596046D01*
X195891738Y-99589510D01*
X195797685Y-99413550D01*
X195718657Y-99317253D01*
X195666410Y-99253590D01*
X195571654Y-99175826D01*
X195506449Y-99122314D01*
X195323957Y-99024769D01*
X195125932Y-98964699D01*
X194920001Y-98944417D01*
X194919999Y-98944417D01*
X194714067Y-98964699D01*
X194516042Y-99024769D01*
X194333550Y-99122314D01*
X194173595Y-99253585D01*
X194173585Y-99253595D01*
X194042314Y-99413550D01*
X193944769Y-99596042D01*
X193884699Y-99794067D01*
X193864417Y-99999998D01*
X193864417Y-100000001D01*
X193884699Y-100205932D01*
X193944769Y-100403958D01*
X194001552Y-100510189D01*
X194022093Y-100590898D01*
X194002774Y-100671908D01*
X193948020Y-100734661D01*
X193870376Y-100764781D01*
X193797589Y-100758721D01*
X193756986Y-100746404D01*
X193734729Y-100739652D01*
X193548401Y-100721301D01*
X193548396Y-100721301D01*
X193488809Y-100727169D01*
X193406383Y-100715259D01*
X193338933Y-100666409D01*
X193301912Y-100591808D01*
X193303799Y-100508547D01*
X193318302Y-100471983D01*
X193354766Y-100403764D01*
X193401410Y-100250000D01*
X192813012Y-100250000D01*
X192845925Y-100192993D01*
X192880000Y-100065826D01*
X192880000Y-99934174D01*
X192845925Y-99807007D01*
X192813012Y-99750000D01*
X193401410Y-99750000D01*
X193354766Y-99596234D01*
X193354764Y-99596230D01*
X193257268Y-99413827D01*
X193126061Y-99253952D01*
X193126047Y-99253938D01*
X192966172Y-99122731D01*
X192783761Y-99025231D01*
X192783762Y-99025231D01*
X192630000Y-98978587D01*
X192630000Y-99566988D01*
X192572993Y-99534075D01*
X192445826Y-99500000D01*
X192314174Y-99500000D01*
X192187007Y-99534075D01*
X192130000Y-99566988D01*
X192130000Y-98978588D01*
X192129999Y-98978587D01*
X191976238Y-99025231D01*
X191793827Y-99122731D01*
X191633952Y-99253938D01*
X191633938Y-99253952D01*
X191502731Y-99413827D01*
X191405235Y-99596230D01*
X191405233Y-99596234D01*
X191358590Y-99750000D01*
X191946988Y-99750000D01*
X191914075Y-99807007D01*
X191880000Y-99934174D01*
X191880000Y-100065826D01*
X191914075Y-100192993D01*
X191946988Y-100250000D01*
X191358590Y-100250000D01*
X191405233Y-100403765D01*
X191405235Y-100403769D01*
X191502731Y-100586172D01*
X191633938Y-100746047D01*
X191633952Y-100746061D01*
X191793827Y-100877268D01*
X191976230Y-100974764D01*
X191976234Y-100974766D01*
X192130000Y-101021410D01*
X192130000Y-100433012D01*
X192187007Y-100465925D01*
X192314174Y-100500000D01*
X192445826Y-100500000D01*
X192572993Y-100465925D01*
X192630000Y-100433012D01*
X192630000Y-101021411D01*
X192646034Y-101033303D01*
X192699110Y-101097482D01*
X192716282Y-101178974D01*
X192695838Y-101255081D01*
X192666003Y-101310900D01*
X192611653Y-101490065D01*
X192593301Y-101676398D01*
X192593301Y-101676401D01*
X192611653Y-101862734D01*
X192666002Y-102041898D01*
X192754262Y-102207022D01*
X192754264Y-102207025D01*
X192808403Y-102272993D01*
X192844295Y-102348144D01*
X192847900Y-102383378D01*
X192847900Y-104528406D01*
X192847900Y-104666394D01*
X192869436Y-104774661D01*
X192874820Y-104801729D01*
X192927622Y-104929204D01*
X192927624Y-104929210D01*
X193004286Y-105043943D01*
X193486885Y-105526541D01*
X193486886Y-105526543D01*
X193584459Y-105624115D01*
X193632663Y-105656324D01*
X193688825Y-105717821D01*
X193709974Y-105798372D01*
X193691267Y-105879526D01*
X193636989Y-105942690D01*
X193559574Y-105973395D01*
X193535994Y-105975000D01*
X190702993Y-105975000D01*
X190622131Y-105955069D01*
X190559794Y-105899843D01*
X190530262Y-105821973D01*
X190540300Y-105739299D01*
X190568490Y-105690615D01*
X190634134Y-105610627D01*
X190634136Y-105610625D01*
X190722396Y-105445501D01*
X190776747Y-105266331D01*
X190795099Y-105080000D01*
X190776747Y-104893669D01*
X190748857Y-104801728D01*
X190722397Y-104714501D01*
X190716842Y-104704108D01*
X190692345Y-104658277D01*
X190671805Y-104577572D01*
X190691124Y-104496562D01*
X190745877Y-104433809D01*
X190823521Y-104403689D01*
X190906270Y-104413102D01*
X190924794Y-104421222D01*
X191019029Y-104469237D01*
X191019032Y-104469238D01*
X191118552Y-104484999D01*
X191127000Y-104484999D01*
X191127000Y-104060001D01*
X191627000Y-104060001D01*
X191627000Y-104484998D01*
X191627001Y-104484999D01*
X191635449Y-104484999D01*
X191734964Y-104469238D01*
X191734970Y-104469237D01*
X191854921Y-104408118D01*
X191950118Y-104312921D01*
X192011238Y-104192967D01*
X192011238Y-104192966D01*
X192027000Y-104093449D01*
X192027000Y-104060001D01*
X192026999Y-104060000D01*
X191627001Y-104060000D01*
X191627000Y-104060001D01*
X191127000Y-104060001D01*
X191127000Y-103857000D01*
X191146931Y-103776138D01*
X191202157Y-103713801D01*
X191280027Y-103684269D01*
X191301000Y-103683000D01*
X192252999Y-103683000D01*
X192253000Y-103683000D01*
X192253000Y-102540000D01*
X192252999Y-102540000D01*
X192103073Y-102540000D01*
X192086845Y-102536000D01*
X191301000Y-102536000D01*
X191220138Y-102516069D01*
X191157801Y-102460843D01*
X191128269Y-102382973D01*
X191127000Y-102362000D01*
X191127000Y-101611001D01*
X191627000Y-101611001D01*
X191627000Y-102035999D01*
X191627001Y-102036000D01*
X192026998Y-102036000D01*
X192026999Y-102035999D01*
X192026999Y-102002550D01*
X192011238Y-101903035D01*
X192011237Y-101903029D01*
X191950118Y-101783078D01*
X191854921Y-101687881D01*
X191734967Y-101626761D01*
X191635450Y-101611000D01*
X191627001Y-101611000D01*
X191627000Y-101611001D01*
X191127000Y-101611001D01*
X191127000Y-101611000D01*
X191118552Y-101611001D01*
X191118539Y-101611002D01*
X191019034Y-101626761D01*
X191019029Y-101626762D01*
X190899078Y-101687881D01*
X190824537Y-101762423D01*
X190753266Y-101805507D01*
X190670136Y-101810536D01*
X190594191Y-101776356D01*
X190542829Y-101710798D01*
X190527500Y-101639386D01*
X190527500Y-100877052D01*
X190547431Y-100796190D01*
X190581843Y-100753934D01*
X190580364Y-100752455D01*
X190586398Y-100746419D01*
X190586410Y-100746410D01*
X190717685Y-100586450D01*
X190815232Y-100403954D01*
X190875300Y-100205934D01*
X190889100Y-100065826D01*
X190895583Y-100000001D01*
X190895583Y-99999998D01*
X190875300Y-99794067D01*
X190872809Y-99785855D01*
X190815232Y-99596046D01*
X190811738Y-99589510D01*
X190717685Y-99413550D01*
X190638657Y-99317253D01*
X190586410Y-99253590D01*
X190491654Y-99175826D01*
X190426449Y-99122314D01*
X190243957Y-99024769D01*
X190045932Y-98964699D01*
X189840001Y-98944417D01*
X189839999Y-98944417D01*
X189634067Y-98964699D01*
X189436042Y-99024769D01*
X189253550Y-99122314D01*
X189093595Y-99253585D01*
X189093585Y-99253595D01*
X188962314Y-99413550D01*
X188864770Y-99596040D01*
X188864768Y-99596045D01*
X188864768Y-99596046D01*
X188831654Y-99705209D01*
X188821002Y-99740325D01*
X188778456Y-99811919D01*
X188707512Y-99855541D01*
X188624423Y-99861197D01*
X188548222Y-99827591D01*
X188501039Y-99771837D01*
X188489367Y-99750000D01*
X188475136Y-99723375D01*
X188460690Y-99705773D01*
X188356363Y-99578650D01*
X188356361Y-99578648D01*
X188356357Y-99578643D01*
X188356351Y-99578638D01*
X188356349Y-99578636D01*
X188211627Y-99459865D01*
X188046498Y-99371602D01*
X187867333Y-99317253D01*
X187867335Y-99317253D01*
X187681001Y-99298901D01*
X187680999Y-99298901D01*
X187494665Y-99317253D01*
X187315501Y-99371602D01*
X187150372Y-99459865D01*
X187094763Y-99505503D01*
X187019612Y-99541395D01*
X186984378Y-99545000D01*
X186177006Y-99545000D01*
X186130971Y-99554157D01*
X186097027Y-99557500D01*
X185736231Y-99557500D01*
X185706228Y-99560313D01*
X185579819Y-99604545D01*
X185472073Y-99684067D01*
X185472067Y-99684073D01*
X185392545Y-99791819D01*
X185348313Y-99918228D01*
X185345500Y-99948231D01*
X185345500Y-100542768D01*
X185348313Y-100572771D01*
X185392545Y-100699180D01*
X185455211Y-100784087D01*
X185472070Y-100806930D01*
X185505499Y-100831602D01*
X185579819Y-100886454D01*
X185579820Y-100886454D01*
X185579821Y-100886455D01*
X185706226Y-100930686D01*
X185736232Y-100933499D01*
X185736233Y-100933500D01*
X185736236Y-100933500D01*
X186097027Y-100933500D01*
X186130971Y-100936843D01*
X186141518Y-100938940D01*
X186177007Y-100946000D01*
X186963664Y-100946000D01*
X187044526Y-100965931D01*
X187074049Y-100985497D01*
X187150369Y-101048132D01*
X187150375Y-101048136D01*
X187315499Y-101136396D01*
X187315498Y-101136396D01*
X187494666Y-101190746D01*
X187494669Y-101190747D01*
X187624427Y-101203527D01*
X187680999Y-101209099D01*
X187681000Y-101209099D01*
X187681001Y-101209099D01*
X187703855Y-101206847D01*
X187867331Y-101190747D01*
X188046501Y-101136396D01*
X188211625Y-101048136D01*
X188356357Y-100929357D01*
X188475136Y-100784625D01*
X188563396Y-100619501D01*
X188592280Y-100524282D01*
X188634825Y-100452690D01*
X188705768Y-100409068D01*
X188788858Y-100403412D01*
X188865058Y-100437017D01*
X188912241Y-100492770D01*
X188962166Y-100586172D01*
X188962315Y-100586450D01*
X189087005Y-100738386D01*
X189122895Y-100813535D01*
X189126500Y-100848768D01*
X189126500Y-104388860D01*
X189106569Y-104469722D01*
X189087005Y-104499243D01*
X189045866Y-104549370D01*
X189045863Y-104549375D01*
X188957603Y-104714499D01*
X188903253Y-104893665D01*
X188884901Y-105079998D01*
X188884901Y-105080001D01*
X188903253Y-105266334D01*
X188957602Y-105445498D01*
X189045865Y-105610627D01*
X189111510Y-105690615D01*
X189147402Y-105765765D01*
X189144259Y-105848988D01*
X189102800Y-105921217D01*
X189032524Y-105965906D01*
X188977007Y-105975000D01*
X157951226Y-105975000D01*
X157948788Y-105974983D01*
X157945139Y-105974931D01*
X157790202Y-105972759D01*
X157773160Y-105971682D01*
X157456790Y-105936036D01*
X157437553Y-105932767D01*
X157128372Y-105862198D01*
X157109623Y-105856797D01*
X156810269Y-105752049D01*
X156792241Y-105744582D01*
X156506501Y-105606977D01*
X156489424Y-105597538D01*
X156220891Y-105428808D01*
X156204982Y-105417520D01*
X155957028Y-105219784D01*
X155942478Y-105206782D01*
X155718217Y-104982521D01*
X155705215Y-104967971D01*
X155674304Y-104929210D01*
X155507476Y-104720014D01*
X155496191Y-104704108D01*
X155327461Y-104435575D01*
X155318022Y-104418498D01*
X155180415Y-104132753D01*
X155172950Y-104114730D01*
X155068202Y-103815376D01*
X155062801Y-103796627D01*
X155010674Y-103568244D01*
X154992230Y-103487439D01*
X154988963Y-103468209D01*
X154984323Y-103427030D01*
X154953316Y-103151835D01*
X154952240Y-103134796D01*
X154951750Y-103099875D01*
X154950017Y-102976212D01*
X154950000Y-102973773D01*
X154950000Y-100604535D01*
X157149500Y-100604535D01*
X157149500Y-101061465D01*
X157189870Y-101264420D01*
X157198892Y-101286201D01*
X157260656Y-101435313D01*
X157269059Y-101455598D01*
X157384023Y-101627655D01*
X157530345Y-101773977D01*
X157702402Y-101888941D01*
X157893580Y-101968130D01*
X158096535Y-102008500D01*
X158096538Y-102008500D01*
X158303462Y-102008500D01*
X158303465Y-102008500D01*
X158506420Y-101968130D01*
X158697598Y-101888941D01*
X158869655Y-101773977D01*
X159015977Y-101627655D01*
X159130941Y-101455598D01*
X159210130Y-101264420D01*
X159250500Y-101061465D01*
X159250500Y-100604535D01*
X159649500Y-100604535D01*
X159649500Y-101061465D01*
X159689870Y-101264420D01*
X159698892Y-101286201D01*
X159760656Y-101435313D01*
X159769059Y-101455598D01*
X159884023Y-101627655D01*
X160030345Y-101773977D01*
X160202402Y-101888941D01*
X160393580Y-101968130D01*
X160596535Y-102008500D01*
X160596538Y-102008500D01*
X160803462Y-102008500D01*
X160803465Y-102008500D01*
X161006420Y-101968130D01*
X161197598Y-101888941D01*
X161369655Y-101773977D01*
X161515977Y-101627655D01*
X161630941Y-101455598D01*
X161710130Y-101264420D01*
X161750500Y-101061465D01*
X161750500Y-100604535D01*
X161746216Y-100582999D01*
X162154293Y-100582999D01*
X162154293Y-100583000D01*
X162795854Y-100583000D01*
X162757370Y-100649657D01*
X162725000Y-100770465D01*
X162725000Y-100895535D01*
X162757370Y-101016343D01*
X162795854Y-101083000D01*
X162154293Y-101083000D01*
X162190350Y-101264275D01*
X162190351Y-101264276D01*
X162269500Y-101455360D01*
X162269501Y-101455362D01*
X162384407Y-101627331D01*
X162530668Y-101773592D01*
X162702637Y-101888498D01*
X162702639Y-101888499D01*
X162893721Y-101967647D01*
X162893727Y-101967649D01*
X162950000Y-101978842D01*
X162950000Y-101237145D01*
X163016657Y-101275630D01*
X163137465Y-101308000D01*
X163262535Y-101308000D01*
X163383343Y-101275630D01*
X163450000Y-101237145D01*
X163450000Y-101978842D01*
X163506272Y-101967649D01*
X163506278Y-101967647D01*
X163697360Y-101888499D01*
X163697362Y-101888498D01*
X163869331Y-101773592D01*
X164015592Y-101627331D01*
X164130498Y-101455362D01*
X164130499Y-101455360D01*
X164209648Y-101264276D01*
X164209649Y-101264275D01*
X164245707Y-101083000D01*
X163604146Y-101083000D01*
X163642630Y-101016343D01*
X163675000Y-100895535D01*
X163675000Y-100770465D01*
X163642630Y-100649657D01*
X163604146Y-100583000D01*
X164245707Y-100583000D01*
X164245706Y-100582999D01*
X164209649Y-100401724D01*
X164209648Y-100401723D01*
X164130499Y-100210639D01*
X164130498Y-100210637D01*
X164025659Y-100053735D01*
X164649500Y-100053735D01*
X164649500Y-101612264D01*
X164652354Y-101642700D01*
X164664146Y-101676398D01*
X164697207Y-101770882D01*
X164697208Y-101770883D01*
X164697208Y-101770884D01*
X164777845Y-101880144D01*
X164777847Y-101880146D01*
X164777850Y-101880150D01*
X164777853Y-101880152D01*
X164777855Y-101880154D01*
X164877949Y-101954026D01*
X164887118Y-101960793D01*
X165015301Y-102005646D01*
X165045734Y-102008500D01*
X165045735Y-102008500D01*
X166354265Y-102008500D01*
X166354266Y-102008500D01*
X166384699Y-102005646D01*
X166512882Y-101960793D01*
X166622150Y-101880150D01*
X166702793Y-101770882D01*
X166747646Y-101642699D01*
X166750500Y-101612266D01*
X166750500Y-100604535D01*
X171149500Y-100604535D01*
X171149500Y-101061465D01*
X171189870Y-101264420D01*
X171198892Y-101286201D01*
X171260656Y-101435313D01*
X171269059Y-101455598D01*
X171384023Y-101627655D01*
X171530345Y-101773977D01*
X171702402Y-101888941D01*
X171893580Y-101968130D01*
X172096535Y-102008500D01*
X172096538Y-102008500D01*
X172303462Y-102008500D01*
X172303465Y-102008500D01*
X172506420Y-101968130D01*
X172697598Y-101888941D01*
X172869655Y-101773977D01*
X173015977Y-101627655D01*
X173130941Y-101455598D01*
X173210130Y-101264420D01*
X173250500Y-101061465D01*
X173250500Y-100604535D01*
X173210130Y-100401580D01*
X173130941Y-100210402D01*
X173015977Y-100038345D01*
X172869655Y-99892023D01*
X172697598Y-99777059D01*
X172697595Y-99777057D01*
X172697594Y-99777057D01*
X172513752Y-99700907D01*
X172506420Y-99697870D01*
X172303465Y-99657500D01*
X172096535Y-99657500D01*
X171897386Y-99697113D01*
X171893580Y-99697870D01*
X171893577Y-99697871D01*
X171702405Y-99777057D01*
X171702402Y-99777059D01*
X171530347Y-99892021D01*
X171384021Y-100038347D01*
X171269059Y-100210402D01*
X171269057Y-100210405D01*
X171194513Y-100390370D01*
X171189870Y-100401580D01*
X171149500Y-100604535D01*
X166750500Y-100604535D01*
X166750500Y-100053734D01*
X166747646Y-100023301D01*
X166702793Y-99895118D01*
X166700509Y-99892023D01*
X166622154Y-99785855D01*
X166622152Y-99785853D01*
X166622150Y-99785850D01*
X166622146Y-99785847D01*
X166622144Y-99785845D01*
X166512884Y-99705208D01*
X166512882Y-99705207D01*
X166413329Y-99670372D01*
X166384700Y-99660354D01*
X166369482Y-99658927D01*
X166354266Y-99657500D01*
X165045734Y-99657500D01*
X165035589Y-99658451D01*
X165015299Y-99660354D01*
X164943089Y-99685622D01*
X164887118Y-99705207D01*
X164887117Y-99705207D01*
X164887116Y-99705208D01*
X164887115Y-99705208D01*
X164777855Y-99785845D01*
X164777845Y-99785855D01*
X164697208Y-99895115D01*
X164697208Y-99895116D01*
X164697207Y-99895118D01*
X164683744Y-99933593D01*
X164652354Y-100023299D01*
X164649500Y-100053735D01*
X164025659Y-100053735D01*
X164015592Y-100038668D01*
X163869331Y-99892407D01*
X163697362Y-99777501D01*
X163697360Y-99777500D01*
X163506274Y-99698350D01*
X163450000Y-99687156D01*
X163450000Y-100428854D01*
X163383343Y-100390370D01*
X163262535Y-100358000D01*
X163137465Y-100358000D01*
X163016657Y-100390370D01*
X162950000Y-100428854D01*
X162950000Y-99687156D01*
X162893725Y-99698350D01*
X162702639Y-99777500D01*
X162702637Y-99777501D01*
X162530668Y-99892407D01*
X162384407Y-100038668D01*
X162269501Y-100210637D01*
X162269500Y-100210639D01*
X162190351Y-100401723D01*
X162190350Y-100401724D01*
X162154293Y-100582999D01*
X161746216Y-100582999D01*
X161710130Y-100401580D01*
X161630941Y-100210402D01*
X161515977Y-100038345D01*
X161369655Y-99892023D01*
X161364381Y-99888499D01*
X161197598Y-99777058D01*
X161197595Y-99777057D01*
X161132913Y-99750265D01*
X161065833Y-99700907D01*
X161029375Y-99626029D01*
X161025500Y-99589510D01*
X161025500Y-99247900D01*
X161045431Y-99167038D01*
X161076463Y-99124863D01*
X162237863Y-97963463D01*
X162309134Y-97920379D01*
X162360900Y-97912500D01*
X168181947Y-97912500D01*
X168267653Y-97912500D01*
X169731147Y-97912500D01*
X174149471Y-97912500D01*
X174230333Y-97932431D01*
X174282008Y-97973762D01*
X174333037Y-98033753D01*
X174370248Y-98108260D01*
X174374500Y-98146491D01*
X174374500Y-99589510D01*
X174354569Y-99670372D01*
X174299343Y-99732709D01*
X174267087Y-99750265D01*
X174202404Y-99777057D01*
X174202401Y-99777058D01*
X174030347Y-99892021D01*
X173884021Y-100038347D01*
X173769059Y-100210402D01*
X173769057Y-100210405D01*
X173694513Y-100390370D01*
X173689870Y-100401580D01*
X173649500Y-100604535D01*
X173649500Y-101061465D01*
X173689870Y-101264420D01*
X173698892Y-101286201D01*
X173760656Y-101435313D01*
X173769059Y-101455598D01*
X173884023Y-101627655D01*
X174030345Y-101773977D01*
X174202402Y-101888941D01*
X174393580Y-101968130D01*
X174596535Y-102008500D01*
X174596538Y-102008500D01*
X174803462Y-102008500D01*
X174803465Y-102008500D01*
X175006420Y-101968130D01*
X175197598Y-101888941D01*
X175369655Y-101773977D01*
X175515977Y-101627655D01*
X175630941Y-101455598D01*
X175710130Y-101264420D01*
X175750500Y-101061465D01*
X175750500Y-100604535D01*
X175746216Y-100582999D01*
X176154293Y-100582999D01*
X176154293Y-100583000D01*
X176795854Y-100583000D01*
X176757370Y-100649657D01*
X176725000Y-100770465D01*
X176725000Y-100895535D01*
X176757370Y-101016343D01*
X176795854Y-101083000D01*
X176154293Y-101083000D01*
X176190350Y-101264275D01*
X176190351Y-101264276D01*
X176269500Y-101455360D01*
X176269501Y-101455362D01*
X176384407Y-101627331D01*
X176530668Y-101773592D01*
X176702637Y-101888498D01*
X176702639Y-101888499D01*
X176893721Y-101967647D01*
X176893727Y-101967649D01*
X176950000Y-101978842D01*
X176950000Y-101237145D01*
X177016657Y-101275630D01*
X177137465Y-101308000D01*
X177262535Y-101308000D01*
X177383343Y-101275630D01*
X177450000Y-101237145D01*
X177450000Y-101978842D01*
X177506272Y-101967649D01*
X177506278Y-101967647D01*
X177697360Y-101888499D01*
X177697362Y-101888498D01*
X177869331Y-101773592D01*
X178015592Y-101627331D01*
X178130498Y-101455362D01*
X178130499Y-101455360D01*
X178209648Y-101264276D01*
X178209649Y-101264275D01*
X178245707Y-101083000D01*
X177604146Y-101083000D01*
X177642630Y-101016343D01*
X177675000Y-100895535D01*
X177675000Y-100770465D01*
X177642630Y-100649657D01*
X177604146Y-100583000D01*
X178245707Y-100583000D01*
X178245706Y-100582999D01*
X178209649Y-100401724D01*
X178209648Y-100401723D01*
X178130499Y-100210639D01*
X178130498Y-100210637D01*
X178025659Y-100053735D01*
X178649500Y-100053735D01*
X178649500Y-101612264D01*
X178652354Y-101642700D01*
X178664146Y-101676398D01*
X178697207Y-101770882D01*
X178697208Y-101770883D01*
X178697208Y-101770884D01*
X178777845Y-101880144D01*
X178777847Y-101880146D01*
X178777850Y-101880150D01*
X178777853Y-101880152D01*
X178777855Y-101880154D01*
X178877949Y-101954026D01*
X178887118Y-101960793D01*
X179015301Y-102005646D01*
X179045734Y-102008500D01*
X179045735Y-102008500D01*
X180354265Y-102008500D01*
X180354266Y-102008500D01*
X180384699Y-102005646D01*
X180512882Y-101960793D01*
X180622150Y-101880150D01*
X180671898Y-101812744D01*
X183538500Y-101812744D01*
X183538500Y-102418256D01*
X183541275Y-102447849D01*
X183541275Y-102447851D01*
X183541276Y-102447854D01*
X183584880Y-102572467D01*
X183584886Y-102572479D01*
X183663284Y-102678705D01*
X183663286Y-102678707D01*
X183663289Y-102678711D01*
X183663292Y-102678713D01*
X183663294Y-102678715D01*
X183769520Y-102757113D01*
X183769522Y-102757114D01*
X183769525Y-102757116D01*
X183769528Y-102757117D01*
X183769532Y-102757119D01*
X183894145Y-102800723D01*
X183894151Y-102800725D01*
X183923744Y-102803500D01*
X183923745Y-102803500D01*
X184504255Y-102803500D01*
X184504256Y-102803500D01*
X184533849Y-102800725D01*
X184646078Y-102761454D01*
X184658467Y-102757119D01*
X184658468Y-102757118D01*
X184658475Y-102757116D01*
X184764711Y-102678711D01*
X184843116Y-102572475D01*
X184846595Y-102562533D01*
X184892113Y-102492791D01*
X184964828Y-102452191D01*
X185010831Y-102446000D01*
X185224233Y-102446000D01*
X185305095Y-102465931D01*
X185367432Y-102521157D01*
X185388468Y-102562529D01*
X185392544Y-102574178D01*
X185392545Y-102574179D01*
X185472070Y-102681930D01*
X185472073Y-102681932D01*
X185579819Y-102761454D01*
X185579820Y-102761454D01*
X185579821Y-102761455D01*
X185706226Y-102805686D01*
X185736232Y-102808499D01*
X185736233Y-102808500D01*
X185736236Y-102808500D01*
X186755767Y-102808500D01*
X186755767Y-102808499D01*
X186785774Y-102805686D01*
X186912179Y-102761455D01*
X187019930Y-102681930D01*
X187099455Y-102574179D01*
X187143686Y-102447774D01*
X187146500Y-102417764D01*
X187146500Y-101823236D01*
X187143686Y-101793226D01*
X187099455Y-101666821D01*
X187093337Y-101658532D01*
X187019932Y-101559073D01*
X187019930Y-101559070D01*
X187010742Y-101552289D01*
X186912180Y-101479545D01*
X186785771Y-101435313D01*
X186755768Y-101432500D01*
X186755764Y-101432500D01*
X185736236Y-101432500D01*
X185736231Y-101432500D01*
X185706228Y-101435313D01*
X185579819Y-101479545D01*
X185472073Y-101559067D01*
X185472067Y-101559073D01*
X185392545Y-101666820D01*
X185392544Y-101666821D01*
X185388468Y-101678471D01*
X185342947Y-101748212D01*
X185270231Y-101788810D01*
X185224233Y-101795000D01*
X185014331Y-101795000D01*
X184933469Y-101775069D01*
X184871132Y-101719843D01*
X184850096Y-101678471D01*
X184843117Y-101658529D01*
X184843116Y-101658525D01*
X184843114Y-101658522D01*
X184843113Y-101658520D01*
X184764715Y-101552294D01*
X184764713Y-101552292D01*
X184764711Y-101552289D01*
X184764707Y-101552286D01*
X184764705Y-101552284D01*
X184658479Y-101473886D01*
X184658467Y-101473880D01*
X184533854Y-101430276D01*
X184533851Y-101430275D01*
X184533849Y-101430275D01*
X184504256Y-101427500D01*
X183923744Y-101427500D01*
X183894151Y-101430275D01*
X183894149Y-101430275D01*
X183894145Y-101430276D01*
X183769532Y-101473880D01*
X183769520Y-101473886D01*
X183663294Y-101552284D01*
X183663284Y-101552294D01*
X183584886Y-101658520D01*
X183584880Y-101658532D01*
X183541276Y-101783145D01*
X183541275Y-101783149D01*
X183541275Y-101783151D01*
X183538500Y-101812744D01*
X180671898Y-101812744D01*
X180702793Y-101770882D01*
X180747646Y-101642699D01*
X180750500Y-101612266D01*
X180750500Y-100540501D01*
X183539000Y-100540501D01*
X183539000Y-100593207D01*
X183541770Y-100622752D01*
X183541771Y-100622759D01*
X183585328Y-100747234D01*
X183585331Y-100747241D01*
X183663641Y-100853348D01*
X183663651Y-100853358D01*
X183769758Y-100931668D01*
X183769765Y-100931671D01*
X183894240Y-100975228D01*
X183894247Y-100975229D01*
X183923792Y-100978000D01*
X183963999Y-100978000D01*
X183964000Y-100977999D01*
X183964000Y-100540501D01*
X184464000Y-100540501D01*
X184464000Y-100977999D01*
X184464001Y-100978000D01*
X184504208Y-100978000D01*
X184533752Y-100975229D01*
X184533759Y-100975228D01*
X184658234Y-100931671D01*
X184658241Y-100931668D01*
X184764348Y-100853358D01*
X184764358Y-100853348D01*
X184842668Y-100747241D01*
X184842671Y-100747234D01*
X184886228Y-100622759D01*
X184886229Y-100622752D01*
X184889000Y-100593207D01*
X184889000Y-100540501D01*
X184888999Y-100540500D01*
X184464001Y-100540500D01*
X184464000Y-100540501D01*
X183964000Y-100540501D01*
X183963999Y-100540500D01*
X183539001Y-100540500D01*
X183539000Y-100540501D01*
X180750500Y-100540501D01*
X180750500Y-100053734D01*
X180747646Y-100023301D01*
X180735221Y-99987792D01*
X183539000Y-99987792D01*
X183539000Y-100040499D01*
X183539001Y-100040500D01*
X183963999Y-100040500D01*
X183964000Y-100040499D01*
X183964000Y-99603001D01*
X184464000Y-99603001D01*
X184464000Y-100040499D01*
X184464001Y-100040500D01*
X184888999Y-100040500D01*
X184889000Y-100040499D01*
X184889000Y-99987792D01*
X184886229Y-99958247D01*
X184886228Y-99958240D01*
X184842671Y-99833765D01*
X184842668Y-99833758D01*
X184764358Y-99727651D01*
X184764348Y-99727641D01*
X184658241Y-99649331D01*
X184658234Y-99649328D01*
X184533759Y-99605771D01*
X184533752Y-99605770D01*
X184504208Y-99603000D01*
X184464001Y-99603000D01*
X184464000Y-99603001D01*
X183964000Y-99603001D01*
X183963999Y-99603000D01*
X183923792Y-99603000D01*
X183894247Y-99605770D01*
X183894240Y-99605771D01*
X183769765Y-99649328D01*
X183769758Y-99649331D01*
X183663651Y-99727641D01*
X183663641Y-99727651D01*
X183585331Y-99833758D01*
X183585328Y-99833765D01*
X183541771Y-99958240D01*
X183541770Y-99958247D01*
X183539000Y-99987792D01*
X180735221Y-99987792D01*
X180702793Y-99895118D01*
X180700509Y-99892023D01*
X180622154Y-99785855D01*
X180622152Y-99785853D01*
X180622150Y-99785850D01*
X180622146Y-99785847D01*
X180622144Y-99785845D01*
X180512884Y-99705208D01*
X180512882Y-99705207D01*
X180413329Y-99670372D01*
X180384700Y-99660354D01*
X180369482Y-99658927D01*
X180354266Y-99657500D01*
X179045734Y-99657500D01*
X179035589Y-99658451D01*
X179015299Y-99660354D01*
X178943089Y-99685622D01*
X178887118Y-99705207D01*
X178887117Y-99705207D01*
X178887116Y-99705208D01*
X178887115Y-99705208D01*
X178777855Y-99785845D01*
X178777845Y-99785855D01*
X178697208Y-99895115D01*
X178697208Y-99895116D01*
X178697207Y-99895118D01*
X178683744Y-99933593D01*
X178652354Y-100023299D01*
X178649500Y-100053735D01*
X178025659Y-100053735D01*
X178015592Y-100038668D01*
X177869331Y-99892407D01*
X177697362Y-99777501D01*
X177697360Y-99777500D01*
X177506274Y-99698350D01*
X177450000Y-99687156D01*
X177450000Y-100428854D01*
X177383343Y-100390370D01*
X177262535Y-100358000D01*
X177137465Y-100358000D01*
X177016657Y-100390370D01*
X176950000Y-100428854D01*
X176950000Y-99687156D01*
X176893725Y-99698350D01*
X176702639Y-99777500D01*
X176702637Y-99777501D01*
X176530668Y-99892407D01*
X176384407Y-100038668D01*
X176269501Y-100210637D01*
X176269500Y-100210639D01*
X176190351Y-100401723D01*
X176190350Y-100401724D01*
X176154293Y-100582999D01*
X175746216Y-100582999D01*
X175710130Y-100401580D01*
X175630941Y-100210402D01*
X175515977Y-100038345D01*
X175369655Y-99892023D01*
X175364381Y-99888499D01*
X175197598Y-99777058D01*
X175197595Y-99777057D01*
X175132913Y-99750265D01*
X175065833Y-99700907D01*
X175029375Y-99626029D01*
X175025500Y-99589510D01*
X175025500Y-98156942D01*
X175045431Y-98076080D01*
X175068366Y-98042575D01*
X175070527Y-98040098D01*
X175129801Y-97972132D01*
X175197970Y-97924292D01*
X175260935Y-97912500D01*
X183240347Y-97912500D01*
X185733147Y-97912500D01*
X198124747Y-97912500D01*
X198210453Y-97912500D01*
X199500500Y-97912500D01*
X199581362Y-97932431D01*
X199643699Y-97987657D01*
X199673231Y-98065527D01*
X199674500Y-98086500D01*
X199674500Y-98775500D01*
X199654569Y-98856362D01*
X199599343Y-98918699D01*
X199521473Y-98948231D01*
X199500500Y-98949500D01*
X199130252Y-98949500D01*
X199095162Y-98956479D01*
X199071767Y-98961133D01*
X199005451Y-99005445D01*
X199005445Y-99005451D01*
X198961133Y-99071767D01*
X198961133Y-99071769D01*
X198949500Y-99130252D01*
X198949500Y-100869748D01*
X198961133Y-100928231D01*
X198961134Y-100928232D01*
X198961133Y-100928232D01*
X199005445Y-100994548D01*
X199005448Y-100994552D01*
X199005451Y-100994554D01*
X199071767Y-101038866D01*
X199071769Y-101038867D01*
X199130252Y-101050500D01*
X200332770Y-101050500D01*
X200413632Y-101070431D01*
X200475969Y-101125657D01*
X200505501Y-101203527D01*
X200495463Y-101286201D01*
X200455808Y-101347534D01*
X200329463Y-101473880D01*
X200217884Y-101585459D01*
X200141224Y-101700189D01*
X200141222Y-101700195D01*
X200088421Y-101827668D01*
X200088420Y-101827671D01*
X200088420Y-101827672D01*
X200073430Y-101903035D01*
X200063287Y-101954026D01*
X200063285Y-101954034D01*
X200061500Y-101963005D01*
X200061500Y-102923521D01*
X200041569Y-103004383D01*
X200022004Y-103033905D01*
X199967863Y-103099875D01*
X199879603Y-103264999D01*
X199825253Y-103444165D01*
X199806901Y-103630498D01*
X199806901Y-103630501D01*
X199825253Y-103816834D01*
X199879602Y-103995998D01*
X199967865Y-104161127D01*
X200086636Y-104305849D01*
X200086643Y-104305857D01*
X200086648Y-104305861D01*
X200086650Y-104305863D01*
X200231372Y-104424634D01*
X200231373Y-104424634D01*
X200231375Y-104424636D01*
X200314820Y-104469238D01*
X200396501Y-104512897D01*
X200575666Y-104567246D01*
X200575669Y-104567247D01*
X200731716Y-104582616D01*
X200761999Y-104585599D01*
X200762000Y-104585599D01*
X200762001Y-104585599D01*
X200784855Y-104583347D01*
X200948331Y-104567247D01*
X201127501Y-104512896D01*
X201292625Y-104424636D01*
X201358593Y-104370496D01*
X201433744Y-104334605D01*
X201468978Y-104331000D01*
X230601490Y-104331000D01*
X230601494Y-104331000D01*
X230736828Y-104304080D01*
X230864311Y-104251275D01*
X230979043Y-104174614D01*
X232244113Y-102909543D01*
X232305873Y-102817114D01*
X232320775Y-102794811D01*
X232357736Y-102705580D01*
X232373580Y-102667329D01*
X232376495Y-102652674D01*
X232380708Y-102631497D01*
X232392108Y-102574180D01*
X232400500Y-102531993D01*
X232400500Y-102123576D01*
X232420431Y-102042714D01*
X232475657Y-101980377D01*
X232501530Y-101967222D01*
X232501353Y-101966886D01*
X232512876Y-101960794D01*
X232512882Y-101960793D01*
X232622150Y-101880150D01*
X232702793Y-101770882D01*
X232747646Y-101642699D01*
X232750500Y-101612266D01*
X232750500Y-100053734D01*
X232747646Y-100023301D01*
X232702793Y-99895118D01*
X232700509Y-99892023D01*
X232622154Y-99785855D01*
X232622152Y-99785853D01*
X232622150Y-99785850D01*
X232622146Y-99785847D01*
X232622144Y-99785845D01*
X232512886Y-99705209D01*
X232501351Y-99699113D01*
X232502407Y-99697113D01*
X232447289Y-99661139D01*
X232406691Y-99588423D01*
X232400500Y-99542423D01*
X232400500Y-96579010D01*
X232400500Y-96579007D01*
X232373580Y-96443672D01*
X232320775Y-96316189D01*
X232244114Y-96201457D01*
X228948543Y-92905886D01*
X228848149Y-92838805D01*
X228833810Y-92829224D01*
X228833804Y-92829222D01*
X228706329Y-92776420D01*
X228672494Y-92769690D01*
X228570994Y-92749500D01*
X228570993Y-92749500D01*
X228570991Y-92749500D01*
X219442916Y-92749500D01*
X219362054Y-92729569D01*
X219299717Y-92674343D01*
X219278680Y-92632969D01*
X219236393Y-92512118D01*
X219234109Y-92509023D01*
X219155754Y-92402855D01*
X219155752Y-92402853D01*
X219155750Y-92402850D01*
X219155746Y-92402847D01*
X219155744Y-92402845D01*
X219046484Y-92322208D01*
X219046482Y-92322207D01*
X218987296Y-92301497D01*
X218918300Y-92277354D01*
X218903082Y-92275927D01*
X218887866Y-92274500D01*
X217579334Y-92274500D01*
X217569189Y-92275451D01*
X217548899Y-92277354D01*
X217472305Y-92304156D01*
X217420718Y-92322207D01*
X217420717Y-92322207D01*
X217420716Y-92322208D01*
X217420715Y-92322208D01*
X217311455Y-92402845D01*
X217311445Y-92402855D01*
X217230808Y-92512115D01*
X217230808Y-92512116D01*
X217185954Y-92640299D01*
X217183100Y-92670735D01*
X217183100Y-94229264D01*
X217185954Y-94259700D01*
X217189943Y-94271099D01*
X217230807Y-94387882D01*
X217230808Y-94387883D01*
X217230808Y-94387884D01*
X217311445Y-94497144D01*
X217311447Y-94497146D01*
X217311450Y-94497150D01*
X217311453Y-94497152D01*
X217311455Y-94497154D01*
X217420715Y-94577791D01*
X217420718Y-94577793D01*
X217548901Y-94622646D01*
X217579334Y-94625500D01*
X217579335Y-94625500D01*
X218887865Y-94625500D01*
X218887866Y-94625500D01*
X218918299Y-94622646D01*
X219046482Y-94577793D01*
X219155750Y-94497150D01*
X219236393Y-94387882D01*
X219278680Y-94267029D01*
X219324199Y-94197290D01*
X219396915Y-94156691D01*
X219442916Y-94150500D01*
X228139769Y-94150500D01*
X228220631Y-94170431D01*
X228262806Y-94201463D01*
X230948537Y-96887194D01*
X230991621Y-96958465D01*
X230999500Y-97010231D01*
X230999500Y-99542423D01*
X230979569Y-99623285D01*
X230924343Y-99685622D01*
X230898471Y-99698776D01*
X230898649Y-99699113D01*
X230887113Y-99705209D01*
X230777855Y-99785845D01*
X230777845Y-99785855D01*
X230697208Y-99895115D01*
X230697208Y-99895116D01*
X230697207Y-99895118D01*
X230683744Y-99933593D01*
X230652354Y-100023299D01*
X230649500Y-100053735D01*
X230649500Y-101612264D01*
X230652354Y-101642700D01*
X230664146Y-101676398D01*
X230697207Y-101770882D01*
X230697208Y-101770883D01*
X230697208Y-101770884D01*
X230777845Y-101880144D01*
X230777847Y-101880146D01*
X230777850Y-101880150D01*
X230777853Y-101880152D01*
X230777855Y-101880154D01*
X230808850Y-101903029D01*
X230887118Y-101960793D01*
X230887122Y-101960794D01*
X230890926Y-101962805D01*
X230896146Y-101967456D01*
X230897609Y-101968536D01*
X230897509Y-101968670D01*
X230953106Y-102018209D01*
X230982416Y-102096163D01*
X230972141Y-102178809D01*
X230932662Y-102239679D01*
X230293306Y-102879036D01*
X230222035Y-102922121D01*
X230170269Y-102930000D01*
X206513926Y-102930000D01*
X206433064Y-102910069D01*
X206370727Y-102854843D01*
X206341195Y-102776973D01*
X206351233Y-102694299D01*
X206373923Y-102652678D01*
X206433116Y-102572475D01*
X206447283Y-102531990D01*
X206472178Y-102460843D01*
X206476725Y-102447849D01*
X206479500Y-102418256D01*
X206479500Y-101812744D01*
X206476725Y-101783151D01*
X206476723Y-101783145D01*
X206433119Y-101658532D01*
X206433117Y-101658528D01*
X206433116Y-101658525D01*
X206433114Y-101658522D01*
X206433113Y-101658520D01*
X206354715Y-101552294D01*
X206354713Y-101552292D01*
X206354711Y-101552289D01*
X206354707Y-101552286D01*
X206354705Y-101552284D01*
X206248479Y-101473886D01*
X206248467Y-101473880D01*
X206123854Y-101430276D01*
X206123851Y-101430275D01*
X206123849Y-101430275D01*
X206094256Y-101427500D01*
X205513744Y-101427500D01*
X205484151Y-101430275D01*
X205484149Y-101430275D01*
X205484145Y-101430276D01*
X205359532Y-101473880D01*
X205359520Y-101473886D01*
X205253294Y-101552284D01*
X205253284Y-101552294D01*
X205174886Y-101658520D01*
X205174882Y-101658529D01*
X205167904Y-101678471D01*
X205122384Y-101748212D01*
X205049667Y-101788810D01*
X205003669Y-101795000D01*
X204793767Y-101795000D01*
X204712905Y-101775069D01*
X204650568Y-101719843D01*
X204629532Y-101678471D01*
X204625455Y-101666821D01*
X204625454Y-101666820D01*
X204625453Y-101666819D01*
X204545930Y-101559070D01*
X204536742Y-101552289D01*
X204438180Y-101479545D01*
X204311771Y-101435313D01*
X204281768Y-101432500D01*
X204281764Y-101432500D01*
X203262236Y-101432500D01*
X203262231Y-101432500D01*
X203232228Y-101435313D01*
X203105819Y-101479545D01*
X202998073Y-101559067D01*
X202998067Y-101559073D01*
X202918545Y-101666819D01*
X202874313Y-101793228D01*
X202871500Y-101823231D01*
X202871500Y-102417768D01*
X202874313Y-102447771D01*
X202918545Y-102574180D01*
X202976478Y-102652674D01*
X203008460Y-102729570D01*
X203001043Y-102812521D01*
X202955927Y-102882523D01*
X202883447Y-102923541D01*
X202836479Y-102930000D01*
X201636500Y-102930000D01*
X201555638Y-102910069D01*
X201493301Y-102854843D01*
X201463769Y-102776973D01*
X201462500Y-102756000D01*
X201462500Y-102394231D01*
X201482431Y-102313369D01*
X201513463Y-102271194D01*
X202787694Y-100996963D01*
X202858965Y-100953879D01*
X202910731Y-100946000D01*
X203840990Y-100946000D01*
X203840993Y-100946000D01*
X203878175Y-100938603D01*
X203887029Y-100936843D01*
X203920973Y-100933500D01*
X204281767Y-100933500D01*
X204281767Y-100933499D01*
X204311774Y-100930686D01*
X204438179Y-100886455D01*
X204545930Y-100806930D01*
X204625455Y-100699179D01*
X204669686Y-100572774D01*
X204672500Y-100542764D01*
X204672500Y-100540501D01*
X205129000Y-100540501D01*
X205129000Y-100593207D01*
X205131770Y-100622752D01*
X205131771Y-100622759D01*
X205175328Y-100747234D01*
X205175331Y-100747241D01*
X205253641Y-100853348D01*
X205253651Y-100853358D01*
X205359758Y-100931668D01*
X205359765Y-100931671D01*
X205484240Y-100975228D01*
X205484247Y-100975229D01*
X205513792Y-100978000D01*
X205553999Y-100978000D01*
X205554000Y-100977999D01*
X205554000Y-100540501D01*
X206054000Y-100540501D01*
X206054000Y-100977999D01*
X206054001Y-100978000D01*
X206094208Y-100978000D01*
X206123752Y-100975229D01*
X206123759Y-100975228D01*
X206248234Y-100931671D01*
X206248241Y-100931668D01*
X206354348Y-100853358D01*
X206354358Y-100853348D01*
X206432668Y-100747241D01*
X206432671Y-100747234D01*
X206476228Y-100622759D01*
X206476229Y-100622752D01*
X206477938Y-100604535D01*
X209149500Y-100604535D01*
X209149500Y-101061465D01*
X209189870Y-101264420D01*
X209198892Y-101286201D01*
X209260656Y-101435313D01*
X209269059Y-101455598D01*
X209384023Y-101627655D01*
X209530345Y-101773977D01*
X209702402Y-101888941D01*
X209893580Y-101968130D01*
X210096535Y-102008500D01*
X210096538Y-102008500D01*
X210303462Y-102008500D01*
X210303465Y-102008500D01*
X210506420Y-101968130D01*
X210697598Y-101888941D01*
X210869655Y-101773977D01*
X211015977Y-101627655D01*
X211130941Y-101455598D01*
X211210130Y-101264420D01*
X211250500Y-101061465D01*
X211250500Y-100604535D01*
X211210130Y-100401580D01*
X211130941Y-100210402D01*
X211015977Y-100038345D01*
X210869655Y-99892023D01*
X210697598Y-99777059D01*
X210697595Y-99777057D01*
X210697594Y-99777057D01*
X210513752Y-99700907D01*
X210506420Y-99697870D01*
X210303465Y-99657500D01*
X210096535Y-99657500D01*
X209897386Y-99697113D01*
X209893580Y-99697870D01*
X209893577Y-99697871D01*
X209702405Y-99777057D01*
X209702402Y-99777059D01*
X209530347Y-99892021D01*
X209384021Y-100038347D01*
X209269059Y-100210402D01*
X209269057Y-100210405D01*
X209194513Y-100390370D01*
X209189870Y-100401580D01*
X209149500Y-100604535D01*
X206477938Y-100604535D01*
X206479000Y-100593207D01*
X206479000Y-100540501D01*
X206478999Y-100540500D01*
X206054001Y-100540500D01*
X206054000Y-100540501D01*
X205554000Y-100540501D01*
X205553999Y-100540500D01*
X205129001Y-100540500D01*
X205129000Y-100540501D01*
X204672500Y-100540501D01*
X204672500Y-99987792D01*
X205129000Y-99987792D01*
X205129000Y-100040499D01*
X205129001Y-100040500D01*
X205553999Y-100040500D01*
X205554000Y-100040499D01*
X205554000Y-99603001D01*
X206054000Y-99603001D01*
X206054000Y-100040499D01*
X206054001Y-100040500D01*
X206478999Y-100040500D01*
X206479000Y-100040499D01*
X206479000Y-99987792D01*
X206476229Y-99958247D01*
X206476228Y-99958240D01*
X206432671Y-99833765D01*
X206432668Y-99833758D01*
X206354358Y-99727651D01*
X206354348Y-99727641D01*
X206248241Y-99649331D01*
X206248234Y-99649328D01*
X206123759Y-99605771D01*
X206123752Y-99605770D01*
X206094208Y-99603000D01*
X206054001Y-99603000D01*
X206054000Y-99603001D01*
X205554000Y-99603001D01*
X205553999Y-99603000D01*
X205513792Y-99603000D01*
X205484247Y-99605770D01*
X205484240Y-99605771D01*
X205359765Y-99649328D01*
X205359758Y-99649331D01*
X205253651Y-99727641D01*
X205253641Y-99727651D01*
X205175331Y-99833758D01*
X205175328Y-99833765D01*
X205131771Y-99958240D01*
X205131770Y-99958247D01*
X205129000Y-99987792D01*
X204672500Y-99987792D01*
X204672500Y-99948236D01*
X204669686Y-99918226D01*
X204625455Y-99791821D01*
X204621048Y-99785850D01*
X204561948Y-99705773D01*
X204545930Y-99684070D01*
X204527370Y-99670372D01*
X204438180Y-99604545D01*
X204311771Y-99560313D01*
X204281768Y-99557500D01*
X204281764Y-99557500D01*
X203920973Y-99557500D01*
X203887029Y-99554157D01*
X203840993Y-99545000D01*
X202617494Y-99545000D01*
X202479507Y-99545000D01*
X202416666Y-99557500D01*
X202344170Y-99571920D01*
X202216695Y-99624722D01*
X202216689Y-99624724D01*
X202101956Y-99701386D01*
X201347536Y-100455806D01*
X201276265Y-100498890D01*
X201193136Y-100503919D01*
X201117191Y-100469739D01*
X201065829Y-100404181D01*
X201050500Y-100332769D01*
X201050500Y-99130255D01*
X201050500Y-99130252D01*
X201038867Y-99071769D01*
X201007461Y-99024768D01*
X200994554Y-99005451D01*
X200994552Y-99005448D01*
X200994548Y-99005445D01*
X200928232Y-98961133D01*
X200913610Y-98958224D01*
X200869748Y-98949500D01*
X200869745Y-98949500D01*
X200499500Y-98949500D01*
X200418638Y-98929569D01*
X200356301Y-98874343D01*
X200326769Y-98796473D01*
X200325500Y-98775500D01*
X200325500Y-98105314D01*
X200345431Y-98024452D01*
X200368364Y-97990949D01*
X200371235Y-97987657D01*
X200384773Y-97972134D01*
X200452942Y-97924293D01*
X200515908Y-97912500D01*
X201735147Y-97912500D01*
X212193197Y-97912500D01*
X212274059Y-97932431D01*
X212325730Y-97973757D01*
X212333034Y-97982344D01*
X212370247Y-98056848D01*
X212374500Y-98095085D01*
X212374500Y-99589510D01*
X212354569Y-99670372D01*
X212299343Y-99732709D01*
X212267087Y-99750265D01*
X212202404Y-99777057D01*
X212202401Y-99777058D01*
X212030347Y-99892021D01*
X211884021Y-100038347D01*
X211769059Y-100210402D01*
X211769057Y-100210405D01*
X211694513Y-100390370D01*
X211689870Y-100401580D01*
X211649500Y-100604535D01*
X211649500Y-101061465D01*
X211689870Y-101264420D01*
X211698892Y-101286201D01*
X211760656Y-101435313D01*
X211769059Y-101455598D01*
X211884023Y-101627655D01*
X212030345Y-101773977D01*
X212202402Y-101888941D01*
X212393580Y-101968130D01*
X212596535Y-102008500D01*
X212596538Y-102008500D01*
X212803462Y-102008500D01*
X212803465Y-102008500D01*
X213006420Y-101968130D01*
X213197598Y-101888941D01*
X213369655Y-101773977D01*
X213515977Y-101627655D01*
X213630941Y-101455598D01*
X213710130Y-101264420D01*
X213750500Y-101061465D01*
X213750500Y-100604535D01*
X213746216Y-100582999D01*
X214154293Y-100582999D01*
X214154293Y-100583000D01*
X214795854Y-100583000D01*
X214757370Y-100649657D01*
X214725000Y-100770465D01*
X214725000Y-100895535D01*
X214757370Y-101016343D01*
X214795854Y-101083000D01*
X214154293Y-101083000D01*
X214190350Y-101264275D01*
X214190351Y-101264276D01*
X214269500Y-101455360D01*
X214269501Y-101455362D01*
X214384407Y-101627331D01*
X214530668Y-101773592D01*
X214702637Y-101888498D01*
X214702639Y-101888499D01*
X214893721Y-101967647D01*
X214893727Y-101967649D01*
X214950000Y-101978842D01*
X214950000Y-101237145D01*
X215016657Y-101275630D01*
X215137465Y-101308000D01*
X215262535Y-101308000D01*
X215383343Y-101275630D01*
X215450000Y-101237145D01*
X215450000Y-101978842D01*
X215506272Y-101967649D01*
X215506278Y-101967647D01*
X215697360Y-101888499D01*
X215697362Y-101888498D01*
X215869331Y-101773592D01*
X216015592Y-101627331D01*
X216130498Y-101455362D01*
X216130499Y-101455360D01*
X216209648Y-101264276D01*
X216209649Y-101264275D01*
X216245707Y-101083000D01*
X215604146Y-101083000D01*
X215642630Y-101016343D01*
X215675000Y-100895535D01*
X215675000Y-100770465D01*
X215642630Y-100649657D01*
X215604146Y-100583000D01*
X216245707Y-100583000D01*
X216245706Y-100582999D01*
X216209649Y-100401724D01*
X216209648Y-100401723D01*
X216130499Y-100210639D01*
X216130498Y-100210637D01*
X216025659Y-100053735D01*
X216649500Y-100053735D01*
X216649500Y-101612264D01*
X216652354Y-101642700D01*
X216664146Y-101676398D01*
X216697207Y-101770882D01*
X216697208Y-101770883D01*
X216697208Y-101770884D01*
X216777845Y-101880144D01*
X216777847Y-101880146D01*
X216777850Y-101880150D01*
X216777853Y-101880152D01*
X216777855Y-101880154D01*
X216877949Y-101954026D01*
X216887118Y-101960793D01*
X217015301Y-102005646D01*
X217045734Y-102008500D01*
X217045735Y-102008500D01*
X218354265Y-102008500D01*
X218354266Y-102008500D01*
X218384699Y-102005646D01*
X218512882Y-101960793D01*
X218622150Y-101880150D01*
X218702793Y-101770882D01*
X218747646Y-101642699D01*
X218750500Y-101612266D01*
X218750500Y-100604535D01*
X223149500Y-100604535D01*
X223149500Y-101061465D01*
X223189870Y-101264420D01*
X223198892Y-101286201D01*
X223260656Y-101435313D01*
X223269059Y-101455598D01*
X223384023Y-101627655D01*
X223530345Y-101773977D01*
X223702402Y-101888941D01*
X223893580Y-101968130D01*
X224096535Y-102008500D01*
X224096538Y-102008500D01*
X224303462Y-102008500D01*
X224303465Y-102008500D01*
X224506420Y-101968130D01*
X224697598Y-101888941D01*
X224869655Y-101773977D01*
X225015977Y-101627655D01*
X225130941Y-101455598D01*
X225210130Y-101264420D01*
X225250500Y-101061465D01*
X225250500Y-100604535D01*
X225210130Y-100401580D01*
X225130941Y-100210402D01*
X225015977Y-100038345D01*
X224869655Y-99892023D01*
X224697598Y-99777059D01*
X224697595Y-99777057D01*
X224697594Y-99777057D01*
X224513752Y-99700907D01*
X224506420Y-99697870D01*
X224303465Y-99657500D01*
X224096535Y-99657500D01*
X223897386Y-99697113D01*
X223893580Y-99697870D01*
X223893577Y-99697871D01*
X223702405Y-99777057D01*
X223702402Y-99777059D01*
X223530347Y-99892021D01*
X223384021Y-100038347D01*
X223269059Y-100210402D01*
X223269057Y-100210405D01*
X223194513Y-100390370D01*
X223189870Y-100401580D01*
X223149500Y-100604535D01*
X218750500Y-100604535D01*
X218750500Y-100053734D01*
X218747646Y-100023301D01*
X218702793Y-99895118D01*
X218700509Y-99892023D01*
X218622154Y-99785855D01*
X218622152Y-99785853D01*
X218622150Y-99785850D01*
X218622146Y-99785847D01*
X218622144Y-99785845D01*
X218512884Y-99705208D01*
X218512882Y-99705207D01*
X218413329Y-99670372D01*
X218384700Y-99660354D01*
X218369482Y-99658927D01*
X218354266Y-99657500D01*
X217045734Y-99657500D01*
X217035589Y-99658451D01*
X217015299Y-99660354D01*
X216943089Y-99685622D01*
X216887118Y-99705207D01*
X216887117Y-99705207D01*
X216887116Y-99705208D01*
X216887115Y-99705208D01*
X216777855Y-99785845D01*
X216777845Y-99785855D01*
X216697208Y-99895115D01*
X216697208Y-99895116D01*
X216697207Y-99895118D01*
X216683744Y-99933593D01*
X216652354Y-100023299D01*
X216649500Y-100053735D01*
X216025659Y-100053735D01*
X216015592Y-100038668D01*
X215869331Y-99892407D01*
X215697362Y-99777501D01*
X215697360Y-99777500D01*
X215506274Y-99698350D01*
X215450000Y-99687156D01*
X215450000Y-100428854D01*
X215383343Y-100390370D01*
X215262535Y-100358000D01*
X215137465Y-100358000D01*
X215016657Y-100390370D01*
X214950000Y-100428854D01*
X214950000Y-99687156D01*
X214893725Y-99698350D01*
X214702639Y-99777500D01*
X214702637Y-99777501D01*
X214530668Y-99892407D01*
X214384407Y-100038668D01*
X214269501Y-100210637D01*
X214269500Y-100210639D01*
X214190351Y-100401723D01*
X214190350Y-100401724D01*
X214154293Y-100582999D01*
X213746216Y-100582999D01*
X213710130Y-100401580D01*
X213630941Y-100210402D01*
X213515977Y-100038345D01*
X213369655Y-99892023D01*
X213364381Y-99888499D01*
X213197598Y-99777058D01*
X213197595Y-99777057D01*
X213132913Y-99750265D01*
X213065833Y-99700907D01*
X213029375Y-99626029D01*
X213025500Y-99589510D01*
X213025500Y-98116030D01*
X213045431Y-98035168D01*
X213068365Y-98001664D01*
X213094119Y-97972134D01*
X213162289Y-97924292D01*
X213225254Y-97912500D01*
X217737147Y-97912500D01*
X225320099Y-97912500D01*
X225400961Y-97932431D01*
X225443136Y-97963463D01*
X226323537Y-98843863D01*
X226366621Y-98915134D01*
X226374500Y-98966900D01*
X226374500Y-99589510D01*
X226354569Y-99670372D01*
X226299343Y-99732709D01*
X226267087Y-99750265D01*
X226202404Y-99777057D01*
X226202401Y-99777058D01*
X226030347Y-99892021D01*
X225884021Y-100038347D01*
X225769059Y-100210402D01*
X225769057Y-100210405D01*
X225694513Y-100390370D01*
X225689870Y-100401580D01*
X225649500Y-100604535D01*
X225649500Y-101061465D01*
X225689870Y-101264420D01*
X225698892Y-101286201D01*
X225760656Y-101435313D01*
X225769059Y-101455598D01*
X225884023Y-101627655D01*
X226030345Y-101773977D01*
X226202402Y-101888941D01*
X226393580Y-101968130D01*
X226596535Y-102008500D01*
X226596538Y-102008500D01*
X226803462Y-102008500D01*
X226803465Y-102008500D01*
X227006420Y-101968130D01*
X227197598Y-101888941D01*
X227369655Y-101773977D01*
X227515977Y-101627655D01*
X227630941Y-101455598D01*
X227710130Y-101264420D01*
X227750500Y-101061465D01*
X227750500Y-100604535D01*
X227746216Y-100582999D01*
X228154293Y-100582999D01*
X228154293Y-100583000D01*
X228795854Y-100583000D01*
X228757370Y-100649657D01*
X228725000Y-100770465D01*
X228725000Y-100895535D01*
X228757370Y-101016343D01*
X228795854Y-101083000D01*
X228154293Y-101083000D01*
X228190350Y-101264275D01*
X228190351Y-101264276D01*
X228269500Y-101455360D01*
X228269501Y-101455362D01*
X228384407Y-101627331D01*
X228530668Y-101773592D01*
X228702637Y-101888498D01*
X228702639Y-101888499D01*
X228893721Y-101967647D01*
X228893727Y-101967649D01*
X228950000Y-101978842D01*
X228950000Y-101237145D01*
X229016657Y-101275630D01*
X229137465Y-101308000D01*
X229262535Y-101308000D01*
X229383343Y-101275630D01*
X229450000Y-101237145D01*
X229450000Y-101978842D01*
X229506272Y-101967649D01*
X229506278Y-101967647D01*
X229697360Y-101888499D01*
X229697362Y-101888498D01*
X229869331Y-101773592D01*
X230015592Y-101627331D01*
X230130498Y-101455362D01*
X230130499Y-101455360D01*
X230209648Y-101264276D01*
X230209649Y-101264275D01*
X230245707Y-101083000D01*
X229604146Y-101083000D01*
X229642630Y-101016343D01*
X229675000Y-100895535D01*
X229675000Y-100770465D01*
X229642630Y-100649657D01*
X229604146Y-100583000D01*
X230245707Y-100583000D01*
X230245706Y-100582999D01*
X230209649Y-100401724D01*
X230209648Y-100401723D01*
X230130499Y-100210639D01*
X230130498Y-100210637D01*
X230015592Y-100038668D01*
X229869331Y-99892407D01*
X229697362Y-99777501D01*
X229697360Y-99777500D01*
X229506274Y-99698350D01*
X229450000Y-99687156D01*
X229450000Y-100428854D01*
X229383343Y-100390370D01*
X229262535Y-100358000D01*
X229137465Y-100358000D01*
X229016657Y-100390370D01*
X228950000Y-100428854D01*
X228950000Y-99687156D01*
X228893725Y-99698350D01*
X228702639Y-99777500D01*
X228702637Y-99777501D01*
X228530668Y-99892407D01*
X228384407Y-100038668D01*
X228269501Y-100210637D01*
X228269500Y-100210639D01*
X228190351Y-100401723D01*
X228190350Y-100401724D01*
X228154293Y-100582999D01*
X227746216Y-100582999D01*
X227710130Y-100401580D01*
X227630941Y-100210402D01*
X227515977Y-100038345D01*
X227369655Y-99892023D01*
X227364381Y-99888499D01*
X227197598Y-99777058D01*
X227197595Y-99777057D01*
X227132913Y-99750265D01*
X227065833Y-99700907D01*
X227029375Y-99626029D01*
X227025500Y-99589510D01*
X227025500Y-98816885D01*
X227025501Y-98816872D01*
X227025501Y-98717149D01*
X227025501Y-98717148D01*
X227003318Y-98634362D01*
X226960465Y-98560138D01*
X226899862Y-98499535D01*
X226899859Y-98499533D01*
X225726862Y-97326535D01*
X225726859Y-97326533D01*
X225726858Y-97326532D01*
X225652637Y-97283680D01*
X225569860Y-97261501D01*
X225569854Y-97261500D01*
X225569853Y-97261500D01*
X225569850Y-97261500D01*
X213813049Y-97261500D01*
X213732187Y-97241569D01*
X213680511Y-97200237D01*
X213600562Y-97106246D01*
X213563352Y-97031739D01*
X213559100Y-96993509D01*
X213559100Y-94693489D01*
X213579031Y-94612627D01*
X213634257Y-94550290D01*
X213666514Y-94532734D01*
X213680372Y-94526993D01*
X213731198Y-94505941D01*
X213903255Y-94390977D01*
X214049577Y-94244655D01*
X214164541Y-94072598D01*
X214243730Y-93881420D01*
X214284100Y-93678465D01*
X214284100Y-93221535D01*
X214279816Y-93199999D01*
X214687893Y-93199999D01*
X214687893Y-93200000D01*
X215329454Y-93200000D01*
X215290970Y-93266657D01*
X215258600Y-93387465D01*
X215258600Y-93512535D01*
X215290970Y-93633343D01*
X215329454Y-93700000D01*
X214687893Y-93700000D01*
X214723950Y-93881275D01*
X214723951Y-93881276D01*
X214803100Y-94072360D01*
X214803101Y-94072362D01*
X214918007Y-94244331D01*
X215064268Y-94390592D01*
X215236237Y-94505498D01*
X215236239Y-94505499D01*
X215427321Y-94584647D01*
X215427327Y-94584649D01*
X215483600Y-94595842D01*
X215483600Y-93854145D01*
X215550257Y-93892630D01*
X215671065Y-93925000D01*
X215796135Y-93925000D01*
X215916943Y-93892630D01*
X215983600Y-93854145D01*
X215983600Y-94595842D01*
X216039872Y-94584649D01*
X216039878Y-94584647D01*
X216230960Y-94505499D01*
X216230962Y-94505498D01*
X216402931Y-94390592D01*
X216549192Y-94244331D01*
X216664098Y-94072362D01*
X216664099Y-94072360D01*
X216743248Y-93881276D01*
X216743249Y-93881275D01*
X216779307Y-93700000D01*
X216137746Y-93700000D01*
X216176230Y-93633343D01*
X216208600Y-93512535D01*
X216208600Y-93387465D01*
X216176230Y-93266657D01*
X216137746Y-93200000D01*
X216779307Y-93200000D01*
X216779306Y-93199999D01*
X216743249Y-93018724D01*
X216743248Y-93018723D01*
X216664099Y-92827639D01*
X216664098Y-92827637D01*
X216549192Y-92655668D01*
X216402931Y-92509407D01*
X216230962Y-92394501D01*
X216230960Y-92394500D01*
X216039874Y-92315350D01*
X215983600Y-92304156D01*
X215983600Y-93045854D01*
X215916943Y-93007370D01*
X215796135Y-92975000D01*
X215671065Y-92975000D01*
X215550257Y-93007370D01*
X215483600Y-93045854D01*
X215483600Y-92304156D01*
X215427325Y-92315350D01*
X215236239Y-92394500D01*
X215236237Y-92394501D01*
X215064268Y-92509407D01*
X214918007Y-92655668D01*
X214803101Y-92827637D01*
X214803100Y-92827639D01*
X214723951Y-93018723D01*
X214723950Y-93018724D01*
X214687893Y-93199999D01*
X214279816Y-93199999D01*
X214243730Y-93018580D01*
X214164541Y-92827402D01*
X214049577Y-92655345D01*
X213903255Y-92509023D01*
X213731198Y-92394059D01*
X213731195Y-92394057D01*
X213731194Y-92394057D01*
X213585255Y-92333607D01*
X213540020Y-92314870D01*
X213337065Y-92274500D01*
X213130135Y-92274500D01*
X212927180Y-92314870D01*
X212927177Y-92314871D01*
X212736005Y-92394057D01*
X212736002Y-92394059D01*
X212563947Y-92509021D01*
X212417621Y-92655347D01*
X212302659Y-92827402D01*
X212302657Y-92827405D01*
X212236799Y-92986400D01*
X212223470Y-93018580D01*
X212183100Y-93221535D01*
X212183100Y-93678465D01*
X212223470Y-93881420D01*
X212302659Y-94072598D01*
X212417623Y-94244655D01*
X212563945Y-94390977D01*
X212736002Y-94505941D01*
X212736007Y-94505943D01*
X212800686Y-94532734D01*
X212867766Y-94582091D01*
X212904224Y-94656969D01*
X212908100Y-94693489D01*
X212908100Y-97037522D01*
X212888169Y-97118384D01*
X212865235Y-97151888D01*
X212821648Y-97201866D01*
X212753479Y-97249708D01*
X212690513Y-97261500D01*
X198735521Y-97261500D01*
X198654659Y-97241569D01*
X198602983Y-97200237D01*
X198563762Y-97154127D01*
X198526552Y-97079620D01*
X198522300Y-97041390D01*
X198522300Y-94693489D01*
X198542231Y-94612627D01*
X198597457Y-94550290D01*
X198629714Y-94532734D01*
X198643572Y-94526993D01*
X198694398Y-94505941D01*
X198866455Y-94390977D01*
X199012777Y-94244655D01*
X199127741Y-94072598D01*
X199206930Y-93881420D01*
X199247300Y-93678465D01*
X199247300Y-93221535D01*
X199243016Y-93199999D01*
X199651093Y-93199999D01*
X199651093Y-93200000D01*
X200292654Y-93200000D01*
X200254170Y-93266657D01*
X200221800Y-93387465D01*
X200221800Y-93512535D01*
X200254170Y-93633343D01*
X200292654Y-93700000D01*
X199651093Y-93700000D01*
X199687150Y-93881275D01*
X199687151Y-93881276D01*
X199766300Y-94072360D01*
X199766301Y-94072362D01*
X199881207Y-94244331D01*
X200027468Y-94390592D01*
X200199437Y-94505498D01*
X200199439Y-94505499D01*
X200390521Y-94584647D01*
X200390527Y-94584649D01*
X200446800Y-94595842D01*
X200446800Y-93854145D01*
X200513457Y-93892630D01*
X200634265Y-93925000D01*
X200759335Y-93925000D01*
X200880143Y-93892630D01*
X200946800Y-93854145D01*
X200946800Y-94595842D01*
X201003072Y-94584649D01*
X201003078Y-94584647D01*
X201194160Y-94505499D01*
X201194162Y-94505498D01*
X201366131Y-94390592D01*
X201512392Y-94244331D01*
X201627298Y-94072362D01*
X201627299Y-94072360D01*
X201706448Y-93881276D01*
X201706449Y-93881275D01*
X201742507Y-93700000D01*
X201100946Y-93700000D01*
X201139430Y-93633343D01*
X201171800Y-93512535D01*
X201171800Y-93387465D01*
X201139430Y-93266657D01*
X201100946Y-93200000D01*
X201742507Y-93200000D01*
X201742506Y-93199999D01*
X201706449Y-93018724D01*
X201706448Y-93018723D01*
X201627299Y-92827639D01*
X201627298Y-92827637D01*
X201522459Y-92670735D01*
X202146300Y-92670735D01*
X202146300Y-94229264D01*
X202149154Y-94259700D01*
X202153143Y-94271099D01*
X202194007Y-94387882D01*
X202194008Y-94387883D01*
X202194008Y-94387884D01*
X202274645Y-94497144D01*
X202274647Y-94497146D01*
X202274650Y-94497150D01*
X202274653Y-94497152D01*
X202274655Y-94497154D01*
X202383915Y-94577791D01*
X202383918Y-94577793D01*
X202512101Y-94622646D01*
X202542534Y-94625500D01*
X202542535Y-94625500D01*
X203851065Y-94625500D01*
X203851066Y-94625500D01*
X203881499Y-94622646D01*
X204009682Y-94577793D01*
X204118950Y-94497150D01*
X204199593Y-94387882D01*
X204244446Y-94259699D01*
X204247300Y-94229266D01*
X204247300Y-93221535D01*
X209683100Y-93221535D01*
X209683100Y-93678465D01*
X209723470Y-93881420D01*
X209802659Y-94072598D01*
X209917623Y-94244655D01*
X210063945Y-94390977D01*
X210236002Y-94505941D01*
X210427180Y-94585130D01*
X210630135Y-94625500D01*
X210630138Y-94625500D01*
X210837062Y-94625500D01*
X210837065Y-94625500D01*
X211040020Y-94585130D01*
X211231198Y-94505941D01*
X211403255Y-94390977D01*
X211549577Y-94244655D01*
X211664541Y-94072598D01*
X211743730Y-93881420D01*
X211784100Y-93678465D01*
X211784100Y-93221535D01*
X211743730Y-93018580D01*
X211664541Y-92827402D01*
X211549577Y-92655345D01*
X211403255Y-92509023D01*
X211231198Y-92394059D01*
X211231195Y-92394057D01*
X211231194Y-92394057D01*
X211085255Y-92333607D01*
X211040020Y-92314870D01*
X210837065Y-92274500D01*
X210630135Y-92274500D01*
X210427180Y-92314870D01*
X210427177Y-92314871D01*
X210236005Y-92394057D01*
X210236002Y-92394059D01*
X210063947Y-92509021D01*
X209917621Y-92655347D01*
X209802659Y-92827402D01*
X209802657Y-92827405D01*
X209736799Y-92986400D01*
X209723470Y-93018580D01*
X209683100Y-93221535D01*
X204247300Y-93221535D01*
X204247300Y-92670734D01*
X204244446Y-92640301D01*
X204199593Y-92512118D01*
X204197309Y-92509023D01*
X204118954Y-92402855D01*
X204118952Y-92402853D01*
X204118950Y-92402850D01*
X204118946Y-92402847D01*
X204118944Y-92402845D01*
X204009684Y-92322208D01*
X204009682Y-92322207D01*
X203950496Y-92301497D01*
X203881500Y-92277354D01*
X203866282Y-92275927D01*
X203851066Y-92274500D01*
X202542534Y-92274500D01*
X202532389Y-92275451D01*
X202512099Y-92277354D01*
X202435505Y-92304156D01*
X202383918Y-92322207D01*
X202383917Y-92322207D01*
X202383916Y-92322208D01*
X202383915Y-92322208D01*
X202274655Y-92402845D01*
X202274645Y-92402855D01*
X202194008Y-92512115D01*
X202194008Y-92512116D01*
X202149154Y-92640299D01*
X202146300Y-92670735D01*
X201522459Y-92670735D01*
X201512392Y-92655668D01*
X201366131Y-92509407D01*
X201194162Y-92394501D01*
X201194160Y-92394500D01*
X201003074Y-92315350D01*
X200946800Y-92304156D01*
X200946800Y-93045854D01*
X200880143Y-93007370D01*
X200759335Y-92975000D01*
X200634265Y-92975000D01*
X200513457Y-93007370D01*
X200446800Y-93045854D01*
X200446800Y-92304156D01*
X200390525Y-92315350D01*
X200199439Y-92394500D01*
X200199437Y-92394501D01*
X200027468Y-92509407D01*
X199881207Y-92655668D01*
X199766301Y-92827637D01*
X199766300Y-92827639D01*
X199687151Y-93018723D01*
X199687150Y-93018724D01*
X199651093Y-93199999D01*
X199243016Y-93199999D01*
X199206930Y-93018580D01*
X199127741Y-92827402D01*
X199012777Y-92655345D01*
X198866455Y-92509023D01*
X198694398Y-92394059D01*
X198694395Y-92394057D01*
X198694394Y-92394057D01*
X198548455Y-92333607D01*
X198503220Y-92314870D01*
X198300265Y-92274500D01*
X198093335Y-92274500D01*
X197890380Y-92314870D01*
X197890377Y-92314871D01*
X197699205Y-92394057D01*
X197699202Y-92394059D01*
X197527147Y-92509021D01*
X197380821Y-92655347D01*
X197265859Y-92827402D01*
X197265857Y-92827405D01*
X197199999Y-92986400D01*
X197186670Y-93018580D01*
X197146300Y-93221535D01*
X197146300Y-93678465D01*
X197186670Y-93881420D01*
X197265859Y-94072598D01*
X197380823Y-94244655D01*
X197527145Y-94390977D01*
X197699202Y-94505941D01*
X197699207Y-94505943D01*
X197763886Y-94532734D01*
X197830966Y-94582091D01*
X197867424Y-94656969D01*
X197871300Y-94693489D01*
X197871300Y-96967428D01*
X197851369Y-97048290D01*
X197828435Y-97081794D01*
X197723718Y-97201866D01*
X197655549Y-97249707D01*
X197592583Y-97261500D01*
X183710300Y-97261500D01*
X183629438Y-97241569D01*
X183567101Y-97186343D01*
X183537569Y-97108473D01*
X183536300Y-97087500D01*
X183536300Y-94693489D01*
X183556231Y-94612627D01*
X183611457Y-94550290D01*
X183643714Y-94532734D01*
X183657572Y-94526993D01*
X183708398Y-94505941D01*
X183880455Y-94390977D01*
X184026777Y-94244655D01*
X184141741Y-94072598D01*
X184220930Y-93881420D01*
X184261300Y-93678465D01*
X184261300Y-93221535D01*
X184257016Y-93199999D01*
X184665093Y-93199999D01*
X184665093Y-93200000D01*
X185306654Y-93200000D01*
X185268170Y-93266657D01*
X185235800Y-93387465D01*
X185235800Y-93512535D01*
X185268170Y-93633343D01*
X185306654Y-93700000D01*
X184665093Y-93700000D01*
X184701150Y-93881275D01*
X184701151Y-93881276D01*
X184780300Y-94072360D01*
X184780301Y-94072362D01*
X184895207Y-94244331D01*
X185041468Y-94390592D01*
X185213437Y-94505498D01*
X185213439Y-94505499D01*
X185404521Y-94584647D01*
X185404527Y-94584649D01*
X185460800Y-94595842D01*
X185460800Y-93854145D01*
X185527457Y-93892630D01*
X185648265Y-93925000D01*
X185773335Y-93925000D01*
X185894143Y-93892630D01*
X185960800Y-93854145D01*
X185960800Y-94595842D01*
X186017072Y-94584649D01*
X186017078Y-94584647D01*
X186208160Y-94505499D01*
X186208162Y-94505498D01*
X186380131Y-94390592D01*
X186526392Y-94244331D01*
X186641298Y-94072362D01*
X186641299Y-94072360D01*
X186720448Y-93881276D01*
X186720449Y-93881275D01*
X186756507Y-93700000D01*
X186114946Y-93700000D01*
X186153430Y-93633343D01*
X186185800Y-93512535D01*
X186185800Y-93387465D01*
X186153430Y-93266657D01*
X186114946Y-93200000D01*
X186756507Y-93200000D01*
X186756506Y-93199999D01*
X186720449Y-93018724D01*
X186720448Y-93018723D01*
X186641299Y-92827639D01*
X186641298Y-92827637D01*
X186536459Y-92670735D01*
X187160300Y-92670735D01*
X187160300Y-94229264D01*
X187163154Y-94259700D01*
X187167143Y-94271099D01*
X187208007Y-94387882D01*
X187208008Y-94387883D01*
X187208008Y-94387884D01*
X187288645Y-94497144D01*
X187288647Y-94497146D01*
X187288650Y-94497150D01*
X187288653Y-94497152D01*
X187288655Y-94497154D01*
X187397915Y-94577791D01*
X187397918Y-94577793D01*
X187526101Y-94622646D01*
X187556534Y-94625500D01*
X187556535Y-94625500D01*
X188865065Y-94625500D01*
X188865066Y-94625500D01*
X188895499Y-94622646D01*
X189023682Y-94577793D01*
X189132950Y-94497150D01*
X189213593Y-94387882D01*
X189258446Y-94259699D01*
X189261300Y-94229266D01*
X189261300Y-93221535D01*
X194646300Y-93221535D01*
X194646300Y-93678465D01*
X194686670Y-93881420D01*
X194765859Y-94072598D01*
X194880823Y-94244655D01*
X195027145Y-94390977D01*
X195199202Y-94505941D01*
X195390380Y-94585130D01*
X195593335Y-94625500D01*
X195593338Y-94625500D01*
X195800262Y-94625500D01*
X195800265Y-94625500D01*
X196003220Y-94585130D01*
X196194398Y-94505941D01*
X196366455Y-94390977D01*
X196512777Y-94244655D01*
X196627741Y-94072598D01*
X196706930Y-93881420D01*
X196747300Y-93678465D01*
X196747300Y-93221535D01*
X196706930Y-93018580D01*
X196627741Y-92827402D01*
X196512777Y-92655345D01*
X196366455Y-92509023D01*
X196194398Y-92394059D01*
X196194395Y-92394057D01*
X196194394Y-92394057D01*
X196048455Y-92333607D01*
X196003220Y-92314870D01*
X195800265Y-92274500D01*
X195593335Y-92274500D01*
X195390380Y-92314870D01*
X195390377Y-92314871D01*
X195199205Y-92394057D01*
X195199202Y-92394059D01*
X195027147Y-92509021D01*
X194880821Y-92655347D01*
X194765859Y-92827402D01*
X194765857Y-92827405D01*
X194699999Y-92986400D01*
X194686670Y-93018580D01*
X194646300Y-93221535D01*
X189261300Y-93221535D01*
X189261300Y-92670734D01*
X189258446Y-92640301D01*
X189213593Y-92512118D01*
X189211309Y-92509023D01*
X189132954Y-92402855D01*
X189132952Y-92402853D01*
X189132950Y-92402850D01*
X189132946Y-92402847D01*
X189132944Y-92402845D01*
X189023684Y-92322208D01*
X189023682Y-92322207D01*
X188964496Y-92301497D01*
X188895500Y-92277354D01*
X188880282Y-92275927D01*
X188865066Y-92274500D01*
X187556534Y-92274500D01*
X187546389Y-92275451D01*
X187526099Y-92277354D01*
X187449505Y-92304156D01*
X187397918Y-92322207D01*
X187397917Y-92322207D01*
X187397916Y-92322208D01*
X187397915Y-92322208D01*
X187288655Y-92402845D01*
X187288645Y-92402855D01*
X187208008Y-92512115D01*
X187208008Y-92512116D01*
X187163154Y-92640299D01*
X187160300Y-92670735D01*
X186536459Y-92670735D01*
X186526392Y-92655668D01*
X186380131Y-92509407D01*
X186208162Y-92394501D01*
X186208160Y-92394500D01*
X186017074Y-92315350D01*
X185960800Y-92304156D01*
X185960800Y-93045854D01*
X185894143Y-93007370D01*
X185773335Y-92975000D01*
X185648265Y-92975000D01*
X185527457Y-93007370D01*
X185460800Y-93045854D01*
X185460800Y-92304156D01*
X185404525Y-92315350D01*
X185213439Y-92394500D01*
X185213437Y-92394501D01*
X185041468Y-92509407D01*
X184895207Y-92655668D01*
X184780301Y-92827637D01*
X184780300Y-92827639D01*
X184701151Y-93018723D01*
X184701150Y-93018724D01*
X184665093Y-93199999D01*
X184257016Y-93199999D01*
X184220930Y-93018580D01*
X184141741Y-92827402D01*
X184026777Y-92655345D01*
X183880455Y-92509023D01*
X183708398Y-92394059D01*
X183708395Y-92394057D01*
X183708394Y-92394057D01*
X183562455Y-92333607D01*
X183517220Y-92314870D01*
X183314265Y-92274500D01*
X183107335Y-92274500D01*
X182904380Y-92314870D01*
X182904377Y-92314871D01*
X182713205Y-92394057D01*
X182713202Y-92394059D01*
X182541147Y-92509021D01*
X182394821Y-92655347D01*
X182279859Y-92827402D01*
X182279857Y-92827405D01*
X182213999Y-92986400D01*
X182200670Y-93018580D01*
X182160300Y-93221535D01*
X182160300Y-93678465D01*
X182200670Y-93881420D01*
X182279859Y-94072598D01*
X182394823Y-94244655D01*
X182541145Y-94390977D01*
X182713202Y-94505941D01*
X182713207Y-94505943D01*
X182777886Y-94532734D01*
X182844966Y-94582091D01*
X182881424Y-94656969D01*
X182885300Y-94693489D01*
X182885300Y-97018611D01*
X182865369Y-97099473D01*
X182842435Y-97132977D01*
X182782355Y-97201866D01*
X182714185Y-97249708D01*
X182651220Y-97261500D01*
X174780531Y-97261500D01*
X174780515Y-97261499D01*
X174769853Y-97261499D01*
X174684147Y-97261499D01*
X174673485Y-97261499D01*
X174673469Y-97261500D01*
X168803516Y-97261500D01*
X168722654Y-97241569D01*
X168670978Y-97200237D01*
X168591762Y-97107108D01*
X168554552Y-97032602D01*
X168550300Y-96994371D01*
X168550300Y-94704889D01*
X168570231Y-94624027D01*
X168625457Y-94561690D01*
X168657714Y-94544134D01*
X168685236Y-94532734D01*
X168722398Y-94517341D01*
X168894455Y-94402377D01*
X169040777Y-94256055D01*
X169155741Y-94083998D01*
X169234930Y-93892820D01*
X169275300Y-93689865D01*
X169275300Y-93232935D01*
X169271016Y-93211399D01*
X169679093Y-93211399D01*
X169679093Y-93211400D01*
X170320654Y-93211400D01*
X170282170Y-93278057D01*
X170249800Y-93398865D01*
X170249800Y-93523935D01*
X170282170Y-93644743D01*
X170320654Y-93711400D01*
X169679093Y-93711400D01*
X169715150Y-93892675D01*
X169715151Y-93892676D01*
X169794300Y-94083760D01*
X169794301Y-94083762D01*
X169909207Y-94255731D01*
X170055468Y-94401992D01*
X170227437Y-94516898D01*
X170227439Y-94516899D01*
X170418521Y-94596047D01*
X170418527Y-94596049D01*
X170474800Y-94607242D01*
X170474800Y-93865545D01*
X170541457Y-93904030D01*
X170662265Y-93936400D01*
X170787335Y-93936400D01*
X170908143Y-93904030D01*
X170974800Y-93865545D01*
X170974800Y-94607242D01*
X171031072Y-94596049D01*
X171031078Y-94596047D01*
X171222160Y-94516899D01*
X171222162Y-94516898D01*
X171394131Y-94401992D01*
X171540392Y-94255731D01*
X171655298Y-94083762D01*
X171655299Y-94083760D01*
X171734448Y-93892676D01*
X171734449Y-93892675D01*
X171770507Y-93711400D01*
X171128946Y-93711400D01*
X171167430Y-93644743D01*
X171199800Y-93523935D01*
X171199800Y-93398865D01*
X171167430Y-93278057D01*
X171128946Y-93211400D01*
X171770507Y-93211400D01*
X171770506Y-93211399D01*
X171734449Y-93030124D01*
X171734448Y-93030123D01*
X171655299Y-92839039D01*
X171655298Y-92839037D01*
X171550459Y-92682135D01*
X172174300Y-92682135D01*
X172174300Y-94240664D01*
X172176772Y-94267031D01*
X172177154Y-94271099D01*
X172222007Y-94399282D01*
X172222008Y-94399283D01*
X172222008Y-94399284D01*
X172302645Y-94508544D01*
X172302647Y-94508546D01*
X172302650Y-94508550D01*
X172302653Y-94508552D01*
X172302655Y-94508554D01*
X172411915Y-94589191D01*
X172411918Y-94589193D01*
X172540101Y-94634046D01*
X172570534Y-94636900D01*
X172570535Y-94636900D01*
X173879065Y-94636900D01*
X173879066Y-94636900D01*
X173909499Y-94634046D01*
X174037682Y-94589193D01*
X174146950Y-94508550D01*
X174227593Y-94399282D01*
X174272446Y-94271099D01*
X174275300Y-94240666D01*
X174275300Y-93221535D01*
X179660300Y-93221535D01*
X179660300Y-93678465D01*
X179700670Y-93881420D01*
X179779859Y-94072598D01*
X179894823Y-94244655D01*
X180041145Y-94390977D01*
X180213202Y-94505941D01*
X180404380Y-94585130D01*
X180607335Y-94625500D01*
X180607338Y-94625500D01*
X180814262Y-94625500D01*
X180814265Y-94625500D01*
X181017220Y-94585130D01*
X181208398Y-94505941D01*
X181380455Y-94390977D01*
X181526777Y-94244655D01*
X181641741Y-94072598D01*
X181720930Y-93881420D01*
X181761300Y-93678465D01*
X181761300Y-93221535D01*
X181720930Y-93018580D01*
X181641741Y-92827402D01*
X181526777Y-92655345D01*
X181380455Y-92509023D01*
X181208398Y-92394059D01*
X181208395Y-92394057D01*
X181208394Y-92394057D01*
X181062455Y-92333607D01*
X181017220Y-92314870D01*
X180814265Y-92274500D01*
X180607335Y-92274500D01*
X180404380Y-92314870D01*
X180404377Y-92314871D01*
X180213205Y-92394057D01*
X180213202Y-92394059D01*
X180041147Y-92509021D01*
X179894821Y-92655347D01*
X179779859Y-92827402D01*
X179779857Y-92827405D01*
X179713999Y-92986400D01*
X179700670Y-93018580D01*
X179660300Y-93221535D01*
X174275300Y-93221535D01*
X174275300Y-92682134D01*
X174272446Y-92651701D01*
X174227593Y-92523518D01*
X174225309Y-92520423D01*
X174146954Y-92414255D01*
X174146952Y-92414253D01*
X174146950Y-92414250D01*
X174146946Y-92414247D01*
X174146944Y-92414245D01*
X174037684Y-92333608D01*
X174037682Y-92333607D01*
X173953516Y-92304156D01*
X173909500Y-92288754D01*
X173894282Y-92287327D01*
X173879066Y-92285900D01*
X172570534Y-92285900D01*
X172560389Y-92286851D01*
X172540099Y-92288754D01*
X172463505Y-92315556D01*
X172411918Y-92333607D01*
X172411917Y-92333607D01*
X172411916Y-92333608D01*
X172411915Y-92333608D01*
X172302655Y-92414245D01*
X172302645Y-92414255D01*
X172222008Y-92523515D01*
X172222008Y-92523516D01*
X172177154Y-92651699D01*
X172174300Y-92682135D01*
X171550459Y-92682135D01*
X171540392Y-92667068D01*
X171394131Y-92520807D01*
X171222162Y-92405901D01*
X171222160Y-92405900D01*
X171031074Y-92326750D01*
X170974800Y-92315556D01*
X170974800Y-93057254D01*
X170908143Y-93018770D01*
X170787335Y-92986400D01*
X170662265Y-92986400D01*
X170541457Y-93018770D01*
X170474800Y-93057254D01*
X170474800Y-92315556D01*
X170418525Y-92326750D01*
X170227439Y-92405900D01*
X170227437Y-92405901D01*
X170055468Y-92520807D01*
X169909207Y-92667068D01*
X169794301Y-92839037D01*
X169794300Y-92839039D01*
X169715151Y-93030123D01*
X169715150Y-93030124D01*
X169679093Y-93211399D01*
X169271016Y-93211399D01*
X169234930Y-93029980D01*
X169155741Y-92838802D01*
X169040777Y-92666745D01*
X168894455Y-92520423D01*
X168722398Y-92405459D01*
X168722395Y-92405457D01*
X168722394Y-92405457D01*
X168548933Y-92333607D01*
X168531220Y-92326270D01*
X168328265Y-92285900D01*
X168121335Y-92285900D01*
X167938806Y-92322207D01*
X167918380Y-92326270D01*
X167918377Y-92326271D01*
X167727205Y-92405457D01*
X167727202Y-92405459D01*
X167555147Y-92520421D01*
X167408821Y-92666747D01*
X167293859Y-92838802D01*
X167293857Y-92838805D01*
X167224035Y-93007370D01*
X167214670Y-93029980D01*
X167174300Y-93232935D01*
X167174300Y-93689865D01*
X167214670Y-93892820D01*
X167232722Y-93936400D01*
X167289136Y-94072597D01*
X167293859Y-94083998D01*
X167408823Y-94256055D01*
X167555145Y-94402377D01*
X167727202Y-94517341D01*
X167727207Y-94517343D01*
X167791886Y-94544134D01*
X167858966Y-94593491D01*
X167895424Y-94668369D01*
X167899300Y-94704889D01*
X167899300Y-97038380D01*
X167879369Y-97119242D01*
X167856435Y-97152746D01*
X167813596Y-97201866D01*
X167745426Y-97249708D01*
X167682461Y-97261500D01*
X162207531Y-97261500D01*
X162207515Y-97261499D01*
X162196853Y-97261499D01*
X162111148Y-97261499D01*
X162111147Y-97261499D01*
X162028360Y-97283682D01*
X162028358Y-97283683D01*
X161954142Y-97326532D01*
X161954133Y-97326539D01*
X161893534Y-97387137D01*
X161893535Y-97387138D01*
X160439534Y-98841139D01*
X160439530Y-98841144D01*
X160396682Y-98915359D01*
X160390753Y-98937488D01*
X160390753Y-98937490D01*
X160374500Y-98998144D01*
X160374500Y-99589510D01*
X160354569Y-99670372D01*
X160299343Y-99732709D01*
X160267087Y-99750265D01*
X160202404Y-99777057D01*
X160202401Y-99777058D01*
X160030347Y-99892021D01*
X159884021Y-100038347D01*
X159769059Y-100210402D01*
X159769057Y-100210405D01*
X159694513Y-100390370D01*
X159689870Y-100401580D01*
X159649500Y-100604535D01*
X159250500Y-100604535D01*
X159210130Y-100401580D01*
X159130941Y-100210402D01*
X159015977Y-100038345D01*
X158869655Y-99892023D01*
X158697598Y-99777059D01*
X158697595Y-99777057D01*
X158697594Y-99777057D01*
X158513752Y-99700907D01*
X158506420Y-99697870D01*
X158303465Y-99657500D01*
X158096535Y-99657500D01*
X157897386Y-99697113D01*
X157893580Y-99697870D01*
X157893577Y-99697871D01*
X157702405Y-99777057D01*
X157702402Y-99777059D01*
X157530347Y-99892021D01*
X157384021Y-100038347D01*
X157269059Y-100210402D01*
X157269057Y-100210405D01*
X157194513Y-100390370D01*
X157189870Y-100401580D01*
X157149500Y-100604535D01*
X154950000Y-100604535D01*
X154950000Y-93232935D01*
X164674300Y-93232935D01*
X164674300Y-93689865D01*
X164714670Y-93892820D01*
X164732722Y-93936400D01*
X164789136Y-94072597D01*
X164793859Y-94083998D01*
X164908823Y-94256055D01*
X165055145Y-94402377D01*
X165227202Y-94517341D01*
X165418380Y-94596530D01*
X165621335Y-94636900D01*
X165621338Y-94636900D01*
X165828262Y-94636900D01*
X165828265Y-94636900D01*
X166031220Y-94596530D01*
X166222398Y-94517341D01*
X166394455Y-94402377D01*
X166540777Y-94256055D01*
X166655741Y-94083998D01*
X166734930Y-93892820D01*
X166775300Y-93689865D01*
X166775300Y-93232935D01*
X166734930Y-93029980D01*
X166655741Y-92838802D01*
X166540777Y-92666745D01*
X166394455Y-92520423D01*
X166222398Y-92405459D01*
X166222395Y-92405457D01*
X166222394Y-92405457D01*
X166048933Y-92333607D01*
X166031220Y-92326270D01*
X165828265Y-92285900D01*
X165621335Y-92285900D01*
X165438806Y-92322207D01*
X165418380Y-92326270D01*
X165418377Y-92326271D01*
X165227205Y-92405457D01*
X165227202Y-92405459D01*
X165055147Y-92520421D01*
X164908821Y-92666747D01*
X164793859Y-92838802D01*
X164793857Y-92838805D01*
X164724035Y-93007370D01*
X164714670Y-93029980D01*
X164674300Y-93232935D01*
X154950000Y-93232935D01*
X154950000Y-87975000D01*
X155544506Y-87975000D01*
X155564468Y-88343187D01*
X155564469Y-88343197D01*
X155624124Y-88707078D01*
X155624126Y-88707087D01*
X155722773Y-89062379D01*
X155859257Y-89404930D01*
X156031978Y-89730716D01*
X156194969Y-89971109D01*
X156238907Y-90035913D01*
X156238921Y-90035931D01*
X156477622Y-90316951D01*
X156477626Y-90316956D01*
X156745332Y-90570540D01*
X157038872Y-90793684D01*
X157038882Y-90793691D01*
X157354834Y-90983793D01*
X157354838Y-90983795D01*
X157689497Y-91138625D01*
X158038934Y-91256364D01*
X158399052Y-91335632D01*
X158657755Y-91363767D01*
X158765627Y-91375500D01*
X158765630Y-91375500D01*
X159134373Y-91375500D01*
X159232608Y-91364815D01*
X159500948Y-91335632D01*
X159861066Y-91256364D01*
X160210503Y-91138625D01*
X160545162Y-90983795D01*
X160861119Y-90793690D01*
X161154670Y-90570538D01*
X161422373Y-90316956D01*
X161661090Y-90035917D01*
X161868022Y-89730716D01*
X162040743Y-89404930D01*
X162177227Y-89062379D01*
X162275875Y-88707081D01*
X162335531Y-88343199D01*
X162355494Y-87975000D01*
X227544506Y-87975000D01*
X227564468Y-88343187D01*
X227564469Y-88343197D01*
X227624124Y-88707078D01*
X227624126Y-88707087D01*
X227722773Y-89062379D01*
X227859257Y-89404930D01*
X228031978Y-89730716D01*
X228194969Y-89971109D01*
X228238907Y-90035913D01*
X228238921Y-90035931D01*
X228477622Y-90316951D01*
X228477626Y-90316956D01*
X228745332Y-90570540D01*
X229038872Y-90793684D01*
X229038882Y-90793691D01*
X229354834Y-90983793D01*
X229354838Y-90983795D01*
X229689497Y-91138625D01*
X230038934Y-91256364D01*
X230399052Y-91335632D01*
X230657755Y-91363767D01*
X230765627Y-91375500D01*
X230765630Y-91375500D01*
X231134373Y-91375500D01*
X231232608Y-91364815D01*
X231500948Y-91335632D01*
X231861066Y-91256364D01*
X232210503Y-91138625D01*
X232545162Y-90983795D01*
X232861119Y-90793690D01*
X233154670Y-90570538D01*
X233422373Y-90316956D01*
X233661090Y-90035917D01*
X233868022Y-89730716D01*
X234040743Y-89404930D01*
X234177227Y-89062379D01*
X234275875Y-88707081D01*
X234335531Y-88343199D01*
X234355494Y-87975000D01*
X234335531Y-87606801D01*
X234275875Y-87242919D01*
X234177227Y-86887621D01*
X234040743Y-86545070D01*
X233868022Y-86219284D01*
X233661090Y-85914083D01*
X233661086Y-85914078D01*
X233661078Y-85914068D01*
X233422377Y-85633048D01*
X233422373Y-85633043D01*
X233154667Y-85379459D01*
X232861127Y-85156315D01*
X232861117Y-85156308D01*
X232545165Y-84966206D01*
X232545161Y-84966204D01*
X232365332Y-84883006D01*
X232210503Y-84811375D01*
X231861066Y-84693636D01*
X231861065Y-84693635D01*
X231861063Y-84693635D01*
X231500949Y-84614368D01*
X231134373Y-84574500D01*
X231134370Y-84574500D01*
X230765630Y-84574500D01*
X230765627Y-84574500D01*
X230399050Y-84614368D01*
X230038936Y-84693635D01*
X229689496Y-84811375D01*
X229354838Y-84966204D01*
X229354834Y-84966206D01*
X229038882Y-85156308D01*
X229038872Y-85156315D01*
X228745332Y-85379459D01*
X228477626Y-85633043D01*
X228477622Y-85633048D01*
X228238921Y-85914068D01*
X228238907Y-85914086D01*
X228031975Y-86219289D01*
X227859259Y-86545065D01*
X227722773Y-86887619D01*
X227624126Y-87242912D01*
X227624124Y-87242921D01*
X227564469Y-87606802D01*
X227564468Y-87606812D01*
X227544506Y-87975000D01*
X162355494Y-87975000D01*
X162335531Y-87606801D01*
X162275875Y-87242919D01*
X162177227Y-86887621D01*
X162040743Y-86545070D01*
X161868022Y-86219284D01*
X161661090Y-85914083D01*
X161661086Y-85914078D01*
X161661078Y-85914068D01*
X161422377Y-85633048D01*
X161422373Y-85633043D01*
X161154667Y-85379459D01*
X160861127Y-85156315D01*
X160861117Y-85156308D01*
X160545165Y-84966206D01*
X160545161Y-84966204D01*
X160365332Y-84883006D01*
X160210503Y-84811375D01*
X159861066Y-84693636D01*
X159861065Y-84693635D01*
X159861063Y-84693635D01*
X159500949Y-84614368D01*
X159134373Y-84574500D01*
X159134370Y-84574500D01*
X158765630Y-84574500D01*
X158765627Y-84574500D01*
X158399050Y-84614368D01*
X158038936Y-84693635D01*
X157689496Y-84811375D01*
X157354838Y-84966204D01*
X157354834Y-84966206D01*
X157038882Y-85156308D01*
X157038872Y-85156315D01*
X156745332Y-85379459D01*
X156477626Y-85633043D01*
X156477622Y-85633048D01*
X156238921Y-85914068D01*
X156238907Y-85914086D01*
X156031975Y-86219289D01*
X155859259Y-86545065D01*
X155722773Y-86887619D01*
X155624126Y-87242912D01*
X155624124Y-87242921D01*
X155564469Y-87606802D01*
X155564468Y-87606812D01*
X155544506Y-87975000D01*
X154950000Y-87975000D01*
X154950000Y-86976226D01*
X154950017Y-86973787D01*
X154952240Y-86815203D01*
X154953317Y-86798160D01*
X154981834Y-86545065D01*
X154988964Y-86481781D01*
X154992230Y-86462563D01*
X155062801Y-86153369D01*
X155068202Y-86134623D01*
X155172950Y-85835269D01*
X155180412Y-85817252D01*
X155318027Y-85531491D01*
X155327461Y-85514424D01*
X155412265Y-85379459D01*
X155496197Y-85245882D01*
X155507470Y-85229993D01*
X155705223Y-84982018D01*
X155718208Y-84967487D01*
X155942487Y-84743208D01*
X155957018Y-84730223D01*
X156204993Y-84532470D01*
X156220882Y-84521197D01*
X156489426Y-84352459D01*
X156506491Y-84343027D01*
X156792252Y-84205412D01*
X156810263Y-84197952D01*
X157013499Y-84126836D01*
X157109623Y-84093202D01*
X157128369Y-84087801D01*
X157437563Y-84017230D01*
X157456781Y-84013964D01*
X157773165Y-83978316D01*
X157790199Y-83977240D01*
X157948787Y-83975016D01*
X157951226Y-83975000D01*
X231948774Y-83975000D01*
X231951212Y-83975016D01*
G37*
%TD.AperFunction*%
%TD*%
M02*
