%TF.GenerationSoftware,KiCad,Pcbnew,8.0.2*%
%TF.CreationDate,2024-05-30T14:14:33+02:00*%
%TF.ProjectId,Sensors_expansion_board,53656e73-6f72-4735-9f65-7870616e7369,1.0*%
%TF.SameCoordinates,Original*%
%TF.FileFunction,Soldermask,Top*%
%TF.FilePolarity,Negative*%
%FSLAX46Y46*%
G04 Gerber Fmt 4.6, Leading zero omitted, Abs format (unit mm)*
G04 Created by KiCad (PCBNEW 8.0.2) date 2024-05-30 14:14:33*
%MOMM*%
%LPD*%
G01*
G04 APERTURE LIST*
G04 Aperture macros list*
%AMRoundRect*
0 Rectangle with rounded corners*
0 $1 Rounding radius*
0 $2 $3 $4 $5 $6 $7 $8 $9 X,Y pos of 4 corners*
0 Add a 4 corners polygon primitive as box body*
4,1,4,$2,$3,$4,$5,$6,$7,$8,$9,$2,$3,0*
0 Add four circle primitives for the rounded corners*
1,1,$1+$1,$2,$3*
1,1,$1+$1,$4,$5*
1,1,$1+$1,$6,$7*
1,1,$1+$1,$8,$9*
0 Add four rect primitives between the rounded corners*
20,1,$1+$1,$2,$3,$4,$5,0*
20,1,$1+$1,$4,$5,$6,$7,0*
20,1,$1+$1,$6,$7,$8,$9,0*
20,1,$1+$1,$8,$9,$2,$3,0*%
G04 Aperture macros list end*
%ADD10RoundRect,0.250000X0.600000X0.725000X-0.600000X0.725000X-0.600000X-0.725000X0.600000X-0.725000X0*%
%ADD11O,1.700000X1.950000*%
%ADD12C,0.800000*%
%ADD13C,6.400000*%
%ADD14RoundRect,0.243750X0.456250X-0.243750X0.456250X0.243750X-0.456250X0.243750X-0.456250X-0.243750X0*%
%ADD15RoundRect,0.225000X-0.225000X-0.250000X0.225000X-0.250000X0.225000X0.250000X-0.225000X0.250000X0*%
%ADD16RoundRect,0.237500X-0.237500X0.250000X-0.237500X-0.250000X0.237500X-0.250000X0.237500X0.250000X0*%
%ADD17R,1.700000X1.700000*%
%ADD18O,1.700000X1.700000*%
G04 APERTURE END LIST*
D10*
%TO.C,J6*%
X203196800Y-93450000D03*
D11*
X200696800Y-93450000D03*
X198196800Y-93450000D03*
X195696800Y-93450000D03*
%TD*%
D10*
%TO.C,J7*%
X217700000Y-100833000D03*
D11*
X215200000Y-100833000D03*
X212700000Y-100833000D03*
X210200000Y-100833000D03*
%TD*%
D10*
%TO.C,J9*%
X231700000Y-100833000D03*
D11*
X229200000Y-100833000D03*
X226700000Y-100833000D03*
X224200000Y-100833000D03*
%TD*%
D10*
%TO.C,J8*%
X218233600Y-93450000D03*
D11*
X215733600Y-93450000D03*
X213233600Y-93450000D03*
X210733600Y-93450000D03*
%TD*%
D12*
%TO.C,H2*%
X228550000Y-87975000D03*
X229252944Y-86277944D03*
X229252944Y-89672056D03*
X230950000Y-85575000D03*
D13*
X230950000Y-87975000D03*
D12*
X230950000Y-90375000D03*
X232647056Y-86277944D03*
X232647056Y-89672056D03*
X233350000Y-87975000D03*
%TD*%
D14*
%TO.C,D2*%
X186246000Y-102120500D03*
X186246000Y-100245500D03*
%TD*%
D15*
%TO.C,C9*%
X194907000Y-102286000D03*
X196457000Y-102286000D03*
%TD*%
D10*
%TO.C,J1*%
X173224800Y-93461400D03*
D11*
X170724800Y-93461400D03*
X168224800Y-93461400D03*
X165724800Y-93461400D03*
%TD*%
D14*
%TO.C,D1*%
X203772000Y-102120500D03*
X203772000Y-100245500D03*
%TD*%
D15*
%TO.C,C10*%
X194907000Y-103810000D03*
X196457000Y-103810000D03*
%TD*%
D10*
%TO.C,J2*%
X165700000Y-100833000D03*
D11*
X163200000Y-100833000D03*
X160700000Y-100833000D03*
X158200000Y-100833000D03*
%TD*%
D16*
%TO.C,R2*%
X184214000Y-100290500D03*
X184214000Y-102115500D03*
%TD*%
D15*
%TO.C,C6*%
X189827000Y-102286000D03*
X191377000Y-102286000D03*
%TD*%
D10*
%TO.C,J4*%
X188210800Y-93450000D03*
D11*
X185710800Y-93450000D03*
X183210800Y-93450000D03*
X180710800Y-93450000D03*
%TD*%
D10*
%TO.C,J5*%
X179700000Y-100833000D03*
D11*
X177200000Y-100833000D03*
X174700000Y-100833000D03*
X172200000Y-100833000D03*
%TD*%
D12*
%TO.C,H1*%
X156550000Y-87975000D03*
X157252944Y-86277944D03*
X157252944Y-89672056D03*
X158950000Y-85575000D03*
D13*
X158950000Y-87975000D03*
D12*
X158950000Y-90375000D03*
X160647056Y-86277944D03*
X160647056Y-89672056D03*
X161350000Y-87975000D03*
%TD*%
D15*
%TO.C,C8*%
X189827000Y-103810000D03*
X191377000Y-103810000D03*
%TD*%
D16*
%TO.C,R1*%
X205804000Y-100290500D03*
X205804000Y-102115500D03*
%TD*%
D17*
%TO.C,J3*%
X200000000Y-100000000D03*
D18*
X197460000Y-100000000D03*
X194920000Y-100000000D03*
X192380000Y-100000000D03*
X189840000Y-100000000D03*
%TD*%
M02*
