%TF.GenerationSoftware,KiCad,Pcbnew,8.0.2*%
%TF.CreationDate,2024-05-30T14:14:35+02:00*%
%TF.ProjectId,Sensors_expansion_board,53656e73-6f72-4735-9f65-7870616e7369,1.0*%
%TF.SameCoordinates,Original*%
%TF.FileFunction,Drillmap*%
%TF.FilePolarity,Positive*%
%FSLAX45Y45*%
G04 Gerber Fmt 4.5, Leading zero omitted, Abs format (unit mm)*
G04 Created by KiCad (PCBNEW 8.0.2) date 2024-05-30 14:14:35*
%MOMM*%
%LPD*%
G01*
G04 APERTURE LIST*
%ADD10C,0.100000*%
%ADD11C,0.200000*%
G04 APERTURE END LIST*
D10*
X15495000Y-8697500D02*
G75*
G02*
X15795000Y-8397500I300000J0D01*
G01*
X15495000Y-10297500D02*
X15495000Y-10197500D01*
X19495000Y-10597500D02*
X23195000Y-10597500D01*
X15795000Y-10597500D02*
G75*
G02*
X15495000Y-10297500I0J300000D01*
G01*
X23495000Y-10297500D02*
X23495000Y-10197500D01*
X23495000Y-8697500D02*
X23495000Y-10197500D01*
X23495000Y-10297500D02*
G75*
G02*
X23195000Y-10597500I-300000J0D01*
G01*
X23195000Y-8397500D02*
G75*
G02*
X23495000Y-8697500I0J-300000D01*
G01*
X15495000Y-8697500D02*
X15495000Y-10197500D01*
X23195000Y-8397500D02*
X15795000Y-8397500D01*
X19495000Y-10597500D02*
X15795000Y-10597500D01*
D11*
X15750777Y-10913984D02*
X15750777Y-10713984D01*
X15750777Y-10713984D02*
X15798396Y-10713984D01*
X15798396Y-10713984D02*
X15826967Y-10723508D01*
X15826967Y-10723508D02*
X15846015Y-10742555D01*
X15846015Y-10742555D02*
X15855539Y-10761603D01*
X15855539Y-10761603D02*
X15865062Y-10799698D01*
X15865062Y-10799698D02*
X15865062Y-10828270D01*
X15865062Y-10828270D02*
X15855539Y-10866365D01*
X15855539Y-10866365D02*
X15846015Y-10885412D01*
X15846015Y-10885412D02*
X15826967Y-10904460D01*
X15826967Y-10904460D02*
X15798396Y-10913984D01*
X15798396Y-10913984D02*
X15750777Y-10913984D01*
X15950777Y-10913984D02*
X15950777Y-10780650D01*
X15950777Y-10818746D02*
X15960301Y-10799698D01*
X15960301Y-10799698D02*
X15969824Y-10790174D01*
X15969824Y-10790174D02*
X15988872Y-10780650D01*
X15988872Y-10780650D02*
X16007920Y-10780650D01*
X16074586Y-10913984D02*
X16074586Y-10780650D01*
X16074586Y-10713984D02*
X16065062Y-10723508D01*
X16065062Y-10723508D02*
X16074586Y-10733031D01*
X16074586Y-10733031D02*
X16084110Y-10723508D01*
X16084110Y-10723508D02*
X16074586Y-10713984D01*
X16074586Y-10713984D02*
X16074586Y-10733031D01*
X16198396Y-10913984D02*
X16179348Y-10904460D01*
X16179348Y-10904460D02*
X16169824Y-10885412D01*
X16169824Y-10885412D02*
X16169824Y-10713984D01*
X16303158Y-10913984D02*
X16284110Y-10904460D01*
X16284110Y-10904460D02*
X16274586Y-10885412D01*
X16274586Y-10885412D02*
X16274586Y-10713984D01*
X16531729Y-10913984D02*
X16531729Y-10713984D01*
X16531729Y-10713984D02*
X16598396Y-10856841D01*
X16598396Y-10856841D02*
X16665062Y-10713984D01*
X16665062Y-10713984D02*
X16665062Y-10913984D01*
X16846015Y-10913984D02*
X16846015Y-10809222D01*
X16846015Y-10809222D02*
X16836491Y-10790174D01*
X16836491Y-10790174D02*
X16817444Y-10780650D01*
X16817444Y-10780650D02*
X16779348Y-10780650D01*
X16779348Y-10780650D02*
X16760301Y-10790174D01*
X16846015Y-10904460D02*
X16826967Y-10913984D01*
X16826967Y-10913984D02*
X16779348Y-10913984D01*
X16779348Y-10913984D02*
X16760301Y-10904460D01*
X16760301Y-10904460D02*
X16750777Y-10885412D01*
X16750777Y-10885412D02*
X16750777Y-10866365D01*
X16750777Y-10866365D02*
X16760301Y-10847317D01*
X16760301Y-10847317D02*
X16779348Y-10837793D01*
X16779348Y-10837793D02*
X16826967Y-10837793D01*
X16826967Y-10837793D02*
X16846015Y-10828270D01*
X16941253Y-10780650D02*
X16941253Y-10980650D01*
X16941253Y-10790174D02*
X16960301Y-10780650D01*
X16960301Y-10780650D02*
X16998396Y-10780650D01*
X16998396Y-10780650D02*
X17017444Y-10790174D01*
X17017444Y-10790174D02*
X17026967Y-10799698D01*
X17026967Y-10799698D02*
X17036491Y-10818746D01*
X17036491Y-10818746D02*
X17036491Y-10875889D01*
X17036491Y-10875889D02*
X17026967Y-10894936D01*
X17026967Y-10894936D02*
X17017444Y-10904460D01*
X17017444Y-10904460D02*
X16998396Y-10913984D01*
X16998396Y-10913984D02*
X16960301Y-10913984D01*
X16960301Y-10913984D02*
X16941253Y-10904460D01*
X17122205Y-10894936D02*
X17131729Y-10904460D01*
X17131729Y-10904460D02*
X17122205Y-10913984D01*
X17122205Y-10913984D02*
X17112682Y-10904460D01*
X17112682Y-10904460D02*
X17122205Y-10894936D01*
X17122205Y-10894936D02*
X17122205Y-10913984D01*
X17122205Y-10790174D02*
X17131729Y-10799698D01*
X17131729Y-10799698D02*
X17122205Y-10809222D01*
X17122205Y-10809222D02*
X17112682Y-10799698D01*
X17112682Y-10799698D02*
X17122205Y-10790174D01*
X17122205Y-10790174D02*
X17122205Y-10809222D01*
M02*
