%TF.GenerationSoftware,KiCad,Pcbnew,8.0.2*%
%TF.CreationDate,2024-05-30T14:16:54+02:00*%
%TF.ProjectId,Weather_IOT_1.0,57656174-6865-4725-9f49-4f545f312e30,1.0*%
%TF.SameCoordinates,Original*%
%TF.FileFunction,Soldermask,Bot*%
%TF.FilePolarity,Negative*%
%FSLAX46Y46*%
G04 Gerber Fmt 4.6, Leading zero omitted, Abs format (unit mm)*
G04 Created by KiCad (PCBNEW 8.0.2) date 2024-05-30 14:16:54*
%MOMM*%
%LPD*%
G01*
G04 APERTURE LIST*
G04 Aperture macros list*
%AMRoundRect*
0 Rectangle with rounded corners*
0 $1 Rounding radius*
0 $2 $3 $4 $5 $6 $7 $8 $9 X,Y pos of 4 corners*
0 Add a 4 corners polygon primitive as box body*
4,1,4,$2,$3,$4,$5,$6,$7,$8,$9,$2,$3,0*
0 Add four circle primitives for the rounded corners*
1,1,$1+$1,$2,$3*
1,1,$1+$1,$4,$5*
1,1,$1+$1,$6,$7*
1,1,$1+$1,$8,$9*
0 Add four rect primitives between the rounded corners*
20,1,$1+$1,$2,$3,$4,$5,0*
20,1,$1+$1,$4,$5,$6,$7,0*
20,1,$1+$1,$6,$7,$8,$9,0*
20,1,$1+$1,$8,$9,$2,$3,0*%
G04 Aperture macros list end*
%ADD10C,2.300000*%
%ADD11R,1.500000X1.500000*%
%ADD12C,1.500000*%
%ADD13RoundRect,0.250000X0.725000X-0.600000X0.725000X0.600000X-0.725000X0.600000X-0.725000X-0.600000X0*%
%ADD14O,1.950000X1.700000*%
%ADD15C,0.800000*%
%ADD16C,6.400000*%
%ADD17RoundRect,0.250000X-0.750000X0.600000X-0.750000X-0.600000X0.750000X-0.600000X0.750000X0.600000X0*%
%ADD18O,2.000000X1.700000*%
%ADD19RoundRect,0.250000X0.600000X0.725000X-0.600000X0.725000X-0.600000X-0.725000X0.600000X-0.725000X0*%
%ADD20O,1.700000X1.950000*%
%ADD21R,1.700000X1.700000*%
%ADD22O,1.700000X1.700000*%
%ADD23C,1.400000*%
%ADD24C,5.600000*%
%ADD25R,3.000000X3.000000*%
%ADD26C,3.000000*%
G04 APERTURE END LIST*
D10*
%TO.C,J5*%
X106316000Y-83346400D03*
X106316000Y-95346400D03*
D11*
X108616000Y-90876400D03*
D12*
X111156000Y-89856400D03*
X108616000Y-88836400D03*
X111156000Y-87816400D03*
%TD*%
D13*
%TO.C,J13*%
X170246000Y-80500000D03*
D14*
X170246000Y-78000000D03*
X170246000Y-75500000D03*
X170246000Y-73000000D03*
X170246000Y-70500000D03*
%TD*%
D13*
%TO.C,J8*%
X176326800Y-111709200D03*
D14*
X176326800Y-109209200D03*
X176326800Y-106709200D03*
%TD*%
D15*
%TO.C,H4*%
X101600000Y-136000000D03*
X102302944Y-134302944D03*
X102302944Y-137697056D03*
X104000000Y-133600000D03*
D16*
X104000000Y-136000000D03*
D15*
X104000000Y-138400000D03*
X105697056Y-134302944D03*
X105697056Y-137697056D03*
X106400000Y-136000000D03*
%TD*%
D17*
%TO.C,J2*%
X104017000Y-115455000D03*
D18*
X104017000Y-117955000D03*
%TD*%
D19*
%TO.C,J15*%
X118250000Y-69863000D03*
D20*
X115750000Y-69863000D03*
X113250000Y-69863000D03*
X110750000Y-69863000D03*
%TD*%
D15*
%TO.C,H2*%
X173600000Y-64000000D03*
X174302944Y-62302944D03*
X174302944Y-65697056D03*
X176000000Y-61600000D03*
D16*
X176000000Y-64000000D03*
D15*
X176000000Y-66400000D03*
X177697056Y-62302944D03*
X177697056Y-65697056D03*
X178400000Y-64000000D03*
%TD*%
D21*
%TO.C,J16*%
X173088000Y-118229000D03*
D22*
X175628000Y-118229000D03*
X173088000Y-120769000D03*
X175628000Y-120769000D03*
X173088000Y-123309000D03*
X175628000Y-123309000D03*
X173088000Y-125849000D03*
X175628000Y-125849000D03*
X173088000Y-128389000D03*
X175628000Y-128389000D03*
%TD*%
D17*
%TO.C,J4*%
X109760400Y-76016800D03*
D18*
X109760400Y-78516800D03*
%TD*%
D13*
%TO.C,J10*%
X169519600Y-111709200D03*
D14*
X169519600Y-109209200D03*
X169519600Y-106709200D03*
%TD*%
D19*
%TO.C,J14*%
X133250000Y-69863000D03*
D20*
X130750000Y-69863000D03*
X128250000Y-69863000D03*
X125750000Y-69863000D03*
%TD*%
D21*
%TO.C,J7*%
X175260000Y-87376000D03*
D22*
X175260000Y-89916000D03*
X175260000Y-92456000D03*
X175260000Y-94996000D03*
X175260000Y-97536000D03*
X175260000Y-100076000D03*
%TD*%
D23*
%TO.C,U4*%
X135730000Y-110155000D03*
X138270000Y-110155000D03*
X135730000Y-112695000D03*
X138270000Y-112695000D03*
X135730000Y-115235000D03*
X138270000Y-115235000D03*
X135730000Y-117775000D03*
X138270000Y-117775000D03*
X135730000Y-120315000D03*
X138270000Y-120315000D03*
X135730000Y-122855000D03*
X138270000Y-122855000D03*
X135730000Y-125395000D03*
X138270000Y-125395000D03*
X135730000Y-127935000D03*
X138270000Y-127935000D03*
X135730000Y-130475000D03*
X138270000Y-130475000D03*
X135730000Y-133015000D03*
X138270000Y-133015000D03*
X161130000Y-110155000D03*
X163670000Y-110155000D03*
X161130000Y-112695000D03*
X163670000Y-112695000D03*
X161130000Y-115235000D03*
X163670000Y-115235000D03*
X161130000Y-117775000D03*
X163670000Y-117775000D03*
X161130000Y-120315000D03*
X163670000Y-120315000D03*
X161130000Y-122855000D03*
X163670000Y-122855000D03*
X161130000Y-125395000D03*
X163670000Y-125395000D03*
X161130000Y-127935000D03*
X163670000Y-127935000D03*
X161130000Y-130475000D03*
X163670000Y-130475000D03*
X161130000Y-133015000D03*
X163670000Y-133015000D03*
%TD*%
D24*
%TO.C,H5*%
X119000000Y-106000000D03*
%TD*%
D19*
%TO.C,J12*%
X163250000Y-69863000D03*
D20*
X160750000Y-69863000D03*
X158250000Y-69863000D03*
X155750000Y-69863000D03*
%TD*%
D15*
%TO.C,H3*%
X173600000Y-136000000D03*
X174302944Y-134302944D03*
X174302944Y-137697056D03*
X176000000Y-133600000D03*
D16*
X176000000Y-136000000D03*
D15*
X176000000Y-138400000D03*
X177697056Y-134302944D03*
X177697056Y-137697056D03*
X178400000Y-136000000D03*
%TD*%
%TO.C,H1*%
X101600000Y-64000000D03*
X102302944Y-62302944D03*
X102302944Y-65697056D03*
X104000000Y-61600000D03*
D16*
X104000000Y-64000000D03*
D15*
X104000000Y-66400000D03*
X105697056Y-62302944D03*
X105697056Y-65697056D03*
X106400000Y-64000000D03*
%TD*%
D19*
%TO.C,J11*%
X148250000Y-69863000D03*
D20*
X145750000Y-69863000D03*
X143250000Y-69863000D03*
X140750000Y-69863000D03*
%TD*%
D21*
%TO.C,J1*%
X131075000Y-136000000D03*
D22*
X128535000Y-136000000D03*
X125995000Y-136000000D03*
X123455000Y-136000000D03*
X120915000Y-136000000D03*
%TD*%
D21*
%TO.C,JP2*%
X111404400Y-115430000D03*
D22*
X111404400Y-117970000D03*
%TD*%
D10*
%TO.C,J6*%
X106316000Y-98078400D03*
X106316000Y-110078400D03*
D11*
X108616000Y-105608400D03*
D12*
X111156000Y-104588400D03*
X108616000Y-103568400D03*
X111156000Y-102548400D03*
%TD*%
D25*
%TO.C,J3*%
X104127000Y-124198000D03*
D26*
X104127000Y-129278000D03*
%TD*%
D21*
%TO.C,J9*%
X145050000Y-76025000D03*
D22*
X142510000Y-76025000D03*
X139970000Y-76025000D03*
X137430000Y-76025000D03*
X134890000Y-76025000D03*
%TD*%
M02*
