M48
; DRILL file {KiCad 8.0.2} date 2024-05-30T14:16:56+0200
; FORMAT={-:-/ absolute / inch / decimal}
; #@! TF.CreationDate,2024-05-30T14:16:56+02:00
; #@! TF.GenerationSoftware,Kicad,Pcbnew,8.0.2
; #@! TF.FileFunction,Plated,1,2,PTH
FMAT,2
INCH
; #@! TA.AperFunction,Plated,PTH,ViaDrill
T1C0.0079
; #@! TA.AperFunction,Plated,PTH,ComponentDrill
T2C0.0079
; #@! TA.AperFunction,Plated,PTH,ComponentDrill
T3C0.0197
; #@! TA.AperFunction,Plated,PTH,ViaDrill
T4C0.0236
; #@! TA.AperFunction,Plated,PTH,ComponentDrill
T5C0.0315
; #@! TA.AperFunction,Plated,PTH,ComponentDrill
T6C0.0374
; #@! TA.AperFunction,Plated,PTH,ComponentDrill
T7C0.0394
; #@! TA.AperFunction,Plated,PTH,ComponentDrill
T8C0.0598
; #@! TA.AperFunction,Plated,PTH,ComponentDrill
T9C0.1260
%
G90
G05
T1
X3.9503Y-4.4003
X3.9803Y-4.4003
X3.9864Y-3.8046
X4.0103Y-4.4003
X4.0403Y-4.4003
X4.0653Y-2.7903
X4.0653Y-4.2303
X4.0703Y-4.4003
X4.0803Y-3.1753
X4.1003Y-4.4003
X4.1303Y-4.4003
X4.1603Y-4.4003
X4.1903Y-4.4003
X4.2203Y-4.4003
X4.2503Y-4.4003
X4.2753Y-2.6253
X4.2803Y-4.4003
X4.3103Y-4.4003
X4.3403Y-4.4003
X4.3703Y-4.4003
X4.4003Y-4.4003
X4.4153Y-3.9953
X4.4303Y-4.4003
X4.4495Y-5.0357
X4.4505Y-5.3697
X4.4603Y-4.4003
X4.464Y-4.6605
X4.4903Y-4.4003
X4.5003Y-2.5153
X4.5203Y-4.4003
X4.5503Y-4.4003
X4.5714Y-3.2576
X4.5803Y-4.4003
X4.6074Y-3.9096
X4.6195Y-4.7402
X4.6254Y-3.4726
X4.6344Y-3.7436
X4.639Y-4.6255
X4.666Y-4.448
X4.6685Y-5.0317
X4.6805Y-5.3697
X4.7153Y-3.2003
X4.7245Y-4.6297
X4.7603Y-4.5403
X4.7874Y-3.6261
X4.7874Y-3.7261
X4.7903Y-4.6403
X4.7903Y-4.6703
X4.7903Y-4.7003
X4.8003Y-2.9653
X4.8053Y-4.4453
X4.8103Y-4.7203
X4.8303Y-4.7403
X4.8528Y-4.5128
X4.8603Y-4.7403
X4.8653Y-3.3503
X4.8653Y-3.8103
X4.8803Y-3.2903
X4.8803Y-4.2203
X4.8903Y-4.7403
X4.8974Y-3.5056
X4.9103Y-4.2503
X4.9158Y-5.0807
X4.9203Y-4.1803
X4.9503Y-4.2103
X4.9503Y-4.7403
X4.9554Y-4.0236
X4.9745Y-4.925
X4.9803Y-4.7403
X5.0103Y-4.7503
X5.0303Y-4.7703
X5.0353Y-3.2503
X5.0403Y-4.8253
X5.0503Y-4.7903
X5.0653Y-4.2103
X5.074Y-4.8171
X5.0794Y-3.9096
X5.0803Y-3.7403
X5.0803Y-3.8253
X5.0953Y-2.5103
X5.1003Y-4.8403
X5.1203Y-4.8603
X5.1403Y-4.8903
X5.1403Y-4.9203
X5.1403Y-4.9903
X5.1403Y-5.0203
X5.1603Y-3.0253
X5.2053Y-4.2053
X5.2103Y-3.7403
X5.2103Y-3.8253
X5.2303Y-5.0203
X5.2303Y-5.0503
X5.2303Y-5.0803
X5.2303Y-5.1103
X5.2303Y-5.1403
X5.2303Y-5.1703
X5.2503Y-5.2003
X5.2503Y-5.3403
X5.2503Y-5.3703
X5.2503Y-5.4003
X5.2503Y-5.4303
X5.2503Y-5.4603
X5.2503Y-5.4903
X5.2663Y-3.6253
X5.2903Y-4.9153
X5.3053Y-4.0853
X5.3053Y-4.1353
X5.3203Y-3.8403
X5.3603Y-4.0303
X5.3853Y-4.0553
X5.3903Y-4.8903
X5.4103Y-3.2503
X5.4103Y-3.4603
X5.5003Y-4.4203
X5.5023Y-3.9763
X5.5153Y-4.5403
X5.5153Y-4.9353
X5.5743Y-3.8543
X5.6223Y-4.3453
X5.6353Y-4.4783
X5.6603Y-4.7953
X5.6603Y-4.9303
X5.6953Y-2.5153
X5.7103Y-4.4043
X5.7553Y-4.4643
X5.7903Y-3.1953
X5.7903Y-3.7303
X5.8203Y-4.2953
X5.836Y-3.974
X5.8603Y-4.5753
X5.9453Y-4.6653
X5.9453Y-4.8403
X5.9453Y-4.9403
X5.9453Y-5.0703
X5.9453Y-5.2553
X5.9453Y-5.4353
X5.9503Y-3.7903
X6.0243Y-4.3853
X6.0503Y-4.4953
X6.0553Y-3.3953
X6.0903Y-4.3353
X6.1453Y-4.4103
X6.1581Y-3.5703
X6.1703Y-2.9803
X6.1903Y-4.4103
X6.2303Y-4.4103
X6.2431Y-3.572
X6.2703Y-4.4103
X6.2903Y-2.5053
X6.3153Y-3.3303
X6.3703Y-3.5853
X6.5153Y-4.9303
X6.5303Y-4.6853
X6.5553Y-4.7853
X6.5853Y-4.706
X6.6153Y-5.1503
X6.6153Y-5.4453
X6.6503Y-4.7553
X6.6603Y-3.8403
X6.6603Y-4.9453
X6.7153Y-2.5103
X6.739Y-4.4755
X6.854Y-4.4755
X6.9353Y-2.9303
T2
X4.9695Y-4.4634
X4.9695Y-4.5165
X4.9695Y-4.5697
X5.0443Y-4.4634
X5.0443Y-4.5165
X5.0443Y-4.5697
T3
X4.0Y-2.5197
X4.0Y-5.3543
X4.0277Y-2.4529
X4.0277Y-2.5865
X4.0277Y-5.2875
X4.0277Y-5.4211
X4.0945Y-2.4252
X4.0945Y-2.6142
X4.0945Y-5.2598
X4.0945Y-5.4488
X4.1613Y-2.4529
X4.1613Y-2.5865
X4.1613Y-5.2875
X4.1613Y-5.4211
X4.189Y-2.5197
X4.189Y-5.3543
X6.8346Y-2.5197
X6.8346Y-5.3543
X6.8623Y-2.4529
X6.8623Y-2.5865
X6.8623Y-5.2875
X6.8623Y-5.4211
X6.9291Y-2.4252
X6.9291Y-2.6142
X6.9291Y-5.2598
X6.9291Y-5.4488
X6.9959Y-2.4529
X6.9959Y-2.5865
X6.9959Y-5.2875
X6.9959Y-5.4211
X7.0236Y-2.5197
X7.0236Y-5.3543
T4
X4.3945Y-5.1197
X4.3945Y-5.3497
X4.5105Y-4.6955
X4.5205Y-4.8355
X4.8453Y-4.6653
X4.8553Y-4.3774
X5.06Y-5.14
X5.1845Y-4.3647
X6.5053Y-3.2703
T5
X4.2762Y-3.4975
X4.2762Y-3.5778
X4.2762Y-4.0775
X4.2762Y-4.1578
X4.3762Y-3.4573
X4.3762Y-3.5377
X4.3762Y-4.0373
X4.3762Y-4.1177
X5.3437Y-4.3368
X5.3437Y-4.4368
X5.3437Y-4.5368
X5.3437Y-4.6368
X5.3437Y-4.7368
X5.3437Y-4.8368
X5.3437Y-4.9368
X5.3437Y-5.0368
X5.3437Y-5.1368
X5.3437Y-5.2368
X5.4437Y-4.3368
X5.4437Y-4.4368
X5.4437Y-4.5368
X5.4437Y-4.6368
X5.4437Y-4.7368
X5.4437Y-4.8368
X5.4437Y-4.9368
X5.4437Y-5.0368
X5.4437Y-5.1368
X5.4437Y-5.2368
X6.3437Y-4.3368
X6.3437Y-4.4368
X6.3437Y-4.5368
X6.3437Y-4.6368
X6.3437Y-4.7368
X6.3437Y-4.8368
X6.3437Y-4.9368
X6.3437Y-5.0368
X6.3437Y-5.1368
X6.3437Y-5.2368
X6.4437Y-4.3368
X6.4437Y-4.4368
X6.4437Y-4.5368
X6.4437Y-4.6368
X6.4437Y-4.7368
X6.4437Y-4.8368
X6.4437Y-4.9368
X6.4437Y-5.0368
X6.4437Y-5.1368
X6.4437Y-5.2368
T6
X4.3602Y-2.7505
X4.4587Y-2.7505
X4.5571Y-2.7505
X4.6555Y-2.7505
X4.9508Y-2.7505
X5.0492Y-2.7505
X5.1476Y-2.7505
X5.2461Y-2.7505
X5.5413Y-2.7505
X5.6398Y-2.7505
X5.7382Y-2.7505
X5.8366Y-2.7505
X6.1319Y-2.7505
X6.2303Y-2.7505
X6.3287Y-2.7505
X6.4272Y-2.7505
X6.674Y-4.2011
X6.674Y-4.2996
X6.674Y-4.398
X6.7026Y-2.7756
X6.7026Y-2.874
X6.7026Y-2.9724
X6.7026Y-3.0709
X6.7026Y-3.1693
X6.942Y-4.2011
X6.942Y-4.2996
X6.942Y-4.398
T7
X4.0952Y-4.5455
X4.0952Y-4.6439
X4.3213Y-2.9928
X4.3213Y-3.0912
X4.386Y-4.5445
X4.386Y-4.6445
X4.7604Y-5.3543
X4.8604Y-5.3543
X4.9604Y-5.3543
X5.0604Y-5.3543
X5.1604Y-5.3543
X5.3106Y-2.9931
X5.4106Y-2.9931
X5.5106Y-2.9931
X5.6106Y-2.9931
X5.7106Y-2.9931
X6.8145Y-4.6547
X6.8145Y-4.7547
X6.8145Y-4.8547
X6.8145Y-4.9547
X6.8145Y-5.0547
X6.9Y-3.44
X6.9Y-3.54
X6.9Y-3.64
X6.9Y-3.74
X6.9Y-3.84
X6.9Y-3.94
X6.9145Y-4.6547
X6.9145Y-4.7547
X6.9145Y-4.8547
X6.9145Y-4.9547
X6.9145Y-5.0547
T8
X4.0995Y-4.8897
X4.0995Y-5.0897
T9
X4.0945Y-2.5197
X4.0945Y-5.3543
X4.685Y-4.1732
X6.9291Y-2.5197
X6.9291Y-5.3543
M30
