%TF.GenerationSoftware,KiCad,Pcbnew,8.0.2*%
%TF.CreationDate,2024-05-30T14:16:54+02:00*%
%TF.ProjectId,Weather_IOT_1.0,57656174-6865-4725-9f49-4f545f312e30,1.0*%
%TF.SameCoordinates,Original*%
%TF.FileFunction,Soldermask,Top*%
%TF.FilePolarity,Negative*%
%FSLAX46Y46*%
G04 Gerber Fmt 4.6, Leading zero omitted, Abs format (unit mm)*
G04 Created by KiCad (PCBNEW 8.0.2) date 2024-05-30 14:16:54*
%MOMM*%
%LPD*%
G01*
G04 APERTURE LIST*
G04 Aperture macros list*
%AMRoundRect*
0 Rectangle with rounded corners*
0 $1 Rounding radius*
0 $2 $3 $4 $5 $6 $7 $8 $9 X,Y pos of 4 corners*
0 Add a 4 corners polygon primitive as box body*
4,1,4,$2,$3,$4,$5,$6,$7,$8,$9,$2,$3,0*
0 Add four circle primitives for the rounded corners*
1,1,$1+$1,$2,$3*
1,1,$1+$1,$4,$5*
1,1,$1+$1,$6,$7*
1,1,$1+$1,$8,$9*
0 Add four rect primitives between the rounded corners*
20,1,$1+$1,$2,$3,$4,$5,0*
20,1,$1+$1,$4,$5,$6,$7,0*
20,1,$1+$1,$6,$7,$8,$9,0*
20,1,$1+$1,$8,$9,$2,$3,0*%
G04 Aperture macros list end*
%ADD10C,0.010000*%
%ADD11RoundRect,0.225000X-0.250000X0.225000X-0.250000X-0.225000X0.250000X-0.225000X0.250000X0.225000X0*%
%ADD12C,2.300000*%
%ADD13R,1.500000X1.500000*%
%ADD14C,1.500000*%
%ADD15RoundRect,0.250000X0.725000X-0.600000X0.725000X0.600000X-0.725000X0.600000X-0.725000X-0.600000X0*%
%ADD16O,1.950000X1.700000*%
%ADD17C,0.800000*%
%ADD18C,6.400000*%
%ADD19C,1.000000*%
%ADD20RoundRect,0.237500X0.237500X-0.250000X0.237500X0.250000X-0.237500X0.250000X-0.237500X-0.250000X0*%
%ADD21R,1.500000X1.000000*%
%ADD22RoundRect,0.243750X-0.456250X0.243750X-0.456250X-0.243750X0.456250X-0.243750X0.456250X0.243750X0*%
%ADD23RoundRect,0.250000X-0.750000X0.600000X-0.750000X-0.600000X0.750000X-0.600000X0.750000X0.600000X0*%
%ADD24O,2.000000X1.700000*%
%ADD25RoundRect,0.250000X0.650000X-1.000000X0.650000X1.000000X-0.650000X1.000000X-0.650000X-1.000000X0*%
%ADD26RoundRect,0.237500X-0.237500X0.250000X-0.237500X-0.250000X0.237500X-0.250000X0.237500X0.250000X0*%
%ADD27RoundRect,0.225000X0.225000X0.250000X-0.225000X0.250000X-0.225000X-0.250000X0.225000X-0.250000X0*%
%ADD28RoundRect,0.243750X0.456250X-0.243750X0.456250X0.243750X-0.456250X0.243750X-0.456250X-0.243750X0*%
%ADD29RoundRect,0.250000X0.600000X0.725000X-0.600000X0.725000X-0.600000X-0.725000X0.600000X-0.725000X0*%
%ADD30O,1.700000X1.950000*%
%ADD31R,0.700000X2.000000*%
%ADD32R,0.340000X0.700000*%
%ADD33RoundRect,0.225000X-0.225000X-0.250000X0.225000X-0.250000X0.225000X0.250000X-0.225000X0.250000X0*%
%ADD34R,1.700000X1.700000*%
%ADD35O,1.700000X1.700000*%
%ADD36R,1.500000X2.500000*%
%ADD37RoundRect,0.225000X0.250000X-0.225000X0.250000X0.225000X-0.250000X0.225000X-0.250000X-0.225000X0*%
%ADD38RoundRect,0.237500X0.250000X0.237500X-0.250000X0.237500X-0.250000X-0.237500X0.250000X-0.237500X0*%
%ADD39RoundRect,0.150000X0.650000X0.150000X-0.650000X0.150000X-0.650000X-0.150000X0.650000X-0.150000X0*%
%ADD40R,2.400000X3.200000*%
%ADD41RoundRect,0.250000X-0.650000X1.000000X-0.650000X-1.000000X0.650000X-1.000000X0.650000X1.000000X0*%
%ADD42C,1.400000*%
%ADD43RoundRect,0.042000X-0.633000X-0.258000X0.633000X-0.258000X0.633000X0.258000X-0.633000X0.258000X0*%
%ADD44C,5.600000*%
%ADD45RoundRect,0.237500X-0.250000X-0.237500X0.250000X-0.237500X0.250000X0.237500X-0.250000X0.237500X0*%
%ADD46RoundRect,0.250000X0.300000X-0.300000X0.300000X0.300000X-0.300000X0.300000X-0.300000X-0.300000X0*%
%ADD47RoundRect,0.250000X0.250000X-0.250000X0.250000X0.250000X-0.250000X0.250000X-0.250000X-0.250000X0*%
%ADD48RoundRect,0.250000X-0.250000X0.250000X-0.250000X-0.250000X0.250000X-0.250000X0.250000X0.250000X0*%
%ADD49R,3.000000X3.000000*%
%ADD50C,3.000000*%
G04 APERTURE END LIST*
D10*
%TO.C,U3*%
X117075000Y-129402000D02*
X116150000Y-129402000D01*
X116150000Y-128802000D01*
X116625000Y-128802000D01*
X116625000Y-128327000D01*
X117075000Y-128327000D01*
X117075000Y-129402000D01*
G36*
X117075000Y-129402000D02*
G01*
X116150000Y-129402000D01*
X116150000Y-128802000D01*
X116625000Y-128802000D01*
X116625000Y-128327000D01*
X117075000Y-128327000D01*
X117075000Y-129402000D01*
G37*
X120625000Y-128802000D02*
X121100000Y-128802000D01*
X121100000Y-129402000D01*
X120175000Y-129402000D01*
X120175000Y-128327000D01*
X120625000Y-128327000D01*
X120625000Y-128802000D01*
G36*
X120625000Y-128802000D02*
G01*
X121100000Y-128802000D01*
X121100000Y-129402000D01*
X120175000Y-129402000D01*
X120175000Y-128327000D01*
X120625000Y-128327000D01*
X120625000Y-128802000D01*
G37*
X116968000Y-131353000D02*
X116986000Y-131356000D01*
X117004000Y-131361000D01*
X117021000Y-131367000D01*
X117037000Y-131375000D01*
X117053000Y-131385000D01*
X117067000Y-131397000D01*
X117080000Y-131410000D01*
X117092000Y-131424000D01*
X117102000Y-131440000D01*
X117110000Y-131456000D01*
X117116000Y-131473000D01*
X117121000Y-131491000D01*
X117124000Y-131509000D01*
X117125000Y-131527000D01*
X117124000Y-131545000D01*
X117121000Y-131563000D01*
X117116000Y-131581000D01*
X117110000Y-131598000D01*
X117102000Y-131615000D01*
X117092000Y-131630000D01*
X117080000Y-131644000D01*
X117067000Y-131657000D01*
X117053000Y-131669000D01*
X117037000Y-131679000D01*
X117021000Y-131687000D01*
X117004000Y-131693000D01*
X116986000Y-131698000D01*
X116968000Y-131701000D01*
X116950000Y-131702000D01*
X116150000Y-131702000D01*
X116150000Y-131352000D01*
X116950000Y-131352000D01*
X116968000Y-131353000D01*
G36*
X116968000Y-131353000D02*
G01*
X116986000Y-131356000D01*
X117004000Y-131361000D01*
X117021000Y-131367000D01*
X117037000Y-131375000D01*
X117053000Y-131385000D01*
X117067000Y-131397000D01*
X117080000Y-131410000D01*
X117092000Y-131424000D01*
X117102000Y-131440000D01*
X117110000Y-131456000D01*
X117116000Y-131473000D01*
X117121000Y-131491000D01*
X117124000Y-131509000D01*
X117125000Y-131527000D01*
X117124000Y-131545000D01*
X117121000Y-131563000D01*
X117116000Y-131581000D01*
X117110000Y-131598000D01*
X117102000Y-131615000D01*
X117092000Y-131630000D01*
X117080000Y-131644000D01*
X117067000Y-131657000D01*
X117053000Y-131669000D01*
X117037000Y-131679000D01*
X117021000Y-131687000D01*
X117004000Y-131693000D01*
X116986000Y-131698000D01*
X116968000Y-131701000D01*
X116950000Y-131702000D01*
X116150000Y-131702000D01*
X116150000Y-131352000D01*
X116950000Y-131352000D01*
X116968000Y-131353000D01*
G37*
X116924000Y-129503000D02*
X116947000Y-129507000D01*
X116970000Y-129513000D01*
X116992000Y-129521000D01*
X117012000Y-129532000D01*
X117032000Y-129545000D01*
X117051000Y-129560000D01*
X117067000Y-129576000D01*
X117082000Y-129595000D01*
X117095000Y-129614000D01*
X117106000Y-129635000D01*
X117114000Y-129657000D01*
X117120000Y-129680000D01*
X117124000Y-129703000D01*
X117125000Y-129727000D01*
X117124000Y-129751000D01*
X117120000Y-129774000D01*
X117114000Y-129797000D01*
X117106000Y-129819000D01*
X117095000Y-129840000D01*
X117082000Y-129859000D01*
X117067000Y-129878000D01*
X117051000Y-129894000D01*
X117032000Y-129909000D01*
X117012000Y-129922000D01*
X116992000Y-129933000D01*
X116970000Y-129941000D01*
X116947000Y-129947000D01*
X116924000Y-129951000D01*
X116900000Y-129952000D01*
X116150000Y-129952000D01*
X116150000Y-129502000D01*
X116900000Y-129502000D01*
X116924000Y-129503000D01*
G36*
X116924000Y-129503000D02*
G01*
X116947000Y-129507000D01*
X116970000Y-129513000D01*
X116992000Y-129521000D01*
X117012000Y-129532000D01*
X117032000Y-129545000D01*
X117051000Y-129560000D01*
X117067000Y-129576000D01*
X117082000Y-129595000D01*
X117095000Y-129614000D01*
X117106000Y-129635000D01*
X117114000Y-129657000D01*
X117120000Y-129680000D01*
X117124000Y-129703000D01*
X117125000Y-129727000D01*
X117124000Y-129751000D01*
X117120000Y-129774000D01*
X117114000Y-129797000D01*
X117106000Y-129819000D01*
X117095000Y-129840000D01*
X117082000Y-129859000D01*
X117067000Y-129878000D01*
X117051000Y-129894000D01*
X117032000Y-129909000D01*
X117012000Y-129922000D01*
X116992000Y-129933000D01*
X116970000Y-129941000D01*
X116947000Y-129947000D01*
X116924000Y-129951000D01*
X116900000Y-129952000D01*
X116150000Y-129952000D01*
X116150000Y-129502000D01*
X116900000Y-129502000D01*
X116924000Y-129503000D01*
G37*
X117575000Y-129202000D02*
X117574000Y-129223000D01*
X117571000Y-129244000D01*
X117565000Y-129264000D01*
X117558000Y-129283000D01*
X117548000Y-129302000D01*
X117537000Y-129320000D01*
X117524000Y-129336000D01*
X117509000Y-129351000D01*
X117493000Y-129364000D01*
X117475000Y-129375000D01*
X117456000Y-129385000D01*
X117437000Y-129392000D01*
X117417000Y-129398000D01*
X117396000Y-129401000D01*
X117375000Y-129402000D01*
X117354000Y-129401000D01*
X117333000Y-129398000D01*
X117313000Y-129392000D01*
X117294000Y-129385000D01*
X117275000Y-129375000D01*
X117257000Y-129364000D01*
X117241000Y-129351000D01*
X117226000Y-129336000D01*
X117213000Y-129320000D01*
X117202000Y-129302000D01*
X117192000Y-129283000D01*
X117185000Y-129264000D01*
X117179000Y-129244000D01*
X117176000Y-129223000D01*
X117175000Y-129202000D01*
X117175000Y-128327000D01*
X117575000Y-128327000D01*
X117575000Y-129202000D01*
G36*
X117575000Y-129202000D02*
G01*
X117574000Y-129223000D01*
X117571000Y-129244000D01*
X117565000Y-129264000D01*
X117558000Y-129283000D01*
X117548000Y-129302000D01*
X117537000Y-129320000D01*
X117524000Y-129336000D01*
X117509000Y-129351000D01*
X117493000Y-129364000D01*
X117475000Y-129375000D01*
X117456000Y-129385000D01*
X117437000Y-129392000D01*
X117417000Y-129398000D01*
X117396000Y-129401000D01*
X117375000Y-129402000D01*
X117354000Y-129401000D01*
X117333000Y-129398000D01*
X117313000Y-129392000D01*
X117294000Y-129385000D01*
X117275000Y-129375000D01*
X117257000Y-129364000D01*
X117241000Y-129351000D01*
X117226000Y-129336000D01*
X117213000Y-129320000D01*
X117202000Y-129302000D01*
X117192000Y-129283000D01*
X117185000Y-129264000D01*
X117179000Y-129244000D01*
X117176000Y-129223000D01*
X117175000Y-129202000D01*
X117175000Y-128327000D01*
X117575000Y-128327000D01*
X117575000Y-129202000D01*
G37*
X118075000Y-129202000D02*
X118074000Y-129223000D01*
X118071000Y-129244000D01*
X118065000Y-129264000D01*
X118058000Y-129283000D01*
X118048000Y-129302000D01*
X118037000Y-129320000D01*
X118024000Y-129336000D01*
X118009000Y-129351000D01*
X117993000Y-129364000D01*
X117975000Y-129375000D01*
X117956000Y-129385000D01*
X117937000Y-129392000D01*
X117917000Y-129398000D01*
X117896000Y-129401000D01*
X117875000Y-129402000D01*
X117854000Y-129401000D01*
X117833000Y-129398000D01*
X117813000Y-129392000D01*
X117794000Y-129385000D01*
X117775000Y-129375000D01*
X117757000Y-129364000D01*
X117741000Y-129351000D01*
X117726000Y-129336000D01*
X117713000Y-129320000D01*
X117702000Y-129302000D01*
X117692000Y-129283000D01*
X117685000Y-129264000D01*
X117679000Y-129244000D01*
X117676000Y-129223000D01*
X117675000Y-129202000D01*
X117675000Y-128327000D01*
X118075000Y-128327000D01*
X118075000Y-129202000D01*
G36*
X118075000Y-129202000D02*
G01*
X118074000Y-129223000D01*
X118071000Y-129244000D01*
X118065000Y-129264000D01*
X118058000Y-129283000D01*
X118048000Y-129302000D01*
X118037000Y-129320000D01*
X118024000Y-129336000D01*
X118009000Y-129351000D01*
X117993000Y-129364000D01*
X117975000Y-129375000D01*
X117956000Y-129385000D01*
X117937000Y-129392000D01*
X117917000Y-129398000D01*
X117896000Y-129401000D01*
X117875000Y-129402000D01*
X117854000Y-129401000D01*
X117833000Y-129398000D01*
X117813000Y-129392000D01*
X117794000Y-129385000D01*
X117775000Y-129375000D01*
X117757000Y-129364000D01*
X117741000Y-129351000D01*
X117726000Y-129336000D01*
X117713000Y-129320000D01*
X117702000Y-129302000D01*
X117692000Y-129283000D01*
X117685000Y-129264000D01*
X117679000Y-129244000D01*
X117676000Y-129223000D01*
X117675000Y-129202000D01*
X117675000Y-128327000D01*
X118075000Y-128327000D01*
X118075000Y-129202000D01*
G37*
X118346000Y-130503000D02*
X118367000Y-130506000D01*
X118387000Y-130512000D01*
X118406000Y-130519000D01*
X118425000Y-130529000D01*
X118443000Y-130540000D01*
X118459000Y-130553000D01*
X118474000Y-130568000D01*
X118487000Y-130584000D01*
X118498000Y-130602000D01*
X118508000Y-130621000D01*
X118515000Y-130640000D01*
X118521000Y-130660000D01*
X118524000Y-130681000D01*
X118525000Y-130702000D01*
X118525000Y-133277000D01*
X118125000Y-133277000D01*
X118125000Y-130702000D01*
X118126000Y-130681000D01*
X118129000Y-130660000D01*
X118135000Y-130640000D01*
X118142000Y-130621000D01*
X118152000Y-130602000D01*
X118163000Y-130584000D01*
X118176000Y-130568000D01*
X118191000Y-130553000D01*
X118207000Y-130540000D01*
X118225000Y-130529000D01*
X118244000Y-130519000D01*
X118263000Y-130512000D01*
X118283000Y-130506000D01*
X118304000Y-130503000D01*
X118325000Y-130502000D01*
X118346000Y-130503000D01*
G36*
X118346000Y-130503000D02*
G01*
X118367000Y-130506000D01*
X118387000Y-130512000D01*
X118406000Y-130519000D01*
X118425000Y-130529000D01*
X118443000Y-130540000D01*
X118459000Y-130553000D01*
X118474000Y-130568000D01*
X118487000Y-130584000D01*
X118498000Y-130602000D01*
X118508000Y-130621000D01*
X118515000Y-130640000D01*
X118521000Y-130660000D01*
X118524000Y-130681000D01*
X118525000Y-130702000D01*
X118525000Y-133277000D01*
X118125000Y-133277000D01*
X118125000Y-130702000D01*
X118126000Y-130681000D01*
X118129000Y-130660000D01*
X118135000Y-130640000D01*
X118142000Y-130621000D01*
X118152000Y-130602000D01*
X118163000Y-130584000D01*
X118176000Y-130568000D01*
X118191000Y-130553000D01*
X118207000Y-130540000D01*
X118225000Y-130529000D01*
X118244000Y-130519000D01*
X118263000Y-130512000D01*
X118283000Y-130506000D01*
X118304000Y-130503000D01*
X118325000Y-130502000D01*
X118346000Y-130503000D01*
G37*
X118575000Y-129202000D02*
X118574000Y-129223000D01*
X118571000Y-129244000D01*
X118565000Y-129264000D01*
X118558000Y-129283000D01*
X118548000Y-129302000D01*
X118537000Y-129320000D01*
X118524000Y-129336000D01*
X118509000Y-129351000D01*
X118493000Y-129364000D01*
X118475000Y-129375000D01*
X118456000Y-129385000D01*
X118437000Y-129392000D01*
X118417000Y-129398000D01*
X118396000Y-129401000D01*
X118375000Y-129402000D01*
X118354000Y-129401000D01*
X118333000Y-129398000D01*
X118313000Y-129392000D01*
X118294000Y-129385000D01*
X118275000Y-129375000D01*
X118257000Y-129364000D01*
X118241000Y-129351000D01*
X118226000Y-129336000D01*
X118213000Y-129320000D01*
X118202000Y-129302000D01*
X118192000Y-129283000D01*
X118185000Y-129264000D01*
X118179000Y-129244000D01*
X118176000Y-129223000D01*
X118175000Y-129202000D01*
X118175000Y-128327000D01*
X118575000Y-128327000D01*
X118575000Y-129202000D01*
G36*
X118575000Y-129202000D02*
G01*
X118574000Y-129223000D01*
X118571000Y-129244000D01*
X118565000Y-129264000D01*
X118558000Y-129283000D01*
X118548000Y-129302000D01*
X118537000Y-129320000D01*
X118524000Y-129336000D01*
X118509000Y-129351000D01*
X118493000Y-129364000D01*
X118475000Y-129375000D01*
X118456000Y-129385000D01*
X118437000Y-129392000D01*
X118417000Y-129398000D01*
X118396000Y-129401000D01*
X118375000Y-129402000D01*
X118354000Y-129401000D01*
X118333000Y-129398000D01*
X118313000Y-129392000D01*
X118294000Y-129385000D01*
X118275000Y-129375000D01*
X118257000Y-129364000D01*
X118241000Y-129351000D01*
X118226000Y-129336000D01*
X118213000Y-129320000D01*
X118202000Y-129302000D01*
X118192000Y-129283000D01*
X118185000Y-129264000D01*
X118179000Y-129244000D01*
X118176000Y-129223000D01*
X118175000Y-129202000D01*
X118175000Y-128327000D01*
X118575000Y-128327000D01*
X118575000Y-129202000D01*
G37*
X119075000Y-129202000D02*
X119074000Y-129223000D01*
X119071000Y-129244000D01*
X119065000Y-129264000D01*
X119058000Y-129283000D01*
X119048000Y-129302000D01*
X119037000Y-129320000D01*
X119024000Y-129336000D01*
X119009000Y-129351000D01*
X118993000Y-129364000D01*
X118975000Y-129375000D01*
X118956000Y-129385000D01*
X118937000Y-129392000D01*
X118917000Y-129398000D01*
X118896000Y-129401000D01*
X118875000Y-129402000D01*
X118854000Y-129401000D01*
X118833000Y-129398000D01*
X118813000Y-129392000D01*
X118794000Y-129385000D01*
X118775000Y-129375000D01*
X118757000Y-129364000D01*
X118741000Y-129351000D01*
X118726000Y-129336000D01*
X118713000Y-129320000D01*
X118702000Y-129302000D01*
X118692000Y-129283000D01*
X118685000Y-129264000D01*
X118679000Y-129244000D01*
X118676000Y-129223000D01*
X118675000Y-129202000D01*
X118675000Y-128327000D01*
X119075000Y-128327000D01*
X119075000Y-129202000D01*
G36*
X119075000Y-129202000D02*
G01*
X119074000Y-129223000D01*
X119071000Y-129244000D01*
X119065000Y-129264000D01*
X119058000Y-129283000D01*
X119048000Y-129302000D01*
X119037000Y-129320000D01*
X119024000Y-129336000D01*
X119009000Y-129351000D01*
X118993000Y-129364000D01*
X118975000Y-129375000D01*
X118956000Y-129385000D01*
X118937000Y-129392000D01*
X118917000Y-129398000D01*
X118896000Y-129401000D01*
X118875000Y-129402000D01*
X118854000Y-129401000D01*
X118833000Y-129398000D01*
X118813000Y-129392000D01*
X118794000Y-129385000D01*
X118775000Y-129375000D01*
X118757000Y-129364000D01*
X118741000Y-129351000D01*
X118726000Y-129336000D01*
X118713000Y-129320000D01*
X118702000Y-129302000D01*
X118692000Y-129283000D01*
X118685000Y-129264000D01*
X118679000Y-129244000D01*
X118676000Y-129223000D01*
X118675000Y-129202000D01*
X118675000Y-128327000D01*
X119075000Y-128327000D01*
X119075000Y-129202000D01*
G37*
X118946000Y-130503000D02*
X118967000Y-130506000D01*
X118987000Y-130512000D01*
X119006000Y-130519000D01*
X119025000Y-130529000D01*
X119043000Y-130540000D01*
X119059000Y-130553000D01*
X119074000Y-130568000D01*
X119087000Y-130584000D01*
X119098000Y-130602000D01*
X119108000Y-130621000D01*
X119115000Y-130640000D01*
X119121000Y-130660000D01*
X119124000Y-130681000D01*
X119125000Y-130702000D01*
X119125000Y-133277000D01*
X118725000Y-133277000D01*
X118725000Y-130702000D01*
X118726000Y-130681000D01*
X118729000Y-130660000D01*
X118735000Y-130640000D01*
X118742000Y-130621000D01*
X118752000Y-130602000D01*
X118763000Y-130584000D01*
X118776000Y-130568000D01*
X118791000Y-130553000D01*
X118807000Y-130540000D01*
X118825000Y-130529000D01*
X118844000Y-130519000D01*
X118863000Y-130512000D01*
X118883000Y-130506000D01*
X118904000Y-130503000D01*
X118925000Y-130502000D01*
X118946000Y-130503000D01*
G36*
X118946000Y-130503000D02*
G01*
X118967000Y-130506000D01*
X118987000Y-130512000D01*
X119006000Y-130519000D01*
X119025000Y-130529000D01*
X119043000Y-130540000D01*
X119059000Y-130553000D01*
X119074000Y-130568000D01*
X119087000Y-130584000D01*
X119098000Y-130602000D01*
X119108000Y-130621000D01*
X119115000Y-130640000D01*
X119121000Y-130660000D01*
X119124000Y-130681000D01*
X119125000Y-130702000D01*
X119125000Y-133277000D01*
X118725000Y-133277000D01*
X118725000Y-130702000D01*
X118726000Y-130681000D01*
X118729000Y-130660000D01*
X118735000Y-130640000D01*
X118742000Y-130621000D01*
X118752000Y-130602000D01*
X118763000Y-130584000D01*
X118776000Y-130568000D01*
X118791000Y-130553000D01*
X118807000Y-130540000D01*
X118825000Y-130529000D01*
X118844000Y-130519000D01*
X118863000Y-130512000D01*
X118883000Y-130506000D01*
X118904000Y-130503000D01*
X118925000Y-130502000D01*
X118946000Y-130503000D01*
G37*
X119575000Y-129202000D02*
X119574000Y-129223000D01*
X119571000Y-129244000D01*
X119565000Y-129264000D01*
X119558000Y-129283000D01*
X119548000Y-129302000D01*
X119537000Y-129320000D01*
X119524000Y-129336000D01*
X119509000Y-129351000D01*
X119493000Y-129364000D01*
X119475000Y-129375000D01*
X119456000Y-129385000D01*
X119437000Y-129392000D01*
X119417000Y-129398000D01*
X119396000Y-129401000D01*
X119375000Y-129402000D01*
X119354000Y-129401000D01*
X119333000Y-129398000D01*
X119313000Y-129392000D01*
X119294000Y-129385000D01*
X119275000Y-129375000D01*
X119257000Y-129364000D01*
X119241000Y-129351000D01*
X119226000Y-129336000D01*
X119213000Y-129320000D01*
X119202000Y-129302000D01*
X119192000Y-129283000D01*
X119185000Y-129264000D01*
X119179000Y-129244000D01*
X119176000Y-129223000D01*
X119175000Y-129202000D01*
X119175000Y-128327000D01*
X119575000Y-128327000D01*
X119575000Y-129202000D01*
G36*
X119575000Y-129202000D02*
G01*
X119574000Y-129223000D01*
X119571000Y-129244000D01*
X119565000Y-129264000D01*
X119558000Y-129283000D01*
X119548000Y-129302000D01*
X119537000Y-129320000D01*
X119524000Y-129336000D01*
X119509000Y-129351000D01*
X119493000Y-129364000D01*
X119475000Y-129375000D01*
X119456000Y-129385000D01*
X119437000Y-129392000D01*
X119417000Y-129398000D01*
X119396000Y-129401000D01*
X119375000Y-129402000D01*
X119354000Y-129401000D01*
X119333000Y-129398000D01*
X119313000Y-129392000D01*
X119294000Y-129385000D01*
X119275000Y-129375000D01*
X119257000Y-129364000D01*
X119241000Y-129351000D01*
X119226000Y-129336000D01*
X119213000Y-129320000D01*
X119202000Y-129302000D01*
X119192000Y-129283000D01*
X119185000Y-129264000D01*
X119179000Y-129244000D01*
X119176000Y-129223000D01*
X119175000Y-129202000D01*
X119175000Y-128327000D01*
X119575000Y-128327000D01*
X119575000Y-129202000D01*
G37*
X120075000Y-129202000D02*
X120074000Y-129223000D01*
X120071000Y-129244000D01*
X120065000Y-129264000D01*
X120058000Y-129283000D01*
X120048000Y-129302000D01*
X120037000Y-129320000D01*
X120024000Y-129336000D01*
X120009000Y-129351000D01*
X119993000Y-129364000D01*
X119975000Y-129375000D01*
X119956000Y-129385000D01*
X119937000Y-129392000D01*
X119917000Y-129398000D01*
X119896000Y-129401000D01*
X119875000Y-129402000D01*
X119854000Y-129401000D01*
X119833000Y-129398000D01*
X119813000Y-129392000D01*
X119794000Y-129385000D01*
X119775000Y-129375000D01*
X119757000Y-129364000D01*
X119741000Y-129351000D01*
X119726000Y-129336000D01*
X119713000Y-129320000D01*
X119702000Y-129302000D01*
X119692000Y-129283000D01*
X119685000Y-129264000D01*
X119679000Y-129244000D01*
X119676000Y-129223000D01*
X119675000Y-129202000D01*
X119675000Y-128327000D01*
X120075000Y-128327000D01*
X120075000Y-129202000D01*
G36*
X120075000Y-129202000D02*
G01*
X120074000Y-129223000D01*
X120071000Y-129244000D01*
X120065000Y-129264000D01*
X120058000Y-129283000D01*
X120048000Y-129302000D01*
X120037000Y-129320000D01*
X120024000Y-129336000D01*
X120009000Y-129351000D01*
X119993000Y-129364000D01*
X119975000Y-129375000D01*
X119956000Y-129385000D01*
X119937000Y-129392000D01*
X119917000Y-129398000D01*
X119896000Y-129401000D01*
X119875000Y-129402000D01*
X119854000Y-129401000D01*
X119833000Y-129398000D01*
X119813000Y-129392000D01*
X119794000Y-129385000D01*
X119775000Y-129375000D01*
X119757000Y-129364000D01*
X119741000Y-129351000D01*
X119726000Y-129336000D01*
X119713000Y-129320000D01*
X119702000Y-129302000D01*
X119692000Y-129283000D01*
X119685000Y-129264000D01*
X119679000Y-129244000D01*
X119676000Y-129223000D01*
X119675000Y-129202000D01*
X119675000Y-128327000D01*
X120075000Y-128327000D01*
X120075000Y-129202000D01*
G37*
X121100000Y-129952000D02*
X120350000Y-129952000D01*
X120326000Y-129951000D01*
X120303000Y-129947000D01*
X120280000Y-129941000D01*
X120258000Y-129933000D01*
X120238000Y-129922000D01*
X120218000Y-129909000D01*
X120199000Y-129894000D01*
X120183000Y-129878000D01*
X120168000Y-129859000D01*
X120155000Y-129840000D01*
X120144000Y-129819000D01*
X120136000Y-129797000D01*
X120130000Y-129774000D01*
X120126000Y-129751000D01*
X120125000Y-129727000D01*
X120126000Y-129703000D01*
X120130000Y-129680000D01*
X120136000Y-129657000D01*
X120144000Y-129635000D01*
X120155000Y-129614000D01*
X120168000Y-129595000D01*
X120183000Y-129576000D01*
X120199000Y-129560000D01*
X120218000Y-129545000D01*
X120238000Y-129532000D01*
X120258000Y-129521000D01*
X120280000Y-129513000D01*
X120303000Y-129507000D01*
X120326000Y-129503000D01*
X120350000Y-129502000D01*
X121100000Y-129502000D01*
X121100000Y-129952000D01*
G36*
X121100000Y-129952000D02*
G01*
X120350000Y-129952000D01*
X120326000Y-129951000D01*
X120303000Y-129947000D01*
X120280000Y-129941000D01*
X120258000Y-129933000D01*
X120238000Y-129922000D01*
X120218000Y-129909000D01*
X120199000Y-129894000D01*
X120183000Y-129878000D01*
X120168000Y-129859000D01*
X120155000Y-129840000D01*
X120144000Y-129819000D01*
X120136000Y-129797000D01*
X120130000Y-129774000D01*
X120126000Y-129751000D01*
X120125000Y-129727000D01*
X120126000Y-129703000D01*
X120130000Y-129680000D01*
X120136000Y-129657000D01*
X120144000Y-129635000D01*
X120155000Y-129614000D01*
X120168000Y-129595000D01*
X120183000Y-129576000D01*
X120199000Y-129560000D01*
X120218000Y-129545000D01*
X120238000Y-129532000D01*
X120258000Y-129521000D01*
X120280000Y-129513000D01*
X120303000Y-129507000D01*
X120326000Y-129503000D01*
X120350000Y-129502000D01*
X121100000Y-129502000D01*
X121100000Y-129952000D01*
G37*
X121100000Y-131702000D02*
X120300000Y-131702000D01*
X120282000Y-131701000D01*
X120264000Y-131698000D01*
X120246000Y-131693000D01*
X120229000Y-131687000D01*
X120212000Y-131679000D01*
X120197000Y-131669000D01*
X120183000Y-131657000D01*
X120170000Y-131644000D01*
X120158000Y-131630000D01*
X120148000Y-131615000D01*
X120140000Y-131598000D01*
X120134000Y-131581000D01*
X120129000Y-131563000D01*
X120126000Y-131545000D01*
X120125000Y-131527000D01*
X120126000Y-131509000D01*
X120129000Y-131491000D01*
X120134000Y-131473000D01*
X120140000Y-131456000D01*
X120148000Y-131440000D01*
X120158000Y-131424000D01*
X120170000Y-131410000D01*
X120183000Y-131397000D01*
X120197000Y-131385000D01*
X120213000Y-131375000D01*
X120229000Y-131367000D01*
X120246000Y-131361000D01*
X120264000Y-131356000D01*
X120282000Y-131353000D01*
X120300000Y-131352000D01*
X121100000Y-131352000D01*
X121100000Y-131702000D01*
G36*
X121100000Y-131702000D02*
G01*
X120300000Y-131702000D01*
X120282000Y-131701000D01*
X120264000Y-131698000D01*
X120246000Y-131693000D01*
X120229000Y-131687000D01*
X120212000Y-131679000D01*
X120197000Y-131669000D01*
X120183000Y-131657000D01*
X120170000Y-131644000D01*
X120158000Y-131630000D01*
X120148000Y-131615000D01*
X120140000Y-131598000D01*
X120134000Y-131581000D01*
X120129000Y-131563000D01*
X120126000Y-131545000D01*
X120125000Y-131527000D01*
X120126000Y-131509000D01*
X120129000Y-131491000D01*
X120134000Y-131473000D01*
X120140000Y-131456000D01*
X120148000Y-131440000D01*
X120158000Y-131424000D01*
X120170000Y-131410000D01*
X120183000Y-131397000D01*
X120197000Y-131385000D01*
X120213000Y-131375000D01*
X120229000Y-131367000D01*
X120246000Y-131361000D01*
X120264000Y-131356000D01*
X120282000Y-131353000D01*
X120300000Y-131352000D01*
X121100000Y-131352000D01*
X121100000Y-131702000D01*
G37*
X117200000Y-132252000D02*
X117675000Y-132252000D01*
X117683000Y-132252000D01*
X117691000Y-132253000D01*
X117698000Y-132254000D01*
X117706000Y-132255000D01*
X117714000Y-132257000D01*
X117721000Y-132259000D01*
X117729000Y-132262000D01*
X117736000Y-132265000D01*
X117743000Y-132268000D01*
X117750000Y-132272000D01*
X117757000Y-132276000D01*
X117763000Y-132281000D01*
X117769000Y-132285000D01*
X117775000Y-132291000D01*
X117781000Y-132296000D01*
X117786000Y-132302000D01*
X117792000Y-132308000D01*
X117796000Y-132314000D01*
X117801000Y-132320000D01*
X117805000Y-132327000D01*
X117809000Y-132334000D01*
X117812000Y-132341000D01*
X117815000Y-132348000D01*
X117818000Y-132356000D01*
X117820000Y-132363000D01*
X117822000Y-132371000D01*
X117823000Y-132379000D01*
X117824000Y-132386000D01*
X117825000Y-132394000D01*
X117825000Y-132402000D01*
X117825000Y-133277000D01*
X116650000Y-133277000D01*
X116650000Y-132602000D01*
X116150000Y-132602000D01*
X116150000Y-131852000D01*
X117200000Y-131852000D01*
X117200000Y-132252000D01*
G36*
X117200000Y-132252000D02*
G01*
X117675000Y-132252000D01*
X117683000Y-132252000D01*
X117691000Y-132253000D01*
X117698000Y-132254000D01*
X117706000Y-132255000D01*
X117714000Y-132257000D01*
X117721000Y-132259000D01*
X117729000Y-132262000D01*
X117736000Y-132265000D01*
X117743000Y-132268000D01*
X117750000Y-132272000D01*
X117757000Y-132276000D01*
X117763000Y-132281000D01*
X117769000Y-132285000D01*
X117775000Y-132291000D01*
X117781000Y-132296000D01*
X117786000Y-132302000D01*
X117792000Y-132308000D01*
X117796000Y-132314000D01*
X117801000Y-132320000D01*
X117805000Y-132327000D01*
X117809000Y-132334000D01*
X117812000Y-132341000D01*
X117815000Y-132348000D01*
X117818000Y-132356000D01*
X117820000Y-132363000D01*
X117822000Y-132371000D01*
X117823000Y-132379000D01*
X117824000Y-132386000D01*
X117825000Y-132394000D01*
X117825000Y-132402000D01*
X117825000Y-133277000D01*
X116650000Y-133277000D01*
X116650000Y-132602000D01*
X116150000Y-132602000D01*
X116150000Y-131852000D01*
X117200000Y-131852000D01*
X117200000Y-132252000D01*
G37*
X121100000Y-132602000D02*
X120600000Y-132602000D01*
X120600000Y-133277000D01*
X119425000Y-133277000D01*
X119425000Y-132402000D01*
X119425000Y-132394000D01*
X119426000Y-132386000D01*
X119427000Y-132379000D01*
X119428000Y-132371000D01*
X119430000Y-132363000D01*
X119432000Y-132356000D01*
X119435000Y-132348000D01*
X119438000Y-132341000D01*
X119441000Y-132334000D01*
X119445000Y-132327000D01*
X119449000Y-132320000D01*
X119454000Y-132314000D01*
X119458000Y-132308000D01*
X119464000Y-132302000D01*
X119469000Y-132296000D01*
X119475000Y-132291000D01*
X119481000Y-132285000D01*
X119487000Y-132281000D01*
X119493000Y-132276000D01*
X119500000Y-132272000D01*
X119507000Y-132268000D01*
X119514000Y-132265000D01*
X119521000Y-132262000D01*
X119529000Y-132259000D01*
X119536000Y-132257000D01*
X119544000Y-132255000D01*
X119552000Y-132254000D01*
X119559000Y-132253000D01*
X119567000Y-132252000D01*
X119575000Y-132252000D01*
X120050000Y-132252000D01*
X120050000Y-131852000D01*
X121100000Y-131852000D01*
X121100000Y-132602000D01*
G36*
X121100000Y-132602000D02*
G01*
X120600000Y-132602000D01*
X120600000Y-133277000D01*
X119425000Y-133277000D01*
X119425000Y-132402000D01*
X119425000Y-132394000D01*
X119426000Y-132386000D01*
X119427000Y-132379000D01*
X119428000Y-132371000D01*
X119430000Y-132363000D01*
X119432000Y-132356000D01*
X119435000Y-132348000D01*
X119438000Y-132341000D01*
X119441000Y-132334000D01*
X119445000Y-132327000D01*
X119449000Y-132320000D01*
X119454000Y-132314000D01*
X119458000Y-132308000D01*
X119464000Y-132302000D01*
X119469000Y-132296000D01*
X119475000Y-132291000D01*
X119481000Y-132285000D01*
X119487000Y-132281000D01*
X119493000Y-132276000D01*
X119500000Y-132272000D01*
X119507000Y-132268000D01*
X119514000Y-132265000D01*
X119521000Y-132262000D01*
X119529000Y-132259000D01*
X119536000Y-132257000D01*
X119544000Y-132255000D01*
X119552000Y-132254000D01*
X119559000Y-132253000D01*
X119567000Y-132252000D01*
X119575000Y-132252000D01*
X120050000Y-132252000D01*
X120050000Y-131852000D01*
X121100000Y-131852000D01*
X121100000Y-132602000D01*
G37*
X117691000Y-130053000D02*
X117698000Y-130054000D01*
X117706000Y-130055000D01*
X117714000Y-130057000D01*
X117721000Y-130059000D01*
X117729000Y-130062000D01*
X117736000Y-130065000D01*
X117743000Y-130068000D01*
X117750000Y-130072000D01*
X117757000Y-130076000D01*
X117763000Y-130081000D01*
X117769000Y-130085000D01*
X117775000Y-130091000D01*
X117781000Y-130096000D01*
X117786000Y-130102000D01*
X117792000Y-130108000D01*
X117796000Y-130114000D01*
X117801000Y-130120000D01*
X117805000Y-130127000D01*
X117809000Y-130134000D01*
X117812000Y-130141000D01*
X117815000Y-130148000D01*
X117818000Y-130156000D01*
X117820000Y-130163000D01*
X117822000Y-130171000D01*
X117823000Y-130179000D01*
X117824000Y-130186000D01*
X117825000Y-130194000D01*
X117825000Y-130202000D01*
X117825000Y-130252000D01*
X117825000Y-130260000D01*
X117824000Y-130268000D01*
X117823000Y-130275000D01*
X117822000Y-130283000D01*
X117820000Y-130291000D01*
X117818000Y-130298000D01*
X117815000Y-130306000D01*
X117812000Y-130313000D01*
X117809000Y-130320000D01*
X117805000Y-130327000D01*
X117801000Y-130334000D01*
X117796000Y-130340000D01*
X117792000Y-130346000D01*
X117786000Y-130352000D01*
X117781000Y-130358000D01*
X117775000Y-130363000D01*
X117769000Y-130369000D01*
X117763000Y-130373000D01*
X117757000Y-130378000D01*
X117750000Y-130382000D01*
X117743000Y-130386000D01*
X117736000Y-130389000D01*
X117729000Y-130392000D01*
X117721000Y-130395000D01*
X117714000Y-130397000D01*
X117706000Y-130399000D01*
X117698000Y-130400000D01*
X117691000Y-130401000D01*
X117683000Y-130402000D01*
X117675000Y-130402000D01*
X116150000Y-130402000D01*
X116150000Y-130052000D01*
X117675000Y-130052000D01*
X117683000Y-130052000D01*
X117691000Y-130053000D01*
G36*
X117691000Y-130053000D02*
G01*
X117698000Y-130054000D01*
X117706000Y-130055000D01*
X117714000Y-130057000D01*
X117721000Y-130059000D01*
X117729000Y-130062000D01*
X117736000Y-130065000D01*
X117743000Y-130068000D01*
X117750000Y-130072000D01*
X117757000Y-130076000D01*
X117763000Y-130081000D01*
X117769000Y-130085000D01*
X117775000Y-130091000D01*
X117781000Y-130096000D01*
X117786000Y-130102000D01*
X117792000Y-130108000D01*
X117796000Y-130114000D01*
X117801000Y-130120000D01*
X117805000Y-130127000D01*
X117809000Y-130134000D01*
X117812000Y-130141000D01*
X117815000Y-130148000D01*
X117818000Y-130156000D01*
X117820000Y-130163000D01*
X117822000Y-130171000D01*
X117823000Y-130179000D01*
X117824000Y-130186000D01*
X117825000Y-130194000D01*
X117825000Y-130202000D01*
X117825000Y-130252000D01*
X117825000Y-130260000D01*
X117824000Y-130268000D01*
X117823000Y-130275000D01*
X117822000Y-130283000D01*
X117820000Y-130291000D01*
X117818000Y-130298000D01*
X117815000Y-130306000D01*
X117812000Y-130313000D01*
X117809000Y-130320000D01*
X117805000Y-130327000D01*
X117801000Y-130334000D01*
X117796000Y-130340000D01*
X117792000Y-130346000D01*
X117786000Y-130352000D01*
X117781000Y-130358000D01*
X117775000Y-130363000D01*
X117769000Y-130369000D01*
X117763000Y-130373000D01*
X117757000Y-130378000D01*
X117750000Y-130382000D01*
X117743000Y-130386000D01*
X117736000Y-130389000D01*
X117729000Y-130392000D01*
X117721000Y-130395000D01*
X117714000Y-130397000D01*
X117706000Y-130399000D01*
X117698000Y-130400000D01*
X117691000Y-130401000D01*
X117683000Y-130402000D01*
X117675000Y-130402000D01*
X116150000Y-130402000D01*
X116150000Y-130052000D01*
X117675000Y-130052000D01*
X117683000Y-130052000D01*
X117691000Y-130053000D01*
G37*
X117691000Y-130853000D02*
X117698000Y-130854000D01*
X117706000Y-130855000D01*
X117714000Y-130857000D01*
X117721000Y-130859000D01*
X117729000Y-130862000D01*
X117736000Y-130865000D01*
X117743000Y-130868000D01*
X117750000Y-130872000D01*
X117757000Y-130876000D01*
X117763000Y-130881000D01*
X117769000Y-130885000D01*
X117775000Y-130891000D01*
X117781000Y-130896000D01*
X117786000Y-130902000D01*
X117792000Y-130908000D01*
X117796000Y-130914000D01*
X117801000Y-130920000D01*
X117805000Y-130927000D01*
X117809000Y-130934000D01*
X117812000Y-130941000D01*
X117815000Y-130948000D01*
X117818000Y-130956000D01*
X117820000Y-130963000D01*
X117822000Y-130971000D01*
X117823000Y-130979000D01*
X117824000Y-130986000D01*
X117825000Y-130994000D01*
X117825000Y-131002000D01*
X117825000Y-131052000D01*
X117825000Y-131060000D01*
X117824000Y-131068000D01*
X117823000Y-131075000D01*
X117822000Y-131083000D01*
X117820000Y-131091000D01*
X117818000Y-131098000D01*
X117815000Y-131106000D01*
X117812000Y-131113000D01*
X117809000Y-131120000D01*
X117805000Y-131127000D01*
X117801000Y-131134000D01*
X117796000Y-131140000D01*
X117792000Y-131146000D01*
X117786000Y-131152000D01*
X117781000Y-131158000D01*
X117775000Y-131163000D01*
X117769000Y-131169000D01*
X117763000Y-131173000D01*
X117757000Y-131178000D01*
X117750000Y-131182000D01*
X117743000Y-131186000D01*
X117736000Y-131189000D01*
X117729000Y-131192000D01*
X117721000Y-131195000D01*
X117714000Y-131197000D01*
X117706000Y-131199000D01*
X117698000Y-131200000D01*
X117691000Y-131201000D01*
X117683000Y-131202000D01*
X117675000Y-131202000D01*
X116150000Y-131202000D01*
X116150000Y-130852000D01*
X117675000Y-130852000D01*
X117683000Y-130852000D01*
X117691000Y-130853000D01*
G36*
X117691000Y-130853000D02*
G01*
X117698000Y-130854000D01*
X117706000Y-130855000D01*
X117714000Y-130857000D01*
X117721000Y-130859000D01*
X117729000Y-130862000D01*
X117736000Y-130865000D01*
X117743000Y-130868000D01*
X117750000Y-130872000D01*
X117757000Y-130876000D01*
X117763000Y-130881000D01*
X117769000Y-130885000D01*
X117775000Y-130891000D01*
X117781000Y-130896000D01*
X117786000Y-130902000D01*
X117792000Y-130908000D01*
X117796000Y-130914000D01*
X117801000Y-130920000D01*
X117805000Y-130927000D01*
X117809000Y-130934000D01*
X117812000Y-130941000D01*
X117815000Y-130948000D01*
X117818000Y-130956000D01*
X117820000Y-130963000D01*
X117822000Y-130971000D01*
X117823000Y-130979000D01*
X117824000Y-130986000D01*
X117825000Y-130994000D01*
X117825000Y-131002000D01*
X117825000Y-131052000D01*
X117825000Y-131060000D01*
X117824000Y-131068000D01*
X117823000Y-131075000D01*
X117822000Y-131083000D01*
X117820000Y-131091000D01*
X117818000Y-131098000D01*
X117815000Y-131106000D01*
X117812000Y-131113000D01*
X117809000Y-131120000D01*
X117805000Y-131127000D01*
X117801000Y-131134000D01*
X117796000Y-131140000D01*
X117792000Y-131146000D01*
X117786000Y-131152000D01*
X117781000Y-131158000D01*
X117775000Y-131163000D01*
X117769000Y-131169000D01*
X117763000Y-131173000D01*
X117757000Y-131178000D01*
X117750000Y-131182000D01*
X117743000Y-131186000D01*
X117736000Y-131189000D01*
X117729000Y-131192000D01*
X117721000Y-131195000D01*
X117714000Y-131197000D01*
X117706000Y-131199000D01*
X117698000Y-131200000D01*
X117691000Y-131201000D01*
X117683000Y-131202000D01*
X117675000Y-131202000D01*
X116150000Y-131202000D01*
X116150000Y-130852000D01*
X117675000Y-130852000D01*
X117683000Y-130852000D01*
X117691000Y-130853000D01*
G37*
X121100000Y-130402000D02*
X119575000Y-130402000D01*
X119567000Y-130402000D01*
X119559000Y-130401000D01*
X119552000Y-130400000D01*
X119544000Y-130399000D01*
X119536000Y-130397000D01*
X119529000Y-130395000D01*
X119521000Y-130392000D01*
X119514000Y-130389000D01*
X119507000Y-130386000D01*
X119500000Y-130382000D01*
X119493000Y-130378000D01*
X119487000Y-130373000D01*
X119481000Y-130369000D01*
X119475000Y-130363000D01*
X119469000Y-130358000D01*
X119464000Y-130352000D01*
X119458000Y-130346000D01*
X119454000Y-130340000D01*
X119449000Y-130334000D01*
X119445000Y-130327000D01*
X119441000Y-130320000D01*
X119438000Y-130313000D01*
X119435000Y-130306000D01*
X119432000Y-130298000D01*
X119430000Y-130291000D01*
X119428000Y-130283000D01*
X119427000Y-130275000D01*
X119426000Y-130268000D01*
X119425000Y-130260000D01*
X119425000Y-130252000D01*
X119425000Y-130202000D01*
X119425000Y-130194000D01*
X119426000Y-130186000D01*
X119427000Y-130179000D01*
X119428000Y-130171000D01*
X119430000Y-130163000D01*
X119432000Y-130156000D01*
X119435000Y-130148000D01*
X119438000Y-130141000D01*
X119441000Y-130134000D01*
X119445000Y-130127000D01*
X119449000Y-130120000D01*
X119454000Y-130114000D01*
X119458000Y-130108000D01*
X119464000Y-130102000D01*
X119469000Y-130096000D01*
X119475000Y-130091000D01*
X119481000Y-130085000D01*
X119487000Y-130081000D01*
X119493000Y-130076000D01*
X119500000Y-130072000D01*
X119507000Y-130068000D01*
X119514000Y-130065000D01*
X119521000Y-130062000D01*
X119529000Y-130059000D01*
X119536000Y-130057000D01*
X119544000Y-130055000D01*
X119552000Y-130054000D01*
X119559000Y-130053000D01*
X119567000Y-130052000D01*
X119575000Y-130052000D01*
X121100000Y-130052000D01*
X121100000Y-130402000D01*
G36*
X121100000Y-130402000D02*
G01*
X119575000Y-130402000D01*
X119567000Y-130402000D01*
X119559000Y-130401000D01*
X119552000Y-130400000D01*
X119544000Y-130399000D01*
X119536000Y-130397000D01*
X119529000Y-130395000D01*
X119521000Y-130392000D01*
X119514000Y-130389000D01*
X119507000Y-130386000D01*
X119500000Y-130382000D01*
X119493000Y-130378000D01*
X119487000Y-130373000D01*
X119481000Y-130369000D01*
X119475000Y-130363000D01*
X119469000Y-130358000D01*
X119464000Y-130352000D01*
X119458000Y-130346000D01*
X119454000Y-130340000D01*
X119449000Y-130334000D01*
X119445000Y-130327000D01*
X119441000Y-130320000D01*
X119438000Y-130313000D01*
X119435000Y-130306000D01*
X119432000Y-130298000D01*
X119430000Y-130291000D01*
X119428000Y-130283000D01*
X119427000Y-130275000D01*
X119426000Y-130268000D01*
X119425000Y-130260000D01*
X119425000Y-130252000D01*
X119425000Y-130202000D01*
X119425000Y-130194000D01*
X119426000Y-130186000D01*
X119427000Y-130179000D01*
X119428000Y-130171000D01*
X119430000Y-130163000D01*
X119432000Y-130156000D01*
X119435000Y-130148000D01*
X119438000Y-130141000D01*
X119441000Y-130134000D01*
X119445000Y-130127000D01*
X119449000Y-130120000D01*
X119454000Y-130114000D01*
X119458000Y-130108000D01*
X119464000Y-130102000D01*
X119469000Y-130096000D01*
X119475000Y-130091000D01*
X119481000Y-130085000D01*
X119487000Y-130081000D01*
X119493000Y-130076000D01*
X119500000Y-130072000D01*
X119507000Y-130068000D01*
X119514000Y-130065000D01*
X119521000Y-130062000D01*
X119529000Y-130059000D01*
X119536000Y-130057000D01*
X119544000Y-130055000D01*
X119552000Y-130054000D01*
X119559000Y-130053000D01*
X119567000Y-130052000D01*
X119575000Y-130052000D01*
X121100000Y-130052000D01*
X121100000Y-130402000D01*
G37*
X121100000Y-131202000D02*
X119575000Y-131202000D01*
X119567000Y-131202000D01*
X119559000Y-131201000D01*
X119552000Y-131200000D01*
X119544000Y-131199000D01*
X119536000Y-131197000D01*
X119529000Y-131195000D01*
X119521000Y-131192000D01*
X119514000Y-131189000D01*
X119507000Y-131186000D01*
X119500000Y-131182000D01*
X119493000Y-131178000D01*
X119487000Y-131173000D01*
X119481000Y-131169000D01*
X119475000Y-131163000D01*
X119469000Y-131158000D01*
X119464000Y-131152000D01*
X119458000Y-131146000D01*
X119454000Y-131140000D01*
X119449000Y-131134000D01*
X119445000Y-131127000D01*
X119441000Y-131120000D01*
X119438000Y-131113000D01*
X119435000Y-131106000D01*
X119432000Y-131098000D01*
X119430000Y-131091000D01*
X119428000Y-131083000D01*
X119427000Y-131075000D01*
X119426000Y-131068000D01*
X119425000Y-131060000D01*
X119425000Y-131052000D01*
X119425000Y-131002000D01*
X119425000Y-130994000D01*
X119426000Y-130986000D01*
X119427000Y-130979000D01*
X119428000Y-130971000D01*
X119430000Y-130963000D01*
X119432000Y-130956000D01*
X119435000Y-130948000D01*
X119438000Y-130941000D01*
X119441000Y-130934000D01*
X119445000Y-130927000D01*
X119449000Y-130920000D01*
X119454000Y-130914000D01*
X119458000Y-130908000D01*
X119464000Y-130902000D01*
X119469000Y-130896000D01*
X119475000Y-130891000D01*
X119481000Y-130885000D01*
X119487000Y-130881000D01*
X119493000Y-130876000D01*
X119500000Y-130872000D01*
X119507000Y-130868000D01*
X119514000Y-130865000D01*
X119521000Y-130862000D01*
X119529000Y-130859000D01*
X119536000Y-130857000D01*
X119544000Y-130855000D01*
X119552000Y-130854000D01*
X119559000Y-130853000D01*
X119567000Y-130852000D01*
X119575000Y-130852000D01*
X121100000Y-130852000D01*
X121100000Y-131202000D01*
G36*
X121100000Y-131202000D02*
G01*
X119575000Y-131202000D01*
X119567000Y-131202000D01*
X119559000Y-131201000D01*
X119552000Y-131200000D01*
X119544000Y-131199000D01*
X119536000Y-131197000D01*
X119529000Y-131195000D01*
X119521000Y-131192000D01*
X119514000Y-131189000D01*
X119507000Y-131186000D01*
X119500000Y-131182000D01*
X119493000Y-131178000D01*
X119487000Y-131173000D01*
X119481000Y-131169000D01*
X119475000Y-131163000D01*
X119469000Y-131158000D01*
X119464000Y-131152000D01*
X119458000Y-131146000D01*
X119454000Y-131140000D01*
X119449000Y-131134000D01*
X119445000Y-131127000D01*
X119441000Y-131120000D01*
X119438000Y-131113000D01*
X119435000Y-131106000D01*
X119432000Y-131098000D01*
X119430000Y-131091000D01*
X119428000Y-131083000D01*
X119427000Y-131075000D01*
X119426000Y-131068000D01*
X119425000Y-131060000D01*
X119425000Y-131052000D01*
X119425000Y-131002000D01*
X119425000Y-130994000D01*
X119426000Y-130986000D01*
X119427000Y-130979000D01*
X119428000Y-130971000D01*
X119430000Y-130963000D01*
X119432000Y-130956000D01*
X119435000Y-130948000D01*
X119438000Y-130941000D01*
X119441000Y-130934000D01*
X119445000Y-130927000D01*
X119449000Y-130920000D01*
X119454000Y-130914000D01*
X119458000Y-130908000D01*
X119464000Y-130902000D01*
X119469000Y-130896000D01*
X119475000Y-130891000D01*
X119481000Y-130885000D01*
X119487000Y-130881000D01*
X119493000Y-130876000D01*
X119500000Y-130872000D01*
X119507000Y-130868000D01*
X119514000Y-130865000D01*
X119521000Y-130862000D01*
X119529000Y-130859000D01*
X119536000Y-130857000D01*
X119544000Y-130855000D01*
X119552000Y-130854000D01*
X119559000Y-130853000D01*
X119567000Y-130852000D01*
X119575000Y-130852000D01*
X121100000Y-130852000D01*
X121100000Y-131202000D01*
G37*
%TD*%
D11*
%TO.C,C3*%
X114287000Y-115803000D03*
X114287000Y-117353000D03*
%TD*%
D12*
%TO.C,J5*%
X106316000Y-83346400D03*
X106316000Y-95346400D03*
D13*
X108616000Y-90876400D03*
D14*
X111156000Y-89856400D03*
X108616000Y-88836400D03*
X111156000Y-87816400D03*
%TD*%
D15*
%TO.C,J13*%
X170246000Y-80500000D03*
D16*
X170246000Y-78000000D03*
X170246000Y-75500000D03*
X170246000Y-73000000D03*
X170246000Y-70500000D03*
%TD*%
D15*
%TO.C,J8*%
X176326800Y-111709200D03*
D16*
X176326800Y-109209200D03*
X176326800Y-106709200D03*
%TD*%
D17*
%TO.C,H4*%
X101600000Y-136000000D03*
X102302944Y-134302944D03*
X102302944Y-137697056D03*
X104000000Y-133600000D03*
D18*
X104000000Y-136000000D03*
D17*
X104000000Y-138400000D03*
X105697056Y-134302944D03*
X105697056Y-137697056D03*
X106400000Y-136000000D03*
%TD*%
D19*
%TO.C,TP3*%
X110096000Y-135628000D03*
%TD*%
D20*
%TO.C,R5*%
X120002000Y-120665500D03*
X120002000Y-118840500D03*
%TD*%
D21*
%TO.C,JP1*%
X127000000Y-78090000D03*
X127000000Y-79390000D03*
%TD*%
D22*
%TO.C,D10*%
X158553800Y-93286500D03*
X158553800Y-95161500D03*
%TD*%
D23*
%TO.C,J2*%
X104017000Y-115455000D03*
D24*
X104017000Y-117955000D03*
%TD*%
D20*
%TO.C,R18*%
X167386000Y-117387000D03*
X167386000Y-115562000D03*
%TD*%
D25*
%TO.C,D1*%
X110096000Y-125436000D03*
X110096000Y-121436000D03*
%TD*%
D11*
%TO.C,C14*%
X125610000Y-130678000D03*
X125610000Y-132228000D03*
%TD*%
D26*
%TO.C,R22*%
X165252400Y-73628500D03*
X165252400Y-75453500D03*
%TD*%
D20*
%TO.C,R14*%
X126085600Y-76248900D03*
X126085600Y-74423900D03*
%TD*%
D27*
%TO.C,C25*%
X163284200Y-74117200D03*
X161734200Y-74117200D03*
%TD*%
D20*
%TO.C,R15*%
X127896000Y-76248900D03*
X127896000Y-74423900D03*
%TD*%
D11*
%TO.C,C13*%
X118478000Y-114914000D03*
X118478000Y-116464000D03*
%TD*%
D28*
%TO.C,D5*%
X143390000Y-95151800D03*
X143390000Y-93276800D03*
%TD*%
D29*
%TO.C,J15*%
X118250000Y-69863000D03*
D30*
X115750000Y-69863000D03*
X113250000Y-69863000D03*
X110750000Y-69863000D03*
%TD*%
D26*
%TO.C,R12*%
X133337000Y-122269500D03*
X133337000Y-124094500D03*
%TD*%
D31*
%TO.C,L2*%
X115340000Y-113530000D03*
X116790000Y-113530000D03*
%TD*%
D32*
%TO.C,U1*%
X116946000Y-115828000D03*
X116446000Y-115828000D03*
X115946000Y-115828000D03*
X115946000Y-117328000D03*
X116446000Y-117328000D03*
X116946000Y-117328000D03*
%TD*%
D17*
%TO.C,H2*%
X173600000Y-64000000D03*
X174302944Y-62302944D03*
X174302944Y-65697056D03*
X176000000Y-61600000D03*
D18*
X176000000Y-64000000D03*
D17*
X176000000Y-66400000D03*
X177697056Y-62302944D03*
X177697056Y-65697056D03*
X178400000Y-64000000D03*
%TD*%
D27*
%TO.C,C24*%
X148145800Y-73456800D03*
X146595800Y-73456800D03*
%TD*%
D33*
%TO.C,C23*%
X175996000Y-115562000D03*
X177546000Y-115562000D03*
%TD*%
D34*
%TO.C,J16*%
X173088000Y-118229000D03*
D35*
X175628000Y-118229000D03*
X173088000Y-120769000D03*
X175628000Y-120769000D03*
X173088000Y-123309000D03*
X175628000Y-123309000D03*
X173088000Y-125849000D03*
X175628000Y-125849000D03*
X173088000Y-128389000D03*
X175628000Y-128389000D03*
%TD*%
D36*
%TO.C,L1*%
X114150000Y-136390000D03*
X117850000Y-136390000D03*
%TD*%
D26*
%TO.C,R3*%
X131747000Y-115331500D03*
X131747000Y-117156500D03*
%TD*%
D11*
%TO.C,C16*%
X120129000Y-114914000D03*
X120129000Y-116464000D03*
%TD*%
D37*
%TO.C,C28*%
X165252400Y-80510000D03*
X165252400Y-78960000D03*
%TD*%
D23*
%TO.C,J4*%
X109760400Y-76016800D03*
D24*
X109760400Y-78516800D03*
%TD*%
D38*
%TO.C,R6*%
X119410500Y-124595000D03*
X117585500Y-124595000D03*
%TD*%
D15*
%TO.C,J10*%
X169519600Y-111709200D03*
D16*
X169519600Y-109209200D03*
X169519600Y-106709200D03*
%TD*%
D27*
%TO.C,C12*%
X115971000Y-124595000D03*
X114421000Y-124595000D03*
%TD*%
D22*
%TO.C,D9*%
X156416800Y-93286500D03*
X156416800Y-95161500D03*
%TD*%
D29*
%TO.C,J14*%
X133250000Y-69863000D03*
D30*
X130750000Y-69863000D03*
X128250000Y-69863000D03*
X125750000Y-69863000D03*
%TD*%
D33*
%TO.C,C20*%
X168998000Y-115562000D03*
X170548000Y-115562000D03*
%TD*%
D26*
%TO.C,R8*%
X148343000Y-89822000D03*
X148343000Y-91647000D03*
%TD*%
D39*
%TO.C,U2*%
X129825000Y-116625000D03*
X129825000Y-115355000D03*
X129825000Y-114085000D03*
D40*
X127175000Y-114720000D03*
D39*
X129825000Y-112815000D03*
X124525000Y-112815000D03*
X124525000Y-114085000D03*
X124525000Y-115355000D03*
X124525000Y-116625000D03*
%TD*%
D20*
%TO.C,R19*%
X117509400Y-87136600D03*
X117509400Y-85311600D03*
%TD*%
D41*
%TO.C,D8*%
X110096000Y-128802000D03*
X110096000Y-132802000D03*
%TD*%
D33*
%TO.C,C9*%
X124508000Y-111164000D03*
X126058000Y-111164000D03*
%TD*%
D19*
%TO.C,TP2*%
X119133000Y-111514000D03*
%TD*%
D37*
%TO.C,C19*%
X131686000Y-124084000D03*
X131686000Y-122534000D03*
%TD*%
D34*
%TO.C,J7*%
X175260000Y-87376000D03*
D35*
X175260000Y-89916000D03*
X175260000Y-92456000D03*
X175260000Y-94996000D03*
X175260000Y-97536000D03*
X175260000Y-100076000D03*
%TD*%
D19*
%TO.C,TP5*%
X108559600Y-113530000D03*
%TD*%
D11*
%TO.C,C10*%
X122308000Y-130678000D03*
X122308000Y-132228000D03*
%TD*%
%TO.C,C11*%
X123959000Y-130678000D03*
X123959000Y-132228000D03*
%TD*%
D27*
%TO.C,C26*%
X118224000Y-73914000D03*
X116674000Y-73914000D03*
%TD*%
D37*
%TO.C,C8*%
X116446000Y-120401000D03*
X116446000Y-118851000D03*
%TD*%
D42*
%TO.C,U4*%
X135730000Y-110155000D03*
X138270000Y-110155000D03*
X135730000Y-112695000D03*
X138270000Y-112695000D03*
X135730000Y-115235000D03*
X138270000Y-115235000D03*
X135730000Y-117775000D03*
X138270000Y-117775000D03*
X135730000Y-120315000D03*
X138270000Y-120315000D03*
X135730000Y-122855000D03*
X138270000Y-122855000D03*
X135730000Y-125395000D03*
X138270000Y-125395000D03*
X135730000Y-127935000D03*
X138270000Y-127935000D03*
X135730000Y-130475000D03*
X138270000Y-130475000D03*
X135730000Y-133015000D03*
X138270000Y-133015000D03*
X161130000Y-110155000D03*
X163670000Y-110155000D03*
X161130000Y-112695000D03*
X163670000Y-112695000D03*
X161130000Y-115235000D03*
X163670000Y-115235000D03*
X161130000Y-117775000D03*
X163670000Y-117775000D03*
X161130000Y-120315000D03*
X163670000Y-120315000D03*
X161130000Y-122855000D03*
X163670000Y-122855000D03*
X161130000Y-125395000D03*
X163670000Y-125395000D03*
X161130000Y-127935000D03*
X163670000Y-127935000D03*
X161130000Y-130475000D03*
X163670000Y-130475000D03*
X161130000Y-133015000D03*
X163670000Y-133015000D03*
%TD*%
D11*
%TO.C,C4*%
X114561000Y-130678000D03*
X114561000Y-132228000D03*
%TD*%
D27*
%TO.C,C5*%
X117368000Y-126373000D03*
X115818000Y-126373000D03*
%TD*%
D26*
%TO.C,R7*%
X151137000Y-89822000D03*
X151137000Y-91647000D03*
%TD*%
%TO.C,R9*%
X133337000Y-118840500D03*
X133337000Y-120665500D03*
%TD*%
D43*
%TO.C,D11*%
X117775300Y-92409600D03*
X117775300Y-93359600D03*
X117775300Y-94309600D03*
X120145300Y-94309600D03*
X120145300Y-93359600D03*
X120145300Y-92409600D03*
%TD*%
D44*
%TO.C,H5*%
X119000000Y-106000000D03*
%TD*%
D20*
%TO.C,R2*%
X141637400Y-91690400D03*
X141637400Y-89865400D03*
%TD*%
D45*
%TO.C,R1*%
X125332500Y-122563000D03*
X127157500Y-122563000D03*
%TD*%
D27*
%TO.C,C15*%
X119400000Y-122944000D03*
X117850000Y-122944000D03*
%TD*%
D29*
%TO.C,J12*%
X163250000Y-69863000D03*
D30*
X160750000Y-69863000D03*
X158250000Y-69863000D03*
X155750000Y-69863000D03*
%TD*%
D46*
%TO.C,D3*%
X122816000Y-127138000D03*
X122816000Y-124338000D03*
%TD*%
D17*
%TO.C,H3*%
X173600000Y-136000000D03*
X174302944Y-134302944D03*
X174302944Y-137697056D03*
X176000000Y-133600000D03*
D18*
X176000000Y-136000000D03*
D17*
X176000000Y-138400000D03*
X177697056Y-134302944D03*
X177697056Y-137697056D03*
X178400000Y-136000000D03*
%TD*%
D11*
%TO.C,C21*%
X114512200Y-97791600D03*
X114512200Y-99341600D03*
%TD*%
D17*
%TO.C,H1*%
X101600000Y-64000000D03*
X102302944Y-62302944D03*
X102302944Y-65697056D03*
X104000000Y-61600000D03*
D18*
X104000000Y-64000000D03*
D17*
X104000000Y-66400000D03*
X105697056Y-62302944D03*
X105697056Y-65697056D03*
X106400000Y-64000000D03*
%TD*%
D33*
%TO.C,C27*%
X134200600Y-73456800D03*
X135750600Y-73456800D03*
%TD*%
D20*
%TO.C,R10*%
X131686000Y-120665500D03*
X131686000Y-118840500D03*
%TD*%
D11*
%TO.C,C17*%
X127261000Y-130678000D03*
X127261000Y-132228000D03*
%TD*%
%TO.C,C18*%
X121780000Y-114914000D03*
X121780000Y-116464000D03*
%TD*%
D37*
%TO.C,C22*%
X115833000Y-90318100D03*
X115833000Y-88768100D03*
%TD*%
D45*
%TO.C,R11*%
X125095500Y-118357000D03*
X126920500Y-118357000D03*
%TD*%
D29*
%TO.C,J11*%
X148250000Y-69863000D03*
D30*
X145750000Y-69863000D03*
X143250000Y-69863000D03*
X140750000Y-69863000D03*
%TD*%
D11*
%TO.C,C1*%
X112910000Y-130678000D03*
X112910000Y-132228000D03*
%TD*%
D22*
%TO.C,D7*%
X148343000Y-93304500D03*
X148343000Y-95179500D03*
%TD*%
D11*
%TO.C,C2*%
X131747000Y-112167000D03*
X131747000Y-113717000D03*
%TD*%
D28*
%TO.C,D4*%
X139910200Y-95151800D03*
X139910200Y-93276800D03*
%TD*%
D33*
%TO.C,C6*%
X113024000Y-129040000D03*
X114574000Y-129040000D03*
%TD*%
D47*
%TO.C,D12*%
X108610400Y-117955000D03*
X108610400Y-115455000D03*
%TD*%
D19*
%TO.C,TP1*%
X127266400Y-128897000D03*
%TD*%
D26*
%TO.C,R16*%
X156416800Y-89822000D03*
X156416800Y-91647000D03*
%TD*%
D22*
%TO.C,D6*%
X151129000Y-93304500D03*
X151129000Y-95179500D03*
%TD*%
D34*
%TO.C,J1*%
X131075000Y-136000000D03*
D35*
X128535000Y-136000000D03*
X125995000Y-136000000D03*
X123455000Y-136000000D03*
X120915000Y-136000000D03*
%TD*%
D34*
%TO.C,JP2*%
X111404400Y-115430000D03*
D35*
X111404400Y-117970000D03*
%TD*%
D48*
%TO.C,D13*%
X112916000Y-120601000D03*
X112916000Y-123101000D03*
%TD*%
D12*
%TO.C,J6*%
X106316000Y-98078400D03*
X106316000Y-110078400D03*
D13*
X108616000Y-105608400D03*
D14*
X111156000Y-104588400D03*
X108616000Y-103568400D03*
X111156000Y-102548400D03*
%TD*%
D19*
%TO.C,TP4*%
X130543000Y-132834000D03*
%TD*%
D26*
%TO.C,R21*%
X115833000Y-85311600D03*
X115833000Y-87136600D03*
%TD*%
D49*
%TO.C,J3*%
X104127000Y-124198000D03*
D50*
X104127000Y-129278000D03*
%TD*%
D20*
%TO.C,R20*%
X116137800Y-99322700D03*
X116137800Y-97497700D03*
%TD*%
D27*
%TO.C,C7*%
X124056600Y-129040000D03*
X122506600Y-129040000D03*
%TD*%
D34*
%TO.C,J9*%
X145050000Y-76025000D03*
D35*
X142510000Y-76025000D03*
X139970000Y-76025000D03*
X137430000Y-76025000D03*
X134890000Y-76025000D03*
%TD*%
D46*
%TO.C,D2*%
X125356000Y-127138000D03*
X125356000Y-124338000D03*
%TD*%
D20*
%TO.C,R4*%
X118224000Y-120665500D03*
X118224000Y-118840500D03*
%TD*%
D26*
%TO.C,R17*%
X158531800Y-89822000D03*
X158531800Y-91647000D03*
%TD*%
M02*
