M48
; DRILL file {KiCad 7.0.7} date Wed Nov 15 18:08:59 2023
; FORMAT={-:-/ absolute / inch / decimal}
; #@! TF.CreationDate,2023-11-15T18:08:59+01:00
; #@! TF.GenerationSoftware,Kicad,Pcbnew,7.0.7
; #@! TF.FileFunction,Plated,1,2,PTH
FMAT,2
INCH
; #@! TA.AperFunction,Plated,PTH,ComponentDrill
T1C0.0118
; #@! TA.AperFunction,Plated,PTH,ViaDrill
T2C0.0157
; #@! TA.AperFunction,Plated,PTH,ComponentDrill
T3C0.0197
; #@! TA.AperFunction,Plated,PTH,ComponentDrill
T4C0.0374
; #@! TA.AperFunction,Plated,PTH,ComponentDrill
T5C0.0382
; #@! TA.AperFunction,Plated,PTH,ComponentDrill
T6C0.0394
; #@! TA.AperFunction,Plated,PTH,ComponentDrill
T7C0.0402
; #@! TA.AperFunction,Plated,PTH,ComponentDrill
T8C0.0598
; #@! TA.AperFunction,Plated,PTH,ComponentDrill
T9C0.1260
%
G90
G05
T1
X6.1676Y-3.0261
X6.1676Y-3.0694
X6.1676Y-3.1206
X6.1676Y-3.1678
X6.2148Y-3.0261
X6.2148Y-3.0694
X6.2148Y-3.1206
X6.2148Y-3.1678
T2
X5.5835Y-2.1398
X5.5835Y-2.3348
X5.7935Y-2.0698
X5.821Y-2.3773
X5.8459Y-2.1124
X6.1085Y-1.3098
X6.1385Y-2.1298
X6.1385Y-2.3148
X6.2085Y-2.2198
X6.4101Y-3.1687
X6.9785Y-2.7248
X7.0035Y-2.6748
X7.1185Y-1.7298
X7.7135Y-1.8098
T3
X5.0934Y-0.9777
X5.0934Y-3.8123
X5.1211Y-0.9109
X5.1211Y-1.0445
X5.1211Y-3.7455
X5.1211Y-3.8791
X5.1879Y-0.8832
X5.1879Y-1.0722
X5.1879Y-3.7178
X5.1879Y-3.9068
X5.2547Y-0.9109
X5.2547Y-1.0445
X5.2547Y-3.7455
X5.2547Y-3.8791
X5.2824Y-0.9777
X5.2824Y-3.8123
X7.928Y-0.9777
X7.928Y-3.8123
X7.9557Y-0.9109
X7.9557Y-1.0445
X7.9557Y-3.7455
X7.9557Y-3.8791
X8.0225Y-0.8832
X8.0225Y-1.0722
X8.0225Y-3.7178
X8.0225Y-3.9068
X8.0893Y-0.9109
X8.0893Y-1.0445
X8.0893Y-3.7455
X8.0893Y-3.8791
X8.117Y-0.9777
X8.117Y-3.8123
T4
X5.4184Y-1.1248
X5.5168Y-1.1248
X5.6152Y-1.1248
X5.7136Y-1.1248
X6.0082Y-1.1248
X6.0082Y-1.5148
X6.1067Y-1.1248
X6.1067Y-1.5148
X6.2051Y-1.1248
X6.2051Y-1.5148
X6.3035Y-1.1248
X6.3035Y-1.5148
X6.5967Y-1.512
X6.5973Y-1.1248
X6.6951Y-1.512
X6.6957Y-1.1248
X6.7936Y-1.512
X6.7941Y-1.1248
X6.892Y-1.512
X6.8925Y-1.1248
X7.1867Y-1.12
X7.1882Y-1.5127
X7.2851Y-1.12
X7.2867Y-1.5127
X7.3836Y-1.12
X7.3851Y-1.5127
X7.482Y-1.12
X7.4835Y-1.5127
X7.8652Y-1.2451
X7.8652Y-1.3436
X7.8652Y-1.442
X7.8652Y-1.5404
X7.8652Y-1.6389
X8.0078Y-2.5714
X8.0078Y-2.6698
X8.0078Y-2.7682
T5
X5.3568Y-1.9139
X5.3568Y-1.9942
X5.3568Y-2.0746
X5.357Y-2.3855
X5.357Y-2.4658
X5.357Y-2.5461
X5.4367Y-1.9541
X5.4367Y-2.0328
X5.4367Y-2.1131
X5.4369Y-2.4257
X5.4369Y-2.5044
X5.4369Y-2.5847
T6
X5.2507Y-1.5028
X5.2507Y-1.6012
X7.9735Y-3.0298
X7.9735Y-3.1298
X7.9735Y-3.2298
X7.9735Y-3.3298
X7.9735Y-3.4298
X8.0635Y-1.8448
X8.0635Y-1.9448
X8.0635Y-2.0448
X8.0635Y-2.1448
X8.0635Y-2.2448
X8.0635Y-2.3448
X8.0735Y-3.0298
X8.0735Y-3.1298
X8.0735Y-3.2298
X8.0735Y-3.3298
X8.0735Y-3.4298
T7
X6.7085Y-2.1056
X6.7085Y-2.2056
X6.7085Y-2.3056
X6.7085Y-2.4056
X6.7085Y-2.5056
X6.7085Y-2.6056
X6.7085Y-2.7056
X6.7085Y-2.8056
X6.7085Y-2.9056
X6.7085Y-3.0056
X6.7085Y-3.1056
X6.7085Y-3.2056
X6.7085Y-3.3056
X6.7085Y-3.4056
X6.7085Y-3.5056
X7.7085Y-2.1056
X7.7085Y-2.2056
X7.7085Y-2.3056
X7.7085Y-2.4056
X7.7085Y-2.5056
X7.7085Y-2.6056
X7.7085Y-2.7056
X7.7085Y-2.8056
X7.7085Y-2.9056
X7.7085Y-3.0056
X7.7085Y-3.1056
X7.7085Y-3.2056
X7.7085Y-3.3056
X7.7085Y-3.4056
X7.7085Y-3.5056
T8
X5.184Y-3.088
X5.184Y-3.288
T9
X5.1879Y-0.9777
X5.1879Y-3.8123
X8.0225Y-0.9777
X8.0225Y-3.8123
T0
M30
