%TF.GenerationSoftware,KiCad,Pcbnew,7.0.7*%
%TF.CreationDate,2023-11-15T18:09:05+01:00*%
%TF.ProjectId,ESP32_Weather_Servizio_Meteo_Sovramontino_v0.2,45535033-325f-4576-9561-746865725f53,rev?*%
%TF.SameCoordinates,Original*%
%TF.FileFunction,Copper,L1,Top*%
%TF.FilePolarity,Positive*%
%FSLAX46Y46*%
G04 Gerber Fmt 4.6, Leading zero omitted, Abs format (unit mm)*
G04 Created by KiCad (PCBNEW 7.0.7) date 2023-11-15 18:09:05*
%MOMM*%
%LPD*%
G01*
G04 APERTURE LIST*
G04 Aperture macros list*
%AMRoundRect*
0 Rectangle with rounded corners*
0 $1 Rounding radius*
0 $2 $3 $4 $5 $6 $7 $8 $9 X,Y pos of 4 corners*
0 Add a 4 corners polygon primitive as box body*
4,1,4,$2,$3,$4,$5,$6,$7,$8,$9,$2,$3,0*
0 Add four circle primitives for the rounded corners*
1,1,$1+$1,$2,$3*
1,1,$1+$1,$4,$5*
1,1,$1+$1,$6,$7*
1,1,$1+$1,$8,$9*
0 Add four rect primitives between the rounded corners*
20,1,$1+$1,$2,$3,$4,$5,0*
20,1,$1+$1,$4,$5,$6,$7,0*
20,1,$1+$1,$6,$7,$8,$9,0*
20,1,$1+$1,$8,$9,$2,$3,0*%
G04 Aperture macros list end*
%TA.AperFunction,ComponentPad*%
%ADD10RoundRect,0.250000X0.600000X0.725000X-0.600000X0.725000X-0.600000X-0.725000X0.600000X-0.725000X0*%
%TD*%
%TA.AperFunction,ComponentPad*%
%ADD11O,1.700000X1.950000*%
%TD*%
%TA.AperFunction,ComponentPad*%
%ADD12C,1.524000*%
%TD*%
%TA.AperFunction,SMDPad,CuDef*%
%ADD13R,3.300000X4.500000*%
%TD*%
%TA.AperFunction,SMDPad,CuDef*%
%ADD14RoundRect,0.250000X-0.450000X0.262500X-0.450000X-0.262500X0.450000X-0.262500X0.450000X0.262500X0*%
%TD*%
%TA.AperFunction,SMDPad,CuDef*%
%ADD15RoundRect,0.250000X0.475000X-0.337500X0.475000X0.337500X-0.475000X0.337500X-0.475000X-0.337500X0*%
%TD*%
%TA.AperFunction,ComponentPad*%
%ADD16C,0.800000*%
%TD*%
%TA.AperFunction,ComponentPad*%
%ADD17C,6.400000*%
%TD*%
%TA.AperFunction,SMDPad,CuDef*%
%ADD18RoundRect,0.250000X0.450000X-0.262500X0.450000X0.262500X-0.450000X0.262500X-0.450000X-0.262500X0*%
%TD*%
%TA.AperFunction,SMDPad,CuDef*%
%ADD19RoundRect,0.243750X-0.456250X0.243750X-0.456250X-0.243750X0.456250X-0.243750X0.456250X0.243750X0*%
%TD*%
%TA.AperFunction,ComponentPad*%
%ADD20RoundRect,0.250000X-0.750000X0.600000X-0.750000X-0.600000X0.750000X-0.600000X0.750000X0.600000X0*%
%TD*%
%TA.AperFunction,ComponentPad*%
%ADD21O,2.000000X1.700000*%
%TD*%
%TA.AperFunction,SMDPad,CuDef*%
%ADD22RoundRect,0.250000X0.262500X0.450000X-0.262500X0.450000X-0.262500X-0.450000X0.262500X-0.450000X0*%
%TD*%
%TA.AperFunction,SMDPad,CuDef*%
%ADD23R,1.550000X0.600000*%
%TD*%
%TA.AperFunction,SMDPad,CuDef*%
%ADD24R,2.600000X3.100000*%
%TD*%
%TA.AperFunction,SMDPad,CuDef*%
%ADD25R,2.950000X4.500000*%
%TD*%
%TA.AperFunction,ComponentPad*%
%ADD26C,0.600000*%
%TD*%
%TA.AperFunction,SMDPad,CuDef*%
%ADD27RoundRect,0.250000X-1.025000X0.875000X-1.025000X-0.875000X1.025000X-0.875000X1.025000X0.875000X0*%
%TD*%
%TA.AperFunction,SMDPad,CuDef*%
%ADD28RoundRect,0.250000X-0.475000X0.337500X-0.475000X-0.337500X0.475000X-0.337500X0.475000X0.337500X0*%
%TD*%
%TA.AperFunction,ComponentPad*%
%ADD29R,3.000000X3.000000*%
%TD*%
%TA.AperFunction,ComponentPad*%
%ADD30C,3.000000*%
%TD*%
%TA.AperFunction,SMDPad,CuDef*%
%ADD31RoundRect,0.250000X-0.262500X-0.450000X0.262500X-0.450000X0.262500X0.450000X-0.262500X0.450000X0*%
%TD*%
%TA.AperFunction,SMDPad,CuDef*%
%ADD32R,5.400000X2.900000*%
%TD*%
%TA.AperFunction,ComponentPad*%
%ADD33R,2.000000X2.000000*%
%TD*%
%TA.AperFunction,ComponentPad*%
%ADD34C,2.000000*%
%TD*%
%TA.AperFunction,ComponentPad*%
%ADD35RoundRect,0.250000X0.725000X-0.600000X0.725000X0.600000X-0.725000X0.600000X-0.725000X-0.600000X0*%
%TD*%
%TA.AperFunction,ComponentPad*%
%ADD36O,1.950000X1.700000*%
%TD*%
%TA.AperFunction,SMDPad,CuDef*%
%ADD37R,2.500000X1.800000*%
%TD*%
%TA.AperFunction,SMDPad,CuDef*%
%ADD38RoundRect,0.042000X0.258000X-0.633000X0.258000X0.633000X-0.258000X0.633000X-0.258000X-0.633000X0*%
%TD*%
%TA.AperFunction,SMDPad,CuDef*%
%ADD39RoundRect,0.250000X0.550000X-1.250000X0.550000X1.250000X-0.550000X1.250000X-0.550000X-1.250000X0*%
%TD*%
%TA.AperFunction,ComponentPad*%
%ADD40R,1.700000X1.700000*%
%TD*%
%TA.AperFunction,ComponentPad*%
%ADD41O,1.700000X1.700000*%
%TD*%
%TA.AperFunction,SMDPad,CuDef*%
%ADD42RoundRect,0.250000X-0.550000X1.500000X-0.550000X-1.500000X0.550000X-1.500000X0.550000X1.500000X0*%
%TD*%
%TA.AperFunction,SMDPad,CuDef*%
%ADD43R,1.000000X1.500000*%
%TD*%
%TA.AperFunction,ViaPad*%
%ADD44C,0.800000*%
%TD*%
%TA.AperFunction,Conductor*%
%ADD45C,0.400000*%
%TD*%
%TA.AperFunction,Conductor*%
%ADD46C,0.800000*%
%TD*%
%TA.AperFunction,Conductor*%
%ADD47C,1.000000*%
%TD*%
%TA.AperFunction,Conductor*%
%ADD48C,0.250000*%
%TD*%
G04 APERTURE END LIST*
D10*
%TO.P,J14,1,Pin_1*%
%TO.N,+3.3V*%
X175056800Y-38404800D03*
D11*
%TO.P,J14,2,Pin_2*%
%TO.N,GND*%
X172556800Y-38404800D03*
%TO.P,J14,3,Pin_3*%
%TO.N,SCL*%
X170056800Y-38404800D03*
%TO.P,J14,4,Pin_4*%
%TO.N,SDA*%
X167556800Y-38404800D03*
%TD*%
D12*
%TO.P,U2,1,1*%
%TO.N,unconnected-(U2-Pad1)*%
X136061800Y-48613700D03*
%TO.P,U2,2,2*%
%TO.N,GND*%
X138091800Y-49633700D03*
%TO.P,U2,3,3*%
X136061800Y-50653700D03*
%TO.P,U2,4,4*%
%TO.N,Wind_Speed*%
X138091800Y-51633700D03*
%TO.P,U2,5,5*%
%TO.N,Wind_Dir*%
X136061800Y-52693700D03*
%TO.P,U2,6,6*%
%TO.N,unconnected-(U2-Pad6)*%
X138091800Y-53673700D03*
%TO.P,U2,7,7*%
%TO.N,unconnected-(U2-Pad7)*%
X138097800Y-65651700D03*
%TO.P,U2,8,8*%
%TO.N,unconnected-(U2-Pad8)*%
X136067800Y-64671700D03*
%TO.P,U2,9,9*%
%TO.N,GND*%
X138097800Y-63611700D03*
%TO.P,U2,10,10*%
%TO.N,Rain*%
X136067800Y-62631700D03*
%TO.P,U2,11,11*%
%TO.N,unconnected-(U2-Pad11)*%
X138097800Y-61611700D03*
%TO.P,U2,12,12*%
%TO.N,unconnected-(U2-Pad12)*%
X136067800Y-60591700D03*
%TD*%
D10*
%TO.P,J13,1,Pin_1*%
%TO.N,+5V*%
X190081000Y-38421800D03*
D11*
%TO.P,J13,2,Pin_2*%
%TO.N,GND*%
X187581000Y-38421800D03*
%TO.P,J13,3,Pin_3*%
%TO.N,SCL*%
X185081000Y-38421800D03*
%TO.P,J13,4,Pin_4*%
%TO.N,SDA*%
X182581000Y-38421800D03*
%TD*%
D10*
%TO.P,J11,1,Pin_1*%
%TO.N,+3.3V*%
X145126400Y-28570800D03*
D11*
%TO.P,J11,2,Pin_2*%
%TO.N,GND*%
X142626400Y-28570800D03*
%TO.P,J11,3,Pin_3*%
%TO.N,SCL*%
X140126400Y-28570800D03*
%TO.P,J11,4,Pin_4*%
%TO.N,SDA*%
X137626400Y-28570800D03*
%TD*%
D13*
%TO.P,D1,1,K*%
%TO.N,Net-(C8-Pad2)*%
X154256000Y-85262000D03*
%TO.P,D1,2,A*%
%TO.N,GND*%
X154256000Y-94062000D03*
%TD*%
D14*
%TO.P,R10,1*%
%TO.N,RX2*%
X159220000Y-45945500D03*
%TO.P,R10,2*%
%TO.N,Net-(D3-Pad1)*%
X159220000Y-47770500D03*
%TD*%
D15*
%TO.P,C1,1*%
%TO.N,GND*%
X144107000Y-53610500D03*
%TO.P,C1,2*%
%TO.N,Wind_Speed*%
X144107000Y-51535500D03*
%TD*%
D14*
%TO.P,R9,1*%
%TO.N,GND*%
X194272000Y-32027500D03*
%TO.P,R9,2*%
%TO.N,Net-(J12-Pad4)*%
X194272000Y-33852500D03*
%TD*%
D16*
%TO.P,H4,1*%
%TO.N,N/C*%
X131772000Y-99233000D03*
X133469056Y-95135944D03*
X133469056Y-98530056D03*
D17*
X131772000Y-96833000D03*
D16*
X131772000Y-94433000D03*
X129372000Y-96833000D03*
X130074944Y-95135944D03*
X130074944Y-98530056D03*
X134172000Y-96833000D03*
%TD*%
D15*
%TO.P,C3,1*%
%TO.N,VCC*%
X152146000Y-79675900D03*
%TO.P,C3,2*%
%TO.N,GND*%
X152146000Y-77600900D03*
%TD*%
D18*
%TO.P,R5,1*%
%TO.N,Net-(JP1-Pad1)*%
X139281000Y-39515500D03*
%TO.P,R5,2*%
%TO.N,SDA*%
X139281000Y-37690500D03*
%TD*%
D16*
%TO.P,H1,1*%
%TO.N,N/C*%
X202074944Y-23135944D03*
D17*
X203772000Y-24833000D03*
D16*
X205469056Y-26530056D03*
X205469056Y-23135944D03*
X202074944Y-26530056D03*
X203772000Y-22433000D03*
X203772000Y-27233000D03*
X206172000Y-24833000D03*
X201372000Y-24833000D03*
%TD*%
D19*
%TO.P,D6,1,K*%
%TO.N,Net-(D6-Pad1)*%
X156934000Y-49603500D03*
%TO.P,D6,2,A*%
%TO.N,+3.3V*%
X156934000Y-51478500D03*
%TD*%
D18*
%TO.P,R4,1*%
%TO.N,Net-(JP1-Pad1)*%
X141567000Y-39515500D03*
%TO.P,R4,2*%
%TO.N,SCL*%
X141567000Y-37690500D03*
%TD*%
D10*
%TO.P,J8,1,Pin_1*%
%TO.N,+3.3V*%
X175070666Y-28570800D03*
D11*
%TO.P,J8,2,Pin_2*%
%TO.N,GND*%
X172570666Y-28570800D03*
%TO.P,J8,3,Pin_3*%
%TO.N,SCL*%
X170070666Y-28570800D03*
%TO.P,J8,4,Pin_4*%
%TO.N,SDA*%
X167570666Y-28570800D03*
%TD*%
D20*
%TO.P,J2,1,Pin_1*%
%TO.N,GND*%
X133367000Y-38170800D03*
D21*
%TO.P,J2,2,Pin_2*%
%TO.N,Net-(J2-Pad2)*%
X133367000Y-40670800D03*
%TD*%
D22*
%TO.P,R3,1*%
%TO.N,Rain*%
X153782500Y-56383000D03*
%TO.P,R3,2*%
%TO.N,+3.3V*%
X151957500Y-56383000D03*
%TD*%
D23*
%TO.P,U3,1,BOOT*%
%TO.N,Net-(C8-Pad1)*%
X159956000Y-80567000D03*
%TO.P,U3,2,NC*%
%TO.N,unconnected-(U3-Pad2)*%
X159956000Y-79297000D03*
%TO.P,U3,3,NC*%
%TO.N,unconnected-(U3-Pad3)*%
X159956000Y-78027000D03*
%TO.P,U3,4,VSENSE*%
%TO.N,Net-(R7-Pad2)*%
X159956000Y-76757000D03*
%TO.P,U3,5,EN*%
%TO.N,unconnected-(U3-Pad5)*%
X154556000Y-76757000D03*
%TO.P,U3,6,GND*%
%TO.N,GND*%
X154556000Y-78027000D03*
%TO.P,U3,7,VIN*%
%TO.N,VCC*%
X154556000Y-79297000D03*
%TO.P,U3,8,PH*%
%TO.N,Net-(C8-Pad2)*%
X154556000Y-80567000D03*
D24*
%TO.P,U3,9,GNDPAD*%
%TO.N,GND*%
X157256000Y-78662000D03*
D25*
X157256000Y-78662000D03*
D26*
X157856000Y-79262000D03*
X157856000Y-80462000D03*
X156656000Y-80462000D03*
X156656000Y-79262000D03*
X156656000Y-76862000D03*
X157856000Y-77962000D03*
X156656000Y-77962000D03*
X157856000Y-76862000D03*
%TD*%
D16*
%TO.P,H3,1*%
%TO.N,N/C*%
X202074944Y-95135944D03*
X201372000Y-96833000D03*
X206172000Y-96833000D03*
X203772000Y-94433000D03*
X203772000Y-99233000D03*
D17*
X203772000Y-96833000D03*
D16*
X205469056Y-98530056D03*
X205469056Y-95135944D03*
X202074944Y-98530056D03*
%TD*%
D27*
%TO.P,C9,1*%
%TO.N,+5V*%
X162256000Y-88462000D03*
%TO.P,C9,2*%
%TO.N,GND*%
X162256000Y-94862000D03*
%TD*%
D15*
%TO.P,C5,1*%
%TO.N,VCC*%
X147282000Y-79675900D03*
%TO.P,C5,2*%
%TO.N,GND*%
X147282000Y-77600900D03*
%TD*%
D28*
%TO.P,C8,1*%
%TO.N,Net-(C8-Pad1)*%
X161256000Y-83146200D03*
%TO.P,C8,2*%
%TO.N,Net-(C8-Pad2)*%
X161256000Y-85221200D03*
%TD*%
D22*
%TO.P,R2,1*%
%TO.N,Wind_Dir*%
X153782500Y-54097000D03*
%TO.P,R2,2*%
%TO.N,+3.3V*%
X151957500Y-54097000D03*
%TD*%
D29*
%TO.P,J1,1,Pin_1*%
%TO.N,GND*%
X131673600Y-78435200D03*
D30*
%TO.P,J1,2,Pin_2*%
%TO.N,Net-(J1-Pad2)*%
X131673600Y-83515200D03*
%TD*%
D31*
%TO.P,R1,1*%
%TO.N,+3.3V*%
X151957500Y-58796000D03*
%TO.P,R1,2*%
%TO.N,Wind_Speed*%
X153782500Y-58796000D03*
%TD*%
D32*
%TO.P,L1,1,1*%
%TO.N,Net-(C8-Pad2)*%
X143256000Y-84712000D03*
%TO.P,L1,2,2*%
%TO.N,+5V*%
X143256000Y-94612000D03*
%TD*%
D33*
%TO.P,U1,1,3V3*%
%TO.N,+3.3V*%
X195796000Y-89043000D03*
D34*
%TO.P,U1,2,GND*%
%TO.N,GND*%
X195796000Y-86503000D03*
%TO.P,U1,3,D15*%
%TO.N,GPIO_Out_2*%
X195796000Y-83963000D03*
%TO.P,U1,4,D2*%
%TO.N,GPIO_Out_1*%
X195796000Y-81423000D03*
%TO.P,U1,5,D4*%
%TO.N,DS18B20*%
X195796000Y-78883000D03*
%TO.P,U1,6,RX2*%
%TO.N,RX2*%
X195796000Y-76343000D03*
%TO.P,U1,7,TX2*%
%TO.N,TX2*%
X195796000Y-73803000D03*
%TO.P,U1,8,D5*%
%TO.N,CS*%
X195796000Y-71263000D03*
%TO.P,U1,9,D18*%
%TO.N,SCK*%
X195796000Y-68723000D03*
%TO.P,U1,10,D19*%
%TO.N,MISO*%
X195796000Y-66183000D03*
%TO.P,U1,11,D21*%
%TO.N,SDA*%
X195796000Y-63643000D03*
%TO.P,U1,12,RX0*%
%TO.N,unconnected-(U1-Pad12)*%
X195796000Y-61103000D03*
%TO.P,U1,13,TX0*%
%TO.N,unconnected-(U1-Pad13)*%
X195796000Y-58563000D03*
%TO.P,U1,14,D22*%
%TO.N,SCL*%
X195796000Y-56023000D03*
%TO.P,U1,15,D23*%
%TO.N,MOSI*%
X195796000Y-53483000D03*
%TO.P,U1,16,EN*%
%TO.N,Net-(J2-Pad2)*%
X170396000Y-53483000D03*
%TO.P,U1,17,VP*%
%TO.N,unconnected-(U1-Pad17)*%
X170396000Y-56023000D03*
%TO.P,U1,18,VN*%
%TO.N,unconnected-(U1-Pad18)*%
X170396000Y-58563000D03*
%TO.P,U1,19,D34*%
%TO.N,unconnected-(U1-Pad19)*%
X170396000Y-61103000D03*
%TO.P,U1,20,D35*%
%TO.N,Wind_Dir*%
X170396000Y-63643000D03*
%TO.P,U1,21,D32*%
%TO.N,Rain*%
X170396000Y-66183000D03*
%TO.P,U1,22,D33*%
%TO.N,Wind_Speed*%
X170396000Y-68723000D03*
%TO.P,U1,23,D25*%
%TO.N,GPIO_Out_8*%
X170396000Y-71263000D03*
%TO.P,U1,24,D26*%
%TO.N,GPIO_Out_7*%
X170396000Y-73803000D03*
%TO.P,U1,25,D27*%
%TO.N,GPIO_Out_6*%
X170396000Y-76343000D03*
%TO.P,U1,26,D14*%
%TO.N,GPIO_Out_5*%
X170396000Y-78883000D03*
%TO.P,U1,27,D12*%
%TO.N,GPIO_Out_4*%
X170396000Y-81423000D03*
%TO.P,U1,28,D13*%
%TO.N,GPIO_Out_3*%
X170396000Y-83963000D03*
%TO.P,U1,29,GND*%
%TO.N,GND*%
X170396000Y-86503000D03*
%TO.P,U1,30,VIN*%
%TO.N,+5V*%
X170396000Y-89043000D03*
%TD*%
D35*
%TO.P,J12,1,Pin_1*%
%TO.N,+5V*%
X199775200Y-41626800D03*
D36*
%TO.P,J12,2,Pin_2*%
%TO.N,SDA*%
X199775200Y-39126800D03*
%TO.P,J12,3,Pin_3*%
%TO.N,SCL*%
X199775200Y-36626800D03*
%TO.P,J12,4,Pin_4*%
%TO.N,Net-(J12-Pad4)*%
X199775200Y-34126800D03*
%TO.P,J12,5,Pin_5*%
%TO.N,GND*%
X199775200Y-31626800D03*
%TD*%
D18*
%TO.P,R7,1*%
%TO.N,+5V*%
X165062000Y-78941300D03*
%TO.P,R7,2*%
%TO.N,Net-(R7-Pad2)*%
X165062000Y-77116300D03*
%TD*%
D37*
%TO.P,D7,1,K*%
%TO.N,VCC*%
X134296000Y-88895000D03*
%TO.P,D7,2,A*%
%TO.N,Net-(J1-Pad2)*%
X130296000Y-88895000D03*
%TD*%
D10*
%TO.P,J9,1,Pin_1*%
%TO.N,+3.3V*%
X190042800Y-28448000D03*
D11*
%TO.P,J9,2,Pin_2*%
%TO.N,GND*%
X187542800Y-28448000D03*
%TO.P,J9,3,Pin_3*%
%TO.N,SCL*%
X185042800Y-28448000D03*
%TO.P,J9,4,Pin_4*%
%TO.N,SDA*%
X182542800Y-28448000D03*
%TD*%
D38*
%TO.P,D2,1*%
%TO.N,unconnected-(D2-Pad1)*%
X146586000Y-57568000D03*
%TO.P,D2,2*%
%TO.N,GND*%
X147536000Y-57568000D03*
%TO.P,D2,3*%
%TO.N,Rain*%
X148486000Y-57568000D03*
%TO.P,D2,4*%
%TO.N,Wind_Speed*%
X148486000Y-55198000D03*
%TO.P,D2,5*%
%TO.N,+3.3V*%
X147536000Y-55198000D03*
%TO.P,D2,6*%
%TO.N,Wind_Dir*%
X146586000Y-55198000D03*
%TD*%
D14*
%TO.P,R12,1*%
%TO.N,GND*%
X163771000Y-45945500D03*
%TO.P,R12,2*%
%TO.N,Net-(D5-Pad1)*%
X163771000Y-47770500D03*
%TD*%
%TO.P,R11,1*%
%TO.N,TX2*%
X161506000Y-45945500D03*
%TO.P,R11,2*%
%TO.N,Net-(D4-Pad1)*%
X161506000Y-47770500D03*
%TD*%
D15*
%TO.P,C6,1*%
%TO.N,Rain*%
X144488000Y-61230500D03*
%TO.P,C6,2*%
%TO.N,GND*%
X144488000Y-59155500D03*
%TD*%
D28*
%TO.P,C11,1*%
%TO.N,+5V*%
X167094000Y-90588500D03*
%TO.P,C11,2*%
%TO.N,GND*%
X167094000Y-92663500D03*
%TD*%
D39*
%TO.P,C2,1*%
%TO.N,VCC*%
X140424000Y-80838400D03*
%TO.P,C2,2*%
%TO.N,GND*%
X140424000Y-76438400D03*
%TD*%
D15*
%TO.P,C4,1*%
%TO.N,VCC*%
X149822000Y-79675900D03*
%TO.P,C4,2*%
%TO.N,GND*%
X149822000Y-77600900D03*
%TD*%
D40*
%TO.P,J3,1,Pin_1*%
%TO.N,+3.3V*%
X202527000Y-76957000D03*
D41*
%TO.P,J3,2,Pin_2*%
%TO.N,GND*%
X205067000Y-76957000D03*
%TO.P,J3,3,Pin_3*%
%TO.N,GPIO_Out_1*%
X202527000Y-79497000D03*
%TO.P,J3,4,Pin_4*%
%TO.N,GPIO_Out_3*%
X205067000Y-79497000D03*
%TO.P,J3,5,Pin_5*%
%TO.N,GPIO_Out_2*%
X202527000Y-82037000D03*
%TO.P,J3,6,Pin_6*%
%TO.N,GPIO_Out_4*%
X205067000Y-82037000D03*
%TO.P,J3,7,Pin_7*%
%TO.N,GPIO_Out_8*%
X202527000Y-84577000D03*
%TO.P,J3,8,Pin_8*%
%TO.N,GPIO_Out_5*%
X205067000Y-84577000D03*
%TO.P,J3,9,Pin_9*%
%TO.N,GPIO_Out_7*%
X202527000Y-87117000D03*
%TO.P,J3,10,Pin_10*%
%TO.N,GPIO_Out_6*%
X205067000Y-87117000D03*
%TD*%
D14*
%TO.P,R13,1*%
%TO.N,GND*%
X156934000Y-45945500D03*
%TO.P,R13,2*%
%TO.N,Net-(D6-Pad1)*%
X156934000Y-47770500D03*
%TD*%
D35*
%TO.P,J5,1,Pin_1*%
%TO.N,+3.3V*%
X203399000Y-70313000D03*
D36*
%TO.P,J5,2,Pin_2*%
%TO.N,DS18B20*%
X203399000Y-67813000D03*
%TO.P,J5,3,Pin_3*%
%TO.N,GND*%
X203399000Y-65313000D03*
%TD*%
D14*
%TO.P,R8,1*%
%TO.N,Net-(R7-Pad2)*%
X162814000Y-77116300D03*
%TO.P,R8,2*%
%TO.N,GND*%
X162814000Y-78941300D03*
%TD*%
D40*
%TO.P,J10,1,Pin_1*%
%TO.N,CS*%
X204813000Y-59558000D03*
D41*
%TO.P,J10,2,Pin_2*%
%TO.N,SCK*%
X204813000Y-57018000D03*
%TO.P,J10,3,Pin_3*%
%TO.N,MISO*%
X204813000Y-54478000D03*
%TO.P,J10,4,Pin_4*%
%TO.N,MOSI*%
X204813000Y-51938000D03*
%TO.P,J10,5,Pin_5*%
%TO.N,+3.3V*%
X204813000Y-49398000D03*
%TO.P,J10,6,Pin_6*%
%TO.N,GND*%
X204813000Y-46858000D03*
%TD*%
D42*
%TO.P,C10,1*%
%TO.N,+5V*%
X162256000Y-88962000D03*
%TO.P,C10,2*%
%TO.N,GND*%
X162256000Y-94362000D03*
%TD*%
D10*
%TO.P,J7,1,Pin_1*%
%TO.N,+3.3V*%
X160109000Y-28570000D03*
D11*
%TO.P,J7,2,Pin_2*%
%TO.N,GND*%
X157609000Y-28570000D03*
%TO.P,J7,3,Pin_3*%
%TO.N,SCL*%
X155109000Y-28570000D03*
%TO.P,J7,4,Pin_4*%
%TO.N,SDA*%
X152609000Y-28570000D03*
%TD*%
D16*
%TO.P,H2,1*%
%TO.N,N/C*%
X131772000Y-27233000D03*
D17*
X131772000Y-24833000D03*
D16*
X134172000Y-24833000D03*
X130074944Y-23135944D03*
X133469056Y-23135944D03*
X130074944Y-26530056D03*
X133469056Y-26530056D03*
X131772000Y-22433000D03*
X129372000Y-24833000D03*
%TD*%
D43*
%TO.P,JP1,1,A*%
%TO.N,Net-(JP1-Pad1)*%
X144930200Y-39568200D03*
%TO.P,JP1,2,B*%
%TO.N,+3.3V*%
X146230200Y-39568200D03*
%TD*%
D19*
%TO.P,D5,1,K*%
%TO.N,Net-(D5-Pad1)*%
X163792000Y-49603500D03*
%TO.P,D5,2,A*%
%TO.N,+5V*%
X163792000Y-51478500D03*
%TD*%
D10*
%TO.P,J4,1,Pin_1*%
%TO.N,+3.3V*%
X160109000Y-38476000D03*
D11*
%TO.P,J4,2,Pin_2*%
%TO.N,GND*%
X157609000Y-38476000D03*
%TO.P,J4,3,Pin_3*%
%TO.N,TX2*%
X155109000Y-38476000D03*
%TO.P,J4,4,Pin_4*%
%TO.N,RX2*%
X152609000Y-38476000D03*
%TD*%
D19*
%TO.P,D3,1,K*%
%TO.N,Net-(D3-Pad1)*%
X159220000Y-49603500D03*
%TO.P,D3,2,A*%
%TO.N,+3.3V*%
X159220000Y-51478500D03*
%TD*%
D15*
%TO.P,C7,1*%
%TO.N,VCC*%
X144869000Y-79675900D03*
%TO.P,C7,2*%
%TO.N,GND*%
X144869000Y-77600900D03*
%TD*%
D19*
%TO.P,D4,1,K*%
%TO.N,Net-(D4-Pad1)*%
X161506000Y-49603500D03*
%TO.P,D4,2,A*%
%TO.N,+3.3V*%
X161506000Y-51478500D03*
%TD*%
D18*
%TO.P,R6,1*%
%TO.N,+3.3V*%
X191478000Y-81679500D03*
%TO.P,R6,2*%
%TO.N,DS18B20*%
X191478000Y-79854500D03*
%TD*%
D44*
%TO.N,GND*%
X162816054Y-80484980D03*
X141821000Y-54351000D03*
X141821000Y-59304000D03*
%TO.N,Wind_Speed*%
X155918000Y-58796000D03*
X148486000Y-53655000D03*
%TO.N,Rain*%
X157696000Y-56383000D03*
X147853500Y-60383500D03*
%TO.N,+5V*%
X180810000Y-43937000D03*
%TO.N,Wind_Dir*%
X155918000Y-54097000D03*
X147155000Y-52573000D03*
%TO.N,SCL*%
X155156000Y-33269000D03*
X195923000Y-45969000D03*
%TO.N,RX2*%
X177254000Y-69210000D03*
%TO.N,TX2*%
X177889000Y-67940000D03*
%TD*%
D45*
%TO.N,GND*%
X156910500Y-45969000D02*
X156934000Y-45945500D01*
X136061800Y-50653700D02*
X134723300Y-50653700D01*
D46*
X166334000Y-94862000D02*
X167221000Y-93975000D01*
D47*
X172682000Y-92705000D02*
X173698000Y-91689000D01*
D45*
X133693000Y-51684000D02*
X133693000Y-54605000D01*
D47*
X136545600Y-76438400D02*
X142855500Y-76438400D01*
X142855500Y-76438400D02*
X144018000Y-77600900D01*
D46*
X163771000Y-42138000D02*
X163771000Y-45945500D01*
D47*
X153052900Y-77600900D02*
X153479000Y-78027000D01*
X152146000Y-77600900D02*
X153052900Y-77600900D01*
D46*
X162816054Y-80484980D02*
X162814000Y-80482926D01*
X157609000Y-38476000D02*
X157609000Y-40421000D01*
D45*
X147536000Y-58923000D02*
X147536000Y-57568000D01*
D46*
X158418000Y-94062000D02*
X159220000Y-94864000D01*
D45*
X138091800Y-49633700D02*
X137081800Y-49633700D01*
X156680000Y-36190000D02*
X150965000Y-36190000D01*
X138392000Y-59304000D02*
X141821000Y-59304000D01*
D46*
X154256000Y-94062000D02*
X158418000Y-94062000D01*
D45*
X150076000Y-44445000D02*
X151600000Y-45969000D01*
X150965000Y-36190000D02*
X150076000Y-37079000D01*
X137081800Y-49633700D02*
X136061800Y-50653700D01*
X147155000Y-59304000D02*
X147536000Y-58923000D01*
D47*
X173698000Y-91689000D02*
X173698000Y-87625000D01*
X146727333Y-77600900D02*
X149436666Y-77600900D01*
D45*
X141821000Y-59304000D02*
X147155000Y-59304000D01*
D47*
X199775200Y-31626800D02*
X199374500Y-32027500D01*
D46*
X163157000Y-41524000D02*
X163771000Y-42138000D01*
D47*
X153479000Y-78027000D02*
X154556000Y-78027000D01*
D45*
X142561500Y-53610500D02*
X141821000Y-54351000D01*
D46*
X162127000Y-94991000D02*
X162256000Y-94862000D01*
X167221000Y-93975000D02*
X167221000Y-92790500D01*
X162814000Y-80482926D02*
X162814000Y-78941300D01*
D47*
X167094000Y-92663500D02*
X167135500Y-92705000D01*
X131673600Y-78435200D02*
X134548800Y-78435200D01*
D46*
X157609000Y-40421000D02*
X158712000Y-41524000D01*
X162256000Y-94862000D02*
X166334000Y-94862000D01*
D47*
X199374500Y-32027500D02*
X194272000Y-32027500D01*
D48*
X144089900Y-77529000D02*
X144018000Y-77600900D01*
D46*
X157609000Y-38476000D02*
X157609000Y-37119000D01*
D48*
X153860000Y-78027000D02*
X154556000Y-78027000D01*
D47*
X172576000Y-86503000D02*
X170396000Y-86503000D01*
X167135500Y-92705000D02*
X172682000Y-92705000D01*
D46*
X158712000Y-41524000D02*
X163157000Y-41524000D01*
D47*
X152146000Y-77600900D02*
X149436666Y-77600900D01*
D45*
X150076000Y-37079000D02*
X150076000Y-44445000D01*
X151600000Y-45969000D02*
X156910500Y-45969000D01*
D47*
X173698000Y-87625000D02*
X172576000Y-86503000D01*
D45*
X144107000Y-53610500D02*
X142561500Y-53610500D01*
D46*
X157609000Y-38476000D02*
X157609000Y-28570000D01*
D47*
X146727333Y-77600900D02*
X144018000Y-77600900D01*
D46*
X167221000Y-92790500D02*
X167135500Y-92705000D01*
D45*
X134723300Y-50653700D02*
X133693000Y-51684000D01*
D47*
X134548800Y-78435200D02*
X136545600Y-76438400D01*
D46*
X159220000Y-94864000D02*
X162127000Y-94864000D01*
D45*
X133693000Y-54605000D02*
X138392000Y-59304000D01*
X157609000Y-37119000D02*
X156680000Y-36190000D01*
%TO.N,Wind_Speed*%
X162776000Y-60066000D02*
X162776000Y-67305000D01*
D48*
X148486000Y-53655000D02*
X148486000Y-52253000D01*
X148486000Y-52253000D02*
X147866700Y-51633700D01*
X147866700Y-51633700D02*
X138091800Y-51633700D01*
D45*
X155918000Y-58796000D02*
X161506000Y-58796000D01*
X164194000Y-68723000D02*
X170396000Y-68723000D01*
X153782500Y-58796000D02*
X155918000Y-58796000D01*
D48*
X148486000Y-55198000D02*
X148486000Y-53655000D01*
D45*
X162776000Y-67305000D02*
X164194000Y-68723000D01*
X161506000Y-58796000D02*
X162776000Y-60066000D01*
D46*
%TO.N,VCC*%
X134296000Y-84863000D02*
X138320600Y-80838400D01*
X152158100Y-79688000D02*
X152146000Y-79675900D01*
X142452100Y-79675900D02*
X152146000Y-79675900D01*
X141289600Y-80838400D02*
X142452100Y-79675900D01*
X134296000Y-88895000D02*
X134296000Y-84863000D01*
X153626000Y-79297000D02*
X153235000Y-79688000D01*
X154556000Y-79297000D02*
X153626000Y-79297000D01*
X153235000Y-79688000D02*
X152158100Y-79688000D01*
X138320600Y-80838400D02*
X141289600Y-80838400D01*
D45*
%TO.N,Rain*%
X165210000Y-66183000D02*
X170396000Y-66183000D01*
D48*
X147006500Y-61230500D02*
X144488000Y-61230500D01*
X148486000Y-57568000D02*
X148552000Y-57634000D01*
X147853500Y-60383500D02*
X147006500Y-61230500D01*
D45*
X163919000Y-64892000D02*
X165210000Y-66183000D01*
D48*
X144488000Y-61230500D02*
X143782200Y-60524700D01*
X136995000Y-61177249D02*
X136995000Y-61704500D01*
D45*
X163919000Y-58288000D02*
X163919000Y-64892000D01*
X157696000Y-56383000D02*
X162014000Y-56383000D01*
D48*
X148552000Y-59685000D02*
X147853500Y-60383500D01*
X136995000Y-61704500D02*
X136067800Y-62631700D01*
D45*
X162014000Y-56383000D02*
X163919000Y-58288000D01*
D48*
X137647549Y-60524700D02*
X136995000Y-61177249D01*
X143782200Y-60524700D02*
X137647549Y-60524700D01*
X148552000Y-57634000D02*
X148552000Y-59685000D01*
D45*
X155791000Y-56383000D02*
X157696000Y-56383000D01*
X153782500Y-56383000D02*
X155791000Y-56383000D01*
D46*
%TO.N,Net-(C8-Pad1)*%
X161256000Y-80978000D02*
X160845000Y-80567000D01*
X160845000Y-80567000D02*
X159956000Y-80567000D01*
X161256000Y-83146200D02*
X161256000Y-80978000D01*
%TO.N,Net-(C8-Pad2)*%
X161215200Y-85262000D02*
X161256000Y-85221200D01*
X154556000Y-84962000D02*
X154256000Y-85262000D01*
X153706000Y-84712000D02*
X154256000Y-85262000D01*
X154256000Y-85262000D02*
X161215200Y-85262000D01*
X143256000Y-84712000D02*
X153706000Y-84712000D01*
X154556000Y-80567000D02*
X154556000Y-84962000D01*
%TO.N,+5V*%
X165062000Y-78941300D02*
X165062000Y-85656000D01*
X143256000Y-94612000D02*
X143978000Y-94612000D01*
D45*
X165902500Y-51478500D02*
X166840000Y-50541000D01*
X166840000Y-50541000D02*
X166840000Y-44699000D01*
X163792000Y-51478500D02*
X165902500Y-51478500D01*
D46*
X165467500Y-88962000D02*
X162256000Y-88962000D01*
X162256000Y-88962000D02*
X164756500Y-88962000D01*
X168194500Y-90588500D02*
X167094000Y-90588500D01*
X165062000Y-85656000D02*
X162256000Y-88462000D01*
X169709600Y-89073400D02*
X168194500Y-90588500D01*
X149628000Y-88962000D02*
X162256000Y-88962000D01*
X143978000Y-94612000D02*
X149628000Y-88962000D01*
D45*
X166840000Y-44699000D02*
X167602000Y-43937000D01*
D46*
X167094000Y-90588500D02*
X165467500Y-88962000D01*
D45*
X167602000Y-43937000D02*
X180810000Y-43937000D01*
D46*
%TO.N,+3.3V*%
X202527000Y-30348000D02*
X200627000Y-28448000D01*
D45*
X146230200Y-47330200D02*
X146230200Y-39568200D01*
D46*
X145126400Y-28570800D02*
X145126400Y-34542400D01*
X200627000Y-28448000D02*
X190042800Y-28448000D01*
X146230200Y-35646200D02*
X146230200Y-39568200D01*
D45*
X151957500Y-58796000D02*
X151957500Y-56383000D01*
X151703500Y-56383000D02*
X151957500Y-56129000D01*
D46*
X175056800Y-28584666D02*
X175070666Y-28570800D01*
X204813000Y-49398000D02*
X203289000Y-49398000D01*
D45*
X153299500Y-51478500D02*
X152694500Y-51478500D01*
X150378500Y-51478500D02*
X146230200Y-47330200D01*
X153299500Y-51478500D02*
X150378500Y-51478500D01*
X152694500Y-51478500D02*
X151981000Y-52192000D01*
X147917000Y-56383000D02*
X151703500Y-56383000D01*
X147536000Y-56002000D02*
X147917000Y-56383000D01*
X151981000Y-54073500D02*
X151957500Y-54097000D01*
X151981000Y-52192000D02*
X151981000Y-54073500D01*
D46*
X202527000Y-48636000D02*
X202527000Y-30348000D01*
X203289000Y-49398000D02*
X202527000Y-48636000D01*
D45*
X159220000Y-51478500D02*
X153299500Y-51478500D01*
X159220000Y-51478500D02*
X161506000Y-51478500D01*
D46*
X175056800Y-38404800D02*
X175056800Y-28584666D01*
X160109000Y-28570000D02*
X160109000Y-38476000D01*
X191478000Y-81679500D02*
X191478000Y-85720000D01*
D45*
X147536000Y-55198000D02*
X147536000Y-56002000D01*
X151957500Y-54097000D02*
X151957500Y-56383000D01*
D46*
X145126400Y-34542400D02*
X146230200Y-35646200D01*
X191478000Y-85720000D02*
X194831400Y-89073400D01*
D48*
%TO.N,Wind_Dir*%
X136061800Y-52693700D02*
X136061800Y-53771330D01*
D45*
X164935000Y-62225000D02*
X166383400Y-63673400D01*
D48*
X146647000Y-55259000D02*
X146586000Y-55198000D01*
D45*
X162014000Y-54097000D02*
X164935000Y-57018000D01*
X164935000Y-57018000D02*
X164935000Y-62225000D01*
D48*
X146266000Y-56383000D02*
X146647000Y-56002000D01*
X146586000Y-53142000D02*
X146586000Y-55198000D01*
X146647000Y-56002000D02*
X146647000Y-55259000D01*
D45*
X153782500Y-54097000D02*
X155918000Y-54097000D01*
X155918000Y-54097000D02*
X162014000Y-54097000D01*
D48*
X138673470Y-56383000D02*
X146266000Y-56383000D01*
D45*
X166383400Y-63673400D02*
X170365600Y-63673400D01*
D48*
X147155000Y-52573000D02*
X146586000Y-53142000D01*
X136061800Y-53771330D02*
X138673470Y-56383000D01*
D45*
X170365600Y-63673400D02*
X170396000Y-63643000D01*
D48*
%TO.N,GPIO_Out_4*%
X178580604Y-92382000D02*
X175857000Y-89658396D01*
X175857000Y-89658396D02*
X175857000Y-83180000D01*
X204756396Y-92382000D02*
X178580604Y-92382000D01*
X206903000Y-82857000D02*
X206903000Y-90235396D01*
X205067000Y-82037000D02*
X206083000Y-82037000D01*
X206903000Y-90235396D02*
X204756396Y-92382000D01*
X206083000Y-82037000D02*
X206903000Y-82857000D01*
X174100000Y-81423000D02*
X170396000Y-81423000D01*
X175857000Y-83180000D02*
X174100000Y-81423000D01*
%TO.N,GPIO_Out_3*%
X204942792Y-92832000D02*
X178394208Y-92832000D01*
X206718000Y-79497000D02*
X207353000Y-80132000D01*
X207353000Y-80132000D02*
X207353000Y-90421792D01*
X174100000Y-83963000D02*
X170396000Y-83963000D01*
X175349000Y-85212000D02*
X174100000Y-83963000D01*
X207353000Y-90421792D02*
X204942792Y-92832000D01*
X175349000Y-89786792D02*
X175349000Y-85212000D01*
X178394208Y-92832000D02*
X175349000Y-89786792D01*
X205067000Y-79497000D02*
X206718000Y-79497000D01*
%TO.N,GPIO_Out_2*%
X197828000Y-82545000D02*
X198336000Y-82037000D01*
X197299000Y-83963000D02*
X197828000Y-83434000D01*
X195796000Y-83963000D02*
X197299000Y-83963000D01*
X197828000Y-83434000D02*
X197828000Y-82545000D01*
X198336000Y-82037000D02*
X202527000Y-82037000D01*
%TO.N,GPIO_Out_1*%
X198336000Y-80132000D02*
X198971000Y-79497000D01*
X198336000Y-80640000D02*
X198336000Y-80132000D01*
X198971000Y-79497000D02*
X202527000Y-79497000D01*
X197553000Y-81423000D02*
X198336000Y-80640000D01*
X195796000Y-81423000D02*
X197553000Y-81423000D01*
D45*
%TO.N,DS18B20*%
X199860000Y-75941000D02*
X196887600Y-78913400D01*
X203399000Y-67813000D02*
X204940000Y-67813000D01*
X194982600Y-78913400D02*
X194018000Y-79878000D01*
X194018000Y-79878000D02*
X191501500Y-79878000D01*
X199860000Y-74544000D02*
X199860000Y-75941000D01*
X201130000Y-73274000D02*
X199860000Y-74544000D01*
X196887600Y-78913400D02*
X194982600Y-78913400D01*
X205575000Y-72639000D02*
X204940000Y-73274000D01*
X204940000Y-67813000D02*
X205575000Y-68448000D01*
X204940000Y-73274000D02*
X201130000Y-73274000D01*
X191501500Y-79878000D02*
X191478000Y-79854500D01*
X205575000Y-68448000D02*
X205575000Y-72639000D01*
%TO.N,SCL*%
X155109000Y-28570000D02*
X155109000Y-33222000D01*
X185140400Y-36626800D02*
X185042800Y-36529200D01*
X185042800Y-36529200D02*
X185042800Y-37037200D01*
X193383000Y-48509000D02*
X193383000Y-53589000D01*
X155098533Y-28621600D02*
X155098533Y-26480533D01*
X140126400Y-26454600D02*
X140126400Y-28570800D01*
X185564800Y-36626800D02*
X185140400Y-36626800D01*
X185086200Y-36148200D02*
X185042800Y-36148200D01*
X170070666Y-38390934D02*
X170056800Y-38404800D01*
X185042800Y-37164200D02*
X185042800Y-38380000D01*
X141579600Y-31122600D02*
X141579600Y-37677900D01*
X185453200Y-36626800D02*
X185042800Y-37037200D01*
X155098533Y-26480533D02*
X154267000Y-25649000D01*
X195923000Y-45969000D02*
X193383000Y-48509000D01*
X140126400Y-28570800D02*
X140126400Y-29669400D01*
X185564800Y-36626800D02*
X185453200Y-36626800D01*
X185042800Y-37037200D02*
X185042800Y-37164200D01*
X140932000Y-25649000D02*
X140126400Y-26454600D01*
X170070666Y-28570800D02*
X170070666Y-38390934D01*
X185042800Y-36148200D02*
X185042800Y-36529200D01*
X193383000Y-53589000D02*
X195796000Y-56002000D01*
X185042800Y-28448000D02*
X185042800Y-35513200D01*
X155109000Y-33222000D02*
X155156000Y-33269000D01*
X154267000Y-25649000D02*
X140932000Y-25649000D01*
X140126400Y-29669400D02*
X141579600Y-31122600D01*
X141579600Y-37677900D02*
X141567000Y-37690500D01*
X185042800Y-35513200D02*
X185042800Y-36148200D01*
X185564800Y-36626800D02*
X185086200Y-36148200D01*
X199775200Y-36626800D02*
X185564800Y-36626800D01*
%TO.N,SDA*%
X182542800Y-38380000D02*
X182501000Y-38421800D01*
X139293600Y-31376600D02*
X139293600Y-37677900D01*
X182501000Y-38421800D02*
X182501000Y-40167000D01*
X139293600Y-37677900D02*
X139281000Y-37690500D01*
X168745000Y-41270000D02*
X183604000Y-41270000D01*
X182542800Y-28448000D02*
X182542800Y-38380000D01*
X167556800Y-38404800D02*
X167556800Y-40081800D01*
X137626400Y-28570800D02*
X137626400Y-25525600D01*
X192494000Y-42413000D02*
X192494000Y-60447000D01*
X167570666Y-38390934D02*
X167556800Y-38404800D01*
X195399200Y-39126800D02*
X199775200Y-39126800D01*
X167556800Y-40081800D02*
X168745000Y-41270000D01*
X167570666Y-28570800D02*
X167570666Y-38390934D01*
X139027000Y-24125000D02*
X166078000Y-24125000D01*
X167570666Y-25617666D02*
X167570666Y-28570800D01*
X193002000Y-41905000D02*
X192494000Y-42413000D01*
X192494000Y-60447000D02*
X195720400Y-63673400D01*
X166078000Y-24125000D02*
X167570666Y-25617666D01*
X192367000Y-41270000D02*
X193002000Y-41905000D01*
X137626400Y-25525600D02*
X139027000Y-24125000D01*
X183604000Y-41270000D02*
X192367000Y-41270000D01*
X193002000Y-41905000D02*
X193002000Y-41524000D01*
X182501000Y-40167000D02*
X183604000Y-41270000D01*
X193002000Y-41524000D02*
X195399200Y-39126800D01*
X137626400Y-28570800D02*
X137626400Y-29709400D01*
X137626400Y-29709400D02*
X139293600Y-31376600D01*
%TO.N,CS*%
X201130000Y-60320000D02*
X201892000Y-59558000D01*
X201892000Y-59558000D02*
X204813000Y-59558000D01*
X201130000Y-68448000D02*
X201130000Y-60320000D01*
X196796000Y-71293400D02*
X198284600Y-71293400D01*
X198284600Y-71293400D02*
X201130000Y-68448000D01*
%TO.N,SCK*%
X196796000Y-68753400D02*
X198157600Y-68753400D01*
X200114000Y-66797000D02*
X200114000Y-58415000D01*
X201511000Y-57018000D02*
X204813000Y-57018000D01*
X200114000Y-58415000D02*
X201511000Y-57018000D01*
X198157600Y-68753400D02*
X200114000Y-66797000D01*
%TO.N,MOSI*%
X201130000Y-51938000D02*
X204813000Y-51938000D01*
X196796000Y-53513400D02*
X199554600Y-53513400D01*
X199554600Y-53513400D02*
X201130000Y-51938000D01*
%TO.N,MISO*%
X200241000Y-54478000D02*
X204813000Y-54478000D01*
X199098000Y-65019000D02*
X199098000Y-55621000D01*
X197903600Y-66213400D02*
X199098000Y-65019000D01*
X196796000Y-66213400D02*
X197903600Y-66213400D01*
X199098000Y-55621000D02*
X200241000Y-54478000D01*
D48*
%TO.N,Net-(J12-Pad4)*%
X195914400Y-33852500D02*
X196188700Y-34126800D01*
X195914400Y-33852500D02*
X194272000Y-33852500D01*
X196188700Y-34126800D02*
X199775200Y-34126800D01*
D45*
%TO.N,Net-(JP1-Pad1)*%
X141619700Y-39568200D02*
X141567000Y-39515500D01*
X139281000Y-39515500D02*
X141567000Y-39515500D01*
X144930200Y-39568200D02*
X141619700Y-39568200D01*
D46*
%TO.N,Net-(R7-Pad2)*%
X159966000Y-76767000D02*
X161236000Y-76767000D01*
X162814000Y-77116300D02*
X165062000Y-77116300D01*
X159956000Y-76757000D02*
X159966000Y-76767000D01*
X162782300Y-77148000D02*
X162814000Y-77116300D01*
X161236000Y-76767000D02*
X161617000Y-77148000D01*
X161617000Y-77148000D02*
X162782300Y-77148000D01*
D45*
%TO.N,RX2*%
X192769000Y-76343000D02*
X185636000Y-69210000D01*
X156045000Y-44191000D02*
X158204000Y-44191000D01*
X185636000Y-69210000D02*
X177254000Y-69210000D01*
X152609000Y-38476000D02*
X152609000Y-40755000D01*
X159220000Y-45207000D02*
X159220000Y-45945500D01*
X158204000Y-44191000D02*
X159220000Y-45207000D01*
X195796000Y-76343000D02*
X192769000Y-76343000D01*
X152609000Y-40755000D02*
X156045000Y-44191000D01*
%TO.N,TX2*%
X157188000Y-42921000D02*
X160490000Y-42921000D01*
X160490000Y-42921000D02*
X161506000Y-43937000D01*
X155109000Y-38476000D02*
X155109000Y-40842000D01*
X161506000Y-43937000D02*
X161506000Y-45945500D01*
X192261000Y-73803000D02*
X186398000Y-67940000D01*
X195796000Y-73803000D02*
X192261000Y-73803000D01*
X155109000Y-40842000D02*
X157188000Y-42921000D01*
X186398000Y-67940000D02*
X177889000Y-67940000D01*
%TO.N,Net-(D3-Pad1)*%
X159220000Y-47770500D02*
X159220000Y-49603500D01*
%TO.N,Net-(D4-Pad1)*%
X161506000Y-47770500D02*
X161506000Y-49603500D01*
%TO.N,Net-(D5-Pad1)*%
X163792000Y-49603500D02*
X163792000Y-47791500D01*
D48*
%TO.N,GPIO_Out_5*%
X170464400Y-78862000D02*
X170464400Y-78883000D01*
X204570000Y-91932000D02*
X178767000Y-91932000D01*
X206453000Y-85074000D02*
X206453000Y-90049000D01*
X205956000Y-84577000D02*
X206453000Y-85074000D01*
X176307000Y-89472000D02*
X176307000Y-81026500D01*
X205067000Y-84577000D02*
X205956000Y-84577000D01*
X178767000Y-91932000D02*
X176307000Y-89472000D01*
X206453000Y-90049000D02*
X204570000Y-91932000D01*
X174142500Y-78862000D02*
X170464400Y-78862000D01*
X176307000Y-81026500D02*
X174142500Y-78862000D01*
%TO.N,GPIO_Out_6*%
X174227000Y-76343000D02*
X170396000Y-76343000D01*
X176757000Y-89285604D02*
X176757000Y-78873000D01*
X205067000Y-90593000D02*
X204178000Y-91482000D01*
X205067000Y-87117000D02*
X205067000Y-90593000D01*
X178953396Y-91482000D02*
X176757000Y-89285604D01*
X204178000Y-91482000D02*
X178953396Y-91482000D01*
X176757000Y-78873000D02*
X174227000Y-76343000D01*
%TO.N,GPIO_Out_7*%
X202527000Y-87117000D02*
X202527000Y-90165000D01*
X177207000Y-89099208D02*
X177207000Y-76783000D01*
X179139792Y-91032000D02*
X177207000Y-89099208D01*
X174227000Y-73803000D02*
X170396000Y-73803000D01*
X201660000Y-91032000D02*
X179139792Y-91032000D01*
X202527000Y-90165000D02*
X201660000Y-91032000D01*
X177207000Y-76783000D02*
X174227000Y-73803000D01*
%TO.N,GPIO_Out_8*%
X199860000Y-89657000D02*
X198935000Y-90582000D01*
X200622000Y-84577000D02*
X199860000Y-85339000D01*
X179344000Y-90582000D02*
X177657000Y-88895000D01*
X174354000Y-71263000D02*
X170396000Y-71263000D01*
X177657000Y-88895000D02*
X177657000Y-74566000D01*
X198935000Y-90582000D02*
X179344000Y-90582000D01*
X202527000Y-84577000D02*
X200622000Y-84577000D01*
X199860000Y-85339000D02*
X199860000Y-89657000D01*
X177657000Y-74566000D02*
X174354000Y-71263000D01*
D45*
%TO.N,Net-(D6-Pad1)*%
X156934000Y-47770500D02*
X156934000Y-49603500D01*
D46*
%TO.N,Net-(J1-Pad2)*%
X130296000Y-84892800D02*
X131673600Y-83515200D01*
X130296000Y-88895000D02*
X130296000Y-84892800D01*
%TD*%
M02*
