%TF.GenerationSoftware,KiCad,Pcbnew,7.0.7*%
%TF.CreationDate,2023-11-15T18:09:05+01:00*%
%TF.ProjectId,ESP32_Weather_Servizio_Meteo_Sovramontino_v0.2,45535033-325f-4576-9561-746865725f53,rev?*%
%TF.SameCoordinates,Original*%
%TF.FileFunction,Paste,Top*%
%TF.FilePolarity,Positive*%
%FSLAX46Y46*%
G04 Gerber Fmt 4.6, Leading zero omitted, Abs format (unit mm)*
G04 Created by KiCad (PCBNEW 7.0.7) date 2023-11-15 18:09:05*
%MOMM*%
%LPD*%
G01*
G04 APERTURE LIST*
G04 Aperture macros list*
%AMRoundRect*
0 Rectangle with rounded corners*
0 $1 Rounding radius*
0 $2 $3 $4 $5 $6 $7 $8 $9 X,Y pos of 4 corners*
0 Add a 4 corners polygon primitive as box body*
4,1,4,$2,$3,$4,$5,$6,$7,$8,$9,$2,$3,0*
0 Add four circle primitives for the rounded corners*
1,1,$1+$1,$2,$3*
1,1,$1+$1,$4,$5*
1,1,$1+$1,$6,$7*
1,1,$1+$1,$8,$9*
0 Add four rect primitives between the rounded corners*
20,1,$1+$1,$2,$3,$4,$5,0*
20,1,$1+$1,$4,$5,$6,$7,0*
20,1,$1+$1,$6,$7,$8,$9,0*
20,1,$1+$1,$8,$9,$2,$3,0*%
G04 Aperture macros list end*
%ADD10C,1.524000*%
%ADD11R,3.300000X4.500000*%
%ADD12RoundRect,0.250000X-0.450000X0.262500X-0.450000X-0.262500X0.450000X-0.262500X0.450000X0.262500X0*%
%ADD13RoundRect,0.250000X0.475000X-0.337500X0.475000X0.337500X-0.475000X0.337500X-0.475000X-0.337500X0*%
%ADD14RoundRect,0.250000X0.450000X-0.262500X0.450000X0.262500X-0.450000X0.262500X-0.450000X-0.262500X0*%
%ADD15RoundRect,0.243750X-0.456250X0.243750X-0.456250X-0.243750X0.456250X-0.243750X0.456250X0.243750X0*%
%ADD16RoundRect,0.250000X0.262500X0.450000X-0.262500X0.450000X-0.262500X-0.450000X0.262500X-0.450000X0*%
%ADD17R,1.550000X0.600000*%
%ADD18R,2.600000X3.100000*%
%ADD19RoundRect,0.250000X-1.025000X0.875000X-1.025000X-0.875000X1.025000X-0.875000X1.025000X0.875000X0*%
%ADD20RoundRect,0.250000X-0.475000X0.337500X-0.475000X-0.337500X0.475000X-0.337500X0.475000X0.337500X0*%
%ADD21RoundRect,0.250000X-0.262500X-0.450000X0.262500X-0.450000X0.262500X0.450000X-0.262500X0.450000X0*%
%ADD22R,5.400000X2.900000*%
%ADD23R,2.500000X1.800000*%
%ADD24RoundRect,0.042000X0.258000X-0.633000X0.258000X0.633000X-0.258000X0.633000X-0.258000X-0.633000X0*%
%ADD25RoundRect,0.250000X0.550000X-1.250000X0.550000X1.250000X-0.550000X1.250000X-0.550000X-1.250000X0*%
%ADD26RoundRect,0.250000X-0.550000X1.500000X-0.550000X-1.500000X0.550000X-1.500000X0.550000X1.500000X0*%
G04 APERTURE END LIST*
D10*
%TO.C,U2*%
X138091800Y-49633700D03*
X138097800Y-61611700D03*
%TD*%
D11*
%TO.C,D1*%
X154256000Y-85262000D03*
X154256000Y-94062000D03*
%TD*%
D12*
%TO.C,R10*%
X159220000Y-45945500D03*
X159220000Y-47770500D03*
%TD*%
D13*
%TO.C,C1*%
X144107000Y-53610500D03*
X144107000Y-51535500D03*
%TD*%
D12*
%TO.C,R9*%
X194272000Y-32027500D03*
X194272000Y-33852500D03*
%TD*%
D13*
%TO.C,C3*%
X152146000Y-79675900D03*
X152146000Y-77600900D03*
%TD*%
D14*
%TO.C,R5*%
X139281000Y-39515500D03*
X139281000Y-37690500D03*
%TD*%
D15*
%TO.C,D6*%
X156934000Y-49603500D03*
X156934000Y-51478500D03*
%TD*%
D14*
%TO.C,R4*%
X141567000Y-39515500D03*
X141567000Y-37690500D03*
%TD*%
D16*
%TO.C,R3*%
X153782500Y-56383000D03*
X151957500Y-56383000D03*
%TD*%
D17*
%TO.C,U3*%
X159956000Y-80567000D03*
X159956000Y-79297000D03*
X159956000Y-78027000D03*
X159956000Y-76757000D03*
X154556000Y-76757000D03*
X154556000Y-78027000D03*
X154556000Y-79297000D03*
X154556000Y-80567000D03*
D18*
X157256000Y-78662000D03*
%TD*%
D19*
%TO.C,C9*%
X162256000Y-88462000D03*
X162256000Y-94862000D03*
%TD*%
D13*
%TO.C,C5*%
X147282000Y-79675900D03*
X147282000Y-77600900D03*
%TD*%
D20*
%TO.C,C8*%
X161256000Y-83146200D03*
X161256000Y-85221200D03*
%TD*%
D16*
%TO.C,R2*%
X153782500Y-54097000D03*
X151957500Y-54097000D03*
%TD*%
D21*
%TO.C,R1*%
X151957500Y-58796000D03*
X153782500Y-58796000D03*
%TD*%
D22*
%TO.C,L1*%
X143256000Y-84712000D03*
X143256000Y-94612000D03*
%TD*%
D14*
%TO.C,R7*%
X165062000Y-78941300D03*
X165062000Y-77116300D03*
%TD*%
D23*
%TO.C,D7*%
X134296000Y-88895000D03*
X130296000Y-88895000D03*
%TD*%
D24*
%TO.C,D2*%
X146586000Y-57568000D03*
X147536000Y-57568000D03*
X148486000Y-57568000D03*
X148486000Y-55198000D03*
X147536000Y-55198000D03*
X146586000Y-55198000D03*
%TD*%
D12*
%TO.C,R12*%
X163771000Y-45945500D03*
X163771000Y-47770500D03*
%TD*%
%TO.C,R11*%
X161506000Y-45945500D03*
X161506000Y-47770500D03*
%TD*%
D13*
%TO.C,C6*%
X144488000Y-61230500D03*
X144488000Y-59155500D03*
%TD*%
D20*
%TO.C,C11*%
X167094000Y-90588500D03*
X167094000Y-92663500D03*
%TD*%
D25*
%TO.C,C2*%
X140424000Y-80838400D03*
X140424000Y-76438400D03*
%TD*%
D13*
%TO.C,C4*%
X149822000Y-79675900D03*
X149822000Y-77600900D03*
%TD*%
D12*
%TO.C,R13*%
X156934000Y-45945500D03*
X156934000Y-47770500D03*
%TD*%
%TO.C,R8*%
X162814000Y-77116300D03*
X162814000Y-78941300D03*
%TD*%
D26*
%TO.C,C10*%
X162256000Y-88962000D03*
X162256000Y-94362000D03*
%TD*%
D15*
%TO.C,D5*%
X163792000Y-49603500D03*
X163792000Y-51478500D03*
%TD*%
%TO.C,D3*%
X159220000Y-49603500D03*
X159220000Y-51478500D03*
%TD*%
D13*
%TO.C,C7*%
X144869000Y-79675900D03*
X144869000Y-77600900D03*
%TD*%
D15*
%TO.C,D4*%
X161506000Y-49603500D03*
X161506000Y-51478500D03*
%TD*%
D14*
%TO.C,R6*%
X191478000Y-81679500D03*
X191478000Y-79854500D03*
%TD*%
M02*
