%TF.GenerationSoftware,KiCad,Pcbnew,7.0.7*%
%TF.CreationDate,2023-11-15T18:09:06+01:00*%
%TF.ProjectId,ESP32_Weather_Servizio_Meteo_Sovramontino_v0.2,45535033-325f-4576-9561-746865725f53,rev?*%
%TF.SameCoordinates,Original*%
%TF.FileFunction,Soldermask,Top*%
%TF.FilePolarity,Negative*%
%FSLAX46Y46*%
G04 Gerber Fmt 4.6, Leading zero omitted, Abs format (unit mm)*
G04 Created by KiCad (PCBNEW 7.0.7) date 2023-11-15 18:09:06*
%MOMM*%
%LPD*%
G01*
G04 APERTURE LIST*
G04 Aperture macros list*
%AMRoundRect*
0 Rectangle with rounded corners*
0 $1 Rounding radius*
0 $2 $3 $4 $5 $6 $7 $8 $9 X,Y pos of 4 corners*
0 Add a 4 corners polygon primitive as box body*
4,1,4,$2,$3,$4,$5,$6,$7,$8,$9,$2,$3,0*
0 Add four circle primitives for the rounded corners*
1,1,$1+$1,$2,$3*
1,1,$1+$1,$4,$5*
1,1,$1+$1,$6,$7*
1,1,$1+$1,$8,$9*
0 Add four rect primitives between the rounded corners*
20,1,$1+$1,$2,$3,$4,$5,0*
20,1,$1+$1,$4,$5,$6,$7,0*
20,1,$1+$1,$6,$7,$8,$9,0*
20,1,$1+$1,$8,$9,$2,$3,0*%
G04 Aperture macros list end*
%ADD10RoundRect,0.250000X0.600000X0.725000X-0.600000X0.725000X-0.600000X-0.725000X0.600000X-0.725000X0*%
%ADD11O,1.700000X1.950000*%
%ADD12C,3.380000*%
%ADD13C,1.524000*%
%ADD14R,3.300000X4.500000*%
%ADD15RoundRect,0.250000X-0.450000X0.262500X-0.450000X-0.262500X0.450000X-0.262500X0.450000X0.262500X0*%
%ADD16RoundRect,0.250000X0.475000X-0.337500X0.475000X0.337500X-0.475000X0.337500X-0.475000X-0.337500X0*%
%ADD17C,0.800000*%
%ADD18C,6.400000*%
%ADD19RoundRect,0.250000X0.450000X-0.262500X0.450000X0.262500X-0.450000X0.262500X-0.450000X-0.262500X0*%
%ADD20RoundRect,0.243750X-0.456250X0.243750X-0.456250X-0.243750X0.456250X-0.243750X0.456250X0.243750X0*%
%ADD21RoundRect,0.250000X-0.750000X0.600000X-0.750000X-0.600000X0.750000X-0.600000X0.750000X0.600000X0*%
%ADD22O,2.000000X1.700000*%
%ADD23RoundRect,0.250000X0.262500X0.450000X-0.262500X0.450000X-0.262500X-0.450000X0.262500X-0.450000X0*%
%ADD24R,1.550000X0.600000*%
%ADD25R,2.600000X3.100000*%
%ADD26RoundRect,0.250000X-1.025000X0.875000X-1.025000X-0.875000X1.025000X-0.875000X1.025000X0.875000X0*%
%ADD27RoundRect,0.250000X-0.475000X0.337500X-0.475000X-0.337500X0.475000X-0.337500X0.475000X0.337500X0*%
%ADD28R,3.000000X3.000000*%
%ADD29C,3.000000*%
%ADD30RoundRect,0.250000X-0.262500X-0.450000X0.262500X-0.450000X0.262500X0.450000X-0.262500X0.450000X0*%
%ADD31R,5.400000X2.900000*%
%ADD32R,2.000000X2.000000*%
%ADD33C,2.000000*%
%ADD34RoundRect,0.250000X0.725000X-0.600000X0.725000X0.600000X-0.725000X0.600000X-0.725000X-0.600000X0*%
%ADD35O,1.950000X1.700000*%
%ADD36R,2.500000X1.800000*%
%ADD37RoundRect,0.042000X0.258000X-0.633000X0.258000X0.633000X-0.258000X0.633000X-0.258000X-0.633000X0*%
%ADD38RoundRect,0.250000X0.550000X-1.250000X0.550000X1.250000X-0.550000X1.250000X-0.550000X-1.250000X0*%
%ADD39R,1.700000X1.700000*%
%ADD40O,1.700000X1.700000*%
%ADD41RoundRect,0.250000X-0.550000X1.500000X-0.550000X-1.500000X0.550000X-1.500000X0.550000X1.500000X0*%
%ADD42R,1.000000X1.500000*%
G04 APERTURE END LIST*
D10*
%TO.C,J14*%
X175056800Y-38404800D03*
D11*
X172556800Y-38404800D03*
X170056800Y-38404800D03*
X167556800Y-38404800D03*
%TD*%
D12*
%TO.C,U2*%
X133019800Y-46621700D03*
X133019800Y-67957700D03*
D13*
X136061800Y-48613700D03*
X138091800Y-49633700D03*
X136061800Y-50653700D03*
X138091800Y-51633700D03*
X136061800Y-52693700D03*
X138091800Y-53673700D03*
X138097800Y-65651700D03*
X136067800Y-64671700D03*
X138097800Y-63611700D03*
X136067800Y-62631700D03*
X138097800Y-61611700D03*
X136067800Y-60591700D03*
%TD*%
D10*
%TO.C,J13*%
X190081000Y-38421800D03*
D11*
X187581000Y-38421800D03*
X185081000Y-38421800D03*
X182581000Y-38421800D03*
%TD*%
D10*
%TO.C,J11*%
X145126400Y-28570800D03*
D11*
X142626400Y-28570800D03*
X140126400Y-28570800D03*
X137626400Y-28570800D03*
%TD*%
D14*
%TO.C,D1*%
X154256000Y-85262000D03*
X154256000Y-94062000D03*
%TD*%
D15*
%TO.C,R10*%
X159220000Y-45945500D03*
X159220000Y-47770500D03*
%TD*%
D16*
%TO.C,C1*%
X144107000Y-53610500D03*
X144107000Y-51535500D03*
%TD*%
D15*
%TO.C,R9*%
X194272000Y-32027500D03*
X194272000Y-33852500D03*
%TD*%
D17*
%TO.C,H4*%
X131772000Y-99233000D03*
X133469056Y-95135944D03*
X133469056Y-98530056D03*
D18*
X131772000Y-96833000D03*
D17*
X131772000Y-94433000D03*
X129372000Y-96833000D03*
X130074944Y-95135944D03*
X130074944Y-98530056D03*
X134172000Y-96833000D03*
%TD*%
D16*
%TO.C,C3*%
X152146000Y-79675900D03*
X152146000Y-77600900D03*
%TD*%
D19*
%TO.C,R5*%
X139281000Y-39515500D03*
X139281000Y-37690500D03*
%TD*%
D17*
%TO.C,H1*%
X202074944Y-23135944D03*
D18*
X203772000Y-24833000D03*
D17*
X205469056Y-26530056D03*
X205469056Y-23135944D03*
X202074944Y-26530056D03*
X203772000Y-22433000D03*
X203772000Y-27233000D03*
X206172000Y-24833000D03*
X201372000Y-24833000D03*
%TD*%
D20*
%TO.C,D6*%
X156934000Y-49603500D03*
X156934000Y-51478500D03*
%TD*%
D19*
%TO.C,R4*%
X141567000Y-39515500D03*
X141567000Y-37690500D03*
%TD*%
D10*
%TO.C,J8*%
X175070666Y-28570800D03*
D11*
X172570666Y-28570800D03*
X170070666Y-28570800D03*
X167570666Y-28570800D03*
%TD*%
D21*
%TO.C,J2*%
X133367000Y-38170800D03*
D22*
X133367000Y-40670800D03*
%TD*%
D23*
%TO.C,R3*%
X153782500Y-56383000D03*
X151957500Y-56383000D03*
%TD*%
D24*
%TO.C,U3*%
X159956000Y-80567000D03*
X159956000Y-79297000D03*
X159956000Y-78027000D03*
X159956000Y-76757000D03*
X154556000Y-76757000D03*
X154556000Y-78027000D03*
X154556000Y-79297000D03*
X154556000Y-80567000D03*
D25*
X157256000Y-78662000D03*
%TD*%
D17*
%TO.C,H3*%
X202074944Y-95135944D03*
X201372000Y-96833000D03*
X206172000Y-96833000D03*
X203772000Y-94433000D03*
X203772000Y-99233000D03*
D18*
X203772000Y-96833000D03*
D17*
X205469056Y-98530056D03*
X205469056Y-95135944D03*
X202074944Y-98530056D03*
%TD*%
D26*
%TO.C,C9*%
X162256000Y-88462000D03*
X162256000Y-94862000D03*
%TD*%
D16*
%TO.C,C5*%
X147282000Y-79675900D03*
X147282000Y-77600900D03*
%TD*%
D27*
%TO.C,C8*%
X161256000Y-83146200D03*
X161256000Y-85221200D03*
%TD*%
D23*
%TO.C,R2*%
X153782500Y-54097000D03*
X151957500Y-54097000D03*
%TD*%
D28*
%TO.C,J1*%
X131673600Y-78435200D03*
D29*
X131673600Y-83515200D03*
%TD*%
D30*
%TO.C,R1*%
X151957500Y-58796000D03*
X153782500Y-58796000D03*
%TD*%
D31*
%TO.C,L1*%
X143256000Y-84712000D03*
X143256000Y-94612000D03*
%TD*%
D29*
%TO.C,U1*%
X170866000Y-97003000D03*
X195376000Y-97003000D03*
X195376000Y-50053000D03*
X170866000Y-50053000D03*
D32*
X195796000Y-89043000D03*
D33*
X195796000Y-86503000D03*
X195796000Y-83963000D03*
X195796000Y-81423000D03*
X195796000Y-78883000D03*
X195796000Y-76343000D03*
X195796000Y-73803000D03*
X195796000Y-71263000D03*
X195796000Y-68723000D03*
X195796000Y-66183000D03*
X195796000Y-63643000D03*
X195796000Y-61103000D03*
X195796000Y-58563000D03*
X195796000Y-56023000D03*
X195796000Y-53483000D03*
X170396000Y-53483000D03*
X170396000Y-56023000D03*
X170396000Y-58563000D03*
X170396000Y-61103000D03*
X170396000Y-63643000D03*
X170396000Y-66183000D03*
X170396000Y-68723000D03*
X170396000Y-71263000D03*
X170396000Y-73803000D03*
X170396000Y-76343000D03*
X170396000Y-78883000D03*
X170396000Y-81423000D03*
X170396000Y-83963000D03*
X170396000Y-86503000D03*
X170396000Y-89043000D03*
%TD*%
D34*
%TO.C,J12*%
X199775200Y-41626800D03*
D35*
X199775200Y-39126800D03*
X199775200Y-36626800D03*
X199775200Y-34126800D03*
X199775200Y-31626800D03*
%TD*%
D19*
%TO.C,R7*%
X165062000Y-78941300D03*
X165062000Y-77116300D03*
%TD*%
D36*
%TO.C,D7*%
X134296000Y-88895000D03*
X130296000Y-88895000D03*
%TD*%
D10*
%TO.C,J9*%
X190042800Y-28448000D03*
D11*
X187542800Y-28448000D03*
X185042800Y-28448000D03*
X182542800Y-28448000D03*
%TD*%
D37*
%TO.C,D2*%
X146586000Y-57568000D03*
X147536000Y-57568000D03*
X148486000Y-57568000D03*
X148486000Y-55198000D03*
X147536000Y-55198000D03*
X146586000Y-55198000D03*
%TD*%
D15*
%TO.C,R12*%
X163771000Y-45945500D03*
X163771000Y-47770500D03*
%TD*%
%TO.C,R11*%
X161506000Y-45945500D03*
X161506000Y-47770500D03*
%TD*%
D16*
%TO.C,C6*%
X144488000Y-61230500D03*
X144488000Y-59155500D03*
%TD*%
D27*
%TO.C,C11*%
X167094000Y-90588500D03*
X167094000Y-92663500D03*
%TD*%
D38*
%TO.C,C2*%
X140424000Y-80838400D03*
X140424000Y-76438400D03*
%TD*%
D16*
%TO.C,C4*%
X149822000Y-79675900D03*
X149822000Y-77600900D03*
%TD*%
D39*
%TO.C,J3*%
X202527000Y-76957000D03*
D40*
X205067000Y-76957000D03*
X202527000Y-79497000D03*
X205067000Y-79497000D03*
X202527000Y-82037000D03*
X205067000Y-82037000D03*
X202527000Y-84577000D03*
X205067000Y-84577000D03*
X202527000Y-87117000D03*
X205067000Y-87117000D03*
%TD*%
D15*
%TO.C,R13*%
X156934000Y-45945500D03*
X156934000Y-47770500D03*
%TD*%
D34*
%TO.C,J5*%
X203399000Y-70313000D03*
D35*
X203399000Y-67813000D03*
X203399000Y-65313000D03*
%TD*%
D15*
%TO.C,R8*%
X162814000Y-77116300D03*
X162814000Y-78941300D03*
%TD*%
D39*
%TO.C,J10*%
X204813000Y-59558000D03*
D40*
X204813000Y-57018000D03*
X204813000Y-54478000D03*
X204813000Y-51938000D03*
X204813000Y-49398000D03*
X204813000Y-46858000D03*
%TD*%
D41*
%TO.C,C10*%
X162256000Y-88962000D03*
X162256000Y-94362000D03*
%TD*%
D10*
%TO.C,J7*%
X160109000Y-28570000D03*
D11*
X157609000Y-28570000D03*
X155109000Y-28570000D03*
X152609000Y-28570000D03*
%TD*%
D17*
%TO.C,H2*%
X131772000Y-27233000D03*
D18*
X131772000Y-24833000D03*
D17*
X134172000Y-24833000D03*
X130074944Y-23135944D03*
X133469056Y-23135944D03*
X130074944Y-26530056D03*
X133469056Y-26530056D03*
X131772000Y-22433000D03*
X129372000Y-24833000D03*
%TD*%
D42*
%TO.C,JP1*%
X144930200Y-39568200D03*
X146230200Y-39568200D03*
%TD*%
D20*
%TO.C,D5*%
X163792000Y-49603500D03*
X163792000Y-51478500D03*
%TD*%
D10*
%TO.C,J4*%
X160109000Y-38476000D03*
D11*
X157609000Y-38476000D03*
X155109000Y-38476000D03*
X152609000Y-38476000D03*
%TD*%
D20*
%TO.C,D3*%
X159220000Y-49603500D03*
X159220000Y-51478500D03*
%TD*%
D16*
%TO.C,C7*%
X144869000Y-79675900D03*
X144869000Y-77600900D03*
%TD*%
D20*
%TO.C,D4*%
X161506000Y-49603500D03*
X161506000Y-51478500D03*
%TD*%
D19*
%TO.C,R6*%
X191478000Y-81679500D03*
X191478000Y-79854500D03*
%TD*%
M02*
