%TF.GenerationSoftware,KiCad,Pcbnew,7.0.7*%
%TF.CreationDate,2023-11-15T18:09:06+01:00*%
%TF.ProjectId,ESP32_Weather_Servizio_Meteo_Sovramontino_v0.2,45535033-325f-4576-9561-746865725f53,rev?*%
%TF.SameCoordinates,Original*%
%TF.FileFunction,Soldermask,Bot*%
%TF.FilePolarity,Negative*%
%FSLAX46Y46*%
G04 Gerber Fmt 4.6, Leading zero omitted, Abs format (unit mm)*
G04 Created by KiCad (PCBNEW 7.0.7) date 2023-11-15 18:09:06*
%MOMM*%
%LPD*%
G01*
G04 APERTURE LIST*
G04 Aperture macros list*
%AMRoundRect*
0 Rectangle with rounded corners*
0 $1 Rounding radius*
0 $2 $3 $4 $5 $6 $7 $8 $9 X,Y pos of 4 corners*
0 Add a 4 corners polygon primitive as box body*
4,1,4,$2,$3,$4,$5,$6,$7,$8,$9,$2,$3,0*
0 Add four circle primitives for the rounded corners*
1,1,$1+$1,$2,$3*
1,1,$1+$1,$4,$5*
1,1,$1+$1,$6,$7*
1,1,$1+$1,$8,$9*
0 Add four rect primitives between the rounded corners*
20,1,$1+$1,$2,$3,$4,$5,0*
20,1,$1+$1,$4,$5,$6,$7,0*
20,1,$1+$1,$6,$7,$8,$9,0*
20,1,$1+$1,$8,$9,$2,$3,0*%
G04 Aperture macros list end*
%ADD10RoundRect,0.250000X0.600000X0.725000X-0.600000X0.725000X-0.600000X-0.725000X0.600000X-0.725000X0*%
%ADD11O,1.700000X1.950000*%
%ADD12C,3.380000*%
%ADD13C,1.524000*%
%ADD14C,0.800000*%
%ADD15C,6.400000*%
%ADD16RoundRect,0.250000X-0.750000X0.600000X-0.750000X-0.600000X0.750000X-0.600000X0.750000X0.600000X0*%
%ADD17O,2.000000X1.700000*%
%ADD18R,3.000000X3.000000*%
%ADD19C,3.000000*%
%ADD20R,2.000000X2.000000*%
%ADD21C,2.000000*%
%ADD22RoundRect,0.250000X0.725000X-0.600000X0.725000X0.600000X-0.725000X0.600000X-0.725000X-0.600000X0*%
%ADD23O,1.950000X1.700000*%
%ADD24R,1.700000X1.700000*%
%ADD25O,1.700000X1.700000*%
G04 APERTURE END LIST*
D10*
%TO.C,J14*%
X175056800Y-38404800D03*
D11*
X172556800Y-38404800D03*
X170056800Y-38404800D03*
X167556800Y-38404800D03*
%TD*%
D12*
%TO.C,U2*%
X133019800Y-46621700D03*
X133019800Y-67957700D03*
D13*
X136061800Y-48613700D03*
X138091800Y-49633700D03*
X136061800Y-50653700D03*
X138091800Y-51633700D03*
X136061800Y-52693700D03*
X138091800Y-53673700D03*
X138097800Y-65651700D03*
X136067800Y-64671700D03*
X138097800Y-63611700D03*
X136067800Y-62631700D03*
X138097800Y-61611700D03*
X136067800Y-60591700D03*
%TD*%
D10*
%TO.C,J13*%
X190081000Y-38421800D03*
D11*
X187581000Y-38421800D03*
X185081000Y-38421800D03*
X182581000Y-38421800D03*
%TD*%
D10*
%TO.C,J11*%
X145126400Y-28570800D03*
D11*
X142626400Y-28570800D03*
X140126400Y-28570800D03*
X137626400Y-28570800D03*
%TD*%
D14*
%TO.C,H4*%
X131772000Y-99233000D03*
X133469056Y-95135944D03*
X133469056Y-98530056D03*
D15*
X131772000Y-96833000D03*
D14*
X131772000Y-94433000D03*
X129372000Y-96833000D03*
X130074944Y-95135944D03*
X130074944Y-98530056D03*
X134172000Y-96833000D03*
%TD*%
%TO.C,H1*%
X202074944Y-23135944D03*
D15*
X203772000Y-24833000D03*
D14*
X205469056Y-26530056D03*
X205469056Y-23135944D03*
X202074944Y-26530056D03*
X203772000Y-22433000D03*
X203772000Y-27233000D03*
X206172000Y-24833000D03*
X201372000Y-24833000D03*
%TD*%
D10*
%TO.C,J8*%
X175070666Y-28570800D03*
D11*
X172570666Y-28570800D03*
X170070666Y-28570800D03*
X167570666Y-28570800D03*
%TD*%
D16*
%TO.C,J2*%
X133367000Y-38170800D03*
D17*
X133367000Y-40670800D03*
%TD*%
D14*
%TO.C,H3*%
X202074944Y-95135944D03*
X201372000Y-96833000D03*
X206172000Y-96833000D03*
X203772000Y-94433000D03*
X203772000Y-99233000D03*
D15*
X203772000Y-96833000D03*
D14*
X205469056Y-98530056D03*
X205469056Y-95135944D03*
X202074944Y-98530056D03*
%TD*%
D18*
%TO.C,J1*%
X131673600Y-78435200D03*
D19*
X131673600Y-83515200D03*
%TD*%
%TO.C,U1*%
X170866000Y-97003000D03*
X195376000Y-97003000D03*
X195376000Y-50053000D03*
X170866000Y-50053000D03*
D20*
X195796000Y-89043000D03*
D21*
X195796000Y-86503000D03*
X195796000Y-83963000D03*
X195796000Y-81423000D03*
X195796000Y-78883000D03*
X195796000Y-76343000D03*
X195796000Y-73803000D03*
X195796000Y-71263000D03*
X195796000Y-68723000D03*
X195796000Y-66183000D03*
X195796000Y-63643000D03*
X195796000Y-61103000D03*
X195796000Y-58563000D03*
X195796000Y-56023000D03*
X195796000Y-53483000D03*
X170396000Y-53483000D03*
X170396000Y-56023000D03*
X170396000Y-58563000D03*
X170396000Y-61103000D03*
X170396000Y-63643000D03*
X170396000Y-66183000D03*
X170396000Y-68723000D03*
X170396000Y-71263000D03*
X170396000Y-73803000D03*
X170396000Y-76343000D03*
X170396000Y-78883000D03*
X170396000Y-81423000D03*
X170396000Y-83963000D03*
X170396000Y-86503000D03*
X170396000Y-89043000D03*
%TD*%
D22*
%TO.C,J12*%
X199775200Y-41626800D03*
D23*
X199775200Y-39126800D03*
X199775200Y-36626800D03*
X199775200Y-34126800D03*
X199775200Y-31626800D03*
%TD*%
D10*
%TO.C,J9*%
X190042800Y-28448000D03*
D11*
X187542800Y-28448000D03*
X185042800Y-28448000D03*
X182542800Y-28448000D03*
%TD*%
D24*
%TO.C,J3*%
X202527000Y-76957000D03*
D25*
X205067000Y-76957000D03*
X202527000Y-79497000D03*
X205067000Y-79497000D03*
X202527000Y-82037000D03*
X205067000Y-82037000D03*
X202527000Y-84577000D03*
X205067000Y-84577000D03*
X202527000Y-87117000D03*
X205067000Y-87117000D03*
%TD*%
D22*
%TO.C,J5*%
X203399000Y-70313000D03*
D23*
X203399000Y-67813000D03*
X203399000Y-65313000D03*
%TD*%
D24*
%TO.C,J10*%
X204813000Y-59558000D03*
D25*
X204813000Y-57018000D03*
X204813000Y-54478000D03*
X204813000Y-51938000D03*
X204813000Y-49398000D03*
X204813000Y-46858000D03*
%TD*%
D10*
%TO.C,J7*%
X160109000Y-28570000D03*
D11*
X157609000Y-28570000D03*
X155109000Y-28570000D03*
X152609000Y-28570000D03*
%TD*%
D14*
%TO.C,H2*%
X131772000Y-27233000D03*
D15*
X131772000Y-24833000D03*
D14*
X134172000Y-24833000D03*
X130074944Y-23135944D03*
X133469056Y-23135944D03*
X130074944Y-26530056D03*
X133469056Y-26530056D03*
X131772000Y-22433000D03*
X129372000Y-24833000D03*
%TD*%
D10*
%TO.C,J4*%
X160109000Y-38476000D03*
D11*
X157609000Y-38476000D03*
X155109000Y-38476000D03*
X152609000Y-38476000D03*
%TD*%
M02*
