%TF.GenerationSoftware,KiCad,Pcbnew,8.0.2*%
%TF.CreationDate,2024-05-30T14:18:01+02:00*%
%TF.ProjectId,MPPT_solar_charger_expansion_board,4d505054-5f73-46f6-9c61-725f63686172,1.00*%
%TF.SameCoordinates,Original*%
%TF.FileFunction,Drillmap*%
%TF.FilePolarity,Positive*%
%FSLAX45Y45*%
G04 Gerber Fmt 4.5, Leading zero omitted, Abs format (unit mm)*
G04 Created by KiCad (PCBNEW 8.0.2) date 2024-05-30 14:18:01*
%MOMM*%
%LPD*%
G01*
G04 APERTURE LIST*
%ADD10C,0.100000*%
%ADD11C,0.200000*%
%ADD12C,0.320000*%
G04 APERTURE END LIST*
D10*
X13417800Y-11339640D02*
X15417800Y-11339640D01*
X15717800Y-11039640D02*
X15717800Y-8039640D01*
X13742800Y-8039640D02*
X13742800Y-8464640D01*
X13642800Y-8564640D02*
X13217800Y-8564640D01*
X13417800Y-11339640D02*
G75*
G02*
X13117800Y-11039640I0J300000D01*
G01*
X13117800Y-8664640D02*
X13117800Y-11039640D01*
X15417800Y-7739640D02*
G75*
G02*
X15717800Y-8039640I0J-300000D01*
G01*
X13742800Y-8039640D02*
G75*
G02*
X14042800Y-7739640I300000J0D01*
G01*
X15717800Y-11039640D02*
G75*
G02*
X15417800Y-11339640I-300000J0D01*
G01*
X13742800Y-8464640D02*
G75*
G02*
X13642800Y-8564640I-100000J0D01*
G01*
X13117800Y-8664640D02*
G75*
G02*
X13217800Y-8564640I100000J0D01*
G01*
X15417800Y-7739640D02*
X14042800Y-7739640D01*
D11*
D10*
X13240840Y-11150520D02*
X13260840Y-11170520D01*
X13260840Y-11150520D02*
X13240840Y-11170520D01*
X13423720Y-9418240D02*
X13443720Y-9438240D01*
X13443720Y-9418240D02*
X13423720Y-9438240D01*
X13845360Y-8310800D02*
X13865360Y-8330800D01*
X13865360Y-8310800D02*
X13845360Y-8330800D01*
X14129840Y-10310170D02*
X14149840Y-10330170D01*
X14149840Y-10310170D02*
X14129840Y-10330170D01*
X14170480Y-9392840D02*
X14190480Y-9412840D01*
X14190480Y-9392840D02*
X14170480Y-9412840D01*
X14180640Y-10840640D02*
X14200640Y-10860640D01*
X14200640Y-10840640D02*
X14180640Y-10860640D01*
X14526080Y-7838360D02*
X14546080Y-7858360D01*
X14546080Y-7838360D02*
X14526080Y-7858360D01*
X14556560Y-8300640D02*
X14576560Y-8320640D01*
X14576560Y-8300640D02*
X14556560Y-8320640D01*
X14612440Y-9209960D02*
X14632440Y-9229960D01*
X14632440Y-9209960D02*
X14612440Y-9229960D01*
X15328720Y-7802800D02*
X15348720Y-7822800D01*
X15348720Y-7802800D02*
X15328720Y-7822800D01*
X15338880Y-8204120D02*
X15358880Y-8224120D01*
X15358880Y-8204120D02*
X15338880Y-8224120D01*
X15465880Y-8971200D02*
X15485880Y-8991200D01*
X15485880Y-8971200D02*
X15465880Y-8991200D01*
X15491280Y-9428400D02*
X15511280Y-9448400D01*
X15511280Y-9428400D02*
X15491280Y-9448400D01*
X15542080Y-9951640D02*
X15562080Y-9971640D01*
X15562080Y-9951640D02*
X15542080Y-9971640D01*
X13425800Y-9672320D02*
G75*
G02*
X13385800Y-9672320I-20000J0D01*
G01*
X13385800Y-9672320D02*
G75*
G02*
X13425800Y-9672320I20000J0D01*
G01*
X14266609Y-9977620D02*
G75*
G02*
X14226609Y-9977620I-20000J0D01*
G01*
X14226609Y-9977620D02*
G75*
G02*
X14266609Y-9977620I20000J0D01*
G01*
X14103215Y-10158382D02*
X14103215Y-10218382D01*
X14073215Y-10188382D02*
X14133215Y-10188382D01*
X14817800Y-10159640D02*
X14817800Y-10219640D01*
X14787800Y-10189640D02*
X14847800Y-10189640D01*
X13546409Y-10665889D02*
X13546409Y-10616391D01*
X13496911Y-10616391D01*
X13496911Y-10665889D01*
X13546409Y-10665889D01*
X13463000Y-11078840D02*
X13503000Y-11038840D01*
X13463000Y-10998840D01*
X13423000Y-11038840D01*
X13463000Y-11078840D01*
X13717000Y-11078840D02*
X13757000Y-11038840D01*
X13717000Y-10998840D01*
X13677000Y-11038840D01*
X13717000Y-11078840D01*
X13971000Y-11078840D02*
X14011000Y-11038840D01*
X13971000Y-10998840D01*
X13931000Y-11038840D01*
X13971000Y-11078840D01*
X15092800Y-10575680D02*
X15132800Y-10535680D01*
X15092800Y-10495680D01*
X15052800Y-10535680D01*
X15092800Y-10575680D01*
X15442800Y-10575680D02*
X15482800Y-10535680D01*
X15442800Y-10495680D01*
X15402800Y-10535680D01*
X15442800Y-10575680D01*
X14376800Y-11039640D02*
X14476800Y-11139640D01*
X14476800Y-11039640D02*
X14376800Y-11139640D01*
X14476800Y-11089640D02*
G75*
G02*
X14376800Y-11089640I-50000J0D01*
G01*
X14376800Y-11089640D02*
G75*
G02*
X14476800Y-11089640I50000J0D01*
G01*
X14630800Y-11039640D02*
X14730800Y-11139640D01*
X14730800Y-11039640D02*
X14630800Y-11139640D01*
X14730800Y-11089640D02*
G75*
G02*
X14630800Y-11089640I-50000J0D01*
G01*
X14630800Y-11089640D02*
G75*
G02*
X14730800Y-11089640I50000J0D01*
G01*
X14884800Y-11039640D02*
X14984800Y-11139640D01*
X14984800Y-11039640D02*
X14884800Y-11139640D01*
X14984800Y-11089640D02*
G75*
G02*
X14884800Y-11089640I-50000J0D01*
G01*
X14884800Y-11089640D02*
G75*
G02*
X14984800Y-11089640I50000J0D01*
G01*
X15138800Y-11039640D02*
X15238800Y-11139640D01*
X15238800Y-11039640D02*
X15138800Y-11139640D01*
X15238800Y-11089640D02*
G75*
G02*
X15138800Y-11089640I-50000J0D01*
G01*
X15138800Y-11089640D02*
G75*
G02*
X15238800Y-11089640I50000J0D01*
G01*
X15392800Y-11039640D02*
X15492800Y-11139640D01*
X15492800Y-11039640D02*
X15392800Y-11139640D01*
X15492800Y-11089640D02*
G75*
G02*
X15392800Y-11089640I-50000J0D01*
G01*
X15392800Y-11089640D02*
G75*
G02*
X15492800Y-11089640I50000J0D01*
G01*
D12*
X14082800Y-7929640D02*
X14402800Y-8249640D01*
X14402800Y-7929640D02*
X14082800Y-8249640D01*
X14242800Y-7929640D02*
X14242800Y-8249640D01*
X14082800Y-8089640D02*
X14402800Y-8089640D01*
D11*
X13373577Y-11656124D02*
X13373577Y-11456124D01*
X13373577Y-11456124D02*
X13421196Y-11456124D01*
X13421196Y-11456124D02*
X13449767Y-11465648D01*
X13449767Y-11465648D02*
X13468815Y-11484695D01*
X13468815Y-11484695D02*
X13478339Y-11503743D01*
X13478339Y-11503743D02*
X13487862Y-11541838D01*
X13487862Y-11541838D02*
X13487862Y-11570409D01*
X13487862Y-11570409D02*
X13478339Y-11608505D01*
X13478339Y-11608505D02*
X13468815Y-11627552D01*
X13468815Y-11627552D02*
X13449767Y-11646600D01*
X13449767Y-11646600D02*
X13421196Y-11656124D01*
X13421196Y-11656124D02*
X13373577Y-11656124D01*
X13573577Y-11656124D02*
X13573577Y-11522790D01*
X13573577Y-11560886D02*
X13583101Y-11541838D01*
X13583101Y-11541838D02*
X13592624Y-11532314D01*
X13592624Y-11532314D02*
X13611672Y-11522790D01*
X13611672Y-11522790D02*
X13630720Y-11522790D01*
X13697386Y-11656124D02*
X13697386Y-11522790D01*
X13697386Y-11456124D02*
X13687862Y-11465648D01*
X13687862Y-11465648D02*
X13697386Y-11475171D01*
X13697386Y-11475171D02*
X13706910Y-11465648D01*
X13706910Y-11465648D02*
X13697386Y-11456124D01*
X13697386Y-11456124D02*
X13697386Y-11475171D01*
X13821196Y-11656124D02*
X13802148Y-11646600D01*
X13802148Y-11646600D02*
X13792624Y-11627552D01*
X13792624Y-11627552D02*
X13792624Y-11456124D01*
X13925958Y-11656124D02*
X13906910Y-11646600D01*
X13906910Y-11646600D02*
X13897386Y-11627552D01*
X13897386Y-11627552D02*
X13897386Y-11456124D01*
X14154529Y-11656124D02*
X14154529Y-11456124D01*
X14154529Y-11456124D02*
X14221196Y-11598981D01*
X14221196Y-11598981D02*
X14287862Y-11456124D01*
X14287862Y-11456124D02*
X14287862Y-11656124D01*
X14468815Y-11656124D02*
X14468815Y-11551362D01*
X14468815Y-11551362D02*
X14459291Y-11532314D01*
X14459291Y-11532314D02*
X14440243Y-11522790D01*
X14440243Y-11522790D02*
X14402148Y-11522790D01*
X14402148Y-11522790D02*
X14383101Y-11532314D01*
X14468815Y-11646600D02*
X14449767Y-11656124D01*
X14449767Y-11656124D02*
X14402148Y-11656124D01*
X14402148Y-11656124D02*
X14383101Y-11646600D01*
X14383101Y-11646600D02*
X14373577Y-11627552D01*
X14373577Y-11627552D02*
X14373577Y-11608505D01*
X14373577Y-11608505D02*
X14383101Y-11589457D01*
X14383101Y-11589457D02*
X14402148Y-11579933D01*
X14402148Y-11579933D02*
X14449767Y-11579933D01*
X14449767Y-11579933D02*
X14468815Y-11570409D01*
X14564053Y-11522790D02*
X14564053Y-11722790D01*
X14564053Y-11532314D02*
X14583101Y-11522790D01*
X14583101Y-11522790D02*
X14621196Y-11522790D01*
X14621196Y-11522790D02*
X14640243Y-11532314D01*
X14640243Y-11532314D02*
X14649767Y-11541838D01*
X14649767Y-11541838D02*
X14659291Y-11560886D01*
X14659291Y-11560886D02*
X14659291Y-11618028D01*
X14659291Y-11618028D02*
X14649767Y-11637076D01*
X14649767Y-11637076D02*
X14640243Y-11646600D01*
X14640243Y-11646600D02*
X14621196Y-11656124D01*
X14621196Y-11656124D02*
X14583101Y-11656124D01*
X14583101Y-11656124D02*
X14564053Y-11646600D01*
X14745005Y-11637076D02*
X14754529Y-11646600D01*
X14754529Y-11646600D02*
X14745005Y-11656124D01*
X14745005Y-11656124D02*
X14735482Y-11646600D01*
X14735482Y-11646600D02*
X14745005Y-11637076D01*
X14745005Y-11637076D02*
X14745005Y-11656124D01*
X14745005Y-11532314D02*
X14754529Y-11541838D01*
X14754529Y-11541838D02*
X14745005Y-11551362D01*
X14745005Y-11551362D02*
X14735482Y-11541838D01*
X14735482Y-11541838D02*
X14745005Y-11532314D01*
X14745005Y-11532314D02*
X14745005Y-11551362D01*
D10*
X13092800Y-11974640D02*
X13112800Y-11994640D01*
X13112800Y-11974640D02*
X13092800Y-11994640D01*
D11*
X13411672Y-11876124D02*
X13430720Y-11876124D01*
X13430720Y-11876124D02*
X13449767Y-11885648D01*
X13449767Y-11885648D02*
X13459291Y-11895171D01*
X13459291Y-11895171D02*
X13468815Y-11914219D01*
X13468815Y-11914219D02*
X13478339Y-11952314D01*
X13478339Y-11952314D02*
X13478339Y-11999933D01*
X13478339Y-11999933D02*
X13468815Y-12038028D01*
X13468815Y-12038028D02*
X13459291Y-12057076D01*
X13459291Y-12057076D02*
X13449767Y-12066600D01*
X13449767Y-12066600D02*
X13430720Y-12076124D01*
X13430720Y-12076124D02*
X13411672Y-12076124D01*
X13411672Y-12076124D02*
X13392624Y-12066600D01*
X13392624Y-12066600D02*
X13383101Y-12057076D01*
X13383101Y-12057076D02*
X13373577Y-12038028D01*
X13373577Y-12038028D02*
X13364053Y-11999933D01*
X13364053Y-11999933D02*
X13364053Y-11952314D01*
X13364053Y-11952314D02*
X13373577Y-11914219D01*
X13373577Y-11914219D02*
X13383101Y-11895171D01*
X13383101Y-11895171D02*
X13392624Y-11885648D01*
X13392624Y-11885648D02*
X13411672Y-11876124D01*
X13564053Y-12057076D02*
X13573577Y-12066600D01*
X13573577Y-12066600D02*
X13564053Y-12076124D01*
X13564053Y-12076124D02*
X13554529Y-12066600D01*
X13554529Y-12066600D02*
X13564053Y-12057076D01*
X13564053Y-12057076D02*
X13564053Y-12076124D01*
X13649767Y-11895171D02*
X13659291Y-11885648D01*
X13659291Y-11885648D02*
X13678339Y-11876124D01*
X13678339Y-11876124D02*
X13725958Y-11876124D01*
X13725958Y-11876124D02*
X13745005Y-11885648D01*
X13745005Y-11885648D02*
X13754529Y-11895171D01*
X13754529Y-11895171D02*
X13764053Y-11914219D01*
X13764053Y-11914219D02*
X13764053Y-11933267D01*
X13764053Y-11933267D02*
X13754529Y-11961838D01*
X13754529Y-11961838D02*
X13640243Y-12076124D01*
X13640243Y-12076124D02*
X13764053Y-12076124D01*
X13887862Y-11876124D02*
X13906910Y-11876124D01*
X13906910Y-11876124D02*
X13925958Y-11885648D01*
X13925958Y-11885648D02*
X13935482Y-11895171D01*
X13935482Y-11895171D02*
X13945005Y-11914219D01*
X13945005Y-11914219D02*
X13954529Y-11952314D01*
X13954529Y-11952314D02*
X13954529Y-11999933D01*
X13954529Y-11999933D02*
X13945005Y-12038028D01*
X13945005Y-12038028D02*
X13935482Y-12057076D01*
X13935482Y-12057076D02*
X13925958Y-12066600D01*
X13925958Y-12066600D02*
X13906910Y-12076124D01*
X13906910Y-12076124D02*
X13887862Y-12076124D01*
X13887862Y-12076124D02*
X13868815Y-12066600D01*
X13868815Y-12066600D02*
X13859291Y-12057076D01*
X13859291Y-12057076D02*
X13849767Y-12038028D01*
X13849767Y-12038028D02*
X13840243Y-11999933D01*
X13840243Y-11999933D02*
X13840243Y-11952314D01*
X13840243Y-11952314D02*
X13849767Y-11914219D01*
X13849767Y-11914219D02*
X13859291Y-11895171D01*
X13859291Y-11895171D02*
X13868815Y-11885648D01*
X13868815Y-11885648D02*
X13887862Y-11876124D01*
X14078339Y-11876124D02*
X14097386Y-11876124D01*
X14097386Y-11876124D02*
X14116434Y-11885648D01*
X14116434Y-11885648D02*
X14125958Y-11895171D01*
X14125958Y-11895171D02*
X14135482Y-11914219D01*
X14135482Y-11914219D02*
X14145005Y-11952314D01*
X14145005Y-11952314D02*
X14145005Y-11999933D01*
X14145005Y-11999933D02*
X14135482Y-12038028D01*
X14135482Y-12038028D02*
X14125958Y-12057076D01*
X14125958Y-12057076D02*
X14116434Y-12066600D01*
X14116434Y-12066600D02*
X14097386Y-12076124D01*
X14097386Y-12076124D02*
X14078339Y-12076124D01*
X14078339Y-12076124D02*
X14059291Y-12066600D01*
X14059291Y-12066600D02*
X14049767Y-12057076D01*
X14049767Y-12057076D02*
X14040243Y-12038028D01*
X14040243Y-12038028D02*
X14030720Y-11999933D01*
X14030720Y-11999933D02*
X14030720Y-11952314D01*
X14030720Y-11952314D02*
X14040243Y-11914219D01*
X14040243Y-11914219D02*
X14049767Y-11895171D01*
X14049767Y-11895171D02*
X14059291Y-11885648D01*
X14059291Y-11885648D02*
X14078339Y-11876124D01*
X14230720Y-12076124D02*
X14230720Y-11942790D01*
X14230720Y-11961838D02*
X14240243Y-11952314D01*
X14240243Y-11952314D02*
X14259291Y-11942790D01*
X14259291Y-11942790D02*
X14287863Y-11942790D01*
X14287863Y-11942790D02*
X14306910Y-11952314D01*
X14306910Y-11952314D02*
X14316434Y-11971362D01*
X14316434Y-11971362D02*
X14316434Y-12076124D01*
X14316434Y-11971362D02*
X14325958Y-11952314D01*
X14325958Y-11952314D02*
X14345005Y-11942790D01*
X14345005Y-11942790D02*
X14373577Y-11942790D01*
X14373577Y-11942790D02*
X14392624Y-11952314D01*
X14392624Y-11952314D02*
X14402148Y-11971362D01*
X14402148Y-11971362D02*
X14402148Y-12076124D01*
X14497386Y-12076124D02*
X14497386Y-11942790D01*
X14497386Y-11961838D02*
X14506910Y-11952314D01*
X14506910Y-11952314D02*
X14525958Y-11942790D01*
X14525958Y-11942790D02*
X14554529Y-11942790D01*
X14554529Y-11942790D02*
X14573577Y-11952314D01*
X14573577Y-11952314D02*
X14583101Y-11971362D01*
X14583101Y-11971362D02*
X14583101Y-12076124D01*
X14583101Y-11971362D02*
X14592624Y-11952314D01*
X14592624Y-11952314D02*
X14611672Y-11942790D01*
X14611672Y-11942790D02*
X14640243Y-11942790D01*
X14640243Y-11942790D02*
X14659291Y-11952314D01*
X14659291Y-11952314D02*
X14668815Y-11971362D01*
X14668815Y-11971362D02*
X14668815Y-12076124D01*
X15059291Y-11866600D02*
X14887863Y-12123743D01*
X15316434Y-11876124D02*
X15335482Y-11876124D01*
X15335482Y-11876124D02*
X15354529Y-11885648D01*
X15354529Y-11885648D02*
X15364053Y-11895171D01*
X15364053Y-11895171D02*
X15373577Y-11914219D01*
X15373577Y-11914219D02*
X15383101Y-11952314D01*
X15383101Y-11952314D02*
X15383101Y-11999933D01*
X15383101Y-11999933D02*
X15373577Y-12038028D01*
X15373577Y-12038028D02*
X15364053Y-12057076D01*
X15364053Y-12057076D02*
X15354529Y-12066600D01*
X15354529Y-12066600D02*
X15335482Y-12076124D01*
X15335482Y-12076124D02*
X15316434Y-12076124D01*
X15316434Y-12076124D02*
X15297386Y-12066600D01*
X15297386Y-12066600D02*
X15287863Y-12057076D01*
X15287863Y-12057076D02*
X15278339Y-12038028D01*
X15278339Y-12038028D02*
X15268815Y-11999933D01*
X15268815Y-11999933D02*
X15268815Y-11952314D01*
X15268815Y-11952314D02*
X15278339Y-11914219D01*
X15278339Y-11914219D02*
X15287863Y-11895171D01*
X15287863Y-11895171D02*
X15297386Y-11885648D01*
X15297386Y-11885648D02*
X15316434Y-11876124D01*
X15468815Y-12057076D02*
X15478339Y-12066600D01*
X15478339Y-12066600D02*
X15468815Y-12076124D01*
X15468815Y-12076124D02*
X15459291Y-12066600D01*
X15459291Y-12066600D02*
X15468815Y-12057076D01*
X15468815Y-12057076D02*
X15468815Y-12076124D01*
X15602148Y-11876124D02*
X15621196Y-11876124D01*
X15621196Y-11876124D02*
X15640244Y-11885648D01*
X15640244Y-11885648D02*
X15649767Y-11895171D01*
X15649767Y-11895171D02*
X15659291Y-11914219D01*
X15659291Y-11914219D02*
X15668815Y-11952314D01*
X15668815Y-11952314D02*
X15668815Y-11999933D01*
X15668815Y-11999933D02*
X15659291Y-12038028D01*
X15659291Y-12038028D02*
X15649767Y-12057076D01*
X15649767Y-12057076D02*
X15640244Y-12066600D01*
X15640244Y-12066600D02*
X15621196Y-12076124D01*
X15621196Y-12076124D02*
X15602148Y-12076124D01*
X15602148Y-12076124D02*
X15583101Y-12066600D01*
X15583101Y-12066600D02*
X15573577Y-12057076D01*
X15573577Y-12057076D02*
X15564053Y-12038028D01*
X15564053Y-12038028D02*
X15554529Y-11999933D01*
X15554529Y-11999933D02*
X15554529Y-11952314D01*
X15554529Y-11952314D02*
X15564053Y-11914219D01*
X15564053Y-11914219D02*
X15573577Y-11895171D01*
X15573577Y-11895171D02*
X15583101Y-11885648D01*
X15583101Y-11885648D02*
X15602148Y-11876124D01*
X15792625Y-11876124D02*
X15811672Y-11876124D01*
X15811672Y-11876124D02*
X15830720Y-11885648D01*
X15830720Y-11885648D02*
X15840244Y-11895171D01*
X15840244Y-11895171D02*
X15849767Y-11914219D01*
X15849767Y-11914219D02*
X15859291Y-11952314D01*
X15859291Y-11952314D02*
X15859291Y-11999933D01*
X15859291Y-11999933D02*
X15849767Y-12038028D01*
X15849767Y-12038028D02*
X15840244Y-12057076D01*
X15840244Y-12057076D02*
X15830720Y-12066600D01*
X15830720Y-12066600D02*
X15811672Y-12076124D01*
X15811672Y-12076124D02*
X15792625Y-12076124D01*
X15792625Y-12076124D02*
X15773577Y-12066600D01*
X15773577Y-12066600D02*
X15764053Y-12057076D01*
X15764053Y-12057076D02*
X15754529Y-12038028D01*
X15754529Y-12038028D02*
X15745006Y-11999933D01*
X15745006Y-11999933D02*
X15745006Y-11952314D01*
X15745006Y-11952314D02*
X15754529Y-11914219D01*
X15754529Y-11914219D02*
X15764053Y-11895171D01*
X15764053Y-11895171D02*
X15773577Y-11885648D01*
X15773577Y-11885648D02*
X15792625Y-11876124D01*
X15925958Y-11876124D02*
X16059291Y-11876124D01*
X16059291Y-11876124D02*
X15973577Y-12076124D01*
X16145006Y-12076124D02*
X16183101Y-12076124D01*
X16183101Y-12076124D02*
X16202148Y-12066600D01*
X16202148Y-12066600D02*
X16211672Y-12057076D01*
X16211672Y-12057076D02*
X16230720Y-12028505D01*
X16230720Y-12028505D02*
X16240244Y-11990409D01*
X16240244Y-11990409D02*
X16240244Y-11914219D01*
X16240244Y-11914219D02*
X16230720Y-11895171D01*
X16230720Y-11895171D02*
X16221196Y-11885648D01*
X16221196Y-11885648D02*
X16202148Y-11876124D01*
X16202148Y-11876124D02*
X16164053Y-11876124D01*
X16164053Y-11876124D02*
X16145006Y-11885648D01*
X16145006Y-11885648D02*
X16135482Y-11895171D01*
X16135482Y-11895171D02*
X16125958Y-11914219D01*
X16125958Y-11914219D02*
X16125958Y-11961838D01*
X16125958Y-11961838D02*
X16135482Y-11980886D01*
X16135482Y-11980886D02*
X16145006Y-11990409D01*
X16145006Y-11990409D02*
X16164053Y-11999933D01*
X16164053Y-11999933D02*
X16202148Y-11999933D01*
X16202148Y-11999933D02*
X16221196Y-11990409D01*
X16221196Y-11990409D02*
X16230720Y-11980886D01*
X16230720Y-11980886D02*
X16240244Y-11961838D01*
X16316434Y-11876124D02*
X16316434Y-11914219D01*
X16392625Y-11876124D02*
X16392625Y-11914219D01*
X16687863Y-12152314D02*
X16678339Y-12142790D01*
X16678339Y-12142790D02*
X16659291Y-12114219D01*
X16659291Y-12114219D02*
X16649768Y-12095171D01*
X16649768Y-12095171D02*
X16640244Y-12066600D01*
X16640244Y-12066600D02*
X16630720Y-12018981D01*
X16630720Y-12018981D02*
X16630720Y-11980886D01*
X16630720Y-11980886D02*
X16640244Y-11933267D01*
X16640244Y-11933267D02*
X16649768Y-11904695D01*
X16649768Y-11904695D02*
X16659291Y-11885648D01*
X16659291Y-11885648D02*
X16678339Y-11857076D01*
X16678339Y-11857076D02*
X16687863Y-11847552D01*
X16868815Y-12076124D02*
X16754529Y-12076124D01*
X16811672Y-12076124D02*
X16811672Y-11876124D01*
X16811672Y-11876124D02*
X16792625Y-11904695D01*
X16792625Y-11904695D02*
X16773577Y-11923743D01*
X16773577Y-11923743D02*
X16754529Y-11933267D01*
X17040244Y-11942790D02*
X17040244Y-12076124D01*
X16992625Y-11866600D02*
X16945006Y-12009457D01*
X16945006Y-12009457D02*
X17068815Y-12009457D01*
X17297387Y-12076124D02*
X17297387Y-11876124D01*
X17383101Y-12076124D02*
X17383101Y-11971362D01*
X17383101Y-11971362D02*
X17373577Y-11952314D01*
X17373577Y-11952314D02*
X17354530Y-11942790D01*
X17354530Y-11942790D02*
X17325958Y-11942790D01*
X17325958Y-11942790D02*
X17306911Y-11952314D01*
X17306911Y-11952314D02*
X17297387Y-11961838D01*
X17506911Y-12076124D02*
X17487863Y-12066600D01*
X17487863Y-12066600D02*
X17478339Y-12057076D01*
X17478339Y-12057076D02*
X17468815Y-12038028D01*
X17468815Y-12038028D02*
X17468815Y-11980886D01*
X17468815Y-11980886D02*
X17478339Y-11961838D01*
X17478339Y-11961838D02*
X17487863Y-11952314D01*
X17487863Y-11952314D02*
X17506911Y-11942790D01*
X17506911Y-11942790D02*
X17535482Y-11942790D01*
X17535482Y-11942790D02*
X17554530Y-11952314D01*
X17554530Y-11952314D02*
X17564053Y-11961838D01*
X17564053Y-11961838D02*
X17573577Y-11980886D01*
X17573577Y-11980886D02*
X17573577Y-12038028D01*
X17573577Y-12038028D02*
X17564053Y-12057076D01*
X17564053Y-12057076D02*
X17554530Y-12066600D01*
X17554530Y-12066600D02*
X17535482Y-12076124D01*
X17535482Y-12076124D02*
X17506911Y-12076124D01*
X17687863Y-12076124D02*
X17668815Y-12066600D01*
X17668815Y-12066600D02*
X17659292Y-12047552D01*
X17659292Y-12047552D02*
X17659292Y-11876124D01*
X17840244Y-12066600D02*
X17821196Y-12076124D01*
X17821196Y-12076124D02*
X17783101Y-12076124D01*
X17783101Y-12076124D02*
X17764053Y-12066600D01*
X17764053Y-12066600D02*
X17754530Y-12047552D01*
X17754530Y-12047552D02*
X17754530Y-11971362D01*
X17754530Y-11971362D02*
X17764053Y-11952314D01*
X17764053Y-11952314D02*
X17783101Y-11942790D01*
X17783101Y-11942790D02*
X17821196Y-11942790D01*
X17821196Y-11942790D02*
X17840244Y-11952314D01*
X17840244Y-11952314D02*
X17849768Y-11971362D01*
X17849768Y-11971362D02*
X17849768Y-11990409D01*
X17849768Y-11990409D02*
X17754530Y-12009457D01*
X17925958Y-12066600D02*
X17945006Y-12076124D01*
X17945006Y-12076124D02*
X17983101Y-12076124D01*
X17983101Y-12076124D02*
X18002149Y-12066600D01*
X18002149Y-12066600D02*
X18011673Y-12047552D01*
X18011673Y-12047552D02*
X18011673Y-12038028D01*
X18011673Y-12038028D02*
X18002149Y-12018981D01*
X18002149Y-12018981D02*
X17983101Y-12009457D01*
X17983101Y-12009457D02*
X17954530Y-12009457D01*
X17954530Y-12009457D02*
X17935482Y-11999933D01*
X17935482Y-11999933D02*
X17925958Y-11980886D01*
X17925958Y-11980886D02*
X17925958Y-11971362D01*
X17925958Y-11971362D02*
X17935482Y-11952314D01*
X17935482Y-11952314D02*
X17954530Y-11942790D01*
X17954530Y-11942790D02*
X17983101Y-11942790D01*
X17983101Y-11942790D02*
X18002149Y-11952314D01*
X18078339Y-12152314D02*
X18087863Y-12142790D01*
X18087863Y-12142790D02*
X18106911Y-12114219D01*
X18106911Y-12114219D02*
X18116434Y-12095171D01*
X18116434Y-12095171D02*
X18125958Y-12066600D01*
X18125958Y-12066600D02*
X18135482Y-12018981D01*
X18135482Y-12018981D02*
X18135482Y-11980886D01*
X18135482Y-11980886D02*
X18125958Y-11933267D01*
X18125958Y-11933267D02*
X18116434Y-11904695D01*
X18116434Y-11904695D02*
X18106911Y-11885648D01*
X18106911Y-11885648D02*
X18087863Y-11857076D01*
X18087863Y-11857076D02*
X18078339Y-11847552D01*
D10*
X13112800Y-12248640D02*
G75*
G02*
X13072800Y-12248640I-20000J0D01*
G01*
X13072800Y-12248640D02*
G75*
G02*
X13112800Y-12248640I20000J0D01*
G01*
D11*
X13411672Y-12140124D02*
X13430720Y-12140124D01*
X13430720Y-12140124D02*
X13449767Y-12149648D01*
X13449767Y-12149648D02*
X13459291Y-12159171D01*
X13459291Y-12159171D02*
X13468815Y-12178219D01*
X13468815Y-12178219D02*
X13478339Y-12216314D01*
X13478339Y-12216314D02*
X13478339Y-12263933D01*
X13478339Y-12263933D02*
X13468815Y-12302028D01*
X13468815Y-12302028D02*
X13459291Y-12321076D01*
X13459291Y-12321076D02*
X13449767Y-12330600D01*
X13449767Y-12330600D02*
X13430720Y-12340124D01*
X13430720Y-12340124D02*
X13411672Y-12340124D01*
X13411672Y-12340124D02*
X13392624Y-12330600D01*
X13392624Y-12330600D02*
X13383101Y-12321076D01*
X13383101Y-12321076D02*
X13373577Y-12302028D01*
X13373577Y-12302028D02*
X13364053Y-12263933D01*
X13364053Y-12263933D02*
X13364053Y-12216314D01*
X13364053Y-12216314D02*
X13373577Y-12178219D01*
X13373577Y-12178219D02*
X13383101Y-12159171D01*
X13383101Y-12159171D02*
X13392624Y-12149648D01*
X13392624Y-12149648D02*
X13411672Y-12140124D01*
X13564053Y-12321076D02*
X13573577Y-12330600D01*
X13573577Y-12330600D02*
X13564053Y-12340124D01*
X13564053Y-12340124D02*
X13554529Y-12330600D01*
X13554529Y-12330600D02*
X13564053Y-12321076D01*
X13564053Y-12321076D02*
X13564053Y-12340124D01*
X13745005Y-12206790D02*
X13745005Y-12340124D01*
X13697386Y-12130600D02*
X13649767Y-12273457D01*
X13649767Y-12273457D02*
X13773577Y-12273457D01*
X13887862Y-12140124D02*
X13906910Y-12140124D01*
X13906910Y-12140124D02*
X13925958Y-12149648D01*
X13925958Y-12149648D02*
X13935482Y-12159171D01*
X13935482Y-12159171D02*
X13945005Y-12178219D01*
X13945005Y-12178219D02*
X13954529Y-12216314D01*
X13954529Y-12216314D02*
X13954529Y-12263933D01*
X13954529Y-12263933D02*
X13945005Y-12302028D01*
X13945005Y-12302028D02*
X13935482Y-12321076D01*
X13935482Y-12321076D02*
X13925958Y-12330600D01*
X13925958Y-12330600D02*
X13906910Y-12340124D01*
X13906910Y-12340124D02*
X13887862Y-12340124D01*
X13887862Y-12340124D02*
X13868815Y-12330600D01*
X13868815Y-12330600D02*
X13859291Y-12321076D01*
X13859291Y-12321076D02*
X13849767Y-12302028D01*
X13849767Y-12302028D02*
X13840243Y-12263933D01*
X13840243Y-12263933D02*
X13840243Y-12216314D01*
X13840243Y-12216314D02*
X13849767Y-12178219D01*
X13849767Y-12178219D02*
X13859291Y-12159171D01*
X13859291Y-12159171D02*
X13868815Y-12149648D01*
X13868815Y-12149648D02*
X13887862Y-12140124D01*
X14078339Y-12140124D02*
X14097386Y-12140124D01*
X14097386Y-12140124D02*
X14116434Y-12149648D01*
X14116434Y-12149648D02*
X14125958Y-12159171D01*
X14125958Y-12159171D02*
X14135482Y-12178219D01*
X14135482Y-12178219D02*
X14145005Y-12216314D01*
X14145005Y-12216314D02*
X14145005Y-12263933D01*
X14145005Y-12263933D02*
X14135482Y-12302028D01*
X14135482Y-12302028D02*
X14125958Y-12321076D01*
X14125958Y-12321076D02*
X14116434Y-12330600D01*
X14116434Y-12330600D02*
X14097386Y-12340124D01*
X14097386Y-12340124D02*
X14078339Y-12340124D01*
X14078339Y-12340124D02*
X14059291Y-12330600D01*
X14059291Y-12330600D02*
X14049767Y-12321076D01*
X14049767Y-12321076D02*
X14040243Y-12302028D01*
X14040243Y-12302028D02*
X14030720Y-12263933D01*
X14030720Y-12263933D02*
X14030720Y-12216314D01*
X14030720Y-12216314D02*
X14040243Y-12178219D01*
X14040243Y-12178219D02*
X14049767Y-12159171D01*
X14049767Y-12159171D02*
X14059291Y-12149648D01*
X14059291Y-12149648D02*
X14078339Y-12140124D01*
X14230720Y-12340124D02*
X14230720Y-12206790D01*
X14230720Y-12225838D02*
X14240243Y-12216314D01*
X14240243Y-12216314D02*
X14259291Y-12206790D01*
X14259291Y-12206790D02*
X14287863Y-12206790D01*
X14287863Y-12206790D02*
X14306910Y-12216314D01*
X14306910Y-12216314D02*
X14316434Y-12235362D01*
X14316434Y-12235362D02*
X14316434Y-12340124D01*
X14316434Y-12235362D02*
X14325958Y-12216314D01*
X14325958Y-12216314D02*
X14345005Y-12206790D01*
X14345005Y-12206790D02*
X14373577Y-12206790D01*
X14373577Y-12206790D02*
X14392624Y-12216314D01*
X14392624Y-12216314D02*
X14402148Y-12235362D01*
X14402148Y-12235362D02*
X14402148Y-12340124D01*
X14497386Y-12340124D02*
X14497386Y-12206790D01*
X14497386Y-12225838D02*
X14506910Y-12216314D01*
X14506910Y-12216314D02*
X14525958Y-12206790D01*
X14525958Y-12206790D02*
X14554529Y-12206790D01*
X14554529Y-12206790D02*
X14573577Y-12216314D01*
X14573577Y-12216314D02*
X14583101Y-12235362D01*
X14583101Y-12235362D02*
X14583101Y-12340124D01*
X14583101Y-12235362D02*
X14592624Y-12216314D01*
X14592624Y-12216314D02*
X14611672Y-12206790D01*
X14611672Y-12206790D02*
X14640243Y-12206790D01*
X14640243Y-12206790D02*
X14659291Y-12216314D01*
X14659291Y-12216314D02*
X14668815Y-12235362D01*
X14668815Y-12235362D02*
X14668815Y-12340124D01*
X15059291Y-12130600D02*
X14887863Y-12387743D01*
X15316434Y-12140124D02*
X15335482Y-12140124D01*
X15335482Y-12140124D02*
X15354529Y-12149648D01*
X15354529Y-12149648D02*
X15364053Y-12159171D01*
X15364053Y-12159171D02*
X15373577Y-12178219D01*
X15373577Y-12178219D02*
X15383101Y-12216314D01*
X15383101Y-12216314D02*
X15383101Y-12263933D01*
X15383101Y-12263933D02*
X15373577Y-12302028D01*
X15373577Y-12302028D02*
X15364053Y-12321076D01*
X15364053Y-12321076D02*
X15354529Y-12330600D01*
X15354529Y-12330600D02*
X15335482Y-12340124D01*
X15335482Y-12340124D02*
X15316434Y-12340124D01*
X15316434Y-12340124D02*
X15297386Y-12330600D01*
X15297386Y-12330600D02*
X15287863Y-12321076D01*
X15287863Y-12321076D02*
X15278339Y-12302028D01*
X15278339Y-12302028D02*
X15268815Y-12263933D01*
X15268815Y-12263933D02*
X15268815Y-12216314D01*
X15268815Y-12216314D02*
X15278339Y-12178219D01*
X15278339Y-12178219D02*
X15287863Y-12159171D01*
X15287863Y-12159171D02*
X15297386Y-12149648D01*
X15297386Y-12149648D02*
X15316434Y-12140124D01*
X15468815Y-12321076D02*
X15478339Y-12330600D01*
X15478339Y-12330600D02*
X15468815Y-12340124D01*
X15468815Y-12340124D02*
X15459291Y-12330600D01*
X15459291Y-12330600D02*
X15468815Y-12321076D01*
X15468815Y-12321076D02*
X15468815Y-12340124D01*
X15602148Y-12140124D02*
X15621196Y-12140124D01*
X15621196Y-12140124D02*
X15640244Y-12149648D01*
X15640244Y-12149648D02*
X15649767Y-12159171D01*
X15649767Y-12159171D02*
X15659291Y-12178219D01*
X15659291Y-12178219D02*
X15668815Y-12216314D01*
X15668815Y-12216314D02*
X15668815Y-12263933D01*
X15668815Y-12263933D02*
X15659291Y-12302028D01*
X15659291Y-12302028D02*
X15649767Y-12321076D01*
X15649767Y-12321076D02*
X15640244Y-12330600D01*
X15640244Y-12330600D02*
X15621196Y-12340124D01*
X15621196Y-12340124D02*
X15602148Y-12340124D01*
X15602148Y-12340124D02*
X15583101Y-12330600D01*
X15583101Y-12330600D02*
X15573577Y-12321076D01*
X15573577Y-12321076D02*
X15564053Y-12302028D01*
X15564053Y-12302028D02*
X15554529Y-12263933D01*
X15554529Y-12263933D02*
X15554529Y-12216314D01*
X15554529Y-12216314D02*
X15564053Y-12178219D01*
X15564053Y-12178219D02*
X15573577Y-12159171D01*
X15573577Y-12159171D02*
X15583101Y-12149648D01*
X15583101Y-12149648D02*
X15602148Y-12140124D01*
X15859291Y-12340124D02*
X15745006Y-12340124D01*
X15802148Y-12340124D02*
X15802148Y-12140124D01*
X15802148Y-12140124D02*
X15783101Y-12168695D01*
X15783101Y-12168695D02*
X15764053Y-12187743D01*
X15764053Y-12187743D02*
X15745006Y-12197267D01*
X16040244Y-12140124D02*
X15945006Y-12140124D01*
X15945006Y-12140124D02*
X15935482Y-12235362D01*
X15935482Y-12235362D02*
X15945006Y-12225838D01*
X15945006Y-12225838D02*
X15964053Y-12216314D01*
X15964053Y-12216314D02*
X16011672Y-12216314D01*
X16011672Y-12216314D02*
X16030720Y-12225838D01*
X16030720Y-12225838D02*
X16040244Y-12235362D01*
X16040244Y-12235362D02*
X16049767Y-12254409D01*
X16049767Y-12254409D02*
X16049767Y-12302028D01*
X16049767Y-12302028D02*
X16040244Y-12321076D01*
X16040244Y-12321076D02*
X16030720Y-12330600D01*
X16030720Y-12330600D02*
X16011672Y-12340124D01*
X16011672Y-12340124D02*
X15964053Y-12340124D01*
X15964053Y-12340124D02*
X15945006Y-12330600D01*
X15945006Y-12330600D02*
X15935482Y-12321076D01*
X16116434Y-12140124D02*
X16249767Y-12140124D01*
X16249767Y-12140124D02*
X16164053Y-12340124D01*
X16316434Y-12140124D02*
X16316434Y-12178219D01*
X16392625Y-12140124D02*
X16392625Y-12178219D01*
X16687863Y-12416314D02*
X16678339Y-12406790D01*
X16678339Y-12406790D02*
X16659291Y-12378219D01*
X16659291Y-12378219D02*
X16649768Y-12359171D01*
X16649768Y-12359171D02*
X16640244Y-12330600D01*
X16640244Y-12330600D02*
X16630720Y-12282981D01*
X16630720Y-12282981D02*
X16630720Y-12244886D01*
X16630720Y-12244886D02*
X16640244Y-12197267D01*
X16640244Y-12197267D02*
X16649768Y-12168695D01*
X16649768Y-12168695D02*
X16659291Y-12149648D01*
X16659291Y-12149648D02*
X16678339Y-12121076D01*
X16678339Y-12121076D02*
X16687863Y-12111552D01*
X16754529Y-12159171D02*
X16764053Y-12149648D01*
X16764053Y-12149648D02*
X16783101Y-12140124D01*
X16783101Y-12140124D02*
X16830720Y-12140124D01*
X16830720Y-12140124D02*
X16849768Y-12149648D01*
X16849768Y-12149648D02*
X16859291Y-12159171D01*
X16859291Y-12159171D02*
X16868815Y-12178219D01*
X16868815Y-12178219D02*
X16868815Y-12197267D01*
X16868815Y-12197267D02*
X16859291Y-12225838D01*
X16859291Y-12225838D02*
X16745006Y-12340124D01*
X16745006Y-12340124D02*
X16868815Y-12340124D01*
X17106911Y-12340124D02*
X17106911Y-12140124D01*
X17192625Y-12340124D02*
X17192625Y-12235362D01*
X17192625Y-12235362D02*
X17183101Y-12216314D01*
X17183101Y-12216314D02*
X17164053Y-12206790D01*
X17164053Y-12206790D02*
X17135482Y-12206790D01*
X17135482Y-12206790D02*
X17116434Y-12216314D01*
X17116434Y-12216314D02*
X17106911Y-12225838D01*
X17316434Y-12340124D02*
X17297387Y-12330600D01*
X17297387Y-12330600D02*
X17287863Y-12321076D01*
X17287863Y-12321076D02*
X17278339Y-12302028D01*
X17278339Y-12302028D02*
X17278339Y-12244886D01*
X17278339Y-12244886D02*
X17287863Y-12225838D01*
X17287863Y-12225838D02*
X17297387Y-12216314D01*
X17297387Y-12216314D02*
X17316434Y-12206790D01*
X17316434Y-12206790D02*
X17345006Y-12206790D01*
X17345006Y-12206790D02*
X17364053Y-12216314D01*
X17364053Y-12216314D02*
X17373577Y-12225838D01*
X17373577Y-12225838D02*
X17383101Y-12244886D01*
X17383101Y-12244886D02*
X17383101Y-12302028D01*
X17383101Y-12302028D02*
X17373577Y-12321076D01*
X17373577Y-12321076D02*
X17364053Y-12330600D01*
X17364053Y-12330600D02*
X17345006Y-12340124D01*
X17345006Y-12340124D02*
X17316434Y-12340124D01*
X17497387Y-12340124D02*
X17478339Y-12330600D01*
X17478339Y-12330600D02*
X17468815Y-12311552D01*
X17468815Y-12311552D02*
X17468815Y-12140124D01*
X17649768Y-12330600D02*
X17630720Y-12340124D01*
X17630720Y-12340124D02*
X17592625Y-12340124D01*
X17592625Y-12340124D02*
X17573577Y-12330600D01*
X17573577Y-12330600D02*
X17564053Y-12311552D01*
X17564053Y-12311552D02*
X17564053Y-12235362D01*
X17564053Y-12235362D02*
X17573577Y-12216314D01*
X17573577Y-12216314D02*
X17592625Y-12206790D01*
X17592625Y-12206790D02*
X17630720Y-12206790D01*
X17630720Y-12206790D02*
X17649768Y-12216314D01*
X17649768Y-12216314D02*
X17659292Y-12235362D01*
X17659292Y-12235362D02*
X17659292Y-12254409D01*
X17659292Y-12254409D02*
X17564053Y-12273457D01*
X17735482Y-12330600D02*
X17754530Y-12340124D01*
X17754530Y-12340124D02*
X17792625Y-12340124D01*
X17792625Y-12340124D02*
X17811673Y-12330600D01*
X17811673Y-12330600D02*
X17821196Y-12311552D01*
X17821196Y-12311552D02*
X17821196Y-12302028D01*
X17821196Y-12302028D02*
X17811673Y-12282981D01*
X17811673Y-12282981D02*
X17792625Y-12273457D01*
X17792625Y-12273457D02*
X17764053Y-12273457D01*
X17764053Y-12273457D02*
X17745006Y-12263933D01*
X17745006Y-12263933D02*
X17735482Y-12244886D01*
X17735482Y-12244886D02*
X17735482Y-12235362D01*
X17735482Y-12235362D02*
X17745006Y-12216314D01*
X17745006Y-12216314D02*
X17764053Y-12206790D01*
X17764053Y-12206790D02*
X17792625Y-12206790D01*
X17792625Y-12206790D02*
X17811673Y-12216314D01*
X17887863Y-12416314D02*
X17897387Y-12406790D01*
X17897387Y-12406790D02*
X17916434Y-12378219D01*
X17916434Y-12378219D02*
X17925958Y-12359171D01*
X17925958Y-12359171D02*
X17935482Y-12330600D01*
X17935482Y-12330600D02*
X17945006Y-12282981D01*
X17945006Y-12282981D02*
X17945006Y-12244886D01*
X17945006Y-12244886D02*
X17935482Y-12197267D01*
X17935482Y-12197267D02*
X17925958Y-12168695D01*
X17925958Y-12168695D02*
X17916434Y-12149648D01*
X17916434Y-12149648D02*
X17897387Y-12121076D01*
X17897387Y-12121076D02*
X17887863Y-12111552D01*
D10*
X13082800Y-12482640D02*
X13082800Y-12542640D01*
X13052800Y-12512640D02*
X13112800Y-12512640D01*
D11*
X13411672Y-12404124D02*
X13430720Y-12404124D01*
X13430720Y-12404124D02*
X13449767Y-12413648D01*
X13449767Y-12413648D02*
X13459291Y-12423171D01*
X13459291Y-12423171D02*
X13468815Y-12442219D01*
X13468815Y-12442219D02*
X13478339Y-12480314D01*
X13478339Y-12480314D02*
X13478339Y-12527933D01*
X13478339Y-12527933D02*
X13468815Y-12566028D01*
X13468815Y-12566028D02*
X13459291Y-12585076D01*
X13459291Y-12585076D02*
X13449767Y-12594600D01*
X13449767Y-12594600D02*
X13430720Y-12604124D01*
X13430720Y-12604124D02*
X13411672Y-12604124D01*
X13411672Y-12604124D02*
X13392624Y-12594600D01*
X13392624Y-12594600D02*
X13383101Y-12585076D01*
X13383101Y-12585076D02*
X13373577Y-12566028D01*
X13373577Y-12566028D02*
X13364053Y-12527933D01*
X13364053Y-12527933D02*
X13364053Y-12480314D01*
X13364053Y-12480314D02*
X13373577Y-12442219D01*
X13373577Y-12442219D02*
X13383101Y-12423171D01*
X13383101Y-12423171D02*
X13392624Y-12413648D01*
X13392624Y-12413648D02*
X13411672Y-12404124D01*
X13564053Y-12585076D02*
X13573577Y-12594600D01*
X13573577Y-12594600D02*
X13564053Y-12604124D01*
X13564053Y-12604124D02*
X13554529Y-12594600D01*
X13554529Y-12594600D02*
X13564053Y-12585076D01*
X13564053Y-12585076D02*
X13564053Y-12604124D01*
X13745005Y-12404124D02*
X13706910Y-12404124D01*
X13706910Y-12404124D02*
X13687862Y-12413648D01*
X13687862Y-12413648D02*
X13678339Y-12423171D01*
X13678339Y-12423171D02*
X13659291Y-12451743D01*
X13659291Y-12451743D02*
X13649767Y-12489838D01*
X13649767Y-12489838D02*
X13649767Y-12566028D01*
X13649767Y-12566028D02*
X13659291Y-12585076D01*
X13659291Y-12585076D02*
X13668815Y-12594600D01*
X13668815Y-12594600D02*
X13687862Y-12604124D01*
X13687862Y-12604124D02*
X13725958Y-12604124D01*
X13725958Y-12604124D02*
X13745005Y-12594600D01*
X13745005Y-12594600D02*
X13754529Y-12585076D01*
X13754529Y-12585076D02*
X13764053Y-12566028D01*
X13764053Y-12566028D02*
X13764053Y-12518409D01*
X13764053Y-12518409D02*
X13754529Y-12499362D01*
X13754529Y-12499362D02*
X13745005Y-12489838D01*
X13745005Y-12489838D02*
X13725958Y-12480314D01*
X13725958Y-12480314D02*
X13687862Y-12480314D01*
X13687862Y-12480314D02*
X13668815Y-12489838D01*
X13668815Y-12489838D02*
X13659291Y-12499362D01*
X13659291Y-12499362D02*
X13649767Y-12518409D01*
X13887862Y-12404124D02*
X13906910Y-12404124D01*
X13906910Y-12404124D02*
X13925958Y-12413648D01*
X13925958Y-12413648D02*
X13935482Y-12423171D01*
X13935482Y-12423171D02*
X13945005Y-12442219D01*
X13945005Y-12442219D02*
X13954529Y-12480314D01*
X13954529Y-12480314D02*
X13954529Y-12527933D01*
X13954529Y-12527933D02*
X13945005Y-12566028D01*
X13945005Y-12566028D02*
X13935482Y-12585076D01*
X13935482Y-12585076D02*
X13925958Y-12594600D01*
X13925958Y-12594600D02*
X13906910Y-12604124D01*
X13906910Y-12604124D02*
X13887862Y-12604124D01*
X13887862Y-12604124D02*
X13868815Y-12594600D01*
X13868815Y-12594600D02*
X13859291Y-12585076D01*
X13859291Y-12585076D02*
X13849767Y-12566028D01*
X13849767Y-12566028D02*
X13840243Y-12527933D01*
X13840243Y-12527933D02*
X13840243Y-12480314D01*
X13840243Y-12480314D02*
X13849767Y-12442219D01*
X13849767Y-12442219D02*
X13859291Y-12423171D01*
X13859291Y-12423171D02*
X13868815Y-12413648D01*
X13868815Y-12413648D02*
X13887862Y-12404124D01*
X14078339Y-12404124D02*
X14097386Y-12404124D01*
X14097386Y-12404124D02*
X14116434Y-12413648D01*
X14116434Y-12413648D02*
X14125958Y-12423171D01*
X14125958Y-12423171D02*
X14135482Y-12442219D01*
X14135482Y-12442219D02*
X14145005Y-12480314D01*
X14145005Y-12480314D02*
X14145005Y-12527933D01*
X14145005Y-12527933D02*
X14135482Y-12566028D01*
X14135482Y-12566028D02*
X14125958Y-12585076D01*
X14125958Y-12585076D02*
X14116434Y-12594600D01*
X14116434Y-12594600D02*
X14097386Y-12604124D01*
X14097386Y-12604124D02*
X14078339Y-12604124D01*
X14078339Y-12604124D02*
X14059291Y-12594600D01*
X14059291Y-12594600D02*
X14049767Y-12585076D01*
X14049767Y-12585076D02*
X14040243Y-12566028D01*
X14040243Y-12566028D02*
X14030720Y-12527933D01*
X14030720Y-12527933D02*
X14030720Y-12480314D01*
X14030720Y-12480314D02*
X14040243Y-12442219D01*
X14040243Y-12442219D02*
X14049767Y-12423171D01*
X14049767Y-12423171D02*
X14059291Y-12413648D01*
X14059291Y-12413648D02*
X14078339Y-12404124D01*
X14230720Y-12604124D02*
X14230720Y-12470790D01*
X14230720Y-12489838D02*
X14240243Y-12480314D01*
X14240243Y-12480314D02*
X14259291Y-12470790D01*
X14259291Y-12470790D02*
X14287863Y-12470790D01*
X14287863Y-12470790D02*
X14306910Y-12480314D01*
X14306910Y-12480314D02*
X14316434Y-12499362D01*
X14316434Y-12499362D02*
X14316434Y-12604124D01*
X14316434Y-12499362D02*
X14325958Y-12480314D01*
X14325958Y-12480314D02*
X14345005Y-12470790D01*
X14345005Y-12470790D02*
X14373577Y-12470790D01*
X14373577Y-12470790D02*
X14392624Y-12480314D01*
X14392624Y-12480314D02*
X14402148Y-12499362D01*
X14402148Y-12499362D02*
X14402148Y-12604124D01*
X14497386Y-12604124D02*
X14497386Y-12470790D01*
X14497386Y-12489838D02*
X14506910Y-12480314D01*
X14506910Y-12480314D02*
X14525958Y-12470790D01*
X14525958Y-12470790D02*
X14554529Y-12470790D01*
X14554529Y-12470790D02*
X14573577Y-12480314D01*
X14573577Y-12480314D02*
X14583101Y-12499362D01*
X14583101Y-12499362D02*
X14583101Y-12604124D01*
X14583101Y-12499362D02*
X14592624Y-12480314D01*
X14592624Y-12480314D02*
X14611672Y-12470790D01*
X14611672Y-12470790D02*
X14640243Y-12470790D01*
X14640243Y-12470790D02*
X14659291Y-12480314D01*
X14659291Y-12480314D02*
X14668815Y-12499362D01*
X14668815Y-12499362D02*
X14668815Y-12604124D01*
X15059291Y-12394600D02*
X14887863Y-12651743D01*
X15316434Y-12404124D02*
X15335482Y-12404124D01*
X15335482Y-12404124D02*
X15354529Y-12413648D01*
X15354529Y-12413648D02*
X15364053Y-12423171D01*
X15364053Y-12423171D02*
X15373577Y-12442219D01*
X15373577Y-12442219D02*
X15383101Y-12480314D01*
X15383101Y-12480314D02*
X15383101Y-12527933D01*
X15383101Y-12527933D02*
X15373577Y-12566028D01*
X15373577Y-12566028D02*
X15364053Y-12585076D01*
X15364053Y-12585076D02*
X15354529Y-12594600D01*
X15354529Y-12594600D02*
X15335482Y-12604124D01*
X15335482Y-12604124D02*
X15316434Y-12604124D01*
X15316434Y-12604124D02*
X15297386Y-12594600D01*
X15297386Y-12594600D02*
X15287863Y-12585076D01*
X15287863Y-12585076D02*
X15278339Y-12566028D01*
X15278339Y-12566028D02*
X15268815Y-12527933D01*
X15268815Y-12527933D02*
X15268815Y-12480314D01*
X15268815Y-12480314D02*
X15278339Y-12442219D01*
X15278339Y-12442219D02*
X15287863Y-12423171D01*
X15287863Y-12423171D02*
X15297386Y-12413648D01*
X15297386Y-12413648D02*
X15316434Y-12404124D01*
X15468815Y-12585076D02*
X15478339Y-12594600D01*
X15478339Y-12594600D02*
X15468815Y-12604124D01*
X15468815Y-12604124D02*
X15459291Y-12594600D01*
X15459291Y-12594600D02*
X15468815Y-12585076D01*
X15468815Y-12585076D02*
X15468815Y-12604124D01*
X15602148Y-12404124D02*
X15621196Y-12404124D01*
X15621196Y-12404124D02*
X15640244Y-12413648D01*
X15640244Y-12413648D02*
X15649767Y-12423171D01*
X15649767Y-12423171D02*
X15659291Y-12442219D01*
X15659291Y-12442219D02*
X15668815Y-12480314D01*
X15668815Y-12480314D02*
X15668815Y-12527933D01*
X15668815Y-12527933D02*
X15659291Y-12566028D01*
X15659291Y-12566028D02*
X15649767Y-12585076D01*
X15649767Y-12585076D02*
X15640244Y-12594600D01*
X15640244Y-12594600D02*
X15621196Y-12604124D01*
X15621196Y-12604124D02*
X15602148Y-12604124D01*
X15602148Y-12604124D02*
X15583101Y-12594600D01*
X15583101Y-12594600D02*
X15573577Y-12585076D01*
X15573577Y-12585076D02*
X15564053Y-12566028D01*
X15564053Y-12566028D02*
X15554529Y-12527933D01*
X15554529Y-12527933D02*
X15554529Y-12480314D01*
X15554529Y-12480314D02*
X15564053Y-12442219D01*
X15564053Y-12442219D02*
X15573577Y-12423171D01*
X15573577Y-12423171D02*
X15583101Y-12413648D01*
X15583101Y-12413648D02*
X15602148Y-12404124D01*
X15745006Y-12423171D02*
X15754529Y-12413648D01*
X15754529Y-12413648D02*
X15773577Y-12404124D01*
X15773577Y-12404124D02*
X15821196Y-12404124D01*
X15821196Y-12404124D02*
X15840244Y-12413648D01*
X15840244Y-12413648D02*
X15849767Y-12423171D01*
X15849767Y-12423171D02*
X15859291Y-12442219D01*
X15859291Y-12442219D02*
X15859291Y-12461267D01*
X15859291Y-12461267D02*
X15849767Y-12489838D01*
X15849767Y-12489838D02*
X15735482Y-12604124D01*
X15735482Y-12604124D02*
X15859291Y-12604124D01*
X15925958Y-12404124D02*
X16049767Y-12404124D01*
X16049767Y-12404124D02*
X15983101Y-12480314D01*
X15983101Y-12480314D02*
X16011672Y-12480314D01*
X16011672Y-12480314D02*
X16030720Y-12489838D01*
X16030720Y-12489838D02*
X16040244Y-12499362D01*
X16040244Y-12499362D02*
X16049767Y-12518409D01*
X16049767Y-12518409D02*
X16049767Y-12566028D01*
X16049767Y-12566028D02*
X16040244Y-12585076D01*
X16040244Y-12585076D02*
X16030720Y-12594600D01*
X16030720Y-12594600D02*
X16011672Y-12604124D01*
X16011672Y-12604124D02*
X15954529Y-12604124D01*
X15954529Y-12604124D02*
X15935482Y-12594600D01*
X15935482Y-12594600D02*
X15925958Y-12585076D01*
X16221196Y-12404124D02*
X16183101Y-12404124D01*
X16183101Y-12404124D02*
X16164053Y-12413648D01*
X16164053Y-12413648D02*
X16154529Y-12423171D01*
X16154529Y-12423171D02*
X16135482Y-12451743D01*
X16135482Y-12451743D02*
X16125958Y-12489838D01*
X16125958Y-12489838D02*
X16125958Y-12566028D01*
X16125958Y-12566028D02*
X16135482Y-12585076D01*
X16135482Y-12585076D02*
X16145006Y-12594600D01*
X16145006Y-12594600D02*
X16164053Y-12604124D01*
X16164053Y-12604124D02*
X16202148Y-12604124D01*
X16202148Y-12604124D02*
X16221196Y-12594600D01*
X16221196Y-12594600D02*
X16230720Y-12585076D01*
X16230720Y-12585076D02*
X16240244Y-12566028D01*
X16240244Y-12566028D02*
X16240244Y-12518409D01*
X16240244Y-12518409D02*
X16230720Y-12499362D01*
X16230720Y-12499362D02*
X16221196Y-12489838D01*
X16221196Y-12489838D02*
X16202148Y-12480314D01*
X16202148Y-12480314D02*
X16164053Y-12480314D01*
X16164053Y-12480314D02*
X16145006Y-12489838D01*
X16145006Y-12489838D02*
X16135482Y-12499362D01*
X16135482Y-12499362D02*
X16125958Y-12518409D01*
X16316434Y-12404124D02*
X16316434Y-12442219D01*
X16392625Y-12404124D02*
X16392625Y-12442219D01*
X16687863Y-12680314D02*
X16678339Y-12670790D01*
X16678339Y-12670790D02*
X16659291Y-12642219D01*
X16659291Y-12642219D02*
X16649768Y-12623171D01*
X16649768Y-12623171D02*
X16640244Y-12594600D01*
X16640244Y-12594600D02*
X16630720Y-12546981D01*
X16630720Y-12546981D02*
X16630720Y-12508886D01*
X16630720Y-12508886D02*
X16640244Y-12461267D01*
X16640244Y-12461267D02*
X16649768Y-12432695D01*
X16649768Y-12432695D02*
X16659291Y-12413648D01*
X16659291Y-12413648D02*
X16678339Y-12385076D01*
X16678339Y-12385076D02*
X16687863Y-12375552D01*
X16754529Y-12423171D02*
X16764053Y-12413648D01*
X16764053Y-12413648D02*
X16783101Y-12404124D01*
X16783101Y-12404124D02*
X16830720Y-12404124D01*
X16830720Y-12404124D02*
X16849768Y-12413648D01*
X16849768Y-12413648D02*
X16859291Y-12423171D01*
X16859291Y-12423171D02*
X16868815Y-12442219D01*
X16868815Y-12442219D02*
X16868815Y-12461267D01*
X16868815Y-12461267D02*
X16859291Y-12489838D01*
X16859291Y-12489838D02*
X16745006Y-12604124D01*
X16745006Y-12604124D02*
X16868815Y-12604124D01*
X17106911Y-12604124D02*
X17106911Y-12404124D01*
X17192625Y-12604124D02*
X17192625Y-12499362D01*
X17192625Y-12499362D02*
X17183101Y-12480314D01*
X17183101Y-12480314D02*
X17164053Y-12470790D01*
X17164053Y-12470790D02*
X17135482Y-12470790D01*
X17135482Y-12470790D02*
X17116434Y-12480314D01*
X17116434Y-12480314D02*
X17106911Y-12489838D01*
X17316434Y-12604124D02*
X17297387Y-12594600D01*
X17297387Y-12594600D02*
X17287863Y-12585076D01*
X17287863Y-12585076D02*
X17278339Y-12566028D01*
X17278339Y-12566028D02*
X17278339Y-12508886D01*
X17278339Y-12508886D02*
X17287863Y-12489838D01*
X17287863Y-12489838D02*
X17297387Y-12480314D01*
X17297387Y-12480314D02*
X17316434Y-12470790D01*
X17316434Y-12470790D02*
X17345006Y-12470790D01*
X17345006Y-12470790D02*
X17364053Y-12480314D01*
X17364053Y-12480314D02*
X17373577Y-12489838D01*
X17373577Y-12489838D02*
X17383101Y-12508886D01*
X17383101Y-12508886D02*
X17383101Y-12566028D01*
X17383101Y-12566028D02*
X17373577Y-12585076D01*
X17373577Y-12585076D02*
X17364053Y-12594600D01*
X17364053Y-12594600D02*
X17345006Y-12604124D01*
X17345006Y-12604124D02*
X17316434Y-12604124D01*
X17497387Y-12604124D02*
X17478339Y-12594600D01*
X17478339Y-12594600D02*
X17468815Y-12575552D01*
X17468815Y-12575552D02*
X17468815Y-12404124D01*
X17649768Y-12594600D02*
X17630720Y-12604124D01*
X17630720Y-12604124D02*
X17592625Y-12604124D01*
X17592625Y-12604124D02*
X17573577Y-12594600D01*
X17573577Y-12594600D02*
X17564053Y-12575552D01*
X17564053Y-12575552D02*
X17564053Y-12499362D01*
X17564053Y-12499362D02*
X17573577Y-12480314D01*
X17573577Y-12480314D02*
X17592625Y-12470790D01*
X17592625Y-12470790D02*
X17630720Y-12470790D01*
X17630720Y-12470790D02*
X17649768Y-12480314D01*
X17649768Y-12480314D02*
X17659292Y-12499362D01*
X17659292Y-12499362D02*
X17659292Y-12518409D01*
X17659292Y-12518409D02*
X17564053Y-12537457D01*
X17735482Y-12594600D02*
X17754530Y-12604124D01*
X17754530Y-12604124D02*
X17792625Y-12604124D01*
X17792625Y-12604124D02*
X17811673Y-12594600D01*
X17811673Y-12594600D02*
X17821196Y-12575552D01*
X17821196Y-12575552D02*
X17821196Y-12566028D01*
X17821196Y-12566028D02*
X17811673Y-12546981D01*
X17811673Y-12546981D02*
X17792625Y-12537457D01*
X17792625Y-12537457D02*
X17764053Y-12537457D01*
X17764053Y-12537457D02*
X17745006Y-12527933D01*
X17745006Y-12527933D02*
X17735482Y-12508886D01*
X17735482Y-12508886D02*
X17735482Y-12499362D01*
X17735482Y-12499362D02*
X17745006Y-12480314D01*
X17745006Y-12480314D02*
X17764053Y-12470790D01*
X17764053Y-12470790D02*
X17792625Y-12470790D01*
X17792625Y-12470790D02*
X17811673Y-12480314D01*
X17887863Y-12680314D02*
X17897387Y-12670790D01*
X17897387Y-12670790D02*
X17916434Y-12642219D01*
X17916434Y-12642219D02*
X17925958Y-12623171D01*
X17925958Y-12623171D02*
X17935482Y-12594600D01*
X17935482Y-12594600D02*
X17945006Y-12546981D01*
X17945006Y-12546981D02*
X17945006Y-12508886D01*
X17945006Y-12508886D02*
X17935482Y-12461267D01*
X17935482Y-12461267D02*
X17925958Y-12432695D01*
X17925958Y-12432695D02*
X17916434Y-12413648D01*
X17916434Y-12413648D02*
X17897387Y-12385076D01*
X17897387Y-12385076D02*
X17887863Y-12375552D01*
D10*
X13102549Y-12801389D02*
X13102549Y-12751891D01*
X13053051Y-12751891D01*
X13053051Y-12801389D01*
X13102549Y-12801389D01*
D11*
X13411672Y-12668124D02*
X13430720Y-12668124D01*
X13430720Y-12668124D02*
X13449767Y-12677648D01*
X13449767Y-12677648D02*
X13459291Y-12687171D01*
X13459291Y-12687171D02*
X13468815Y-12706219D01*
X13468815Y-12706219D02*
X13478339Y-12744314D01*
X13478339Y-12744314D02*
X13478339Y-12791933D01*
X13478339Y-12791933D02*
X13468815Y-12830028D01*
X13468815Y-12830028D02*
X13459291Y-12849076D01*
X13459291Y-12849076D02*
X13449767Y-12858600D01*
X13449767Y-12858600D02*
X13430720Y-12868124D01*
X13430720Y-12868124D02*
X13411672Y-12868124D01*
X13411672Y-12868124D02*
X13392624Y-12858600D01*
X13392624Y-12858600D02*
X13383101Y-12849076D01*
X13383101Y-12849076D02*
X13373577Y-12830028D01*
X13373577Y-12830028D02*
X13364053Y-12791933D01*
X13364053Y-12791933D02*
X13364053Y-12744314D01*
X13364053Y-12744314D02*
X13373577Y-12706219D01*
X13373577Y-12706219D02*
X13383101Y-12687171D01*
X13383101Y-12687171D02*
X13392624Y-12677648D01*
X13392624Y-12677648D02*
X13411672Y-12668124D01*
X13564053Y-12849076D02*
X13573577Y-12858600D01*
X13573577Y-12858600D02*
X13564053Y-12868124D01*
X13564053Y-12868124D02*
X13554529Y-12858600D01*
X13554529Y-12858600D02*
X13564053Y-12849076D01*
X13564053Y-12849076D02*
X13564053Y-12868124D01*
X13640243Y-12668124D02*
X13773577Y-12668124D01*
X13773577Y-12668124D02*
X13687862Y-12868124D01*
X13887862Y-12668124D02*
X13906910Y-12668124D01*
X13906910Y-12668124D02*
X13925958Y-12677648D01*
X13925958Y-12677648D02*
X13935482Y-12687171D01*
X13935482Y-12687171D02*
X13945005Y-12706219D01*
X13945005Y-12706219D02*
X13954529Y-12744314D01*
X13954529Y-12744314D02*
X13954529Y-12791933D01*
X13954529Y-12791933D02*
X13945005Y-12830028D01*
X13945005Y-12830028D02*
X13935482Y-12849076D01*
X13935482Y-12849076D02*
X13925958Y-12858600D01*
X13925958Y-12858600D02*
X13906910Y-12868124D01*
X13906910Y-12868124D02*
X13887862Y-12868124D01*
X13887862Y-12868124D02*
X13868815Y-12858600D01*
X13868815Y-12858600D02*
X13859291Y-12849076D01*
X13859291Y-12849076D02*
X13849767Y-12830028D01*
X13849767Y-12830028D02*
X13840243Y-12791933D01*
X13840243Y-12791933D02*
X13840243Y-12744314D01*
X13840243Y-12744314D02*
X13849767Y-12706219D01*
X13849767Y-12706219D02*
X13859291Y-12687171D01*
X13859291Y-12687171D02*
X13868815Y-12677648D01*
X13868815Y-12677648D02*
X13887862Y-12668124D01*
X14078339Y-12668124D02*
X14097386Y-12668124D01*
X14097386Y-12668124D02*
X14116434Y-12677648D01*
X14116434Y-12677648D02*
X14125958Y-12687171D01*
X14125958Y-12687171D02*
X14135482Y-12706219D01*
X14135482Y-12706219D02*
X14145005Y-12744314D01*
X14145005Y-12744314D02*
X14145005Y-12791933D01*
X14145005Y-12791933D02*
X14135482Y-12830028D01*
X14135482Y-12830028D02*
X14125958Y-12849076D01*
X14125958Y-12849076D02*
X14116434Y-12858600D01*
X14116434Y-12858600D02*
X14097386Y-12868124D01*
X14097386Y-12868124D02*
X14078339Y-12868124D01*
X14078339Y-12868124D02*
X14059291Y-12858600D01*
X14059291Y-12858600D02*
X14049767Y-12849076D01*
X14049767Y-12849076D02*
X14040243Y-12830028D01*
X14040243Y-12830028D02*
X14030720Y-12791933D01*
X14030720Y-12791933D02*
X14030720Y-12744314D01*
X14030720Y-12744314D02*
X14040243Y-12706219D01*
X14040243Y-12706219D02*
X14049767Y-12687171D01*
X14049767Y-12687171D02*
X14059291Y-12677648D01*
X14059291Y-12677648D02*
X14078339Y-12668124D01*
X14230720Y-12868124D02*
X14230720Y-12734790D01*
X14230720Y-12753838D02*
X14240243Y-12744314D01*
X14240243Y-12744314D02*
X14259291Y-12734790D01*
X14259291Y-12734790D02*
X14287863Y-12734790D01*
X14287863Y-12734790D02*
X14306910Y-12744314D01*
X14306910Y-12744314D02*
X14316434Y-12763362D01*
X14316434Y-12763362D02*
X14316434Y-12868124D01*
X14316434Y-12763362D02*
X14325958Y-12744314D01*
X14325958Y-12744314D02*
X14345005Y-12734790D01*
X14345005Y-12734790D02*
X14373577Y-12734790D01*
X14373577Y-12734790D02*
X14392624Y-12744314D01*
X14392624Y-12744314D02*
X14402148Y-12763362D01*
X14402148Y-12763362D02*
X14402148Y-12868124D01*
X14497386Y-12868124D02*
X14497386Y-12734790D01*
X14497386Y-12753838D02*
X14506910Y-12744314D01*
X14506910Y-12744314D02*
X14525958Y-12734790D01*
X14525958Y-12734790D02*
X14554529Y-12734790D01*
X14554529Y-12734790D02*
X14573577Y-12744314D01*
X14573577Y-12744314D02*
X14583101Y-12763362D01*
X14583101Y-12763362D02*
X14583101Y-12868124D01*
X14583101Y-12763362D02*
X14592624Y-12744314D01*
X14592624Y-12744314D02*
X14611672Y-12734790D01*
X14611672Y-12734790D02*
X14640243Y-12734790D01*
X14640243Y-12734790D02*
X14659291Y-12744314D01*
X14659291Y-12744314D02*
X14668815Y-12763362D01*
X14668815Y-12763362D02*
X14668815Y-12868124D01*
X15059291Y-12658600D02*
X14887863Y-12915743D01*
X15316434Y-12668124D02*
X15335482Y-12668124D01*
X15335482Y-12668124D02*
X15354529Y-12677648D01*
X15354529Y-12677648D02*
X15364053Y-12687171D01*
X15364053Y-12687171D02*
X15373577Y-12706219D01*
X15373577Y-12706219D02*
X15383101Y-12744314D01*
X15383101Y-12744314D02*
X15383101Y-12791933D01*
X15383101Y-12791933D02*
X15373577Y-12830028D01*
X15373577Y-12830028D02*
X15364053Y-12849076D01*
X15364053Y-12849076D02*
X15354529Y-12858600D01*
X15354529Y-12858600D02*
X15335482Y-12868124D01*
X15335482Y-12868124D02*
X15316434Y-12868124D01*
X15316434Y-12868124D02*
X15297386Y-12858600D01*
X15297386Y-12858600D02*
X15287863Y-12849076D01*
X15287863Y-12849076D02*
X15278339Y-12830028D01*
X15278339Y-12830028D02*
X15268815Y-12791933D01*
X15268815Y-12791933D02*
X15268815Y-12744314D01*
X15268815Y-12744314D02*
X15278339Y-12706219D01*
X15278339Y-12706219D02*
X15287863Y-12687171D01*
X15287863Y-12687171D02*
X15297386Y-12677648D01*
X15297386Y-12677648D02*
X15316434Y-12668124D01*
X15468815Y-12849076D02*
X15478339Y-12858600D01*
X15478339Y-12858600D02*
X15468815Y-12868124D01*
X15468815Y-12868124D02*
X15459291Y-12858600D01*
X15459291Y-12858600D02*
X15468815Y-12849076D01*
X15468815Y-12849076D02*
X15468815Y-12868124D01*
X15602148Y-12668124D02*
X15621196Y-12668124D01*
X15621196Y-12668124D02*
X15640244Y-12677648D01*
X15640244Y-12677648D02*
X15649767Y-12687171D01*
X15649767Y-12687171D02*
X15659291Y-12706219D01*
X15659291Y-12706219D02*
X15668815Y-12744314D01*
X15668815Y-12744314D02*
X15668815Y-12791933D01*
X15668815Y-12791933D02*
X15659291Y-12830028D01*
X15659291Y-12830028D02*
X15649767Y-12849076D01*
X15649767Y-12849076D02*
X15640244Y-12858600D01*
X15640244Y-12858600D02*
X15621196Y-12868124D01*
X15621196Y-12868124D02*
X15602148Y-12868124D01*
X15602148Y-12868124D02*
X15583101Y-12858600D01*
X15583101Y-12858600D02*
X15573577Y-12849076D01*
X15573577Y-12849076D02*
X15564053Y-12830028D01*
X15564053Y-12830028D02*
X15554529Y-12791933D01*
X15554529Y-12791933D02*
X15554529Y-12744314D01*
X15554529Y-12744314D02*
X15564053Y-12706219D01*
X15564053Y-12706219D02*
X15573577Y-12687171D01*
X15573577Y-12687171D02*
X15583101Y-12677648D01*
X15583101Y-12677648D02*
X15602148Y-12668124D01*
X15745006Y-12687171D02*
X15754529Y-12677648D01*
X15754529Y-12677648D02*
X15773577Y-12668124D01*
X15773577Y-12668124D02*
X15821196Y-12668124D01*
X15821196Y-12668124D02*
X15840244Y-12677648D01*
X15840244Y-12677648D02*
X15849767Y-12687171D01*
X15849767Y-12687171D02*
X15859291Y-12706219D01*
X15859291Y-12706219D02*
X15859291Y-12725267D01*
X15859291Y-12725267D02*
X15849767Y-12753838D01*
X15849767Y-12753838D02*
X15735482Y-12868124D01*
X15735482Y-12868124D02*
X15859291Y-12868124D01*
X15925958Y-12668124D02*
X16059291Y-12668124D01*
X16059291Y-12668124D02*
X15973577Y-12868124D01*
X16221196Y-12668124D02*
X16183101Y-12668124D01*
X16183101Y-12668124D02*
X16164053Y-12677648D01*
X16164053Y-12677648D02*
X16154529Y-12687171D01*
X16154529Y-12687171D02*
X16135482Y-12715743D01*
X16135482Y-12715743D02*
X16125958Y-12753838D01*
X16125958Y-12753838D02*
X16125958Y-12830028D01*
X16125958Y-12830028D02*
X16135482Y-12849076D01*
X16135482Y-12849076D02*
X16145006Y-12858600D01*
X16145006Y-12858600D02*
X16164053Y-12868124D01*
X16164053Y-12868124D02*
X16202148Y-12868124D01*
X16202148Y-12868124D02*
X16221196Y-12858600D01*
X16221196Y-12858600D02*
X16230720Y-12849076D01*
X16230720Y-12849076D02*
X16240244Y-12830028D01*
X16240244Y-12830028D02*
X16240244Y-12782409D01*
X16240244Y-12782409D02*
X16230720Y-12763362D01*
X16230720Y-12763362D02*
X16221196Y-12753838D01*
X16221196Y-12753838D02*
X16202148Y-12744314D01*
X16202148Y-12744314D02*
X16164053Y-12744314D01*
X16164053Y-12744314D02*
X16145006Y-12753838D01*
X16145006Y-12753838D02*
X16135482Y-12763362D01*
X16135482Y-12763362D02*
X16125958Y-12782409D01*
X16316434Y-12668124D02*
X16316434Y-12706219D01*
X16392625Y-12668124D02*
X16392625Y-12706219D01*
X16687863Y-12944314D02*
X16678339Y-12934790D01*
X16678339Y-12934790D02*
X16659291Y-12906219D01*
X16659291Y-12906219D02*
X16649768Y-12887171D01*
X16649768Y-12887171D02*
X16640244Y-12858600D01*
X16640244Y-12858600D02*
X16630720Y-12810981D01*
X16630720Y-12810981D02*
X16630720Y-12772886D01*
X16630720Y-12772886D02*
X16640244Y-12725267D01*
X16640244Y-12725267D02*
X16649768Y-12696695D01*
X16649768Y-12696695D02*
X16659291Y-12677648D01*
X16659291Y-12677648D02*
X16678339Y-12649076D01*
X16678339Y-12649076D02*
X16687863Y-12639552D01*
X16868815Y-12868124D02*
X16754529Y-12868124D01*
X16811672Y-12868124D02*
X16811672Y-12668124D01*
X16811672Y-12668124D02*
X16792625Y-12696695D01*
X16792625Y-12696695D02*
X16773577Y-12715743D01*
X16773577Y-12715743D02*
X16754529Y-12725267D01*
X17106911Y-12868124D02*
X17106911Y-12668124D01*
X17192625Y-12868124D02*
X17192625Y-12763362D01*
X17192625Y-12763362D02*
X17183101Y-12744314D01*
X17183101Y-12744314D02*
X17164053Y-12734790D01*
X17164053Y-12734790D02*
X17135482Y-12734790D01*
X17135482Y-12734790D02*
X17116434Y-12744314D01*
X17116434Y-12744314D02*
X17106911Y-12753838D01*
X17316434Y-12868124D02*
X17297387Y-12858600D01*
X17297387Y-12858600D02*
X17287863Y-12849076D01*
X17287863Y-12849076D02*
X17278339Y-12830028D01*
X17278339Y-12830028D02*
X17278339Y-12772886D01*
X17278339Y-12772886D02*
X17287863Y-12753838D01*
X17287863Y-12753838D02*
X17297387Y-12744314D01*
X17297387Y-12744314D02*
X17316434Y-12734790D01*
X17316434Y-12734790D02*
X17345006Y-12734790D01*
X17345006Y-12734790D02*
X17364053Y-12744314D01*
X17364053Y-12744314D02*
X17373577Y-12753838D01*
X17373577Y-12753838D02*
X17383101Y-12772886D01*
X17383101Y-12772886D02*
X17383101Y-12830028D01*
X17383101Y-12830028D02*
X17373577Y-12849076D01*
X17373577Y-12849076D02*
X17364053Y-12858600D01*
X17364053Y-12858600D02*
X17345006Y-12868124D01*
X17345006Y-12868124D02*
X17316434Y-12868124D01*
X17497387Y-12868124D02*
X17478339Y-12858600D01*
X17478339Y-12858600D02*
X17468815Y-12839552D01*
X17468815Y-12839552D02*
X17468815Y-12668124D01*
X17649768Y-12858600D02*
X17630720Y-12868124D01*
X17630720Y-12868124D02*
X17592625Y-12868124D01*
X17592625Y-12868124D02*
X17573577Y-12858600D01*
X17573577Y-12858600D02*
X17564053Y-12839552D01*
X17564053Y-12839552D02*
X17564053Y-12763362D01*
X17564053Y-12763362D02*
X17573577Y-12744314D01*
X17573577Y-12744314D02*
X17592625Y-12734790D01*
X17592625Y-12734790D02*
X17630720Y-12734790D01*
X17630720Y-12734790D02*
X17649768Y-12744314D01*
X17649768Y-12744314D02*
X17659292Y-12763362D01*
X17659292Y-12763362D02*
X17659292Y-12782409D01*
X17659292Y-12782409D02*
X17564053Y-12801457D01*
X17725958Y-12944314D02*
X17735482Y-12934790D01*
X17735482Y-12934790D02*
X17754530Y-12906219D01*
X17754530Y-12906219D02*
X17764053Y-12887171D01*
X17764053Y-12887171D02*
X17773577Y-12858600D01*
X17773577Y-12858600D02*
X17783101Y-12810981D01*
X17783101Y-12810981D02*
X17783101Y-12772886D01*
X17783101Y-12772886D02*
X17773577Y-12725267D01*
X17773577Y-12725267D02*
X17764053Y-12696695D01*
X17764053Y-12696695D02*
X17754530Y-12677648D01*
X17754530Y-12677648D02*
X17735482Y-12649076D01*
X17735482Y-12649076D02*
X17725958Y-12639552D01*
D10*
X13072800Y-13080640D02*
X13112800Y-13040640D01*
X13072800Y-13000640D01*
X13032800Y-13040640D01*
X13072800Y-13080640D01*
D11*
X13411672Y-12932124D02*
X13430720Y-12932124D01*
X13430720Y-12932124D02*
X13449767Y-12941648D01*
X13449767Y-12941648D02*
X13459291Y-12951171D01*
X13459291Y-12951171D02*
X13468815Y-12970219D01*
X13468815Y-12970219D02*
X13478339Y-13008314D01*
X13478339Y-13008314D02*
X13478339Y-13055933D01*
X13478339Y-13055933D02*
X13468815Y-13094028D01*
X13468815Y-13094028D02*
X13459291Y-13113076D01*
X13459291Y-13113076D02*
X13449767Y-13122600D01*
X13449767Y-13122600D02*
X13430720Y-13132124D01*
X13430720Y-13132124D02*
X13411672Y-13132124D01*
X13411672Y-13132124D02*
X13392624Y-13122600D01*
X13392624Y-13122600D02*
X13383101Y-13113076D01*
X13383101Y-13113076D02*
X13373577Y-13094028D01*
X13373577Y-13094028D02*
X13364053Y-13055933D01*
X13364053Y-13055933D02*
X13364053Y-13008314D01*
X13364053Y-13008314D02*
X13373577Y-12970219D01*
X13373577Y-12970219D02*
X13383101Y-12951171D01*
X13383101Y-12951171D02*
X13392624Y-12941648D01*
X13392624Y-12941648D02*
X13411672Y-12932124D01*
X13564053Y-13113076D02*
X13573577Y-13122600D01*
X13573577Y-13122600D02*
X13564053Y-13132124D01*
X13564053Y-13132124D02*
X13554529Y-13122600D01*
X13554529Y-13122600D02*
X13564053Y-13113076D01*
X13564053Y-13113076D02*
X13564053Y-13132124D01*
X13687862Y-13017838D02*
X13668815Y-13008314D01*
X13668815Y-13008314D02*
X13659291Y-12998790D01*
X13659291Y-12998790D02*
X13649767Y-12979743D01*
X13649767Y-12979743D02*
X13649767Y-12970219D01*
X13649767Y-12970219D02*
X13659291Y-12951171D01*
X13659291Y-12951171D02*
X13668815Y-12941648D01*
X13668815Y-12941648D02*
X13687862Y-12932124D01*
X13687862Y-12932124D02*
X13725958Y-12932124D01*
X13725958Y-12932124D02*
X13745005Y-12941648D01*
X13745005Y-12941648D02*
X13754529Y-12951171D01*
X13754529Y-12951171D02*
X13764053Y-12970219D01*
X13764053Y-12970219D02*
X13764053Y-12979743D01*
X13764053Y-12979743D02*
X13754529Y-12998790D01*
X13754529Y-12998790D02*
X13745005Y-13008314D01*
X13745005Y-13008314D02*
X13725958Y-13017838D01*
X13725958Y-13017838D02*
X13687862Y-13017838D01*
X13687862Y-13017838D02*
X13668815Y-13027362D01*
X13668815Y-13027362D02*
X13659291Y-13036886D01*
X13659291Y-13036886D02*
X13649767Y-13055933D01*
X13649767Y-13055933D02*
X13649767Y-13094028D01*
X13649767Y-13094028D02*
X13659291Y-13113076D01*
X13659291Y-13113076D02*
X13668815Y-13122600D01*
X13668815Y-13122600D02*
X13687862Y-13132124D01*
X13687862Y-13132124D02*
X13725958Y-13132124D01*
X13725958Y-13132124D02*
X13745005Y-13122600D01*
X13745005Y-13122600D02*
X13754529Y-13113076D01*
X13754529Y-13113076D02*
X13764053Y-13094028D01*
X13764053Y-13094028D02*
X13764053Y-13055933D01*
X13764053Y-13055933D02*
X13754529Y-13036886D01*
X13754529Y-13036886D02*
X13745005Y-13027362D01*
X13745005Y-13027362D02*
X13725958Y-13017838D01*
X13887862Y-12932124D02*
X13906910Y-12932124D01*
X13906910Y-12932124D02*
X13925958Y-12941648D01*
X13925958Y-12941648D02*
X13935482Y-12951171D01*
X13935482Y-12951171D02*
X13945005Y-12970219D01*
X13945005Y-12970219D02*
X13954529Y-13008314D01*
X13954529Y-13008314D02*
X13954529Y-13055933D01*
X13954529Y-13055933D02*
X13945005Y-13094028D01*
X13945005Y-13094028D02*
X13935482Y-13113076D01*
X13935482Y-13113076D02*
X13925958Y-13122600D01*
X13925958Y-13122600D02*
X13906910Y-13132124D01*
X13906910Y-13132124D02*
X13887862Y-13132124D01*
X13887862Y-13132124D02*
X13868815Y-13122600D01*
X13868815Y-13122600D02*
X13859291Y-13113076D01*
X13859291Y-13113076D02*
X13849767Y-13094028D01*
X13849767Y-13094028D02*
X13840243Y-13055933D01*
X13840243Y-13055933D02*
X13840243Y-13008314D01*
X13840243Y-13008314D02*
X13849767Y-12970219D01*
X13849767Y-12970219D02*
X13859291Y-12951171D01*
X13859291Y-12951171D02*
X13868815Y-12941648D01*
X13868815Y-12941648D02*
X13887862Y-12932124D01*
X14078339Y-12932124D02*
X14097386Y-12932124D01*
X14097386Y-12932124D02*
X14116434Y-12941648D01*
X14116434Y-12941648D02*
X14125958Y-12951171D01*
X14125958Y-12951171D02*
X14135482Y-12970219D01*
X14135482Y-12970219D02*
X14145005Y-13008314D01*
X14145005Y-13008314D02*
X14145005Y-13055933D01*
X14145005Y-13055933D02*
X14135482Y-13094028D01*
X14135482Y-13094028D02*
X14125958Y-13113076D01*
X14125958Y-13113076D02*
X14116434Y-13122600D01*
X14116434Y-13122600D02*
X14097386Y-13132124D01*
X14097386Y-13132124D02*
X14078339Y-13132124D01*
X14078339Y-13132124D02*
X14059291Y-13122600D01*
X14059291Y-13122600D02*
X14049767Y-13113076D01*
X14049767Y-13113076D02*
X14040243Y-13094028D01*
X14040243Y-13094028D02*
X14030720Y-13055933D01*
X14030720Y-13055933D02*
X14030720Y-13008314D01*
X14030720Y-13008314D02*
X14040243Y-12970219D01*
X14040243Y-12970219D02*
X14049767Y-12951171D01*
X14049767Y-12951171D02*
X14059291Y-12941648D01*
X14059291Y-12941648D02*
X14078339Y-12932124D01*
X14230720Y-13132124D02*
X14230720Y-12998790D01*
X14230720Y-13017838D02*
X14240243Y-13008314D01*
X14240243Y-13008314D02*
X14259291Y-12998790D01*
X14259291Y-12998790D02*
X14287863Y-12998790D01*
X14287863Y-12998790D02*
X14306910Y-13008314D01*
X14306910Y-13008314D02*
X14316434Y-13027362D01*
X14316434Y-13027362D02*
X14316434Y-13132124D01*
X14316434Y-13027362D02*
X14325958Y-13008314D01*
X14325958Y-13008314D02*
X14345005Y-12998790D01*
X14345005Y-12998790D02*
X14373577Y-12998790D01*
X14373577Y-12998790D02*
X14392624Y-13008314D01*
X14392624Y-13008314D02*
X14402148Y-13027362D01*
X14402148Y-13027362D02*
X14402148Y-13132124D01*
X14497386Y-13132124D02*
X14497386Y-12998790D01*
X14497386Y-13017838D02*
X14506910Y-13008314D01*
X14506910Y-13008314D02*
X14525958Y-12998790D01*
X14525958Y-12998790D02*
X14554529Y-12998790D01*
X14554529Y-12998790D02*
X14573577Y-13008314D01*
X14573577Y-13008314D02*
X14583101Y-13027362D01*
X14583101Y-13027362D02*
X14583101Y-13132124D01*
X14583101Y-13027362D02*
X14592624Y-13008314D01*
X14592624Y-13008314D02*
X14611672Y-12998790D01*
X14611672Y-12998790D02*
X14640243Y-12998790D01*
X14640243Y-12998790D02*
X14659291Y-13008314D01*
X14659291Y-13008314D02*
X14668815Y-13027362D01*
X14668815Y-13027362D02*
X14668815Y-13132124D01*
X15059291Y-12922600D02*
X14887863Y-13179743D01*
X15316434Y-12932124D02*
X15335482Y-12932124D01*
X15335482Y-12932124D02*
X15354529Y-12941648D01*
X15354529Y-12941648D02*
X15364053Y-12951171D01*
X15364053Y-12951171D02*
X15373577Y-12970219D01*
X15373577Y-12970219D02*
X15383101Y-13008314D01*
X15383101Y-13008314D02*
X15383101Y-13055933D01*
X15383101Y-13055933D02*
X15373577Y-13094028D01*
X15373577Y-13094028D02*
X15364053Y-13113076D01*
X15364053Y-13113076D02*
X15354529Y-13122600D01*
X15354529Y-13122600D02*
X15335482Y-13132124D01*
X15335482Y-13132124D02*
X15316434Y-13132124D01*
X15316434Y-13132124D02*
X15297386Y-13122600D01*
X15297386Y-13122600D02*
X15287863Y-13113076D01*
X15287863Y-13113076D02*
X15278339Y-13094028D01*
X15278339Y-13094028D02*
X15268815Y-13055933D01*
X15268815Y-13055933D02*
X15268815Y-13008314D01*
X15268815Y-13008314D02*
X15278339Y-12970219D01*
X15278339Y-12970219D02*
X15287863Y-12951171D01*
X15287863Y-12951171D02*
X15297386Y-12941648D01*
X15297386Y-12941648D02*
X15316434Y-12932124D01*
X15468815Y-13113076D02*
X15478339Y-13122600D01*
X15478339Y-13122600D02*
X15468815Y-13132124D01*
X15468815Y-13132124D02*
X15459291Y-13122600D01*
X15459291Y-13122600D02*
X15468815Y-13113076D01*
X15468815Y-13113076D02*
X15468815Y-13132124D01*
X15602148Y-12932124D02*
X15621196Y-12932124D01*
X15621196Y-12932124D02*
X15640244Y-12941648D01*
X15640244Y-12941648D02*
X15649767Y-12951171D01*
X15649767Y-12951171D02*
X15659291Y-12970219D01*
X15659291Y-12970219D02*
X15668815Y-13008314D01*
X15668815Y-13008314D02*
X15668815Y-13055933D01*
X15668815Y-13055933D02*
X15659291Y-13094028D01*
X15659291Y-13094028D02*
X15649767Y-13113076D01*
X15649767Y-13113076D02*
X15640244Y-13122600D01*
X15640244Y-13122600D02*
X15621196Y-13132124D01*
X15621196Y-13132124D02*
X15602148Y-13132124D01*
X15602148Y-13132124D02*
X15583101Y-13122600D01*
X15583101Y-13122600D02*
X15573577Y-13113076D01*
X15573577Y-13113076D02*
X15564053Y-13094028D01*
X15564053Y-13094028D02*
X15554529Y-13055933D01*
X15554529Y-13055933D02*
X15554529Y-13008314D01*
X15554529Y-13008314D02*
X15564053Y-12970219D01*
X15564053Y-12970219D02*
X15573577Y-12951171D01*
X15573577Y-12951171D02*
X15583101Y-12941648D01*
X15583101Y-12941648D02*
X15602148Y-12932124D01*
X15735482Y-12932124D02*
X15859291Y-12932124D01*
X15859291Y-12932124D02*
X15792625Y-13008314D01*
X15792625Y-13008314D02*
X15821196Y-13008314D01*
X15821196Y-13008314D02*
X15840244Y-13017838D01*
X15840244Y-13017838D02*
X15849767Y-13027362D01*
X15849767Y-13027362D02*
X15859291Y-13046409D01*
X15859291Y-13046409D02*
X15859291Y-13094028D01*
X15859291Y-13094028D02*
X15849767Y-13113076D01*
X15849767Y-13113076D02*
X15840244Y-13122600D01*
X15840244Y-13122600D02*
X15821196Y-13132124D01*
X15821196Y-13132124D02*
X15764053Y-13132124D01*
X15764053Y-13132124D02*
X15745006Y-13122600D01*
X15745006Y-13122600D02*
X15735482Y-13113076D01*
X16049767Y-13132124D02*
X15935482Y-13132124D01*
X15992625Y-13132124D02*
X15992625Y-12932124D01*
X15992625Y-12932124D02*
X15973577Y-12960695D01*
X15973577Y-12960695D02*
X15954529Y-12979743D01*
X15954529Y-12979743D02*
X15935482Y-12989267D01*
X16230720Y-12932124D02*
X16135482Y-12932124D01*
X16135482Y-12932124D02*
X16125958Y-13027362D01*
X16125958Y-13027362D02*
X16135482Y-13017838D01*
X16135482Y-13017838D02*
X16154529Y-13008314D01*
X16154529Y-13008314D02*
X16202148Y-13008314D01*
X16202148Y-13008314D02*
X16221196Y-13017838D01*
X16221196Y-13017838D02*
X16230720Y-13027362D01*
X16230720Y-13027362D02*
X16240244Y-13046409D01*
X16240244Y-13046409D02*
X16240244Y-13094028D01*
X16240244Y-13094028D02*
X16230720Y-13113076D01*
X16230720Y-13113076D02*
X16221196Y-13122600D01*
X16221196Y-13122600D02*
X16202148Y-13132124D01*
X16202148Y-13132124D02*
X16154529Y-13132124D01*
X16154529Y-13132124D02*
X16135482Y-13122600D01*
X16135482Y-13122600D02*
X16125958Y-13113076D01*
X16316434Y-12932124D02*
X16316434Y-12970219D01*
X16392625Y-12932124D02*
X16392625Y-12970219D01*
X16687863Y-13208314D02*
X16678339Y-13198790D01*
X16678339Y-13198790D02*
X16659291Y-13170219D01*
X16659291Y-13170219D02*
X16649768Y-13151171D01*
X16649768Y-13151171D02*
X16640244Y-13122600D01*
X16640244Y-13122600D02*
X16630720Y-13074981D01*
X16630720Y-13074981D02*
X16630720Y-13036886D01*
X16630720Y-13036886D02*
X16640244Y-12989267D01*
X16640244Y-12989267D02*
X16649768Y-12960695D01*
X16649768Y-12960695D02*
X16659291Y-12941648D01*
X16659291Y-12941648D02*
X16678339Y-12913076D01*
X16678339Y-12913076D02*
X16687863Y-12903552D01*
X16859291Y-12932124D02*
X16764053Y-12932124D01*
X16764053Y-12932124D02*
X16754529Y-13027362D01*
X16754529Y-13027362D02*
X16764053Y-13017838D01*
X16764053Y-13017838D02*
X16783101Y-13008314D01*
X16783101Y-13008314D02*
X16830720Y-13008314D01*
X16830720Y-13008314D02*
X16849768Y-13017838D01*
X16849768Y-13017838D02*
X16859291Y-13027362D01*
X16859291Y-13027362D02*
X16868815Y-13046409D01*
X16868815Y-13046409D02*
X16868815Y-13094028D01*
X16868815Y-13094028D02*
X16859291Y-13113076D01*
X16859291Y-13113076D02*
X16849768Y-13122600D01*
X16849768Y-13122600D02*
X16830720Y-13132124D01*
X16830720Y-13132124D02*
X16783101Y-13132124D01*
X16783101Y-13132124D02*
X16764053Y-13122600D01*
X16764053Y-13122600D02*
X16754529Y-13113076D01*
X17106911Y-13132124D02*
X17106911Y-12932124D01*
X17192625Y-13132124D02*
X17192625Y-13027362D01*
X17192625Y-13027362D02*
X17183101Y-13008314D01*
X17183101Y-13008314D02*
X17164053Y-12998790D01*
X17164053Y-12998790D02*
X17135482Y-12998790D01*
X17135482Y-12998790D02*
X17116434Y-13008314D01*
X17116434Y-13008314D02*
X17106911Y-13017838D01*
X17316434Y-13132124D02*
X17297387Y-13122600D01*
X17297387Y-13122600D02*
X17287863Y-13113076D01*
X17287863Y-13113076D02*
X17278339Y-13094028D01*
X17278339Y-13094028D02*
X17278339Y-13036886D01*
X17278339Y-13036886D02*
X17287863Y-13017838D01*
X17287863Y-13017838D02*
X17297387Y-13008314D01*
X17297387Y-13008314D02*
X17316434Y-12998790D01*
X17316434Y-12998790D02*
X17345006Y-12998790D01*
X17345006Y-12998790D02*
X17364053Y-13008314D01*
X17364053Y-13008314D02*
X17373577Y-13017838D01*
X17373577Y-13017838D02*
X17383101Y-13036886D01*
X17383101Y-13036886D02*
X17383101Y-13094028D01*
X17383101Y-13094028D02*
X17373577Y-13113076D01*
X17373577Y-13113076D02*
X17364053Y-13122600D01*
X17364053Y-13122600D02*
X17345006Y-13132124D01*
X17345006Y-13132124D02*
X17316434Y-13132124D01*
X17497387Y-13132124D02*
X17478339Y-13122600D01*
X17478339Y-13122600D02*
X17468815Y-13103552D01*
X17468815Y-13103552D02*
X17468815Y-12932124D01*
X17649768Y-13122600D02*
X17630720Y-13132124D01*
X17630720Y-13132124D02*
X17592625Y-13132124D01*
X17592625Y-13132124D02*
X17573577Y-13122600D01*
X17573577Y-13122600D02*
X17564053Y-13103552D01*
X17564053Y-13103552D02*
X17564053Y-13027362D01*
X17564053Y-13027362D02*
X17573577Y-13008314D01*
X17573577Y-13008314D02*
X17592625Y-12998790D01*
X17592625Y-12998790D02*
X17630720Y-12998790D01*
X17630720Y-12998790D02*
X17649768Y-13008314D01*
X17649768Y-13008314D02*
X17659292Y-13027362D01*
X17659292Y-13027362D02*
X17659292Y-13046409D01*
X17659292Y-13046409D02*
X17564053Y-13065457D01*
X17735482Y-13122600D02*
X17754530Y-13132124D01*
X17754530Y-13132124D02*
X17792625Y-13132124D01*
X17792625Y-13132124D02*
X17811673Y-13122600D01*
X17811673Y-13122600D02*
X17821196Y-13103552D01*
X17821196Y-13103552D02*
X17821196Y-13094028D01*
X17821196Y-13094028D02*
X17811673Y-13074981D01*
X17811673Y-13074981D02*
X17792625Y-13065457D01*
X17792625Y-13065457D02*
X17764053Y-13065457D01*
X17764053Y-13065457D02*
X17745006Y-13055933D01*
X17745006Y-13055933D02*
X17735482Y-13036886D01*
X17735482Y-13036886D02*
X17735482Y-13027362D01*
X17735482Y-13027362D02*
X17745006Y-13008314D01*
X17745006Y-13008314D02*
X17764053Y-12998790D01*
X17764053Y-12998790D02*
X17792625Y-12998790D01*
X17792625Y-12998790D02*
X17811673Y-13008314D01*
X17887863Y-13208314D02*
X17897387Y-13198790D01*
X17897387Y-13198790D02*
X17916434Y-13170219D01*
X17916434Y-13170219D02*
X17925958Y-13151171D01*
X17925958Y-13151171D02*
X17935482Y-13122600D01*
X17935482Y-13122600D02*
X17945006Y-13074981D01*
X17945006Y-13074981D02*
X17945006Y-13036886D01*
X17945006Y-13036886D02*
X17935482Y-12989267D01*
X17935482Y-12989267D02*
X17925958Y-12960695D01*
X17925958Y-12960695D02*
X17916434Y-12941648D01*
X17916434Y-12941648D02*
X17897387Y-12913076D01*
X17897387Y-12913076D02*
X17887863Y-12903552D01*
D10*
X13012800Y-13254640D02*
X13112800Y-13354640D01*
X13112800Y-13254640D02*
X13012800Y-13354640D01*
X13112800Y-13304640D02*
G75*
G02*
X13012800Y-13304640I-50000J0D01*
G01*
X13012800Y-13304640D02*
G75*
G02*
X13112800Y-13304640I50000J0D01*
G01*
D11*
X13478339Y-13396124D02*
X13364053Y-13396124D01*
X13421196Y-13396124D02*
X13421196Y-13196124D01*
X13421196Y-13196124D02*
X13402148Y-13224695D01*
X13402148Y-13224695D02*
X13383101Y-13243743D01*
X13383101Y-13243743D02*
X13364053Y-13253267D01*
X13564053Y-13377076D02*
X13573577Y-13386600D01*
X13573577Y-13386600D02*
X13564053Y-13396124D01*
X13564053Y-13396124D02*
X13554529Y-13386600D01*
X13554529Y-13386600D02*
X13564053Y-13377076D01*
X13564053Y-13377076D02*
X13564053Y-13396124D01*
X13697386Y-13196124D02*
X13716434Y-13196124D01*
X13716434Y-13196124D02*
X13735482Y-13205648D01*
X13735482Y-13205648D02*
X13745005Y-13215171D01*
X13745005Y-13215171D02*
X13754529Y-13234219D01*
X13754529Y-13234219D02*
X13764053Y-13272314D01*
X13764053Y-13272314D02*
X13764053Y-13319933D01*
X13764053Y-13319933D02*
X13754529Y-13358028D01*
X13754529Y-13358028D02*
X13745005Y-13377076D01*
X13745005Y-13377076D02*
X13735482Y-13386600D01*
X13735482Y-13386600D02*
X13716434Y-13396124D01*
X13716434Y-13396124D02*
X13697386Y-13396124D01*
X13697386Y-13396124D02*
X13678339Y-13386600D01*
X13678339Y-13386600D02*
X13668815Y-13377076D01*
X13668815Y-13377076D02*
X13659291Y-13358028D01*
X13659291Y-13358028D02*
X13649767Y-13319933D01*
X13649767Y-13319933D02*
X13649767Y-13272314D01*
X13649767Y-13272314D02*
X13659291Y-13234219D01*
X13659291Y-13234219D02*
X13668815Y-13215171D01*
X13668815Y-13215171D02*
X13678339Y-13205648D01*
X13678339Y-13205648D02*
X13697386Y-13196124D01*
X13887862Y-13196124D02*
X13906910Y-13196124D01*
X13906910Y-13196124D02*
X13925958Y-13205648D01*
X13925958Y-13205648D02*
X13935482Y-13215171D01*
X13935482Y-13215171D02*
X13945005Y-13234219D01*
X13945005Y-13234219D02*
X13954529Y-13272314D01*
X13954529Y-13272314D02*
X13954529Y-13319933D01*
X13954529Y-13319933D02*
X13945005Y-13358028D01*
X13945005Y-13358028D02*
X13935482Y-13377076D01*
X13935482Y-13377076D02*
X13925958Y-13386600D01*
X13925958Y-13386600D02*
X13906910Y-13396124D01*
X13906910Y-13396124D02*
X13887862Y-13396124D01*
X13887862Y-13396124D02*
X13868815Y-13386600D01*
X13868815Y-13386600D02*
X13859291Y-13377076D01*
X13859291Y-13377076D02*
X13849767Y-13358028D01*
X13849767Y-13358028D02*
X13840243Y-13319933D01*
X13840243Y-13319933D02*
X13840243Y-13272314D01*
X13840243Y-13272314D02*
X13849767Y-13234219D01*
X13849767Y-13234219D02*
X13859291Y-13215171D01*
X13859291Y-13215171D02*
X13868815Y-13205648D01*
X13868815Y-13205648D02*
X13887862Y-13196124D01*
X14078339Y-13196124D02*
X14097386Y-13196124D01*
X14097386Y-13196124D02*
X14116434Y-13205648D01*
X14116434Y-13205648D02*
X14125958Y-13215171D01*
X14125958Y-13215171D02*
X14135482Y-13234219D01*
X14135482Y-13234219D02*
X14145005Y-13272314D01*
X14145005Y-13272314D02*
X14145005Y-13319933D01*
X14145005Y-13319933D02*
X14135482Y-13358028D01*
X14135482Y-13358028D02*
X14125958Y-13377076D01*
X14125958Y-13377076D02*
X14116434Y-13386600D01*
X14116434Y-13386600D02*
X14097386Y-13396124D01*
X14097386Y-13396124D02*
X14078339Y-13396124D01*
X14078339Y-13396124D02*
X14059291Y-13386600D01*
X14059291Y-13386600D02*
X14049767Y-13377076D01*
X14049767Y-13377076D02*
X14040243Y-13358028D01*
X14040243Y-13358028D02*
X14030720Y-13319933D01*
X14030720Y-13319933D02*
X14030720Y-13272314D01*
X14030720Y-13272314D02*
X14040243Y-13234219D01*
X14040243Y-13234219D02*
X14049767Y-13215171D01*
X14049767Y-13215171D02*
X14059291Y-13205648D01*
X14059291Y-13205648D02*
X14078339Y-13196124D01*
X14230720Y-13396124D02*
X14230720Y-13262790D01*
X14230720Y-13281838D02*
X14240243Y-13272314D01*
X14240243Y-13272314D02*
X14259291Y-13262790D01*
X14259291Y-13262790D02*
X14287863Y-13262790D01*
X14287863Y-13262790D02*
X14306910Y-13272314D01*
X14306910Y-13272314D02*
X14316434Y-13291362D01*
X14316434Y-13291362D02*
X14316434Y-13396124D01*
X14316434Y-13291362D02*
X14325958Y-13272314D01*
X14325958Y-13272314D02*
X14345005Y-13262790D01*
X14345005Y-13262790D02*
X14373577Y-13262790D01*
X14373577Y-13262790D02*
X14392624Y-13272314D01*
X14392624Y-13272314D02*
X14402148Y-13291362D01*
X14402148Y-13291362D02*
X14402148Y-13396124D01*
X14497386Y-13396124D02*
X14497386Y-13262790D01*
X14497386Y-13281838D02*
X14506910Y-13272314D01*
X14506910Y-13272314D02*
X14525958Y-13262790D01*
X14525958Y-13262790D02*
X14554529Y-13262790D01*
X14554529Y-13262790D02*
X14573577Y-13272314D01*
X14573577Y-13272314D02*
X14583101Y-13291362D01*
X14583101Y-13291362D02*
X14583101Y-13396124D01*
X14583101Y-13291362D02*
X14592624Y-13272314D01*
X14592624Y-13272314D02*
X14611672Y-13262790D01*
X14611672Y-13262790D02*
X14640243Y-13262790D01*
X14640243Y-13262790D02*
X14659291Y-13272314D01*
X14659291Y-13272314D02*
X14668815Y-13291362D01*
X14668815Y-13291362D02*
X14668815Y-13396124D01*
X15059291Y-13186600D02*
X14887863Y-13443743D01*
X15316434Y-13196124D02*
X15335482Y-13196124D01*
X15335482Y-13196124D02*
X15354529Y-13205648D01*
X15354529Y-13205648D02*
X15364053Y-13215171D01*
X15364053Y-13215171D02*
X15373577Y-13234219D01*
X15373577Y-13234219D02*
X15383101Y-13272314D01*
X15383101Y-13272314D02*
X15383101Y-13319933D01*
X15383101Y-13319933D02*
X15373577Y-13358028D01*
X15373577Y-13358028D02*
X15364053Y-13377076D01*
X15364053Y-13377076D02*
X15354529Y-13386600D01*
X15354529Y-13386600D02*
X15335482Y-13396124D01*
X15335482Y-13396124D02*
X15316434Y-13396124D01*
X15316434Y-13396124D02*
X15297386Y-13386600D01*
X15297386Y-13386600D02*
X15287863Y-13377076D01*
X15287863Y-13377076D02*
X15278339Y-13358028D01*
X15278339Y-13358028D02*
X15268815Y-13319933D01*
X15268815Y-13319933D02*
X15268815Y-13272314D01*
X15268815Y-13272314D02*
X15278339Y-13234219D01*
X15278339Y-13234219D02*
X15287863Y-13215171D01*
X15287863Y-13215171D02*
X15297386Y-13205648D01*
X15297386Y-13205648D02*
X15316434Y-13196124D01*
X15468815Y-13377076D02*
X15478339Y-13386600D01*
X15478339Y-13386600D02*
X15468815Y-13396124D01*
X15468815Y-13396124D02*
X15459291Y-13386600D01*
X15459291Y-13386600D02*
X15468815Y-13377076D01*
X15468815Y-13377076D02*
X15468815Y-13396124D01*
X15602148Y-13196124D02*
X15621196Y-13196124D01*
X15621196Y-13196124D02*
X15640244Y-13205648D01*
X15640244Y-13205648D02*
X15649767Y-13215171D01*
X15649767Y-13215171D02*
X15659291Y-13234219D01*
X15659291Y-13234219D02*
X15668815Y-13272314D01*
X15668815Y-13272314D02*
X15668815Y-13319933D01*
X15668815Y-13319933D02*
X15659291Y-13358028D01*
X15659291Y-13358028D02*
X15649767Y-13377076D01*
X15649767Y-13377076D02*
X15640244Y-13386600D01*
X15640244Y-13386600D02*
X15621196Y-13396124D01*
X15621196Y-13396124D02*
X15602148Y-13396124D01*
X15602148Y-13396124D02*
X15583101Y-13386600D01*
X15583101Y-13386600D02*
X15573577Y-13377076D01*
X15573577Y-13377076D02*
X15564053Y-13358028D01*
X15564053Y-13358028D02*
X15554529Y-13319933D01*
X15554529Y-13319933D02*
X15554529Y-13272314D01*
X15554529Y-13272314D02*
X15564053Y-13234219D01*
X15564053Y-13234219D02*
X15573577Y-13215171D01*
X15573577Y-13215171D02*
X15583101Y-13205648D01*
X15583101Y-13205648D02*
X15602148Y-13196124D01*
X15735482Y-13196124D02*
X15859291Y-13196124D01*
X15859291Y-13196124D02*
X15792625Y-13272314D01*
X15792625Y-13272314D02*
X15821196Y-13272314D01*
X15821196Y-13272314D02*
X15840244Y-13281838D01*
X15840244Y-13281838D02*
X15849767Y-13291362D01*
X15849767Y-13291362D02*
X15859291Y-13310409D01*
X15859291Y-13310409D02*
X15859291Y-13358028D01*
X15859291Y-13358028D02*
X15849767Y-13377076D01*
X15849767Y-13377076D02*
X15840244Y-13386600D01*
X15840244Y-13386600D02*
X15821196Y-13396124D01*
X15821196Y-13396124D02*
X15764053Y-13396124D01*
X15764053Y-13396124D02*
X15745006Y-13386600D01*
X15745006Y-13386600D02*
X15735482Y-13377076D01*
X15954529Y-13396124D02*
X15992625Y-13396124D01*
X15992625Y-13396124D02*
X16011672Y-13386600D01*
X16011672Y-13386600D02*
X16021196Y-13377076D01*
X16021196Y-13377076D02*
X16040244Y-13348505D01*
X16040244Y-13348505D02*
X16049767Y-13310409D01*
X16049767Y-13310409D02*
X16049767Y-13234219D01*
X16049767Y-13234219D02*
X16040244Y-13215171D01*
X16040244Y-13215171D02*
X16030720Y-13205648D01*
X16030720Y-13205648D02*
X16011672Y-13196124D01*
X16011672Y-13196124D02*
X15973577Y-13196124D01*
X15973577Y-13196124D02*
X15954529Y-13205648D01*
X15954529Y-13205648D02*
X15945006Y-13215171D01*
X15945006Y-13215171D02*
X15935482Y-13234219D01*
X15935482Y-13234219D02*
X15935482Y-13281838D01*
X15935482Y-13281838D02*
X15945006Y-13300886D01*
X15945006Y-13300886D02*
X15954529Y-13310409D01*
X15954529Y-13310409D02*
X15973577Y-13319933D01*
X15973577Y-13319933D02*
X16011672Y-13319933D01*
X16011672Y-13319933D02*
X16030720Y-13310409D01*
X16030720Y-13310409D02*
X16040244Y-13300886D01*
X16040244Y-13300886D02*
X16049767Y-13281838D01*
X16221196Y-13262790D02*
X16221196Y-13396124D01*
X16173577Y-13186600D02*
X16125958Y-13329457D01*
X16125958Y-13329457D02*
X16249767Y-13329457D01*
X16316434Y-13196124D02*
X16316434Y-13234219D01*
X16392625Y-13196124D02*
X16392625Y-13234219D01*
X16687863Y-13472314D02*
X16678339Y-13462790D01*
X16678339Y-13462790D02*
X16659291Y-13434219D01*
X16659291Y-13434219D02*
X16649768Y-13415171D01*
X16649768Y-13415171D02*
X16640244Y-13386600D01*
X16640244Y-13386600D02*
X16630720Y-13338981D01*
X16630720Y-13338981D02*
X16630720Y-13300886D01*
X16630720Y-13300886D02*
X16640244Y-13253267D01*
X16640244Y-13253267D02*
X16649768Y-13224695D01*
X16649768Y-13224695D02*
X16659291Y-13205648D01*
X16659291Y-13205648D02*
X16678339Y-13177076D01*
X16678339Y-13177076D02*
X16687863Y-13167552D01*
X16859291Y-13196124D02*
X16764053Y-13196124D01*
X16764053Y-13196124D02*
X16754529Y-13291362D01*
X16754529Y-13291362D02*
X16764053Y-13281838D01*
X16764053Y-13281838D02*
X16783101Y-13272314D01*
X16783101Y-13272314D02*
X16830720Y-13272314D01*
X16830720Y-13272314D02*
X16849768Y-13281838D01*
X16849768Y-13281838D02*
X16859291Y-13291362D01*
X16859291Y-13291362D02*
X16868815Y-13310409D01*
X16868815Y-13310409D02*
X16868815Y-13358028D01*
X16868815Y-13358028D02*
X16859291Y-13377076D01*
X16859291Y-13377076D02*
X16849768Y-13386600D01*
X16849768Y-13386600D02*
X16830720Y-13396124D01*
X16830720Y-13396124D02*
X16783101Y-13396124D01*
X16783101Y-13396124D02*
X16764053Y-13386600D01*
X16764053Y-13386600D02*
X16754529Y-13377076D01*
X17106911Y-13396124D02*
X17106911Y-13196124D01*
X17192625Y-13396124D02*
X17192625Y-13291362D01*
X17192625Y-13291362D02*
X17183101Y-13272314D01*
X17183101Y-13272314D02*
X17164053Y-13262790D01*
X17164053Y-13262790D02*
X17135482Y-13262790D01*
X17135482Y-13262790D02*
X17116434Y-13272314D01*
X17116434Y-13272314D02*
X17106911Y-13281838D01*
X17316434Y-13396124D02*
X17297387Y-13386600D01*
X17297387Y-13386600D02*
X17287863Y-13377076D01*
X17287863Y-13377076D02*
X17278339Y-13358028D01*
X17278339Y-13358028D02*
X17278339Y-13300886D01*
X17278339Y-13300886D02*
X17287863Y-13281838D01*
X17287863Y-13281838D02*
X17297387Y-13272314D01*
X17297387Y-13272314D02*
X17316434Y-13262790D01*
X17316434Y-13262790D02*
X17345006Y-13262790D01*
X17345006Y-13262790D02*
X17364053Y-13272314D01*
X17364053Y-13272314D02*
X17373577Y-13281838D01*
X17373577Y-13281838D02*
X17383101Y-13300886D01*
X17383101Y-13300886D02*
X17383101Y-13358028D01*
X17383101Y-13358028D02*
X17373577Y-13377076D01*
X17373577Y-13377076D02*
X17364053Y-13386600D01*
X17364053Y-13386600D02*
X17345006Y-13396124D01*
X17345006Y-13396124D02*
X17316434Y-13396124D01*
X17497387Y-13396124D02*
X17478339Y-13386600D01*
X17478339Y-13386600D02*
X17468815Y-13367552D01*
X17468815Y-13367552D02*
X17468815Y-13196124D01*
X17649768Y-13386600D02*
X17630720Y-13396124D01*
X17630720Y-13396124D02*
X17592625Y-13396124D01*
X17592625Y-13396124D02*
X17573577Y-13386600D01*
X17573577Y-13386600D02*
X17564053Y-13367552D01*
X17564053Y-13367552D02*
X17564053Y-13291362D01*
X17564053Y-13291362D02*
X17573577Y-13272314D01*
X17573577Y-13272314D02*
X17592625Y-13262790D01*
X17592625Y-13262790D02*
X17630720Y-13262790D01*
X17630720Y-13262790D02*
X17649768Y-13272314D01*
X17649768Y-13272314D02*
X17659292Y-13291362D01*
X17659292Y-13291362D02*
X17659292Y-13310409D01*
X17659292Y-13310409D02*
X17564053Y-13329457D01*
X17735482Y-13386600D02*
X17754530Y-13396124D01*
X17754530Y-13396124D02*
X17792625Y-13396124D01*
X17792625Y-13396124D02*
X17811673Y-13386600D01*
X17811673Y-13386600D02*
X17821196Y-13367552D01*
X17821196Y-13367552D02*
X17821196Y-13358028D01*
X17821196Y-13358028D02*
X17811673Y-13338981D01*
X17811673Y-13338981D02*
X17792625Y-13329457D01*
X17792625Y-13329457D02*
X17764053Y-13329457D01*
X17764053Y-13329457D02*
X17745006Y-13319933D01*
X17745006Y-13319933D02*
X17735482Y-13300886D01*
X17735482Y-13300886D02*
X17735482Y-13291362D01*
X17735482Y-13291362D02*
X17745006Y-13272314D01*
X17745006Y-13272314D02*
X17764053Y-13262790D01*
X17764053Y-13262790D02*
X17792625Y-13262790D01*
X17792625Y-13262790D02*
X17811673Y-13272314D01*
X17887863Y-13472314D02*
X17897387Y-13462790D01*
X17897387Y-13462790D02*
X17916434Y-13434219D01*
X17916434Y-13434219D02*
X17925958Y-13415171D01*
X17925958Y-13415171D02*
X17935482Y-13386600D01*
X17935482Y-13386600D02*
X17945006Y-13338981D01*
X17945006Y-13338981D02*
X17945006Y-13300886D01*
X17945006Y-13300886D02*
X17935482Y-13253267D01*
X17935482Y-13253267D02*
X17925958Y-13224695D01*
X17925958Y-13224695D02*
X17916434Y-13205648D01*
X17916434Y-13205648D02*
X17897387Y-13177076D01*
X17897387Y-13177076D02*
X17887863Y-13167552D01*
X12912800Y-13468640D02*
X13112800Y-13668640D01*
X13112800Y-13468640D02*
X12912800Y-13668640D01*
X13012800Y-13468640D02*
X13012800Y-13668640D01*
X12912800Y-13568640D02*
X13112800Y-13568640D01*
X13354529Y-13460124D02*
X13478339Y-13460124D01*
X13478339Y-13460124D02*
X13411672Y-13536314D01*
X13411672Y-13536314D02*
X13440243Y-13536314D01*
X13440243Y-13536314D02*
X13459291Y-13545838D01*
X13459291Y-13545838D02*
X13468815Y-13555362D01*
X13468815Y-13555362D02*
X13478339Y-13574409D01*
X13478339Y-13574409D02*
X13478339Y-13622028D01*
X13478339Y-13622028D02*
X13468815Y-13641076D01*
X13468815Y-13641076D02*
X13459291Y-13650600D01*
X13459291Y-13650600D02*
X13440243Y-13660124D01*
X13440243Y-13660124D02*
X13383101Y-13660124D01*
X13383101Y-13660124D02*
X13364053Y-13650600D01*
X13364053Y-13650600D02*
X13354529Y-13641076D01*
X13564053Y-13641076D02*
X13573577Y-13650600D01*
X13573577Y-13650600D02*
X13564053Y-13660124D01*
X13564053Y-13660124D02*
X13554529Y-13650600D01*
X13554529Y-13650600D02*
X13564053Y-13641076D01*
X13564053Y-13641076D02*
X13564053Y-13660124D01*
X13649767Y-13479171D02*
X13659291Y-13469648D01*
X13659291Y-13469648D02*
X13678339Y-13460124D01*
X13678339Y-13460124D02*
X13725958Y-13460124D01*
X13725958Y-13460124D02*
X13745005Y-13469648D01*
X13745005Y-13469648D02*
X13754529Y-13479171D01*
X13754529Y-13479171D02*
X13764053Y-13498219D01*
X13764053Y-13498219D02*
X13764053Y-13517267D01*
X13764053Y-13517267D02*
X13754529Y-13545838D01*
X13754529Y-13545838D02*
X13640243Y-13660124D01*
X13640243Y-13660124D02*
X13764053Y-13660124D01*
X13887862Y-13460124D02*
X13906910Y-13460124D01*
X13906910Y-13460124D02*
X13925958Y-13469648D01*
X13925958Y-13469648D02*
X13935482Y-13479171D01*
X13935482Y-13479171D02*
X13945005Y-13498219D01*
X13945005Y-13498219D02*
X13954529Y-13536314D01*
X13954529Y-13536314D02*
X13954529Y-13583933D01*
X13954529Y-13583933D02*
X13945005Y-13622028D01*
X13945005Y-13622028D02*
X13935482Y-13641076D01*
X13935482Y-13641076D02*
X13925958Y-13650600D01*
X13925958Y-13650600D02*
X13906910Y-13660124D01*
X13906910Y-13660124D02*
X13887862Y-13660124D01*
X13887862Y-13660124D02*
X13868815Y-13650600D01*
X13868815Y-13650600D02*
X13859291Y-13641076D01*
X13859291Y-13641076D02*
X13849767Y-13622028D01*
X13849767Y-13622028D02*
X13840243Y-13583933D01*
X13840243Y-13583933D02*
X13840243Y-13536314D01*
X13840243Y-13536314D02*
X13849767Y-13498219D01*
X13849767Y-13498219D02*
X13859291Y-13479171D01*
X13859291Y-13479171D02*
X13868815Y-13469648D01*
X13868815Y-13469648D02*
X13887862Y-13460124D01*
X14078339Y-13460124D02*
X14097386Y-13460124D01*
X14097386Y-13460124D02*
X14116434Y-13469648D01*
X14116434Y-13469648D02*
X14125958Y-13479171D01*
X14125958Y-13479171D02*
X14135482Y-13498219D01*
X14135482Y-13498219D02*
X14145005Y-13536314D01*
X14145005Y-13536314D02*
X14145005Y-13583933D01*
X14145005Y-13583933D02*
X14135482Y-13622028D01*
X14135482Y-13622028D02*
X14125958Y-13641076D01*
X14125958Y-13641076D02*
X14116434Y-13650600D01*
X14116434Y-13650600D02*
X14097386Y-13660124D01*
X14097386Y-13660124D02*
X14078339Y-13660124D01*
X14078339Y-13660124D02*
X14059291Y-13650600D01*
X14059291Y-13650600D02*
X14049767Y-13641076D01*
X14049767Y-13641076D02*
X14040243Y-13622028D01*
X14040243Y-13622028D02*
X14030720Y-13583933D01*
X14030720Y-13583933D02*
X14030720Y-13536314D01*
X14030720Y-13536314D02*
X14040243Y-13498219D01*
X14040243Y-13498219D02*
X14049767Y-13479171D01*
X14049767Y-13479171D02*
X14059291Y-13469648D01*
X14059291Y-13469648D02*
X14078339Y-13460124D01*
X14230720Y-13660124D02*
X14230720Y-13526790D01*
X14230720Y-13545838D02*
X14240243Y-13536314D01*
X14240243Y-13536314D02*
X14259291Y-13526790D01*
X14259291Y-13526790D02*
X14287863Y-13526790D01*
X14287863Y-13526790D02*
X14306910Y-13536314D01*
X14306910Y-13536314D02*
X14316434Y-13555362D01*
X14316434Y-13555362D02*
X14316434Y-13660124D01*
X14316434Y-13555362D02*
X14325958Y-13536314D01*
X14325958Y-13536314D02*
X14345005Y-13526790D01*
X14345005Y-13526790D02*
X14373577Y-13526790D01*
X14373577Y-13526790D02*
X14392624Y-13536314D01*
X14392624Y-13536314D02*
X14402148Y-13555362D01*
X14402148Y-13555362D02*
X14402148Y-13660124D01*
X14497386Y-13660124D02*
X14497386Y-13526790D01*
X14497386Y-13545838D02*
X14506910Y-13536314D01*
X14506910Y-13536314D02*
X14525958Y-13526790D01*
X14525958Y-13526790D02*
X14554529Y-13526790D01*
X14554529Y-13526790D02*
X14573577Y-13536314D01*
X14573577Y-13536314D02*
X14583101Y-13555362D01*
X14583101Y-13555362D02*
X14583101Y-13660124D01*
X14583101Y-13555362D02*
X14592624Y-13536314D01*
X14592624Y-13536314D02*
X14611672Y-13526790D01*
X14611672Y-13526790D02*
X14640243Y-13526790D01*
X14640243Y-13526790D02*
X14659291Y-13536314D01*
X14659291Y-13536314D02*
X14668815Y-13555362D01*
X14668815Y-13555362D02*
X14668815Y-13660124D01*
X15059291Y-13450600D02*
X14887863Y-13707743D01*
X15316434Y-13460124D02*
X15335482Y-13460124D01*
X15335482Y-13460124D02*
X15354529Y-13469648D01*
X15354529Y-13469648D02*
X15364053Y-13479171D01*
X15364053Y-13479171D02*
X15373577Y-13498219D01*
X15373577Y-13498219D02*
X15383101Y-13536314D01*
X15383101Y-13536314D02*
X15383101Y-13583933D01*
X15383101Y-13583933D02*
X15373577Y-13622028D01*
X15373577Y-13622028D02*
X15364053Y-13641076D01*
X15364053Y-13641076D02*
X15354529Y-13650600D01*
X15354529Y-13650600D02*
X15335482Y-13660124D01*
X15335482Y-13660124D02*
X15316434Y-13660124D01*
X15316434Y-13660124D02*
X15297386Y-13650600D01*
X15297386Y-13650600D02*
X15287863Y-13641076D01*
X15287863Y-13641076D02*
X15278339Y-13622028D01*
X15278339Y-13622028D02*
X15268815Y-13583933D01*
X15268815Y-13583933D02*
X15268815Y-13536314D01*
X15268815Y-13536314D02*
X15278339Y-13498219D01*
X15278339Y-13498219D02*
X15287863Y-13479171D01*
X15287863Y-13479171D02*
X15297386Y-13469648D01*
X15297386Y-13469648D02*
X15316434Y-13460124D01*
X15468815Y-13641076D02*
X15478339Y-13650600D01*
X15478339Y-13650600D02*
X15468815Y-13660124D01*
X15468815Y-13660124D02*
X15459291Y-13650600D01*
X15459291Y-13650600D02*
X15468815Y-13641076D01*
X15468815Y-13641076D02*
X15468815Y-13660124D01*
X15668815Y-13660124D02*
X15554529Y-13660124D01*
X15611672Y-13660124D02*
X15611672Y-13460124D01*
X15611672Y-13460124D02*
X15592625Y-13488695D01*
X15592625Y-13488695D02*
X15573577Y-13507743D01*
X15573577Y-13507743D02*
X15554529Y-13517267D01*
X15745006Y-13479171D02*
X15754529Y-13469648D01*
X15754529Y-13469648D02*
X15773577Y-13460124D01*
X15773577Y-13460124D02*
X15821196Y-13460124D01*
X15821196Y-13460124D02*
X15840244Y-13469648D01*
X15840244Y-13469648D02*
X15849767Y-13479171D01*
X15849767Y-13479171D02*
X15859291Y-13498219D01*
X15859291Y-13498219D02*
X15859291Y-13517267D01*
X15859291Y-13517267D02*
X15849767Y-13545838D01*
X15849767Y-13545838D02*
X15735482Y-13660124D01*
X15735482Y-13660124D02*
X15859291Y-13660124D01*
X16030720Y-13460124D02*
X15992625Y-13460124D01*
X15992625Y-13460124D02*
X15973577Y-13469648D01*
X15973577Y-13469648D02*
X15964053Y-13479171D01*
X15964053Y-13479171D02*
X15945006Y-13507743D01*
X15945006Y-13507743D02*
X15935482Y-13545838D01*
X15935482Y-13545838D02*
X15935482Y-13622028D01*
X15935482Y-13622028D02*
X15945006Y-13641076D01*
X15945006Y-13641076D02*
X15954529Y-13650600D01*
X15954529Y-13650600D02*
X15973577Y-13660124D01*
X15973577Y-13660124D02*
X16011672Y-13660124D01*
X16011672Y-13660124D02*
X16030720Y-13650600D01*
X16030720Y-13650600D02*
X16040244Y-13641076D01*
X16040244Y-13641076D02*
X16049767Y-13622028D01*
X16049767Y-13622028D02*
X16049767Y-13574409D01*
X16049767Y-13574409D02*
X16040244Y-13555362D01*
X16040244Y-13555362D02*
X16030720Y-13545838D01*
X16030720Y-13545838D02*
X16011672Y-13536314D01*
X16011672Y-13536314D02*
X15973577Y-13536314D01*
X15973577Y-13536314D02*
X15954529Y-13545838D01*
X15954529Y-13545838D02*
X15945006Y-13555362D01*
X15945006Y-13555362D02*
X15935482Y-13574409D01*
X16173577Y-13460124D02*
X16192625Y-13460124D01*
X16192625Y-13460124D02*
X16211672Y-13469648D01*
X16211672Y-13469648D02*
X16221196Y-13479171D01*
X16221196Y-13479171D02*
X16230720Y-13498219D01*
X16230720Y-13498219D02*
X16240244Y-13536314D01*
X16240244Y-13536314D02*
X16240244Y-13583933D01*
X16240244Y-13583933D02*
X16230720Y-13622028D01*
X16230720Y-13622028D02*
X16221196Y-13641076D01*
X16221196Y-13641076D02*
X16211672Y-13650600D01*
X16211672Y-13650600D02*
X16192625Y-13660124D01*
X16192625Y-13660124D02*
X16173577Y-13660124D01*
X16173577Y-13660124D02*
X16154529Y-13650600D01*
X16154529Y-13650600D02*
X16145006Y-13641076D01*
X16145006Y-13641076D02*
X16135482Y-13622028D01*
X16135482Y-13622028D02*
X16125958Y-13583933D01*
X16125958Y-13583933D02*
X16125958Y-13536314D01*
X16125958Y-13536314D02*
X16135482Y-13498219D01*
X16135482Y-13498219D02*
X16145006Y-13479171D01*
X16145006Y-13479171D02*
X16154529Y-13469648D01*
X16154529Y-13469648D02*
X16173577Y-13460124D01*
X16316434Y-13460124D02*
X16316434Y-13498219D01*
X16392625Y-13460124D02*
X16392625Y-13498219D01*
X16687863Y-13736314D02*
X16678339Y-13726790D01*
X16678339Y-13726790D02*
X16659291Y-13698219D01*
X16659291Y-13698219D02*
X16649768Y-13679171D01*
X16649768Y-13679171D02*
X16640244Y-13650600D01*
X16640244Y-13650600D02*
X16630720Y-13602981D01*
X16630720Y-13602981D02*
X16630720Y-13564886D01*
X16630720Y-13564886D02*
X16640244Y-13517267D01*
X16640244Y-13517267D02*
X16649768Y-13488695D01*
X16649768Y-13488695D02*
X16659291Y-13469648D01*
X16659291Y-13469648D02*
X16678339Y-13441076D01*
X16678339Y-13441076D02*
X16687863Y-13431552D01*
X16868815Y-13660124D02*
X16754529Y-13660124D01*
X16811672Y-13660124D02*
X16811672Y-13460124D01*
X16811672Y-13460124D02*
X16792625Y-13488695D01*
X16792625Y-13488695D02*
X16773577Y-13507743D01*
X16773577Y-13507743D02*
X16754529Y-13517267D01*
X17106911Y-13660124D02*
X17106911Y-13460124D01*
X17192625Y-13660124D02*
X17192625Y-13555362D01*
X17192625Y-13555362D02*
X17183101Y-13536314D01*
X17183101Y-13536314D02*
X17164053Y-13526790D01*
X17164053Y-13526790D02*
X17135482Y-13526790D01*
X17135482Y-13526790D02*
X17116434Y-13536314D01*
X17116434Y-13536314D02*
X17106911Y-13545838D01*
X17316434Y-13660124D02*
X17297387Y-13650600D01*
X17297387Y-13650600D02*
X17287863Y-13641076D01*
X17287863Y-13641076D02*
X17278339Y-13622028D01*
X17278339Y-13622028D02*
X17278339Y-13564886D01*
X17278339Y-13564886D02*
X17287863Y-13545838D01*
X17287863Y-13545838D02*
X17297387Y-13536314D01*
X17297387Y-13536314D02*
X17316434Y-13526790D01*
X17316434Y-13526790D02*
X17345006Y-13526790D01*
X17345006Y-13526790D02*
X17364053Y-13536314D01*
X17364053Y-13536314D02*
X17373577Y-13545838D01*
X17373577Y-13545838D02*
X17383101Y-13564886D01*
X17383101Y-13564886D02*
X17383101Y-13622028D01*
X17383101Y-13622028D02*
X17373577Y-13641076D01*
X17373577Y-13641076D02*
X17364053Y-13650600D01*
X17364053Y-13650600D02*
X17345006Y-13660124D01*
X17345006Y-13660124D02*
X17316434Y-13660124D01*
X17497387Y-13660124D02*
X17478339Y-13650600D01*
X17478339Y-13650600D02*
X17468815Y-13631552D01*
X17468815Y-13631552D02*
X17468815Y-13460124D01*
X17649768Y-13650600D02*
X17630720Y-13660124D01*
X17630720Y-13660124D02*
X17592625Y-13660124D01*
X17592625Y-13660124D02*
X17573577Y-13650600D01*
X17573577Y-13650600D02*
X17564053Y-13631552D01*
X17564053Y-13631552D02*
X17564053Y-13555362D01*
X17564053Y-13555362D02*
X17573577Y-13536314D01*
X17573577Y-13536314D02*
X17592625Y-13526790D01*
X17592625Y-13526790D02*
X17630720Y-13526790D01*
X17630720Y-13526790D02*
X17649768Y-13536314D01*
X17649768Y-13536314D02*
X17659292Y-13555362D01*
X17659292Y-13555362D02*
X17659292Y-13574409D01*
X17659292Y-13574409D02*
X17564053Y-13593457D01*
X17725958Y-13736314D02*
X17735482Y-13726790D01*
X17735482Y-13726790D02*
X17754530Y-13698219D01*
X17754530Y-13698219D02*
X17764053Y-13679171D01*
X17764053Y-13679171D02*
X17773577Y-13650600D01*
X17773577Y-13650600D02*
X17783101Y-13602981D01*
X17783101Y-13602981D02*
X17783101Y-13564886D01*
X17783101Y-13564886D02*
X17773577Y-13517267D01*
X17773577Y-13517267D02*
X17764053Y-13488695D01*
X17764053Y-13488695D02*
X17754530Y-13469648D01*
X17754530Y-13469648D02*
X17735482Y-13441076D01*
X17735482Y-13441076D02*
X17725958Y-13431552D01*
M02*
