%TF.GenerationSoftware,KiCad,Pcbnew,8.0.2*%
%TF.CreationDate,2024-05-30T14:17:59+02:00*%
%TF.ProjectId,MPPT_solar_charger_expansion_board,4d505054-5f73-46f6-9c61-725f63686172,1.00*%
%TF.SameCoordinates,Original*%
%TF.FileFunction,Legend,Bot*%
%TF.FilePolarity,Positive*%
%FSLAX46Y46*%
G04 Gerber Fmt 4.6, Leading zero omitted, Abs format (unit mm)*
G04 Created by KiCad (PCBNEW 8.0.2) date 2024-05-30 14:17:59*
%MOMM*%
%LPD*%
G01*
G04 APERTURE LIST*
%ADD10C,0.150000*%
%ADD11C,0.000000*%
%ADD12C,0.120000*%
G04 APERTURE END LIST*
D10*
X134708600Y-92588576D02*
X153453800Y-92588576D01*
X152888420Y-94806331D02*
X152888420Y-93806331D01*
X152412230Y-94139664D02*
X152412230Y-94806331D01*
X152412230Y-94234902D02*
X152364611Y-94187283D01*
X152364611Y-94187283D02*
X152269373Y-94139664D01*
X152269373Y-94139664D02*
X152126516Y-94139664D01*
X152126516Y-94139664D02*
X152031278Y-94187283D01*
X152031278Y-94187283D02*
X151983659Y-94282521D01*
X151983659Y-94282521D02*
X151983659Y-94806331D01*
X152459849Y-96368656D02*
X152555087Y-96416275D01*
X152555087Y-96416275D02*
X152745563Y-96416275D01*
X152745563Y-96416275D02*
X152840801Y-96368656D01*
X152840801Y-96368656D02*
X152888420Y-96321036D01*
X152888420Y-96321036D02*
X152936039Y-96225798D01*
X152936039Y-96225798D02*
X152936039Y-95940084D01*
X152936039Y-95940084D02*
X152888420Y-95844846D01*
X152888420Y-95844846D02*
X152840801Y-95797227D01*
X152840801Y-95797227D02*
X152745563Y-95749608D01*
X152745563Y-95749608D02*
X152555087Y-95749608D01*
X152555087Y-95749608D02*
X152459849Y-95797227D01*
X151888420Y-96416275D02*
X151983658Y-96368656D01*
X151983658Y-96368656D02*
X152031277Y-96321036D01*
X152031277Y-96321036D02*
X152078896Y-96225798D01*
X152078896Y-96225798D02*
X152078896Y-95940084D01*
X152078896Y-95940084D02*
X152031277Y-95844846D01*
X152031277Y-95844846D02*
X151983658Y-95797227D01*
X151983658Y-95797227D02*
X151888420Y-95749608D01*
X151888420Y-95749608D02*
X151745563Y-95749608D01*
X151745563Y-95749608D02*
X151650325Y-95797227D01*
X151650325Y-95797227D02*
X151602706Y-95844846D01*
X151602706Y-95844846D02*
X151555087Y-95940084D01*
X151555087Y-95940084D02*
X151555087Y-96225798D01*
X151555087Y-96225798D02*
X151602706Y-96321036D01*
X151602706Y-96321036D02*
X151650325Y-96368656D01*
X151650325Y-96368656D02*
X151745563Y-96416275D01*
X151745563Y-96416275D02*
X151888420Y-96416275D01*
X150983658Y-96416275D02*
X151078896Y-96368656D01*
X151078896Y-96368656D02*
X151126515Y-96273417D01*
X151126515Y-96273417D02*
X151126515Y-95416275D01*
X150459848Y-96416275D02*
X150555086Y-96368656D01*
X150555086Y-96368656D02*
X150602705Y-96273417D01*
X150602705Y-96273417D02*
X150602705Y-95416275D01*
X149650324Y-96416275D02*
X149650324Y-95892465D01*
X149650324Y-95892465D02*
X149697943Y-95797227D01*
X149697943Y-95797227D02*
X149793181Y-95749608D01*
X149793181Y-95749608D02*
X149983657Y-95749608D01*
X149983657Y-95749608D02*
X150078895Y-95797227D01*
X149650324Y-96368656D02*
X149745562Y-96416275D01*
X149745562Y-96416275D02*
X149983657Y-96416275D01*
X149983657Y-96416275D02*
X150078895Y-96368656D01*
X150078895Y-96368656D02*
X150126514Y-96273417D01*
X150126514Y-96273417D02*
X150126514Y-96178179D01*
X150126514Y-96178179D02*
X150078895Y-96082941D01*
X150078895Y-96082941D02*
X149983657Y-96035322D01*
X149983657Y-96035322D02*
X149745562Y-96035322D01*
X149745562Y-96035322D02*
X149650324Y-95987703D01*
X149174133Y-96416275D02*
X149174133Y-95416275D01*
X149174133Y-95797227D02*
X149078895Y-95749608D01*
X149078895Y-95749608D02*
X148888419Y-95749608D01*
X148888419Y-95749608D02*
X148793181Y-95797227D01*
X148793181Y-95797227D02*
X148745562Y-95844846D01*
X148745562Y-95844846D02*
X148697943Y-95940084D01*
X148697943Y-95940084D02*
X148697943Y-96225798D01*
X148697943Y-96225798D02*
X148745562Y-96321036D01*
X148745562Y-96321036D02*
X148793181Y-96368656D01*
X148793181Y-96368656D02*
X148888419Y-96416275D01*
X148888419Y-96416275D02*
X149078895Y-96416275D01*
X149078895Y-96416275D02*
X149174133Y-96368656D01*
X148126514Y-96416275D02*
X148221752Y-96368656D01*
X148221752Y-96368656D02*
X148269371Y-96321036D01*
X148269371Y-96321036D02*
X148316990Y-96225798D01*
X148316990Y-96225798D02*
X148316990Y-95940084D01*
X148316990Y-95940084D02*
X148269371Y-95844846D01*
X148269371Y-95844846D02*
X148221752Y-95797227D01*
X148221752Y-95797227D02*
X148126514Y-95749608D01*
X148126514Y-95749608D02*
X147983657Y-95749608D01*
X147983657Y-95749608D02*
X147888419Y-95797227D01*
X147888419Y-95797227D02*
X147840800Y-95844846D01*
X147840800Y-95844846D02*
X147793181Y-95940084D01*
X147793181Y-95940084D02*
X147793181Y-96225798D01*
X147793181Y-96225798D02*
X147840800Y-96321036D01*
X147840800Y-96321036D02*
X147888419Y-96368656D01*
X147888419Y-96368656D02*
X147983657Y-96416275D01*
X147983657Y-96416275D02*
X148126514Y-96416275D01*
X147364609Y-96416275D02*
X147364609Y-95749608D01*
X147364609Y-95940084D02*
X147316990Y-95844846D01*
X147316990Y-95844846D02*
X147269371Y-95797227D01*
X147269371Y-95797227D02*
X147174133Y-95749608D01*
X147174133Y-95749608D02*
X147078895Y-95749608D01*
X146316990Y-96416275D02*
X146316990Y-95892465D01*
X146316990Y-95892465D02*
X146364609Y-95797227D01*
X146364609Y-95797227D02*
X146459847Y-95749608D01*
X146459847Y-95749608D02*
X146650323Y-95749608D01*
X146650323Y-95749608D02*
X146745561Y-95797227D01*
X146316990Y-96368656D02*
X146412228Y-96416275D01*
X146412228Y-96416275D02*
X146650323Y-96416275D01*
X146650323Y-96416275D02*
X146745561Y-96368656D01*
X146745561Y-96368656D02*
X146793180Y-96273417D01*
X146793180Y-96273417D02*
X146793180Y-96178179D01*
X146793180Y-96178179D02*
X146745561Y-96082941D01*
X146745561Y-96082941D02*
X146650323Y-96035322D01*
X146650323Y-96035322D02*
X146412228Y-96035322D01*
X146412228Y-96035322D02*
X146316990Y-95987703D01*
X145983656Y-95749608D02*
X145602704Y-95749608D01*
X145840799Y-95416275D02*
X145840799Y-96273417D01*
X145840799Y-96273417D02*
X145793180Y-96368656D01*
X145793180Y-96368656D02*
X145697942Y-96416275D01*
X145697942Y-96416275D02*
X145602704Y-96416275D01*
X145269370Y-96416275D02*
X145269370Y-95749608D01*
X145269370Y-95416275D02*
X145316989Y-95463894D01*
X145316989Y-95463894D02*
X145269370Y-95511513D01*
X145269370Y-95511513D02*
X145221751Y-95463894D01*
X145221751Y-95463894D02*
X145269370Y-95416275D01*
X145269370Y-95416275D02*
X145269370Y-95511513D01*
X144650323Y-96416275D02*
X144745561Y-96368656D01*
X144745561Y-96368656D02*
X144793180Y-96321036D01*
X144793180Y-96321036D02*
X144840799Y-96225798D01*
X144840799Y-96225798D02*
X144840799Y-95940084D01*
X144840799Y-95940084D02*
X144793180Y-95844846D01*
X144793180Y-95844846D02*
X144745561Y-95797227D01*
X144745561Y-95797227D02*
X144650323Y-95749608D01*
X144650323Y-95749608D02*
X144507466Y-95749608D01*
X144507466Y-95749608D02*
X144412228Y-95797227D01*
X144412228Y-95797227D02*
X144364609Y-95844846D01*
X144364609Y-95844846D02*
X144316990Y-95940084D01*
X144316990Y-95940084D02*
X144316990Y-96225798D01*
X144316990Y-96225798D02*
X144364609Y-96321036D01*
X144364609Y-96321036D02*
X144412228Y-96368656D01*
X144412228Y-96368656D02*
X144507466Y-96416275D01*
X144507466Y-96416275D02*
X144650323Y-96416275D01*
X143888418Y-95749608D02*
X143888418Y-96416275D01*
X143888418Y-95844846D02*
X143840799Y-95797227D01*
X143840799Y-95797227D02*
X143745561Y-95749608D01*
X143745561Y-95749608D02*
X143602704Y-95749608D01*
X143602704Y-95749608D02*
X143507466Y-95797227D01*
X143507466Y-95797227D02*
X143459847Y-95892465D01*
X143459847Y-95892465D02*
X143459847Y-96416275D01*
X152983658Y-97359552D02*
X152793182Y-98026219D01*
X152793182Y-98026219D02*
X152602706Y-97550028D01*
X152602706Y-97550028D02*
X152412230Y-98026219D01*
X152412230Y-98026219D02*
X152221754Y-97359552D01*
X151840801Y-98026219D02*
X151840801Y-97359552D01*
X151840801Y-97026219D02*
X151888420Y-97073838D01*
X151888420Y-97073838D02*
X151840801Y-97121457D01*
X151840801Y-97121457D02*
X151793182Y-97073838D01*
X151793182Y-97073838D02*
X151840801Y-97026219D01*
X151840801Y-97026219D02*
X151840801Y-97121457D01*
X151507468Y-97359552D02*
X151126516Y-97359552D01*
X151364611Y-97026219D02*
X151364611Y-97883361D01*
X151364611Y-97883361D02*
X151316992Y-97978600D01*
X151316992Y-97978600D02*
X151221754Y-98026219D01*
X151221754Y-98026219D02*
X151126516Y-98026219D01*
X150793182Y-98026219D02*
X150793182Y-97026219D01*
X150364611Y-98026219D02*
X150364611Y-97502409D01*
X150364611Y-97502409D02*
X150412230Y-97407171D01*
X150412230Y-97407171D02*
X150507468Y-97359552D01*
X150507468Y-97359552D02*
X150650325Y-97359552D01*
X150650325Y-97359552D02*
X150745563Y-97407171D01*
X150745563Y-97407171D02*
X150793182Y-97454790D01*
X149888420Y-97930980D02*
X149840801Y-97978600D01*
X149840801Y-97978600D02*
X149888420Y-98026219D01*
X149888420Y-98026219D02*
X149936039Y-97978600D01*
X149936039Y-97978600D02*
X149888420Y-97930980D01*
X149888420Y-97930980D02*
X149888420Y-98026219D01*
X149888420Y-97407171D02*
X149840801Y-97454790D01*
X149840801Y-97454790D02*
X149888420Y-97502409D01*
X149888420Y-97502409D02*
X149936039Y-97454790D01*
X149936039Y-97454790D02*
X149888420Y-97407171D01*
X149888420Y-97407171D02*
X149888420Y-97502409D01*
D11*
%TO.C,G\u002A\u002A\u002A*%
G36*
X142256634Y-98280706D02*
G01*
X142277633Y-98336345D01*
X142312428Y-98426905D01*
X142352125Y-98528862D01*
X142393293Y-98633418D01*
X142432503Y-98731779D01*
X142437854Y-98745107D01*
X142470060Y-98825671D01*
X142497960Y-98896027D01*
X142519915Y-98952006D01*
X142534289Y-98989439D01*
X142539444Y-99004155D01*
X142535620Y-99005496D01*
X142509574Y-99007089D01*
X142464302Y-99007334D01*
X142406198Y-99006136D01*
X142272953Y-99001967D01*
X142195688Y-98798999D01*
X142181226Y-98761141D01*
X142144249Y-98665271D01*
X142104378Y-98562954D01*
X142063824Y-98459777D01*
X142024796Y-98361329D01*
X141989506Y-98273196D01*
X141960166Y-98200966D01*
X141938984Y-98150227D01*
X141915653Y-98095860D01*
X142051679Y-98095860D01*
X142187705Y-98095860D01*
X142256634Y-98280706D01*
G37*
G36*
X140161594Y-96593117D02*
G01*
X140209337Y-96602239D01*
X140254040Y-96611949D01*
X140322162Y-96626598D01*
X140400488Y-96643337D01*
X140479460Y-96660116D01*
X140544861Y-96674470D01*
X140603570Y-96689291D01*
X140642600Y-96702548D01*
X140666886Y-96715982D01*
X140681361Y-96731332D01*
X140689891Y-96744958D01*
X140695433Y-96764323D01*
X140682669Y-96777534D01*
X140672840Y-96780338D01*
X140636709Y-96784448D01*
X140580350Y-96787759D01*
X140509188Y-96789985D01*
X140428648Y-96790844D01*
X140341533Y-96790604D01*
X140276708Y-96789376D01*
X140231973Y-96786714D01*
X140202830Y-96782175D01*
X140184778Y-96775317D01*
X140173317Y-96765695D01*
X140168441Y-96759214D01*
X140151444Y-96727694D01*
X140134045Y-96685902D01*
X140119453Y-96642957D01*
X140110875Y-96607974D01*
X140111520Y-96590070D01*
X140126127Y-96588851D01*
X140161594Y-96593117D01*
G37*
G36*
X137938342Y-98135729D02*
G01*
X137944232Y-98155528D01*
X137960807Y-98203421D01*
X137985263Y-98269952D01*
X138015720Y-98350313D01*
X138050296Y-98439695D01*
X138087112Y-98533290D01*
X138124284Y-98626288D01*
X138159934Y-98713881D01*
X138192180Y-98791259D01*
X138219141Y-98853616D01*
X138288602Y-99009716D01*
X137932422Y-99005842D01*
X137576241Y-99001967D01*
X137537620Y-98907732D01*
X137498998Y-98813497D01*
X137685321Y-98818584D01*
X137693952Y-98818810D01*
X137765142Y-98819990D01*
X137826031Y-98819836D01*
X137870396Y-98818430D01*
X137892012Y-98815854D01*
X137895101Y-98807450D01*
X137889336Y-98773406D01*
X137871404Y-98713438D01*
X137841279Y-98627478D01*
X137798937Y-98515458D01*
X137744356Y-98377310D01*
X137677509Y-98212967D01*
X137677005Y-98211738D01*
X137657949Y-98163712D01*
X137644383Y-98126425D01*
X137639215Y-98107858D01*
X137645433Y-98104386D01*
X137674915Y-98099989D01*
X137723123Y-98096977D01*
X137783916Y-98095860D01*
X137928617Y-98095860D01*
X137938342Y-98135729D01*
G37*
G36*
X142671190Y-98099227D02*
G01*
X143020402Y-98103109D01*
X143096399Y-98313326D01*
X143097257Y-98315699D01*
X143127487Y-98397497D01*
X143165034Y-98496534D01*
X143207004Y-98605406D01*
X143250504Y-98716704D01*
X143292638Y-98823022D01*
X143330513Y-98916954D01*
X143361235Y-98991094D01*
X143361306Y-98991266D01*
X143357614Y-98999837D01*
X143335862Y-99005366D01*
X143292419Y-99008334D01*
X143223655Y-99009216D01*
X143078394Y-99009216D01*
X143041519Y-98911357D01*
X143022012Y-98859386D01*
X142996048Y-98789773D01*
X142973970Y-98730135D01*
X142943296Y-98646773D01*
X142766519Y-98646773D01*
X142589743Y-98646773D01*
X142562728Y-98570660D01*
X142551673Y-98539625D01*
X142537272Y-98499565D01*
X142528779Y-98476425D01*
X142528346Y-98473392D01*
X142537566Y-98466202D01*
X142565274Y-98461552D01*
X142614960Y-98459050D01*
X142690119Y-98458303D01*
X142753563Y-98457419D01*
X142808004Y-98454870D01*
X142844847Y-98451059D01*
X142858393Y-98446388D01*
X142857105Y-98438684D01*
X142848826Y-98408649D01*
X142835414Y-98367031D01*
X142812434Y-98299589D01*
X142602104Y-98295584D01*
X142391775Y-98291579D01*
X142356876Y-98205755D01*
X142340414Y-98163807D01*
X142327089Y-98126593D01*
X142321978Y-98107637D01*
X142328912Y-98105278D01*
X142360761Y-98102455D01*
X142414866Y-98100343D01*
X142487276Y-98099038D01*
X142574035Y-98098634D01*
X142671190Y-98099227D01*
G37*
G36*
X142039291Y-98855784D02*
G01*
X142008711Y-98922320D01*
X141953766Y-98973896D01*
X141874830Y-99009583D01*
X141865341Y-99012130D01*
X141804829Y-99020319D01*
X141730325Y-99021360D01*
X141653498Y-99015517D01*
X141586016Y-99003054D01*
X141493177Y-98968508D01*
X141397217Y-98909127D01*
X141316350Y-98832730D01*
X141254052Y-98743450D01*
X141213796Y-98645420D01*
X141206296Y-98593185D01*
X141466613Y-98593185D01*
X141470324Y-98619254D01*
X141489356Y-98671548D01*
X141519308Y-98727354D01*
X141554246Y-98776204D01*
X141588232Y-98807631D01*
X141624342Y-98823739D01*
X141675102Y-98833835D01*
X141721845Y-98832095D01*
X141753667Y-98817846D01*
X141768075Y-98786072D01*
X141767902Y-98737831D01*
X141754741Y-98681500D01*
X141731065Y-98624601D01*
X141699346Y-98574658D01*
X141662060Y-98539196D01*
X141649383Y-98531405D01*
X141590938Y-98508322D01*
X141538224Y-98507452D01*
X141497240Y-98529160D01*
X141476584Y-98558608D01*
X141466613Y-98593185D01*
X141206296Y-98593185D01*
X141199058Y-98542774D01*
X141204018Y-98486294D01*
X141230526Y-98419278D01*
X141280244Y-98369006D01*
X141353560Y-98335129D01*
X141450865Y-98317300D01*
X141472512Y-98315829D01*
X141586728Y-98323420D01*
X141698179Y-98354569D01*
X141801887Y-98406303D01*
X141892870Y-98475647D01*
X141966150Y-98559626D01*
X142016746Y-98655267D01*
X142025872Y-98681543D01*
X142045135Y-98775216D01*
X142044348Y-98786072D01*
X142039291Y-98855784D01*
G37*
G36*
X139248462Y-98681331D02*
G01*
X139248462Y-99034838D01*
X139306087Y-99086899D01*
X139307370Y-99088055D01*
X139366609Y-99132075D01*
X139421173Y-99151382D01*
X139477069Y-99148127D01*
X139478705Y-99147742D01*
X139523645Y-99138449D01*
X139548594Y-99140080D01*
X139561417Y-99156215D01*
X139569978Y-99190438D01*
X139571798Y-99199328D01*
X139581405Y-99245045D01*
X139589105Y-99279984D01*
X139589694Y-99302669D01*
X139571045Y-99318171D01*
X139546864Y-99321560D01*
X139502178Y-99324662D01*
X139448349Y-99326484D01*
X139411735Y-99326290D01*
X139335018Y-99318372D01*
X139266531Y-99297849D01*
X139202055Y-99262045D01*
X139137368Y-99208283D01*
X139068253Y-99133890D01*
X138990488Y-99036189D01*
X138989749Y-99035214D01*
X138919915Y-98943565D01*
X138837192Y-98835899D01*
X138746679Y-98718810D01*
X138653475Y-98598896D01*
X138562678Y-98482753D01*
X138558610Y-98477561D01*
X138516704Y-98423572D01*
X138482532Y-98378634D01*
X138459519Y-98347308D01*
X138451087Y-98334151D01*
X138453766Y-98332873D01*
X138477782Y-98330424D01*
X138521361Y-98328872D01*
X138577942Y-98328509D01*
X138704797Y-98329193D01*
X138814546Y-98484359D01*
X138814749Y-98484646D01*
X138860665Y-98550221D01*
X138904627Y-98614154D01*
X138941655Y-98669137D01*
X138966772Y-98707859D01*
X138984894Y-98735829D01*
X139006157Y-98765139D01*
X139017958Y-98776724D01*
X139020277Y-98772756D01*
X139020504Y-98748143D01*
X139015879Y-98708389D01*
X139012542Y-98683730D01*
X139006382Y-98626565D01*
X139000075Y-98556566D01*
X138994565Y-98483674D01*
X138984039Y-98327824D01*
X139116251Y-98327824D01*
X139248462Y-98327824D01*
X139248462Y-98681331D01*
G37*
G36*
X140251633Y-98806069D02*
G01*
X140291134Y-98907037D01*
X140329592Y-99003908D01*
X140364977Y-99091423D01*
X140395260Y-99164328D01*
X140411223Y-99202348D01*
X140432124Y-99253402D01*
X140446454Y-99290069D01*
X140451772Y-99306224D01*
X140448154Y-99308091D01*
X140422451Y-99310643D01*
X140377474Y-99311546D01*
X140319640Y-99310588D01*
X140187509Y-99306420D01*
X140158905Y-99226682D01*
X140153404Y-99211428D01*
X140133984Y-99158446D01*
X140112510Y-99100821D01*
X140091401Y-99044923D01*
X140073071Y-98997121D01*
X140059938Y-98963786D01*
X140054419Y-98951286D01*
X140047534Y-98954526D01*
X140021062Y-98967695D01*
X139981764Y-98987530D01*
X139929663Y-99008767D01*
X139839272Y-99022966D01*
X139749263Y-99010606D01*
X139662385Y-98973049D01*
X139581385Y-98911658D01*
X139509011Y-98827795D01*
X139448010Y-98722824D01*
X139421327Y-98652126D01*
X139407451Y-98580903D01*
X139672352Y-98580903D01*
X139676420Y-98636584D01*
X139696661Y-98696295D01*
X139730873Y-98752933D01*
X139776857Y-98799394D01*
X139823000Y-98825409D01*
X139873802Y-98834844D01*
X139917214Y-98824284D01*
X139947482Y-98795307D01*
X139958850Y-98749492D01*
X139958567Y-98741713D01*
X139950984Y-98696616D01*
X139935571Y-98642532D01*
X139915700Y-98588817D01*
X139894746Y-98544827D01*
X139876081Y-98519918D01*
X139864963Y-98513488D01*
X139822407Y-98502956D01*
X139771509Y-98502284D01*
X139724319Y-98510919D01*
X139692889Y-98528309D01*
X139686657Y-98536357D01*
X139672352Y-98580903D01*
X139407451Y-98580903D01*
X139404699Y-98566775D01*
X139405065Y-98487619D01*
X139423099Y-98422790D01*
X139440844Y-98395476D01*
X139489898Y-98356301D01*
X139561616Y-98330052D01*
X139656904Y-98316554D01*
X139776668Y-98315633D01*
X139921816Y-98327116D01*
X140084973Y-98345301D01*
X140110593Y-98427173D01*
X140123798Y-98466344D01*
X140147172Y-98531140D01*
X140177622Y-98612863D01*
X140213119Y-98706258D01*
X140229802Y-98749492D01*
X140251633Y-98806069D01*
G37*
G36*
X141139292Y-98778572D02*
G01*
X141181592Y-98887997D01*
X141221744Y-98989922D01*
X141255912Y-99074456D01*
X141270357Y-99109519D01*
X141298613Y-99178196D01*
X141322204Y-99235649D01*
X141338998Y-99276687D01*
X141346865Y-99296114D01*
X141344290Y-99304961D01*
X141325156Y-99310055D01*
X141285329Y-99311782D01*
X141220709Y-99310611D01*
X141087250Y-99306420D01*
X141021407Y-99132447D01*
X141017664Y-99122572D01*
X140992906Y-99057921D01*
X140972010Y-99004488D01*
X140957081Y-98967584D01*
X140950218Y-98952523D01*
X140941059Y-98953755D01*
X140919413Y-98968592D01*
X140873334Y-98995982D01*
X140805073Y-99016301D01*
X140727912Y-99023714D01*
X140711511Y-99023197D01*
X140625891Y-99004438D01*
X140543993Y-98961967D01*
X140469070Y-98900224D01*
X140404379Y-98823649D01*
X140353175Y-98736682D01*
X140318714Y-98643763D01*
X140308492Y-98577034D01*
X140570363Y-98577034D01*
X140572196Y-98632643D01*
X140591496Y-98692619D01*
X140626163Y-98750084D01*
X140674097Y-98798160D01*
X140722871Y-98826019D01*
X140774361Y-98835549D01*
X140817331Y-98823404D01*
X140846781Y-98791159D01*
X140857708Y-98740386D01*
X140856670Y-98726611D01*
X140846666Y-98682157D01*
X140829000Y-98629524D01*
X140807318Y-98577796D01*
X140785272Y-98536055D01*
X140766510Y-98513384D01*
X140756723Y-98508651D01*
X140715999Y-98501361D01*
X140666705Y-98502909D01*
X140621177Y-98512243D01*
X140591748Y-98528309D01*
X140588094Y-98532673D01*
X140570363Y-98577034D01*
X140308492Y-98577034D01*
X140304249Y-98549334D01*
X140313038Y-98457833D01*
X140334940Y-98404676D01*
X140373139Y-98364445D01*
X140429839Y-98336523D01*
X140507277Y-98320175D01*
X140607687Y-98314661D01*
X140733305Y-98319247D01*
X140784166Y-98322439D01*
X140852423Y-98326936D01*
X140903351Y-98333428D01*
X140941076Y-98345429D01*
X140969727Y-98366452D01*
X140993431Y-98400010D01*
X141016318Y-98449617D01*
X141042514Y-98518787D01*
X141076149Y-98611031D01*
X141098681Y-98671538D01*
X141124803Y-98740386D01*
X141139292Y-98778572D01*
G37*
G36*
X137406634Y-94190935D02*
G01*
X137558241Y-94203223D01*
X137553701Y-94275712D01*
X137552752Y-94290693D01*
X137549126Y-94346496D01*
X137544562Y-94415422D01*
X137539822Y-94485929D01*
X137530482Y-94623657D01*
X137398741Y-94632936D01*
X137310094Y-94642518D01*
X137237810Y-94659830D01*
X137187270Y-94686158D01*
X137154959Y-94723392D01*
X137137362Y-94773421D01*
X137134959Y-94792587D01*
X137138870Y-94819695D01*
X137154515Y-94844738D01*
X137184591Y-94869363D01*
X137231797Y-94895215D01*
X137298832Y-94923942D01*
X137388393Y-94957188D01*
X137503178Y-94996601D01*
X137508593Y-94998416D01*
X137605148Y-95030069D01*
X137701429Y-95060453D01*
X137790658Y-95087508D01*
X137866053Y-95109177D01*
X137920834Y-95123401D01*
X137948408Y-95130068D01*
X138004462Y-95145285D01*
X138047335Y-95159189D01*
X138069435Y-95169427D01*
X138084521Y-95194966D01*
X138087600Y-95232113D01*
X138075466Y-95262281D01*
X138065524Y-95276313D01*
X138042705Y-95311623D01*
X138009993Y-95363674D01*
X137970044Y-95428236D01*
X137925513Y-95501081D01*
X137887950Y-95562797D01*
X137842599Y-95637088D01*
X137802273Y-95702917D01*
X137770308Y-95754839D01*
X137750039Y-95787410D01*
X137724875Y-95821746D01*
X137697170Y-95842951D01*
X137664327Y-95847768D01*
X137622006Y-95835723D01*
X137565865Y-95806339D01*
X137491564Y-95759144D01*
X137381808Y-95682974D01*
X137230303Y-95566232D01*
X137089767Y-95444279D01*
X136963393Y-95320309D01*
X136854372Y-95197514D01*
X136765894Y-95079088D01*
X136701152Y-94968225D01*
X136683113Y-94930846D01*
X136665366Y-94889849D01*
X136654455Y-94853588D01*
X136648718Y-94813631D01*
X136646494Y-94761545D01*
X136646122Y-94688897D01*
X136646145Y-94668952D01*
X136647077Y-94600213D01*
X136650304Y-94550783D01*
X136657095Y-94512837D01*
X136668715Y-94478550D01*
X136686435Y-94440097D01*
X136730734Y-94364733D01*
X136799918Y-94288655D01*
X136883541Y-94236154D01*
X136923843Y-94222080D01*
X136999610Y-94205940D01*
X137092529Y-94194171D01*
X137195845Y-94187358D01*
X137302798Y-94186085D01*
X137406634Y-94190935D01*
G37*
G36*
X138088819Y-95696248D02*
G01*
X138115459Y-95723823D01*
X138145960Y-95777161D01*
X138241419Y-95943327D01*
X138379548Y-96134301D01*
X138543540Y-96317812D01*
X138731929Y-96492519D01*
X138943254Y-96657086D01*
X139176050Y-96810173D01*
X139428854Y-96950442D01*
X139605632Y-97032851D01*
X139813089Y-97108785D01*
X140011041Y-97157399D01*
X140199579Y-97178702D01*
X140378791Y-97172703D01*
X140548768Y-97139411D01*
X140709600Y-97078836D01*
X140745676Y-97058915D01*
X140815009Y-97010081D01*
X140889938Y-96946835D01*
X140963669Y-96875088D01*
X141029406Y-96800748D01*
X141059142Y-96773145D01*
X141085112Y-96768345D01*
X141106116Y-96772258D01*
X141150239Y-96777050D01*
X141210380Y-96781921D01*
X141279892Y-96786261D01*
X141280268Y-96786281D01*
X141354308Y-96790799D01*
X141403948Y-96795494D01*
X141433751Y-96801244D01*
X141448285Y-96808931D01*
X141452115Y-96819432D01*
X141450587Y-96830064D01*
X141437500Y-96868380D01*
X141413799Y-96921678D01*
X141382858Y-96983398D01*
X141348049Y-97046982D01*
X141312744Y-97105872D01*
X141280316Y-97153509D01*
X141252182Y-97188343D01*
X141177925Y-97265939D01*
X141090725Y-97343115D01*
X140999901Y-97411943D01*
X140914775Y-97464493D01*
X140844788Y-97497780D01*
X140751597Y-97535404D01*
X140652652Y-97569983D01*
X140558359Y-97597909D01*
X140479124Y-97615575D01*
X140467553Y-97617382D01*
X140378493Y-97626290D01*
X140271335Y-97630498D01*
X140155159Y-97630175D01*
X140039043Y-97625490D01*
X139932065Y-97616614D01*
X139843304Y-97603715D01*
X139726885Y-97577707D01*
X139489882Y-97503452D01*
X139258170Y-97402626D01*
X139033700Y-97276794D01*
X138818424Y-97127520D01*
X138614294Y-96956372D01*
X138423264Y-96764913D01*
X138247284Y-96554708D01*
X138088308Y-96327325D01*
X137948287Y-96084326D01*
X137920661Y-96029499D01*
X137895001Y-95974986D01*
X137877592Y-95933722D01*
X137871179Y-95911847D01*
X137871182Y-95911549D01*
X137880804Y-95886105D01*
X137905337Y-95847298D01*
X137939400Y-95802252D01*
X137977616Y-95758088D01*
X138014604Y-95721931D01*
X138028524Y-95710567D01*
X138061391Y-95692481D01*
X138088819Y-95696248D01*
G37*
G36*
X136570753Y-98786647D02*
G01*
X136599936Y-98859130D01*
X136623961Y-98919408D01*
X136640887Y-98962606D01*
X136648772Y-98983845D01*
X136650406Y-98991337D01*
X136646249Y-99000843D01*
X136628588Y-99006243D01*
X136592260Y-99008660D01*
X136532107Y-99009216D01*
X136475905Y-99008888D01*
X136436811Y-99006764D01*
X136414949Y-99001178D01*
X136404179Y-98990469D01*
X136398365Y-98972972D01*
X136387052Y-98943353D01*
X136372453Y-98940877D01*
X136351867Y-98966390D01*
X136335116Y-98986022D01*
X136301262Y-99008964D01*
X136261716Y-99019403D01*
X136190138Y-99022728D01*
X136112860Y-99012450D01*
X136041255Y-98989424D01*
X136026908Y-98982636D01*
X135937427Y-98923548D01*
X135858247Y-98843418D01*
X135793924Y-98748756D01*
X135749016Y-98646076D01*
X135738794Y-98595211D01*
X136000973Y-98595211D01*
X136002519Y-98611867D01*
X136019177Y-98664259D01*
X136049206Y-98721177D01*
X136086460Y-98772126D01*
X136124793Y-98806612D01*
X136130001Y-98809730D01*
X136168316Y-98827848D01*
X136198802Y-98835244D01*
X136205591Y-98834920D01*
X136246368Y-98820566D01*
X136278130Y-98791165D01*
X136290928Y-98755344D01*
X136286623Y-98724988D01*
X136273873Y-98677927D01*
X136255800Y-98624811D01*
X136235574Y-98574163D01*
X136216364Y-98534511D01*
X136201341Y-98514380D01*
X136193663Y-98511086D01*
X136160039Y-98504670D01*
X136115578Y-98502018D01*
X136100175Y-98502404D01*
X136044799Y-98515086D01*
X136011864Y-98545914D01*
X136000973Y-98595211D01*
X135738794Y-98595211D01*
X135728078Y-98541887D01*
X135727494Y-98470943D01*
X135740564Y-98410749D01*
X135770668Y-98367888D01*
X135820498Y-98340088D01*
X135892746Y-98325074D01*
X135990102Y-98320575D01*
X136028951Y-98320398D01*
X136081754Y-98319476D01*
X136117994Y-98317943D01*
X136131455Y-98316000D01*
X136130842Y-98313962D01*
X136121875Y-98292585D01*
X136104442Y-98253481D01*
X136081415Y-98203126D01*
X136031378Y-98094827D01*
X136169509Y-98098968D01*
X136307641Y-98103109D01*
X136376840Y-98291579D01*
X136389750Y-98326377D01*
X136424053Y-98416724D01*
X136463726Y-98519066D01*
X136504827Y-98623285D01*
X136543415Y-98719262D01*
X136558053Y-98755344D01*
X136570753Y-98786647D01*
G37*
G36*
X137003540Y-98326721D02*
G01*
X137070753Y-98336523D01*
X137121264Y-98345927D01*
X137154624Y-98356992D01*
X137176835Y-98372693D01*
X137193904Y-98396004D01*
X137211832Y-98429898D01*
X137226288Y-98458914D01*
X137241767Y-98491543D01*
X137247777Y-98506569D01*
X137246666Y-98507109D01*
X137226935Y-98504900D01*
X137187633Y-98497252D01*
X137135420Y-98485418D01*
X137081970Y-98473663D01*
X136998026Y-98460944D01*
X136936346Y-98460304D01*
X136898319Y-98471689D01*
X136885334Y-98495046D01*
X136895635Y-98519488D01*
X136930485Y-98546994D01*
X136985371Y-98571144D01*
X137055509Y-98589291D01*
X137126746Y-98604528D01*
X137247202Y-98641736D01*
X137341770Y-98688358D01*
X137409953Y-98744040D01*
X137451258Y-98808430D01*
X137465188Y-98881176D01*
X137464859Y-98900948D01*
X137457729Y-98949647D01*
X137438026Y-98980932D01*
X137401458Y-99003012D01*
X137369968Y-99012039D01*
X137317063Y-99019903D01*
X137259023Y-99023147D01*
X137235401Y-99023230D01*
X137192497Y-99021838D01*
X137167299Y-99015670D01*
X137151719Y-99001624D01*
X137137668Y-98976596D01*
X137136448Y-98974211D01*
X137113618Y-98934785D01*
X137091890Y-98904477D01*
X137089666Y-98901918D01*
X137079919Y-98887022D01*
X137089485Y-98881384D01*
X137123164Y-98881475D01*
X137129642Y-98881604D01*
X137167955Y-98877806D01*
X137191757Y-98868068D01*
X137191777Y-98868047D01*
X137200966Y-98841065D01*
X137189207Y-98808478D01*
X137160062Y-98780162D01*
X137131870Y-98766111D01*
X137090194Y-98749994D01*
X137044083Y-98734921D01*
X137001406Y-98723251D01*
X136970030Y-98717341D01*
X136957823Y-98719549D01*
X136960534Y-98729759D01*
X136972258Y-98762684D01*
X136991124Y-98811757D01*
X137014797Y-98870786D01*
X137071772Y-99010278D01*
X136941436Y-99006123D01*
X136811101Y-99001967D01*
X136731493Y-98798999D01*
X136699323Y-98716725D01*
X136664425Y-98626296D01*
X136638471Y-98556846D01*
X136620366Y-98504973D01*
X136609012Y-98467279D01*
X136603314Y-98440365D01*
X136602174Y-98420831D01*
X136604497Y-98405278D01*
X136615316Y-98382433D01*
X136653859Y-98350877D01*
X136715097Y-98328909D01*
X136795884Y-98317147D01*
X136893080Y-98316212D01*
X137003540Y-98326721D01*
G37*
G36*
X138641699Y-93605050D02*
G01*
X138748741Y-93612569D01*
X138843595Y-93624856D01*
X139004691Y-93656305D01*
X139263047Y-93722538D01*
X139520446Y-93806954D01*
X139772314Y-93907495D01*
X140014077Y-94022102D01*
X140241161Y-94148719D01*
X140448991Y-94285287D01*
X140632994Y-94429751D01*
X140771020Y-94560434D01*
X140908567Y-94712790D01*
X141039552Y-94879516D01*
X141161409Y-95056351D01*
X141271571Y-95239030D01*
X141367472Y-95423292D01*
X141446547Y-95604875D01*
X141506228Y-95779515D01*
X141543950Y-95942949D01*
X141547648Y-95965707D01*
X141556211Y-96029123D01*
X141556854Y-96070632D01*
X141548227Y-96095231D01*
X141528975Y-96107921D01*
X141497747Y-96113698D01*
X141490396Y-96114397D01*
X141445430Y-96117316D01*
X141385057Y-96119927D01*
X141320215Y-96121734D01*
X141195564Y-96124171D01*
X141162809Y-95990067D01*
X141131845Y-95877821D01*
X141050094Y-95656052D01*
X140943942Y-95441437D01*
X140816372Y-95240429D01*
X140721260Y-95114874D01*
X140535269Y-94904058D01*
X140329655Y-94710161D01*
X140107319Y-94535181D01*
X139871165Y-94381118D01*
X139624094Y-94249969D01*
X139369009Y-94143735D01*
X139108810Y-94064412D01*
X138963894Y-94031142D01*
X138784846Y-93999328D01*
X138626943Y-93982934D01*
X138491013Y-93981997D01*
X138377886Y-93996555D01*
X138288389Y-94026646D01*
X138232249Y-94059207D01*
X138146967Y-94133735D01*
X138075557Y-94232299D01*
X138017547Y-94355615D01*
X137972461Y-94504400D01*
X137970245Y-94513836D01*
X137957685Y-94579000D01*
X137949538Y-94649408D01*
X137945126Y-94732947D01*
X137943769Y-94837498D01*
X137943567Y-94873297D01*
X137941981Y-94943611D01*
X137939078Y-95000091D01*
X137935171Y-95037685D01*
X137930571Y-95051340D01*
X137923628Y-95050771D01*
X137892073Y-95045743D01*
X137844685Y-95036795D01*
X137788849Y-95025482D01*
X137731952Y-95013361D01*
X137681381Y-95001991D01*
X137644521Y-94992926D01*
X137628759Y-94987725D01*
X137626898Y-94976469D01*
X137624928Y-94940233D01*
X137623400Y-94883808D01*
X137622440Y-94812030D01*
X137622170Y-94729738D01*
X137622691Y-94671261D01*
X137632689Y-94468288D01*
X137655933Y-94289941D01*
X137693151Y-94134940D01*
X137745067Y-94002009D01*
X137812410Y-93889867D01*
X137895904Y-93797237D01*
X137996276Y-93722841D01*
X138114253Y-93665401D01*
X138250560Y-93623637D01*
X138253308Y-93623000D01*
X138328274Y-93611276D01*
X138423383Y-93604387D01*
X138530552Y-93602317D01*
X138641699Y-93605050D01*
G37*
G36*
X138818134Y-94435683D02*
G01*
X138988949Y-94436010D01*
X139031882Y-94436122D01*
X139174994Y-94436739D01*
X139309139Y-94437687D01*
X139431454Y-94438921D01*
X139539079Y-94440398D01*
X139629153Y-94442074D01*
X139698815Y-94443905D01*
X139745204Y-94445848D01*
X139765458Y-94447860D01*
X139785045Y-94457129D01*
X139805299Y-94475830D01*
X139825524Y-94506961D01*
X139847765Y-94554371D01*
X139874065Y-94621911D01*
X139906469Y-94713428D01*
X139911511Y-94727992D01*
X139942745Y-94816580D01*
X139979422Y-94918532D01*
X140017381Y-95022361D01*
X140052462Y-95116579D01*
X140069195Y-95161028D01*
X140107158Y-95262108D01*
X140149120Y-95374080D01*
X140191059Y-95486208D01*
X140228954Y-95587755D01*
X140258066Y-95665711D01*
X140286618Y-95741803D01*
X140310798Y-95805868D01*
X140328699Y-95852854D01*
X140338414Y-95877710D01*
X140348625Y-95902863D01*
X140375206Y-95971770D01*
X140398129Y-96035894D01*
X140415568Y-96089721D01*
X140425698Y-96127734D01*
X140426692Y-96144418D01*
X140415754Y-96149974D01*
X140387021Y-96152540D01*
X140339434Y-96149162D01*
X140269875Y-96139583D01*
X140175227Y-96123543D01*
X140117951Y-96113133D01*
X140031981Y-96096457D01*
X139970219Y-96082601D01*
X139929731Y-96070782D01*
X139907589Y-96060215D01*
X139900859Y-96050115D01*
X139900482Y-96047280D01*
X139892695Y-96021947D01*
X139876904Y-95979374D01*
X139855839Y-95927027D01*
X139836036Y-95882728D01*
X139803573Y-95829171D01*
X139766209Y-95796659D01*
X139717623Y-95780524D01*
X139651493Y-95776099D01*
X139629738Y-95775783D01*
X139562930Y-95772624D01*
X139501651Y-95767199D01*
X139463950Y-95762101D01*
X139440005Y-95754427D01*
X139432296Y-95739785D01*
X139433985Y-95712665D01*
X139431710Y-95673272D01*
X139407653Y-95638203D01*
X139405427Y-95636237D01*
X139392175Y-95627023D01*
X139374034Y-95619974D01*
X139346986Y-95614663D01*
X139307014Y-95610662D01*
X139250101Y-95607545D01*
X139172230Y-95604884D01*
X139069384Y-95602253D01*
X138762788Y-95595004D01*
X138743181Y-95533039D01*
X138736381Y-95511328D01*
X138730257Y-95486238D01*
X138730669Y-95466789D01*
X138740425Y-95452259D01*
X138762330Y-95441929D01*
X138799194Y-95435078D01*
X138853823Y-95430987D01*
X138929025Y-95428935D01*
X139027607Y-95428201D01*
X139152377Y-95428067D01*
X139249440Y-95427848D01*
X139358596Y-95426823D01*
X139443927Y-95424577D01*
X139508412Y-95420690D01*
X139555030Y-95414744D01*
X139586758Y-95406321D01*
X139606577Y-95395002D01*
X139617465Y-95380368D01*
X139622400Y-95362000D01*
X139621981Y-95350177D01*
X139613271Y-95310586D01*
X139596018Y-95253100D01*
X139572362Y-95183327D01*
X139544442Y-95106872D01*
X139514398Y-95029342D01*
X139484369Y-94956344D01*
X139456497Y-94893483D01*
X139432919Y-94846368D01*
X139415777Y-94820604D01*
X139378327Y-94783132D01*
X138854841Y-94775883D01*
X138331355Y-94768634D01*
X138307859Y-94733650D01*
X138292782Y-94706969D01*
X138271289Y-94662240D01*
X138248241Y-94609789D01*
X138227200Y-94558066D01*
X138211728Y-94515516D01*
X138205385Y-94490589D01*
X138205227Y-94484365D01*
X138206547Y-94473087D01*
X138211953Y-94463652D01*
X138223711Y-94455903D01*
X138244083Y-94449683D01*
X138275336Y-94444833D01*
X138319732Y-94441196D01*
X138379538Y-94438614D01*
X138457016Y-94436930D01*
X138554432Y-94435985D01*
X138674050Y-94435622D01*
X138818134Y-94435683D01*
G37*
G36*
X141346887Y-94979257D02*
G01*
X141426159Y-95007139D01*
X141503041Y-95038264D01*
X141682779Y-95125589D01*
X141836897Y-95223921D01*
X141966646Y-95334265D01*
X142073278Y-95457624D01*
X142158043Y-95595004D01*
X142167432Y-95613499D01*
X142221117Y-95730983D01*
X142256294Y-95835638D01*
X142274336Y-95934529D01*
X142276614Y-96034724D01*
X142264501Y-96143287D01*
X142257393Y-96178514D01*
X142216670Y-96291500D01*
X142152580Y-96397067D01*
X142069394Y-96490945D01*
X141971380Y-96568866D01*
X141862809Y-96626561D01*
X141747951Y-96659760D01*
X141703652Y-96664962D01*
X141628475Y-96669538D01*
X141535139Y-96672291D01*
X141429535Y-96673267D01*
X141317559Y-96672514D01*
X141205103Y-96670079D01*
X141098060Y-96666010D01*
X141002323Y-96660353D01*
X140923786Y-96653156D01*
X140757487Y-96629670D01*
X140535674Y-96588235D01*
X140300041Y-96534417D01*
X140056548Y-96469818D01*
X139811159Y-96396038D01*
X139569834Y-96314680D01*
X139338536Y-96227344D01*
X139305764Y-96214654D01*
X139269045Y-96201685D01*
X139249983Y-96196659D01*
X139243047Y-96203593D01*
X139225645Y-96232045D01*
X139201756Y-96277402D01*
X139174406Y-96334156D01*
X139164514Y-96355162D01*
X139131621Y-96418791D01*
X139105691Y-96458261D01*
X139087785Y-96471884D01*
X139077977Y-96466539D01*
X139049504Y-96442908D01*
X139006429Y-96403040D01*
X138951752Y-96349811D01*
X138888474Y-96286100D01*
X138819596Y-96214781D01*
X138786893Y-96180465D01*
X138709126Y-96098852D01*
X138632247Y-96018161D01*
X138561035Y-95943408D01*
X138500270Y-95879609D01*
X138454730Y-95831783D01*
X138408384Y-95782130D01*
X138370353Y-95739538D01*
X138344692Y-95708670D01*
X138335328Y-95694055D01*
X138335417Y-95690566D01*
X138337024Y-95677500D01*
X138342686Y-95667068D01*
X138355171Y-95659051D01*
X138377252Y-95653232D01*
X138411697Y-95649392D01*
X138461278Y-95647314D01*
X138528764Y-95646779D01*
X138616928Y-95647569D01*
X138728537Y-95649466D01*
X138866365Y-95652252D01*
X138966600Y-95654556D01*
X139077493Y-95657652D01*
X139176348Y-95661005D01*
X139259774Y-95664470D01*
X139324382Y-95667905D01*
X139366779Y-95671166D01*
X139383575Y-95674109D01*
X139385119Y-95685324D01*
X139380410Y-95719825D01*
X139369141Y-95770960D01*
X139352542Y-95832451D01*
X139339249Y-95879964D01*
X139326120Y-95932672D01*
X139318902Y-95969626D01*
X139318913Y-95984849D01*
X139342943Y-95994498D01*
X139390419Y-96009664D01*
X139455812Y-96028723D01*
X139533907Y-96050241D01*
X139619489Y-96072780D01*
X139707342Y-96094906D01*
X139792251Y-96115181D01*
X139916006Y-96143222D01*
X140111358Y-96184595D01*
X140288171Y-96217638D01*
X140452059Y-96243078D01*
X140608635Y-96261642D01*
X140763514Y-96274057D01*
X140922309Y-96281050D01*
X141090634Y-96283348D01*
X141157249Y-96283110D01*
X141285601Y-96280052D01*
X141390221Y-96272833D01*
X141474631Y-96260630D01*
X141542354Y-96242620D01*
X141596913Y-96217981D01*
X141641829Y-96185889D01*
X141680626Y-96145522D01*
X141715523Y-96093301D01*
X141747350Y-96005324D01*
X141755525Y-95908758D01*
X141740746Y-95807439D01*
X141703709Y-95705204D01*
X141645113Y-95605888D01*
X141565655Y-95513328D01*
X141524783Y-95466365D01*
X141470799Y-95387482D01*
X141414667Y-95288613D01*
X141382718Y-95228805D01*
X141346329Y-95163258D01*
X141314160Y-95107866D01*
X141290672Y-95070474D01*
X141261595Y-95022909D01*
X141249985Y-94987860D01*
X141259718Y-94969188D01*
X141291712Y-94966464D01*
X141346887Y-94979257D01*
G37*
D12*
%TO.C,J1*%
X142938000Y-112226400D02*
X142938000Y-109566400D01*
X153158000Y-109566400D02*
X142938000Y-109566400D01*
X153158000Y-112226400D02*
X142938000Y-112226400D01*
X153158000Y-112226400D02*
X153158000Y-109566400D01*
X154428000Y-112226400D02*
X155758000Y-112226400D01*
X155758000Y-112226400D02*
X155758000Y-110896400D01*
D11*
%TO.C,kibuzzard-65C8E163*%
G36*
X134741983Y-102743911D02*
G01*
X134769384Y-102759104D01*
X134789732Y-102782164D01*
X134801669Y-102807395D01*
X134809265Y-102841308D01*
X134630206Y-102841308D01*
X134629664Y-102825572D01*
X134639702Y-102777281D01*
X134668460Y-102747980D01*
X134710512Y-102738756D01*
X134741983Y-102743911D01*
G37*
G36*
X136105817Y-104136151D02*
G01*
X136133019Y-104151233D01*
X136153218Y-104174126D01*
X136165069Y-104199174D01*
X136172610Y-104232840D01*
X135994853Y-104232840D01*
X135994315Y-104217219D01*
X136004280Y-104169278D01*
X136032829Y-104140191D01*
X136074574Y-104131034D01*
X136105817Y-104136151D01*
G37*
G36*
X138647202Y-104136151D02*
G01*
X138674404Y-104151233D01*
X138694604Y-104174126D01*
X138706454Y-104199174D01*
X138713995Y-104232840D01*
X138536238Y-104232840D01*
X138535700Y-104217219D01*
X138545665Y-104169278D01*
X138574214Y-104140191D01*
X138615960Y-104131034D01*
X138647202Y-104136151D01*
G37*
G36*
X139356275Y-102743911D02*
G01*
X139383676Y-102759104D01*
X139404024Y-102782164D01*
X139415961Y-102807395D01*
X139423557Y-102841308D01*
X139244498Y-102841308D01*
X139243956Y-102825572D01*
X139253994Y-102777281D01*
X139282752Y-102747980D01*
X139324804Y-102738756D01*
X139356275Y-102743911D01*
G37*
G36*
X148273008Y-104136151D02*
G01*
X148300210Y-104151233D01*
X148320409Y-104174126D01*
X148332260Y-104199174D01*
X148339801Y-104232840D01*
X148162044Y-104232840D01*
X148161506Y-104217219D01*
X148171471Y-104169278D01*
X148200020Y-104140191D01*
X148241765Y-104131034D01*
X148273008Y-104136151D01*
G37*
G36*
X135473682Y-102791117D02*
G01*
X135528756Y-102847005D01*
X135548290Y-102924326D01*
X135537981Y-102978586D01*
X135503797Y-103017925D01*
X135453335Y-103032304D01*
X135383881Y-103004089D01*
X135342101Y-102927039D01*
X135333148Y-102865589D01*
X135329079Y-102778909D01*
X135389307Y-102772397D01*
X135473682Y-102791117D01*
G37*
G36*
X134339559Y-104182206D02*
G01*
X134380228Y-104234187D01*
X134393964Y-104308791D01*
X134386557Y-104361108D01*
X134364338Y-104399554D01*
X134290003Y-104431066D01*
X134229135Y-104413021D01*
X134188466Y-104359694D01*
X134174730Y-104284012D01*
X134185503Y-104223683D01*
X134220785Y-104180590D01*
X134278152Y-104164431D01*
X134339559Y-104182206D01*
G37*
G36*
X141099657Y-102790303D02*
G01*
X141140623Y-102842664D01*
X141154459Y-102917815D01*
X141146999Y-102970515D01*
X141124616Y-103009243D01*
X141049737Y-103040986D01*
X140988423Y-103022808D01*
X140947457Y-102969091D01*
X140933620Y-102892855D01*
X140944472Y-102832084D01*
X140980013Y-102788675D01*
X141037800Y-102772397D01*
X141099657Y-102790303D01*
G37*
G36*
X141324867Y-104182206D02*
G01*
X141365536Y-104234187D01*
X141379272Y-104308791D01*
X141371865Y-104361108D01*
X141349645Y-104399554D01*
X141275311Y-104431066D01*
X141214442Y-104413021D01*
X141173774Y-104359694D01*
X141160038Y-104284012D01*
X141170811Y-104223683D01*
X141206093Y-104180590D01*
X141263460Y-104164431D01*
X141324867Y-104182206D01*
G37*
G36*
X143913654Y-104182206D02*
G01*
X143954323Y-104234187D01*
X143968058Y-104308791D01*
X143960652Y-104361108D01*
X143938432Y-104399554D01*
X143864098Y-104431066D01*
X143803229Y-104413021D01*
X143762561Y-104359694D01*
X143748825Y-104284012D01*
X143759598Y-104223683D01*
X143794880Y-104180590D01*
X143852247Y-104164431D01*
X143913654Y-104182206D01*
G37*
G36*
X144322716Y-102790303D02*
G01*
X144363682Y-102842664D01*
X144377518Y-102917815D01*
X144370058Y-102970515D01*
X144347675Y-103009243D01*
X144272796Y-103040986D01*
X144211482Y-103022808D01*
X144170516Y-102969091D01*
X144156679Y-102892855D01*
X144167531Y-102832084D01*
X144203072Y-102788675D01*
X144260859Y-102772397D01*
X144322716Y-102790303D01*
G37*
G36*
X141852789Y-102779451D02*
G01*
X141858758Y-102819332D01*
X141862013Y-102861113D01*
X141863641Y-102903164D01*
X141849805Y-102977772D01*
X141811280Y-103024436D01*
X141758376Y-103040986D01*
X141703573Y-103023894D01*
X141663963Y-102972618D01*
X141649313Y-102895568D01*
X141656977Y-102843207D01*
X141679970Y-102802240D01*
X141717613Y-102775789D01*
X141769228Y-102766971D01*
X141852789Y-102779451D01*
G37*
G36*
X146955990Y-104171433D02*
G01*
X146961916Y-104211024D01*
X146965148Y-104252501D01*
X146966764Y-104294247D01*
X146953028Y-104368312D01*
X146914783Y-104414637D01*
X146862264Y-104431066D01*
X146807860Y-104414098D01*
X146768538Y-104363195D01*
X146753994Y-104286706D01*
X146761603Y-104234725D01*
X146784428Y-104194057D01*
X146821797Y-104167797D01*
X146873037Y-104159044D01*
X146955990Y-104171433D01*
G37*
G36*
X149506334Y-103629600D02*
G01*
X148556973Y-105053642D01*
X148556880Y-105053642D01*
X148226683Y-105053642D01*
X147947120Y-105053642D01*
X147204312Y-105053642D01*
X146286439Y-105053642D01*
X145801109Y-105053642D01*
X144862230Y-105053642D01*
X144516412Y-105053642D01*
X143862482Y-105053642D01*
X143458489Y-105053642D01*
X142343468Y-105053642D01*
X142102929Y-105053642D01*
X141993341Y-105053642D01*
X141273695Y-105053642D01*
X140864854Y-105053642D01*
X139963141Y-105053642D01*
X138969942Y-105053642D01*
X138600877Y-105053642D01*
X138085921Y-105053642D01*
X137655216Y-105053642D01*
X137364120Y-105053642D01*
X137128727Y-105053642D01*
X136059492Y-105053642D01*
X135722293Y-105053642D01*
X134963324Y-105053642D01*
X134288387Y-105053642D01*
X133708792Y-105053642D01*
X133025236Y-105053642D01*
X132919120Y-105053642D01*
X132919027Y-105053642D01*
X132397681Y-104271623D01*
X132919120Y-104271623D01*
X132922083Y-104362058D01*
X132930970Y-104452373D01*
X132945784Y-104542568D01*
X132960748Y-104610742D01*
X132978978Y-104680060D01*
X133000474Y-104750523D01*
X133025236Y-104822131D01*
X133113575Y-104821054D01*
X133196529Y-104822131D01*
X133175521Y-104753587D01*
X133162054Y-104705242D01*
X133148588Y-104648145D01*
X133137276Y-104588892D01*
X133124416Y-104499408D01*
X133114922Y-104408712D01*
X133109064Y-104320170D01*
X133107111Y-104237149D01*
X133107987Y-104182476D01*
X133110613Y-104126186D01*
X133114720Y-104070031D01*
X133120039Y-104015761D01*
X133126234Y-103964050D01*
X133132967Y-103915571D01*
X133145356Y-103834772D01*
X133211072Y-103834772D01*
X133214304Y-103887022D01*
X133217267Y-103956509D01*
X133218075Y-103997985D01*
X133290434Y-103994993D01*
X133353816Y-103993197D01*
X133408221Y-103992599D01*
X133445927Y-103992599D01*
X133453064Y-104084305D01*
X133458316Y-104168740D01*
X133461967Y-104245199D01*
X133465019Y-104320162D01*
X133467473Y-104393629D01*
X133469897Y-104492271D01*
X133470705Y-104570039D01*
X133543424Y-104569231D01*
X133584900Y-104568962D01*
X133627454Y-104569231D01*
X133708792Y-104570039D01*
X133701536Y-104494166D01*
X133695160Y-104416137D01*
X133689664Y-104335954D01*
X133686872Y-104286167D01*
X133958729Y-104286167D01*
X133963240Y-104342389D01*
X133976774Y-104395784D01*
X134001081Y-104446148D01*
X134037911Y-104493281D01*
X134086862Y-104533074D01*
X134147528Y-104561421D01*
X134216005Y-104578389D01*
X134288387Y-104584045D01*
X134355450Y-104579062D01*
X134419819Y-104564114D01*
X134477658Y-104539605D01*
X134525127Y-104505939D01*
X134562159Y-104463924D01*
X134588688Y-104414368D01*
X134604646Y-104359694D01*
X134609965Y-104302327D01*
X134604781Y-104244960D01*
X134589227Y-104190286D01*
X134562429Y-104139652D01*
X134523511Y-104094405D01*
X134473214Y-104056766D01*
X134412278Y-104028958D01*
X134355650Y-104014576D01*
X134344677Y-104011789D01*
X134274382Y-104006065D01*
X134208868Y-104011183D01*
X134145912Y-104026534D01*
X134089016Y-104051515D01*
X134041682Y-104085517D01*
X134004716Y-104127263D01*
X133978928Y-104175473D01*
X133963779Y-104228867D01*
X133958729Y-104286167D01*
X133686872Y-104286167D01*
X133685047Y-104253617D01*
X133681309Y-104169125D01*
X133678451Y-104082478D01*
X133676472Y-103993676D01*
X133905940Y-103999601D01*
X133903247Y-103939810D01*
X133901362Y-103889581D01*
X133900015Y-103834772D01*
X134690764Y-103834772D01*
X134696809Y-103914134D01*
X134702016Y-103990624D01*
X134706385Y-104064240D01*
X134709886Y-104138423D01*
X134712849Y-104210149D01*
X134715273Y-104279417D01*
X134717158Y-104346227D01*
X134718954Y-104429390D01*
X134720031Y-104503994D01*
X134720390Y-104570039D01*
X134830815Y-104568962D01*
X134880102Y-104569231D01*
X134963324Y-104570039D01*
X134956002Y-104465018D01*
X134949656Y-104366225D01*
X134944286Y-104273660D01*
X134940099Y-104191363D01*
X135306449Y-104191363D01*
X135361931Y-104182745D01*
X135417682Y-104192171D01*
X135459159Y-104220720D01*
X135487977Y-104268391D01*
X135497134Y-104305289D01*
X135503059Y-104358886D01*
X135506291Y-104425275D01*
X135507368Y-104500553D01*
X135505214Y-104570039D01*
X135557598Y-104569231D01*
X135610252Y-104568962D01*
X135664387Y-104569231D01*
X135722293Y-104570039D01*
X135705594Y-104330876D01*
X135702278Y-104246306D01*
X135792318Y-104246306D01*
X135799321Y-104314716D01*
X136176919Y-104315255D01*
X136177458Y-104330876D01*
X136167089Y-104381375D01*
X136135981Y-104416522D01*
X136089926Y-104437126D01*
X136034714Y-104443994D01*
X135953646Y-104435644D01*
X135902810Y-104424400D01*
X135841336Y-104407365D01*
X135851570Y-104462577D01*
X135868269Y-104563576D01*
X135925770Y-104573877D01*
X135973307Y-104580005D01*
X136059492Y-104584045D01*
X136121034Y-104581823D01*
X136177458Y-104575157D01*
X136227620Y-104562835D01*
X136270376Y-104543645D01*
X136335823Y-104487356D01*
X136375953Y-104407365D01*
X136386255Y-104360367D01*
X136389689Y-104312023D01*
X136382821Y-104243815D01*
X136362217Y-104177089D01*
X136362073Y-104176820D01*
X136474258Y-104176820D01*
X136475066Y-104215334D01*
X136478567Y-104275933D01*
X136490418Y-104457460D01*
X136492842Y-104513750D01*
X136493111Y-104570039D01*
X136547920Y-104569231D01*
X136600304Y-104568962D01*
X136658344Y-104569231D01*
X136717193Y-104570039D01*
X136708574Y-104492944D01*
X136701033Y-104404941D01*
X136695781Y-104323402D01*
X136694030Y-104265698D01*
X136715307Y-104194595D01*
X136771597Y-104174126D01*
X136827079Y-104187054D01*
X136864785Y-104222067D01*
X136887947Y-104279703D01*
X136897508Y-104336397D01*
X136904645Y-104414906D01*
X136907877Y-104478468D01*
X136911109Y-104570039D01*
X136963763Y-104569231D01*
X137012915Y-104568962D01*
X137065839Y-104569231D01*
X137128727Y-104570039D01*
X137121320Y-104496917D01*
X137116338Y-104438068D01*
X137111250Y-104361998D01*
X137106043Y-104278147D01*
X137100717Y-104186515D01*
X137096475Y-104093597D01*
X137094251Y-104028150D01*
X137192288Y-104028150D01*
X137195520Y-104121203D01*
X137196598Y-104176281D01*
X137320489Y-104176281D01*
X137326953Y-104310945D01*
X137328030Y-104349729D01*
X137322374Y-104392821D01*
X137302444Y-104417599D01*
X137270932Y-104425141D01*
X137243999Y-104423255D01*
X137194443Y-104411674D01*
X137211141Y-104500014D01*
X137222992Y-104565730D01*
X137306214Y-104580813D01*
X137364120Y-104584045D01*
X137445457Y-104576234D01*
X137504710Y-104547685D01*
X137537029Y-104500014D01*
X137545648Y-104442916D01*
X137545109Y-104423794D01*
X137541338Y-104362656D01*
X137529488Y-104176281D01*
X137613518Y-104176281D01*
X137612399Y-104157428D01*
X137695933Y-104157428D01*
X137697953Y-104206446D01*
X137704013Y-104293170D01*
X137708980Y-104370856D01*
X137713110Y-104463146D01*
X137716402Y-104570039D01*
X137769056Y-104569231D01*
X137821440Y-104568962D01*
X137873690Y-104569231D01*
X137929172Y-104570039D01*
X137923965Y-104516533D01*
X137918398Y-104435016D01*
X137912473Y-104325489D01*
X137944523Y-104339494D01*
X137985192Y-104352422D01*
X138030708Y-104366966D01*
X138059257Y-104382048D01*
X138076494Y-104400901D01*
X138081612Y-104422447D01*
X138067068Y-104453690D01*
X138020743Y-104466617D01*
X137996504Y-104464732D01*
X137960952Y-104455305D01*
X137978055Y-104506343D01*
X137998120Y-104576503D01*
X138085921Y-104584045D01*
X138147126Y-104579399D01*
X138197154Y-104565461D01*
X138236476Y-104541154D01*
X138265563Y-104505401D01*
X138289533Y-104422447D01*
X138280645Y-104372891D01*
X138252905Y-104325489D01*
X138208735Y-104285898D01*
X138139517Y-104254925D01*
X138109187Y-104246306D01*
X138333703Y-104246306D01*
X138340706Y-104314716D01*
X138718304Y-104315255D01*
X138718843Y-104330876D01*
X138708474Y-104381375D01*
X138677367Y-104416522D01*
X138631311Y-104437126D01*
X138576099Y-104443994D01*
X138495031Y-104435644D01*
X138444195Y-104424400D01*
X138382721Y-104407365D01*
X138392955Y-104462577D01*
X138409654Y-104563576D01*
X138467156Y-104573877D01*
X138514692Y-104580005D01*
X138600877Y-104584045D01*
X138662419Y-104581823D01*
X138718843Y-104575157D01*
X138769006Y-104562835D01*
X138811762Y-104543645D01*
X138877208Y-104487356D01*
X138917338Y-104407365D01*
X138927640Y-104360367D01*
X138931074Y-104312023D01*
X138924206Y-104243815D01*
X138903603Y-104177089D01*
X138872158Y-104118308D01*
X138832769Y-104073936D01*
X138786108Y-104042155D01*
X138732848Y-104021148D01*
X138675616Y-104009432D01*
X138617037Y-104005527D01*
X138557044Y-104009095D01*
X138499879Y-104019801D01*
X138448370Y-104039395D01*
X138405345Y-104069627D01*
X138372150Y-104107468D01*
X138350132Y-104149887D01*
X138337810Y-104196346D01*
X138333703Y-104246306D01*
X138109187Y-104246306D01*
X138089759Y-104240785D01*
X138028284Y-104227453D01*
X137976843Y-104215872D01*
X137943446Y-104205099D01*
X137927286Y-104194326D01*
X137918398Y-104181398D01*
X137915705Y-104167124D01*
X137932942Y-104135612D01*
X137983576Y-104124570D01*
X138050190Y-104130375D01*
X138126500Y-104147792D01*
X138212505Y-104176820D01*
X138199577Y-104103293D01*
X138190959Y-104040001D01*
X138092385Y-104021148D01*
X138003506Y-104009836D01*
X137945508Y-104007074D01*
X137924324Y-104006065D01*
X137863455Y-104009634D01*
X137807974Y-104020340D01*
X137760976Y-104038991D01*
X137725559Y-104066395D01*
X137703339Y-104105044D01*
X137695933Y-104157428D01*
X137612399Y-104157428D01*
X137610960Y-104133188D01*
X137608670Y-104078245D01*
X137607054Y-104028150D01*
X137517637Y-104028150D01*
X137514001Y-103988694D01*
X137509558Y-103919880D01*
X137417447Y-103901027D01*
X137377856Y-103892409D01*
X137309716Y-103876249D01*
X137312948Y-103949506D01*
X137315102Y-104028150D01*
X137192288Y-104028150D01*
X137094251Y-104028150D01*
X137093445Y-104004449D01*
X137091627Y-103918399D01*
X137091021Y-103834772D01*
X138973628Y-103834772D01*
X139182627Y-104460692D01*
X139216024Y-104570039D01*
X139291705Y-104569231D01*
X139357152Y-104568962D01*
X139424080Y-104569231D01*
X139497742Y-104570039D01*
X139510131Y-104496243D01*
X139557533Y-104239304D01*
X139564266Y-104191633D01*
X139572615Y-104115413D01*
X139591468Y-104198905D01*
X139606012Y-104255464D01*
X139692736Y-104570039D01*
X139767205Y-104569231D01*
X139827938Y-104568962D01*
X139890288Y-104569231D01*
X139963141Y-104570039D01*
X139981456Y-104470927D01*
X139989670Y-104428911D01*
X140001386Y-104372891D01*
X140040996Y-104191363D01*
X140449010Y-104191363D01*
X140504492Y-104182745D01*
X140560243Y-104192171D01*
X140601720Y-104220720D01*
X140630538Y-104268391D01*
X140639695Y-104305289D01*
X140645620Y-104358886D01*
X140648852Y-104425275D01*
X140649930Y-104500553D01*
X140647775Y-104570039D01*
X140700159Y-104569231D01*
X140752813Y-104568962D01*
X140806948Y-104569231D01*
X140864854Y-104570039D01*
X140848155Y-104330876D01*
X140846402Y-104286167D01*
X140944036Y-104286167D01*
X140948548Y-104342389D01*
X140962081Y-104395784D01*
X140986388Y-104446148D01*
X141023219Y-104493281D01*
X141072170Y-104533074D01*
X141132836Y-104561421D01*
X141201313Y-104578389D01*
X141273695Y-104584045D01*
X141340758Y-104579062D01*
X141405127Y-104564114D01*
X141462965Y-104539605D01*
X141510435Y-104505939D01*
X141547467Y-104463924D01*
X141573996Y-104414368D01*
X141589954Y-104359694D01*
X141595273Y-104302327D01*
X141590089Y-104244960D01*
X141574535Y-104190286D01*
X141547737Y-104139652D01*
X141508819Y-104094405D01*
X141458521Y-104056766D01*
X141397586Y-104028958D01*
X141329984Y-104011789D01*
X141259690Y-104006065D01*
X141194175Y-104011183D01*
X141131220Y-104026534D01*
X141074324Y-104051515D01*
X141048109Y-104070346D01*
X141026990Y-104085517D01*
X140990024Y-104127263D01*
X140964236Y-104175473D01*
X140949086Y-104228867D01*
X140944036Y-104286167D01*
X140846402Y-104286167D01*
X140842769Y-104193518D01*
X140842230Y-104117567D01*
X140842500Y-104073532D01*
X140843308Y-104020070D01*
X140784863Y-104020878D01*
X140739885Y-104021148D01*
X140691810Y-104020878D01*
X140637002Y-104020070D01*
X140639156Y-104080939D01*
X140604682Y-104045657D01*
X140573979Y-104024649D01*
X140537889Y-104010644D01*
X140498567Y-104006065D01*
X140490314Y-104007097D01*
X140455474Y-104011452D01*
X140454532Y-104065048D01*
X140452781Y-104108410D01*
X140449010Y-104191363D01*
X140040996Y-104191363D01*
X140089187Y-103970514D01*
X140090448Y-103965127D01*
X141603892Y-103965127D01*
X141654525Y-103950584D01*
X141699773Y-103945736D01*
X141745289Y-103959202D01*
X141761718Y-104008759D01*
X141761180Y-104024918D01*
X141637288Y-104024918D01*
X141641598Y-104093328D01*
X141645907Y-104174665D01*
X141757948Y-104174665D01*
X141775723Y-104570039D01*
X141835245Y-104569231D01*
X141885609Y-104568962D01*
X141935704Y-104569231D01*
X141993341Y-104570039D01*
X141989075Y-104521129D01*
X141984464Y-104457137D01*
X141979508Y-104378062D01*
X141974208Y-104283905D01*
X141968563Y-104174665D01*
X142034279Y-104174665D01*
X142029700Y-104103562D01*
X142026199Y-104024918D01*
X141949710Y-104024918D01*
X141950248Y-103987751D01*
X141945131Y-103910184D01*
X141926278Y-103862513D01*
X141895550Y-103834772D01*
X142119387Y-103834772D01*
X142142549Y-103920957D01*
X142163826Y-104009028D01*
X142174801Y-104060470D01*
X142184564Y-104111911D01*
X142193115Y-104164229D01*
X142200455Y-104218296D01*
X142206312Y-104273509D01*
X142210420Y-104329260D01*
X142212844Y-104385280D01*
X142213652Y-104441300D01*
X142213046Y-104499610D01*
X142211228Y-104552802D01*
X142208063Y-104602494D01*
X142203417Y-104650299D01*
X142192105Y-104728405D01*
X142184160Y-104767457D01*
X142172175Y-104822131D01*
X142254590Y-104821054D01*
X142343468Y-104822131D01*
X142359987Y-104757522D01*
X142374351Y-104691537D01*
X142386561Y-104624175D01*
X142395838Y-104555915D01*
X142401404Y-104487236D01*
X142403259Y-104418138D01*
X142400266Y-104327584D01*
X142391289Y-104236192D01*
X142382181Y-104180052D01*
X142803481Y-104180052D01*
X142807791Y-104268391D01*
X142816948Y-104463385D01*
X142818968Y-104518867D01*
X142819641Y-104570039D01*
X142872295Y-104569231D01*
X142921447Y-104568962D01*
X142982720Y-104569231D01*
X143038336Y-104570039D01*
X143033353Y-104509104D01*
X143028101Y-104424333D01*
X143024062Y-104341985D01*
X143022715Y-104288322D01*
X143028573Y-104236678D01*
X143046147Y-104203483D01*
X143105129Y-104179513D01*
X143164112Y-104199982D01*
X143206936Y-104259504D01*
X143219796Y-104311147D01*
X143228213Y-104387973D01*
X143233397Y-104478198D01*
X143236562Y-104570039D01*
X143289754Y-104569231D01*
X143341600Y-104568962D01*
X143397755Y-104569231D01*
X143458489Y-104570039D01*
X143448883Y-104485680D01*
X143440893Y-104395634D01*
X143434518Y-104299903D01*
X143433811Y-104286167D01*
X143532823Y-104286167D01*
X143537335Y-104342389D01*
X143550868Y-104395784D01*
X143575175Y-104446148D01*
X143612006Y-104493281D01*
X143660956Y-104533074D01*
X143721623Y-104561421D01*
X143790100Y-104578389D01*
X143862482Y-104584045D01*
X143929544Y-104579062D01*
X143993914Y-104564114D01*
X144051752Y-104539605D01*
X144099222Y-104505939D01*
X144136254Y-104463924D01*
X144162783Y-104414368D01*
X144178741Y-104359694D01*
X144184060Y-104302327D01*
X144178875Y-104244960D01*
X144163322Y-104190286D01*
X144136524Y-104139652D01*
X144097606Y-104094405D01*
X144047308Y-104056766D01*
X143986373Y-104028958D01*
X143951377Y-104020070D01*
X144265397Y-104020070D01*
X144273275Y-104115682D01*
X144278594Y-104198905D01*
X144281894Y-104278222D01*
X144283712Y-104362118D01*
X144284909Y-104453211D01*
X144285627Y-104522518D01*
X144285866Y-104570039D01*
X144345523Y-104569231D01*
X144396291Y-104568962D01*
X144449214Y-104569231D01*
X144516412Y-104570039D01*
X144509813Y-104510114D01*
X144505100Y-104461769D01*
X144501397Y-104413290D01*
X144497828Y-104352961D01*
X144494529Y-104283204D01*
X144491633Y-104206446D01*
X144490753Y-104176820D01*
X144604213Y-104176820D01*
X144668178Y-104157428D01*
X144729720Y-104150964D01*
X144791396Y-104159583D01*
X144810518Y-104185977D01*
X144808364Y-104197289D01*
X144800553Y-104208600D01*
X144786548Y-104220720D01*
X144745880Y-104249538D01*
X144695246Y-104286706D01*
X144649191Y-104330606D01*
X144624951Y-104373699D01*
X144616602Y-104421909D01*
X144635186Y-104492204D01*
X144691206Y-104545800D01*
X144772274Y-104575695D01*
X144862230Y-104584045D01*
X144940604Y-104578658D01*
X144991575Y-104571251D01*
X145050221Y-104559805D01*
X145054530Y-104509979D01*
X145061533Y-104438068D01*
X145065842Y-104399285D01*
X145017228Y-104417128D01*
X144975886Y-104429719D01*
X144906399Y-104439684D01*
X144863576Y-104434837D01*
X144839606Y-104420831D01*
X144832065Y-104401978D01*
X144837721Y-104385011D01*
X144863307Y-104362118D01*
X144904851Y-104331280D01*
X144941143Y-104303404D01*
X144991777Y-104256541D01*
X145017632Y-104212371D01*
X145023492Y-104180052D01*
X145146102Y-104180052D01*
X145150411Y-104268391D01*
X145159568Y-104463385D01*
X145161588Y-104518867D01*
X145162262Y-104570039D01*
X145214915Y-104569231D01*
X145264068Y-104568962D01*
X145325340Y-104569231D01*
X145380957Y-104570039D01*
X145375974Y-104509104D01*
X145370722Y-104424333D01*
X145366682Y-104341985D01*
X145365335Y-104288322D01*
X145371193Y-104236678D01*
X145388767Y-104203483D01*
X145447750Y-104179513D01*
X145506733Y-104199982D01*
X145549556Y-104259504D01*
X145562417Y-104311147D01*
X145570833Y-104387973D01*
X145576018Y-104478198D01*
X145579182Y-104570039D01*
X145632375Y-104569231D01*
X145684221Y-104568962D01*
X145740376Y-104569231D01*
X145801109Y-104570039D01*
X145791503Y-104485680D01*
X145783513Y-104395634D01*
X145777139Y-104299903D01*
X145773385Y-104226965D01*
X145770531Y-104157428D01*
X145896452Y-104157428D01*
X145898472Y-104206446D01*
X145904531Y-104293170D01*
X145909499Y-104370856D01*
X145913629Y-104463146D01*
X145916921Y-104570039D01*
X145969574Y-104569231D01*
X146021959Y-104568962D01*
X146074208Y-104569231D01*
X146129690Y-104570039D01*
X146124483Y-104516533D01*
X146118917Y-104435016D01*
X146112992Y-104325489D01*
X146145042Y-104339494D01*
X146185711Y-104352422D01*
X146231227Y-104366966D01*
X146259776Y-104382048D01*
X146277013Y-104400901D01*
X146282130Y-104422447D01*
X146267586Y-104453690D01*
X146221262Y-104466617D01*
X146197022Y-104464732D01*
X146161471Y-104455305D01*
X146178573Y-104506343D01*
X146198638Y-104576503D01*
X146286439Y-104584045D01*
X146347644Y-104579399D01*
X146397672Y-104565461D01*
X146436994Y-104541154D01*
X146466082Y-104505401D01*
X146490052Y-104422447D01*
X146481164Y-104372891D01*
X146453423Y-104325489D01*
X146419769Y-104295324D01*
X146543379Y-104295324D01*
X146547419Y-104351008D01*
X146559539Y-104404941D01*
X146580008Y-104455373D01*
X146609095Y-104500553D01*
X146644983Y-104537585D01*
X146685854Y-104563576D01*
X146731707Y-104578927D01*
X146782543Y-104584045D01*
X146837217Y-104578927D01*
X146890813Y-104564114D01*
X146933098Y-104544453D01*
X146975382Y-104515635D01*
X146981307Y-104665920D01*
X146984135Y-104756684D01*
X146985078Y-104822131D01*
X147043118Y-104821323D01*
X147092271Y-104821054D01*
X147139673Y-104821323D01*
X147204312Y-104822131D01*
X147197848Y-104748574D01*
X147192102Y-104675138D01*
X147187074Y-104601820D01*
X147181368Y-104511612D01*
X147176638Y-104428979D01*
X147172884Y-104353920D01*
X147170107Y-104286436D01*
X147167563Y-104201777D01*
X147166037Y-104117657D01*
X147165528Y-104034075D01*
X147068031Y-104020138D01*
X147067435Y-104020070D01*
X147246865Y-104020070D01*
X147333051Y-104133188D01*
X147372777Y-104186515D01*
X147441321Y-104279703D01*
X147411425Y-104329967D01*
X147371295Y-104395111D01*
X147320931Y-104475135D01*
X147260332Y-104570039D01*
X147320796Y-104569231D01*
X147380452Y-104568962D01*
X147448862Y-104569231D01*
X147509730Y-104570039D01*
X147540636Y-104504458D01*
X147563327Y-104458537D01*
X147594838Y-104392283D01*
X147612075Y-104421909D01*
X147636853Y-104461769D01*
X147705263Y-104570039D01*
X147762630Y-104569231D01*
X147818381Y-104568962D01*
X147882346Y-104569231D01*
X147947120Y-104570039D01*
X147824306Y-104406826D01*
X147733273Y-104281858D01*
X147756243Y-104246306D01*
X147959509Y-104246306D01*
X147966512Y-104314716D01*
X148344110Y-104315255D01*
X148344649Y-104330876D01*
X148334280Y-104381375D01*
X148303172Y-104416522D01*
X148257117Y-104437126D01*
X148201905Y-104443994D01*
X148120837Y-104435644D01*
X148070001Y-104424400D01*
X148008527Y-104407365D01*
X148018761Y-104462577D01*
X148035460Y-104563576D01*
X148092961Y-104573877D01*
X148140498Y-104580005D01*
X148226683Y-104584045D01*
X148288225Y-104581823D01*
X148344649Y-104575157D01*
X148394811Y-104562835D01*
X148437567Y-104543645D01*
X148503014Y-104487356D01*
X148543144Y-104407365D01*
X148553446Y-104360367D01*
X148556880Y-104312023D01*
X148550012Y-104243815D01*
X148547419Y-104235417D01*
X148529408Y-104177089D01*
X148497964Y-104118308D01*
X148458575Y-104073936D01*
X148411914Y-104042155D01*
X148358654Y-104021148D01*
X148301422Y-104009432D01*
X148242843Y-104005527D01*
X148182850Y-104009095D01*
X148125685Y-104019801D01*
X148074176Y-104039395D01*
X148031150Y-104069627D01*
X147997956Y-104107468D01*
X147975938Y-104149887D01*
X147963616Y-104196346D01*
X147959509Y-104246306D01*
X147756243Y-104246306D01*
X147902411Y-104020070D01*
X147829289Y-104020878D01*
X147767208Y-104021148D01*
X147702435Y-104020878D01*
X147650320Y-104020070D01*
X147593222Y-104143423D01*
X147577601Y-104178436D01*
X147548274Y-104129238D01*
X147515596Y-104076450D01*
X147509420Y-104066787D01*
X147479565Y-104020070D01*
X147426912Y-104020878D01*
X147364831Y-104021148D01*
X147304367Y-104020878D01*
X147246865Y-104020070D01*
X147067435Y-104020070D01*
X146994235Y-104011721D01*
X146932290Y-104007479D01*
X146870344Y-104006065D01*
X146800239Y-104009868D01*
X146795875Y-104010105D01*
X146727600Y-104022225D01*
X146668819Y-104044579D01*
X146622831Y-104079323D01*
X146588155Y-104124166D01*
X146563309Y-104176820D01*
X146548362Y-104234725D01*
X146543379Y-104295324D01*
X146419769Y-104295324D01*
X146409253Y-104285898D01*
X146340036Y-104254925D01*
X146290277Y-104240785D01*
X146228803Y-104227453D01*
X146177361Y-104215872D01*
X146143965Y-104205099D01*
X146127805Y-104194326D01*
X146118917Y-104181398D01*
X146116224Y-104167124D01*
X146133461Y-104135612D01*
X146184095Y-104124570D01*
X146250709Y-104130375D01*
X146327018Y-104147792D01*
X146413024Y-104176820D01*
X146400096Y-104103293D01*
X146391478Y-104040001D01*
X146292903Y-104021148D01*
X146204025Y-104009836D01*
X146124842Y-104006065D01*
X146063974Y-104009634D01*
X146008492Y-104020340D01*
X145961494Y-104038991D01*
X145928277Y-104064694D01*
X145926078Y-104066395D01*
X145903858Y-104105044D01*
X145896452Y-104157428D01*
X145770531Y-104157428D01*
X145770473Y-104156014D01*
X145768403Y-104087049D01*
X145767174Y-104020070D01*
X145706979Y-104020878D01*
X145655672Y-104021148D01*
X145602345Y-104020878D01*
X145551172Y-104020070D01*
X145556559Y-104093328D01*
X145525855Y-104061816D01*
X145493805Y-104039193D01*
X145453137Y-104021148D01*
X145406004Y-104010105D01*
X145352408Y-104006065D01*
X145276726Y-104014414D01*
X145215050Y-104038115D01*
X145173573Y-104076360D01*
X145151489Y-104125647D01*
X145146102Y-104180052D01*
X145023492Y-104180052D01*
X145026520Y-104163353D01*
X145000934Y-104079861D01*
X144969288Y-104046397D01*
X144931516Y-104026698D01*
X144925522Y-104023572D01*
X144870242Y-104010442D01*
X144804055Y-104006065D01*
X144749531Y-104008220D01*
X144685789Y-104014684D01*
X144612831Y-104025457D01*
X144604213Y-104176820D01*
X144490753Y-104176820D01*
X144489958Y-104150066D01*
X144488521Y-104087941D01*
X144487324Y-104020070D01*
X144482476Y-104020133D01*
X144424301Y-104020878D01*
X144375283Y-104021148D01*
X144328690Y-104020878D01*
X144265397Y-104020070D01*
X143951377Y-104020070D01*
X143918771Y-104011789D01*
X143848477Y-104006065D01*
X143782962Y-104011183D01*
X143720007Y-104026534D01*
X143663111Y-104051515D01*
X143637409Y-104069978D01*
X143615777Y-104085517D01*
X143578811Y-104127263D01*
X143553023Y-104175473D01*
X143537873Y-104228867D01*
X143532823Y-104286167D01*
X143433811Y-104286167D01*
X143430765Y-104226965D01*
X143427853Y-104156014D01*
X143425782Y-104087049D01*
X143424553Y-104020070D01*
X143364358Y-104020878D01*
X143336264Y-104021026D01*
X143313051Y-104021148D01*
X143259724Y-104020878D01*
X143208552Y-104020070D01*
X143213938Y-104093328D01*
X143183235Y-104061816D01*
X143151185Y-104039193D01*
X143110516Y-104021148D01*
X143063384Y-104010105D01*
X143009787Y-104006065D01*
X142934106Y-104014414D01*
X142872430Y-104038115D01*
X142842496Y-104065717D01*
X142830953Y-104076360D01*
X142808868Y-104125647D01*
X142803481Y-104180052D01*
X142382181Y-104180052D01*
X142376326Y-104143962D01*
X142360873Y-104072522D01*
X142341448Y-103997177D01*
X142318050Y-103917927D01*
X142290680Y-103834772D01*
X142205572Y-103835850D01*
X142119387Y-103834772D01*
X141895550Y-103834772D01*
X141887495Y-103827500D01*
X141870602Y-103821306D01*
X144263781Y-103821306D01*
X144265936Y-103849316D01*
X144269168Y-103916110D01*
X144270245Y-103951661D01*
X144322495Y-103950853D01*
X144372590Y-103950584D01*
X144425379Y-103950853D01*
X144482476Y-103951661D01*
X144480052Y-103894294D01*
X144479244Y-103850393D01*
X144479783Y-103821306D01*
X144419857Y-103822114D01*
X144370435Y-103822383D01*
X144313338Y-103822114D01*
X144271168Y-103821426D01*
X144263781Y-103821306D01*
X141870602Y-103821306D01*
X141830936Y-103806762D01*
X141765489Y-103801376D01*
X141697887Y-103805415D01*
X141610894Y-103822922D01*
X141608336Y-103901296D01*
X141603892Y-103965127D01*
X140090448Y-103965127D01*
X140120968Y-103834772D01*
X140059561Y-103835580D01*
X140011082Y-103835850D01*
X139959910Y-103835580D01*
X139901196Y-103834772D01*
X139888133Y-103910858D01*
X139878034Y-103963511D01*
X139832786Y-104180590D01*
X139817973Y-104258292D01*
X139801544Y-104351345D01*
X139783769Y-104275933D01*
X139719668Y-104027073D01*
X139675498Y-103834772D01*
X139607358Y-103835580D01*
X139550530Y-103835850D01*
X139491682Y-103835580D01*
X139426100Y-103834772D01*
X139392165Y-104061547D01*
X139345302Y-104350267D01*
X139324294Y-104271085D01*
X139311905Y-104229608D01*
X139309611Y-104222497D01*
X139284972Y-104146116D01*
X139219256Y-103939272D01*
X139188552Y-103834772D01*
X139129031Y-103835176D01*
X139080821Y-103835311D01*
X139030052Y-103835176D01*
X138973628Y-103834772D01*
X137091021Y-103834772D01*
X137028941Y-103835580D01*
X136979519Y-103835850D01*
X136922960Y-103835580D01*
X136869633Y-103834772D01*
X136880944Y-103965127D01*
X136884446Y-104014010D01*
X136889563Y-104096021D01*
X136860475Y-104062355D01*
X136835428Y-104041886D01*
X136807418Y-104025996D01*
X136774560Y-104014684D01*
X136733622Y-104007143D01*
X136717056Y-104006174D01*
X136687566Y-104004449D01*
X136598957Y-104014684D01*
X136525969Y-104050505D01*
X136485031Y-104107602D01*
X136474258Y-104176820D01*
X136362073Y-104176820D01*
X136330773Y-104118308D01*
X136291384Y-104073936D01*
X136244723Y-104042155D01*
X136223288Y-104033700D01*
X136191463Y-104021148D01*
X136134231Y-104009432D01*
X136075652Y-104005527D01*
X136015659Y-104009095D01*
X135958494Y-104019801D01*
X135906985Y-104039395D01*
X135863959Y-104069627D01*
X135830765Y-104107468D01*
X135808747Y-104149887D01*
X135796425Y-104196346D01*
X135792318Y-104246306D01*
X135702278Y-104246306D01*
X135700208Y-104193518D01*
X135699669Y-104117567D01*
X135699938Y-104073532D01*
X135700746Y-104020070D01*
X135642302Y-104020878D01*
X135597324Y-104021148D01*
X135549249Y-104020878D01*
X135494441Y-104020070D01*
X135496595Y-104080939D01*
X135462121Y-104045657D01*
X135431418Y-104024649D01*
X135408299Y-104015677D01*
X135395328Y-104010644D01*
X135356006Y-104006065D01*
X135312913Y-104011452D01*
X135311970Y-104065048D01*
X135310220Y-104108410D01*
X135306449Y-104191363D01*
X134940099Y-104191363D01*
X134939893Y-104187323D01*
X134936476Y-104107215D01*
X134934035Y-104033335D01*
X134932571Y-103965683D01*
X134932082Y-103904259D01*
X134932621Y-103834772D01*
X134853977Y-103835580D01*
X134806575Y-103835850D01*
X134770350Y-103835580D01*
X134695319Y-103834819D01*
X134690764Y-103834772D01*
X133900015Y-103834772D01*
X133820361Y-103835244D01*
X133734378Y-103835580D01*
X133642065Y-103835782D01*
X133543424Y-103835850D01*
X133410375Y-103835311D01*
X133281098Y-103835311D01*
X133211072Y-103834772D01*
X133145356Y-103834772D01*
X133059171Y-103835850D01*
X132974063Y-103834772D01*
X132955120Y-103925027D01*
X132940666Y-104006185D01*
X132930701Y-104078245D01*
X132924267Y-104144740D01*
X132920407Y-104209199D01*
X132919120Y-104271623D01*
X132397681Y-104271623D01*
X131969666Y-103629600D01*
X132523048Y-102799527D01*
X133936760Y-102799527D01*
X133992649Y-102790846D01*
X134048808Y-102800341D01*
X134090588Y-102829099D01*
X134119617Y-102877120D01*
X134128842Y-102914288D01*
X134134810Y-102968277D01*
X134138066Y-103035153D01*
X134139151Y-103110981D01*
X134136981Y-103180977D01*
X134189749Y-103180163D01*
X134242788Y-103179892D01*
X134297320Y-103180163D01*
X134355650Y-103180977D01*
X134338829Y-102940061D01*
X134335488Y-102854873D01*
X134426188Y-102854873D01*
X134433242Y-102923783D01*
X134813606Y-102924326D01*
X134814149Y-102940061D01*
X134803704Y-102990930D01*
X134772368Y-103026335D01*
X134725976Y-103047090D01*
X134670359Y-103054008D01*
X134588697Y-103045598D01*
X134537489Y-103034271D01*
X134475565Y-103017111D01*
X134485874Y-103072728D01*
X134502695Y-103174466D01*
X134560618Y-103184843D01*
X134608502Y-103191015D01*
X134695319Y-103195085D01*
X134757311Y-103192846D01*
X134814149Y-103186132D01*
X134864679Y-103173720D01*
X134907748Y-103154389D01*
X134973674Y-103097687D01*
X135014098Y-103017111D01*
X135024475Y-102969769D01*
X135027934Y-102921070D01*
X135021016Y-102852363D01*
X135000261Y-102785148D01*
X134968587Y-102725937D01*
X134928909Y-102681240D01*
X134881906Y-102649226D01*
X134866775Y-102643258D01*
X135108239Y-102643258D01*
X135121262Y-102822317D01*
X135132656Y-103018739D01*
X135133742Y-103053465D01*
X135138082Y-103229811D01*
X135146222Y-103293838D01*
X135166298Y-103345386D01*
X135201024Y-103387166D01*
X135252029Y-103418094D01*
X135319854Y-103437628D01*
X135408299Y-103445224D01*
X135472326Y-103442783D01*
X135550189Y-103435458D01*
X135619100Y-103425148D01*
X135692622Y-103409413D01*
X135696420Y-103337789D01*
X135701847Y-103248260D01*
X135636056Y-103268539D01*
X135578676Y-103281630D01*
X135528892Y-103288751D01*
X135485891Y-103291125D01*
X135433801Y-103284885D01*
X135396361Y-103269421D01*
X135372215Y-103246089D01*
X135356751Y-103214618D01*
X135349155Y-103174466D01*
X135345357Y-103111524D01*
X135381982Y-103141910D01*
X135420236Y-103163885D01*
X135469884Y-103180163D01*
X135526586Y-103185860D01*
X135592105Y-103177857D01*
X135650842Y-103153847D01*
X135699133Y-103115458D01*
X135733317Y-103064317D01*
X135753665Y-103004496D01*
X135760448Y-102940061D01*
X135753122Y-102865182D01*
X135731678Y-102799527D01*
X135804398Y-102799527D01*
X135860286Y-102790846D01*
X135916446Y-102800341D01*
X135958226Y-102829099D01*
X135987255Y-102877120D01*
X135996480Y-102914288D01*
X136002448Y-102968277D01*
X136005704Y-103035153D01*
X136006789Y-103110981D01*
X136004619Y-103180977D01*
X136057387Y-103180163D01*
X136110426Y-103179892D01*
X136164958Y-103180163D01*
X136223288Y-103180977D01*
X136206467Y-102940061D01*
X136201041Y-102801698D01*
X136200783Y-102765343D01*
X136324212Y-102765343D01*
X136326246Y-102814720D01*
X136332351Y-102902079D01*
X136336183Y-102959392D01*
X136339540Y-103024979D01*
X136342423Y-103098841D01*
X136344831Y-103180977D01*
X136397870Y-103180163D01*
X136450638Y-103179892D01*
X136503270Y-103180163D01*
X136559159Y-103180977D01*
X136553913Y-103127078D01*
X136548306Y-103044965D01*
X136542338Y-102934635D01*
X136574623Y-102948743D01*
X136615589Y-102961766D01*
X136661439Y-102976416D01*
X136690197Y-102991609D01*
X136707560Y-103010600D01*
X136712715Y-103032304D01*
X136698065Y-103063775D01*
X136651401Y-103076797D01*
X136626984Y-103074898D01*
X136591172Y-103065403D01*
X136608400Y-103116814D01*
X136628612Y-103187488D01*
X136717056Y-103195085D01*
X136778709Y-103190405D01*
X136829103Y-103176365D01*
X136868713Y-103151880D01*
X136898014Y-103115865D01*
X136922160Y-103032304D01*
X136913207Y-102982384D01*
X136885263Y-102934635D01*
X136840769Y-102894754D01*
X136771045Y-102863554D01*
X136720922Y-102849311D01*
X136658997Y-102835882D01*
X136607179Y-102824216D01*
X136573537Y-102813364D01*
X136557259Y-102802512D01*
X136548306Y-102789489D01*
X136545593Y-102775110D01*
X136562957Y-102743368D01*
X136613961Y-102732245D01*
X136681063Y-102738093D01*
X136757932Y-102755637D01*
X136844567Y-102784877D01*
X136995954Y-102784877D01*
X136996767Y-102823673D01*
X137000294Y-102884716D01*
X137012232Y-103067573D01*
X137014673Y-103124275D01*
X137014945Y-103180977D01*
X137070154Y-103180163D01*
X137122923Y-103179892D01*
X137181388Y-103180163D01*
X137240667Y-103180977D01*
X137231986Y-103103317D01*
X137224389Y-103014669D01*
X137219099Y-102932533D01*
X137217335Y-102874407D01*
X137238768Y-102802783D01*
X137295470Y-102782164D01*
X137351358Y-102795187D01*
X137389340Y-102830456D01*
X137412672Y-102888514D01*
X137422304Y-102945623D01*
X137429493Y-103024707D01*
X137432749Y-103088735D01*
X137436004Y-103180977D01*
X137489044Y-103180163D01*
X137538556Y-103179892D01*
X137591867Y-103180163D01*
X137655216Y-103180977D01*
X137647755Y-103107319D01*
X137642736Y-103048039D01*
X137637611Y-102971412D01*
X137632366Y-102886947D01*
X137627284Y-102799527D01*
X137736063Y-102799527D01*
X137809179Y-102779180D01*
X137873342Y-102772397D01*
X137948492Y-102788947D01*
X137996241Y-102836696D01*
X138011706Y-102909133D01*
X137997869Y-102979129D01*
X137953647Y-103021452D01*
X137886907Y-103035560D01*
X137843227Y-103031761D01*
X137799277Y-103023351D01*
X137751799Y-103007887D01*
X137764821Y-103087649D01*
X137778929Y-103174466D01*
X137863168Y-103189930D01*
X137945508Y-103195085D01*
X138000989Y-103192100D01*
X138049145Y-103183147D01*
X138099065Y-103163614D01*
X138143558Y-103133228D01*
X138180591Y-103092940D01*
X138205957Y-103045869D01*
X138223456Y-102983198D01*
X138229289Y-102913474D01*
X138223592Y-102847412D01*
X138210727Y-102799527D01*
X138551052Y-102799527D01*
X138606940Y-102790846D01*
X138663100Y-102800341D01*
X138704880Y-102829099D01*
X138733909Y-102877120D01*
X138743134Y-102914288D01*
X138749102Y-102968277D01*
X138752358Y-103035153D01*
X138753443Y-103110981D01*
X138751273Y-103180977D01*
X138804041Y-103180163D01*
X138857080Y-103179892D01*
X138911612Y-103180163D01*
X138969942Y-103180977D01*
X138953121Y-102940061D01*
X138949780Y-102854873D01*
X139040480Y-102854873D01*
X139047534Y-102923783D01*
X139427898Y-102924326D01*
X139428441Y-102940061D01*
X139417996Y-102990930D01*
X139386660Y-103026335D01*
X139340268Y-103047090D01*
X139284651Y-103054008D01*
X139202989Y-103045598D01*
X139151781Y-103034271D01*
X139089857Y-103017111D01*
X139100166Y-103072728D01*
X139116987Y-103174466D01*
X139174910Y-103184843D01*
X139222794Y-103191015D01*
X139309611Y-103195085D01*
X139371603Y-103192846D01*
X139428441Y-103186132D01*
X139478971Y-103173720D01*
X139522040Y-103154389D01*
X139587966Y-103097687D01*
X139628390Y-103017111D01*
X139638767Y-102969769D01*
X139642226Y-102921070D01*
X139635308Y-102852363D01*
X139614553Y-102785148D01*
X139582879Y-102725937D01*
X139543201Y-102681240D01*
X139496198Y-102649226D01*
X139442548Y-102628065D01*
X139437248Y-102626980D01*
X139656334Y-102626980D01*
X139856012Y-103095246D01*
X139890738Y-103180977D01*
X139942828Y-103180163D01*
X139986236Y-103179892D01*
X140035477Y-103180163D01*
X140097470Y-103180977D01*
X140135994Y-103024165D01*
X140150916Y-102958781D01*
X140173977Y-102852702D01*
X140211416Y-102960511D01*
X140243430Y-103051159D01*
X140270017Y-103124648D01*
X140291179Y-103180977D01*
X140383421Y-103179892D01*
X140430492Y-103180163D01*
X140490314Y-103180977D01*
X140523424Y-103076122D01*
X140554230Y-102979838D01*
X140581791Y-102895025D01*
X140716037Y-102895025D01*
X140720581Y-102951660D01*
X140734214Y-103005445D01*
X140758699Y-103056178D01*
X140795799Y-103103656D01*
X140845108Y-103143741D01*
X140906219Y-103172295D01*
X140975197Y-103189387D01*
X141048109Y-103195085D01*
X141115663Y-103190066D01*
X141180504Y-103175008D01*
X141238766Y-103150320D01*
X141286583Y-103116407D01*
X141323887Y-103074084D01*
X141350610Y-103024165D01*
X141366685Y-102969091D01*
X141372043Y-102911304D01*
X141371405Y-102904250D01*
X141437155Y-102904250D01*
X141441225Y-102960341D01*
X141453433Y-103014669D01*
X141474052Y-103065470D01*
X141503353Y-103110981D01*
X141539504Y-103148285D01*
X141580674Y-103174466D01*
X141626863Y-103189930D01*
X141678071Y-103195085D01*
X141733145Y-103189930D01*
X141787134Y-103175008D01*
X141829728Y-103155203D01*
X141872323Y-103126174D01*
X141878291Y-103277560D01*
X141881140Y-103368989D01*
X141882089Y-103434915D01*
X141940555Y-103434101D01*
X141990067Y-103433830D01*
X142037816Y-103434101D01*
X142102929Y-103434915D01*
X142096417Y-103360820D01*
X142090630Y-103286845D01*
X142085565Y-103212991D01*
X142079817Y-103122122D01*
X142075052Y-103038883D01*
X142071271Y-102963275D01*
X142068473Y-102895297D01*
X142065911Y-102810018D01*
X142065721Y-102799527D01*
X142423607Y-102799527D01*
X142479495Y-102790846D01*
X142535654Y-102800341D01*
X142577435Y-102829099D01*
X142606464Y-102877120D01*
X142615688Y-102914288D01*
X142621657Y-102968277D01*
X142624912Y-103035153D01*
X142625998Y-103110981D01*
X142623827Y-103180977D01*
X142676595Y-103180163D01*
X142729635Y-103179892D01*
X142784166Y-103180163D01*
X142842496Y-103180977D01*
X142825675Y-102940061D01*
X142820249Y-102801698D01*
X142819991Y-102765343D01*
X142943420Y-102765343D01*
X142945455Y-102814720D01*
X142951559Y-102902079D01*
X142955391Y-102959392D01*
X142958749Y-103024979D01*
X142961631Y-103098841D01*
X142964039Y-103180977D01*
X143017078Y-103180163D01*
X143069846Y-103179892D01*
X143122479Y-103180163D01*
X143178367Y-103180977D01*
X143173122Y-103127078D01*
X143167515Y-103044965D01*
X143161546Y-102934635D01*
X143193831Y-102948743D01*
X143234798Y-102961766D01*
X143280647Y-102976416D01*
X143309405Y-102991609D01*
X143326769Y-103010600D01*
X143331923Y-103032304D01*
X143317273Y-103063775D01*
X143270609Y-103076797D01*
X143246192Y-103074898D01*
X143210380Y-103065403D01*
X143227608Y-103116814D01*
X143247820Y-103187488D01*
X143336264Y-103195085D01*
X143397917Y-103190405D01*
X143448312Y-103176365D01*
X143487922Y-103151880D01*
X143517222Y-103115865D01*
X143541368Y-103032304D01*
X143532415Y-102982384D01*
X143504471Y-102934635D01*
X143459978Y-102894754D01*
X143390253Y-102863554D01*
X143340130Y-102849311D01*
X143278206Y-102835882D01*
X143226387Y-102824216D01*
X143192746Y-102813364D01*
X143176468Y-102802512D01*
X143167515Y-102789489D01*
X143164802Y-102775110D01*
X143182165Y-102743368D01*
X143233170Y-102732245D01*
X143300272Y-102738093D01*
X143377140Y-102755637D01*
X143463776Y-102784877D01*
X143450753Y-102710812D01*
X143442072Y-102647056D01*
X143342775Y-102628065D01*
X143253246Y-102616670D01*
X143173483Y-102612872D01*
X143112169Y-102616467D01*
X143056281Y-102627251D01*
X143008939Y-102646039D01*
X142973263Y-102673644D01*
X142950881Y-102712575D01*
X142943420Y-102765343D01*
X142819991Y-102765343D01*
X142819707Y-102725191D01*
X142819978Y-102680833D01*
X142820792Y-102626980D01*
X142761919Y-102627794D01*
X142716612Y-102628065D01*
X142668185Y-102627794D01*
X142612975Y-102626980D01*
X142615145Y-102688294D01*
X142580419Y-102652753D01*
X142549491Y-102631592D01*
X142513136Y-102617484D01*
X142473526Y-102612872D01*
X142430118Y-102618298D01*
X142429168Y-102672287D01*
X142427405Y-102715967D01*
X142423607Y-102799527D01*
X142065721Y-102799527D01*
X142064374Y-102725281D01*
X142063861Y-102641087D01*
X141965650Y-102627048D01*
X141891314Y-102618569D01*
X141828914Y-102614296D01*
X141766515Y-102612872D01*
X141691500Y-102616942D01*
X141622725Y-102629150D01*
X141563514Y-102651668D01*
X141517189Y-102686666D01*
X141482259Y-102731838D01*
X141457232Y-102784877D01*
X141442174Y-102843207D01*
X141437155Y-102904250D01*
X141371405Y-102904250D01*
X141366820Y-102853516D01*
X141351153Y-102798442D01*
X141324158Y-102747438D01*
X141284955Y-102701859D01*
X141234290Y-102663945D01*
X141172908Y-102635933D01*
X141104811Y-102618637D01*
X141034002Y-102612872D01*
X140968008Y-102618027D01*
X140904591Y-102633491D01*
X140847279Y-102658654D01*
X140799597Y-102692906D01*
X140762361Y-102734958D01*
X140736384Y-102783521D01*
X140721123Y-102837306D01*
X140716037Y-102895025D01*
X140581791Y-102895025D01*
X140582734Y-102892124D01*
X140608933Y-102812982D01*
X140632830Y-102742410D01*
X140654423Y-102680410D01*
X140673714Y-102626980D01*
X140620403Y-102627794D01*
X140566821Y-102628065D01*
X140517580Y-102627794D01*
X140470780Y-102626980D01*
X140393731Y-102911304D01*
X140380708Y-102967192D01*
X140344896Y-102855415D01*
X140266762Y-102626980D01*
X140213587Y-102627794D01*
X140159326Y-102628065D01*
X140104795Y-102627794D01*
X140057317Y-102626980D01*
X139982438Y-102930837D01*
X139975384Y-102967192D01*
X139966702Y-102940061D01*
X139950424Y-102892312D01*
X139858182Y-102626980D01*
X139806906Y-102627794D01*
X139759428Y-102628065D01*
X139714121Y-102627794D01*
X139656334Y-102626980D01*
X139437248Y-102626980D01*
X139384897Y-102616263D01*
X139325889Y-102612330D01*
X139265457Y-102615924D01*
X139207873Y-102626708D01*
X139155986Y-102646446D01*
X139112646Y-102676899D01*
X139079208Y-102715017D01*
X139057029Y-102757747D01*
X139044617Y-102804546D01*
X139040480Y-102854873D01*
X138949780Y-102854873D01*
X138947695Y-102801698D01*
X138947152Y-102725191D01*
X138947424Y-102680833D01*
X138948237Y-102626980D01*
X138889365Y-102627794D01*
X138844058Y-102628065D01*
X138795631Y-102627794D01*
X138740421Y-102626980D01*
X138742591Y-102688294D01*
X138707865Y-102652753D01*
X138676936Y-102631592D01*
X138640582Y-102617484D01*
X138600972Y-102612872D01*
X138557564Y-102618298D01*
X138556614Y-102672287D01*
X138554851Y-102715967D01*
X138551052Y-102799527D01*
X138210727Y-102799527D01*
X138206500Y-102783792D01*
X138178284Y-102726886D01*
X138139217Y-102680969D01*
X138092282Y-102647192D01*
X138040463Y-102626708D01*
X137983355Y-102616331D01*
X137920548Y-102612872D01*
X137842956Y-102616942D01*
X137799277Y-102623385D01*
X137746373Y-102634576D01*
X137745288Y-102647056D01*
X137742846Y-102686937D01*
X137739319Y-102751236D01*
X137736063Y-102799527D01*
X137627284Y-102799527D01*
X137627000Y-102794644D01*
X137622727Y-102701045D01*
X137619675Y-102611244D01*
X137617844Y-102524564D01*
X137617233Y-102440325D01*
X143600512Y-102440325D01*
X143612992Y-102606903D01*
X143633068Y-103017111D01*
X143637409Y-103180977D01*
X143692618Y-103180163D01*
X143742131Y-103179892D01*
X143859876Y-103180434D01*
X143850109Y-103063775D01*
X143841299Y-102895025D01*
X143939096Y-102895025D01*
X143943640Y-102951660D01*
X143957273Y-103005445D01*
X143981758Y-103056178D01*
X144018858Y-103103656D01*
X144068167Y-103143741D01*
X144129278Y-103172295D01*
X144198256Y-103189387D01*
X144271168Y-103195085D01*
X144338722Y-103190066D01*
X144403563Y-103175008D01*
X144461825Y-103150320D01*
X144509642Y-103116407D01*
X144546946Y-103074084D01*
X144573669Y-103024165D01*
X144589744Y-102969091D01*
X144595102Y-102911304D01*
X144589880Y-102853516D01*
X144574212Y-102798442D01*
X144567032Y-102784877D01*
X144671609Y-102784877D01*
X144736043Y-102765343D01*
X144798035Y-102758832D01*
X144860163Y-102767514D01*
X144879426Y-102794101D01*
X144877255Y-102805496D01*
X144869388Y-102816891D01*
X144855280Y-102829099D01*
X144814314Y-102858128D01*
X144763309Y-102895568D01*
X144716916Y-102939790D01*
X144692499Y-102983198D01*
X144684089Y-103031761D01*
X144702809Y-103102571D01*
X144759239Y-103156560D01*
X144840901Y-103186674D01*
X144931516Y-103195085D01*
X145010464Y-103189659D01*
X145061808Y-103182198D01*
X145120884Y-103170668D01*
X145125225Y-103120477D01*
X145132279Y-103048039D01*
X145136619Y-103008972D01*
X145087650Y-103026946D01*
X145046005Y-103039629D01*
X144976009Y-103049667D01*
X144932872Y-103044784D01*
X144908726Y-103030676D01*
X144901130Y-103011685D01*
X144906827Y-102994593D01*
X144932601Y-102971532D01*
X144974449Y-102940468D01*
X145011007Y-102912389D01*
X145062012Y-102865182D01*
X145088057Y-102820689D01*
X145097009Y-102771312D01*
X145071236Y-102687209D01*
X145039358Y-102653499D01*
X144995271Y-102630507D01*
X144939587Y-102617281D01*
X144872915Y-102612872D01*
X144817991Y-102615043D01*
X144753783Y-102621554D01*
X144680291Y-102632406D01*
X144671609Y-102784877D01*
X144567032Y-102784877D01*
X144547217Y-102747438D01*
X144508014Y-102701859D01*
X144457349Y-102663945D01*
X144395967Y-102635933D01*
X144327870Y-102618637D01*
X144257061Y-102612872D01*
X144191067Y-102618027D01*
X144127650Y-102633491D01*
X144070338Y-102658654D01*
X144022656Y-102692906D01*
X143985420Y-102734958D01*
X143959443Y-102783521D01*
X143944183Y-102837306D01*
X143939096Y-102895025D01*
X143841299Y-102895025D01*
X143828947Y-102658451D01*
X143822979Y-102440325D01*
X145426912Y-102440325D01*
X145430167Y-102492957D01*
X145433152Y-102562953D01*
X145433966Y-102604733D01*
X145506855Y-102601719D01*
X145570701Y-102599910D01*
X145625504Y-102599307D01*
X145663487Y-102599307D01*
X145670676Y-102691685D01*
X145675966Y-102776738D01*
X145679644Y-102853758D01*
X145682719Y-102929270D01*
X145685191Y-103003275D01*
X145687632Y-103102639D01*
X145688446Y-103180977D01*
X145761698Y-103180163D01*
X145803478Y-103179892D01*
X145846344Y-103180163D01*
X145928277Y-103180977D01*
X145920968Y-103104548D01*
X145914545Y-103025948D01*
X145909009Y-102945177D01*
X145904358Y-102862237D01*
X145900593Y-102777126D01*
X145897714Y-102689844D01*
X145896857Y-102651397D01*
X146162138Y-102651397D01*
X146170956Y-102720986D01*
X146197407Y-102784335D01*
X146239866Y-102836967D01*
X146296704Y-102874407D01*
X146364665Y-102896789D01*
X146440493Y-102904250D01*
X146508319Y-102897738D01*
X146524597Y-102823402D01*
X146544130Y-102750151D01*
X146494211Y-102755034D01*
X146412549Y-102728718D01*
X146385690Y-102664419D01*
X146391659Y-102631592D01*
X146410650Y-102607989D01*
X146439408Y-102596051D01*
X146475220Y-102593338D01*
X146515915Y-102594424D01*
X146561494Y-102597679D01*
X146565835Y-102670087D01*
X146569452Y-102747679D01*
X146572346Y-102830456D01*
X146575432Y-102935449D01*
X146577636Y-103017111D01*
X146578959Y-103075441D01*
X146579400Y-103110439D01*
X146579400Y-103180977D01*
X146687378Y-103179892D01*
X146726987Y-103180163D01*
X146800239Y-103180977D01*
X146789387Y-103042071D01*
X146775279Y-102770769D01*
X146771569Y-102651397D01*
X146871320Y-102651397D01*
X146880137Y-102720986D01*
X146906589Y-102784335D01*
X146949048Y-102836967D01*
X147005885Y-102874407D01*
X147073846Y-102896789D01*
X147149675Y-102904250D01*
X147217500Y-102897738D01*
X147233778Y-102823402D01*
X147253312Y-102750151D01*
X147203393Y-102755034D01*
X147121731Y-102728718D01*
X147094872Y-102664419D01*
X147100841Y-102631592D01*
X147119832Y-102607989D01*
X147148590Y-102596051D01*
X147184401Y-102593338D01*
X147225097Y-102594424D01*
X147270675Y-102597679D01*
X147275016Y-102670087D01*
X147278633Y-102747679D01*
X147281527Y-102830456D01*
X147284613Y-102935449D01*
X147286818Y-103017111D01*
X147288140Y-103075441D01*
X147288581Y-103110439D01*
X147288581Y-103180977D01*
X147396559Y-103179892D01*
X147436169Y-103180163D01*
X147509420Y-103180977D01*
X147498568Y-103042071D01*
X147484461Y-102770769D01*
X147478492Y-102578688D01*
X147477949Y-102516831D01*
X147478492Y-102440325D01*
X147622282Y-102440325D01*
X147626996Y-102528531D01*
X147630828Y-102610295D01*
X147633778Y-102685615D01*
X147635847Y-102754491D01*
X147638933Y-102873050D01*
X147641137Y-102971532D01*
X147642460Y-103049938D01*
X147642901Y-103108268D01*
X147641815Y-103180977D01*
X147702723Y-103180163D01*
X147742197Y-103179892D01*
X147788725Y-103180163D01*
X147844749Y-103180977D01*
X147841614Y-103133439D01*
X147837996Y-103055937D01*
X147833897Y-102948472D01*
X147830279Y-102840765D01*
X147828109Y-102762540D01*
X147827385Y-102713796D01*
X147828471Y-102651940D01*
X147899552Y-102872779D01*
X148001561Y-103180977D01*
X148061111Y-103180163D01*
X148098687Y-103179892D01*
X148141281Y-103180163D01*
X148201781Y-103180977D01*
X148268521Y-102882546D01*
X148307589Y-102723563D01*
X148312472Y-102700774D01*
X148321154Y-102653025D01*
X148334719Y-102803326D01*
X148352625Y-103111524D01*
X148354253Y-103180977D01*
X148415567Y-103180163D01*
X148449751Y-103179892D01*
X148488275Y-103180163D01*
X148547419Y-103180977D01*
X148533854Y-103071371D01*
X148500213Y-102691007D01*
X148483392Y-102440325D01*
X148394269Y-102441138D01*
X148326580Y-102441410D01*
X148266893Y-102441138D01*
X148182248Y-102440325D01*
X148170310Y-102511134D01*
X148161832Y-102546810D01*
X148146164Y-102605547D01*
X148128801Y-102671066D01*
X148115236Y-102727090D01*
X148100654Y-102796611D01*
X148080238Y-102902622D01*
X148057449Y-102823402D01*
X148036830Y-102756119D01*
X148014855Y-102690600D01*
X147987996Y-102616670D01*
X147964053Y-102552033D01*
X147950828Y-102514390D01*
X147929395Y-102440325D01*
X147848818Y-102441138D01*
X147769870Y-102441410D01*
X147706385Y-102441138D01*
X147622282Y-102440325D01*
X147478492Y-102440325D01*
X147413922Y-102441545D01*
X147363460Y-102441952D01*
X147313948Y-102441342D01*
X147248971Y-102439511D01*
X147181824Y-102437679D01*
X147125800Y-102437069D01*
X147062519Y-102439375D01*
X147018094Y-102446293D01*
X146954881Y-102475322D01*
X146908217Y-102521715D01*
X146880544Y-102582215D01*
X146871320Y-102651397D01*
X146771569Y-102651397D01*
X146769310Y-102578688D01*
X146768768Y-102516831D01*
X146769310Y-102440325D01*
X146704741Y-102441545D01*
X146654279Y-102441952D01*
X146604766Y-102441342D01*
X146539790Y-102439511D01*
X146472643Y-102437679D01*
X146416619Y-102437069D01*
X146353338Y-102439375D01*
X146308912Y-102446293D01*
X146245699Y-102475322D01*
X146199035Y-102521715D01*
X146171362Y-102582215D01*
X146162138Y-102651397D01*
X145896857Y-102651397D01*
X145895720Y-102600392D01*
X146126869Y-102606361D01*
X146124156Y-102546132D01*
X146122257Y-102495534D01*
X146120900Y-102440325D01*
X146040663Y-102440799D01*
X145954050Y-102441138D01*
X145861062Y-102441342D01*
X145761698Y-102441410D01*
X145627675Y-102440867D01*
X145497450Y-102440867D01*
X145426912Y-102440325D01*
X143822979Y-102440325D01*
X143756917Y-102441138D01*
X143709575Y-102441410D01*
X143657621Y-102441138D01*
X143600512Y-102440325D01*
X137617233Y-102440325D01*
X137554699Y-102441138D01*
X137504915Y-102441410D01*
X137447941Y-102441138D01*
X137394224Y-102440325D01*
X137405618Y-102571634D01*
X137409145Y-102620876D01*
X137414300Y-102703487D01*
X137385000Y-102669574D01*
X137359769Y-102648955D01*
X137331553Y-102632948D01*
X137298454Y-102621554D01*
X137257217Y-102613957D01*
X137210824Y-102611244D01*
X137121566Y-102621554D01*
X137048043Y-102657637D01*
X137006806Y-102715153D01*
X136995954Y-102784877D01*
X136844567Y-102784877D01*
X136831545Y-102710812D01*
X136822863Y-102647056D01*
X136723567Y-102628065D01*
X136634038Y-102616670D01*
X136554275Y-102612872D01*
X136492961Y-102616467D01*
X136437073Y-102627251D01*
X136389731Y-102646039D01*
X136354055Y-102673644D01*
X136331672Y-102712575D01*
X136324212Y-102765343D01*
X136200783Y-102765343D01*
X136200498Y-102725191D01*
X136200770Y-102680833D01*
X136201583Y-102626980D01*
X136142711Y-102627794D01*
X136097404Y-102628065D01*
X136048976Y-102627794D01*
X135993767Y-102626980D01*
X135995937Y-102688294D01*
X135961211Y-102652753D01*
X135930282Y-102631592D01*
X135893928Y-102617484D01*
X135854318Y-102612872D01*
X135810910Y-102618298D01*
X135809960Y-102672287D01*
X135808197Y-102715967D01*
X135804398Y-102799527D01*
X135731678Y-102799527D01*
X135731147Y-102797900D01*
X135695539Y-102739299D01*
X135647315Y-102690464D01*
X135590138Y-102653296D01*
X135527671Y-102629693D01*
X135458218Y-102617077D01*
X135380083Y-102612872D01*
X135329689Y-102614296D01*
X135272919Y-102618569D01*
X135201770Y-102627590D01*
X135108239Y-102643258D01*
X134866775Y-102643258D01*
X134828256Y-102628065D01*
X134770605Y-102616263D01*
X134711597Y-102612330D01*
X134651165Y-102615924D01*
X134593581Y-102626708D01*
X134541694Y-102646446D01*
X134498354Y-102676899D01*
X134464916Y-102715017D01*
X134442737Y-102757747D01*
X134430325Y-102804546D01*
X134426188Y-102854873D01*
X134335488Y-102854873D01*
X134333403Y-102801698D01*
X134332860Y-102725191D01*
X134333132Y-102680833D01*
X134333945Y-102626980D01*
X134275073Y-102627794D01*
X134229766Y-102628065D01*
X134181339Y-102627794D01*
X134126129Y-102626980D01*
X134128299Y-102688294D01*
X134093573Y-102652753D01*
X134062644Y-102631592D01*
X134026290Y-102617484D01*
X133986680Y-102612872D01*
X133943272Y-102618298D01*
X133942322Y-102672287D01*
X133940559Y-102715967D01*
X133936760Y-102799527D01*
X132523048Y-102799527D01*
X132919027Y-102205558D01*
X132919120Y-102205558D01*
X148556880Y-102205558D01*
X148556973Y-102205558D01*
X149506334Y-103629600D01*
G37*
%TO.C,G\u002A\u002A\u002A*%
G36*
X137887992Y-91279102D02*
G01*
X137887992Y-91544518D01*
X137851633Y-91544518D01*
X137815275Y-91544518D01*
X137815275Y-91279102D01*
X137815275Y-91013685D01*
X137851633Y-91013685D01*
X137887992Y-91013685D01*
X137887992Y-91279102D01*
G37*
G36*
X138287934Y-89769989D02*
G01*
X138287934Y-90301060D01*
X138204263Y-90301060D01*
X138120591Y-90301060D01*
X138122456Y-89772045D01*
X138124322Y-89243030D01*
X138206128Y-89240974D01*
X138287934Y-89238918D01*
X138287934Y-89769989D01*
G37*
G36*
X142738206Y-91279102D02*
G01*
X142738206Y-91544518D01*
X142698212Y-91544518D01*
X142658218Y-91544518D01*
X142658218Y-91279102D01*
X142658218Y-91013685D01*
X142698212Y-91013685D01*
X142738206Y-91013685D01*
X142738206Y-91279102D01*
G37*
G36*
X143954396Y-87423052D02*
G01*
X144036202Y-87425108D01*
X144038068Y-87954123D01*
X144039933Y-88483139D01*
X143956261Y-88483139D01*
X143872589Y-88483139D01*
X143872589Y-87952067D01*
X143872589Y-87420996D01*
X143954396Y-87423052D01*
G37*
G36*
X144497954Y-87777785D02*
G01*
X144497954Y-88483139D01*
X144414330Y-88483139D01*
X144330706Y-88483139D01*
X144330706Y-87777785D01*
X144330706Y-87072431D01*
X144414330Y-87072431D01*
X144497954Y-87072431D01*
X144497954Y-87777785D01*
G37*
G36*
X144643388Y-89595707D02*
G01*
X144643388Y-90301060D01*
X144563400Y-90301060D01*
X144483411Y-90301060D01*
X144483411Y-89595707D01*
X144483411Y-88890353D01*
X144563400Y-88890353D01*
X144643388Y-88890353D01*
X144643388Y-89595707D01*
G37*
G36*
X145892699Y-91048226D02*
G01*
X145890482Y-91082766D01*
X145808676Y-91084822D01*
X145726869Y-91086879D01*
X145726869Y-91315698D01*
X145726869Y-91544518D01*
X145686875Y-91544518D01*
X145646881Y-91544518D01*
X145646881Y-91315698D01*
X145646881Y-91086879D01*
X145565074Y-91084822D01*
X145483268Y-91082766D01*
X145481052Y-91048226D01*
X145478835Y-91013685D01*
X145686875Y-91013685D01*
X145894915Y-91013685D01*
X145892699Y-91048226D01*
G37*
G36*
X138255517Y-88857552D02*
G01*
X138283963Y-88876220D01*
X138305562Y-88901804D01*
X138318390Y-88932547D01*
X138320521Y-88966690D01*
X138310034Y-89002476D01*
X138300355Y-89019547D01*
X138273605Y-89047785D01*
X138237661Y-89065195D01*
X138233841Y-89066288D01*
X138195042Y-89069718D01*
X138157872Y-89058702D01*
X138122363Y-89033249D01*
X138104421Y-89011425D01*
X138090992Y-88978165D01*
X138089590Y-88943311D01*
X138099711Y-88909801D01*
X138120847Y-88880569D01*
X138152492Y-88858553D01*
X138185774Y-88847994D01*
X138222145Y-88847558D01*
X138255517Y-88857552D01*
G37*
G36*
X143988052Y-87035933D02*
G01*
X144022154Y-87052924D01*
X144047823Y-87078569D01*
X144063537Y-87110481D01*
X144067777Y-87146273D01*
X144059021Y-87183558D01*
X144049595Y-87201445D01*
X144025963Y-87226188D01*
X143991236Y-87243926D01*
X143990813Y-87244079D01*
X143952514Y-87250625D01*
X143914517Y-87244012D01*
X143879957Y-87225327D01*
X143851969Y-87195657D01*
X143840104Y-87169584D01*
X143836559Y-87134816D01*
X143844091Y-87100540D01*
X143862294Y-87071621D01*
X143867819Y-87065974D01*
X143896923Y-87042742D01*
X143926829Y-87031513D01*
X143961596Y-87030612D01*
X143988052Y-87035933D01*
G37*
G36*
X145857760Y-89595707D02*
G01*
X145857760Y-90301060D01*
X145381464Y-90301060D01*
X144905169Y-90301060D01*
X144905169Y-90177441D01*
X144905169Y-90053823D01*
X145232395Y-90053823D01*
X145559621Y-90053823D01*
X145559621Y-89886574D01*
X145559621Y-89719325D01*
X145257846Y-89719325D01*
X144956071Y-89719325D01*
X144956071Y-89595707D01*
X144956071Y-89472088D01*
X145257846Y-89472088D01*
X145559621Y-89472088D01*
X145559621Y-89304839D01*
X145559621Y-89137590D01*
X145232395Y-89137590D01*
X144905169Y-89137590D01*
X144905169Y-89013972D01*
X144905169Y-88890353D01*
X145381464Y-88890353D01*
X145857760Y-88890353D01*
X145857760Y-89595707D01*
G37*
G36*
X140848624Y-89227401D02*
G01*
X140918585Y-89241120D01*
X140980382Y-89266593D01*
X140989502Y-89272039D01*
X141015030Y-89291056D01*
X141041187Y-89314788D01*
X141064827Y-89339987D01*
X141082804Y-89363404D01*
X141091970Y-89381791D01*
X141093279Y-89386678D01*
X141098512Y-89398965D01*
X141102943Y-89397636D01*
X141106364Y-89383433D01*
X141108568Y-89357101D01*
X141109349Y-89319382D01*
X141109349Y-89239394D01*
X141189337Y-89239394D01*
X141269326Y-89239394D01*
X141269326Y-89770227D01*
X141269326Y-90301060D01*
X141185894Y-90301060D01*
X141102463Y-90301060D01*
X141100452Y-89932022D01*
X141098441Y-89562984D01*
X141080823Y-89527186D01*
X141051259Y-89481806D01*
X141010242Y-89442952D01*
X140960686Y-89413495D01*
X140904544Y-89394325D01*
X140843766Y-89386329D01*
X140780305Y-89390395D01*
X140738493Y-89397169D01*
X140738493Y-89311010D01*
X140738493Y-89224851D01*
X140798774Y-89224851D01*
X140848624Y-89227401D01*
G37*
G36*
X143799873Y-91344547D02*
G01*
X143799873Y-91544518D01*
X143759878Y-91544518D01*
X143719884Y-91544518D01*
X143719884Y-91409631D01*
X143719857Y-91391277D01*
X143719279Y-91341205D01*
X143717594Y-91303047D01*
X143714343Y-91274806D01*
X143709068Y-91254484D01*
X143701307Y-91240082D01*
X143690602Y-91229604D01*
X143676492Y-91221051D01*
X143663801Y-91215619D01*
X143631041Y-91210447D01*
X143599707Y-91216433D01*
X143573395Y-91232491D01*
X143555698Y-91257536D01*
X143552230Y-91268927D01*
X143549046Y-91289593D01*
X143546920Y-91319352D01*
X143545733Y-91360016D01*
X143545364Y-91413395D01*
X143545364Y-91544518D01*
X143508618Y-91544518D01*
X143471873Y-91544518D01*
X143474078Y-91382137D01*
X143476283Y-91219756D01*
X143497238Y-91192302D01*
X143502515Y-91185762D01*
X143529903Y-91162076D01*
X143563903Y-91148749D01*
X143607300Y-91144576D01*
X143612246Y-91144622D01*
X143651326Y-91149670D01*
X143682109Y-91164209D01*
X143708256Y-91189880D01*
X143726994Y-91213657D01*
X143727075Y-91179116D01*
X143727156Y-91144576D01*
X143763514Y-91144576D01*
X143799873Y-91144576D01*
X143799873Y-91344547D01*
G37*
G36*
X144330706Y-91279102D02*
G01*
X144330706Y-91544518D01*
X144294347Y-91544518D01*
X144257989Y-91544518D01*
X144257829Y-91419082D01*
X144257395Y-91373526D01*
X144255500Y-91326877D01*
X144251635Y-91291275D01*
X144245300Y-91264784D01*
X144235992Y-91245466D01*
X144223210Y-91231384D01*
X144206453Y-91220601D01*
X144190144Y-91214327D01*
X144157190Y-91211156D01*
X144124998Y-91218227D01*
X144098974Y-91234824D01*
X144079833Y-91253948D01*
X144077591Y-91399233D01*
X144075349Y-91544518D01*
X144035779Y-91544518D01*
X143996208Y-91544518D01*
X143996382Y-91408174D01*
X143996572Y-91369663D01*
X143997550Y-91319460D01*
X143999584Y-91280487D01*
X144002932Y-91250723D01*
X144007853Y-91228150D01*
X144014604Y-91210745D01*
X144023444Y-91196490D01*
X144031585Y-91186259D01*
X144055963Y-91164220D01*
X144085155Y-91151511D01*
X144123614Y-91145881D01*
X144153356Y-91145348D01*
X144186461Y-91150572D01*
X144212875Y-91164060D01*
X144236474Y-91187233D01*
X144257989Y-91213335D01*
X144257989Y-91113510D01*
X144257989Y-91013685D01*
X144294347Y-91013685D01*
X144330706Y-91013685D01*
X144330706Y-91279102D01*
G37*
G36*
X136739065Y-91344547D02*
G01*
X136739065Y-91544518D01*
X136702707Y-91544518D01*
X136666348Y-91544518D01*
X136666348Y-91417030D01*
X136666348Y-91415500D01*
X136665897Y-91361303D01*
X136664256Y-91319522D01*
X136660944Y-91288096D01*
X136655478Y-91264966D01*
X136647377Y-91248071D01*
X136636158Y-91235353D01*
X136621338Y-91224751D01*
X136609601Y-91218431D01*
X136576334Y-91209743D01*
X136544944Y-91215216D01*
X136516552Y-91234745D01*
X136491828Y-91259468D01*
X136491828Y-91401993D01*
X136491828Y-91544518D01*
X136451325Y-91544518D01*
X136410823Y-91544518D01*
X136413149Y-91385804D01*
X136413190Y-91383018D01*
X136413988Y-91331706D01*
X136414839Y-91292704D01*
X136415989Y-91263880D01*
X136417684Y-91243105D01*
X136420169Y-91228248D01*
X136423690Y-91217178D01*
X136428493Y-91207765D01*
X136434823Y-91197877D01*
X136439824Y-91190792D01*
X136467185Y-91164569D01*
X136502162Y-91149437D01*
X136546474Y-91144576D01*
X136554846Y-91144771D01*
X136596085Y-91152059D01*
X136630002Y-91168965D01*
X136653924Y-91194255D01*
X136665961Y-91213657D01*
X136666155Y-91179116D01*
X136666348Y-91144576D01*
X136702707Y-91144576D01*
X136739065Y-91144576D01*
X136739065Y-91344547D01*
G37*
G36*
X136186417Y-91096930D02*
G01*
X136186417Y-91144576D01*
X136215504Y-91144576D01*
X136244591Y-91144576D01*
X136244591Y-91177298D01*
X136244591Y-91210021D01*
X136215504Y-91210021D01*
X136186417Y-91210021D01*
X136186417Y-91341272D01*
X136186216Y-91383575D01*
X136184952Y-91429555D01*
X136181911Y-91464434D01*
X136176392Y-91490187D01*
X136167699Y-91508787D01*
X136155133Y-91522206D01*
X136137995Y-91532418D01*
X136115587Y-91541397D01*
X136114980Y-91541612D01*
X136087423Y-91548572D01*
X136061124Y-91550614D01*
X136039299Y-91548098D01*
X136025166Y-91541388D01*
X136021939Y-91530846D01*
X136025057Y-91518377D01*
X136029539Y-91499070D01*
X136032674Y-91488893D01*
X136041180Y-91480933D01*
X136058782Y-91479073D01*
X136064180Y-91479021D01*
X136079037Y-91477588D01*
X136089940Y-91472788D01*
X136097497Y-91462761D01*
X136102317Y-91445643D01*
X136105006Y-91419571D01*
X136106174Y-91382685D01*
X136106429Y-91333120D01*
X136106429Y-91210021D01*
X136066434Y-91210021D01*
X136026440Y-91210021D01*
X136026440Y-91177298D01*
X136026440Y-91144576D01*
X136066087Y-91144576D01*
X136105735Y-91144576D01*
X136107900Y-91099128D01*
X136110064Y-91053680D01*
X136148241Y-91051482D01*
X136186417Y-91049284D01*
X136186417Y-91096930D01*
G37*
G36*
X138418784Y-91287811D02*
G01*
X138418782Y-91290584D01*
X138418341Y-91336740D01*
X138417224Y-91379491D01*
X138415555Y-91416051D01*
X138413460Y-91443636D01*
X138411064Y-91459464D01*
X138396382Y-91491707D01*
X138369607Y-91521410D01*
X138335200Y-91540868D01*
X138307570Y-91548162D01*
X138265392Y-91548562D01*
X138226672Y-91534845D01*
X138191585Y-91507049D01*
X138164316Y-91478461D01*
X138164316Y-91511490D01*
X138164316Y-91544518D01*
X138127957Y-91544518D01*
X138091599Y-91544518D01*
X138091599Y-91344547D01*
X138091599Y-91144576D01*
X138127380Y-91144576D01*
X138163161Y-91144576D01*
X138165556Y-91277629D01*
X138166071Y-91303703D01*
X138167508Y-91349793D01*
X138169901Y-91384557D01*
X138173857Y-91410190D01*
X138179981Y-91428884D01*
X138188881Y-91442832D01*
X138201162Y-91454226D01*
X138217431Y-91465259D01*
X138226647Y-91470184D01*
X138257872Y-91477067D01*
X138289290Y-91471505D01*
X138316313Y-91454020D01*
X138320683Y-91449554D01*
X138326066Y-91442793D01*
X138330023Y-91434335D01*
X138332853Y-91422040D01*
X138334853Y-91403767D01*
X138336318Y-91377377D01*
X138337547Y-91340729D01*
X138338836Y-91291682D01*
X138342472Y-91148212D01*
X138380648Y-91146014D01*
X138418825Y-91143816D01*
X138418784Y-91287811D01*
G37*
G36*
X139429589Y-91344547D02*
G01*
X139429589Y-91544518D01*
X139393231Y-91544518D01*
X139356872Y-91544518D01*
X139356462Y-91419082D01*
X139356409Y-91408869D01*
X139355497Y-91358614D01*
X139353611Y-91317193D01*
X139350864Y-91286504D01*
X139347372Y-91268446D01*
X139339446Y-91252112D01*
X139317235Y-91228949D01*
X139287824Y-91214685D01*
X139254899Y-91210783D01*
X139222143Y-91218708D01*
X139219076Y-91220157D01*
X139205882Y-91228343D01*
X139195824Y-91239557D01*
X139188438Y-91255715D01*
X139183260Y-91278737D01*
X139179825Y-91310542D01*
X139177670Y-91353048D01*
X139176332Y-91408174D01*
X139173947Y-91544518D01*
X139138155Y-91544518D01*
X139102363Y-91544518D01*
X139102523Y-91393631D01*
X139102624Y-91356851D01*
X139103069Y-91313301D01*
X139104017Y-91280551D01*
X139105637Y-91256371D01*
X139108098Y-91238528D01*
X139111569Y-91224794D01*
X139116219Y-91212937D01*
X139124371Y-91197493D01*
X139148352Y-91170173D01*
X139181010Y-91153268D01*
X139223928Y-91145790D01*
X139248269Y-91145168D01*
X139282605Y-91149745D01*
X139310185Y-91162773D01*
X139335091Y-91185719D01*
X139356872Y-91210527D01*
X139356872Y-91177551D01*
X139356872Y-91144576D01*
X139393231Y-91144576D01*
X139429589Y-91144576D01*
X139429589Y-91344547D01*
G37*
G36*
X137589853Y-91096930D02*
G01*
X137589853Y-91144576D01*
X137618939Y-91144576D01*
X137648026Y-91144576D01*
X137648026Y-91177298D01*
X137648026Y-91210021D01*
X137618939Y-91210021D01*
X137589853Y-91210021D01*
X137589853Y-91337509D01*
X137589661Y-91377573D01*
X137588374Y-91424906D01*
X137585284Y-91461017D01*
X137579713Y-91487863D01*
X137570980Y-91507404D01*
X137558407Y-91521597D01*
X137541314Y-91532403D01*
X137519023Y-91541780D01*
X137506121Y-91545139D01*
X137482544Y-91547863D01*
X137457591Y-91548172D01*
X137436502Y-91546075D01*
X137424518Y-91541585D01*
X137424054Y-91539887D01*
X137425351Y-91527842D01*
X137429678Y-91508894D01*
X137430769Y-91504919D01*
X137437041Y-91487915D01*
X137445581Y-91480623D01*
X137460488Y-91479073D01*
X137464674Y-91479040D01*
X137480408Y-91477639D01*
X137492009Y-91472815D01*
X137500101Y-91462716D01*
X137505309Y-91445488D01*
X137508255Y-91419280D01*
X137509566Y-91382239D01*
X137509864Y-91332513D01*
X137509864Y-91210021D01*
X137469870Y-91210021D01*
X137429875Y-91210021D01*
X137429875Y-91177298D01*
X137429875Y-91144576D01*
X137469523Y-91144576D01*
X137509170Y-91144576D01*
X137511335Y-91099128D01*
X137513500Y-91053680D01*
X137551676Y-91051482D01*
X137589853Y-91049284D01*
X137589853Y-91096930D01*
G37*
G36*
X148538109Y-86768526D02*
G01*
X148627932Y-86768638D01*
X148710675Y-86768841D01*
X148785406Y-86769130D01*
X148851190Y-86769502D01*
X148907096Y-86769951D01*
X148952191Y-86770474D01*
X148985541Y-86771067D01*
X149006213Y-86771724D01*
X149013276Y-86772442D01*
X149011205Y-86774428D01*
X148998952Y-86784574D01*
X148976266Y-86802817D01*
X148943804Y-86828643D01*
X148902224Y-86861535D01*
X148852183Y-86900977D01*
X148794338Y-86946454D01*
X148729347Y-86997448D01*
X148657865Y-87053446D01*
X148580551Y-87113929D01*
X148498062Y-87178383D01*
X148411055Y-87246292D01*
X148320187Y-87317139D01*
X148226116Y-87390410D01*
X148169434Y-87434525D01*
X148077115Y-87506330D01*
X147988326Y-87575332D01*
X147903728Y-87641019D01*
X147823985Y-87702881D01*
X147749756Y-87760405D01*
X147681703Y-87813080D01*
X147620489Y-87860394D01*
X147566775Y-87901835D01*
X147521222Y-87936893D01*
X147484492Y-87965054D01*
X147457247Y-87985809D01*
X147440148Y-87998644D01*
X147433857Y-88003049D01*
X147433284Y-87999596D01*
X147432528Y-87983017D01*
X147431856Y-87953688D01*
X147431273Y-87912667D01*
X147430785Y-87861011D01*
X147430400Y-87799776D01*
X147430123Y-87730021D01*
X147429960Y-87652802D01*
X147429918Y-87569176D01*
X147430003Y-87480200D01*
X147430221Y-87386932D01*
X147432080Y-86770656D01*
X148222876Y-86768806D01*
X148235489Y-86768777D01*
X148340954Y-86768591D01*
X148442138Y-86768509D01*
X148538109Y-86768526D01*
G37*
G36*
X139981425Y-91370130D02*
G01*
X139971342Y-91424327D01*
X139950226Y-91470501D01*
X139918681Y-91507577D01*
X139877313Y-91534478D01*
X139837972Y-91547885D01*
X139789552Y-91552254D01*
X139742814Y-91544256D01*
X139700164Y-91524694D01*
X139664006Y-91494372D01*
X139636744Y-91454094D01*
X139622524Y-91417611D01*
X139613036Y-91366032D01*
X139613838Y-91336127D01*
X139692070Y-91336127D01*
X139693973Y-91377282D01*
X139703685Y-91415821D01*
X139721002Y-91448402D01*
X139745722Y-91471687D01*
X139770760Y-91482722D01*
X139805349Y-91485914D01*
X139838501Y-91476891D01*
X139867085Y-91456654D01*
X139887969Y-91426203D01*
X139898333Y-91390978D01*
X139902011Y-91348903D01*
X139898726Y-91306881D01*
X139888459Y-91271259D01*
X139880799Y-91256197D01*
X139859389Y-91229432D01*
X139831670Y-91214596D01*
X139795102Y-91210021D01*
X139783405Y-91210169D01*
X139762715Y-91212547D01*
X139747470Y-91219719D01*
X139731289Y-91234093D01*
X139712500Y-91259324D01*
X139698178Y-91295694D01*
X139692070Y-91336127D01*
X139613838Y-91336127D01*
X139614414Y-91314636D01*
X139626003Y-91265867D01*
X139647150Y-91222168D01*
X139677200Y-91185984D01*
X139715500Y-91159758D01*
X139720522Y-91157499D01*
X139757111Y-91147588D01*
X139799507Y-91144380D01*
X139841581Y-91147929D01*
X139877204Y-91158291D01*
X139901528Y-91172386D01*
X139934914Y-91204345D01*
X139960350Y-91245843D01*
X139976552Y-91294562D01*
X139982237Y-91348183D01*
X139982210Y-91348903D01*
X139981425Y-91370130D01*
G37*
G36*
X148749739Y-88887196D02*
G01*
X148767555Y-88897883D01*
X148794847Y-88914722D01*
X148830254Y-88936841D01*
X148872416Y-88963372D01*
X148919971Y-88993445D01*
X148971558Y-89026189D01*
X149025818Y-89060735D01*
X149081389Y-89096214D01*
X149136911Y-89131754D01*
X149191022Y-89166486D01*
X149242363Y-89199540D01*
X149289573Y-89230047D01*
X149331291Y-89257136D01*
X149366155Y-89279938D01*
X149392806Y-89297583D01*
X149409883Y-89309200D01*
X149416025Y-89313920D01*
X149414082Y-89315922D01*
X149401791Y-89325278D01*
X149379125Y-89341489D01*
X149347176Y-89363804D01*
X149307036Y-89391474D01*
X149259796Y-89423747D01*
X149206547Y-89459872D01*
X149148380Y-89499098D01*
X149086389Y-89540674D01*
X149050052Y-89564946D01*
X148989660Y-89605131D01*
X148933417Y-89642366D01*
X148882455Y-89675912D01*
X148837904Y-89705030D01*
X148800895Y-89728983D01*
X148772560Y-89747032D01*
X148754031Y-89758441D01*
X148746437Y-89762470D01*
X148745912Y-89762324D01*
X148744033Y-89758143D01*
X148742431Y-89747533D01*
X148741087Y-89729593D01*
X148739983Y-89703420D01*
X148739100Y-89668113D01*
X148738420Y-89622771D01*
X148737923Y-89566492D01*
X148737591Y-89498374D01*
X148737405Y-89417517D01*
X148737348Y-89323018D01*
X148737348Y-89319932D01*
X148737442Y-89241601D01*
X148737700Y-89167814D01*
X148738107Y-89099821D01*
X148738647Y-89038872D01*
X148739305Y-88986217D01*
X148740065Y-88943105D01*
X148740911Y-88910787D01*
X148741828Y-88890512D01*
X148742801Y-88883530D01*
X148749739Y-88887196D01*
G37*
G36*
X152045294Y-89594006D02*
G01*
X152056085Y-89605575D01*
X152074813Y-89626698D01*
X152100611Y-89656364D01*
X152132610Y-89693563D01*
X152169943Y-89737285D01*
X152211741Y-89786519D01*
X152257139Y-89840254D01*
X152305267Y-89897482D01*
X152561552Y-90202892D01*
X152561903Y-91051862D01*
X152562255Y-91900831D01*
X151602392Y-91900831D01*
X151522044Y-91900818D01*
X151369426Y-91900708D01*
X151231336Y-91900487D01*
X151107775Y-91900155D01*
X150998746Y-91899712D01*
X150904248Y-91899158D01*
X150824285Y-91898493D01*
X150758857Y-91897717D01*
X150707966Y-91896831D01*
X150671613Y-91895833D01*
X150649801Y-91894725D01*
X150642529Y-91893505D01*
X150642738Y-91892927D01*
X150648161Y-91883046D01*
X150660593Y-91861709D01*
X150679580Y-91829661D01*
X150704667Y-91787650D01*
X150735399Y-91736422D01*
X150771323Y-91676724D01*
X150811983Y-91609304D01*
X150856925Y-91534907D01*
X150905696Y-91454281D01*
X150957839Y-91368172D01*
X151012902Y-91277327D01*
X151070429Y-91182493D01*
X151129966Y-91084417D01*
X151191059Y-90983845D01*
X151253253Y-90881524D01*
X151316094Y-90778202D01*
X151379128Y-90674625D01*
X151441899Y-90571539D01*
X151503953Y-90469691D01*
X151564837Y-90369829D01*
X151624095Y-90272699D01*
X151681273Y-90179048D01*
X151735917Y-90089623D01*
X151787573Y-90005169D01*
X151835785Y-89926435D01*
X151880099Y-89854167D01*
X151920062Y-89789112D01*
X151955218Y-89732017D01*
X151985113Y-89683628D01*
X152009293Y-89644692D01*
X152027303Y-89615956D01*
X152038689Y-89598166D01*
X152042996Y-89592071D01*
X152045294Y-89594006D01*
G37*
G36*
X142476527Y-91391048D02*
G01*
X142476365Y-91391979D01*
X142461598Y-91445432D01*
X142437762Y-91487785D01*
X142404364Y-91519681D01*
X142360914Y-91541758D01*
X142360635Y-91541858D01*
X142313164Y-91551636D01*
X142264300Y-91549107D01*
X142217939Y-91534951D01*
X142177981Y-91509847D01*
X142153478Y-91486317D01*
X142135295Y-91460937D01*
X142123954Y-91431785D01*
X142118125Y-91395366D01*
X142116477Y-91348183D01*
X142116479Y-91345143D01*
X142191921Y-91345143D01*
X142193267Y-91370969D01*
X142202654Y-91413970D01*
X142220220Y-91448230D01*
X142245055Y-91471580D01*
X142268421Y-91481421D01*
X142302898Y-91485550D01*
X142335221Y-91479300D01*
X142344167Y-91474930D01*
X142368903Y-91453196D01*
X142387163Y-91421973D01*
X142398297Y-91384252D01*
X142401655Y-91343023D01*
X142396587Y-91301276D01*
X142382444Y-91262000D01*
X142381461Y-91260112D01*
X142359736Y-91231824D01*
X142330288Y-91215357D01*
X142291917Y-91210021D01*
X142261985Y-91214559D01*
X142232480Y-91231269D01*
X142210457Y-91259292D01*
X142196682Y-91297595D01*
X142191921Y-91345143D01*
X142116479Y-91345143D01*
X142116483Y-91340462D01*
X142116908Y-91307768D01*
X142118576Y-91284691D01*
X142122290Y-91267097D01*
X142128852Y-91250856D01*
X142139064Y-91231836D01*
X142156961Y-91204953D01*
X142190037Y-91173600D01*
X142230729Y-91154152D01*
X142280376Y-91145795D01*
X142304971Y-91145474D01*
X142334966Y-91147589D01*
X142357597Y-91151964D01*
X142391122Y-91167037D01*
X142427549Y-91196432D01*
X142455186Y-91235305D01*
X142473150Y-91281882D01*
X142480557Y-91334388D01*
X142479943Y-91343023D01*
X142476527Y-91391048D01*
G37*
G36*
X147438422Y-90662755D02*
G01*
X147448592Y-90670465D01*
X147469183Y-90686305D01*
X147499382Y-90709642D01*
X147538380Y-90739847D01*
X147585366Y-90776286D01*
X147639529Y-90818330D01*
X147700058Y-90865346D01*
X147766143Y-90916705D01*
X147836973Y-90971774D01*
X147911737Y-91029922D01*
X147989625Y-91090518D01*
X148069827Y-91152931D01*
X148151530Y-91216529D01*
X148233926Y-91280682D01*
X148316203Y-91344758D01*
X148397550Y-91408126D01*
X148477158Y-91470154D01*
X148554214Y-91530212D01*
X148627909Y-91587668D01*
X148697432Y-91641891D01*
X148761972Y-91692250D01*
X148820719Y-91738113D01*
X148872861Y-91778850D01*
X148917589Y-91813829D01*
X148954092Y-91842418D01*
X148981558Y-91863988D01*
X148999178Y-91877905D01*
X149006140Y-91883540D01*
X149006388Y-91883813D01*
X149005792Y-91885379D01*
X149001027Y-91886772D01*
X148991354Y-91888004D01*
X148976031Y-91889082D01*
X148954317Y-91890017D01*
X148925470Y-91890818D01*
X148888750Y-91891495D01*
X148843416Y-91892056D01*
X148788725Y-91892512D01*
X148723939Y-91892871D01*
X148648314Y-91893144D01*
X148561111Y-91893340D01*
X148461587Y-91893468D01*
X148349003Y-91893538D01*
X148222616Y-91893559D01*
X147428444Y-91893559D01*
X147428444Y-91275037D01*
X147428448Y-91236156D01*
X147428513Y-91128007D01*
X147428666Y-91033380D01*
X147428918Y-90951509D01*
X147429281Y-90881626D01*
X147429766Y-90822965D01*
X147430384Y-90774760D01*
X147431147Y-90736242D01*
X147432067Y-90706645D01*
X147433154Y-90685202D01*
X147434420Y-90671146D01*
X147435876Y-90663710D01*
X147437534Y-90662127D01*
X147438422Y-90662755D01*
G37*
G36*
X143286295Y-91382862D02*
G01*
X143283452Y-91407020D01*
X143277271Y-91428154D01*
X143266657Y-91451865D01*
X143246193Y-91485396D01*
X143212079Y-91519011D01*
X143169069Y-91541415D01*
X143164936Y-91542804D01*
X143125602Y-91550154D01*
X143081802Y-91550215D01*
X143040825Y-91542902D01*
X143036537Y-91541508D01*
X143003973Y-91523921D01*
X142973114Y-91496476D01*
X142947695Y-91463105D01*
X142931453Y-91427745D01*
X142929550Y-91421034D01*
X142920460Y-91365976D01*
X142921485Y-91338139D01*
X142999941Y-91338139D01*
X143001867Y-91378877D01*
X143011277Y-91416897D01*
X143028105Y-91448910D01*
X143052284Y-91471624D01*
X143077045Y-91481865D01*
X143107224Y-91486318D01*
X143134916Y-91481059D01*
X143164208Y-91463691D01*
X143188105Y-91436742D01*
X143203557Y-91402854D01*
X143204462Y-91399485D01*
X143210206Y-91358052D01*
X143207407Y-91316240D01*
X143196979Y-91277570D01*
X143179842Y-91245561D01*
X143156910Y-91223733D01*
X143137602Y-91215151D01*
X143105254Y-91209988D01*
X143073256Y-91213577D01*
X143047320Y-91225811D01*
X143039734Y-91232514D01*
X143018808Y-91261668D01*
X143005566Y-91297973D01*
X142999941Y-91338139D01*
X142921485Y-91338139D01*
X142922430Y-91312454D01*
X142934688Y-91262688D01*
X142956458Y-91218899D01*
X142986966Y-91183310D01*
X143025438Y-91158142D01*
X143039746Y-91153035D01*
X143073656Y-91146749D01*
X143111856Y-91144815D01*
X143148336Y-91147377D01*
X143177088Y-91154574D01*
X143201071Y-91166759D01*
X143237923Y-91197448D01*
X143264701Y-91238254D01*
X143281118Y-91288668D01*
X143286884Y-91348183D01*
X143286893Y-91350074D01*
X143286747Y-91358052D01*
X143286295Y-91382862D01*
G37*
G36*
X144706431Y-91146937D02*
G01*
X144749586Y-91159453D01*
X144787453Y-91181431D01*
X144816905Y-91212564D01*
X144817446Y-91213362D01*
X144835548Y-91243879D01*
X144846833Y-91273816D01*
X144852630Y-91308121D01*
X144854267Y-91351742D01*
X144853559Y-91383682D01*
X144850517Y-91408208D01*
X144843868Y-91430041D01*
X144832340Y-91455186D01*
X144809837Y-91490745D01*
X144775047Y-91523876D01*
X144733312Y-91544728D01*
X144711569Y-91549047D01*
X144677240Y-91550279D01*
X144640557Y-91547237D01*
X144607069Y-91540448D01*
X144582324Y-91530436D01*
X144580486Y-91529280D01*
X144550517Y-91504520D01*
X144527623Y-91474570D01*
X144515285Y-91443925D01*
X144510680Y-91420900D01*
X144547761Y-91420900D01*
X144560423Y-91421060D01*
X144577695Y-91423198D01*
X144587910Y-91429628D01*
X144596059Y-91442592D01*
X144602979Y-91453492D01*
X144626689Y-91473963D01*
X144656785Y-91484480D01*
X144689525Y-91484161D01*
X144721164Y-91472122D01*
X144731867Y-91464935D01*
X144752094Y-91444710D01*
X144765921Y-91417550D01*
X144775547Y-91379722D01*
X144778835Y-91349627D01*
X144774610Y-91304140D01*
X144759422Y-91264210D01*
X144734053Y-91232608D01*
X144710829Y-91217490D01*
X144677844Y-91208924D01*
X144644709Y-91212557D01*
X144615248Y-91228519D01*
X144612012Y-91231352D01*
X144597136Y-91247347D01*
X144588749Y-91261242D01*
X144588733Y-91261294D01*
X144583113Y-91270098D01*
X144570977Y-91274356D01*
X144548366Y-91275466D01*
X144539903Y-91275403D01*
X144522266Y-91273978D01*
X144514337Y-91269532D01*
X144512498Y-91260562D01*
X144516391Y-91240922D01*
X144530830Y-91213485D01*
X144553661Y-91186774D01*
X144576502Y-91169224D01*
X144616763Y-91151516D01*
X144661115Y-91144190D01*
X144706431Y-91146937D01*
G37*
G36*
X142440067Y-87777785D02*
G01*
X142440067Y-88483139D01*
X142356443Y-88483139D01*
X142272819Y-88483139D01*
X142272819Y-88283628D01*
X142272819Y-88084118D01*
X142221542Y-88038209D01*
X142208711Y-88026891D01*
X142187649Y-88009112D01*
X142171895Y-87996863D01*
X142164147Y-87992300D01*
X142161708Y-87994381D01*
X142151049Y-88006309D01*
X142132950Y-88027798D01*
X142108362Y-88057678D01*
X142078238Y-88094780D01*
X142043532Y-88137934D01*
X142005197Y-88185970D01*
X141964186Y-88237719D01*
X141770342Y-88483139D01*
X141665324Y-88483139D01*
X141560306Y-88483139D01*
X141714396Y-88288621D01*
X141728686Y-88270582D01*
X141770874Y-88217324D01*
X141813872Y-88163043D01*
X141855712Y-88110222D01*
X141894427Y-88061347D01*
X141928047Y-88018902D01*
X141954605Y-87985372D01*
X142040725Y-87876640D01*
X141818639Y-87654467D01*
X141789031Y-87624799D01*
X141744273Y-87579759D01*
X141703517Y-87538511D01*
X141667813Y-87502135D01*
X141638213Y-87471706D01*
X141615769Y-87448303D01*
X141601531Y-87433003D01*
X141596552Y-87426883D01*
X141596991Y-87426368D01*
X141607007Y-87424449D01*
X141628243Y-87422894D01*
X141658037Y-87421852D01*
X141693725Y-87421472D01*
X141790899Y-87421472D01*
X142024580Y-87657802D01*
X142065164Y-87698735D01*
X142110716Y-87744400D01*
X142152374Y-87785863D01*
X142189090Y-87822095D01*
X142219814Y-87852067D01*
X142243497Y-87874750D01*
X142259088Y-87889115D01*
X142265540Y-87894132D01*
X142266694Y-87891145D01*
X142268299Y-87874670D01*
X142269666Y-87843956D01*
X142270792Y-87799189D01*
X142271674Y-87740553D01*
X142272308Y-87668233D01*
X142272690Y-87582415D01*
X142272819Y-87483282D01*
X142272819Y-87072431D01*
X142356443Y-87072431D01*
X142440067Y-87072431D01*
X142440067Y-87777785D01*
G37*
G36*
X141901963Y-89115775D02*
G01*
X141901963Y-89239394D01*
X141981951Y-89239394D01*
X142061940Y-89239394D01*
X142061940Y-89312111D01*
X142061940Y-89384828D01*
X141981951Y-89384828D01*
X141901963Y-89384828D01*
X141901963Y-89736738D01*
X141901961Y-89762294D01*
X141901911Y-89839353D01*
X141901758Y-89903658D01*
X141901449Y-89956587D01*
X141900935Y-89999519D01*
X141900165Y-90033834D01*
X141899089Y-90060911D01*
X141897656Y-90082127D01*
X141895815Y-90098863D01*
X141893517Y-90112498D01*
X141890710Y-90124410D01*
X141887344Y-90135978D01*
X141877002Y-90162824D01*
X141847564Y-90210061D01*
X141806928Y-90250572D01*
X141756863Y-90282769D01*
X141699137Y-90305063D01*
X141682742Y-90308756D01*
X141650439Y-90312875D01*
X141615077Y-90314448D01*
X141579579Y-90313674D01*
X141546869Y-90310754D01*
X141519870Y-90305886D01*
X141501505Y-90299271D01*
X141494698Y-90291107D01*
X141495065Y-90287634D01*
X141497950Y-90271737D01*
X141503083Y-90247118D01*
X141509717Y-90217436D01*
X141524787Y-90151991D01*
X141592859Y-90151991D01*
X141626909Y-90151186D01*
X141656648Y-90147317D01*
X141678916Y-90138837D01*
X141697475Y-90124218D01*
X141716085Y-90101932D01*
X141718392Y-90098701D01*
X141721473Y-90093251D01*
X141724027Y-90086102D01*
X141726115Y-90075968D01*
X141727796Y-90061566D01*
X141729129Y-90041610D01*
X141730174Y-90014818D01*
X141730991Y-89979903D01*
X141731639Y-89935583D01*
X141732177Y-89880573D01*
X141732665Y-89813588D01*
X141733163Y-89733344D01*
X141735248Y-89384828D01*
X141622007Y-89384828D01*
X141508765Y-89384828D01*
X141510846Y-89313929D01*
X141512927Y-89243030D01*
X141623821Y-89241022D01*
X141734714Y-89239015D01*
X141734714Y-89115586D01*
X141734714Y-88992157D01*
X141818338Y-88992157D01*
X141901963Y-88992157D01*
X141901963Y-89115775D01*
G37*
G36*
X152569526Y-88041020D02*
G01*
X152569524Y-88075621D01*
X152569471Y-88208304D01*
X152569351Y-88336754D01*
X152569167Y-88460234D01*
X152568924Y-88578008D01*
X152568624Y-88689339D01*
X152568273Y-88793491D01*
X152567872Y-88889728D01*
X152567426Y-88977313D01*
X152566938Y-89055510D01*
X152566413Y-89123582D01*
X152565854Y-89180793D01*
X152565264Y-89226406D01*
X152564647Y-89259686D01*
X152564007Y-89279894D01*
X152563347Y-89286296D01*
X152560199Y-89282319D01*
X152548637Y-89267407D01*
X152529109Y-89242102D01*
X152502111Y-89207049D01*
X152468137Y-89162893D01*
X152427682Y-89110280D01*
X152381241Y-89049854D01*
X152329308Y-88982260D01*
X152272378Y-88908142D01*
X152210947Y-88828147D01*
X152145508Y-88742919D01*
X152076557Y-88653103D01*
X152004588Y-88559343D01*
X151930097Y-88462285D01*
X151853577Y-88362574D01*
X151775524Y-88260855D01*
X151696432Y-88157772D01*
X151616796Y-88053971D01*
X151537112Y-87950096D01*
X151457873Y-87846792D01*
X151379575Y-87744705D01*
X151302711Y-87644479D01*
X151227778Y-87546760D01*
X151155270Y-87452192D01*
X151085681Y-87361419D01*
X151019507Y-87275088D01*
X150957241Y-87193843D01*
X150899380Y-87118329D01*
X150846417Y-87049191D01*
X150798848Y-86987074D01*
X150757166Y-86932622D01*
X150721868Y-86886482D01*
X150693447Y-86849297D01*
X150672399Y-86821712D01*
X150659218Y-86804374D01*
X150654399Y-86797925D01*
X150654444Y-86797397D01*
X150658267Y-86796100D01*
X150667949Y-86794933D01*
X150684110Y-86793890D01*
X150707371Y-86792963D01*
X150738352Y-86792148D01*
X150777674Y-86791439D01*
X150825956Y-86790830D01*
X150883820Y-86790314D01*
X150951884Y-86789887D01*
X151030770Y-86789541D01*
X151121098Y-86789271D01*
X151223488Y-86789072D01*
X151338561Y-86788937D01*
X151466936Y-86788860D01*
X151609234Y-86788836D01*
X152569526Y-86788836D01*
X152569526Y-88041020D01*
G37*
G36*
X141180083Y-91297264D02*
G01*
X141186756Y-91317840D01*
X141200719Y-91360128D01*
X141213051Y-91396463D01*
X141223063Y-91424866D01*
X141230065Y-91443361D01*
X141233366Y-91449969D01*
X141234351Y-91448588D01*
X141239383Y-91436371D01*
X141247780Y-91413152D01*
X141258857Y-91380912D01*
X141271928Y-91341628D01*
X141286305Y-91297281D01*
X141335210Y-91144576D01*
X141374985Y-91144576D01*
X141391239Y-91145202D01*
X141408187Y-91147792D01*
X141414760Y-91151706D01*
X141414695Y-91152192D01*
X141411567Y-91162672D01*
X141404193Y-91184723D01*
X141393201Y-91216542D01*
X141379218Y-91256326D01*
X141362874Y-91302270D01*
X141344796Y-91352573D01*
X141329792Y-91394196D01*
X141312606Y-91442338D01*
X141299614Y-91479743D01*
X141290343Y-91508117D01*
X141284319Y-91529166D01*
X141281066Y-91544596D01*
X141280111Y-91556114D01*
X141280981Y-91565426D01*
X141283200Y-91574238D01*
X141296491Y-91601443D01*
X141318634Y-91618793D01*
X141349430Y-91624507D01*
X141354266Y-91624546D01*
X141369002Y-91626656D01*
X141377044Y-91634934D01*
X141383118Y-91653435D01*
X141384787Y-91660171D01*
X141387713Y-91677420D01*
X141387044Y-91686157D01*
X141382325Y-91688308D01*
X141365437Y-91690196D01*
X141341679Y-91689910D01*
X141315794Y-91687754D01*
X141292524Y-91684033D01*
X141276612Y-91679052D01*
X141273588Y-91677354D01*
X141254538Y-91662666D01*
X141237148Y-91644047D01*
X141232839Y-91636114D01*
X141223722Y-91615652D01*
X141211082Y-91585208D01*
X141195660Y-91546743D01*
X141178196Y-91502214D01*
X141159429Y-91453580D01*
X141140099Y-91402800D01*
X141120946Y-91351831D01*
X141102710Y-91302632D01*
X141086130Y-91257163D01*
X141071947Y-91217381D01*
X141060900Y-91185244D01*
X141053730Y-91162712D01*
X141051175Y-91151743D01*
X141054687Y-91148809D01*
X141069154Y-91145759D01*
X141091005Y-91144576D01*
X141130834Y-91144576D01*
X141180083Y-91297264D01*
G37*
G36*
X143166006Y-87418643D02*
G01*
X143232840Y-87434170D01*
X143290551Y-87460894D01*
X143339016Y-87498756D01*
X143378115Y-87547698D01*
X143391255Y-87567496D01*
X143402527Y-87582503D01*
X143408781Y-87588372D01*
X143410799Y-87582977D01*
X143412966Y-87565723D01*
X143414803Y-87539407D01*
X143416053Y-87506915D01*
X143418109Y-87425108D01*
X143496280Y-87423044D01*
X143574450Y-87420980D01*
X143574450Y-87952059D01*
X143574450Y-88483139D01*
X143491082Y-88483139D01*
X143407713Y-88483139D01*
X143405639Y-88117736D01*
X143403566Y-87752334D01*
X143384220Y-87711066D01*
X143383906Y-87710398D01*
X143351645Y-87657588D01*
X143309974Y-87615222D01*
X143259932Y-87584357D01*
X143243920Y-87577285D01*
X143223442Y-87570004D01*
X143202781Y-87565893D01*
X143177156Y-87564125D01*
X143141785Y-87563869D01*
X143106071Y-87564748D01*
X143072260Y-87568345D01*
X143044520Y-87575987D01*
X143018256Y-87589026D01*
X142988872Y-87608812D01*
X142961964Y-87634921D01*
X142936778Y-87673367D01*
X142917364Y-87718887D01*
X142905713Y-87767681D01*
X142904610Y-87779177D01*
X142903171Y-87806328D01*
X142901857Y-87845013D01*
X142900701Y-87893489D01*
X142899736Y-87950015D01*
X142898996Y-88012847D01*
X142898516Y-88080243D01*
X142898328Y-88150459D01*
X142898184Y-88483139D01*
X142817849Y-88483139D01*
X142737514Y-88483139D01*
X142740055Y-88085014D01*
X142740061Y-88084035D01*
X142740664Y-87996381D01*
X142741289Y-87922045D01*
X142741978Y-87859811D01*
X142742771Y-87808468D01*
X142743710Y-87766800D01*
X142744835Y-87733593D01*
X142746188Y-87707635D01*
X142747810Y-87687712D01*
X142749742Y-87672609D01*
X142752024Y-87661113D01*
X142754698Y-87652010D01*
X142769942Y-87613014D01*
X142803635Y-87551008D01*
X142845169Y-87500993D01*
X142895019Y-87462640D01*
X142953659Y-87435624D01*
X143021563Y-87419615D01*
X143099207Y-87414287D01*
X143166006Y-87418643D01*
G37*
G36*
X138961399Y-89233123D02*
G01*
X139010515Y-89236983D01*
X139055048Y-89243924D01*
X139090125Y-89253654D01*
X139118815Y-89268152D01*
X139153733Y-89292346D01*
X139187886Y-89321584D01*
X139217084Y-89352247D01*
X139237140Y-89380713D01*
X139240328Y-89386389D01*
X139249984Y-89400849D01*
X139256484Y-89406643D01*
X139258558Y-89401139D01*
X139260781Y-89383773D01*
X139262656Y-89357372D01*
X139263920Y-89324836D01*
X139265976Y-89243030D01*
X139344147Y-89240966D01*
X139422318Y-89238902D01*
X139422318Y-89769981D01*
X139422318Y-90301060D01*
X139339008Y-90301060D01*
X139255699Y-90301060D01*
X139253566Y-89935489D01*
X139251433Y-89569918D01*
X139227729Y-89521786D01*
X139196651Y-89472252D01*
X139155354Y-89431699D01*
X139103236Y-89400393D01*
X139092096Y-89395368D01*
X139072080Y-89388038D01*
X139051418Y-89383779D01*
X139025484Y-89381815D01*
X138989652Y-89381373D01*
X138962588Y-89381944D01*
X138918102Y-89386653D01*
X138882086Y-89397202D01*
X138850864Y-89414889D01*
X138820758Y-89441011D01*
X138792555Y-89475266D01*
X138768331Y-89523414D01*
X138753729Y-89581163D01*
X138753125Y-89585799D01*
X138751439Y-89608777D01*
X138749935Y-89644448D01*
X138748641Y-89691428D01*
X138747583Y-89748331D01*
X138746789Y-89813775D01*
X138746288Y-89886374D01*
X138746106Y-89964745D01*
X138746051Y-90301060D01*
X138666062Y-90301060D01*
X138586074Y-90301060D01*
X138586181Y-89921114D01*
X138586246Y-89848037D01*
X138586457Y-89771086D01*
X138586845Y-89706441D01*
X138587439Y-89652872D01*
X138588272Y-89609149D01*
X138589376Y-89574042D01*
X138590782Y-89546322D01*
X138592522Y-89524759D01*
X138594627Y-89508123D01*
X138597129Y-89495184D01*
X138608119Y-89456728D01*
X138636837Y-89392489D01*
X138675870Y-89338006D01*
X138724615Y-89293892D01*
X138782470Y-89260760D01*
X138848830Y-89239224D01*
X138868907Y-89235806D01*
X138912572Y-89232633D01*
X138961399Y-89233123D01*
G37*
G36*
X140405663Y-91012452D02*
G01*
X140447099Y-91020806D01*
X140484166Y-91037680D01*
X140522055Y-91064897D01*
X140535077Y-91077124D01*
X140562641Y-91115069D01*
X140583871Y-91162404D01*
X140597879Y-91216131D01*
X140603780Y-91273251D01*
X140600685Y-91330764D01*
X140592067Y-91374233D01*
X140570636Y-91430926D01*
X140539020Y-91477242D01*
X140497212Y-91513188D01*
X140445208Y-91538771D01*
X140400894Y-91548917D01*
X140348504Y-91549443D01*
X140296358Y-91539510D01*
X140248403Y-91519908D01*
X140208587Y-91491426D01*
X140195848Y-91476956D01*
X140179507Y-91453300D01*
X140164639Y-91427278D01*
X140153802Y-91403445D01*
X140149557Y-91386359D01*
X140150675Y-91383452D01*
X140162780Y-91378795D01*
X140188598Y-91377270D01*
X140206396Y-91377556D01*
X140221734Y-91379913D01*
X140230344Y-91386416D01*
X140236760Y-91399118D01*
X140241770Y-91409009D01*
X140262990Y-91435193D01*
X140291461Y-91457446D01*
X140321990Y-91471364D01*
X140322054Y-91471382D01*
X140368679Y-91477889D01*
X140411189Y-91471455D01*
X140448523Y-91453355D01*
X140479622Y-91424865D01*
X140503426Y-91387261D01*
X140518873Y-91341819D01*
X140524904Y-91289815D01*
X140520458Y-91232526D01*
X140514729Y-91206322D01*
X140495547Y-91158776D01*
X140467090Y-91121900D01*
X140429833Y-91096218D01*
X140384252Y-91082254D01*
X140358491Y-91080941D01*
X140319307Y-91088702D01*
X140283533Y-91106563D01*
X140254671Y-91132573D01*
X140236219Y-91164779D01*
X140231470Y-91176697D01*
X140224426Y-91184542D01*
X140211662Y-91187653D01*
X140188769Y-91188206D01*
X140179807Y-91188139D01*
X140160738Y-91186774D01*
X140151743Y-91182795D01*
X140149486Y-91175090D01*
X140152048Y-91161264D01*
X140162109Y-91136691D01*
X140177389Y-91109250D01*
X140195295Y-91083465D01*
X140213233Y-91063861D01*
X140238865Y-91043805D01*
X140275644Y-91024353D01*
X140317143Y-91013802D01*
X140367637Y-91010679D01*
X140405663Y-91012452D01*
G37*
G36*
X145376151Y-91318871D02*
G01*
X145376757Y-91373028D01*
X145366210Y-91428670D01*
X145363465Y-91436878D01*
X145345255Y-91471472D01*
X145319031Y-91503186D01*
X145288422Y-91528226D01*
X145257053Y-91542802D01*
X145247054Y-91545251D01*
X145194070Y-91551699D01*
X145144530Y-91547139D01*
X145100548Y-91532234D01*
X145064240Y-91507648D01*
X145037721Y-91474042D01*
X145021203Y-91444123D01*
X145057790Y-91439091D01*
X145072546Y-91437280D01*
X145089381Y-91437430D01*
X145101530Y-91443122D01*
X145115012Y-91456150D01*
X145118744Y-91459999D01*
X145142695Y-91477595D01*
X145171032Y-91485331D01*
X145207829Y-91484448D01*
X145228235Y-91480191D01*
X145259900Y-91462945D01*
X145283404Y-91433970D01*
X145298211Y-91393802D01*
X145303580Y-91369998D01*
X145161592Y-91369998D01*
X145019603Y-91369998D01*
X145022989Y-91317278D01*
X145023331Y-91312455D01*
X145025003Y-91302735D01*
X145094392Y-91302735D01*
X145095753Y-91305235D01*
X145104665Y-91308334D01*
X145123276Y-91310369D01*
X145153196Y-91311485D01*
X145196036Y-91311824D01*
X145214259Y-91311818D01*
X145249146Y-91311630D01*
X145272658Y-91310908D01*
X145287037Y-91309291D01*
X145294527Y-91306418D01*
X145297372Y-91301929D01*
X145297813Y-91295463D01*
X145296759Y-91286192D01*
X145286483Y-91261206D01*
X145268237Y-91237467D01*
X145245703Y-91220290D01*
X145226813Y-91212584D01*
X145191042Y-91208050D01*
X145157339Y-91215616D01*
X145128762Y-91234325D01*
X145108364Y-91263223D01*
X145104547Y-91271972D01*
X145097330Y-91290972D01*
X145094392Y-91302735D01*
X145025003Y-91302735D01*
X145032503Y-91259127D01*
X145051250Y-91216257D01*
X145080125Y-91182932D01*
X145119684Y-91158238D01*
X145121848Y-91157280D01*
X145156598Y-91147859D01*
X145197532Y-91144861D01*
X145238259Y-91148287D01*
X145272389Y-91158142D01*
X145277238Y-91160457D01*
X145314937Y-91186993D01*
X145344489Y-91223687D01*
X145365145Y-91268368D01*
X145371050Y-91295463D01*
X145376151Y-91318871D01*
G37*
G36*
X139797316Y-87414213D02*
G01*
X139868272Y-87418951D01*
X139928478Y-87432400D01*
X139978945Y-87454781D01*
X139997421Y-87467733D01*
X140021409Y-87488264D01*
X140046198Y-87512291D01*
X140068741Y-87536679D01*
X140085989Y-87558295D01*
X140094893Y-87574003D01*
X140095272Y-87575179D01*
X140101362Y-87588212D01*
X140106320Y-87587242D01*
X140110018Y-87572747D01*
X140112329Y-87545206D01*
X140113128Y-87505097D01*
X140113128Y-87421472D01*
X140193116Y-87421472D01*
X140273105Y-87421472D01*
X140273105Y-87952305D01*
X140273105Y-88483139D01*
X140189795Y-88483139D01*
X140106486Y-88483139D01*
X140104353Y-88117568D01*
X140102220Y-87751997D01*
X140078517Y-87703864D01*
X140047438Y-87654330D01*
X140006141Y-87613777D01*
X139954023Y-87582471D01*
X139943299Y-87577628D01*
X139923145Y-87570207D01*
X139902375Y-87565869D01*
X139876352Y-87563830D01*
X139840439Y-87563309D01*
X139815318Y-87563474D01*
X139787322Y-87564758D01*
X139766176Y-87568013D01*
X139747295Y-87574058D01*
X139726098Y-87583711D01*
X139682417Y-87612099D01*
X139644789Y-87653077D01*
X139616982Y-87704491D01*
X139616508Y-87705671D01*
X139612918Y-87715015D01*
X139609904Y-87724477D01*
X139607407Y-87735368D01*
X139605367Y-87749001D01*
X139603724Y-87766686D01*
X139602418Y-87789735D01*
X139601389Y-87819459D01*
X139600579Y-87857169D01*
X139599926Y-87904177D01*
X139599372Y-87961794D01*
X139598857Y-88031331D01*
X139598320Y-88114100D01*
X139595989Y-88483139D01*
X139512223Y-88483139D01*
X139428458Y-88483139D01*
X139431334Y-88103193D01*
X139431942Y-88025230D01*
X139432579Y-87952965D01*
X139433245Y-87892659D01*
X139433998Y-87842965D01*
X139434896Y-87802535D01*
X139435997Y-87770020D01*
X139437357Y-87744074D01*
X139439036Y-87723349D01*
X139441090Y-87706496D01*
X139443578Y-87692169D01*
X139446557Y-87679020D01*
X139450086Y-87665700D01*
X139466514Y-87616568D01*
X139498077Y-87554614D01*
X139538741Y-87503989D01*
X139588543Y-87464664D01*
X139647523Y-87436610D01*
X139715720Y-87419798D01*
X139793174Y-87414201D01*
X139797316Y-87414213D01*
G37*
G36*
X138763253Y-91144650D02*
G01*
X138811400Y-91150819D01*
X138850970Y-91166244D01*
X138880745Y-91189993D01*
X138899504Y-91221131D01*
X138906028Y-91258723D01*
X138905351Y-91274608D01*
X138898609Y-91304256D01*
X138883403Y-91327970D01*
X138858217Y-91347084D01*
X138821533Y-91362935D01*
X138771835Y-91376857D01*
X138742857Y-91384276D01*
X138712639Y-91394592D01*
X138693516Y-91405798D01*
X138683502Y-91419185D01*
X138680606Y-91436042D01*
X138683238Y-91451168D01*
X138697549Y-91470111D01*
X138723072Y-91482136D01*
X138758417Y-91486345D01*
X138778508Y-91485713D01*
X138805084Y-91480817D01*
X138823242Y-91469682D01*
X138836599Y-91450659D01*
X138841434Y-91441898D01*
X138848901Y-91434360D01*
X138860599Y-91433038D01*
X138881525Y-91436339D01*
X138892707Y-91438552D01*
X138910366Y-91442683D01*
X138918582Y-91445573D01*
X138918915Y-91446453D01*
X138917001Y-91456707D01*
X138910861Y-91473693D01*
X138909417Y-91476906D01*
X138890540Y-91503185D01*
X138862412Y-91526544D01*
X138829675Y-91543016D01*
X138825674Y-91544296D01*
X138794335Y-91549696D01*
X138756418Y-91550753D01*
X138718177Y-91547586D01*
X138685867Y-91540312D01*
X138655306Y-91524850D01*
X138626398Y-91500296D01*
X138622424Y-91495835D01*
X138608418Y-91477172D01*
X138602094Y-91459307D01*
X138600617Y-91435061D01*
X138600949Y-91423314D01*
X138606853Y-91391044D01*
X138621284Y-91365538D01*
X138645732Y-91345432D01*
X138681685Y-91329360D01*
X138730634Y-91315959D01*
X138775405Y-91304048D01*
X138807183Y-91290876D01*
X138825789Y-91276086D01*
X138831908Y-91259129D01*
X138826227Y-91239458D01*
X138823875Y-91235466D01*
X138803781Y-91216245D01*
X138776690Y-91206085D01*
X138746537Y-91205202D01*
X138717253Y-91213811D01*
X138692771Y-91232129D01*
X138687980Y-91237391D01*
X138674838Y-91248837D01*
X138661131Y-91252361D01*
X138640051Y-91250311D01*
X138619207Y-91245577D01*
X138609647Y-91237537D01*
X138611619Y-91223847D01*
X138624309Y-91202007D01*
X138633029Y-91190558D01*
X138664538Y-91165223D01*
X138706091Y-91149790D01*
X138756958Y-91144576D01*
X138763253Y-91144650D01*
G37*
G36*
X142665849Y-89233137D02*
G01*
X142712153Y-89236790D01*
X142749404Y-89243372D01*
X142786675Y-89254765D01*
X142858282Y-89287499D01*
X142922255Y-89332020D01*
X142977848Y-89387515D01*
X143024313Y-89453168D01*
X143060906Y-89528166D01*
X143086880Y-89611694D01*
X143090245Y-89626806D01*
X143104089Y-89720203D01*
X143106167Y-89812212D01*
X143096848Y-89901240D01*
X143076495Y-89985692D01*
X143045475Y-90063975D01*
X143004153Y-90134495D01*
X142952896Y-90195658D01*
X142944285Y-90204067D01*
X142887704Y-90250405D01*
X142826917Y-90284456D01*
X142758555Y-90308171D01*
X142719301Y-90315849D01*
X142665171Y-90321110D01*
X142607825Y-90322224D01*
X142552957Y-90319112D01*
X142506262Y-90311695D01*
X142452256Y-90294362D01*
X142391082Y-90263369D01*
X142335692Y-90223044D01*
X142288898Y-90175490D01*
X142253515Y-90122809D01*
X142249866Y-90115699D01*
X142236228Y-90085877D01*
X142224458Y-90055449D01*
X142215676Y-90027837D01*
X142211005Y-90006464D01*
X142211564Y-89994752D01*
X142216561Y-89992773D01*
X142233672Y-89990502D01*
X142259732Y-89988952D01*
X142291521Y-89988378D01*
X142367539Y-89988378D01*
X142386142Y-90027668D01*
X142388669Y-90032896D01*
X142421015Y-90084705D01*
X142461289Y-90124479D01*
X142510289Y-90152840D01*
X142568814Y-90170412D01*
X142569164Y-90170480D01*
X142634359Y-90176027D01*
X142697977Y-90167120D01*
X142759937Y-90143769D01*
X142796498Y-90122000D01*
X142843950Y-90079906D01*
X142882045Y-90026851D01*
X142910686Y-89963016D01*
X142929778Y-89888584D01*
X142939223Y-89803737D01*
X142939966Y-89782835D01*
X142936320Y-89702041D01*
X142922493Y-89628311D01*
X142899157Y-89562477D01*
X142866985Y-89505374D01*
X142826649Y-89457833D01*
X142778823Y-89420688D01*
X142724177Y-89394772D01*
X142663386Y-89380918D01*
X142597121Y-89379959D01*
X142564294Y-89384622D01*
X142507460Y-89403156D01*
X142458164Y-89433813D01*
X142417420Y-89475877D01*
X142386243Y-89528634D01*
X142372413Y-89559348D01*
X142289755Y-89559348D01*
X142207096Y-89559348D01*
X142211790Y-89539351D01*
X142232462Y-89474030D01*
X142266628Y-89408386D01*
X142311789Y-89352037D01*
X142367506Y-89305422D01*
X142433342Y-89268977D01*
X142508858Y-89243139D01*
X142524566Y-89239805D01*
X142566861Y-89234639D01*
X142615687Y-89232418D01*
X142665849Y-89233137D01*
G37*
G36*
X137437506Y-89233137D02*
G01*
X137483810Y-89236790D01*
X137521062Y-89243372D01*
X137558333Y-89254765D01*
X137629940Y-89287499D01*
X137693913Y-89332020D01*
X137749505Y-89387515D01*
X137795971Y-89453168D01*
X137832564Y-89528166D01*
X137858538Y-89611694D01*
X137861903Y-89626806D01*
X137875746Y-89720203D01*
X137877825Y-89812212D01*
X137868505Y-89901240D01*
X137848152Y-89985692D01*
X137817132Y-90063975D01*
X137775811Y-90134495D01*
X137724553Y-90195658D01*
X137715942Y-90204067D01*
X137659362Y-90250405D01*
X137598575Y-90284456D01*
X137530212Y-90308171D01*
X137490959Y-90315849D01*
X137436828Y-90321110D01*
X137379482Y-90322224D01*
X137324615Y-90319112D01*
X137277920Y-90311695D01*
X137223913Y-90294362D01*
X137162740Y-90263369D01*
X137107349Y-90223044D01*
X137060555Y-90175490D01*
X137025173Y-90122809D01*
X137021524Y-90115699D01*
X137007886Y-90085877D01*
X136996116Y-90055449D01*
X136987334Y-90027837D01*
X136982662Y-90006464D01*
X136983221Y-89994752D01*
X136988172Y-89992781D01*
X137005236Y-89990507D01*
X137031258Y-89988953D01*
X137063010Y-89988378D01*
X137138859Y-89988378D01*
X137162078Y-90035998D01*
X137174184Y-90058151D01*
X137210338Y-90104275D01*
X137255394Y-90139468D01*
X137308296Y-90163191D01*
X137367988Y-90174910D01*
X137433415Y-90174084D01*
X137466570Y-90168563D01*
X137525300Y-90147943D01*
X137577867Y-90114589D01*
X137623336Y-90069164D01*
X137660772Y-90012333D01*
X137673474Y-89985672D01*
X137695509Y-89918978D01*
X137708412Y-89845827D01*
X137712132Y-89769626D01*
X137706618Y-89693783D01*
X137691816Y-89621707D01*
X137667676Y-89556805D01*
X137647328Y-89518745D01*
X137614329Y-89473506D01*
X137574860Y-89437774D01*
X137526127Y-89408623D01*
X137521396Y-89406290D01*
X137496295Y-89394473D01*
X137476239Y-89387097D01*
X137456332Y-89383121D01*
X137431677Y-89381500D01*
X137397377Y-89381192D01*
X137363288Y-89381528D01*
X137338240Y-89383181D01*
X137318324Y-89387089D01*
X137298790Y-89394193D01*
X137274886Y-89405434D01*
X137229161Y-89434375D01*
X137188750Y-89476059D01*
X137157901Y-89528634D01*
X137144071Y-89559348D01*
X137061412Y-89559348D01*
X136978754Y-89559348D01*
X136983447Y-89539351D01*
X137004120Y-89474030D01*
X137038286Y-89408386D01*
X137083446Y-89352037D01*
X137139164Y-89305422D01*
X137205000Y-89268977D01*
X137280516Y-89243139D01*
X137296224Y-89239805D01*
X137338519Y-89234639D01*
X137387345Y-89232418D01*
X137437506Y-89233137D01*
G37*
G36*
X137264005Y-91463798D02*
G01*
X137254374Y-91493237D01*
X137235183Y-91515917D01*
X137204305Y-91535429D01*
X137176223Y-91546127D01*
X137135521Y-91551522D01*
X137095350Y-91546896D01*
X137059506Y-91532813D01*
X137031787Y-91509837D01*
X137015462Y-91489981D01*
X137015425Y-91517250D01*
X137015389Y-91544518D01*
X136979031Y-91544518D01*
X136942672Y-91544518D01*
X136942672Y-91385617D01*
X136942672Y-91385571D01*
X137015417Y-91385571D01*
X137021007Y-91419674D01*
X137036873Y-91451380D01*
X137060490Y-91474504D01*
X137084113Y-91484956D01*
X137113763Y-91489628D01*
X137142987Y-91487451D01*
X137167472Y-91478796D01*
X137182906Y-91464029D01*
X137184554Y-91460636D01*
X137189144Y-91435322D01*
X137183251Y-91410087D01*
X137168095Y-91390949D01*
X137152569Y-91383441D01*
X137127535Y-91375737D01*
X137099014Y-91369858D01*
X137071525Y-91365399D01*
X137047117Y-91361075D01*
X137031751Y-91357927D01*
X137027522Y-91356985D01*
X137019442Y-91357653D01*
X137016077Y-91366048D01*
X137015417Y-91385571D01*
X136942672Y-91385571D01*
X136942704Y-91344974D01*
X136942938Y-91302380D01*
X136943562Y-91270660D01*
X136944765Y-91247724D01*
X136946732Y-91231481D01*
X136949651Y-91219841D01*
X136953709Y-91210713D01*
X136959092Y-91202007D01*
X136964689Y-91194769D01*
X136984867Y-91175847D01*
X137008176Y-91160432D01*
X137012023Y-91158477D01*
X137029905Y-91150816D01*
X137047984Y-91146698D01*
X137071018Y-91145420D01*
X137103767Y-91146276D01*
X137106731Y-91146407D01*
X137138904Y-91148549D01*
X137161536Y-91152256D01*
X137179275Y-91158659D01*
X137196765Y-91168888D01*
X137198631Y-91170153D01*
X137218354Y-91186647D01*
X137236616Y-91206573D01*
X137250060Y-91225835D01*
X137255328Y-91240337D01*
X137253268Y-91242437D01*
X137240812Y-91247428D01*
X137220814Y-91252642D01*
X137205563Y-91255712D01*
X137190628Y-91256535D01*
X137180488Y-91251422D01*
X137169523Y-91238862D01*
X137156489Y-91225957D01*
X137129642Y-91211543D01*
X137099406Y-91205647D01*
X137069579Y-91208265D01*
X137043957Y-91219393D01*
X137026339Y-91239026D01*
X137017449Y-91261860D01*
X137017228Y-91283081D01*
X137028310Y-91296413D01*
X137029953Y-91297170D01*
X137045459Y-91301658D01*
X137069973Y-91306706D01*
X137098982Y-91311360D01*
X137142952Y-91318163D01*
X137176545Y-91325364D01*
X137201773Y-91333863D01*
X137221747Y-91344713D01*
X137239578Y-91358969D01*
X137242437Y-91361601D01*
X137255745Y-91375171D01*
X137262870Y-91387766D01*
X137265735Y-91404557D01*
X137266263Y-91430715D01*
X137265949Y-91435322D01*
X137264005Y-91463798D01*
G37*
G36*
X145286719Y-87381478D02*
G01*
X145314976Y-87416024D01*
X145361046Y-87471998D01*
X145404060Y-87523831D01*
X145443150Y-87570499D01*
X145477444Y-87610977D01*
X145506073Y-87644243D01*
X145528168Y-87669273D01*
X145542858Y-87685041D01*
X145549273Y-87690525D01*
X145550445Y-87690209D01*
X145552803Y-87686689D01*
X145554731Y-87678292D01*
X145556271Y-87663811D01*
X145557463Y-87642036D01*
X145558348Y-87611761D01*
X145558965Y-87571775D01*
X145559356Y-87520872D01*
X145559561Y-87457842D01*
X145559621Y-87381478D01*
X145559621Y-87072431D01*
X145708690Y-87072431D01*
X145857760Y-87072431D01*
X145857760Y-87777785D01*
X145857760Y-88483139D01*
X145708690Y-88483139D01*
X145559621Y-88483139D01*
X145559621Y-88284140D01*
X145559621Y-88085142D01*
X145488722Y-87997361D01*
X145474526Y-87979870D01*
X145451580Y-87951990D01*
X145432778Y-87929645D01*
X145419766Y-87914779D01*
X145414187Y-87909332D01*
X145409596Y-87915091D01*
X145397769Y-87931803D01*
X145379507Y-87958291D01*
X145355610Y-87993375D01*
X145326877Y-88035878D01*
X145294109Y-88084620D01*
X145258103Y-88138424D01*
X145219660Y-88196111D01*
X145028769Y-88483139D01*
X144850622Y-88483139D01*
X144813289Y-88483081D01*
X144767841Y-88482843D01*
X144729069Y-88482444D01*
X144698939Y-88481913D01*
X144679419Y-88481280D01*
X144672475Y-88480571D01*
X144672718Y-88480102D01*
X144678593Y-88471021D01*
X144691799Y-88451189D01*
X144711647Y-88421626D01*
X144737447Y-88383351D01*
X144768510Y-88337385D01*
X144804149Y-88284745D01*
X144843674Y-88226453D01*
X144886396Y-88163528D01*
X144931626Y-88096990D01*
X144942347Y-88081220D01*
X144987129Y-88015218D01*
X145029257Y-87952912D01*
X145068038Y-87895341D01*
X145102778Y-87843543D01*
X145132784Y-87798559D01*
X145157362Y-87761427D01*
X145175817Y-87733187D01*
X145187458Y-87714877D01*
X145191589Y-87707538D01*
X145190086Y-87704672D01*
X145180617Y-87691543D01*
X145163165Y-87668911D01*
X145138572Y-87637820D01*
X145107677Y-87599316D01*
X145071321Y-87554443D01*
X145030344Y-87504248D01*
X144985588Y-87449775D01*
X144937892Y-87392068D01*
X144909458Y-87357746D01*
X144863264Y-87301892D01*
X144820406Y-87249955D01*
X144781733Y-87202973D01*
X144748097Y-87161985D01*
X144720351Y-87128028D01*
X144699344Y-87102142D01*
X144685930Y-87085365D01*
X144680959Y-87078734D01*
X144684462Y-87077404D01*
X144700443Y-87075799D01*
X144727572Y-87074430D01*
X144763916Y-87073366D01*
X144807545Y-87072677D01*
X144856525Y-87072431D01*
X145034514Y-87072431D01*
X145286719Y-87381478D01*
G37*
G36*
X141476659Y-87978262D02*
G01*
X141474151Y-88038437D01*
X141468510Y-88093025D01*
X141459737Y-88137733D01*
X141453456Y-88159553D01*
X141422003Y-88240615D01*
X141380212Y-88311888D01*
X141327657Y-88374136D01*
X141302942Y-88397527D01*
X141249628Y-88438636D01*
X141193180Y-88468780D01*
X141129697Y-88490249D01*
X141126580Y-88491045D01*
X141080851Y-88499258D01*
X141028074Y-88503732D01*
X140973505Y-88504388D01*
X140922396Y-88501148D01*
X140880000Y-88493937D01*
X140861842Y-88488914D01*
X140788327Y-88459553D01*
X140721666Y-88417982D01*
X140662781Y-88365143D01*
X140612595Y-88301979D01*
X140572027Y-88229432D01*
X140542000Y-88148442D01*
X140534476Y-88116715D01*
X140526156Y-88059359D01*
X140521827Y-87995500D01*
X140521735Y-87968932D01*
X140687656Y-87968932D01*
X140691476Y-88030926D01*
X140699751Y-88088845D01*
X140712245Y-88137733D01*
X140725836Y-88172701D01*
X140757497Y-88230986D01*
X140796468Y-88279542D01*
X140841465Y-88316903D01*
X140891198Y-88341602D01*
X140919254Y-88348518D01*
X140957899Y-88353740D01*
X140999814Y-88356367D01*
X141039238Y-88356050D01*
X141070408Y-88352441D01*
X141114723Y-88338769D01*
X141166776Y-88309992D01*
X141211762Y-88269741D01*
X141249120Y-88219004D01*
X141278285Y-88158766D01*
X141298695Y-88090015D01*
X141309788Y-88013736D01*
X141310999Y-87930916D01*
X141306180Y-87871286D01*
X141293697Y-87803506D01*
X141273439Y-87744890D01*
X141244588Y-87693219D01*
X141206327Y-87646269D01*
X141185691Y-87626379D01*
X141137936Y-87592709D01*
X141084529Y-87571481D01*
X141023170Y-87561631D01*
X141019969Y-87561426D01*
X140952292Y-87563725D01*
X140891084Y-87578879D01*
X140836796Y-87606509D01*
X140789877Y-87646241D01*
X140750777Y-87697697D01*
X140719945Y-87760499D01*
X140697831Y-87834272D01*
X140694325Y-87852547D01*
X140688527Y-87907820D01*
X140687656Y-87968932D01*
X140521735Y-87968932D01*
X140521598Y-87929699D01*
X140525580Y-87866515D01*
X140533882Y-87810508D01*
X140554079Y-87737021D01*
X140586972Y-87661059D01*
X140629681Y-87593180D01*
X140681196Y-87534517D01*
X140740503Y-87486200D01*
X140806591Y-87449363D01*
X140878447Y-87425137D01*
X140895617Y-87421759D01*
X140938813Y-87416823D01*
X140987959Y-87414703D01*
X141038000Y-87415396D01*
X141083880Y-87418901D01*
X141120546Y-87425218D01*
X141145591Y-87432335D01*
X141218964Y-87462792D01*
X141284807Y-87505264D01*
X141342460Y-87559057D01*
X141391264Y-87623476D01*
X141430557Y-87697828D01*
X141459679Y-87781421D01*
X141465399Y-87807161D01*
X141472283Y-87858330D01*
X141476036Y-87916796D01*
X141476179Y-87930916D01*
X141476659Y-87978262D01*
G37*
G36*
X141941503Y-91387636D02*
G01*
X141939917Y-91410780D01*
X141936513Y-91427902D01*
X141930618Y-91442792D01*
X141921558Y-91459239D01*
X141915733Y-91468574D01*
X141885380Y-91502966D01*
X141847726Y-91524940D01*
X141801704Y-91535170D01*
X141785431Y-91536182D01*
X141744003Y-91532827D01*
X141710916Y-91519378D01*
X141683901Y-91495061D01*
X141661997Y-91468488D01*
X141662104Y-91519229D01*
X141663323Y-91549730D01*
X141669008Y-91579402D01*
X141680567Y-91601342D01*
X141699343Y-91619152D01*
X141704448Y-91622617D01*
X141734528Y-91634414D01*
X141768880Y-91637308D01*
X141803197Y-91631879D01*
X141833169Y-91618702D01*
X141854486Y-91598357D01*
X141859413Y-91591144D01*
X141866302Y-91585567D01*
X141876396Y-91586883D01*
X141894725Y-91594626D01*
X141900970Y-91597435D01*
X141920238Y-91607135D01*
X141927915Y-91615393D01*
X141925451Y-91625680D01*
X141914295Y-91641465D01*
X141895343Y-91661025D01*
X141857310Y-91683435D01*
X141808459Y-91697161D01*
X141801438Y-91698263D01*
X141750245Y-91700490D01*
X141701665Y-91693056D01*
X141658374Y-91676912D01*
X141623048Y-91653014D01*
X141598362Y-91622313D01*
X141596565Y-91618774D01*
X141593314Y-91610073D01*
X141590771Y-91598413D01*
X141588852Y-91582138D01*
X141587472Y-91559594D01*
X141586545Y-91529127D01*
X141585988Y-91489081D01*
X141585716Y-91437801D01*
X141585644Y-91373634D01*
X141585644Y-91343814D01*
X141661965Y-91343814D01*
X141666736Y-91384432D01*
X141680209Y-91420857D01*
X141702421Y-91449388D01*
X141717472Y-91461190D01*
X141736907Y-91469571D01*
X141762236Y-91471510D01*
X141765052Y-91471466D01*
X141802299Y-91465678D01*
X141830067Y-91449661D01*
X141849984Y-91422506D01*
X141858199Y-91403571D01*
X141868696Y-91357808D01*
X141866978Y-91312804D01*
X141853376Y-91271388D01*
X141828222Y-91236393D01*
X141813124Y-91221944D01*
X141799420Y-91212970D01*
X141783896Y-91210269D01*
X141760236Y-91211531D01*
X141756577Y-91211867D01*
X141725361Y-91218067D01*
X141704713Y-91228789D01*
X141699474Y-91233823D01*
X141678372Y-91264808D01*
X141665857Y-91302706D01*
X141661965Y-91343814D01*
X141585644Y-91343814D01*
X141585644Y-91148212D01*
X141623821Y-91146014D01*
X141661997Y-91143816D01*
X141661997Y-91178575D01*
X141661997Y-91213335D01*
X141683512Y-91187233D01*
X141698024Y-91171666D01*
X141723585Y-91154351D01*
X141754496Y-91146238D01*
X141794632Y-91145887D01*
X141817513Y-91148642D01*
X141859330Y-91162556D01*
X141893308Y-91188248D01*
X141920975Y-91226697D01*
X141923573Y-91231425D01*
X141932048Y-91248439D01*
X141937428Y-91264346D01*
X141940408Y-91283059D01*
X141941686Y-91308489D01*
X141941957Y-91344547D01*
X141941946Y-91354681D01*
X141941904Y-91357808D01*
X141941503Y-91387636D01*
G37*
G36*
X140624734Y-89802058D02*
G01*
X140624392Y-89843672D01*
X140623328Y-89875423D01*
X140621193Y-89900617D01*
X140617639Y-89922561D01*
X140612319Y-89944562D01*
X140604884Y-89969928D01*
X140581123Y-90037154D01*
X140553265Y-90094276D01*
X140519250Y-90144628D01*
X140476860Y-90192057D01*
X140452140Y-90215456D01*
X140398836Y-90256561D01*
X140342393Y-90286702D01*
X140278910Y-90308171D01*
X140273803Y-90309463D01*
X140214015Y-90319438D01*
X140148145Y-90322610D01*
X140082386Y-90318970D01*
X140022930Y-90308510D01*
X139978056Y-90294979D01*
X139922402Y-90270224D01*
X139871488Y-90236491D01*
X139820986Y-90191267D01*
X139794430Y-90163502D01*
X139771089Y-90134923D01*
X139751800Y-90104738D01*
X139732555Y-90067333D01*
X139725156Y-90051685D01*
X139706149Y-90008076D01*
X139692303Y-89968593D01*
X139682858Y-89929515D01*
X139677053Y-89887121D01*
X139674127Y-89837689D01*
X139673378Y-89781789D01*
X139836930Y-89781789D01*
X139837702Y-89815548D01*
X139846687Y-89894694D01*
X139865340Y-89965701D01*
X139893144Y-90027764D01*
X139929585Y-90080077D01*
X139974147Y-90121834D01*
X140026314Y-90152230D01*
X140085572Y-90170460D01*
X140110586Y-90174371D01*
X140177057Y-90176115D01*
X140238238Y-90164929D01*
X140293459Y-90141505D01*
X140342048Y-90106533D01*
X140383335Y-90060704D01*
X140416649Y-90004710D01*
X140441318Y-89939242D01*
X140456673Y-89864990D01*
X140462042Y-89782646D01*
X140462030Y-89776818D01*
X140456470Y-89693395D01*
X140441179Y-89618223D01*
X140416656Y-89552001D01*
X140383403Y-89495427D01*
X140341921Y-89449202D01*
X140292711Y-89414023D01*
X140236275Y-89390591D01*
X140173114Y-89379603D01*
X140122563Y-89379505D01*
X140059290Y-89390546D01*
X140002863Y-89414387D01*
X139953467Y-89450915D01*
X139911286Y-89500018D01*
X139876504Y-89561582D01*
X139871962Y-89571940D01*
X139852377Y-89632308D01*
X139840806Y-89701667D01*
X139836930Y-89781789D01*
X139673378Y-89781789D01*
X139673321Y-89777499D01*
X139673406Y-89755426D01*
X139674845Y-89699428D01*
X139678660Y-89652892D01*
X139685618Y-89612081D01*
X139696485Y-89573259D01*
X139712029Y-89532687D01*
X139733016Y-89486631D01*
X139764633Y-89430465D01*
X139813559Y-89368477D01*
X139871808Y-89317206D01*
X139938607Y-89277437D01*
X139949244Y-89272508D01*
X139982606Y-89258495D01*
X140014397Y-89246971D01*
X140038951Y-89240049D01*
X140056855Y-89237095D01*
X140098078Y-89233489D01*
X140144998Y-89232357D01*
X140192597Y-89233633D01*
X140235856Y-89237250D01*
X140269759Y-89243139D01*
X140294727Y-89250231D01*
X140368110Y-89280677D01*
X140433962Y-89323137D01*
X140491624Y-89376924D01*
X140540441Y-89441347D01*
X140579755Y-89515716D01*
X140608910Y-89599342D01*
X140612617Y-89613691D01*
X140617727Y-89637958D01*
X140621206Y-89663527D01*
X140623344Y-89693708D01*
X140624428Y-89731807D01*
X140624745Y-89781135D01*
X140624744Y-89782646D01*
X140624734Y-89802058D01*
G37*
G36*
X144229958Y-89716981D02*
G01*
X144231148Y-89781135D01*
X144230521Y-89829163D01*
X144227184Y-89885970D01*
X144220240Y-89935105D01*
X144208877Y-89980459D01*
X144192282Y-90025925D01*
X144169640Y-90075392D01*
X144135458Y-90133255D01*
X144085192Y-90192787D01*
X144025076Y-90242356D01*
X143956252Y-90281044D01*
X143879861Y-90307935D01*
X143833835Y-90316460D01*
X143778832Y-90321272D01*
X143720550Y-90322210D01*
X143664399Y-90319189D01*
X143615793Y-90312123D01*
X143567443Y-90298657D01*
X143504453Y-90271341D01*
X143446942Y-90235313D01*
X143397827Y-90192483D01*
X143360028Y-90144760D01*
X143356208Y-90138595D01*
X143340082Y-90110201D01*
X143328083Y-90085189D01*
X143321494Y-90066484D01*
X143321597Y-90057015D01*
X143323390Y-90056024D01*
X143336257Y-90051387D01*
X143358344Y-90044535D01*
X143386203Y-90036561D01*
X143396207Y-90033790D01*
X143425035Y-90025708D01*
X143448466Y-90019002D01*
X143462184Y-90014902D01*
X143471030Y-90013717D01*
X143480216Y-90019845D01*
X143490082Y-90037155D01*
X143494702Y-90046356D01*
X143527233Y-90093046D01*
X143570057Y-90129489D01*
X143623100Y-90155635D01*
X143686288Y-90171434D01*
X143707692Y-90174130D01*
X143775105Y-90174373D01*
X143839257Y-90162456D01*
X143898364Y-90139223D01*
X143950640Y-90105517D01*
X143994302Y-90062184D01*
X144027563Y-90010066D01*
X144035043Y-89992916D01*
X144047544Y-89956624D01*
X144058292Y-89916693D01*
X144065855Y-89878744D01*
X144068799Y-89848398D01*
X144068925Y-89828400D01*
X143683526Y-89828400D01*
X143298126Y-89828400D01*
X143298252Y-89786588D01*
X143299662Y-89746231D01*
X143303572Y-89697358D01*
X143305233Y-89682967D01*
X143470656Y-89682967D01*
X143769790Y-89682967D01*
X143817971Y-89682937D01*
X143885996Y-89682746D01*
X143941293Y-89682346D01*
X143984989Y-89681702D01*
X144018213Y-89680779D01*
X144042091Y-89679541D01*
X144057750Y-89677954D01*
X144066319Y-89675981D01*
X144068925Y-89673587D01*
X144067895Y-89665653D01*
X144063956Y-89646635D01*
X144058078Y-89622563D01*
X144045421Y-89582772D01*
X144015465Y-89521875D01*
X143976101Y-89470656D01*
X143928595Y-89429907D01*
X143874212Y-89400420D01*
X143814217Y-89382986D01*
X143749876Y-89378399D01*
X143682453Y-89387449D01*
X143638085Y-89402452D01*
X143587418Y-89432281D01*
X143544102Y-89472490D01*
X143509752Y-89521150D01*
X143485986Y-89576327D01*
X143474418Y-89636093D01*
X143470656Y-89682967D01*
X143305233Y-89682967D01*
X143309366Y-89647151D01*
X143316427Y-89600902D01*
X143324140Y-89563904D01*
X143327518Y-89551400D01*
X143355662Y-89476811D01*
X143394911Y-89410004D01*
X143444145Y-89352116D01*
X143502242Y-89304283D01*
X143568079Y-89267641D01*
X143640537Y-89243327D01*
X143648111Y-89241677D01*
X143690695Y-89235696D01*
X143740076Y-89232847D01*
X143791006Y-89233135D01*
X143838235Y-89236565D01*
X143876515Y-89243139D01*
X143942701Y-89265593D01*
X144011697Y-89302901D01*
X144072767Y-89351814D01*
X144124793Y-89411414D01*
X144166652Y-89480782D01*
X144187127Y-89524611D01*
X144205256Y-89571034D01*
X144217867Y-89615914D01*
X144225816Y-89663235D01*
X144226614Y-89673587D01*
X144229958Y-89716981D01*
G37*
G36*
X149876716Y-86857102D02*
G01*
X149877932Y-86858119D01*
X149878369Y-86858602D01*
X149886643Y-86868875D01*
X149902890Y-86889888D01*
X149926602Y-86920963D01*
X149957276Y-86961422D01*
X149994404Y-87010587D01*
X150037482Y-87067779D01*
X150086003Y-87132320D01*
X150139461Y-87203532D01*
X150197352Y-87280737D01*
X150259168Y-87363256D01*
X150324405Y-87450412D01*
X150392556Y-87541526D01*
X150463116Y-87635920D01*
X150535578Y-87732916D01*
X150609438Y-87831835D01*
X150684190Y-87931999D01*
X150759327Y-88032731D01*
X150834344Y-88133352D01*
X150908735Y-88233183D01*
X150981994Y-88331547D01*
X151053616Y-88427765D01*
X151123095Y-88521160D01*
X151189925Y-88611052D01*
X151253600Y-88696764D01*
X151313614Y-88777617D01*
X151369462Y-88852934D01*
X151420638Y-88922036D01*
X151466637Y-88984245D01*
X151506951Y-89038882D01*
X151541077Y-89085270D01*
X151568507Y-89122730D01*
X151588736Y-89150585D01*
X151601259Y-89168155D01*
X151605569Y-89174763D01*
X151605381Y-89175321D01*
X151599829Y-89185129D01*
X151586835Y-89206481D01*
X151566756Y-89238817D01*
X151539947Y-89281580D01*
X151506762Y-89334212D01*
X151467559Y-89396155D01*
X151422692Y-89466852D01*
X151372516Y-89545743D01*
X151317387Y-89632272D01*
X151257661Y-89725880D01*
X151193692Y-89826009D01*
X151125836Y-89932101D01*
X151054450Y-90043599D01*
X150979887Y-90159944D01*
X150902503Y-90280578D01*
X150822655Y-90404944D01*
X150740697Y-90532483D01*
X150721522Y-90562308D01*
X150640019Y-90689030D01*
X150560655Y-90812354D01*
X150483788Y-90931728D01*
X150409774Y-91046599D01*
X150338972Y-91156414D01*
X150271739Y-91260621D01*
X150208431Y-91358668D01*
X150149407Y-91450001D01*
X150095024Y-91534069D01*
X150045639Y-91610319D01*
X150001610Y-91678198D01*
X149963293Y-91737154D01*
X149931047Y-91786635D01*
X149905228Y-91826087D01*
X149886195Y-91854958D01*
X149874304Y-91872697D01*
X149869913Y-91878749D01*
X149869656Y-91875990D01*
X149869249Y-91860076D01*
X149868850Y-91830466D01*
X149868461Y-91787683D01*
X149868083Y-91732250D01*
X149867718Y-91664691D01*
X149867366Y-91585528D01*
X149867028Y-91495285D01*
X149866706Y-91394484D01*
X149866401Y-91283650D01*
X149866113Y-91163304D01*
X149865845Y-91033971D01*
X149865597Y-90896173D01*
X149865370Y-90750433D01*
X149865166Y-90597275D01*
X149864985Y-90437222D01*
X149864829Y-90270796D01*
X149864699Y-90098522D01*
X149864596Y-89920922D01*
X149864520Y-89738518D01*
X149864474Y-89551836D01*
X149864459Y-89361397D01*
X149864459Y-89275765D01*
X149864462Y-89053800D01*
X149864470Y-88845766D01*
X149864487Y-88651213D01*
X149864513Y-88469694D01*
X149864552Y-88300760D01*
X149864607Y-88143963D01*
X149864679Y-87998856D01*
X149864770Y-87864991D01*
X149864885Y-87741918D01*
X149865024Y-87629191D01*
X149865190Y-87526361D01*
X149865385Y-87432980D01*
X149865613Y-87348600D01*
X149865875Y-87272772D01*
X149866174Y-87205050D01*
X149866512Y-87144984D01*
X149866892Y-87092127D01*
X149867316Y-87046030D01*
X149867786Y-87006246D01*
X149868305Y-86972327D01*
X149868876Y-86943824D01*
X149869500Y-86920289D01*
X149870180Y-86901275D01*
X149870919Y-86886332D01*
X149871719Y-86875014D01*
X149872582Y-86866872D01*
X149873510Y-86861458D01*
X149874507Y-86858323D01*
X149875575Y-86857021D01*
X149876716Y-86857102D01*
G37*
G36*
X136439447Y-89235638D02*
G01*
X136509689Y-89247952D01*
X136571572Y-89269785D01*
X136627003Y-89301827D01*
X136677892Y-89344767D01*
X136686404Y-89353390D01*
X136719272Y-89393473D01*
X136740816Y-89434961D01*
X136752598Y-89481700D01*
X136756178Y-89537533D01*
X136752859Y-89586763D01*
X136738274Y-89644163D01*
X136711755Y-89693901D01*
X136672951Y-89736444D01*
X136621511Y-89772257D01*
X136557084Y-89801805D01*
X136547101Y-89805282D01*
X136517788Y-89814231D01*
X136479906Y-89824711D01*
X136437261Y-89835687D01*
X136393660Y-89846129D01*
X136335129Y-89860391D01*
X136281727Y-89875717D01*
X136239960Y-89890926D01*
X136208323Y-89906664D01*
X136185312Y-89923575D01*
X136169419Y-89942306D01*
X136159528Y-89959473D01*
X136146262Y-89999482D01*
X136147479Y-90038344D01*
X136163190Y-90076130D01*
X136193405Y-90112910D01*
X136202772Y-90121646D01*
X136230483Y-90142874D01*
X136260405Y-90157786D01*
X136295560Y-90167298D01*
X136338971Y-90172332D01*
X136393660Y-90173806D01*
X136411525Y-90173770D01*
X136444489Y-90173206D01*
X136468293Y-90171486D01*
X136486702Y-90168015D01*
X136503482Y-90162198D01*
X136522399Y-90153437D01*
X136535036Y-90146842D01*
X136569943Y-90122380D01*
X136597368Y-90090790D01*
X136620778Y-90048369D01*
X136628831Y-90031919D01*
X136637817Y-90016310D01*
X136643249Y-90010338D01*
X136645281Y-90010553D01*
X136659356Y-90013455D01*
X136681790Y-90018946D01*
X136708835Y-90026009D01*
X136736747Y-90033628D01*
X136761781Y-90040788D01*
X136780191Y-90046472D01*
X136788233Y-90049665D01*
X136789487Y-90053368D01*
X136787507Y-90068467D01*
X136780787Y-90090875D01*
X136770679Y-90116916D01*
X136758538Y-90142913D01*
X136745716Y-90165190D01*
X136739636Y-90173979D01*
X136697586Y-90220765D01*
X136645002Y-90260486D01*
X136584522Y-90291437D01*
X136518785Y-90311910D01*
X136504495Y-90314644D01*
X136456062Y-90320235D01*
X136401278Y-90322390D01*
X136345277Y-90321168D01*
X136293195Y-90316627D01*
X136250164Y-90308827D01*
X136209055Y-90296492D01*
X136141485Y-90266760D01*
X136083927Y-90228189D01*
X136037341Y-90181481D01*
X136002688Y-90127343D01*
X135992520Y-90105765D01*
X135985294Y-90086207D01*
X135981278Y-90066340D01*
X135979546Y-90041422D01*
X135979174Y-90006710D01*
X135979277Y-89987545D01*
X135980410Y-89957135D01*
X135983417Y-89934431D01*
X135989066Y-89914858D01*
X135998126Y-89893846D01*
X136006348Y-89878254D01*
X136039536Y-89833559D01*
X136083244Y-89794108D01*
X136134509Y-89762749D01*
X136150758Y-89755775D01*
X136183282Y-89744088D01*
X136224773Y-89730871D01*
X136272201Y-89717075D01*
X136322536Y-89703653D01*
X136327831Y-89702304D01*
X136385474Y-89687314D01*
X136431091Y-89674662D01*
X136466695Y-89663611D01*
X136494299Y-89653426D01*
X136515914Y-89643368D01*
X136533552Y-89632703D01*
X136549227Y-89620693D01*
X136576178Y-89589927D01*
X136590693Y-89554652D01*
X136592633Y-89517403D01*
X136582250Y-89480382D01*
X136559799Y-89445791D01*
X136525536Y-89415831D01*
X136518116Y-89410977D01*
X136485692Y-89393418D01*
X136451982Y-89382277D01*
X136412680Y-89376467D01*
X136363486Y-89374902D01*
X136355482Y-89374950D01*
X136323225Y-89375977D01*
X136299359Y-89379020D01*
X136278787Y-89385031D01*
X136256415Y-89394968D01*
X136218692Y-89418990D01*
X136181104Y-89455964D01*
X136153559Y-89498851D01*
X136151093Y-89503655D01*
X136141289Y-89517136D01*
X136133096Y-89521038D01*
X136129944Y-89520027D01*
X136114411Y-89515493D01*
X136090189Y-89508680D01*
X136060981Y-89500634D01*
X136057749Y-89499745D01*
X136024840Y-89489479D01*
X136004386Y-89480507D01*
X135997353Y-89473246D01*
X135998896Y-89464485D01*
X136007895Y-89442663D01*
X136023103Y-89415217D01*
X136042409Y-89385529D01*
X136063703Y-89356980D01*
X136084876Y-89332954D01*
X136126519Y-89296541D01*
X136175103Y-89267164D01*
X136229777Y-89247166D01*
X136292761Y-89235751D01*
X136366278Y-89232122D01*
X136439447Y-89235638D01*
G37*
%TD*%
M02*
