%TF.GenerationSoftware,KiCad,Pcbnew,8.0.2*%
%TF.CreationDate,2024-05-30T14:17:59+02:00*%
%TF.ProjectId,MPPT_solar_charger_expansion_board,4d505054-5f73-46f6-9c61-725f63686172,1.00*%
%TF.SameCoordinates,Original*%
%TF.FileFunction,Copper,L1,Top*%
%TF.FilePolarity,Positive*%
%FSLAX46Y46*%
G04 Gerber Fmt 4.6, Leading zero omitted, Abs format (unit mm)*
G04 Created by KiCad (PCBNEW 8.0.2) date 2024-05-30 14:17:59*
%MOMM*%
%LPD*%
G01*
G04 APERTURE LIST*
G04 Aperture macros list*
%AMRoundRect*
0 Rectangle with rounded corners*
0 $1 Rounding radius*
0 $2 $3 $4 $5 $6 $7 $8 $9 X,Y pos of 4 corners*
0 Add a 4 corners polygon primitive as box body*
4,1,4,$2,$3,$4,$5,$6,$7,$8,$9,$2,$3,0*
0 Add four circle primitives for the rounded corners*
1,1,$1+$1,$2,$3*
1,1,$1+$1,$4,$5*
1,1,$1+$1,$6,$7*
1,1,$1+$1,$8,$9*
0 Add four rect primitives between the rounded corners*
20,1,$1+$1,$2,$3,$4,$5,0*
20,1,$1+$1,$4,$5,$6,$7,0*
20,1,$1+$1,$6,$7,$8,$9,0*
20,1,$1+$1,$8,$9,$2,$3,0*%
G04 Aperture macros list end*
%TA.AperFunction,ComponentPad*%
%ADD10C,1.500000*%
%TD*%
%TA.AperFunction,SMDPad,CuDef*%
%ADD11RoundRect,0.200000X-0.200000X-0.275000X0.200000X-0.275000X0.200000X0.275000X-0.200000X0.275000X0*%
%TD*%
%TA.AperFunction,SMDPad,CuDef*%
%ADD12RoundRect,0.225000X0.250000X-0.225000X0.250000X0.225000X-0.250000X0.225000X-0.250000X-0.225000X0*%
%TD*%
%TA.AperFunction,SMDPad,CuDef*%
%ADD13RoundRect,0.225000X-0.225000X-0.250000X0.225000X-0.250000X0.225000X0.250000X-0.225000X0.250000X0*%
%TD*%
%TA.AperFunction,SMDPad,CuDef*%
%ADD14R,1.100000X0.510000*%
%TD*%
%TA.AperFunction,SMDPad,CuDef*%
%ADD15R,5.000000X3.100000*%
%TD*%
%TA.AperFunction,SMDPad,CuDef*%
%ADD16RoundRect,0.250000X-1.075000X0.362500X-1.075000X-0.362500X1.075000X-0.362500X1.075000X0.362500X0*%
%TD*%
%TA.AperFunction,SMDPad,CuDef*%
%ADD17RoundRect,0.200000X0.200000X0.275000X-0.200000X0.275000X-0.200000X-0.275000X0.200000X-0.275000X0*%
%TD*%
%TA.AperFunction,SMDPad,CuDef*%
%ADD18RoundRect,0.500000X0.500000X-1.250000X0.500000X1.250000X-0.500000X1.250000X-0.500000X-1.250000X0*%
%TD*%
%TA.AperFunction,SMDPad,CuDef*%
%ADD19RoundRect,0.250000X3.250000X-3.250000X3.250000X3.250000X-3.250000X3.250000X-3.250000X-3.250000X0*%
%TD*%
%TA.AperFunction,SMDPad,CuDef*%
%ADD20RoundRect,0.250000X-0.900000X1.000000X-0.900000X-1.000000X0.900000X-1.000000X0.900000X1.000000X0*%
%TD*%
%TA.AperFunction,ComponentPad*%
%ADD21R,1.600000X1.600000*%
%TD*%
%TA.AperFunction,ComponentPad*%
%ADD22C,1.600000*%
%TD*%
%TA.AperFunction,SMDPad,CuDef*%
%ADD23RoundRect,0.243750X0.243750X0.456250X-0.243750X0.456250X-0.243750X-0.456250X0.243750X-0.456250X0*%
%TD*%
%TA.AperFunction,ComponentPad*%
%ADD24C,5.700000*%
%TD*%
%TA.AperFunction,SMDPad,CuDef*%
%ADD25RoundRect,0.250000X-1.000000X-0.900000X1.000000X-0.900000X1.000000X0.900000X-1.000000X0.900000X0*%
%TD*%
%TA.AperFunction,ComponentPad*%
%ADD26C,1.440000*%
%TD*%
%TA.AperFunction,ComponentPad*%
%ADD27R,1.700000X1.700000*%
%TD*%
%TA.AperFunction,ComponentPad*%
%ADD28O,1.700000X1.700000*%
%TD*%
%TA.AperFunction,ViaPad*%
%ADD29C,0.500000*%
%TD*%
%TA.AperFunction,ViaPad*%
%ADD30C,1.500000*%
%TD*%
%TA.AperFunction,ViaPad*%
%ADD31C,0.800000*%
%TD*%
%TA.AperFunction,Conductor*%
%ADD32C,0.250000*%
%TD*%
%TA.AperFunction,Conductor*%
%ADD33C,1.500000*%
%TD*%
G04 APERTURE END LIST*
D10*
%TO.P,TP2,1,1*%
%TO.N,/MPPT*%
X135216600Y-106411400D03*
%TD*%
D11*
%TO.P,R2,1*%
%TO.N,/CHA_LED_PW*%
X132077600Y-99730200D03*
%TO.P,R2,2*%
%TO.N,VCC*%
X133727600Y-99730200D03*
%TD*%
D12*
%TO.P,C2,1*%
%TO.N,VCC*%
X151152000Y-100391400D03*
%TO.P,C2,2*%
%TO.N,GND*%
X151152000Y-98841400D03*
%TD*%
D13*
%TO.P,C4,1*%
%TO.N,VCC*%
X135158000Y-99730200D03*
%TO.P,C4,2*%
%TO.N,Net-(U1-VG)*%
X136708000Y-99730200D03*
%TD*%
D14*
%TO.P,U1,1,VG*%
%TO.N,Net-(U1-VG)*%
X138476000Y-99776200D03*
%TO.P,U1,2,GND*%
%TO.N,GND*%
X138476000Y-100776200D03*
%TO.P,U1,3,~{CHRG}*%
%TO.N,/CH_LED*%
X138476000Y-101776200D03*
%TO.P,U1,4,~{DONE}*%
%TO.N,/DONE_LED*%
X138476000Y-102776200D03*
%TO.P,U1,5,COM*%
%TO.N,Net-(U1-COM)*%
X138476000Y-103776200D03*
%TO.P,U1,6,MPPT*%
%TO.N,/MPPT*%
X143576000Y-103776200D03*
%TO.P,U1,7,BAT*%
%TO.N,+BATT*%
X143576000Y-102776200D03*
%TO.P,U1,8,CSP*%
%TO.N,Net-(U1-CSP)*%
X143576000Y-101776200D03*
%TO.P,U1,9,VCC*%
%TO.N,VCC*%
X143576000Y-100776200D03*
%TO.P,U1,10,DRV*%
%TO.N,/DRV*%
X143576000Y-99776200D03*
%TD*%
D13*
%TO.P,C5,1*%
%TO.N,Net-(C5-Pad1)*%
X141678000Y-105318200D03*
%TO.P,C5,2*%
%TO.N,GND*%
X143228000Y-105318200D03*
%TD*%
D15*
%TO.P,L1,1,1*%
%TO.N,/D3_K*%
X150339200Y-84973200D03*
%TO.P,L1,2,2*%
%TO.N,Net-(U1-CSP)*%
X150339200Y-96073200D03*
%TD*%
D12*
%TO.P,C3,1*%
%TO.N,VCC*%
X149577200Y-100391400D03*
%TO.P,C3,2*%
%TO.N,GND*%
X149577200Y-98841400D03*
%TD*%
D13*
%TO.P,C6,1*%
%TO.N,+BATT*%
X146037000Y-107086400D03*
%TO.P,C6,2*%
%TO.N,GND*%
X147587000Y-107086400D03*
%TD*%
D16*
%TO.P,R4,1*%
%TO.N,Net-(U1-CSP)*%
X146517000Y-99968500D03*
%TO.P,R4,2*%
%TO.N,+BATT*%
X146517000Y-104593500D03*
%TD*%
D17*
%TO.P,R1,1*%
%TO.N,/MPPT*%
X138810000Y-106832400D03*
%TO.P,R1,2*%
%TO.N,GND*%
X137160000Y-106832400D03*
%TD*%
D18*
%TO.P,Q1,1,G*%
%TO.N,/DRV*%
X132596200Y-96886400D03*
D19*
%TO.P,Q1,2,D*%
%TO.N,/Q1_D*%
X134896200Y-89486400D03*
D18*
%TO.P,Q1,3,S*%
%TO.N,VCC*%
X137176200Y-96886400D03*
%TD*%
D20*
%TO.P,D3,1,K*%
%TO.N,/D3_K*%
X141042800Y-87306400D03*
%TO.P,D3,2,A*%
%TO.N,/Q1_D*%
X141042800Y-91606400D03*
%TD*%
D21*
%TO.P,C1,1*%
%TO.N,VCC*%
X154428000Y-105356800D03*
D22*
%TO.P,C1,2*%
%TO.N,GND*%
X150928000Y-105356800D03*
%TD*%
D23*
%TO.P,D1,1,K*%
%TO.N,/CH_LED*%
X136532500Y-101508200D03*
%TO.P,D1,2,A*%
%TO.N,/CHA_LED_PW*%
X134657500Y-101508200D03*
%TD*%
%TO.P,D2,1,K*%
%TO.N,/DONE_LED*%
X136532500Y-103540200D03*
%TO.P,D2,2,A*%
%TO.N,/CHA_LED_PW*%
X134657500Y-103540200D03*
%TD*%
D11*
%TO.P,R3,1*%
%TO.N,Net-(U1-COM)*%
X138453000Y-105318200D03*
%TO.P,R3,2*%
%TO.N,Net-(C5-Pad1)*%
X140103000Y-105318200D03*
%TD*%
D24*
%TO.P,H1,1*%
%TO.N,N/C*%
X142428000Y-80896400D03*
%TD*%
D25*
%TO.P,D4,1,K*%
%TO.N,/D3_K*%
X151338800Y-80566400D03*
%TO.P,D4,2,A*%
%TO.N,GND*%
X155638800Y-80566400D03*
%TD*%
D13*
%TO.P,C7,1*%
%TO.N,+BATT*%
X146037000Y-108610400D03*
%TO.P,C7,2*%
%TO.N,GND*%
X147587000Y-108610400D03*
%TD*%
D26*
%TO.P,RV1,1,1*%
%TO.N,VCC*%
X139710000Y-110388400D03*
%TO.P,RV1,2,2*%
%TO.N,/MPPT*%
X137170000Y-110388400D03*
%TO.P,RV1,3,3*%
X134630000Y-110388400D03*
%TD*%
D27*
%TO.P,J1,1,Pin_1*%
%TO.N,VCC*%
X154428000Y-110896400D03*
D28*
%TO.P,J1,2,Pin_2*%
%TO.N,GND*%
X151888000Y-110896400D03*
%TO.P,J1,3,Pin_3*%
X149348000Y-110896400D03*
%TO.P,J1,4,Pin_4*%
X146808000Y-110896400D03*
%TO.P,J1,5,Pin_5*%
%TO.N,+BATT*%
X144268000Y-110896400D03*
%TD*%
D29*
%TO.N,GND*%
X153387200Y-78128000D03*
X154758800Y-89812000D03*
X153488800Y-82141200D03*
X145360800Y-78483600D03*
X155012800Y-94384000D03*
X141804800Y-94028400D03*
X141906400Y-108506400D03*
X141398400Y-103201700D03*
X145665600Y-83106400D03*
X155520800Y-99616400D03*
X138553600Y-83208000D03*
X132508400Y-111605200D03*
X134337200Y-94282400D03*
X146224400Y-92199600D03*
D30*
%TO.N,VCC*%
X148178000Y-101896400D03*
X141032146Y-101883820D03*
D31*
%TO.N,/DRV*%
X134058000Y-96723200D03*
X142466092Y-99776200D03*
%TD*%
D32*
%TO.N,Net-(U1-VG)*%
X136754000Y-99776200D02*
X136708000Y-99730200D01*
X138476000Y-99776200D02*
X136754000Y-99776200D01*
%TO.N,Net-(C5-Pad1)*%
X141678000Y-105318200D02*
X140103000Y-105318200D01*
%TO.N,+BATT*%
X146517000Y-103691000D02*
X146517000Y-104593500D01*
X143576000Y-102776200D02*
X145602200Y-102776200D01*
X145602200Y-102776200D02*
X146517000Y-103691000D01*
%TO.N,/CH_LED*%
X137137000Y-101508200D02*
X136532500Y-101508200D01*
X138476000Y-101776200D02*
X137405000Y-101776200D01*
X137405000Y-101776200D02*
X137137000Y-101508200D01*
%TO.N,/CHA_LED_PW*%
X134657500Y-101508200D02*
X132674000Y-101508200D01*
X132077600Y-100911800D02*
X132077600Y-99730200D01*
X134657500Y-101508200D02*
X134657500Y-103540200D01*
X132674000Y-101508200D02*
X132077600Y-100911800D01*
%TO.N,/DONE_LED*%
X137119000Y-103540200D02*
X136532500Y-103540200D01*
X137883000Y-102776200D02*
X137119000Y-103540200D01*
X138476000Y-102776200D02*
X137883000Y-102776200D01*
D33*
%TO.N,/D3_K*%
X145983200Y-84973200D02*
X150339200Y-84973200D01*
X141042800Y-87306400D02*
X143650000Y-87306400D01*
X151338800Y-80566400D02*
X150339200Y-81566000D01*
X143650000Y-87306400D02*
X145983200Y-84973200D01*
X150339200Y-81566000D02*
X150339200Y-84973200D01*
%TO.N,/Q1_D*%
X141042800Y-91606400D02*
X137016200Y-91606400D01*
X137016200Y-91606400D02*
X134896200Y-89486400D01*
D32*
%TO.N,VCC*%
X142880200Y-100776200D02*
X143576000Y-100776200D01*
D33*
X151152000Y-100391400D02*
X149577200Y-100391400D01*
X152485800Y-100391400D02*
X151152000Y-100391400D01*
D32*
X137176200Y-96886400D02*
X135566400Y-96886400D01*
D33*
X141030600Y-101882274D02*
X141030600Y-98153800D01*
D32*
X141772580Y-101883820D02*
X142880200Y-100776200D01*
D33*
X149577200Y-100497200D02*
X148178000Y-101896400D01*
D32*
X135158000Y-99730200D02*
X133727600Y-99730200D01*
D33*
X154428000Y-105356800D02*
X154428000Y-102333600D01*
D32*
X135566400Y-96886400D02*
X135158000Y-97294800D01*
D33*
X154428000Y-105356800D02*
X154428000Y-110896400D01*
X154428000Y-102333600D02*
X152485800Y-100391400D01*
X141032146Y-101883820D02*
X141030600Y-101882274D01*
X139763200Y-96886400D02*
X137176200Y-96886400D01*
D32*
X141032146Y-101883820D02*
X141772580Y-101883820D01*
D33*
X141030600Y-98153800D02*
X139763200Y-96886400D01*
D32*
X135158000Y-97294800D02*
X135158000Y-99730200D01*
D33*
X149577200Y-100391400D02*
X149577200Y-100497200D01*
D32*
%TO.N,/MPPT*%
X140185000Y-103776200D02*
X143576000Y-103776200D01*
X138810000Y-106218000D02*
X139278000Y-105750000D01*
X134620000Y-107008000D02*
X134620000Y-110378400D01*
X139278000Y-105750000D02*
X139278000Y-104683200D01*
X138811000Y-106833400D02*
X138810000Y-106832400D01*
X139278000Y-104683200D02*
X140185000Y-103776200D01*
X134620000Y-110378400D02*
X134630000Y-110388400D01*
X135216600Y-106411400D02*
X134620000Y-107008000D01*
X137170000Y-110388400D02*
X138811000Y-108747400D01*
X137170000Y-110388400D02*
X134630000Y-110388400D01*
X138810000Y-106832400D02*
X138810000Y-106218000D01*
X138811000Y-108747400D02*
X138811000Y-106833400D01*
%TO.N,Net-(U1-CSP)*%
X143576000Y-101776200D02*
X145611800Y-101776200D01*
D33*
X147380000Y-96073200D02*
X146517000Y-96936200D01*
X150339200Y-96073200D02*
X147380000Y-96073200D01*
D32*
X145611800Y-101776200D02*
X146517000Y-100871000D01*
D33*
X146517000Y-96936200D02*
X146517000Y-99968500D01*
D32*
X146517000Y-100871000D02*
X146517000Y-99968500D01*
%TO.N,/DRV*%
X132759400Y-96723200D02*
X132596200Y-96886400D01*
X142466092Y-99776200D02*
X143576000Y-99776200D01*
X134058000Y-96723200D02*
X132759400Y-96723200D01*
%TO.N,Net-(U1-COM)*%
X138476000Y-103776200D02*
X138476000Y-105295200D01*
X138476000Y-105295200D02*
X138453000Y-105318200D01*
%TD*%
%TA.AperFunction,Conductor*%
%TO.N,+BATT*%
G36*
X147821839Y-104489885D02*
G01*
X147867594Y-104542689D01*
X147878800Y-104594200D01*
X147878800Y-105570642D01*
X147859115Y-105637681D01*
X147821516Y-105675164D01*
X146685000Y-106400599D01*
X146672572Y-109081975D01*
X146652577Y-109148922D01*
X146599561Y-109194432D01*
X146548573Y-109205400D01*
X145402000Y-109205400D01*
X145118121Y-109686654D01*
X145118119Y-109686659D01*
X145118598Y-110088002D01*
X145118583Y-110090054D01*
X145108075Y-110774304D01*
X145087364Y-110841033D01*
X145033863Y-110885972D01*
X144984090Y-110896400D01*
X143553800Y-110896400D01*
X143486761Y-110876715D01*
X143441006Y-110823911D01*
X143429800Y-110772400D01*
X143429800Y-106580379D01*
X143449485Y-106513340D01*
X143500340Y-106468495D01*
X143642437Y-106400599D01*
X145237200Y-105638600D01*
X145237200Y-104594200D01*
X145256885Y-104527161D01*
X145309689Y-104481406D01*
X145361200Y-104470200D01*
X147754800Y-104470200D01*
X147821839Y-104489885D01*
G37*
%TD.AperFunction*%
%TD*%
%TA.AperFunction,Conductor*%
%TO.N,GND*%
G36*
X154178855Y-77396411D02*
G01*
X154340269Y-77398674D01*
X154352390Y-77399441D01*
X154656553Y-77433712D01*
X154673992Y-77435677D01*
X154687700Y-77438006D01*
X155002366Y-77509826D01*
X155015725Y-77513673D01*
X155320392Y-77620281D01*
X155333228Y-77625599D01*
X155624025Y-77765639D01*
X155636193Y-77772364D01*
X155867489Y-77917697D01*
X155909486Y-77944085D01*
X155920824Y-77952130D01*
X156173173Y-78153371D01*
X156183541Y-78162637D01*
X156411762Y-78390858D01*
X156421028Y-78401226D01*
X156622267Y-78653572D01*
X156630314Y-78664913D01*
X156769501Y-78886428D01*
X156788501Y-78953665D01*
X156768133Y-79020500D01*
X156714865Y-79065714D01*
X156664507Y-79076400D01*
X155888800Y-79076400D01*
X155888800Y-82056400D01*
X156677471Y-82056400D01*
X156792819Y-82041214D01*
X156792824Y-82041212D01*
X156936341Y-81981766D01*
X156936347Y-81981763D01*
X156978513Y-81949408D01*
X157043682Y-81924213D01*
X157112127Y-81938251D01*
X157162117Y-81987065D01*
X157178000Y-82047783D01*
X157178000Y-110395517D01*
X157177988Y-110397255D01*
X157175725Y-110558656D01*
X157174957Y-110570802D01*
X157138722Y-110892392D01*
X157136393Y-110906100D01*
X157064573Y-111220766D01*
X157060724Y-111234129D01*
X156954120Y-111538786D01*
X156948798Y-111551633D01*
X156808760Y-111842425D01*
X156802034Y-111854595D01*
X156630314Y-112127886D01*
X156622267Y-112139227D01*
X156421028Y-112391573D01*
X156411762Y-112401941D01*
X156183541Y-112630162D01*
X156173173Y-112639428D01*
X155920827Y-112840667D01*
X155909486Y-112848714D01*
X155636195Y-113020434D01*
X155624025Y-113027160D01*
X155333233Y-113167198D01*
X155320386Y-113172520D01*
X155015729Y-113279124D01*
X155002366Y-113282973D01*
X154687700Y-113354793D01*
X154673992Y-113357122D01*
X154352402Y-113393357D01*
X154340256Y-113394125D01*
X154178856Y-113396388D01*
X154177118Y-113396400D01*
X134178882Y-113396400D01*
X134177144Y-113396388D01*
X134015743Y-113394125D01*
X134003597Y-113393357D01*
X133682007Y-113357122D01*
X133668299Y-113354793D01*
X133353633Y-113282973D01*
X133340270Y-113279124D01*
X133035613Y-113172520D01*
X133022766Y-113167198D01*
X132731974Y-113027160D01*
X132719804Y-113020434D01*
X132446513Y-112848714D01*
X132435172Y-112840667D01*
X132182826Y-112639428D01*
X132172458Y-112630162D01*
X131944237Y-112401941D01*
X131934971Y-112391573D01*
X131733732Y-112139227D01*
X131725685Y-112127886D01*
X131611963Y-111946899D01*
X131553964Y-111854593D01*
X131547239Y-111842425D01*
X131407199Y-111551628D01*
X131401879Y-111538786D01*
X131397243Y-111525538D01*
X131295273Y-111234125D01*
X131291426Y-111220766D01*
X131219606Y-110906100D01*
X131217277Y-110892392D01*
X131204817Y-110781809D01*
X131181041Y-110570790D01*
X131180274Y-110558669D01*
X131178012Y-110397255D01*
X131178000Y-110395517D01*
X131178000Y-98359121D01*
X131197685Y-98292082D01*
X131250489Y-98246327D01*
X131319647Y-98236383D01*
X131383203Y-98265408D01*
X131420384Y-98322230D01*
X131452722Y-98426006D01*
X131510463Y-98521520D01*
X131540730Y-98571588D01*
X131661011Y-98691869D01*
X131661013Y-98691870D01*
X131661015Y-98691872D01*
X131806594Y-98779878D01*
X131910694Y-98812316D01*
X131968839Y-98851051D01*
X131996814Y-98915076D01*
X131985733Y-98984061D01*
X131939115Y-99036105D01*
X131873806Y-99054700D01*
X131846083Y-99054700D01*
X131767150Y-99067201D01*
X131752296Y-99069554D01*
X131639258Y-99127150D01*
X131639257Y-99127151D01*
X131639252Y-99127154D01*
X131549554Y-99216852D01*
X131549551Y-99216857D01*
X131491952Y-99329898D01*
X131477100Y-99423675D01*
X131477100Y-100036717D01*
X131487892Y-100104857D01*
X131491954Y-100130504D01*
X131549550Y-100243542D01*
X131549552Y-100243544D01*
X131549554Y-100243547D01*
X131639252Y-100333245D01*
X131639254Y-100333246D01*
X131639258Y-100333250D01*
X131684396Y-100356249D01*
X131735191Y-100404223D01*
X131752100Y-100466733D01*
X131752100Y-100868947D01*
X131752100Y-100954653D01*
X131761550Y-100989922D01*
X131774282Y-101037440D01*
X131793678Y-101071033D01*
X131817135Y-101111662D01*
X132474138Y-101768665D01*
X132548361Y-101811518D01*
X132631147Y-101833700D01*
X132716853Y-101833700D01*
X133845500Y-101833700D01*
X133912539Y-101853385D01*
X133958294Y-101906189D01*
X133969500Y-101957700D01*
X133969500Y-102017968D01*
X133972313Y-102047969D01*
X133972315Y-102047981D01*
X134016544Y-102174378D01*
X134016545Y-102174380D01*
X134096069Y-102282130D01*
X134166418Y-102334050D01*
X134203821Y-102361655D01*
X134248955Y-102377448D01*
X134305730Y-102418169D01*
X134331478Y-102483121D01*
X134332000Y-102494489D01*
X134332000Y-102553910D01*
X134312315Y-102620949D01*
X134259511Y-102666704D01*
X134248956Y-102670951D01*
X134203819Y-102686745D01*
X134096069Y-102766269D01*
X134016545Y-102874019D01*
X134016544Y-102874021D01*
X133972315Y-103000418D01*
X133972313Y-103000430D01*
X133969500Y-103030431D01*
X133969500Y-104049968D01*
X133972313Y-104079969D01*
X133972315Y-104079981D01*
X134016544Y-104206378D01*
X134016545Y-104206380D01*
X134096069Y-104314130D01*
X134203819Y-104393654D01*
X134203821Y-104393655D01*
X134330218Y-104437884D01*
X134330222Y-104437884D01*
X134330226Y-104437886D01*
X134345231Y-104439293D01*
X134360232Y-104440700D01*
X134360236Y-104440700D01*
X134954768Y-104440700D01*
X134968101Y-104439449D01*
X134984774Y-104437886D01*
X134984778Y-104437884D01*
X134984781Y-104437884D01*
X135055845Y-104413016D01*
X135111179Y-104393655D01*
X135218930Y-104314130D01*
X135298455Y-104206379D01*
X135317816Y-104151045D01*
X135342684Y-104079981D01*
X135342684Y-104079978D01*
X135342686Y-104079974D01*
X135344307Y-104062692D01*
X135345500Y-104049968D01*
X135345500Y-103030431D01*
X135342686Y-103000430D01*
X135342686Y-103000426D01*
X135342684Y-103000422D01*
X135342684Y-103000418D01*
X135298455Y-102874021D01*
X135298454Y-102874019D01*
X135218930Y-102766269D01*
X135111180Y-102686745D01*
X135066044Y-102670951D01*
X135009268Y-102630229D01*
X134983522Y-102565276D01*
X134983000Y-102553910D01*
X134983000Y-102494489D01*
X135002685Y-102427450D01*
X135055489Y-102381695D01*
X135066032Y-102377452D01*
X135111179Y-102361655D01*
X135218930Y-102282130D01*
X135298455Y-102174379D01*
X135323365Y-102103190D01*
X135342684Y-102047981D01*
X135342684Y-102047978D01*
X135342686Y-102047974D01*
X135344249Y-102031301D01*
X135345500Y-102017968D01*
X135345500Y-101016497D01*
X135360825Y-100964306D01*
X135360825Y-100520422D01*
X135380510Y-100453383D01*
X135433314Y-100407628D01*
X135465422Y-100397949D01*
X135516126Y-100389919D01*
X135636220Y-100328728D01*
X135731528Y-100233420D01*
X135792719Y-100113326D01*
X135793336Y-100109431D01*
X135808500Y-100013693D01*
X135808500Y-99446706D01*
X135792720Y-99347078D01*
X135792719Y-99347076D01*
X135792719Y-99347074D01*
X135731528Y-99226980D01*
X135731526Y-99226978D01*
X135731523Y-99226974D01*
X135636225Y-99131676D01*
X135636222Y-99131674D01*
X135636220Y-99131672D01*
X135551204Y-99088354D01*
X135500409Y-99040380D01*
X135483500Y-98977870D01*
X135483500Y-97480988D01*
X135503185Y-97413949D01*
X135519819Y-97393307D01*
X135664907Y-97248219D01*
X135726230Y-97214734D01*
X135752588Y-97211900D01*
X135851700Y-97211900D01*
X135918739Y-97231585D01*
X135964494Y-97284389D01*
X135975700Y-97335900D01*
X135975700Y-98193013D01*
X135982113Y-98263592D01*
X135982113Y-98263594D01*
X135982114Y-98263596D01*
X136003263Y-98331466D01*
X136032722Y-98426006D01*
X136120730Y-98571588D01*
X136241011Y-98691869D01*
X136241013Y-98691870D01*
X136241015Y-98691872D01*
X136386594Y-98779878D01*
X136490690Y-98812315D01*
X136548837Y-98851052D01*
X136576811Y-98915077D01*
X136565730Y-98984062D01*
X136519111Y-99036105D01*
X136453799Y-99054700D01*
X136449507Y-99054700D01*
X136349878Y-99070479D01*
X136229778Y-99131673D01*
X136229774Y-99131676D01*
X136134476Y-99226974D01*
X136134473Y-99226978D01*
X136073279Y-99347078D01*
X136057500Y-99446706D01*
X136057500Y-100013693D01*
X136073279Y-100113321D01*
X136073280Y-100113324D01*
X136073281Y-100113326D01*
X136134472Y-100233420D01*
X136134473Y-100233421D01*
X136138903Y-100242115D01*
X136137447Y-100242856D01*
X136157181Y-100298167D01*
X136157383Y-100305244D01*
X136157383Y-100539272D01*
X136137698Y-100606311D01*
X136086965Y-100650271D01*
X136087035Y-100650403D01*
X136086466Y-100650703D01*
X136084894Y-100652066D01*
X136080679Y-100653762D01*
X136078822Y-100654743D01*
X135971069Y-100734269D01*
X135891545Y-100842019D01*
X135891544Y-100842021D01*
X135847315Y-100968418D01*
X135847313Y-100968430D01*
X135844500Y-100998431D01*
X135844500Y-102017968D01*
X135847313Y-102047969D01*
X135847315Y-102047981D01*
X135891544Y-102174378D01*
X135891545Y-102174380D01*
X135971069Y-102282130D01*
X136078819Y-102361654D01*
X136078821Y-102361655D01*
X136208861Y-102407159D01*
X136265637Y-102447881D01*
X136291384Y-102512834D01*
X136277927Y-102581395D01*
X136229540Y-102631798D01*
X136208861Y-102641241D01*
X136078821Y-102686744D01*
X136078819Y-102686745D01*
X135971069Y-102766269D01*
X135891545Y-102874019D01*
X135891544Y-102874021D01*
X135847315Y-103000418D01*
X135847313Y-103000430D01*
X135844500Y-103030431D01*
X135844500Y-104049968D01*
X135847313Y-104079969D01*
X135847315Y-104079981D01*
X135891544Y-104206378D01*
X135891545Y-104206380D01*
X135971069Y-104314130D01*
X136078819Y-104393654D01*
X136078821Y-104393655D01*
X136205218Y-104437884D01*
X136205222Y-104437884D01*
X136205226Y-104437886D01*
X136220231Y-104439293D01*
X136235232Y-104440700D01*
X136235236Y-104440700D01*
X136829768Y-104440700D01*
X136843101Y-104439449D01*
X136859774Y-104437886D01*
X136859778Y-104437884D01*
X136859781Y-104437884D01*
X136930845Y-104413016D01*
X136986179Y-104393655D01*
X137093930Y-104314130D01*
X137173455Y-104206379D01*
X137192816Y-104151045D01*
X137217684Y-104079981D01*
X137217684Y-104079978D01*
X137217686Y-104079974D01*
X137219307Y-104062692D01*
X137220500Y-104049968D01*
X137220500Y-103929045D01*
X137240185Y-103862006D01*
X137282497Y-103821660D01*
X137318862Y-103800665D01*
X137513820Y-103605706D01*
X137575142Y-103572222D01*
X137644833Y-103577206D01*
X137700767Y-103619077D01*
X137725184Y-103684542D01*
X137725500Y-103693388D01*
X137725500Y-104050952D01*
X137737131Y-104109429D01*
X137737132Y-104109430D01*
X137781447Y-104175752D01*
X137847769Y-104220067D01*
X137847770Y-104220068D01*
X137906247Y-104231699D01*
X137906250Y-104231700D01*
X137906252Y-104231700D01*
X138026500Y-104231700D01*
X138093539Y-104251385D01*
X138139294Y-104304189D01*
X138150500Y-104355700D01*
X138150500Y-104569947D01*
X138130815Y-104636986D01*
X138082796Y-104680431D01*
X138014659Y-104715149D01*
X138014652Y-104715154D01*
X137924954Y-104804852D01*
X137924951Y-104804857D01*
X137867352Y-104917898D01*
X137852500Y-105011675D01*
X137852500Y-105624717D01*
X137859343Y-105667921D01*
X137867354Y-105718504D01*
X137924950Y-105831542D01*
X137924952Y-105831544D01*
X137924954Y-105831547D01*
X138014652Y-105921245D01*
X138014654Y-105921246D01*
X138014658Y-105921250D01*
X138125877Y-105977919D01*
X138127698Y-105978847D01*
X138221475Y-105993699D01*
X138221481Y-105993700D01*
X138317652Y-105993699D01*
X138384689Y-106013383D01*
X138430445Y-106066186D01*
X138440389Y-106135345D01*
X138411365Y-106198901D01*
X138373953Y-106228180D01*
X138371662Y-106229347D01*
X138371652Y-106229354D01*
X138281954Y-106319052D01*
X138281951Y-106319057D01*
X138281950Y-106319058D01*
X138276341Y-106330066D01*
X138224352Y-106432098D01*
X138209500Y-106525875D01*
X138209500Y-107138917D01*
X138220051Y-107205535D01*
X138224354Y-107232704D01*
X138281950Y-107345742D01*
X138281952Y-107345744D01*
X138281954Y-107345747D01*
X138371652Y-107435445D01*
X138371655Y-107435447D01*
X138371658Y-107435450D01*
X138417795Y-107458958D01*
X138468591Y-107506931D01*
X138485500Y-107569442D01*
X138485500Y-108561210D01*
X138465815Y-108628249D01*
X138449181Y-108648891D01*
X137608945Y-109489126D01*
X137547622Y-109522611D01*
X137477930Y-109517627D01*
X137470833Y-109514727D01*
X137463297Y-109511372D01*
X137456017Y-109508131D01*
X137456015Y-109508130D01*
X137456014Y-109508130D01*
X137266748Y-109467900D01*
X137073252Y-109467900D01*
X136883983Y-109508130D01*
X136883978Y-109508132D01*
X136707215Y-109586833D01*
X136707210Y-109586835D01*
X136550674Y-109700565D01*
X136550667Y-109700571D01*
X136421197Y-109844364D01*
X136330822Y-110000900D01*
X136280255Y-110049115D01*
X136223435Y-110062900D01*
X135576565Y-110062900D01*
X135509526Y-110043215D01*
X135469178Y-110000900D01*
X135378802Y-109844364D01*
X135249332Y-109700571D01*
X135249325Y-109700565D01*
X135092789Y-109586835D01*
X135092786Y-109586833D01*
X135092785Y-109586833D01*
X135019064Y-109554010D01*
X134965827Y-109508760D01*
X134945506Y-109441911D01*
X134945500Y-109440731D01*
X134945500Y-107476611D01*
X134965185Y-107409572D01*
X135017989Y-107363817D01*
X135081654Y-107353208D01*
X135216600Y-107366499D01*
X135402931Y-107348147D01*
X135582101Y-107293796D01*
X135747225Y-107205536D01*
X135815298Y-107149670D01*
X136420001Y-107149670D01*
X136430420Y-107236454D01*
X136430422Y-107236458D01*
X136484876Y-107374544D01*
X136484879Y-107374550D01*
X136574571Y-107492828D01*
X136692849Y-107582520D01*
X136692855Y-107582523D01*
X136830943Y-107636978D01*
X136910000Y-107646471D01*
X136910000Y-107646470D01*
X137410000Y-107646470D01*
X137489054Y-107636979D01*
X137489058Y-107636977D01*
X137627144Y-107582523D01*
X137627150Y-107582520D01*
X137745428Y-107492828D01*
X137835120Y-107374550D01*
X137835123Y-107374544D01*
X137889578Y-107236456D01*
X137900000Y-107149670D01*
X137900000Y-107082400D01*
X137410000Y-107082400D01*
X137410000Y-107646470D01*
X136910000Y-107646470D01*
X136910000Y-107082400D01*
X136420001Y-107082400D01*
X136420001Y-107149670D01*
X135815298Y-107149670D01*
X135891957Y-107086757D01*
X136010736Y-106942025D01*
X136098996Y-106776901D01*
X136153347Y-106597731D01*
X136161483Y-106515129D01*
X136420000Y-106515129D01*
X136420000Y-106582400D01*
X136910000Y-106582400D01*
X137410000Y-106582400D01*
X137899999Y-106582400D01*
X137899999Y-106515129D01*
X137889579Y-106428345D01*
X137889577Y-106428341D01*
X137835123Y-106290255D01*
X137835120Y-106290249D01*
X137745428Y-106171971D01*
X137627150Y-106082279D01*
X137627144Y-106082276D01*
X137489060Y-106027822D01*
X137489052Y-106027820D01*
X137410000Y-106018326D01*
X137410000Y-106582400D01*
X136910000Y-106582400D01*
X136910000Y-106018328D01*
X136830943Y-106027821D01*
X136692855Y-106082276D01*
X136692849Y-106082279D01*
X136574571Y-106171971D01*
X136484879Y-106290249D01*
X136484876Y-106290255D01*
X136430421Y-106428343D01*
X136420000Y-106515129D01*
X136161483Y-106515129D01*
X136171699Y-106411400D01*
X136153347Y-106225069D01*
X136098996Y-106045899D01*
X136052815Y-105959500D01*
X136010737Y-105880776D01*
X136010735Y-105880773D01*
X135891957Y-105736042D01*
X135747226Y-105617264D01*
X135747223Y-105617262D01*
X135582102Y-105529004D01*
X135402933Y-105474653D01*
X135402931Y-105474652D01*
X135216600Y-105456301D01*
X135030268Y-105474652D01*
X135030266Y-105474653D01*
X134851097Y-105529004D01*
X134685976Y-105617262D01*
X134685973Y-105617264D01*
X134541242Y-105736042D01*
X134422464Y-105880773D01*
X134422462Y-105880776D01*
X134334204Y-106045897D01*
X134279853Y-106225066D01*
X134279852Y-106225068D01*
X134261501Y-106411400D01*
X134279852Y-106597729D01*
X134333536Y-106774699D01*
X134334159Y-106844566D01*
X134322264Y-106872691D01*
X134316683Y-106882357D01*
X134316683Y-106882359D01*
X134316682Y-106882362D01*
X134294500Y-106965147D01*
X134294500Y-109449635D01*
X134274815Y-109516674D01*
X134222011Y-109562429D01*
X134220937Y-109562914D01*
X134167212Y-109586834D01*
X134167210Y-109586835D01*
X134010674Y-109700565D01*
X134010667Y-109700571D01*
X133881197Y-109844364D01*
X133784450Y-110011936D01*
X133784447Y-110011943D01*
X133724657Y-110195958D01*
X133724656Y-110195960D01*
X133704430Y-110388400D01*
X133724656Y-110580839D01*
X133724657Y-110580841D01*
X133784447Y-110764856D01*
X133784450Y-110764863D01*
X133881197Y-110932435D01*
X134010667Y-111076228D01*
X134010674Y-111076234D01*
X134167210Y-111189964D01*
X134167211Y-111189964D01*
X134167215Y-111189967D01*
X134266396Y-111234125D01*
X134343978Y-111268667D01*
X134343983Y-111268669D01*
X134533252Y-111308900D01*
X134726748Y-111308900D01*
X134916017Y-111268669D01*
X135092785Y-111189967D01*
X135249327Y-111076233D01*
X135378802Y-110932436D01*
X135465717Y-110781894D01*
X135469178Y-110775900D01*
X135519745Y-110727685D01*
X135576565Y-110713900D01*
X136223435Y-110713900D01*
X136290474Y-110733585D01*
X136330822Y-110775900D01*
X136421197Y-110932435D01*
X136550667Y-111076228D01*
X136550674Y-111076234D01*
X136707210Y-111189964D01*
X136707211Y-111189964D01*
X136707215Y-111189967D01*
X136806396Y-111234125D01*
X136883978Y-111268667D01*
X136883983Y-111268669D01*
X137073252Y-111308900D01*
X137266748Y-111308900D01*
X137456017Y-111268669D01*
X137632785Y-111189967D01*
X137789327Y-111076233D01*
X137918802Y-110932436D01*
X138015550Y-110764863D01*
X138075344Y-110580837D01*
X138095570Y-110388400D01*
X138784430Y-110388400D01*
X138804656Y-110580839D01*
X138804657Y-110580841D01*
X138864447Y-110764856D01*
X138864450Y-110764863D01*
X138961197Y-110932435D01*
X139090667Y-111076228D01*
X139090674Y-111076234D01*
X139247210Y-111189964D01*
X139247211Y-111189964D01*
X139247215Y-111189967D01*
X139346396Y-111234125D01*
X139423978Y-111268667D01*
X139423983Y-111268669D01*
X139613252Y-111308900D01*
X139806748Y-111308900D01*
X139996017Y-111268669D01*
X140172785Y-111189967D01*
X140329327Y-111076233D01*
X140458802Y-110932436D01*
X140555550Y-110764863D01*
X140615344Y-110580837D01*
X140635570Y-110388400D01*
X140615344Y-110195963D01*
X140555550Y-110011937D01*
X140458802Y-109844364D01*
X140442799Y-109826591D01*
X140329332Y-109700571D01*
X140329325Y-109700565D01*
X140172789Y-109586835D01*
X140172786Y-109586833D01*
X140172785Y-109586833D01*
X140088682Y-109549388D01*
X139996021Y-109508132D01*
X139996016Y-109508130D01*
X139806748Y-109467900D01*
X139613252Y-109467900D01*
X139423983Y-109508130D01*
X139423978Y-109508132D01*
X139247215Y-109586833D01*
X139247210Y-109586835D01*
X139090674Y-109700565D01*
X139090667Y-109700571D01*
X138961197Y-109844364D01*
X138864450Y-110011936D01*
X138864447Y-110011943D01*
X138804657Y-110195958D01*
X138804656Y-110195960D01*
X138784430Y-110388400D01*
X138095570Y-110388400D01*
X138075344Y-110195963D01*
X138036881Y-110077589D01*
X138034887Y-110007752D01*
X138067130Y-109951595D01*
X139071465Y-108947262D01*
X139114317Y-108873039D01*
X139114318Y-108873038D01*
X139117705Y-108860400D01*
X139120262Y-108850853D01*
X139136500Y-108790253D01*
X139136500Y-107568423D01*
X139156185Y-107501384D01*
X139204205Y-107457938D01*
X139248342Y-107435450D01*
X139338050Y-107345742D01*
X139395646Y-107232704D01*
X139395646Y-107232702D01*
X139395647Y-107232701D01*
X139410499Y-107138924D01*
X139410500Y-107138919D01*
X139410499Y-106525882D01*
X139395646Y-106432096D01*
X139338050Y-106319058D01*
X139338044Y-106319052D01*
X139332311Y-106311159D01*
X139334401Y-106309640D01*
X139307855Y-106261024D01*
X139312839Y-106191332D01*
X139341335Y-106146990D01*
X139536313Y-105952013D01*
X139597635Y-105918531D01*
X139667326Y-105923515D01*
X139680274Y-105929207D01*
X139775877Y-105977919D01*
X139777696Y-105978846D01*
X139777698Y-105978847D01*
X139871475Y-105993699D01*
X139871481Y-105993700D01*
X140334518Y-105993699D01*
X140428304Y-105978846D01*
X140541342Y-105921250D01*
X140631050Y-105831542D01*
X140688646Y-105718504D01*
X140688646Y-105718503D01*
X140692263Y-105711405D01*
X140740238Y-105660609D01*
X140802748Y-105643700D01*
X140937932Y-105643700D01*
X141004971Y-105663385D01*
X141048415Y-105711403D01*
X141104472Y-105821420D01*
X141104474Y-105821422D01*
X141104476Y-105821425D01*
X141199774Y-105916723D01*
X141199778Y-105916726D01*
X141199780Y-105916728D01*
X141319874Y-105977919D01*
X141319876Y-105977919D01*
X141319878Y-105977920D01*
X141419507Y-105993700D01*
X141419512Y-105993700D01*
X141936493Y-105993700D01*
X142036121Y-105977920D01*
X142036121Y-105977919D01*
X142036126Y-105977919D01*
X142156220Y-105916728D01*
X142251528Y-105821420D01*
X142264449Y-105796060D01*
X142312422Y-105745266D01*
X142380242Y-105728470D01*
X142446378Y-105751007D01*
X142489494Y-105804903D01*
X142509472Y-105853134D01*
X142600038Y-105971161D01*
X142718066Y-106061728D01*
X142855501Y-106118655D01*
X142855506Y-106118657D01*
X142965969Y-106133199D01*
X142978000Y-106133198D01*
X142978000Y-105068200D01*
X143478000Y-105068200D01*
X144017999Y-105068200D01*
X144017999Y-105031168D01*
X144003459Y-104920713D01*
X144003455Y-104920701D01*
X143946528Y-104783266D01*
X143946528Y-104783265D01*
X143855961Y-104665238D01*
X143737933Y-104574671D01*
X143600498Y-104517744D01*
X143600493Y-104517742D01*
X143490038Y-104503201D01*
X143490022Y-104503200D01*
X143478000Y-104503200D01*
X143478000Y-105068200D01*
X142978000Y-105068200D01*
X142978000Y-104503199D01*
X142965970Y-104503200D01*
X142965969Y-104503200D01*
X142855512Y-104517741D01*
X142855501Y-104517744D01*
X142718066Y-104574671D01*
X142718065Y-104574671D01*
X142600038Y-104665238D01*
X142509473Y-104783264D01*
X142489494Y-104831497D01*
X142445652Y-104885900D01*
X142379358Y-104907964D01*
X142311659Y-104890684D01*
X142264449Y-104840339D01*
X142251528Y-104814980D01*
X142251524Y-104814976D01*
X142251523Y-104814974D01*
X142156225Y-104719676D01*
X142156221Y-104719673D01*
X142156220Y-104719672D01*
X142036126Y-104658481D01*
X142036124Y-104658480D01*
X142036121Y-104658479D01*
X141936493Y-104642700D01*
X141936488Y-104642700D01*
X141419512Y-104642700D01*
X141419507Y-104642700D01*
X141319878Y-104658479D01*
X141199778Y-104719673D01*
X141199774Y-104719676D01*
X141104476Y-104814974D01*
X141104473Y-104814979D01*
X141104472Y-104814980D01*
X141048417Y-104924995D01*
X141000442Y-104975791D01*
X140937932Y-104992700D01*
X140802747Y-104992700D01*
X140735708Y-104973015D01*
X140692262Y-104924995D01*
X140688646Y-104917898D01*
X140688646Y-104917896D01*
X140631050Y-104804858D01*
X140631048Y-104804856D01*
X140631045Y-104804852D01*
X140541347Y-104715154D01*
X140541344Y-104715152D01*
X140541342Y-104715150D01*
X140443385Y-104665238D01*
X140428301Y-104657552D01*
X140334524Y-104642700D01*
X140078187Y-104642700D01*
X140011148Y-104623015D01*
X139965393Y-104570211D01*
X139955449Y-104501053D01*
X139984474Y-104437497D01*
X139990492Y-104431033D01*
X140283507Y-104138019D01*
X140344830Y-104104534D01*
X140371188Y-104101700D01*
X142765688Y-104101700D01*
X142832727Y-104121385D01*
X142868790Y-104156808D01*
X142881448Y-104175753D01*
X142947769Y-104220067D01*
X142947770Y-104220068D01*
X143006247Y-104231699D01*
X143006250Y-104231700D01*
X143006252Y-104231700D01*
X144145750Y-104231700D01*
X144145751Y-104231699D01*
X144160568Y-104228752D01*
X144204229Y-104220068D01*
X144204229Y-104220067D01*
X144204231Y-104220067D01*
X144270552Y-104175752D01*
X144314867Y-104109431D01*
X144314867Y-104109429D01*
X144314868Y-104109429D01*
X144326499Y-104050952D01*
X144326500Y-104050950D01*
X144326500Y-103501449D01*
X144326499Y-103501447D01*
X144314868Y-103442970D01*
X144314867Y-103442969D01*
X144270551Y-103376646D01*
X144261917Y-103368012D01*
X144263645Y-103366283D01*
X144229721Y-103325694D01*
X144221011Y-103256370D01*
X144251163Y-103193341D01*
X144264654Y-103181650D01*
X144270549Y-103175755D01*
X144270550Y-103175753D01*
X144270552Y-103175752D01*
X144283210Y-103156807D01*
X144336823Y-103112004D01*
X144386312Y-103101700D01*
X144924029Y-103101700D01*
X144991068Y-103121385D01*
X145036823Y-103174189D01*
X145048029Y-103225700D01*
X145048029Y-103971836D01*
X145041071Y-104012790D01*
X144994353Y-104146302D01*
X144991500Y-104176730D01*
X144991500Y-105010269D01*
X144994353Y-105040697D01*
X145024742Y-105127544D01*
X145031700Y-105168498D01*
X145031700Y-105430856D01*
X145012015Y-105497895D01*
X144961160Y-105542740D01*
X144148223Y-105931173D01*
X144079247Y-105942314D01*
X144015198Y-105914396D01*
X143976410Y-105856282D01*
X143975198Y-105786423D01*
X143980202Y-105771836D01*
X144003456Y-105715695D01*
X144003457Y-105715693D01*
X144017998Y-105605238D01*
X144018000Y-105605222D01*
X144018000Y-105568200D01*
X143478000Y-105568200D01*
X143478000Y-106173271D01*
X143458315Y-106240310D01*
X143415092Y-106281178D01*
X143411737Y-106283077D01*
X143364428Y-106314358D01*
X143364425Y-106314360D01*
X143313559Y-106359215D01*
X143296961Y-106375620D01*
X143296955Y-106375628D01*
X143252311Y-106455438D01*
X143252309Y-106455443D01*
X143232626Y-106522475D01*
X143232625Y-106522480D01*
X143232625Y-106522481D01*
X143228458Y-106551466D01*
X143224300Y-106580382D01*
X143224300Y-110769655D01*
X143223703Y-110781809D01*
X143212417Y-110896399D01*
X143232699Y-111102332D01*
X143232700Y-111102334D01*
X143292768Y-111300354D01*
X143390315Y-111482850D01*
X143390317Y-111482852D01*
X143521589Y-111642810D01*
X143593146Y-111701534D01*
X143681550Y-111774085D01*
X143864046Y-111871632D01*
X144062066Y-111931700D01*
X144062065Y-111931700D01*
X144080529Y-111933518D01*
X144268000Y-111951983D01*
X144473934Y-111931700D01*
X144671954Y-111871632D01*
X144854450Y-111774085D01*
X145014410Y-111642810D01*
X145145685Y-111482850D01*
X145243232Y-111300354D01*
X145303300Y-111102334D01*
X145323583Y-110896400D01*
X145313887Y-110797971D01*
X145313798Y-110781894D01*
X145313483Y-110781890D01*
X145315564Y-110646399D01*
X145641900Y-110646399D01*
X145641900Y-110646400D01*
X146374988Y-110646400D01*
X146342075Y-110703407D01*
X146308000Y-110830574D01*
X146308000Y-110962226D01*
X146342075Y-111089393D01*
X146374988Y-111146400D01*
X145641900Y-111146400D01*
X145693601Y-111328114D01*
X145693604Y-111328120D01*
X145791907Y-111525538D01*
X145924813Y-111701534D01*
X146087791Y-111850107D01*
X146275300Y-111966208D01*
X146275301Y-111966209D01*
X146480948Y-112045876D01*
X146558000Y-112060279D01*
X146558000Y-111329412D01*
X146615007Y-111362325D01*
X146742174Y-111396400D01*
X146873826Y-111396400D01*
X147000993Y-111362325D01*
X147058000Y-111329412D01*
X147058000Y-112060278D01*
X147135051Y-112045876D01*
X147340698Y-111966209D01*
X147340699Y-111966208D01*
X147528208Y-111850107D01*
X147691186Y-111701534D01*
X147824092Y-111525538D01*
X147922395Y-111328121D01*
X147958733Y-111200405D01*
X147996012Y-111141311D01*
X148059322Y-111111753D01*
X148128561Y-111121115D01*
X148181748Y-111166424D01*
X148197267Y-111200405D01*
X148233604Y-111328121D01*
X148331907Y-111525538D01*
X148464813Y-111701534D01*
X148627791Y-111850107D01*
X148815300Y-111966208D01*
X148815301Y-111966209D01*
X149020948Y-112045876D01*
X149098000Y-112060279D01*
X149098000Y-111329412D01*
X149155007Y-111362325D01*
X149282174Y-111396400D01*
X149413826Y-111396400D01*
X149540993Y-111362325D01*
X149598000Y-111329412D01*
X149598000Y-112060278D01*
X149675051Y-112045876D01*
X149880698Y-111966209D01*
X149880699Y-111966208D01*
X150068208Y-111850107D01*
X150231186Y-111701534D01*
X150364092Y-111525538D01*
X150462395Y-111328121D01*
X150498733Y-111200405D01*
X150536012Y-111141311D01*
X150599322Y-111111753D01*
X150668561Y-111121115D01*
X150721748Y-111166424D01*
X150737267Y-111200405D01*
X150773604Y-111328121D01*
X150871907Y-111525538D01*
X151004813Y-111701534D01*
X151167791Y-111850107D01*
X151355300Y-111966208D01*
X151355301Y-111966209D01*
X151560948Y-112045876D01*
X151638000Y-112060279D01*
X151638000Y-111329412D01*
X151695007Y-111362325D01*
X151822174Y-111396400D01*
X151953826Y-111396400D01*
X152080993Y-111362325D01*
X152138000Y-111329412D01*
X152138000Y-112060278D01*
X152215051Y-112045876D01*
X152420698Y-111966209D01*
X152420699Y-111966208D01*
X152608208Y-111850107D01*
X152771186Y-111701534D01*
X152904092Y-111525538D01*
X153002395Y-111328120D01*
X153002398Y-111328114D01*
X153054099Y-111146400D01*
X152321012Y-111146400D01*
X152353925Y-111089393D01*
X152388000Y-110962226D01*
X152388000Y-110830574D01*
X152353925Y-110703407D01*
X152321012Y-110646400D01*
X153054100Y-110646400D01*
X153054099Y-110646399D01*
X153002398Y-110464685D01*
X153002395Y-110464679D01*
X152904092Y-110267261D01*
X152771186Y-110091265D01*
X152608208Y-109942692D01*
X152420699Y-109826591D01*
X152420695Y-109826589D01*
X152215056Y-109746925D01*
X152215051Y-109746924D01*
X152138000Y-109732520D01*
X152138000Y-110463388D01*
X152080993Y-110430475D01*
X151953826Y-110396400D01*
X151822174Y-110396400D01*
X151695007Y-110430475D01*
X151638000Y-110463388D01*
X151638000Y-109732520D01*
X151560948Y-109746924D01*
X151560943Y-109746925D01*
X151355304Y-109826589D01*
X151355300Y-109826591D01*
X151167791Y-109942692D01*
X151004813Y-110091265D01*
X150871907Y-110267261D01*
X150773605Y-110464677D01*
X150737267Y-110592395D01*
X150699987Y-110651488D01*
X150636678Y-110681046D01*
X150567438Y-110671684D01*
X150514252Y-110626375D01*
X150498733Y-110592395D01*
X150462394Y-110464677D01*
X150364092Y-110267261D01*
X150231186Y-110091265D01*
X150068208Y-109942692D01*
X149880699Y-109826591D01*
X149880695Y-109826589D01*
X149675056Y-109746925D01*
X149675051Y-109746924D01*
X149598000Y-109732520D01*
X149598000Y-110463388D01*
X149540993Y-110430475D01*
X149413826Y-110396400D01*
X149282174Y-110396400D01*
X149155007Y-110430475D01*
X149098000Y-110463388D01*
X149098000Y-109732520D01*
X149020948Y-109746924D01*
X149020943Y-109746925D01*
X148815304Y-109826589D01*
X148815300Y-109826591D01*
X148627791Y-109942692D01*
X148464813Y-110091265D01*
X148331907Y-110267261D01*
X148233605Y-110464677D01*
X148197267Y-110592395D01*
X148159987Y-110651488D01*
X148096678Y-110681046D01*
X148027438Y-110671684D01*
X147974252Y-110626375D01*
X147958733Y-110592395D01*
X147922394Y-110464677D01*
X147824092Y-110267261D01*
X147691186Y-110091265D01*
X147528208Y-109942692D01*
X147340699Y-109826591D01*
X147340695Y-109826589D01*
X147135056Y-109746925D01*
X147135051Y-109746924D01*
X147058000Y-109732520D01*
X147058000Y-110463388D01*
X147000993Y-110430475D01*
X146873826Y-110396400D01*
X146742174Y-110396400D01*
X146615007Y-110430475D01*
X146558000Y-110463388D01*
X146558000Y-109732520D01*
X146480948Y-109746924D01*
X146480943Y-109746925D01*
X146275304Y-109826589D01*
X146275300Y-109826591D01*
X146087791Y-109942692D01*
X145924813Y-110091265D01*
X145791907Y-110267261D01*
X145693604Y-110464679D01*
X145693601Y-110464685D01*
X145641900Y-110646399D01*
X145315564Y-110646399D01*
X145324056Y-110093400D01*
X145324059Y-110093209D01*
X145324078Y-110091556D01*
X145324093Y-110089504D01*
X145324098Y-110087757D01*
X145323726Y-109776561D01*
X145340922Y-109713417D01*
X145483388Y-109471898D01*
X145534404Y-109424158D01*
X145590191Y-109410900D01*
X146548568Y-109410900D01*
X146548573Y-109410900D01*
X146578734Y-109407692D01*
X146592201Y-109406999D01*
X147191308Y-109408821D01*
X147207090Y-109409880D01*
X147324971Y-109425399D01*
X147837000Y-109425399D01*
X147849031Y-109425399D01*
X147959486Y-109410859D01*
X147959498Y-109410855D01*
X148096933Y-109353928D01*
X148096934Y-109353928D01*
X148214961Y-109263361D01*
X148305528Y-109145334D01*
X148305528Y-109145333D01*
X148362455Y-109007898D01*
X148362457Y-109007893D01*
X148376998Y-108897438D01*
X148377000Y-108897422D01*
X148377000Y-108860400D01*
X147837000Y-108860400D01*
X147837000Y-109425399D01*
X147324971Y-109425399D01*
X147337000Y-109425398D01*
X147337000Y-108360400D01*
X147837000Y-108360400D01*
X148376999Y-108360400D01*
X148376999Y-108323368D01*
X148362459Y-108212913D01*
X148362455Y-108212901D01*
X148305528Y-108075466D01*
X148305528Y-108075465D01*
X148214961Y-107957437D01*
X148201068Y-107946777D01*
X148159864Y-107890350D01*
X148155709Y-107820604D01*
X148189920Y-107759683D01*
X148201068Y-107750023D01*
X148214961Y-107739362D01*
X148305528Y-107621334D01*
X148305528Y-107621333D01*
X148362455Y-107483898D01*
X148362457Y-107483893D01*
X148376998Y-107373438D01*
X148377000Y-107373422D01*
X148377000Y-107336400D01*
X147837000Y-107336400D01*
X147837000Y-108360400D01*
X147337000Y-108360400D01*
X147337000Y-106960400D01*
X147356685Y-106893361D01*
X147409489Y-106847606D01*
X147461000Y-106836400D01*
X148376999Y-106836400D01*
X148376999Y-106799368D01*
X148362459Y-106688913D01*
X148362455Y-106688901D01*
X148305528Y-106551466D01*
X148305528Y-106551465D01*
X148214959Y-106433435D01*
X148118159Y-106359157D01*
X148076957Y-106302729D01*
X148069646Y-106260782D01*
X148069646Y-105667921D01*
X148074671Y-105632980D01*
X148075975Y-105628540D01*
X148084300Y-105570642D01*
X148084300Y-105356799D01*
X149783116Y-105356799D01*
X149783116Y-105356800D01*
X149802609Y-105567169D01*
X149860427Y-105770381D01*
X149954600Y-105959503D01*
X149961975Y-105969270D01*
X150528000Y-105403246D01*
X150528000Y-105409461D01*
X150555259Y-105511194D01*
X150607920Y-105602406D01*
X150682394Y-105676880D01*
X150773606Y-105729541D01*
X150875339Y-105756800D01*
X150881553Y-105756800D01*
X150318255Y-106320095D01*
X150417680Y-106381657D01*
X150417681Y-106381658D01*
X150614685Y-106457977D01*
X150822365Y-106496800D01*
X151033635Y-106496800D01*
X151241319Y-106457976D01*
X151438309Y-106381661D01*
X151438327Y-106381652D01*
X151537742Y-106320096D01*
X151537742Y-106320095D01*
X150974448Y-105756800D01*
X150980661Y-105756800D01*
X151082394Y-105729541D01*
X151173606Y-105676880D01*
X151248080Y-105602406D01*
X151300741Y-105511194D01*
X151328000Y-105409461D01*
X151328000Y-105403247D01*
X151894023Y-105969270D01*
X151901401Y-105959500D01*
X151901403Y-105959497D01*
X151995572Y-105770382D01*
X152053390Y-105567169D01*
X152072884Y-105356800D01*
X152072884Y-105356799D01*
X152053390Y-105146430D01*
X151995572Y-104943218D01*
X151901399Y-104754095D01*
X151894024Y-104744328D01*
X151328000Y-105310352D01*
X151328000Y-105304139D01*
X151300741Y-105202406D01*
X151248080Y-105111194D01*
X151173606Y-105036720D01*
X151082394Y-104984059D01*
X150980661Y-104956800D01*
X150974448Y-104956800D01*
X151537743Y-104393503D01*
X151438319Y-104331942D01*
X151438318Y-104331941D01*
X151241314Y-104255622D01*
X151033635Y-104216800D01*
X150822365Y-104216800D01*
X150614685Y-104255622D01*
X150417683Y-104331940D01*
X150417677Y-104331943D01*
X150318256Y-104393502D01*
X150318255Y-104393503D01*
X150881553Y-104956800D01*
X150875339Y-104956800D01*
X150773606Y-104984059D01*
X150682394Y-105036720D01*
X150607920Y-105111194D01*
X150555259Y-105202406D01*
X150528000Y-105304139D01*
X150528000Y-105310353D01*
X149961974Y-104744327D01*
X149954602Y-104754092D01*
X149954598Y-104754098D01*
X149860427Y-104943218D01*
X149802609Y-105146430D01*
X149783116Y-105356799D01*
X148084300Y-105356799D01*
X148084300Y-104594200D01*
X148079603Y-104550516D01*
X148069310Y-104503200D01*
X148068402Y-104499025D01*
X148068148Y-104497989D01*
X148065910Y-104488827D01*
X148057067Y-104472232D01*
X148042500Y-104413919D01*
X148042500Y-104176730D01*
X148039646Y-104146303D01*
X148039646Y-104146302D01*
X148039646Y-104146301D01*
X147994793Y-104018118D01*
X147966874Y-103980288D01*
X147942904Y-103914658D01*
X147942646Y-103906656D01*
X147942646Y-102969753D01*
X147962331Y-102902714D01*
X148015135Y-102856959D01*
X148078801Y-102846350D01*
X148084381Y-102846899D01*
X148084383Y-102846900D01*
X148125213Y-102846900D01*
X148137367Y-102847497D01*
X148178000Y-102851499D01*
X148218633Y-102847497D01*
X148230787Y-102846900D01*
X148271621Y-102846900D01*
X148311660Y-102838934D01*
X148323698Y-102837148D01*
X148364331Y-102833147D01*
X148403423Y-102821288D01*
X148415189Y-102818341D01*
X148455250Y-102810373D01*
X148455255Y-102810370D01*
X148455258Y-102810370D01*
X148492977Y-102794746D01*
X148504425Y-102790648D01*
X148543501Y-102778796D01*
X148579509Y-102759548D01*
X148590496Y-102754352D01*
X148628230Y-102738723D01*
X148662192Y-102716029D01*
X148672611Y-102709784D01*
X148708625Y-102690536D01*
X148740187Y-102664632D01*
X148749953Y-102657389D01*
X148783908Y-102634702D01*
X148812794Y-102605815D01*
X148821789Y-102597663D01*
X148853357Y-102571757D01*
X148879275Y-102540173D01*
X148887419Y-102531189D01*
X150040391Y-101378219D01*
X150101714Y-101344734D01*
X150128072Y-101341900D01*
X151058384Y-101341900D01*
X152040728Y-101341900D01*
X152107767Y-101361585D01*
X152128409Y-101378219D01*
X153441181Y-102690991D01*
X153474666Y-102752314D01*
X153477500Y-102778672D01*
X153477500Y-104383534D01*
X153457815Y-104450573D01*
X153456603Y-104452424D01*
X153439132Y-104478570D01*
X153439131Y-104478573D01*
X153427500Y-104537047D01*
X153427500Y-106176552D01*
X153439131Y-106235028D01*
X153439132Y-106235030D01*
X153439133Y-106235031D01*
X153456501Y-106261024D01*
X153456602Y-106261174D01*
X153477480Y-106327852D01*
X153477500Y-106330066D01*
X153477500Y-109806433D01*
X153457815Y-109873472D01*
X153441184Y-109894112D01*
X153433446Y-109901849D01*
X153389132Y-109968168D01*
X153389131Y-109968170D01*
X153377500Y-110026647D01*
X153377500Y-111766152D01*
X153389131Y-111824629D01*
X153389132Y-111824630D01*
X153433447Y-111890952D01*
X153499769Y-111935267D01*
X153499770Y-111935268D01*
X153558247Y-111946899D01*
X153558250Y-111946900D01*
X153558252Y-111946900D01*
X155297750Y-111946900D01*
X155297751Y-111946899D01*
X155312568Y-111943952D01*
X155356229Y-111935268D01*
X155356229Y-111935267D01*
X155356231Y-111935267D01*
X155422552Y-111890952D01*
X155466867Y-111824631D01*
X155466867Y-111824629D01*
X155466868Y-111824629D01*
X155478499Y-111766152D01*
X155478500Y-111766150D01*
X155478500Y-110026649D01*
X155478499Y-110026647D01*
X155466868Y-109968170D01*
X155466867Y-109968168D01*
X155422553Y-109901849D01*
X155414816Y-109894112D01*
X155381333Y-109832787D01*
X155378500Y-109806433D01*
X155378500Y-106330066D01*
X155398185Y-106263027D01*
X155399398Y-106261174D01*
X155416867Y-106235031D01*
X155416940Y-106234667D01*
X155428499Y-106176552D01*
X155428500Y-106176550D01*
X155428500Y-104537049D01*
X155428499Y-104537047D01*
X155416868Y-104478573D01*
X155416867Y-104478570D01*
X155416867Y-104478569D01*
X155399396Y-104452422D01*
X155378520Y-104385747D01*
X155378500Y-104383534D01*
X155378500Y-102239983D01*
X155378499Y-102239979D01*
X155365724Y-102175753D01*
X155341973Y-102056349D01*
X155308717Y-101976062D01*
X155308647Y-101975892D01*
X155270326Y-101883376D01*
X155270319Y-101883363D01*
X155166302Y-101727692D01*
X155166299Y-101727688D01*
X153091711Y-99653100D01*
X153091707Y-99653097D01*
X152936036Y-99549080D01*
X152936023Y-99549073D01*
X152821052Y-99501452D01*
X152763051Y-99477427D01*
X152763043Y-99477425D01*
X152671233Y-99459163D01*
X152579420Y-99440900D01*
X152579417Y-99440900D01*
X152579416Y-99440900D01*
X152044007Y-99440900D01*
X151976968Y-99421215D01*
X151931213Y-99368411D01*
X151921269Y-99299253D01*
X151929446Y-99269447D01*
X151952456Y-99213895D01*
X151952457Y-99213893D01*
X151966998Y-99103438D01*
X151967000Y-99103422D01*
X151967000Y-99091400D01*
X148762201Y-99091400D01*
X148762201Y-99103431D01*
X148776740Y-99213886D01*
X148776744Y-99213898D01*
X148833671Y-99351333D01*
X148833671Y-99351334D01*
X148924240Y-99469365D01*
X148942649Y-99483491D01*
X148983851Y-99539919D01*
X148988004Y-99609665D01*
X148954843Y-99669546D01*
X148838896Y-99785493D01*
X148838894Y-99785496D01*
X148734879Y-99941165D01*
X148706029Y-100010813D01*
X148679150Y-100051038D01*
X148254173Y-100476016D01*
X148192850Y-100509501D01*
X148123159Y-100504517D01*
X148067225Y-100462646D01*
X148042808Y-100397181D01*
X148042698Y-100388165D01*
X148042500Y-100388165D01*
X148042500Y-99551730D01*
X148039646Y-99521303D01*
X148039646Y-99521301D01*
X148000403Y-99409152D01*
X147993446Y-99368199D01*
X147993446Y-98969787D01*
X147591397Y-98969455D01*
X147524374Y-98949715D01*
X147478663Y-98896873D01*
X147467500Y-98845455D01*
X147467500Y-97836574D01*
X147487185Y-97769535D01*
X147539989Y-97723780D01*
X147609147Y-97713836D01*
X147672703Y-97742861D01*
X147694604Y-97767686D01*
X147694648Y-97767752D01*
X147760969Y-97812067D01*
X147760970Y-97812068D01*
X147819447Y-97823699D01*
X147819450Y-97823700D01*
X149141895Y-97823700D01*
X149208934Y-97843385D01*
X149254689Y-97896189D01*
X149264633Y-97965347D01*
X149235608Y-98028903D01*
X149186287Y-98060598D01*
X149187213Y-98062833D01*
X149042266Y-98122871D01*
X149042265Y-98122871D01*
X148924238Y-98213438D01*
X148833671Y-98331465D01*
X148833671Y-98331466D01*
X148776744Y-98468901D01*
X148776742Y-98468906D01*
X148762201Y-98579361D01*
X148762200Y-98579377D01*
X148762200Y-98591400D01*
X151966999Y-98591400D01*
X151966999Y-98579368D01*
X151952459Y-98468913D01*
X151952455Y-98468901D01*
X151895528Y-98331466D01*
X151895528Y-98331465D01*
X151804961Y-98213438D01*
X151686933Y-98122871D01*
X151541987Y-98062833D01*
X151543117Y-98060103D01*
X151495553Y-98031113D01*
X151465022Y-97968267D01*
X151473314Y-97898891D01*
X151517798Y-97845012D01*
X151584349Y-97823735D01*
X151587304Y-97823700D01*
X152858950Y-97823700D01*
X152858951Y-97823699D01*
X152873768Y-97820752D01*
X152917429Y-97812068D01*
X152917429Y-97812067D01*
X152917431Y-97812067D01*
X152983752Y-97767752D01*
X153028067Y-97701431D01*
X153028067Y-97701429D01*
X153028068Y-97701429D01*
X153039699Y-97642952D01*
X153039700Y-97642950D01*
X153039700Y-94503449D01*
X153039699Y-94503447D01*
X153028068Y-94444970D01*
X153028067Y-94444969D01*
X152983752Y-94378647D01*
X152917430Y-94334332D01*
X152917429Y-94334331D01*
X152858952Y-94322700D01*
X152858948Y-94322700D01*
X147819452Y-94322700D01*
X147819447Y-94322700D01*
X147760970Y-94334331D01*
X147760969Y-94334332D01*
X147694647Y-94378647D01*
X147650332Y-94444969D01*
X147650331Y-94444970D01*
X147638700Y-94503447D01*
X147638700Y-94998700D01*
X147619015Y-95065739D01*
X147566211Y-95111494D01*
X147514700Y-95122700D01*
X147286378Y-95122700D01*
X147102756Y-95159225D01*
X147102748Y-95159227D01*
X146929771Y-95230876D01*
X146929762Y-95230881D01*
X146774091Y-95334898D01*
X146774087Y-95334901D01*
X145778700Y-96330288D01*
X145778697Y-96330292D01*
X145674680Y-96485963D01*
X145674675Y-96485973D01*
X145643640Y-96560896D01*
X145643641Y-96560897D01*
X145641346Y-96566438D01*
X145634453Y-96583082D01*
X145628457Y-96597558D01*
X145628455Y-96597562D01*
X145603027Y-96658949D01*
X145603025Y-96658957D01*
X145572683Y-96811500D01*
X145572683Y-96811503D01*
X145566500Y-96842583D01*
X145566500Y-98843679D01*
X145546815Y-98910718D01*
X145494011Y-98956473D01*
X145442398Y-98967679D01*
X145098829Y-98967396D01*
X145098829Y-99271528D01*
X145079144Y-99338567D01*
X145074600Y-99345160D01*
X145039208Y-99393115D01*
X144994353Y-99521303D01*
X144991500Y-99551730D01*
X144991500Y-99555627D01*
X144971815Y-99622666D01*
X144919011Y-99668421D01*
X144867443Y-99679627D01*
X144450443Y-99679435D01*
X144383413Y-99659720D01*
X144337682Y-99606895D01*
X144326500Y-99555435D01*
X144326500Y-99501449D01*
X144326499Y-99501447D01*
X144314868Y-99442970D01*
X144314867Y-99442969D01*
X144270552Y-99376647D01*
X144204230Y-99332332D01*
X144204229Y-99332331D01*
X144145752Y-99320700D01*
X144145748Y-99320700D01*
X143006252Y-99320700D01*
X143006247Y-99320700D01*
X142944340Y-99333014D01*
X142874748Y-99326787D01*
X142844663Y-99309773D01*
X142768934Y-99251664D01*
X142622854Y-99191156D01*
X142622852Y-99191155D01*
X142466093Y-99170518D01*
X142466091Y-99170518D01*
X142309331Y-99191155D01*
X142309329Y-99191156D01*
X142155743Y-99254774D01*
X142154774Y-99252435D01*
X142099178Y-99265913D01*
X142033155Y-99243049D01*
X141989974Y-99188120D01*
X141981100Y-99142054D01*
X141981100Y-98060183D01*
X141981099Y-98060179D01*
X141949017Y-97898891D01*
X141944573Y-97876549D01*
X141872922Y-97703569D01*
X141872921Y-97703568D01*
X141872918Y-97703562D01*
X141768903Y-97547893D01*
X141768902Y-97547892D01*
X141636508Y-97415498D01*
X141032510Y-96811500D01*
X140369111Y-96148100D01*
X140369107Y-96148097D01*
X140213436Y-96044080D01*
X140213427Y-96044075D01*
X140112103Y-96002106D01*
X140112101Y-96002105D01*
X140040451Y-95972427D01*
X140040447Y-95972426D01*
X140040443Y-95972424D01*
X139948633Y-95954163D01*
X139856820Y-95935900D01*
X139856817Y-95935900D01*
X139856816Y-95935900D01*
X138500700Y-95935900D01*
X138433661Y-95916215D01*
X138387906Y-95863411D01*
X138376700Y-95811900D01*
X138376700Y-95579786D01*
X138370286Y-95509207D01*
X138370286Y-95509204D01*
X138319678Y-95346794D01*
X138231672Y-95201215D01*
X138231670Y-95201213D01*
X138231669Y-95201211D01*
X138111388Y-95080930D01*
X137965806Y-94992922D01*
X137803396Y-94942314D01*
X137803394Y-94942313D01*
X137803392Y-94942313D01*
X137753978Y-94937823D01*
X137732816Y-94935900D01*
X136619584Y-94935900D01*
X136600345Y-94937648D01*
X136549007Y-94942313D01*
X136386593Y-94992922D01*
X136241011Y-95080930D01*
X136120730Y-95201211D01*
X136032722Y-95346793D01*
X135982113Y-95509207D01*
X135975700Y-95579786D01*
X135975700Y-96436900D01*
X135956015Y-96503939D01*
X135903211Y-96549694D01*
X135851700Y-96560900D01*
X135523547Y-96560900D01*
X135440761Y-96583082D01*
X135440758Y-96583083D01*
X135403650Y-96604507D01*
X135403650Y-96604508D01*
X135366538Y-96625935D01*
X135366535Y-96625937D01*
X134897537Y-97094935D01*
X134897535Y-97094938D01*
X134854682Y-97169161D01*
X134842471Y-97214734D01*
X134833627Y-97247741D01*
X134832500Y-97251946D01*
X134832500Y-98539553D01*
X134812815Y-98606592D01*
X134760011Y-98652347D01*
X134708453Y-98663553D01*
X133816090Y-98663214D01*
X133749058Y-98643504D01*
X133703323Y-98590683D01*
X133693406Y-98521520D01*
X133710019Y-98475066D01*
X133739678Y-98426006D01*
X133790286Y-98263596D01*
X133796700Y-98193016D01*
X133796700Y-97435875D01*
X133816385Y-97368836D01*
X133869189Y-97323081D01*
X133936882Y-97312936D01*
X134058000Y-97328882D01*
X134058001Y-97328882D01*
X134110254Y-97322002D01*
X134214762Y-97308244D01*
X134360841Y-97247736D01*
X134486282Y-97151482D01*
X134582536Y-97026041D01*
X134643044Y-96879962D01*
X134663682Y-96723200D01*
X134658855Y-96686538D01*
X134648056Y-96604507D01*
X134643044Y-96566438D01*
X134582536Y-96420359D01*
X134486282Y-96294918D01*
X134360841Y-96198664D01*
X134214762Y-96138156D01*
X134214760Y-96138155D01*
X134058001Y-96117518D01*
X134057999Y-96117518D01*
X133936885Y-96133463D01*
X133867850Y-96122697D01*
X133815594Y-96076317D01*
X133796700Y-96010524D01*
X133796700Y-95579786D01*
X133790286Y-95509207D01*
X133790286Y-95509204D01*
X133739678Y-95346794D01*
X133651672Y-95201215D01*
X133651670Y-95201213D01*
X133651669Y-95201211D01*
X133531388Y-95080930D01*
X133385806Y-94992922D01*
X133223396Y-94942314D01*
X133223394Y-94942313D01*
X133223392Y-94942313D01*
X133173978Y-94937823D01*
X133152816Y-94935900D01*
X132039584Y-94935900D01*
X132020345Y-94937648D01*
X131969007Y-94942313D01*
X131806593Y-94992922D01*
X131661011Y-95080930D01*
X131540730Y-95201211D01*
X131452722Y-95346793D01*
X131452722Y-95346794D01*
X131420384Y-95450569D01*
X131381648Y-95508716D01*
X131317623Y-95536690D01*
X131248638Y-95525609D01*
X131196595Y-95478990D01*
X131178000Y-95413678D01*
X131178000Y-93196390D01*
X131197685Y-93129351D01*
X131250489Y-93083596D01*
X131319647Y-93073652D01*
X131375632Y-93096619D01*
X131433318Y-93139193D01*
X131476045Y-93154144D01*
X131561499Y-93184046D01*
X131591930Y-93186900D01*
X131591934Y-93186900D01*
X138200470Y-93186900D01*
X138230899Y-93184046D01*
X138230901Y-93184046D01*
X138294990Y-93161619D01*
X138359082Y-93139193D01*
X138468350Y-93058550D01*
X138548993Y-92949282D01*
X138571419Y-92885190D01*
X138593846Y-92821101D01*
X138593846Y-92821099D01*
X138596700Y-92790669D01*
X138596700Y-92680900D01*
X138616385Y-92613861D01*
X138669189Y-92568106D01*
X138720700Y-92556900D01*
X139569653Y-92556900D01*
X139636692Y-92576585D01*
X139682447Y-92629389D01*
X139693111Y-92669321D01*
X139695153Y-92691099D01*
X139695153Y-92691101D01*
X139740006Y-92819280D01*
X139740007Y-92819282D01*
X139820650Y-92928550D01*
X139929918Y-93009193D01*
X139972645Y-93024144D01*
X140058099Y-93054046D01*
X140088530Y-93056900D01*
X140088534Y-93056900D01*
X141997070Y-93056900D01*
X142027499Y-93054046D01*
X142027501Y-93054046D01*
X142091590Y-93031619D01*
X142155682Y-93009193D01*
X142264950Y-92928550D01*
X142345593Y-92819282D01*
X142368019Y-92755190D01*
X142390446Y-92691101D01*
X142390446Y-92691099D01*
X142393300Y-92660669D01*
X142393300Y-90552130D01*
X142390446Y-90521700D01*
X142390446Y-90521698D01*
X142345593Y-90393519D01*
X142345592Y-90393517D01*
X142264950Y-90284250D01*
X142155682Y-90203607D01*
X142155680Y-90203606D01*
X142027500Y-90158753D01*
X141997070Y-90155900D01*
X141997066Y-90155900D01*
X140088534Y-90155900D01*
X140088530Y-90155900D01*
X140058100Y-90158753D01*
X140058098Y-90158753D01*
X139929919Y-90203606D01*
X139929917Y-90203607D01*
X139820650Y-90284250D01*
X139740007Y-90393517D01*
X139740006Y-90393519D01*
X139695153Y-90521698D01*
X139695153Y-90521700D01*
X139693111Y-90543479D01*
X139667253Y-90608387D01*
X139610407Y-90649012D01*
X139569653Y-90655900D01*
X138720700Y-90655900D01*
X138653661Y-90636215D01*
X138607906Y-90583411D01*
X138596700Y-90531900D01*
X138596700Y-86252130D01*
X139692300Y-86252130D01*
X139692300Y-88360669D01*
X139695153Y-88391099D01*
X139695153Y-88391101D01*
X139740006Y-88519280D01*
X139740007Y-88519282D01*
X139820650Y-88628550D01*
X139929918Y-88709193D01*
X139972645Y-88724144D01*
X140058099Y-88754046D01*
X140088530Y-88756900D01*
X140088534Y-88756900D01*
X141997070Y-88756900D01*
X142027499Y-88754046D01*
X142027501Y-88754046D01*
X142091590Y-88731619D01*
X142155682Y-88709193D01*
X142264950Y-88628550D01*
X142345593Y-88519282D01*
X142368019Y-88455190D01*
X142390446Y-88391101D01*
X142390446Y-88391099D01*
X142392489Y-88369321D01*
X142418347Y-88304413D01*
X142475193Y-88263788D01*
X142515947Y-88256900D01*
X143743618Y-88256900D01*
X143761980Y-88253247D01*
X143835433Y-88238636D01*
X143835434Y-88238636D01*
X143858545Y-88234038D01*
X143927251Y-88220373D01*
X143998901Y-88190694D01*
X144100230Y-88148723D01*
X144255908Y-88044702D01*
X146340591Y-85960019D01*
X146401914Y-85926534D01*
X146428272Y-85923700D01*
X147514700Y-85923700D01*
X147581739Y-85943385D01*
X147627494Y-85996189D01*
X147638700Y-86047700D01*
X147638700Y-86542952D01*
X147650331Y-86601429D01*
X147650332Y-86601430D01*
X147694647Y-86667752D01*
X147760969Y-86712067D01*
X147760970Y-86712068D01*
X147819447Y-86723699D01*
X147819450Y-86723700D01*
X147819452Y-86723700D01*
X152858950Y-86723700D01*
X152858951Y-86723699D01*
X152873768Y-86720752D01*
X152917429Y-86712068D01*
X152917429Y-86712067D01*
X152917431Y-86712067D01*
X152983752Y-86667752D01*
X153028067Y-86601431D01*
X153028067Y-86601429D01*
X153028068Y-86601429D01*
X153039699Y-86542952D01*
X153039700Y-86542950D01*
X153039700Y-83403449D01*
X153039699Y-83403447D01*
X153028068Y-83344970D01*
X153028067Y-83344969D01*
X152983752Y-83278647D01*
X152917430Y-83234332D01*
X152917429Y-83234331D01*
X152858952Y-83222700D01*
X152858948Y-83222700D01*
X151413700Y-83222700D01*
X151346661Y-83203015D01*
X151300906Y-83150211D01*
X151289700Y-83098700D01*
X151289700Y-82040900D01*
X151309385Y-81973861D01*
X151362189Y-81928106D01*
X151413700Y-81916900D01*
X152393070Y-81916900D01*
X152423499Y-81914046D01*
X152423501Y-81914046D01*
X152487590Y-81891619D01*
X152551682Y-81869193D01*
X152660950Y-81788550D01*
X152741593Y-81679282D01*
X152777637Y-81576275D01*
X152786446Y-81551101D01*
X152786446Y-81551099D01*
X152789300Y-81520669D01*
X152789300Y-81505070D01*
X154048800Y-81505070D01*
X154063985Y-81620419D01*
X154063987Y-81620424D01*
X154123433Y-81763941D01*
X154123433Y-81763942D01*
X154218007Y-81887192D01*
X154341258Y-81981766D01*
X154484775Y-82041212D01*
X154484780Y-82041214D01*
X154600129Y-82056400D01*
X155388800Y-82056400D01*
X155388800Y-80816400D01*
X154048800Y-80816400D01*
X154048800Y-81505070D01*
X152789300Y-81505070D01*
X152789300Y-79627729D01*
X154048800Y-79627729D01*
X154048800Y-80316400D01*
X155388800Y-80316400D01*
X155388800Y-79076400D01*
X154600129Y-79076400D01*
X154484780Y-79091585D01*
X154484775Y-79091587D01*
X154341258Y-79151033D01*
X154341257Y-79151033D01*
X154218007Y-79245607D01*
X154123433Y-79368857D01*
X154123433Y-79368858D01*
X154063987Y-79512375D01*
X154063985Y-79512380D01*
X154048800Y-79627729D01*
X152789300Y-79627729D01*
X152789300Y-79612130D01*
X152786446Y-79581700D01*
X152786446Y-79581698D01*
X152741593Y-79453519D01*
X152741592Y-79453517D01*
X152679111Y-79368858D01*
X152660950Y-79344250D01*
X152551682Y-79263607D01*
X152551680Y-79263606D01*
X152423500Y-79218753D01*
X152393070Y-79215900D01*
X152393066Y-79215900D01*
X150284534Y-79215900D01*
X150284530Y-79215900D01*
X150254100Y-79218753D01*
X150254098Y-79218753D01*
X150125919Y-79263606D01*
X150125917Y-79263607D01*
X150016650Y-79344250D01*
X149936007Y-79453517D01*
X149936006Y-79453519D01*
X149891153Y-79581698D01*
X149891153Y-79581700D01*
X149888300Y-79612130D01*
X149888300Y-80621327D01*
X149868615Y-80688366D01*
X149851981Y-80709008D01*
X149600900Y-80960088D01*
X149600897Y-80960092D01*
X149496880Y-81115763D01*
X149496875Y-81115772D01*
X149454905Y-81217096D01*
X149454905Y-81217099D01*
X149446044Y-81238493D01*
X149425226Y-81288752D01*
X149425224Y-81288756D01*
X149388700Y-81472379D01*
X149388700Y-83098700D01*
X149369015Y-83165739D01*
X149316211Y-83211494D01*
X149264700Y-83222700D01*
X147819447Y-83222700D01*
X147760970Y-83234331D01*
X147760969Y-83234332D01*
X147694647Y-83278647D01*
X147650332Y-83344969D01*
X147650331Y-83344970D01*
X147638700Y-83403447D01*
X147638700Y-83898700D01*
X147619015Y-83965739D01*
X147566211Y-84011494D01*
X147514700Y-84022700D01*
X145889578Y-84022700D01*
X145705952Y-84059225D01*
X145705951Y-84059226D01*
X145705949Y-84059227D01*
X145655284Y-84080212D01*
X145614512Y-84097100D01*
X145532971Y-84130875D01*
X145377291Y-84234898D01*
X145377287Y-84234901D01*
X143292609Y-86319581D01*
X143231286Y-86353066D01*
X143204928Y-86355900D01*
X142515947Y-86355900D01*
X142448908Y-86336215D01*
X142403153Y-86283411D01*
X142392489Y-86243479D01*
X142390446Y-86221700D01*
X142390446Y-86221698D01*
X142345593Y-86093519D01*
X142345592Y-86093517D01*
X142264950Y-85984250D01*
X142155682Y-85903607D01*
X142155680Y-85903606D01*
X142027500Y-85858753D01*
X141997070Y-85855900D01*
X141997066Y-85855900D01*
X140088534Y-85855900D01*
X140088530Y-85855900D01*
X140058100Y-85858753D01*
X140058098Y-85858753D01*
X139929919Y-85903606D01*
X139929917Y-85903607D01*
X139820650Y-85984250D01*
X139740007Y-86093517D01*
X139740006Y-86093519D01*
X139695153Y-86221698D01*
X139695153Y-86221700D01*
X139692300Y-86252130D01*
X138596700Y-86252130D01*
X138596700Y-86182130D01*
X138593846Y-86151700D01*
X138593846Y-86151698D01*
X138548993Y-86023519D01*
X138548992Y-86023517D01*
X138520012Y-85984250D01*
X138468350Y-85914250D01*
X138359082Y-85833607D01*
X138359080Y-85833606D01*
X138230900Y-85788753D01*
X138200470Y-85785900D01*
X138200466Y-85785900D01*
X136907229Y-85785900D01*
X136840190Y-85766215D01*
X136794435Y-85713411D01*
X136784491Y-85644253D01*
X136813516Y-85580697D01*
X136859776Y-85547339D01*
X136866181Y-85544685D01*
X136900537Y-85530455D01*
X137063928Y-85421281D01*
X137202881Y-85282328D01*
X137312055Y-85118937D01*
X137387256Y-84937387D01*
X137425593Y-84744654D01*
X137428000Y-84646400D01*
X137428000Y-80896400D01*
X139372693Y-80896400D01*
X139391903Y-81238481D01*
X139391905Y-81238493D01*
X139449295Y-81576266D01*
X139449297Y-81576275D01*
X139510453Y-81788549D01*
X139544147Y-81905504D01*
X139648108Y-82156487D01*
X139675263Y-82222046D01*
X139840998Y-82521921D01*
X140039269Y-82801359D01*
X140267570Y-83056826D01*
X140267573Y-83056829D01*
X140523040Y-83285130D01*
X140523046Y-83285134D01*
X140523047Y-83285135D01*
X140802479Y-83483402D01*
X141102352Y-83649136D01*
X141418896Y-83780253D01*
X141748130Y-83875104D01*
X142085914Y-83932496D01*
X142428000Y-83951707D01*
X142770086Y-83932496D01*
X143107870Y-83875104D01*
X143437104Y-83780253D01*
X143753648Y-83649136D01*
X144053521Y-83483402D01*
X144332953Y-83285135D01*
X144389802Y-83234332D01*
X144466557Y-83165739D01*
X144588428Y-83056828D01*
X144816735Y-82801353D01*
X145015002Y-82521921D01*
X145180736Y-82222048D01*
X145311853Y-81905504D01*
X145406704Y-81576270D01*
X145464096Y-81238486D01*
X145483307Y-80896400D01*
X145464096Y-80554314D01*
X145406704Y-80216530D01*
X145311853Y-79887296D01*
X145180736Y-79570752D01*
X145015002Y-79270879D01*
X144816735Y-78991447D01*
X144816734Y-78991446D01*
X144816730Y-78991440D01*
X144588429Y-78735973D01*
X144588426Y-78735970D01*
X144332959Y-78507669D01*
X144053521Y-78309398D01*
X143753646Y-78143663D01*
X143688087Y-78116508D01*
X143437104Y-78012547D01*
X143227393Y-77952130D01*
X143107875Y-77917697D01*
X143107866Y-77917695D01*
X142770093Y-77860305D01*
X142770081Y-77860303D01*
X142428000Y-77841093D01*
X142085918Y-77860303D01*
X142085906Y-77860305D01*
X141748133Y-77917695D01*
X141748124Y-77917697D01*
X141418899Y-78012546D01*
X141418896Y-78012547D01*
X141326184Y-78050949D01*
X141102353Y-78143663D01*
X140802478Y-78309398D01*
X140523040Y-78507669D01*
X140267573Y-78735970D01*
X140267570Y-78735973D01*
X140039269Y-78991440D01*
X139840998Y-79270878D01*
X139675263Y-79570753D01*
X139658123Y-79612134D01*
X139544395Y-79886699D01*
X139544146Y-79887299D01*
X139449297Y-80216524D01*
X139449295Y-80216533D01*
X139391905Y-80554306D01*
X139391903Y-80554318D01*
X139372693Y-80896400D01*
X137428000Y-80896400D01*
X137428000Y-80397282D01*
X137428012Y-80395544D01*
X137430274Y-80234129D01*
X137431041Y-80222010D01*
X137467277Y-79900405D01*
X137469606Y-79886699D01*
X137541426Y-79572033D01*
X137545272Y-79558679D01*
X137651883Y-79254001D01*
X137657196Y-79241177D01*
X137797243Y-78950365D01*
X137803959Y-78938213D01*
X137975693Y-78664901D01*
X137983723Y-78653583D01*
X138184979Y-78401216D01*
X138194228Y-78390867D01*
X138422467Y-78162628D01*
X138432816Y-78153379D01*
X138685183Y-77952123D01*
X138696501Y-77944093D01*
X138969813Y-77772359D01*
X138981965Y-77765643D01*
X139272777Y-77625596D01*
X139285601Y-77620283D01*
X139590279Y-77513672D01*
X139603627Y-77509827D01*
X139821293Y-77460146D01*
X139918299Y-77438006D01*
X139932005Y-77435677D01*
X140253610Y-77399441D01*
X140265729Y-77398674D01*
X140427144Y-77396411D01*
X140428882Y-77396400D01*
X154177118Y-77396400D01*
X154178855Y-77396411D01*
G37*
%TD.AperFunction*%
%TA.AperFunction,Conductor*%
G36*
X139385167Y-97856585D02*
G01*
X139405809Y-97873219D01*
X140043781Y-98511191D01*
X140077266Y-98572514D01*
X140080100Y-98598872D01*
X140080100Y-101846729D01*
X140079503Y-101858883D01*
X140077047Y-101883819D01*
X140079503Y-101908755D01*
X140080100Y-101920909D01*
X140080100Y-101975891D01*
X140080100Y-101975892D01*
X140080099Y-101975892D01*
X140090825Y-102029818D01*
X140092609Y-102041846D01*
X140095397Y-102070140D01*
X140095400Y-102070156D01*
X140103653Y-102097364D01*
X140106609Y-102109165D01*
X140116625Y-102159518D01*
X140116626Y-102159520D01*
X140116627Y-102159525D01*
X140136283Y-102206980D01*
X140140375Y-102218418D01*
X140149749Y-102249321D01*
X140149750Y-102249322D01*
X140164970Y-102277799D01*
X140170170Y-102288793D01*
X140185456Y-102325694D01*
X140188277Y-102332504D01*
X140214559Y-102371837D01*
X140220807Y-102382261D01*
X140238010Y-102414445D01*
X140261155Y-102442646D01*
X140268398Y-102452413D01*
X140278148Y-102467005D01*
X140292298Y-102488182D01*
X140322720Y-102518604D01*
X140330885Y-102527613D01*
X140356788Y-102559177D01*
X140388351Y-102585079D01*
X140397359Y-102593243D01*
X140426237Y-102622121D01*
X140460183Y-102644803D01*
X140469953Y-102652049D01*
X140501521Y-102677956D01*
X140501527Y-102677959D01*
X140537527Y-102697202D01*
X140547965Y-102703458D01*
X140581908Y-102726138D01*
X140581912Y-102726140D01*
X140581915Y-102726142D01*
X140619643Y-102741769D01*
X140630631Y-102746966D01*
X140647168Y-102755805D01*
X140666644Y-102766216D01*
X140705717Y-102778069D01*
X140717173Y-102782168D01*
X140741912Y-102792415D01*
X140754896Y-102797793D01*
X140794950Y-102805760D01*
X140806731Y-102808711D01*
X140845815Y-102820567D01*
X140886449Y-102824568D01*
X140898481Y-102826353D01*
X140908873Y-102828420D01*
X140938526Y-102834320D01*
X140938529Y-102834320D01*
X140979359Y-102834320D01*
X140991513Y-102834917D01*
X141032146Y-102838919D01*
X141072779Y-102834917D01*
X141084933Y-102834320D01*
X141125762Y-102834320D01*
X141165817Y-102826352D01*
X141177836Y-102824569D01*
X141218477Y-102820567D01*
X141257558Y-102808710D01*
X141269343Y-102805759D01*
X141309396Y-102797793D01*
X141347125Y-102782163D01*
X141358560Y-102778072D01*
X141397647Y-102766216D01*
X141433670Y-102746960D01*
X141444650Y-102741767D01*
X141482376Y-102726142D01*
X141516319Y-102703460D01*
X141526760Y-102697203D01*
X141526762Y-102697202D01*
X141562771Y-102677956D01*
X141594351Y-102652037D01*
X141604111Y-102644799D01*
X141638054Y-102622121D01*
X141666930Y-102593244D01*
X141675925Y-102585091D01*
X141707503Y-102559177D01*
X141733417Y-102527599D01*
X141741570Y-102518604D01*
X141770447Y-102489728D01*
X141793125Y-102455785D01*
X141800363Y-102446025D01*
X141826282Y-102414445D01*
X141845530Y-102378432D01*
X141851788Y-102367991D01*
X141856022Y-102361655D01*
X141874468Y-102334050D01*
X141890093Y-102296324D01*
X141895286Y-102285344D01*
X141914542Y-102249321D01*
X141926398Y-102210234D01*
X141930493Y-102198792D01*
X141931337Y-102196754D01*
X141966978Y-102150316D01*
X141966695Y-102150033D01*
X141968852Y-102147875D01*
X141970417Y-102145837D01*
X141972429Y-102144292D01*
X141972442Y-102144285D01*
X142550348Y-101566379D01*
X142611671Y-101532894D01*
X142681362Y-101537878D01*
X142737296Y-101579749D01*
X142761713Y-101645214D01*
X142762029Y-101654060D01*
X142762029Y-102980656D01*
X142797232Y-103015876D01*
X142830703Y-103077207D01*
X142831148Y-103079346D01*
X142837131Y-103109429D01*
X142837132Y-103109430D01*
X142881448Y-103175753D01*
X142890083Y-103184388D01*
X142888355Y-103186115D01*
X142922282Y-103226714D01*
X142930987Y-103296039D01*
X142900830Y-103359066D01*
X142887341Y-103370753D01*
X142881450Y-103376644D01*
X142868790Y-103395592D01*
X142815177Y-103440396D01*
X142765688Y-103450700D01*
X140235465Y-103450700D01*
X140235449Y-103450699D01*
X140227853Y-103450699D01*
X140142147Y-103450699D01*
X140100754Y-103461790D01*
X140059359Y-103472882D01*
X140027743Y-103491137D01*
X140027741Y-103491138D01*
X139985141Y-103515733D01*
X139985135Y-103515737D01*
X139438181Y-104062692D01*
X139376858Y-104096177D01*
X139307166Y-104091193D01*
X139251233Y-104049321D01*
X139226816Y-103983857D01*
X139226500Y-103975011D01*
X139226500Y-103501449D01*
X139226499Y-103501447D01*
X139214868Y-103442970D01*
X139214867Y-103442969D01*
X139170551Y-103376646D01*
X139161917Y-103368012D01*
X139163645Y-103366283D01*
X139129721Y-103325694D01*
X139121011Y-103256370D01*
X139151163Y-103193341D01*
X139164654Y-103181650D01*
X139170551Y-103175753D01*
X139206879Y-103121385D01*
X139214867Y-103109431D01*
X139214867Y-103109429D01*
X139214868Y-103109429D01*
X139226499Y-103050952D01*
X139226500Y-103050950D01*
X139226500Y-102501449D01*
X139226499Y-102501447D01*
X139214868Y-102442970D01*
X139214867Y-102442969D01*
X139170551Y-102376646D01*
X139161917Y-102368012D01*
X139163645Y-102366283D01*
X139129721Y-102325694D01*
X139121011Y-102256370D01*
X139151163Y-102193341D01*
X139164654Y-102181650D01*
X139170551Y-102175753D01*
X139170552Y-102175752D01*
X139214867Y-102109431D01*
X139214867Y-102109429D01*
X139214868Y-102109429D01*
X139226499Y-102050952D01*
X139226500Y-102050950D01*
X139226500Y-101501449D01*
X139226499Y-101501447D01*
X139214868Y-101442970D01*
X139211484Y-101434801D01*
X139204015Y-101365332D01*
X139235290Y-101302853D01*
X139238364Y-101299666D01*
X139308808Y-101229222D01*
X139359481Y-101120554D01*
X139365998Y-101071050D01*
X139366000Y-101071033D01*
X139366000Y-101026200D01*
X137586000Y-101026200D01*
X137586000Y-101071033D01*
X137586001Y-101071050D01*
X137592518Y-101120554D01*
X137629817Y-101200541D01*
X137640309Y-101269619D01*
X137611789Y-101333403D01*
X137553313Y-101371642D01*
X137483445Y-101372197D01*
X137429754Y-101340627D01*
X137336864Y-101247737D01*
X137336862Y-101247735D01*
X137336859Y-101247733D01*
X137336855Y-101247730D01*
X137282499Y-101216347D01*
X137234284Y-101165780D01*
X137220500Y-101108961D01*
X137220500Y-100998431D01*
X137217686Y-100968430D01*
X137217686Y-100968426D01*
X137217684Y-100968422D01*
X137217684Y-100968418D01*
X137179891Y-100860413D01*
X137176329Y-100790634D01*
X137211057Y-100730007D01*
X137273051Y-100697779D01*
X137297085Y-100695458D01*
X138036000Y-100696400D01*
X138036000Y-100696399D01*
X138036000Y-100650200D01*
X138055685Y-100583161D01*
X138108489Y-100537406D01*
X138160000Y-100526200D01*
X139366000Y-100526200D01*
X139366000Y-100481366D01*
X139365998Y-100481349D01*
X139359481Y-100431845D01*
X139308807Y-100323175D01*
X139238364Y-100252732D01*
X139204879Y-100191409D01*
X139209863Y-100121717D01*
X139211485Y-100117596D01*
X139214868Y-100109428D01*
X139226499Y-100050952D01*
X139226500Y-100050950D01*
X139226500Y-99501449D01*
X139226499Y-99501447D01*
X139214868Y-99442970D01*
X139214867Y-99442969D01*
X139170552Y-99376647D01*
X139104230Y-99332332D01*
X139104229Y-99332331D01*
X139045752Y-99320700D01*
X139045748Y-99320700D01*
X137906252Y-99320700D01*
X137906247Y-99320700D01*
X137847770Y-99332331D01*
X137847768Y-99332332D01*
X137781448Y-99376647D01*
X137772814Y-99385282D01*
X137770646Y-99383114D01*
X137731691Y-99415655D01*
X137682069Y-99425948D01*
X137458187Y-99425663D01*
X137391173Y-99405893D01*
X137347637Y-99355521D01*
X137347149Y-99355770D01*
X137346138Y-99353787D01*
X137345485Y-99353031D01*
X137344622Y-99350810D01*
X137342719Y-99347075D01*
X137342719Y-99347074D01*
X137281528Y-99226980D01*
X137281526Y-99226978D01*
X137281523Y-99226974D01*
X137186225Y-99131676D01*
X137186222Y-99131674D01*
X137186220Y-99131672D01*
X137067897Y-99071383D01*
X137017103Y-99023410D01*
X137000308Y-98955589D01*
X137022845Y-98889454D01*
X137077561Y-98846003D01*
X137124194Y-98836900D01*
X137732813Y-98836900D01*
X137732816Y-98836900D01*
X137803396Y-98830486D01*
X137965806Y-98779878D01*
X138111385Y-98691872D01*
X138231672Y-98571585D01*
X138319678Y-98426006D01*
X138370286Y-98263596D01*
X138376700Y-98193016D01*
X138376700Y-97960900D01*
X138396385Y-97893861D01*
X138449189Y-97848106D01*
X138500700Y-97836900D01*
X139318128Y-97836900D01*
X139385167Y-97856585D01*
G37*
%TD.AperFunction*%
%TD*%
M02*
