M48
; DRILL file {KiCad 8.0.2} date 2024-05-30T14:18:00+0200
; FORMAT={-:-/ absolute / inch / decimal}
; #@! TF.CreationDate,2024-05-30T14:18:00+02:00
; #@! TF.GenerationSoftware,Kicad,Pcbnew,8.0.2
; #@! TF.FileFunction,Plated,1,2,PTH
FMAT,2
INCH
; #@! TA.AperFunction,Plated,PTH,ViaDrill
T1C0.0079
; #@! TA.AperFunction,Plated,PTH,ViaDrill
T2C0.0157
; #@! TA.AperFunction,Plated,PTH,ViaDrill
T3C0.0236
; #@! TA.AperFunction,Plated,PTH,ComponentDrill
T4C0.0276
; #@! TA.AperFunction,Plated,PTH,ComponentDrill
T5C0.0315
; #@! TA.AperFunction,Plated,PTH,ComponentDrill
T6C0.0394
; #@! TA.AperFunction,Plated,PTH,ComponentDrill
T7C0.1260
%
G90
G05
T1
X5.2169Y-4.3939
X5.2889Y-3.7119
X5.4549Y-3.2759
X5.5669Y-4.0631
X5.5829Y-3.7019
X5.5869Y-4.2719
X5.7229Y-3.0899
X5.7349Y-3.2719
X5.7569Y-3.6299
X6.0389Y-3.0759
X6.0429Y-3.2339
X6.0929Y-3.5359
X6.1029Y-3.7159
X6.1229Y-3.9219
T2
X5.2779Y-3.808
X5.6089Y-3.9282
T3
X5.5524Y-4.0112
X5.8338Y-4.0117
T4
X5.3235Y-4.1894
T5
X5.3004Y-4.346
X5.4004Y-4.346
X5.5004Y-4.346
X5.942Y-4.1479
X6.0798Y-4.1479
T6
X5.6798Y-4.366
X5.7798Y-4.366
X5.8798Y-4.366
X5.9798Y-4.366
X6.0798Y-4.366
T7
X5.6074Y-3.1849
M30
