%TF.GenerationSoftware,KiCad,Pcbnew,8.0.2*%
%TF.CreationDate,2024-05-30T14:17:59+02:00*%
%TF.ProjectId,MPPT_solar_charger_expansion_board,4d505054-5f73-46f6-9c61-725f63686172,1.00*%
%TF.SameCoordinates,Original*%
%TF.FileFunction,Soldermask,Top*%
%TF.FilePolarity,Negative*%
%FSLAX46Y46*%
G04 Gerber Fmt 4.6, Leading zero omitted, Abs format (unit mm)*
G04 Created by KiCad (PCBNEW 8.0.2) date 2024-05-30 14:17:59*
%MOMM*%
%LPD*%
G01*
G04 APERTURE LIST*
G04 Aperture macros list*
%AMRoundRect*
0 Rectangle with rounded corners*
0 $1 Rounding radius*
0 $2 $3 $4 $5 $6 $7 $8 $9 X,Y pos of 4 corners*
0 Add a 4 corners polygon primitive as box body*
4,1,4,$2,$3,$4,$5,$6,$7,$8,$9,$2,$3,0*
0 Add four circle primitives for the rounded corners*
1,1,$1+$1,$2,$3*
1,1,$1+$1,$4,$5*
1,1,$1+$1,$6,$7*
1,1,$1+$1,$8,$9*
0 Add four rect primitives between the rounded corners*
20,1,$1+$1,$2,$3,$4,$5,0*
20,1,$1+$1,$4,$5,$6,$7,0*
20,1,$1+$1,$6,$7,$8,$9,0*
20,1,$1+$1,$8,$9,$2,$3,0*%
G04 Aperture macros list end*
%ADD10C,1.500000*%
%ADD11RoundRect,0.200000X-0.200000X-0.275000X0.200000X-0.275000X0.200000X0.275000X-0.200000X0.275000X0*%
%ADD12RoundRect,0.225000X0.250000X-0.225000X0.250000X0.225000X-0.250000X0.225000X-0.250000X-0.225000X0*%
%ADD13RoundRect,0.225000X-0.225000X-0.250000X0.225000X-0.250000X0.225000X0.250000X-0.225000X0.250000X0*%
%ADD14R,1.100000X0.510000*%
%ADD15R,5.000000X3.100000*%
%ADD16RoundRect,0.250000X-1.075000X0.362500X-1.075000X-0.362500X1.075000X-0.362500X1.075000X0.362500X0*%
%ADD17RoundRect,0.200000X0.200000X0.275000X-0.200000X0.275000X-0.200000X-0.275000X0.200000X-0.275000X0*%
%ADD18RoundRect,0.500000X0.500000X-1.250000X0.500000X1.250000X-0.500000X1.250000X-0.500000X-1.250000X0*%
%ADD19RoundRect,0.250000X3.250000X-3.250000X3.250000X3.250000X-3.250000X3.250000X-3.250000X-3.250000X0*%
%ADD20RoundRect,0.250000X-0.900000X1.000000X-0.900000X-1.000000X0.900000X-1.000000X0.900000X1.000000X0*%
%ADD21R,1.600000X1.600000*%
%ADD22C,1.600000*%
%ADD23RoundRect,0.243750X0.243750X0.456250X-0.243750X0.456250X-0.243750X-0.456250X0.243750X-0.456250X0*%
%ADD24C,5.700000*%
%ADD25RoundRect,0.250000X-1.000000X-0.900000X1.000000X-0.900000X1.000000X0.900000X-1.000000X0.900000X0*%
%ADD26C,1.440000*%
%ADD27R,1.700000X1.700000*%
%ADD28O,1.700000X1.700000*%
G04 APERTURE END LIST*
D10*
%TO.C,TP2*%
X135216600Y-106411400D03*
%TD*%
D11*
%TO.C,R2*%
X132077600Y-99730200D03*
X133727600Y-99730200D03*
%TD*%
D12*
%TO.C,C2*%
X151152000Y-100391400D03*
X151152000Y-98841400D03*
%TD*%
D13*
%TO.C,C4*%
X135158000Y-99730200D03*
X136708000Y-99730200D03*
%TD*%
D14*
%TO.C,U1*%
X138476000Y-99776200D03*
X138476000Y-100776200D03*
X138476000Y-101776200D03*
X138476000Y-102776200D03*
X138476000Y-103776200D03*
X143576000Y-103776200D03*
X143576000Y-102776200D03*
X143576000Y-101776200D03*
X143576000Y-100776200D03*
X143576000Y-99776200D03*
%TD*%
D13*
%TO.C,C5*%
X141678000Y-105318200D03*
X143228000Y-105318200D03*
%TD*%
D15*
%TO.C,L1*%
X150339200Y-84973200D03*
X150339200Y-96073200D03*
%TD*%
D12*
%TO.C,C3*%
X149577200Y-100391400D03*
X149577200Y-98841400D03*
%TD*%
D13*
%TO.C,C6*%
X146037000Y-107086400D03*
X147587000Y-107086400D03*
%TD*%
D16*
%TO.C,R4*%
X146517000Y-99968500D03*
X146517000Y-104593500D03*
%TD*%
D17*
%TO.C,R1*%
X138810000Y-106832400D03*
X137160000Y-106832400D03*
%TD*%
D18*
%TO.C,Q1*%
X132596200Y-96886400D03*
D19*
X134896200Y-89486400D03*
D18*
X137176200Y-96886400D03*
%TD*%
D20*
%TO.C,D3*%
X141042800Y-87306400D03*
X141042800Y-91606400D03*
%TD*%
D21*
%TO.C,C1*%
X154428000Y-105356800D03*
D22*
X150928000Y-105356800D03*
%TD*%
D23*
%TO.C,D1*%
X136532500Y-101508200D03*
X134657500Y-101508200D03*
%TD*%
%TO.C,D2*%
X136532500Y-103540200D03*
X134657500Y-103540200D03*
%TD*%
D11*
%TO.C,R3*%
X138453000Y-105318200D03*
X140103000Y-105318200D03*
%TD*%
D24*
%TO.C,H1*%
X142428000Y-80896400D03*
%TD*%
D25*
%TO.C,D4*%
X151338800Y-80566400D03*
X155638800Y-80566400D03*
%TD*%
D13*
%TO.C,C7*%
X146037000Y-108610400D03*
X147587000Y-108610400D03*
%TD*%
D26*
%TO.C,RV1*%
X139710000Y-110388400D03*
X137170000Y-110388400D03*
X134630000Y-110388400D03*
%TD*%
D27*
%TO.C,J1*%
X154428000Y-110896400D03*
D28*
X151888000Y-110896400D03*
X149348000Y-110896400D03*
X146808000Y-110896400D03*
X144268000Y-110896400D03*
%TD*%
M02*
