%TF.GenerationSoftware,KiCad,Pcbnew,8.0.2*%
%TF.CreationDate,2024-05-30T14:17:59+02:00*%
%TF.ProjectId,MPPT_solar_charger_expansion_board,4d505054-5f73-46f6-9c61-725f63686172,1.00*%
%TF.SameCoordinates,Original*%
%TF.FileFunction,Copper,L2,Bot*%
%TF.FilePolarity,Positive*%
%FSLAX46Y46*%
G04 Gerber Fmt 4.6, Leading zero omitted, Abs format (unit mm)*
G04 Created by KiCad (PCBNEW 8.0.2) date 2024-05-30 14:17:59*
%MOMM*%
%LPD*%
G01*
G04 APERTURE LIST*
%TA.AperFunction,ComponentPad*%
%ADD10C,1.500000*%
%TD*%
%TA.AperFunction,ComponentPad*%
%ADD11R,1.600000X1.600000*%
%TD*%
%TA.AperFunction,ComponentPad*%
%ADD12C,1.600000*%
%TD*%
%TA.AperFunction,ComponentPad*%
%ADD13C,5.700000*%
%TD*%
%TA.AperFunction,ComponentPad*%
%ADD14C,1.440000*%
%TD*%
%TA.AperFunction,ComponentPad*%
%ADD15R,1.700000X1.700000*%
%TD*%
%TA.AperFunction,ComponentPad*%
%ADD16O,1.700000X1.700000*%
%TD*%
%TA.AperFunction,ViaPad*%
%ADD17C,0.500000*%
%TD*%
%TA.AperFunction,ViaPad*%
%ADD18C,1.500000*%
%TD*%
%TA.AperFunction,ViaPad*%
%ADD19C,0.800000*%
%TD*%
%TA.AperFunction,Conductor*%
%ADD20C,1.500000*%
%TD*%
%TA.AperFunction,Conductor*%
%ADD21C,0.250000*%
%TD*%
G04 APERTURE END LIST*
D10*
%TO.P,TP2,1,1*%
%TO.N,/MPPT*%
X135216600Y-106411400D03*
%TD*%
D11*
%TO.P,C1,1*%
%TO.N,VCC*%
X154428000Y-105356800D03*
D12*
%TO.P,C1,2*%
%TO.N,GND*%
X150928000Y-105356800D03*
%TD*%
D13*
%TO.P,H1,1*%
%TO.N,N/C*%
X142428000Y-80896400D03*
%TD*%
D14*
%TO.P,RV1,1,1*%
%TO.N,VCC*%
X139710000Y-110388400D03*
%TO.P,RV1,2,2*%
%TO.N,/MPPT*%
X137170000Y-110388400D03*
%TO.P,RV1,3,3*%
X134630000Y-110388400D03*
%TD*%
D15*
%TO.P,J1,1,Pin_1*%
%TO.N,VCC*%
X154428000Y-110896400D03*
D16*
%TO.P,J1,2,Pin_2*%
%TO.N,GND*%
X151888000Y-110896400D03*
%TO.P,J1,3,Pin_3*%
X149348000Y-110896400D03*
%TO.P,J1,4,Pin_4*%
X146808000Y-110896400D03*
%TO.P,J1,5,Pin_5*%
%TO.N,+BATT*%
X144268000Y-110896400D03*
%TD*%
D17*
%TO.N,GND*%
X153387200Y-78128000D03*
X154758800Y-89812000D03*
X153488800Y-82141200D03*
X145360800Y-78483600D03*
X155012800Y-94384000D03*
X141804800Y-94028400D03*
X141906400Y-108506400D03*
X141398400Y-103201700D03*
X145665600Y-83106400D03*
X155520800Y-99616400D03*
X138553600Y-83208000D03*
X132508400Y-111605200D03*
X134337200Y-94282400D03*
X146224400Y-92199600D03*
D18*
%TO.N,VCC*%
X148178000Y-101896400D03*
X141032146Y-101883820D03*
D19*
%TO.N,/DRV*%
X134058000Y-96723200D03*
X142466092Y-99776200D03*
%TD*%
D20*
%TO.N,VCC*%
X141032146Y-101883820D02*
X141037526Y-101889200D01*
D21*
X139658400Y-110336800D02*
X139710000Y-110388400D01*
X139710000Y-103205966D02*
X139710000Y-110388400D01*
D20*
X148170800Y-101889200D02*
X148178000Y-101896400D01*
X141037526Y-101889200D02*
X148170800Y-101889200D01*
D21*
X141032146Y-101883820D02*
X139710000Y-103205966D01*
%TO.N,/DRV*%
X134058000Y-96723200D02*
X137103390Y-99768590D01*
X137103390Y-99768590D02*
X142458482Y-99768590D01*
X142458482Y-99768590D02*
X142466092Y-99776200D01*
%TD*%
%TA.AperFunction,Conductor*%
%TO.N,GND*%
G36*
X154178855Y-77396411D02*
G01*
X154340269Y-77398674D01*
X154352390Y-77399441D01*
X154656553Y-77433712D01*
X154673992Y-77435677D01*
X154687700Y-77438006D01*
X155002366Y-77509826D01*
X155015725Y-77513673D01*
X155320392Y-77620281D01*
X155333228Y-77625599D01*
X155624025Y-77765639D01*
X155636193Y-77772364D01*
X155867489Y-77917697D01*
X155909486Y-77944085D01*
X155920824Y-77952130D01*
X156173173Y-78153371D01*
X156183541Y-78162637D01*
X156411762Y-78390858D01*
X156421028Y-78401226D01*
X156622267Y-78653572D01*
X156630314Y-78664913D01*
X156802034Y-78938204D01*
X156808760Y-78950374D01*
X156948798Y-79241166D01*
X156954120Y-79254013D01*
X157060724Y-79558670D01*
X157064573Y-79572033D01*
X157136393Y-79886699D01*
X157138722Y-79900407D01*
X157174957Y-80221997D01*
X157175725Y-80234143D01*
X157177988Y-80395544D01*
X157178000Y-80397282D01*
X157178000Y-110395517D01*
X157177988Y-110397255D01*
X157175725Y-110558656D01*
X157174957Y-110570802D01*
X157138722Y-110892392D01*
X157136393Y-110906100D01*
X157064573Y-111220766D01*
X157060724Y-111234129D01*
X156954120Y-111538786D01*
X156948798Y-111551633D01*
X156808760Y-111842425D01*
X156802034Y-111854595D01*
X156630314Y-112127886D01*
X156622267Y-112139227D01*
X156421028Y-112391573D01*
X156411762Y-112401941D01*
X156183541Y-112630162D01*
X156173173Y-112639428D01*
X155920827Y-112840667D01*
X155909486Y-112848714D01*
X155636195Y-113020434D01*
X155624025Y-113027160D01*
X155333233Y-113167198D01*
X155320386Y-113172520D01*
X155015729Y-113279124D01*
X155002366Y-113282973D01*
X154687700Y-113354793D01*
X154673992Y-113357122D01*
X154352402Y-113393357D01*
X154340256Y-113394125D01*
X154178856Y-113396388D01*
X154177118Y-113396400D01*
X134178882Y-113396400D01*
X134177144Y-113396388D01*
X134015743Y-113394125D01*
X134003597Y-113393357D01*
X133682007Y-113357122D01*
X133668299Y-113354793D01*
X133353633Y-113282973D01*
X133340270Y-113279124D01*
X133035613Y-113172520D01*
X133022766Y-113167198D01*
X132731974Y-113027160D01*
X132719804Y-113020434D01*
X132446513Y-112848714D01*
X132435172Y-112840667D01*
X132182826Y-112639428D01*
X132172458Y-112630162D01*
X131944237Y-112401941D01*
X131934971Y-112391573D01*
X131733732Y-112139227D01*
X131725685Y-112127886D01*
X131611963Y-111946899D01*
X131553964Y-111854593D01*
X131547239Y-111842425D01*
X131407199Y-111551628D01*
X131401879Y-111538786D01*
X131397243Y-111525538D01*
X131295273Y-111234125D01*
X131291426Y-111220766D01*
X131219606Y-110906100D01*
X131217277Y-110892392D01*
X131202907Y-110764856D01*
X131181041Y-110570790D01*
X131180274Y-110558669D01*
X131178012Y-110397255D01*
X131178000Y-110395517D01*
X131178000Y-110388400D01*
X133704430Y-110388400D01*
X133724656Y-110580839D01*
X133724657Y-110580841D01*
X133784447Y-110764856D01*
X133784450Y-110764863D01*
X133881197Y-110932435D01*
X134010667Y-111076228D01*
X134010674Y-111076234D01*
X134167210Y-111189964D01*
X134167211Y-111189964D01*
X134167215Y-111189967D01*
X134266396Y-111234125D01*
X134343978Y-111268667D01*
X134343983Y-111268669D01*
X134533252Y-111308900D01*
X134726748Y-111308900D01*
X134916017Y-111268669D01*
X135092785Y-111189967D01*
X135249327Y-111076233D01*
X135378802Y-110932436D01*
X135475550Y-110764863D01*
X135535344Y-110580837D01*
X135555570Y-110388400D01*
X136244430Y-110388400D01*
X136264656Y-110580839D01*
X136264657Y-110580841D01*
X136324447Y-110764856D01*
X136324450Y-110764863D01*
X136421197Y-110932435D01*
X136550667Y-111076228D01*
X136550674Y-111076234D01*
X136707210Y-111189964D01*
X136707211Y-111189964D01*
X136707215Y-111189967D01*
X136806396Y-111234125D01*
X136883978Y-111268667D01*
X136883983Y-111268669D01*
X137073252Y-111308900D01*
X137266748Y-111308900D01*
X137456017Y-111268669D01*
X137632785Y-111189967D01*
X137789327Y-111076233D01*
X137918802Y-110932436D01*
X138015550Y-110764863D01*
X138075344Y-110580837D01*
X138095570Y-110388400D01*
X138784430Y-110388400D01*
X138804656Y-110580839D01*
X138804657Y-110580841D01*
X138864447Y-110764856D01*
X138864450Y-110764863D01*
X138961197Y-110932435D01*
X139090667Y-111076228D01*
X139090674Y-111076234D01*
X139247210Y-111189964D01*
X139247211Y-111189964D01*
X139247215Y-111189967D01*
X139346396Y-111234125D01*
X139423978Y-111268667D01*
X139423983Y-111268669D01*
X139613252Y-111308900D01*
X139806748Y-111308900D01*
X139996017Y-111268669D01*
X140172785Y-111189967D01*
X140329327Y-111076233D01*
X140458802Y-110932436D01*
X140479607Y-110896400D01*
X143212417Y-110896400D01*
X143232699Y-111102332D01*
X143232700Y-111102334D01*
X143292768Y-111300354D01*
X143390315Y-111482850D01*
X143390317Y-111482852D01*
X143521589Y-111642810D01*
X143593146Y-111701534D01*
X143681550Y-111774085D01*
X143864046Y-111871632D01*
X144062066Y-111931700D01*
X144062065Y-111931700D01*
X144080529Y-111933518D01*
X144268000Y-111951983D01*
X144473934Y-111931700D01*
X144671954Y-111871632D01*
X144854450Y-111774085D01*
X145014410Y-111642810D01*
X145145685Y-111482850D01*
X145243232Y-111300354D01*
X145303300Y-111102334D01*
X145323583Y-110896400D01*
X145303300Y-110690466D01*
X145289933Y-110646399D01*
X145641900Y-110646399D01*
X145641900Y-110646400D01*
X146374988Y-110646400D01*
X146342075Y-110703407D01*
X146308000Y-110830574D01*
X146308000Y-110962226D01*
X146342075Y-111089393D01*
X146374988Y-111146400D01*
X145641900Y-111146400D01*
X145693601Y-111328114D01*
X145693604Y-111328120D01*
X145791907Y-111525538D01*
X145924813Y-111701534D01*
X146087791Y-111850107D01*
X146275300Y-111966208D01*
X146275301Y-111966209D01*
X146480948Y-112045876D01*
X146558000Y-112060279D01*
X146558000Y-111329412D01*
X146615007Y-111362325D01*
X146742174Y-111396400D01*
X146873826Y-111396400D01*
X147000993Y-111362325D01*
X147058000Y-111329412D01*
X147058000Y-112060278D01*
X147135051Y-112045876D01*
X147340698Y-111966209D01*
X147340699Y-111966208D01*
X147528208Y-111850107D01*
X147691186Y-111701534D01*
X147824092Y-111525538D01*
X147922395Y-111328121D01*
X147958733Y-111200405D01*
X147996012Y-111141311D01*
X148059322Y-111111753D01*
X148128561Y-111121115D01*
X148181748Y-111166424D01*
X148197267Y-111200405D01*
X148233604Y-111328121D01*
X148331907Y-111525538D01*
X148464813Y-111701534D01*
X148627791Y-111850107D01*
X148815300Y-111966208D01*
X148815301Y-111966209D01*
X149020948Y-112045876D01*
X149098000Y-112060279D01*
X149098000Y-111329412D01*
X149155007Y-111362325D01*
X149282174Y-111396400D01*
X149413826Y-111396400D01*
X149540993Y-111362325D01*
X149598000Y-111329412D01*
X149598000Y-112060278D01*
X149675051Y-112045876D01*
X149880698Y-111966209D01*
X149880699Y-111966208D01*
X150068208Y-111850107D01*
X150231186Y-111701534D01*
X150364092Y-111525538D01*
X150462395Y-111328121D01*
X150498733Y-111200405D01*
X150536012Y-111141311D01*
X150599322Y-111111753D01*
X150668561Y-111121115D01*
X150721748Y-111166424D01*
X150737267Y-111200405D01*
X150773604Y-111328121D01*
X150871907Y-111525538D01*
X151004813Y-111701534D01*
X151167791Y-111850107D01*
X151355300Y-111966208D01*
X151355301Y-111966209D01*
X151560948Y-112045876D01*
X151638000Y-112060279D01*
X151638000Y-111329412D01*
X151695007Y-111362325D01*
X151822174Y-111396400D01*
X151953826Y-111396400D01*
X152080993Y-111362325D01*
X152138000Y-111329412D01*
X152138000Y-112060278D01*
X152215051Y-112045876D01*
X152420698Y-111966209D01*
X152420699Y-111966208D01*
X152608208Y-111850107D01*
X152771186Y-111701534D01*
X152904092Y-111525538D01*
X153002395Y-111328120D01*
X153002398Y-111328114D01*
X153054099Y-111146400D01*
X152321012Y-111146400D01*
X152353925Y-111089393D01*
X152388000Y-110962226D01*
X152388000Y-110830574D01*
X152353925Y-110703407D01*
X152321012Y-110646400D01*
X153054100Y-110646400D01*
X153054099Y-110646399D01*
X153002398Y-110464685D01*
X153002395Y-110464679D01*
X152904092Y-110267261D01*
X152771186Y-110091265D01*
X152700303Y-110026647D01*
X153377500Y-110026647D01*
X153377500Y-111766152D01*
X153389131Y-111824629D01*
X153389132Y-111824630D01*
X153433447Y-111890952D01*
X153499769Y-111935267D01*
X153499770Y-111935268D01*
X153558247Y-111946899D01*
X153558250Y-111946900D01*
X153558252Y-111946900D01*
X155297750Y-111946900D01*
X155297751Y-111946899D01*
X155312568Y-111943952D01*
X155356229Y-111935268D01*
X155356229Y-111935267D01*
X155356231Y-111935267D01*
X155422552Y-111890952D01*
X155466867Y-111824631D01*
X155466867Y-111824629D01*
X155466868Y-111824629D01*
X155478499Y-111766152D01*
X155478500Y-111766150D01*
X155478500Y-110026649D01*
X155478499Y-110026647D01*
X155466868Y-109968170D01*
X155466867Y-109968169D01*
X155422552Y-109901847D01*
X155356230Y-109857532D01*
X155356229Y-109857531D01*
X155297752Y-109845900D01*
X155297748Y-109845900D01*
X153558252Y-109845900D01*
X153558247Y-109845900D01*
X153499770Y-109857531D01*
X153499769Y-109857532D01*
X153433447Y-109901847D01*
X153389132Y-109968169D01*
X153389131Y-109968170D01*
X153377500Y-110026647D01*
X152700303Y-110026647D01*
X152608208Y-109942692D01*
X152420699Y-109826591D01*
X152420695Y-109826589D01*
X152215056Y-109746925D01*
X152215051Y-109746924D01*
X152138000Y-109732520D01*
X152138000Y-110463388D01*
X152080993Y-110430475D01*
X151953826Y-110396400D01*
X151822174Y-110396400D01*
X151695007Y-110430475D01*
X151638000Y-110463388D01*
X151638000Y-109732520D01*
X151560948Y-109746924D01*
X151560943Y-109746925D01*
X151355304Y-109826589D01*
X151355300Y-109826591D01*
X151167791Y-109942692D01*
X151004813Y-110091265D01*
X150871907Y-110267261D01*
X150773605Y-110464677D01*
X150737267Y-110592395D01*
X150699987Y-110651488D01*
X150636678Y-110681046D01*
X150567438Y-110671684D01*
X150514252Y-110626375D01*
X150498733Y-110592395D01*
X150462394Y-110464677D01*
X150364092Y-110267261D01*
X150231186Y-110091265D01*
X150068208Y-109942692D01*
X149880699Y-109826591D01*
X149880695Y-109826589D01*
X149675056Y-109746925D01*
X149675051Y-109746924D01*
X149598000Y-109732520D01*
X149598000Y-110463388D01*
X149540993Y-110430475D01*
X149413826Y-110396400D01*
X149282174Y-110396400D01*
X149155007Y-110430475D01*
X149098000Y-110463388D01*
X149098000Y-109732520D01*
X149020948Y-109746924D01*
X149020943Y-109746925D01*
X148815304Y-109826589D01*
X148815300Y-109826591D01*
X148627791Y-109942692D01*
X148464813Y-110091265D01*
X148331907Y-110267261D01*
X148233605Y-110464677D01*
X148197267Y-110592395D01*
X148159987Y-110651488D01*
X148096678Y-110681046D01*
X148027438Y-110671684D01*
X147974252Y-110626375D01*
X147958733Y-110592395D01*
X147922394Y-110464677D01*
X147824092Y-110267261D01*
X147691186Y-110091265D01*
X147528208Y-109942692D01*
X147340699Y-109826591D01*
X147340695Y-109826589D01*
X147135056Y-109746925D01*
X147135051Y-109746924D01*
X147058000Y-109732520D01*
X147058000Y-110463388D01*
X147000993Y-110430475D01*
X146873826Y-110396400D01*
X146742174Y-110396400D01*
X146615007Y-110430475D01*
X146558000Y-110463388D01*
X146558000Y-109732520D01*
X146480948Y-109746924D01*
X146480943Y-109746925D01*
X146275304Y-109826589D01*
X146275300Y-109826591D01*
X146087791Y-109942692D01*
X145924813Y-110091265D01*
X145791907Y-110267261D01*
X145693604Y-110464679D01*
X145693601Y-110464685D01*
X145641900Y-110646399D01*
X145289933Y-110646399D01*
X145243232Y-110492446D01*
X145145685Y-110309950D01*
X145052139Y-110195963D01*
X145014410Y-110149989D01*
X144864121Y-110026652D01*
X144854450Y-110018715D01*
X144671954Y-109921168D01*
X144473934Y-109861100D01*
X144473932Y-109861099D01*
X144473934Y-109861099D01*
X144268000Y-109840817D01*
X144062067Y-109861099D01*
X143864043Y-109921169D01*
X143776114Y-109968169D01*
X143681550Y-110018715D01*
X143681548Y-110018716D01*
X143681547Y-110018717D01*
X143521589Y-110149989D01*
X143390317Y-110309947D01*
X143292769Y-110492443D01*
X143232699Y-110690467D01*
X143212417Y-110896400D01*
X140479607Y-110896400D01*
X140555550Y-110764863D01*
X140615344Y-110580837D01*
X140635570Y-110388400D01*
X140615344Y-110195963D01*
X140555550Y-110011937D01*
X140458802Y-109844364D01*
X140442799Y-109826591D01*
X140329332Y-109700571D01*
X140329325Y-109700565D01*
X140172789Y-109586835D01*
X140172784Y-109586832D01*
X140109064Y-109558462D01*
X140055827Y-109513212D01*
X140035506Y-109446362D01*
X140035500Y-109445183D01*
X140035500Y-105356799D01*
X149783116Y-105356799D01*
X149783116Y-105356800D01*
X149802609Y-105567169D01*
X149860427Y-105770381D01*
X149954600Y-105959503D01*
X149961975Y-105969270D01*
X150528000Y-105403246D01*
X150528000Y-105409461D01*
X150555259Y-105511194D01*
X150607920Y-105602406D01*
X150682394Y-105676880D01*
X150773606Y-105729541D01*
X150875339Y-105756800D01*
X150881553Y-105756800D01*
X150318255Y-106320095D01*
X150417680Y-106381657D01*
X150417681Y-106381658D01*
X150614685Y-106457977D01*
X150822365Y-106496800D01*
X151033635Y-106496800D01*
X151241319Y-106457976D01*
X151438309Y-106381661D01*
X151438327Y-106381652D01*
X151537742Y-106320096D01*
X151537742Y-106320095D01*
X150974448Y-105756800D01*
X150980661Y-105756800D01*
X151082394Y-105729541D01*
X151173606Y-105676880D01*
X151248080Y-105602406D01*
X151300741Y-105511194D01*
X151328000Y-105409461D01*
X151328000Y-105403247D01*
X151894023Y-105969270D01*
X151901401Y-105959500D01*
X151901403Y-105959497D01*
X151995572Y-105770382D01*
X152053390Y-105567169D01*
X152072884Y-105356800D01*
X152072884Y-105356799D01*
X152053390Y-105146430D01*
X151995572Y-104943218D01*
X151901399Y-104754095D01*
X151894024Y-104744328D01*
X151328000Y-105310352D01*
X151328000Y-105304139D01*
X151300741Y-105202406D01*
X151248080Y-105111194D01*
X151173606Y-105036720D01*
X151082394Y-104984059D01*
X150980661Y-104956800D01*
X150974448Y-104956800D01*
X151394200Y-104537047D01*
X153427500Y-104537047D01*
X153427500Y-106176552D01*
X153439131Y-106235029D01*
X153439132Y-106235030D01*
X153483447Y-106301352D01*
X153549769Y-106345667D01*
X153549770Y-106345668D01*
X153608247Y-106357299D01*
X153608250Y-106357300D01*
X153608252Y-106357300D01*
X155247750Y-106357300D01*
X155247751Y-106357299D01*
X155262568Y-106354352D01*
X155306229Y-106345668D01*
X155306229Y-106345667D01*
X155306231Y-106345667D01*
X155372552Y-106301352D01*
X155416867Y-106235031D01*
X155416867Y-106235029D01*
X155416868Y-106235029D01*
X155428499Y-106176552D01*
X155428500Y-106176550D01*
X155428500Y-104537049D01*
X155428499Y-104537047D01*
X155416868Y-104478570D01*
X155416867Y-104478569D01*
X155372552Y-104412247D01*
X155306230Y-104367932D01*
X155306229Y-104367931D01*
X155247752Y-104356300D01*
X155247748Y-104356300D01*
X153608252Y-104356300D01*
X153608247Y-104356300D01*
X153549770Y-104367931D01*
X153549769Y-104367932D01*
X153483447Y-104412247D01*
X153439132Y-104478569D01*
X153439131Y-104478570D01*
X153427500Y-104537047D01*
X151394200Y-104537047D01*
X151537743Y-104393503D01*
X151438319Y-104331942D01*
X151438318Y-104331941D01*
X151241314Y-104255622D01*
X151033635Y-104216800D01*
X150822365Y-104216800D01*
X150614685Y-104255622D01*
X150417683Y-104331940D01*
X150417677Y-104331943D01*
X150318256Y-104393502D01*
X150318255Y-104393503D01*
X150881553Y-104956800D01*
X150875339Y-104956800D01*
X150773606Y-104984059D01*
X150682394Y-105036720D01*
X150607920Y-105111194D01*
X150555259Y-105202406D01*
X150528000Y-105304139D01*
X150528000Y-105310353D01*
X149961974Y-104744327D01*
X149954602Y-104754092D01*
X149954598Y-104754098D01*
X149860427Y-104943218D01*
X149802609Y-105146430D01*
X149783116Y-105356799D01*
X140035500Y-105356799D01*
X140035500Y-103392154D01*
X140055185Y-103325115D01*
X140071819Y-103304473D01*
X140295965Y-103080327D01*
X140569351Y-102806940D01*
X140630672Y-102773457D01*
X140700363Y-102778441D01*
X140704464Y-102780055D01*
X140734306Y-102792416D01*
X140760267Y-102803170D01*
X140760269Y-102803170D01*
X140760275Y-102803173D01*
X140836206Y-102818275D01*
X140843547Y-102820115D01*
X140845810Y-102820565D01*
X140845815Y-102820567D01*
X140845819Y-102820567D01*
X140848088Y-102821019D01*
X140855576Y-102822129D01*
X140943907Y-102839700D01*
X140943909Y-102839700D01*
X140943910Y-102839700D01*
X148035974Y-102839700D01*
X148060166Y-102842083D01*
X148084381Y-102846899D01*
X148084382Y-102846900D01*
X148084383Y-102846900D01*
X148125213Y-102846900D01*
X148137367Y-102847497D01*
X148178000Y-102851499D01*
X148218633Y-102847497D01*
X148230787Y-102846900D01*
X148271616Y-102846900D01*
X148311671Y-102838932D01*
X148323690Y-102837149D01*
X148364331Y-102833147D01*
X148403412Y-102821290D01*
X148415197Y-102818339D01*
X148455250Y-102810373D01*
X148492979Y-102794743D01*
X148504414Y-102790652D01*
X148543501Y-102778796D01*
X148579524Y-102759540D01*
X148590504Y-102754347D01*
X148628230Y-102738722D01*
X148662173Y-102716040D01*
X148672614Y-102709783D01*
X148708625Y-102690536D01*
X148740205Y-102664617D01*
X148749965Y-102657379D01*
X148783908Y-102634701D01*
X148812784Y-102605824D01*
X148821779Y-102597671D01*
X148853357Y-102571757D01*
X148879271Y-102540179D01*
X148887424Y-102531184D01*
X148916301Y-102502308D01*
X148938979Y-102468365D01*
X148946217Y-102458605D01*
X148972136Y-102427025D01*
X148991384Y-102391012D01*
X148997642Y-102380571D01*
X149020322Y-102346630D01*
X149035947Y-102308904D01*
X149041140Y-102297924D01*
X149060396Y-102261901D01*
X149072252Y-102222814D01*
X149076343Y-102211379D01*
X149091973Y-102173650D01*
X149099939Y-102133597D01*
X149102890Y-102121812D01*
X149114747Y-102082731D01*
X149118749Y-102042090D01*
X149120532Y-102030071D01*
X149128500Y-101990016D01*
X149128500Y-101949186D01*
X149129097Y-101937032D01*
X149130336Y-101924452D01*
X149133099Y-101896400D01*
X149129097Y-101855766D01*
X149128500Y-101843612D01*
X149128500Y-101802779D01*
X149120534Y-101762740D01*
X149118747Y-101750694D01*
X149118694Y-101750159D01*
X149114747Y-101710069D01*
X149102891Y-101670985D01*
X149099940Y-101659204D01*
X149091973Y-101619150D01*
X149091971Y-101619145D01*
X149076348Y-101581427D01*
X149072249Y-101569971D01*
X149060396Y-101530898D01*
X149041150Y-101494893D01*
X149035949Y-101483897D01*
X149020322Y-101446169D01*
X149020320Y-101446166D01*
X149020318Y-101446162D01*
X148997638Y-101412219D01*
X148991382Y-101401781D01*
X148972139Y-101365781D01*
X148972136Y-101365775D01*
X148946229Y-101334207D01*
X148938983Y-101324437D01*
X148916301Y-101290491D01*
X148887423Y-101261613D01*
X148879259Y-101252605D01*
X148853357Y-101221042D01*
X148821793Y-101195139D01*
X148812775Y-101186965D01*
X148776714Y-101150903D01*
X148776709Y-101150899D01*
X148734287Y-101122552D01*
X148724518Y-101115307D01*
X148708625Y-101102264D01*
X148690487Y-101092569D01*
X148680051Y-101086313D01*
X148621032Y-101046878D01*
X148621028Y-101046876D01*
X148555437Y-101019707D01*
X148544442Y-101014507D01*
X148543502Y-101014004D01*
X148543057Y-101013869D01*
X148542473Y-101013692D01*
X148531024Y-101009595D01*
X148511297Y-101001424D01*
X148511296Y-101001424D01*
X148448051Y-100975227D01*
X148448043Y-100975225D01*
X148356233Y-100956963D01*
X148264420Y-100938700D01*
X148264417Y-100938700D01*
X148264416Y-100938700D01*
X141165022Y-100938700D01*
X141140831Y-100936317D01*
X141125763Y-100933320D01*
X141084933Y-100933320D01*
X141072779Y-100932723D01*
X141032146Y-100928721D01*
X140991513Y-100932723D01*
X140979359Y-100933320D01*
X140938529Y-100933320D01*
X140923462Y-100936317D01*
X140898485Y-100941285D01*
X140886451Y-100943070D01*
X140845819Y-100947072D01*
X140845817Y-100947072D01*
X140845815Y-100947073D01*
X140806738Y-100958925D01*
X140794948Y-100961879D01*
X140754899Y-100969846D01*
X140754897Y-100969846D01*
X140717163Y-100985475D01*
X140705713Y-100989572D01*
X140666644Y-101001424D01*
X140630645Y-101020665D01*
X140619652Y-101025864D01*
X140581919Y-101041494D01*
X140547960Y-101064184D01*
X140537530Y-101070435D01*
X140501523Y-101089682D01*
X140469962Y-101115583D01*
X140460195Y-101122826D01*
X140426245Y-101145512D01*
X140426233Y-101145522D01*
X140397358Y-101174395D01*
X140388349Y-101182560D01*
X140356791Y-101208460D01*
X140356786Y-101208465D01*
X140330886Y-101240023D01*
X140322721Y-101249032D01*
X140293848Y-101277907D01*
X140293838Y-101277919D01*
X140271152Y-101311869D01*
X140263909Y-101321636D01*
X140238008Y-101353197D01*
X140218761Y-101389204D01*
X140212510Y-101399634D01*
X140189820Y-101433593D01*
X140174190Y-101471326D01*
X140168991Y-101482319D01*
X140149750Y-101518318D01*
X140137898Y-101557387D01*
X140133801Y-101568837D01*
X140118172Y-101606571D01*
X140118172Y-101606573D01*
X140110205Y-101646622D01*
X140107251Y-101658412D01*
X140095399Y-101697489D01*
X140095399Y-101697491D01*
X140095398Y-101697493D01*
X140091396Y-101738125D01*
X140089611Y-101750159D01*
X140081646Y-101790204D01*
X140081646Y-101831032D01*
X140081049Y-101843186D01*
X140077047Y-101883819D01*
X140081049Y-101924452D01*
X140081646Y-101936606D01*
X140081646Y-101977441D01*
X140089610Y-102017478D01*
X140091396Y-102029513D01*
X140095399Y-102070150D01*
X140107250Y-102109220D01*
X140110206Y-102121022D01*
X140118171Y-102161064D01*
X140118172Y-102161068D01*
X140118173Y-102161070D01*
X140133802Y-102198803D01*
X140137894Y-102210240D01*
X140141343Y-102221607D01*
X140141962Y-102291474D01*
X140110361Y-102345277D01*
X139449537Y-103006101D01*
X139449533Y-103006107D01*
X139406681Y-103080327D01*
X139406682Y-103080328D01*
X139384500Y-103163113D01*
X139384500Y-109445183D01*
X139364815Y-109512222D01*
X139312011Y-109557977D01*
X139310936Y-109558462D01*
X139247215Y-109586832D01*
X139247210Y-109586835D01*
X139090674Y-109700565D01*
X139090667Y-109700571D01*
X138961197Y-109844364D01*
X138864450Y-110011936D01*
X138864447Y-110011943D01*
X138804657Y-110195958D01*
X138804656Y-110195960D01*
X138784430Y-110388400D01*
X138095570Y-110388400D01*
X138075344Y-110195963D01*
X138015550Y-110011937D01*
X137918802Y-109844364D01*
X137902799Y-109826591D01*
X137789332Y-109700571D01*
X137789325Y-109700565D01*
X137632789Y-109586835D01*
X137632786Y-109586833D01*
X137632785Y-109586833D01*
X137567973Y-109557977D01*
X137456021Y-109508132D01*
X137456016Y-109508130D01*
X137266748Y-109467900D01*
X137073252Y-109467900D01*
X136883983Y-109508130D01*
X136883978Y-109508132D01*
X136707215Y-109586833D01*
X136707210Y-109586835D01*
X136550674Y-109700565D01*
X136550667Y-109700571D01*
X136421197Y-109844364D01*
X136324450Y-110011936D01*
X136324447Y-110011943D01*
X136264657Y-110195958D01*
X136264656Y-110195960D01*
X136244430Y-110388400D01*
X135555570Y-110388400D01*
X135535344Y-110195963D01*
X135475550Y-110011937D01*
X135378802Y-109844364D01*
X135362799Y-109826591D01*
X135249332Y-109700571D01*
X135249325Y-109700565D01*
X135092789Y-109586835D01*
X135092786Y-109586833D01*
X135092785Y-109586833D01*
X135027973Y-109557977D01*
X134916021Y-109508132D01*
X134916016Y-109508130D01*
X134726748Y-109467900D01*
X134533252Y-109467900D01*
X134343983Y-109508130D01*
X134343978Y-109508132D01*
X134167215Y-109586833D01*
X134167210Y-109586835D01*
X134010674Y-109700565D01*
X134010667Y-109700571D01*
X133881197Y-109844364D01*
X133784450Y-110011936D01*
X133784447Y-110011943D01*
X133724657Y-110195958D01*
X133724656Y-110195960D01*
X133704430Y-110388400D01*
X131178000Y-110388400D01*
X131178000Y-106411400D01*
X134261501Y-106411400D01*
X134279852Y-106597731D01*
X134279853Y-106597733D01*
X134334204Y-106776902D01*
X134422462Y-106942023D01*
X134422464Y-106942026D01*
X134541242Y-107086757D01*
X134685973Y-107205535D01*
X134685976Y-107205537D01*
X134851097Y-107293795D01*
X134851099Y-107293796D01*
X135030266Y-107348146D01*
X135030268Y-107348147D01*
X135046974Y-107349792D01*
X135216600Y-107366499D01*
X135402931Y-107348147D01*
X135582101Y-107293796D01*
X135747225Y-107205536D01*
X135891957Y-107086757D01*
X136010736Y-106942025D01*
X136098996Y-106776901D01*
X136153347Y-106597731D01*
X136171699Y-106411400D01*
X136153347Y-106225069D01*
X136098996Y-106045899D01*
X136052815Y-105959500D01*
X136010737Y-105880776D01*
X136010735Y-105880773D01*
X135891957Y-105736042D01*
X135747226Y-105617264D01*
X135747223Y-105617262D01*
X135582102Y-105529004D01*
X135402933Y-105474653D01*
X135402931Y-105474652D01*
X135216600Y-105456301D01*
X135030268Y-105474652D01*
X135030266Y-105474653D01*
X134851097Y-105529004D01*
X134685976Y-105617262D01*
X134685973Y-105617264D01*
X134541242Y-105736042D01*
X134422464Y-105880773D01*
X134422462Y-105880776D01*
X134334204Y-106045897D01*
X134279853Y-106225066D01*
X134279852Y-106225068D01*
X134261501Y-106411400D01*
X131178000Y-106411400D01*
X131178000Y-96723198D01*
X133452318Y-96723198D01*
X133452318Y-96723201D01*
X133472955Y-96879960D01*
X133472956Y-96879962D01*
X133533464Y-97026041D01*
X133629718Y-97151482D01*
X133755159Y-97247736D01*
X133901238Y-97308244D01*
X133929548Y-97311971D01*
X134057999Y-97328882D01*
X134058000Y-97328882D01*
X134058001Y-97328882D01*
X134093708Y-97324180D01*
X134125818Y-97319953D01*
X134194853Y-97330718D01*
X134229685Y-97355211D01*
X136838584Y-99964110D01*
X136838594Y-99964121D01*
X136842924Y-99968451D01*
X136842925Y-99968452D01*
X136903528Y-100029055D01*
X136940640Y-100050481D01*
X136940642Y-100050483D01*
X136968818Y-100066750D01*
X136977751Y-100071908D01*
X137060537Y-100094090D01*
X141891953Y-100094090D01*
X141958992Y-100113775D01*
X141990328Y-100142603D01*
X142037810Y-100204482D01*
X142163251Y-100300736D01*
X142309330Y-100361244D01*
X142387711Y-100371563D01*
X142466091Y-100381882D01*
X142466092Y-100381882D01*
X142466093Y-100381882D01*
X142518346Y-100375002D01*
X142622854Y-100361244D01*
X142768933Y-100300736D01*
X142894374Y-100204482D01*
X142990628Y-100079041D01*
X143051136Y-99932962D01*
X143071774Y-99776200D01*
X143051136Y-99619438D01*
X142990628Y-99473359D01*
X142894374Y-99347918D01*
X142768933Y-99251664D01*
X142622854Y-99191156D01*
X142622852Y-99191155D01*
X142466093Y-99170518D01*
X142466091Y-99170518D01*
X142309331Y-99191155D01*
X142309329Y-99191156D01*
X142163252Y-99251663D01*
X142163251Y-99251664D01*
X142037810Y-99347918D01*
X142002006Y-99394578D01*
X141945580Y-99435779D01*
X141903632Y-99443090D01*
X137289578Y-99443090D01*
X137222539Y-99423405D01*
X137201897Y-99406771D01*
X134690011Y-96894885D01*
X134656526Y-96833562D01*
X134654753Y-96791018D01*
X134663682Y-96723200D01*
X134663682Y-96723198D01*
X134643044Y-96566439D01*
X134643044Y-96566438D01*
X134582536Y-96420359D01*
X134486282Y-96294918D01*
X134360841Y-96198664D01*
X134214762Y-96138156D01*
X134214760Y-96138155D01*
X134058001Y-96117518D01*
X134057999Y-96117518D01*
X133901239Y-96138155D01*
X133901237Y-96138156D01*
X133755160Y-96198663D01*
X133629718Y-96294918D01*
X133533463Y-96420360D01*
X133472956Y-96566437D01*
X133472955Y-96566439D01*
X133452318Y-96723198D01*
X131178000Y-96723198D01*
X131178000Y-86647926D01*
X131178037Y-86644890D01*
X131180145Y-86558821D01*
X131182490Y-86537672D01*
X131216362Y-86367383D01*
X131223412Y-86344141D01*
X131289274Y-86185138D01*
X131300726Y-86163714D01*
X131396338Y-86020619D01*
X131411751Y-86001839D01*
X131533439Y-85880151D01*
X131552219Y-85864738D01*
X131695314Y-85769126D01*
X131716738Y-85757674D01*
X131875741Y-85691812D01*
X131898983Y-85684762D01*
X132069272Y-85650890D01*
X132090415Y-85648545D01*
X132171037Y-85646570D01*
X132176491Y-85646437D01*
X132179527Y-85646400D01*
X136427992Y-85646400D01*
X136428000Y-85646400D01*
X136526254Y-85643993D01*
X136718987Y-85605656D01*
X136900537Y-85530455D01*
X137063928Y-85421281D01*
X137202881Y-85282328D01*
X137312055Y-85118937D01*
X137387256Y-84937387D01*
X137425593Y-84744654D01*
X137428000Y-84646400D01*
X137428000Y-80896400D01*
X139372693Y-80896400D01*
X139391903Y-81238481D01*
X139391904Y-81238486D01*
X139449296Y-81576270D01*
X139544147Y-81905504D01*
X139648108Y-82156487D01*
X139675263Y-82222046D01*
X139840998Y-82521921D01*
X140039269Y-82801359D01*
X140267570Y-83056826D01*
X140267573Y-83056829D01*
X140523040Y-83285130D01*
X140523046Y-83285134D01*
X140523047Y-83285135D01*
X140802479Y-83483402D01*
X141102352Y-83649136D01*
X141418896Y-83780253D01*
X141748130Y-83875104D01*
X142085914Y-83932496D01*
X142428000Y-83951707D01*
X142770086Y-83932496D01*
X143107870Y-83875104D01*
X143437104Y-83780253D01*
X143753648Y-83649136D01*
X144053521Y-83483402D01*
X144332953Y-83285135D01*
X144588428Y-83056828D01*
X144816735Y-82801353D01*
X145015002Y-82521921D01*
X145180736Y-82222048D01*
X145311853Y-81905504D01*
X145406704Y-81576270D01*
X145464096Y-81238486D01*
X145483307Y-80896400D01*
X145464096Y-80554314D01*
X145406704Y-80216530D01*
X145311853Y-79887296D01*
X145180736Y-79570752D01*
X145015002Y-79270879D01*
X144816735Y-78991447D01*
X144816734Y-78991446D01*
X144816730Y-78991440D01*
X144588429Y-78735973D01*
X144588426Y-78735970D01*
X144332959Y-78507669D01*
X144053521Y-78309398D01*
X143753646Y-78143663D01*
X143688087Y-78116508D01*
X143437104Y-78012547D01*
X143227393Y-77952130D01*
X143107875Y-77917697D01*
X143107866Y-77917695D01*
X142770093Y-77860305D01*
X142770081Y-77860303D01*
X142428000Y-77841093D01*
X142085918Y-77860303D01*
X142085906Y-77860305D01*
X141748133Y-77917695D01*
X141748124Y-77917697D01*
X141418899Y-78012546D01*
X141418896Y-78012547D01*
X141326184Y-78050949D01*
X141102353Y-78143663D01*
X140802478Y-78309398D01*
X140523040Y-78507669D01*
X140267573Y-78735970D01*
X140267570Y-78735973D01*
X140039269Y-78991440D01*
X139840998Y-79270878D01*
X139675263Y-79570753D01*
X139674733Y-79572033D01*
X139544395Y-79886699D01*
X139544146Y-79887299D01*
X139449297Y-80216524D01*
X139449295Y-80216533D01*
X139391905Y-80554306D01*
X139391903Y-80554318D01*
X139372693Y-80896400D01*
X137428000Y-80896400D01*
X137428000Y-80397282D01*
X137428012Y-80395544D01*
X137430274Y-80234129D01*
X137431041Y-80222010D01*
X137467277Y-79900405D01*
X137469606Y-79886699D01*
X137541426Y-79572033D01*
X137545272Y-79558679D01*
X137651883Y-79254001D01*
X137657196Y-79241177D01*
X137797243Y-78950365D01*
X137803959Y-78938213D01*
X137975693Y-78664901D01*
X137983723Y-78653583D01*
X138184979Y-78401216D01*
X138194228Y-78390867D01*
X138422467Y-78162628D01*
X138432816Y-78153379D01*
X138685183Y-77952123D01*
X138696501Y-77944093D01*
X138969813Y-77772359D01*
X138981965Y-77765643D01*
X139272777Y-77625596D01*
X139285601Y-77620283D01*
X139590279Y-77513672D01*
X139603627Y-77509827D01*
X139821293Y-77460146D01*
X139918299Y-77438006D01*
X139932005Y-77435677D01*
X140253610Y-77399441D01*
X140265729Y-77398674D01*
X140427144Y-77396411D01*
X140428882Y-77396400D01*
X154177118Y-77396400D01*
X154178855Y-77396411D01*
G37*
%TD.AperFunction*%
%TD*%
M02*
