%TF.GenerationSoftware,KiCad,Pcbnew,8.0.2*%
%TF.CreationDate,2024-05-30T14:33:26+02:00*%
%TF.ProjectId,,58585858-5858-4585-9858-585858585858,rev?*%
%TF.SameCoordinates,Original*%
%TF.FileFunction,Paste,Top*%
%TF.FilePolarity,Positive*%
%FSLAX46Y46*%
G04 Gerber Fmt 4.6, Leading zero omitted, Abs format (unit mm)*
G04 Created by KiCad (PCBNEW 8.0.2) date 2024-05-30 14:33:26*
%MOMM*%
%LPD*%
G01*
G04 APERTURE LIST*
G04 Aperture macros list*
%AMRoundRect*
0 Rectangle with rounded corners*
0 $1 Rounding radius*
0 $2 $3 $4 $5 $6 $7 $8 $9 X,Y pos of 4 corners*
0 Add a 4 corners polygon primitive as box body*
4,1,4,$2,$3,$4,$5,$6,$7,$8,$9,$2,$3,0*
0 Add four circle primitives for the rounded corners*
1,1,$1+$1,$2,$3*
1,1,$1+$1,$4,$5*
1,1,$1+$1,$6,$7*
1,1,$1+$1,$8,$9*
0 Add four rect primitives between the rounded corners*
20,1,$1+$1,$2,$3,$4,$5,0*
20,1,$1+$1,$4,$5,$6,$7,0*
20,1,$1+$1,$6,$7,$8,$9,0*
20,1,$1+$1,$8,$9,$2,$3,0*%
G04 Aperture macros list end*
%ADD10C,0.010000*%
%ADD11RoundRect,0.225000X0.250000X-0.225000X0.250000X0.225000X-0.250000X0.225000X-0.250000X-0.225000X0*%
%ADD12RoundRect,0.200000X-0.200000X-0.275000X0.200000X-0.275000X0.200000X0.275000X-0.200000X0.275000X0*%
%ADD13RoundRect,0.250000X-0.900000X1.000000X-0.900000X-1.000000X0.900000X-1.000000X0.900000X1.000000X0*%
%ADD14RoundRect,0.250000X-1.400000X-1.400000X1.400000X-1.400000X1.400000X1.400000X-1.400000X1.400000X0*%
%ADD15RoundRect,0.500000X0.500000X-1.250000X0.500000X1.250000X-0.500000X1.250000X-0.500000X-1.250000X0*%
%ADD16RoundRect,0.200000X0.200000X0.275000X-0.200000X0.275000X-0.200000X-0.275000X0.200000X-0.275000X0*%
%ADD17RoundRect,0.225000X-0.225000X-0.250000X0.225000X-0.250000X0.225000X0.250000X-0.225000X0.250000X0*%
%ADD18RoundRect,0.250000X-1.075000X0.362500X-1.075000X-0.362500X1.075000X-0.362500X1.075000X0.362500X0*%
%ADD19R,5.000000X3.100000*%
%ADD20R,1.100000X0.510000*%
%ADD21RoundRect,0.243750X0.243750X0.456250X-0.243750X0.456250X-0.243750X-0.456250X0.243750X-0.456250X0*%
%ADD22RoundRect,0.250000X-1.000000X-0.900000X1.000000X-0.900000X1.000000X0.900000X-1.000000X0.900000X0*%
%ADD23RoundRect,0.225000X0.225000X0.250000X-0.225000X0.250000X-0.225000X-0.250000X0.225000X-0.250000X0*%
%ADD24RoundRect,0.237500X0.237500X-0.250000X0.237500X0.250000X-0.237500X0.250000X-0.237500X-0.250000X0*%
%ADD25RoundRect,0.237500X-0.237500X0.250000X-0.237500X-0.250000X0.237500X-0.250000X0.237500X0.250000X0*%
%ADD26RoundRect,0.225000X-0.250000X0.225000X-0.250000X-0.225000X0.250000X-0.225000X0.250000X0.225000X0*%
%ADD27RoundRect,0.250000X0.650000X-1.000000X0.650000X1.000000X-0.650000X1.000000X-0.650000X-1.000000X0*%
%ADD28RoundRect,0.243750X-0.456250X0.243750X-0.456250X-0.243750X0.456250X-0.243750X0.456250X0.243750X0*%
%ADD29R,1.500000X1.500000*%
%ADD30C,1.500000*%
%ADD31RoundRect,0.237500X0.250000X0.237500X-0.250000X0.237500X-0.250000X-0.237500X0.250000X-0.237500X0*%
%ADD32RoundRect,0.250000X-0.650000X1.000000X-0.650000X-1.000000X0.650000X-1.000000X0.650000X1.000000X0*%
%ADD33RoundRect,0.242500X0.242500X0.402500X-0.242500X0.402500X-0.242500X-0.402500X0.242500X-0.402500X0*%
%ADD34RoundRect,0.150000X0.650000X0.150000X-0.650000X0.150000X-0.650000X-0.150000X0.650000X-0.150000X0*%
%ADD35R,0.340000X0.700000*%
%ADD36R,0.700000X2.000000*%
%ADD37RoundRect,0.243750X0.456250X-0.243750X0.456250X0.243750X-0.456250X0.243750X-0.456250X-0.243750X0*%
%ADD38R,1.500000X2.500000*%
%ADD39RoundRect,0.237500X-0.250000X-0.237500X0.250000X-0.237500X0.250000X0.237500X-0.250000X0.237500X0*%
%ADD40RoundRect,0.250000X0.250000X-0.250000X0.250000X0.250000X-0.250000X0.250000X-0.250000X-0.250000X0*%
%ADD41RoundRect,0.250000X0.300000X-0.300000X0.300000X0.300000X-0.300000X0.300000X-0.300000X-0.300000X0*%
%ADD42RoundRect,0.042000X-0.633000X-0.258000X0.633000X-0.258000X0.633000X0.258000X-0.633000X0.258000X0*%
%ADD43RoundRect,0.250000X-0.250000X0.250000X-0.250000X-0.250000X0.250000X-0.250000X0.250000X0.250000X0*%
G04 APERTURE END LIST*
D10*
%TO.C,U3*%
X94775000Y-129242000D02*
X93950000Y-129242000D01*
X93950000Y-128742000D01*
X94425000Y-128742000D01*
X94425000Y-128267000D01*
X94775000Y-128267000D01*
X94775000Y-129242000D01*
G36*
X94775000Y-129242000D02*
G01*
X93950000Y-129242000D01*
X93950000Y-128742000D01*
X94425000Y-128742000D01*
X94425000Y-128267000D01*
X94775000Y-128267000D01*
X94775000Y-129242000D01*
G37*
X98325000Y-128742000D02*
X98800000Y-128742000D01*
X98800000Y-129242000D01*
X97975000Y-129242000D01*
X97975000Y-128267000D01*
X98325000Y-128267000D01*
X98325000Y-128742000D01*
G36*
X98325000Y-128742000D02*
G01*
X98800000Y-128742000D01*
X98800000Y-129242000D01*
X97975000Y-129242000D01*
X97975000Y-128267000D01*
X98325000Y-128267000D01*
X98325000Y-128742000D01*
G37*
X94668000Y-129443000D02*
X94686000Y-129446000D01*
X94704000Y-129451000D01*
X94721000Y-129457000D01*
X94737000Y-129465000D01*
X94753000Y-129475000D01*
X94767000Y-129487000D01*
X94780000Y-129500000D01*
X94792000Y-129514000D01*
X94802000Y-129530000D01*
X94810000Y-129546000D01*
X94816000Y-129563000D01*
X94821000Y-129581000D01*
X94824000Y-129599000D01*
X94825000Y-129617000D01*
X94824000Y-129635000D01*
X94821000Y-129653000D01*
X94816000Y-129671000D01*
X94810000Y-129688000D01*
X94802000Y-129705000D01*
X94792000Y-129720000D01*
X94780000Y-129734000D01*
X94767000Y-129747000D01*
X94753000Y-129759000D01*
X94737000Y-129769000D01*
X94721000Y-129777000D01*
X94704000Y-129783000D01*
X94686000Y-129788000D01*
X94668000Y-129791000D01*
X94650000Y-129792000D01*
X93950000Y-129792000D01*
X93950000Y-129442000D01*
X94650000Y-129442000D01*
X94668000Y-129443000D01*
G36*
X94668000Y-129443000D02*
G01*
X94686000Y-129446000D01*
X94704000Y-129451000D01*
X94721000Y-129457000D01*
X94737000Y-129465000D01*
X94753000Y-129475000D01*
X94767000Y-129487000D01*
X94780000Y-129500000D01*
X94792000Y-129514000D01*
X94802000Y-129530000D01*
X94810000Y-129546000D01*
X94816000Y-129563000D01*
X94821000Y-129581000D01*
X94824000Y-129599000D01*
X94825000Y-129617000D01*
X94824000Y-129635000D01*
X94821000Y-129653000D01*
X94816000Y-129671000D01*
X94810000Y-129688000D01*
X94802000Y-129705000D01*
X94792000Y-129720000D01*
X94780000Y-129734000D01*
X94767000Y-129747000D01*
X94753000Y-129759000D01*
X94737000Y-129769000D01*
X94721000Y-129777000D01*
X94704000Y-129783000D01*
X94686000Y-129788000D01*
X94668000Y-129791000D01*
X94650000Y-129792000D01*
X93950000Y-129792000D01*
X93950000Y-129442000D01*
X94650000Y-129442000D01*
X94668000Y-129443000D01*
G37*
X94713000Y-131293000D02*
X94726000Y-131295000D01*
X94739000Y-131298000D01*
X94751000Y-131303000D01*
X94762000Y-131309000D01*
X94773000Y-131316000D01*
X94784000Y-131324000D01*
X94793000Y-131333000D01*
X94801000Y-131344000D01*
X94808000Y-131354000D01*
X94814000Y-131366000D01*
X94819000Y-131378000D01*
X94822000Y-131391000D01*
X94824000Y-131404000D01*
X94825000Y-131417000D01*
X94824000Y-131430000D01*
X94822000Y-131443000D01*
X94819000Y-131456000D01*
X94814000Y-131468000D01*
X94808000Y-131479000D01*
X94801000Y-131490000D01*
X94793000Y-131501000D01*
X94784000Y-131510000D01*
X94773000Y-131518000D01*
X94762000Y-131525000D01*
X94751000Y-131531000D01*
X94739000Y-131536000D01*
X94726000Y-131539000D01*
X94713000Y-131541000D01*
X94700000Y-131542000D01*
X93950000Y-131542000D01*
X93950000Y-131292000D01*
X94700000Y-131292000D01*
X94713000Y-131293000D01*
G36*
X94713000Y-131293000D02*
G01*
X94726000Y-131295000D01*
X94739000Y-131298000D01*
X94751000Y-131303000D01*
X94762000Y-131309000D01*
X94773000Y-131316000D01*
X94784000Y-131324000D01*
X94793000Y-131333000D01*
X94801000Y-131344000D01*
X94808000Y-131354000D01*
X94814000Y-131366000D01*
X94819000Y-131378000D01*
X94822000Y-131391000D01*
X94824000Y-131404000D01*
X94825000Y-131417000D01*
X94824000Y-131430000D01*
X94822000Y-131443000D01*
X94819000Y-131456000D01*
X94814000Y-131468000D01*
X94808000Y-131479000D01*
X94801000Y-131490000D01*
X94793000Y-131501000D01*
X94784000Y-131510000D01*
X94773000Y-131518000D01*
X94762000Y-131525000D01*
X94751000Y-131531000D01*
X94739000Y-131536000D01*
X94726000Y-131539000D01*
X94713000Y-131541000D01*
X94700000Y-131542000D01*
X93950000Y-131542000D01*
X93950000Y-131292000D01*
X94700000Y-131292000D01*
X94713000Y-131293000D01*
G37*
X95275000Y-129092000D02*
X95274000Y-129108000D01*
X95272000Y-129123000D01*
X95268000Y-129138000D01*
X95262000Y-129153000D01*
X95255000Y-129167000D01*
X95246000Y-129180000D01*
X95236000Y-129192000D01*
X95225000Y-129203000D01*
X95213000Y-129213000D01*
X95200000Y-129222000D01*
X95186000Y-129229000D01*
X95171000Y-129235000D01*
X95156000Y-129239000D01*
X95141000Y-129241000D01*
X95125000Y-129242000D01*
X95109000Y-129241000D01*
X95094000Y-129239000D01*
X95079000Y-129235000D01*
X95064000Y-129229000D01*
X95050000Y-129222000D01*
X95037000Y-129213000D01*
X95025000Y-129203000D01*
X95014000Y-129192000D01*
X95004000Y-129180000D01*
X94995000Y-129167000D01*
X94988000Y-129153000D01*
X94982000Y-129138000D01*
X94978000Y-129123000D01*
X94976000Y-129108000D01*
X94975000Y-129092000D01*
X94975000Y-128267000D01*
X95275000Y-128267000D01*
X95275000Y-129092000D01*
G36*
X95275000Y-129092000D02*
G01*
X95274000Y-129108000D01*
X95272000Y-129123000D01*
X95268000Y-129138000D01*
X95262000Y-129153000D01*
X95255000Y-129167000D01*
X95246000Y-129180000D01*
X95236000Y-129192000D01*
X95225000Y-129203000D01*
X95213000Y-129213000D01*
X95200000Y-129222000D01*
X95186000Y-129229000D01*
X95171000Y-129235000D01*
X95156000Y-129239000D01*
X95141000Y-129241000D01*
X95125000Y-129242000D01*
X95109000Y-129241000D01*
X95094000Y-129239000D01*
X95079000Y-129235000D01*
X95064000Y-129229000D01*
X95050000Y-129222000D01*
X95037000Y-129213000D01*
X95025000Y-129203000D01*
X95014000Y-129192000D01*
X95004000Y-129180000D01*
X94995000Y-129167000D01*
X94988000Y-129153000D01*
X94982000Y-129138000D01*
X94978000Y-129123000D01*
X94976000Y-129108000D01*
X94975000Y-129092000D01*
X94975000Y-128267000D01*
X95275000Y-128267000D01*
X95275000Y-129092000D01*
G37*
X95775000Y-129092000D02*
X95774000Y-129108000D01*
X95772000Y-129123000D01*
X95768000Y-129138000D01*
X95762000Y-129153000D01*
X95755000Y-129167000D01*
X95746000Y-129180000D01*
X95736000Y-129192000D01*
X95725000Y-129203000D01*
X95713000Y-129213000D01*
X95700000Y-129222000D01*
X95686000Y-129229000D01*
X95671000Y-129235000D01*
X95656000Y-129239000D01*
X95641000Y-129241000D01*
X95625000Y-129242000D01*
X95609000Y-129241000D01*
X95594000Y-129239000D01*
X95579000Y-129235000D01*
X95564000Y-129229000D01*
X95550000Y-129222000D01*
X95537000Y-129213000D01*
X95525000Y-129203000D01*
X95514000Y-129192000D01*
X95504000Y-129180000D01*
X95495000Y-129167000D01*
X95488000Y-129153000D01*
X95482000Y-129138000D01*
X95478000Y-129123000D01*
X95476000Y-129108000D01*
X95475000Y-129092000D01*
X95475000Y-128267000D01*
X95775000Y-128267000D01*
X95775000Y-129092000D01*
G36*
X95775000Y-129092000D02*
G01*
X95774000Y-129108000D01*
X95772000Y-129123000D01*
X95768000Y-129138000D01*
X95762000Y-129153000D01*
X95755000Y-129167000D01*
X95746000Y-129180000D01*
X95736000Y-129192000D01*
X95725000Y-129203000D01*
X95713000Y-129213000D01*
X95700000Y-129222000D01*
X95686000Y-129229000D01*
X95671000Y-129235000D01*
X95656000Y-129239000D01*
X95641000Y-129241000D01*
X95625000Y-129242000D01*
X95609000Y-129241000D01*
X95594000Y-129239000D01*
X95579000Y-129235000D01*
X95564000Y-129229000D01*
X95550000Y-129222000D01*
X95537000Y-129213000D01*
X95525000Y-129203000D01*
X95514000Y-129192000D01*
X95504000Y-129180000D01*
X95495000Y-129167000D01*
X95488000Y-129153000D01*
X95482000Y-129138000D01*
X95478000Y-129123000D01*
X95476000Y-129108000D01*
X95475000Y-129092000D01*
X95475000Y-128267000D01*
X95775000Y-128267000D01*
X95775000Y-129092000D01*
G37*
X96091000Y-130443000D02*
X96106000Y-130445000D01*
X96121000Y-130449000D01*
X96136000Y-130455000D01*
X96150000Y-130462000D01*
X96163000Y-130471000D01*
X96175000Y-130481000D01*
X96186000Y-130492000D01*
X96196000Y-130504000D01*
X96205000Y-130517000D01*
X96212000Y-130531000D01*
X96218000Y-130546000D01*
X96222000Y-130561000D01*
X96224000Y-130576000D01*
X96225000Y-130592000D01*
X96225000Y-133117000D01*
X95925000Y-133117000D01*
X95925000Y-130592000D01*
X95926000Y-130576000D01*
X95928000Y-130561000D01*
X95932000Y-130546000D01*
X95938000Y-130531000D01*
X95945000Y-130517000D01*
X95954000Y-130504000D01*
X95964000Y-130492000D01*
X95975000Y-130481000D01*
X95987000Y-130471000D01*
X96000000Y-130462000D01*
X96014000Y-130455000D01*
X96029000Y-130449000D01*
X96044000Y-130445000D01*
X96059000Y-130443000D01*
X96075000Y-130442000D01*
X96091000Y-130443000D01*
G36*
X96091000Y-130443000D02*
G01*
X96106000Y-130445000D01*
X96121000Y-130449000D01*
X96136000Y-130455000D01*
X96150000Y-130462000D01*
X96163000Y-130471000D01*
X96175000Y-130481000D01*
X96186000Y-130492000D01*
X96196000Y-130504000D01*
X96205000Y-130517000D01*
X96212000Y-130531000D01*
X96218000Y-130546000D01*
X96222000Y-130561000D01*
X96224000Y-130576000D01*
X96225000Y-130592000D01*
X96225000Y-133117000D01*
X95925000Y-133117000D01*
X95925000Y-130592000D01*
X95926000Y-130576000D01*
X95928000Y-130561000D01*
X95932000Y-130546000D01*
X95938000Y-130531000D01*
X95945000Y-130517000D01*
X95954000Y-130504000D01*
X95964000Y-130492000D01*
X95975000Y-130481000D01*
X95987000Y-130471000D01*
X96000000Y-130462000D01*
X96014000Y-130455000D01*
X96029000Y-130449000D01*
X96044000Y-130445000D01*
X96059000Y-130443000D01*
X96075000Y-130442000D01*
X96091000Y-130443000D01*
G37*
X96275000Y-129092000D02*
X96274000Y-129108000D01*
X96272000Y-129123000D01*
X96268000Y-129138000D01*
X96262000Y-129153000D01*
X96255000Y-129167000D01*
X96246000Y-129180000D01*
X96236000Y-129192000D01*
X96225000Y-129203000D01*
X96213000Y-129213000D01*
X96200000Y-129222000D01*
X96186000Y-129229000D01*
X96171000Y-129235000D01*
X96156000Y-129239000D01*
X96141000Y-129241000D01*
X96125000Y-129242000D01*
X96109000Y-129241000D01*
X96094000Y-129239000D01*
X96079000Y-129235000D01*
X96064000Y-129229000D01*
X96050000Y-129222000D01*
X96037000Y-129213000D01*
X96025000Y-129203000D01*
X96014000Y-129192000D01*
X96004000Y-129180000D01*
X95995000Y-129167000D01*
X95988000Y-129153000D01*
X95982000Y-129138000D01*
X95978000Y-129123000D01*
X95976000Y-129108000D01*
X95975000Y-129092000D01*
X95975000Y-128267000D01*
X96275000Y-128267000D01*
X96275000Y-129092000D01*
G36*
X96275000Y-129092000D02*
G01*
X96274000Y-129108000D01*
X96272000Y-129123000D01*
X96268000Y-129138000D01*
X96262000Y-129153000D01*
X96255000Y-129167000D01*
X96246000Y-129180000D01*
X96236000Y-129192000D01*
X96225000Y-129203000D01*
X96213000Y-129213000D01*
X96200000Y-129222000D01*
X96186000Y-129229000D01*
X96171000Y-129235000D01*
X96156000Y-129239000D01*
X96141000Y-129241000D01*
X96125000Y-129242000D01*
X96109000Y-129241000D01*
X96094000Y-129239000D01*
X96079000Y-129235000D01*
X96064000Y-129229000D01*
X96050000Y-129222000D01*
X96037000Y-129213000D01*
X96025000Y-129203000D01*
X96014000Y-129192000D01*
X96004000Y-129180000D01*
X95995000Y-129167000D01*
X95988000Y-129153000D01*
X95982000Y-129138000D01*
X95978000Y-129123000D01*
X95976000Y-129108000D01*
X95975000Y-129092000D01*
X95975000Y-128267000D01*
X96275000Y-128267000D01*
X96275000Y-129092000D01*
G37*
X96691000Y-130443000D02*
X96706000Y-130445000D01*
X96721000Y-130449000D01*
X96736000Y-130455000D01*
X96750000Y-130462000D01*
X96763000Y-130471000D01*
X96775000Y-130481000D01*
X96786000Y-130492000D01*
X96796000Y-130504000D01*
X96805000Y-130517000D01*
X96812000Y-130531000D01*
X96818000Y-130546000D01*
X96822000Y-130561000D01*
X96824000Y-130576000D01*
X96825000Y-130592000D01*
X96825000Y-133117000D01*
X96525000Y-133117000D01*
X96525000Y-130592000D01*
X96526000Y-130576000D01*
X96528000Y-130561000D01*
X96532000Y-130546000D01*
X96538000Y-130531000D01*
X96545000Y-130517000D01*
X96554000Y-130504000D01*
X96564000Y-130492000D01*
X96575000Y-130481000D01*
X96587000Y-130471000D01*
X96600000Y-130462000D01*
X96614000Y-130455000D01*
X96629000Y-130449000D01*
X96644000Y-130445000D01*
X96659000Y-130443000D01*
X96675000Y-130442000D01*
X96691000Y-130443000D01*
G36*
X96691000Y-130443000D02*
G01*
X96706000Y-130445000D01*
X96721000Y-130449000D01*
X96736000Y-130455000D01*
X96750000Y-130462000D01*
X96763000Y-130471000D01*
X96775000Y-130481000D01*
X96786000Y-130492000D01*
X96796000Y-130504000D01*
X96805000Y-130517000D01*
X96812000Y-130531000D01*
X96818000Y-130546000D01*
X96822000Y-130561000D01*
X96824000Y-130576000D01*
X96825000Y-130592000D01*
X96825000Y-133117000D01*
X96525000Y-133117000D01*
X96525000Y-130592000D01*
X96526000Y-130576000D01*
X96528000Y-130561000D01*
X96532000Y-130546000D01*
X96538000Y-130531000D01*
X96545000Y-130517000D01*
X96554000Y-130504000D01*
X96564000Y-130492000D01*
X96575000Y-130481000D01*
X96587000Y-130471000D01*
X96600000Y-130462000D01*
X96614000Y-130455000D01*
X96629000Y-130449000D01*
X96644000Y-130445000D01*
X96659000Y-130443000D01*
X96675000Y-130442000D01*
X96691000Y-130443000D01*
G37*
X96775000Y-129092000D02*
X96774000Y-129108000D01*
X96772000Y-129123000D01*
X96768000Y-129138000D01*
X96762000Y-129153000D01*
X96755000Y-129167000D01*
X96746000Y-129180000D01*
X96736000Y-129192000D01*
X96725000Y-129203000D01*
X96713000Y-129213000D01*
X96700000Y-129222000D01*
X96686000Y-129229000D01*
X96671000Y-129235000D01*
X96656000Y-129239000D01*
X96641000Y-129241000D01*
X96625000Y-129242000D01*
X96609000Y-129241000D01*
X96594000Y-129239000D01*
X96579000Y-129235000D01*
X96564000Y-129229000D01*
X96550000Y-129222000D01*
X96537000Y-129213000D01*
X96525000Y-129203000D01*
X96514000Y-129192000D01*
X96504000Y-129180000D01*
X96495000Y-129167000D01*
X96488000Y-129153000D01*
X96482000Y-129138000D01*
X96478000Y-129123000D01*
X96476000Y-129108000D01*
X96475000Y-129092000D01*
X96475000Y-128267000D01*
X96775000Y-128267000D01*
X96775000Y-129092000D01*
G36*
X96775000Y-129092000D02*
G01*
X96774000Y-129108000D01*
X96772000Y-129123000D01*
X96768000Y-129138000D01*
X96762000Y-129153000D01*
X96755000Y-129167000D01*
X96746000Y-129180000D01*
X96736000Y-129192000D01*
X96725000Y-129203000D01*
X96713000Y-129213000D01*
X96700000Y-129222000D01*
X96686000Y-129229000D01*
X96671000Y-129235000D01*
X96656000Y-129239000D01*
X96641000Y-129241000D01*
X96625000Y-129242000D01*
X96609000Y-129241000D01*
X96594000Y-129239000D01*
X96579000Y-129235000D01*
X96564000Y-129229000D01*
X96550000Y-129222000D01*
X96537000Y-129213000D01*
X96525000Y-129203000D01*
X96514000Y-129192000D01*
X96504000Y-129180000D01*
X96495000Y-129167000D01*
X96488000Y-129153000D01*
X96482000Y-129138000D01*
X96478000Y-129123000D01*
X96476000Y-129108000D01*
X96475000Y-129092000D01*
X96475000Y-128267000D01*
X96775000Y-128267000D01*
X96775000Y-129092000D01*
G37*
X97275000Y-129092000D02*
X97274000Y-129108000D01*
X97272000Y-129123000D01*
X97268000Y-129138000D01*
X97262000Y-129153000D01*
X97255000Y-129167000D01*
X97246000Y-129180000D01*
X97236000Y-129192000D01*
X97225000Y-129203000D01*
X97213000Y-129213000D01*
X97200000Y-129222000D01*
X97186000Y-129229000D01*
X97171000Y-129235000D01*
X97156000Y-129239000D01*
X97141000Y-129241000D01*
X97125000Y-129242000D01*
X97109000Y-129241000D01*
X97094000Y-129239000D01*
X97079000Y-129235000D01*
X97064000Y-129229000D01*
X97050000Y-129222000D01*
X97037000Y-129213000D01*
X97025000Y-129203000D01*
X97014000Y-129192000D01*
X97004000Y-129180000D01*
X96995000Y-129167000D01*
X96988000Y-129153000D01*
X96982000Y-129138000D01*
X96978000Y-129123000D01*
X96976000Y-129108000D01*
X96975000Y-129092000D01*
X96975000Y-128267000D01*
X97275000Y-128267000D01*
X97275000Y-129092000D01*
G36*
X97275000Y-129092000D02*
G01*
X97274000Y-129108000D01*
X97272000Y-129123000D01*
X97268000Y-129138000D01*
X97262000Y-129153000D01*
X97255000Y-129167000D01*
X97246000Y-129180000D01*
X97236000Y-129192000D01*
X97225000Y-129203000D01*
X97213000Y-129213000D01*
X97200000Y-129222000D01*
X97186000Y-129229000D01*
X97171000Y-129235000D01*
X97156000Y-129239000D01*
X97141000Y-129241000D01*
X97125000Y-129242000D01*
X97109000Y-129241000D01*
X97094000Y-129239000D01*
X97079000Y-129235000D01*
X97064000Y-129229000D01*
X97050000Y-129222000D01*
X97037000Y-129213000D01*
X97025000Y-129203000D01*
X97014000Y-129192000D01*
X97004000Y-129180000D01*
X96995000Y-129167000D01*
X96988000Y-129153000D01*
X96982000Y-129138000D01*
X96978000Y-129123000D01*
X96976000Y-129108000D01*
X96975000Y-129092000D01*
X96975000Y-128267000D01*
X97275000Y-128267000D01*
X97275000Y-129092000D01*
G37*
X97775000Y-129092000D02*
X97774000Y-129108000D01*
X97772000Y-129123000D01*
X97768000Y-129138000D01*
X97762000Y-129153000D01*
X97755000Y-129167000D01*
X97746000Y-129180000D01*
X97736000Y-129192000D01*
X97725000Y-129203000D01*
X97713000Y-129213000D01*
X97700000Y-129222000D01*
X97686000Y-129229000D01*
X97671000Y-129235000D01*
X97656000Y-129239000D01*
X97641000Y-129241000D01*
X97625000Y-129242000D01*
X97609000Y-129241000D01*
X97594000Y-129239000D01*
X97579000Y-129235000D01*
X97564000Y-129229000D01*
X97550000Y-129222000D01*
X97537000Y-129213000D01*
X97525000Y-129203000D01*
X97514000Y-129192000D01*
X97504000Y-129180000D01*
X97495000Y-129167000D01*
X97488000Y-129153000D01*
X97482000Y-129138000D01*
X97478000Y-129123000D01*
X97476000Y-129108000D01*
X97475000Y-129092000D01*
X97475000Y-128267000D01*
X97775000Y-128267000D01*
X97775000Y-129092000D01*
G36*
X97775000Y-129092000D02*
G01*
X97774000Y-129108000D01*
X97772000Y-129123000D01*
X97768000Y-129138000D01*
X97762000Y-129153000D01*
X97755000Y-129167000D01*
X97746000Y-129180000D01*
X97736000Y-129192000D01*
X97725000Y-129203000D01*
X97713000Y-129213000D01*
X97700000Y-129222000D01*
X97686000Y-129229000D01*
X97671000Y-129235000D01*
X97656000Y-129239000D01*
X97641000Y-129241000D01*
X97625000Y-129242000D01*
X97609000Y-129241000D01*
X97594000Y-129239000D01*
X97579000Y-129235000D01*
X97564000Y-129229000D01*
X97550000Y-129222000D01*
X97537000Y-129213000D01*
X97525000Y-129203000D01*
X97514000Y-129192000D01*
X97504000Y-129180000D01*
X97495000Y-129167000D01*
X97488000Y-129153000D01*
X97482000Y-129138000D01*
X97478000Y-129123000D01*
X97476000Y-129108000D01*
X97475000Y-129092000D01*
X97475000Y-128267000D01*
X97775000Y-128267000D01*
X97775000Y-129092000D01*
G37*
X98800000Y-129792000D02*
X98100000Y-129792000D01*
X98082000Y-129791000D01*
X98064000Y-129788000D01*
X98046000Y-129783000D01*
X98029000Y-129777000D01*
X98012000Y-129769000D01*
X97997000Y-129759000D01*
X97983000Y-129747000D01*
X97970000Y-129734000D01*
X97958000Y-129720000D01*
X97948000Y-129705000D01*
X97940000Y-129688000D01*
X97934000Y-129671000D01*
X97929000Y-129653000D01*
X97926000Y-129635000D01*
X97925000Y-129617000D01*
X97926000Y-129599000D01*
X97929000Y-129581000D01*
X97934000Y-129563000D01*
X97940000Y-129546000D01*
X97948000Y-129530000D01*
X97958000Y-129514000D01*
X97970000Y-129500000D01*
X97983000Y-129487000D01*
X97997000Y-129475000D01*
X98013000Y-129465000D01*
X98029000Y-129457000D01*
X98046000Y-129451000D01*
X98064000Y-129446000D01*
X98082000Y-129443000D01*
X98100000Y-129442000D01*
X98800000Y-129442000D01*
X98800000Y-129792000D01*
G36*
X98800000Y-129792000D02*
G01*
X98100000Y-129792000D01*
X98082000Y-129791000D01*
X98064000Y-129788000D01*
X98046000Y-129783000D01*
X98029000Y-129777000D01*
X98012000Y-129769000D01*
X97997000Y-129759000D01*
X97983000Y-129747000D01*
X97970000Y-129734000D01*
X97958000Y-129720000D01*
X97948000Y-129705000D01*
X97940000Y-129688000D01*
X97934000Y-129671000D01*
X97929000Y-129653000D01*
X97926000Y-129635000D01*
X97925000Y-129617000D01*
X97926000Y-129599000D01*
X97929000Y-129581000D01*
X97934000Y-129563000D01*
X97940000Y-129546000D01*
X97948000Y-129530000D01*
X97958000Y-129514000D01*
X97970000Y-129500000D01*
X97983000Y-129487000D01*
X97997000Y-129475000D01*
X98013000Y-129465000D01*
X98029000Y-129457000D01*
X98046000Y-129451000D01*
X98064000Y-129446000D01*
X98082000Y-129443000D01*
X98100000Y-129442000D01*
X98800000Y-129442000D01*
X98800000Y-129792000D01*
G37*
X98800000Y-131542000D02*
X98050000Y-131542000D01*
X98037000Y-131541000D01*
X98024000Y-131539000D01*
X98011000Y-131536000D01*
X97999000Y-131531000D01*
X97988000Y-131525000D01*
X97977000Y-131518000D01*
X97966000Y-131510000D01*
X97957000Y-131501000D01*
X97949000Y-131490000D01*
X97942000Y-131479000D01*
X97936000Y-131468000D01*
X97931000Y-131456000D01*
X97928000Y-131443000D01*
X97926000Y-131430000D01*
X97925000Y-131417000D01*
X97926000Y-131404000D01*
X97928000Y-131391000D01*
X97931000Y-131378000D01*
X97936000Y-131366000D01*
X97942000Y-131354000D01*
X97949000Y-131344000D01*
X97957000Y-131333000D01*
X97966000Y-131324000D01*
X97977000Y-131316000D01*
X97988000Y-131309000D01*
X97999000Y-131303000D01*
X98011000Y-131298000D01*
X98024000Y-131295000D01*
X98037000Y-131293000D01*
X98050000Y-131292000D01*
X98800000Y-131292000D01*
X98800000Y-131542000D01*
G36*
X98800000Y-131542000D02*
G01*
X98050000Y-131542000D01*
X98037000Y-131541000D01*
X98024000Y-131539000D01*
X98011000Y-131536000D01*
X97999000Y-131531000D01*
X97988000Y-131525000D01*
X97977000Y-131518000D01*
X97966000Y-131510000D01*
X97957000Y-131501000D01*
X97949000Y-131490000D01*
X97942000Y-131479000D01*
X97936000Y-131468000D01*
X97931000Y-131456000D01*
X97928000Y-131443000D01*
X97926000Y-131430000D01*
X97925000Y-131417000D01*
X97926000Y-131404000D01*
X97928000Y-131391000D01*
X97931000Y-131378000D01*
X97936000Y-131366000D01*
X97942000Y-131354000D01*
X97949000Y-131344000D01*
X97957000Y-131333000D01*
X97966000Y-131324000D01*
X97977000Y-131316000D01*
X97988000Y-131309000D01*
X97999000Y-131303000D01*
X98011000Y-131298000D01*
X98024000Y-131295000D01*
X98037000Y-131293000D01*
X98050000Y-131292000D01*
X98800000Y-131292000D01*
X98800000Y-131542000D01*
G37*
X94900000Y-132192000D02*
X95425000Y-132192000D01*
X95430000Y-132192000D01*
X95435000Y-132193000D01*
X95441000Y-132193000D01*
X95446000Y-132194000D01*
X95451000Y-132195000D01*
X95456000Y-132197000D01*
X95461000Y-132199000D01*
X95466000Y-132201000D01*
X95470000Y-132203000D01*
X95475000Y-132205000D01*
X95479000Y-132208000D01*
X95484000Y-132211000D01*
X95488000Y-132214000D01*
X95492000Y-132218000D01*
X95496000Y-132221000D01*
X95499000Y-132225000D01*
X95503000Y-132229000D01*
X95506000Y-132233000D01*
X95509000Y-132238000D01*
X95512000Y-132242000D01*
X95514000Y-132247000D01*
X95516000Y-132251000D01*
X95518000Y-132256000D01*
X95520000Y-132261000D01*
X95522000Y-132266000D01*
X95523000Y-132271000D01*
X95524000Y-132276000D01*
X95524000Y-132282000D01*
X95525000Y-132287000D01*
X95525000Y-132292000D01*
X95525000Y-133117000D01*
X94450000Y-133117000D01*
X94450000Y-132442000D01*
X93950000Y-132442000D01*
X93950000Y-131792000D01*
X94900000Y-131792000D01*
X94900000Y-132192000D01*
G36*
X94900000Y-132192000D02*
G01*
X95425000Y-132192000D01*
X95430000Y-132192000D01*
X95435000Y-132193000D01*
X95441000Y-132193000D01*
X95446000Y-132194000D01*
X95451000Y-132195000D01*
X95456000Y-132197000D01*
X95461000Y-132199000D01*
X95466000Y-132201000D01*
X95470000Y-132203000D01*
X95475000Y-132205000D01*
X95479000Y-132208000D01*
X95484000Y-132211000D01*
X95488000Y-132214000D01*
X95492000Y-132218000D01*
X95496000Y-132221000D01*
X95499000Y-132225000D01*
X95503000Y-132229000D01*
X95506000Y-132233000D01*
X95509000Y-132238000D01*
X95512000Y-132242000D01*
X95514000Y-132247000D01*
X95516000Y-132251000D01*
X95518000Y-132256000D01*
X95520000Y-132261000D01*
X95522000Y-132266000D01*
X95523000Y-132271000D01*
X95524000Y-132276000D01*
X95524000Y-132282000D01*
X95525000Y-132287000D01*
X95525000Y-132292000D01*
X95525000Y-133117000D01*
X94450000Y-133117000D01*
X94450000Y-132442000D01*
X93950000Y-132442000D01*
X93950000Y-131792000D01*
X94900000Y-131792000D01*
X94900000Y-132192000D01*
G37*
X98800000Y-132442000D02*
X98300000Y-132442000D01*
X98300000Y-133117000D01*
X97225000Y-133117000D01*
X97225000Y-132292000D01*
X97225000Y-132287000D01*
X97226000Y-132282000D01*
X97226000Y-132276000D01*
X97227000Y-132271000D01*
X97228000Y-132266000D01*
X97230000Y-132261000D01*
X97232000Y-132256000D01*
X97234000Y-132251000D01*
X97236000Y-132247000D01*
X97238000Y-132242000D01*
X97241000Y-132238000D01*
X97244000Y-132233000D01*
X97247000Y-132229000D01*
X97251000Y-132225000D01*
X97254000Y-132221000D01*
X97258000Y-132218000D01*
X97262000Y-132214000D01*
X97266000Y-132211000D01*
X97271000Y-132208000D01*
X97275000Y-132205000D01*
X97280000Y-132203000D01*
X97284000Y-132201000D01*
X97289000Y-132199000D01*
X97294000Y-132197000D01*
X97299000Y-132195000D01*
X97304000Y-132194000D01*
X97309000Y-132193000D01*
X97315000Y-132193000D01*
X97320000Y-132192000D01*
X97325000Y-132192000D01*
X97850000Y-132192000D01*
X97850000Y-131792000D01*
X98800000Y-131792000D01*
X98800000Y-132442000D01*
G36*
X98800000Y-132442000D02*
G01*
X98300000Y-132442000D01*
X98300000Y-133117000D01*
X97225000Y-133117000D01*
X97225000Y-132292000D01*
X97225000Y-132287000D01*
X97226000Y-132282000D01*
X97226000Y-132276000D01*
X97227000Y-132271000D01*
X97228000Y-132266000D01*
X97230000Y-132261000D01*
X97232000Y-132256000D01*
X97234000Y-132251000D01*
X97236000Y-132247000D01*
X97238000Y-132242000D01*
X97241000Y-132238000D01*
X97244000Y-132233000D01*
X97247000Y-132229000D01*
X97251000Y-132225000D01*
X97254000Y-132221000D01*
X97258000Y-132218000D01*
X97262000Y-132214000D01*
X97266000Y-132211000D01*
X97271000Y-132208000D01*
X97275000Y-132205000D01*
X97280000Y-132203000D01*
X97284000Y-132201000D01*
X97289000Y-132199000D01*
X97294000Y-132197000D01*
X97299000Y-132195000D01*
X97304000Y-132194000D01*
X97309000Y-132193000D01*
X97315000Y-132193000D01*
X97320000Y-132192000D01*
X97325000Y-132192000D01*
X97850000Y-132192000D01*
X97850000Y-131792000D01*
X98800000Y-131792000D01*
X98800000Y-132442000D01*
G37*
X95435000Y-129993000D02*
X95441000Y-129993000D01*
X95446000Y-129994000D01*
X95451000Y-129995000D01*
X95456000Y-129997000D01*
X95461000Y-129999000D01*
X95466000Y-130001000D01*
X95470000Y-130003000D01*
X95475000Y-130005000D01*
X95479000Y-130008000D01*
X95484000Y-130011000D01*
X95488000Y-130014000D01*
X95492000Y-130018000D01*
X95496000Y-130021000D01*
X95499000Y-130025000D01*
X95503000Y-130029000D01*
X95506000Y-130033000D01*
X95509000Y-130038000D01*
X95512000Y-130042000D01*
X95514000Y-130047000D01*
X95516000Y-130051000D01*
X95518000Y-130056000D01*
X95520000Y-130061000D01*
X95522000Y-130066000D01*
X95523000Y-130071000D01*
X95524000Y-130076000D01*
X95524000Y-130082000D01*
X95525000Y-130087000D01*
X95525000Y-130092000D01*
X95525000Y-130142000D01*
X95525000Y-130147000D01*
X95524000Y-130152000D01*
X95524000Y-130158000D01*
X95523000Y-130163000D01*
X95522000Y-130168000D01*
X95520000Y-130173000D01*
X95518000Y-130178000D01*
X95516000Y-130183000D01*
X95514000Y-130187000D01*
X95512000Y-130192000D01*
X95509000Y-130196000D01*
X95506000Y-130201000D01*
X95503000Y-130205000D01*
X95499000Y-130209000D01*
X95496000Y-130213000D01*
X95492000Y-130216000D01*
X95488000Y-130220000D01*
X95484000Y-130223000D01*
X95479000Y-130226000D01*
X95475000Y-130229000D01*
X95470000Y-130231000D01*
X95466000Y-130233000D01*
X95461000Y-130235000D01*
X95456000Y-130237000D01*
X95451000Y-130239000D01*
X95446000Y-130240000D01*
X95441000Y-130241000D01*
X95435000Y-130241000D01*
X95430000Y-130242000D01*
X95425000Y-130242000D01*
X93950000Y-130242000D01*
X93950000Y-129992000D01*
X95425000Y-129992000D01*
X95430000Y-129992000D01*
X95435000Y-129993000D01*
G36*
X95435000Y-129993000D02*
G01*
X95441000Y-129993000D01*
X95446000Y-129994000D01*
X95451000Y-129995000D01*
X95456000Y-129997000D01*
X95461000Y-129999000D01*
X95466000Y-130001000D01*
X95470000Y-130003000D01*
X95475000Y-130005000D01*
X95479000Y-130008000D01*
X95484000Y-130011000D01*
X95488000Y-130014000D01*
X95492000Y-130018000D01*
X95496000Y-130021000D01*
X95499000Y-130025000D01*
X95503000Y-130029000D01*
X95506000Y-130033000D01*
X95509000Y-130038000D01*
X95512000Y-130042000D01*
X95514000Y-130047000D01*
X95516000Y-130051000D01*
X95518000Y-130056000D01*
X95520000Y-130061000D01*
X95522000Y-130066000D01*
X95523000Y-130071000D01*
X95524000Y-130076000D01*
X95524000Y-130082000D01*
X95525000Y-130087000D01*
X95525000Y-130092000D01*
X95525000Y-130142000D01*
X95525000Y-130147000D01*
X95524000Y-130152000D01*
X95524000Y-130158000D01*
X95523000Y-130163000D01*
X95522000Y-130168000D01*
X95520000Y-130173000D01*
X95518000Y-130178000D01*
X95516000Y-130183000D01*
X95514000Y-130187000D01*
X95512000Y-130192000D01*
X95509000Y-130196000D01*
X95506000Y-130201000D01*
X95503000Y-130205000D01*
X95499000Y-130209000D01*
X95496000Y-130213000D01*
X95492000Y-130216000D01*
X95488000Y-130220000D01*
X95484000Y-130223000D01*
X95479000Y-130226000D01*
X95475000Y-130229000D01*
X95470000Y-130231000D01*
X95466000Y-130233000D01*
X95461000Y-130235000D01*
X95456000Y-130237000D01*
X95451000Y-130239000D01*
X95446000Y-130240000D01*
X95441000Y-130241000D01*
X95435000Y-130241000D01*
X95430000Y-130242000D01*
X95425000Y-130242000D01*
X93950000Y-130242000D01*
X93950000Y-129992000D01*
X95425000Y-129992000D01*
X95430000Y-129992000D01*
X95435000Y-129993000D01*
G37*
X95435000Y-130793000D02*
X95441000Y-130793000D01*
X95446000Y-130794000D01*
X95451000Y-130795000D01*
X95456000Y-130797000D01*
X95461000Y-130799000D01*
X95466000Y-130801000D01*
X95470000Y-130803000D01*
X95475000Y-130805000D01*
X95479000Y-130808000D01*
X95484000Y-130811000D01*
X95488000Y-130814000D01*
X95492000Y-130818000D01*
X95496000Y-130821000D01*
X95499000Y-130825000D01*
X95503000Y-130829000D01*
X95506000Y-130833000D01*
X95509000Y-130838000D01*
X95512000Y-130842000D01*
X95514000Y-130847000D01*
X95516000Y-130851000D01*
X95518000Y-130856000D01*
X95520000Y-130861000D01*
X95522000Y-130866000D01*
X95523000Y-130871000D01*
X95524000Y-130876000D01*
X95524000Y-130882000D01*
X95525000Y-130887000D01*
X95525000Y-130892000D01*
X95525000Y-130942000D01*
X95525000Y-130947000D01*
X95524000Y-130952000D01*
X95524000Y-130958000D01*
X95523000Y-130963000D01*
X95522000Y-130968000D01*
X95520000Y-130973000D01*
X95518000Y-130978000D01*
X95516000Y-130983000D01*
X95514000Y-130987000D01*
X95512000Y-130992000D01*
X95509000Y-130996000D01*
X95506000Y-131001000D01*
X95503000Y-131005000D01*
X95499000Y-131009000D01*
X95496000Y-131013000D01*
X95492000Y-131016000D01*
X95488000Y-131020000D01*
X95484000Y-131023000D01*
X95479000Y-131026000D01*
X95475000Y-131029000D01*
X95470000Y-131031000D01*
X95466000Y-131033000D01*
X95461000Y-131035000D01*
X95456000Y-131037000D01*
X95451000Y-131039000D01*
X95446000Y-131040000D01*
X95441000Y-131041000D01*
X95435000Y-131041000D01*
X95430000Y-131042000D01*
X95425000Y-131042000D01*
X93950000Y-131042000D01*
X93950000Y-130792000D01*
X95425000Y-130792000D01*
X95430000Y-130792000D01*
X95435000Y-130793000D01*
G36*
X95435000Y-130793000D02*
G01*
X95441000Y-130793000D01*
X95446000Y-130794000D01*
X95451000Y-130795000D01*
X95456000Y-130797000D01*
X95461000Y-130799000D01*
X95466000Y-130801000D01*
X95470000Y-130803000D01*
X95475000Y-130805000D01*
X95479000Y-130808000D01*
X95484000Y-130811000D01*
X95488000Y-130814000D01*
X95492000Y-130818000D01*
X95496000Y-130821000D01*
X95499000Y-130825000D01*
X95503000Y-130829000D01*
X95506000Y-130833000D01*
X95509000Y-130838000D01*
X95512000Y-130842000D01*
X95514000Y-130847000D01*
X95516000Y-130851000D01*
X95518000Y-130856000D01*
X95520000Y-130861000D01*
X95522000Y-130866000D01*
X95523000Y-130871000D01*
X95524000Y-130876000D01*
X95524000Y-130882000D01*
X95525000Y-130887000D01*
X95525000Y-130892000D01*
X95525000Y-130942000D01*
X95525000Y-130947000D01*
X95524000Y-130952000D01*
X95524000Y-130958000D01*
X95523000Y-130963000D01*
X95522000Y-130968000D01*
X95520000Y-130973000D01*
X95518000Y-130978000D01*
X95516000Y-130983000D01*
X95514000Y-130987000D01*
X95512000Y-130992000D01*
X95509000Y-130996000D01*
X95506000Y-131001000D01*
X95503000Y-131005000D01*
X95499000Y-131009000D01*
X95496000Y-131013000D01*
X95492000Y-131016000D01*
X95488000Y-131020000D01*
X95484000Y-131023000D01*
X95479000Y-131026000D01*
X95475000Y-131029000D01*
X95470000Y-131031000D01*
X95466000Y-131033000D01*
X95461000Y-131035000D01*
X95456000Y-131037000D01*
X95451000Y-131039000D01*
X95446000Y-131040000D01*
X95441000Y-131041000D01*
X95435000Y-131041000D01*
X95430000Y-131042000D01*
X95425000Y-131042000D01*
X93950000Y-131042000D01*
X93950000Y-130792000D01*
X95425000Y-130792000D01*
X95430000Y-130792000D01*
X95435000Y-130793000D01*
G37*
X98800000Y-130242000D02*
X97325000Y-130242000D01*
X97320000Y-130242000D01*
X97315000Y-130241000D01*
X97309000Y-130241000D01*
X97304000Y-130240000D01*
X97299000Y-130239000D01*
X97294000Y-130237000D01*
X97289000Y-130235000D01*
X97284000Y-130233000D01*
X97280000Y-130231000D01*
X97275000Y-130229000D01*
X97271000Y-130226000D01*
X97266000Y-130223000D01*
X97262000Y-130220000D01*
X97258000Y-130216000D01*
X97254000Y-130213000D01*
X97251000Y-130209000D01*
X97247000Y-130205000D01*
X97244000Y-130201000D01*
X97241000Y-130196000D01*
X97238000Y-130192000D01*
X97236000Y-130187000D01*
X97234000Y-130183000D01*
X97232000Y-130178000D01*
X97230000Y-130173000D01*
X97228000Y-130168000D01*
X97227000Y-130163000D01*
X97226000Y-130158000D01*
X97226000Y-130152000D01*
X97225000Y-130147000D01*
X97225000Y-130142000D01*
X97225000Y-130092000D01*
X97225000Y-130087000D01*
X97226000Y-130082000D01*
X97226000Y-130076000D01*
X97227000Y-130071000D01*
X97228000Y-130066000D01*
X97230000Y-130061000D01*
X97232000Y-130056000D01*
X97234000Y-130051000D01*
X97236000Y-130047000D01*
X97238000Y-130042000D01*
X97241000Y-130038000D01*
X97244000Y-130033000D01*
X97247000Y-130029000D01*
X97251000Y-130025000D01*
X97254000Y-130021000D01*
X97258000Y-130018000D01*
X97262000Y-130014000D01*
X97266000Y-130011000D01*
X97271000Y-130008000D01*
X97275000Y-130005000D01*
X97280000Y-130003000D01*
X97284000Y-130001000D01*
X97289000Y-129999000D01*
X97294000Y-129997000D01*
X97299000Y-129995000D01*
X97304000Y-129994000D01*
X97309000Y-129993000D01*
X97315000Y-129993000D01*
X97320000Y-129992000D01*
X97325000Y-129992000D01*
X98800000Y-129992000D01*
X98800000Y-130242000D01*
G36*
X98800000Y-130242000D02*
G01*
X97325000Y-130242000D01*
X97320000Y-130242000D01*
X97315000Y-130241000D01*
X97309000Y-130241000D01*
X97304000Y-130240000D01*
X97299000Y-130239000D01*
X97294000Y-130237000D01*
X97289000Y-130235000D01*
X97284000Y-130233000D01*
X97280000Y-130231000D01*
X97275000Y-130229000D01*
X97271000Y-130226000D01*
X97266000Y-130223000D01*
X97262000Y-130220000D01*
X97258000Y-130216000D01*
X97254000Y-130213000D01*
X97251000Y-130209000D01*
X97247000Y-130205000D01*
X97244000Y-130201000D01*
X97241000Y-130196000D01*
X97238000Y-130192000D01*
X97236000Y-130187000D01*
X97234000Y-130183000D01*
X97232000Y-130178000D01*
X97230000Y-130173000D01*
X97228000Y-130168000D01*
X97227000Y-130163000D01*
X97226000Y-130158000D01*
X97226000Y-130152000D01*
X97225000Y-130147000D01*
X97225000Y-130142000D01*
X97225000Y-130092000D01*
X97225000Y-130087000D01*
X97226000Y-130082000D01*
X97226000Y-130076000D01*
X97227000Y-130071000D01*
X97228000Y-130066000D01*
X97230000Y-130061000D01*
X97232000Y-130056000D01*
X97234000Y-130051000D01*
X97236000Y-130047000D01*
X97238000Y-130042000D01*
X97241000Y-130038000D01*
X97244000Y-130033000D01*
X97247000Y-130029000D01*
X97251000Y-130025000D01*
X97254000Y-130021000D01*
X97258000Y-130018000D01*
X97262000Y-130014000D01*
X97266000Y-130011000D01*
X97271000Y-130008000D01*
X97275000Y-130005000D01*
X97280000Y-130003000D01*
X97284000Y-130001000D01*
X97289000Y-129999000D01*
X97294000Y-129997000D01*
X97299000Y-129995000D01*
X97304000Y-129994000D01*
X97309000Y-129993000D01*
X97315000Y-129993000D01*
X97320000Y-129992000D01*
X97325000Y-129992000D01*
X98800000Y-129992000D01*
X98800000Y-130242000D01*
G37*
X98800000Y-131042000D02*
X97325000Y-131042000D01*
X97320000Y-131042000D01*
X97315000Y-131041000D01*
X97309000Y-131041000D01*
X97304000Y-131040000D01*
X97299000Y-131039000D01*
X97294000Y-131037000D01*
X97289000Y-131035000D01*
X97284000Y-131033000D01*
X97280000Y-131031000D01*
X97275000Y-131029000D01*
X97271000Y-131026000D01*
X97266000Y-131023000D01*
X97262000Y-131020000D01*
X97258000Y-131016000D01*
X97254000Y-131013000D01*
X97251000Y-131009000D01*
X97247000Y-131005000D01*
X97244000Y-131001000D01*
X97241000Y-130996000D01*
X97238000Y-130992000D01*
X97236000Y-130987000D01*
X97234000Y-130983000D01*
X97232000Y-130978000D01*
X97230000Y-130973000D01*
X97228000Y-130968000D01*
X97227000Y-130963000D01*
X97226000Y-130958000D01*
X97226000Y-130952000D01*
X97225000Y-130947000D01*
X97225000Y-130942000D01*
X97225000Y-130892000D01*
X97225000Y-130887000D01*
X97226000Y-130882000D01*
X97226000Y-130876000D01*
X97227000Y-130871000D01*
X97228000Y-130866000D01*
X97230000Y-130861000D01*
X97232000Y-130856000D01*
X97234000Y-130851000D01*
X97236000Y-130847000D01*
X97238000Y-130842000D01*
X97241000Y-130838000D01*
X97244000Y-130833000D01*
X97247000Y-130829000D01*
X97251000Y-130825000D01*
X97254000Y-130821000D01*
X97258000Y-130818000D01*
X97262000Y-130814000D01*
X97266000Y-130811000D01*
X97271000Y-130808000D01*
X97275000Y-130805000D01*
X97280000Y-130803000D01*
X97284000Y-130801000D01*
X97289000Y-130799000D01*
X97294000Y-130797000D01*
X97299000Y-130795000D01*
X97304000Y-130794000D01*
X97309000Y-130793000D01*
X97315000Y-130793000D01*
X97320000Y-130792000D01*
X97325000Y-130792000D01*
X98800000Y-130792000D01*
X98800000Y-131042000D01*
G36*
X98800000Y-131042000D02*
G01*
X97325000Y-131042000D01*
X97320000Y-131042000D01*
X97315000Y-131041000D01*
X97309000Y-131041000D01*
X97304000Y-131040000D01*
X97299000Y-131039000D01*
X97294000Y-131037000D01*
X97289000Y-131035000D01*
X97284000Y-131033000D01*
X97280000Y-131031000D01*
X97275000Y-131029000D01*
X97271000Y-131026000D01*
X97266000Y-131023000D01*
X97262000Y-131020000D01*
X97258000Y-131016000D01*
X97254000Y-131013000D01*
X97251000Y-131009000D01*
X97247000Y-131005000D01*
X97244000Y-131001000D01*
X97241000Y-130996000D01*
X97238000Y-130992000D01*
X97236000Y-130987000D01*
X97234000Y-130983000D01*
X97232000Y-130978000D01*
X97230000Y-130973000D01*
X97228000Y-130968000D01*
X97227000Y-130963000D01*
X97226000Y-130958000D01*
X97226000Y-130952000D01*
X97225000Y-130947000D01*
X97225000Y-130942000D01*
X97225000Y-130892000D01*
X97225000Y-130887000D01*
X97226000Y-130882000D01*
X97226000Y-130876000D01*
X97227000Y-130871000D01*
X97228000Y-130866000D01*
X97230000Y-130861000D01*
X97232000Y-130856000D01*
X97234000Y-130851000D01*
X97236000Y-130847000D01*
X97238000Y-130842000D01*
X97241000Y-130838000D01*
X97244000Y-130833000D01*
X97247000Y-130829000D01*
X97251000Y-130825000D01*
X97254000Y-130821000D01*
X97258000Y-130818000D01*
X97262000Y-130814000D01*
X97266000Y-130811000D01*
X97271000Y-130808000D01*
X97275000Y-130805000D01*
X97280000Y-130803000D01*
X97284000Y-130801000D01*
X97289000Y-130799000D01*
X97294000Y-130797000D01*
X97299000Y-130795000D01*
X97304000Y-130794000D01*
X97309000Y-130793000D01*
X97315000Y-130793000D01*
X97320000Y-130792000D01*
X97325000Y-130792000D01*
X98800000Y-130792000D01*
X98800000Y-131042000D01*
G37*
%TD*%
D11*
%TO.C,C2*%
X197444000Y-108415000D03*
X197444000Y-106865000D03*
%TD*%
D12*
%TO.C,R2*%
X178369600Y-107753800D03*
X180019600Y-107753800D03*
%TD*%
D13*
%TO.C,D3*%
X187334800Y-95330000D03*
X187334800Y-99630000D03*
%TD*%
D11*
%TO.C,C3*%
X195869200Y-108415000D03*
X195869200Y-106865000D03*
%TD*%
D14*
%TO.C,Q1*%
X179388200Y-99285000D03*
X182988200Y-99285000D03*
X179388200Y-95735000D03*
X182988200Y-95735000D03*
D15*
X178888200Y-104910000D03*
X183468200Y-104910000D03*
%TD*%
D16*
%TO.C,R1*%
X185102000Y-114856000D03*
X183452000Y-114856000D03*
%TD*%
D17*
%TO.C,C6*%
X192329000Y-115110000D03*
X193879000Y-115110000D03*
%TD*%
D18*
%TO.C,R4*%
X192809000Y-107992100D03*
X192809000Y-112617100D03*
%TD*%
D19*
%TO.C,L1*%
X196631200Y-92996800D03*
X196631200Y-104096800D03*
%TD*%
D17*
%TO.C,C5*%
X187970000Y-113341800D03*
X189520000Y-113341800D03*
%TD*%
D20*
%TO.C,U1*%
X184768000Y-107799800D03*
X184768000Y-108799800D03*
X184768000Y-109799800D03*
X184768000Y-110799800D03*
X184768000Y-111799800D03*
X189868000Y-111799800D03*
X189868000Y-110799800D03*
X189868000Y-109799800D03*
X189868000Y-108799800D03*
X189868000Y-107799800D03*
%TD*%
D17*
%TO.C,C4*%
X181450000Y-107753800D03*
X183000000Y-107753800D03*
%TD*%
D12*
%TO.C,R3*%
X184745000Y-113341800D03*
X186395000Y-113341800D03*
%TD*%
D21*
%TO.C,D1*%
X182824500Y-109531800D03*
X180949500Y-109531800D03*
%TD*%
%TO.C,D2*%
X182824500Y-111563800D03*
X180949500Y-111563800D03*
%TD*%
D17*
%TO.C,C7*%
X192329000Y-116634000D03*
X193879000Y-116634000D03*
%TD*%
D22*
%TO.C,D4*%
X197630800Y-88590000D03*
X201930800Y-88590000D03*
%TD*%
D23*
%TO.C,C25*%
X141034200Y-74007200D03*
X139484200Y-74007200D03*
%TD*%
D24*
%TO.C,R14*%
X103835600Y-76138900D03*
X103835600Y-74313900D03*
%TD*%
D25*
%TO.C,R22*%
X143002400Y-73518500D03*
X143002400Y-75343500D03*
%TD*%
D26*
%TO.C,C14*%
X103360000Y-130568000D03*
X103360000Y-132118000D03*
%TD*%
D24*
%TO.C,R18*%
X145136000Y-117277000D03*
X145136000Y-115452000D03*
%TD*%
D27*
%TO.C,D1*%
X87846000Y-125326000D03*
X87846000Y-121326000D03*
%TD*%
D28*
%TO.C,D10*%
X136303800Y-93176500D03*
X136303800Y-95051500D03*
%TD*%
D24*
%TO.C,R5*%
X97752000Y-120555500D03*
X97752000Y-118730500D03*
%TD*%
D29*
%TO.C,J5*%
X86366000Y-90766400D03*
D30*
X88906000Y-89746400D03*
X86366000Y-88726400D03*
X88906000Y-87706400D03*
%TD*%
D23*
%TO.C,C12*%
X93721000Y-124485000D03*
X92171000Y-124485000D03*
%TD*%
D31*
%TO.C,R6*%
X97160500Y-124485000D03*
X95335500Y-124485000D03*
%TD*%
D17*
%TO.C,C20*%
X146748000Y-115452000D03*
X148298000Y-115452000D03*
%TD*%
D28*
%TO.C,D9*%
X134166800Y-93176500D03*
X134166800Y-95051500D03*
%TD*%
D32*
%TO.C,D8*%
X87846000Y-128692000D03*
X87846000Y-132692000D03*
%TD*%
D24*
%TO.C,R19*%
X95259400Y-87026600D03*
X95259400Y-85201600D03*
%TD*%
D25*
%TO.C,R8*%
X126093000Y-89712000D03*
X126093000Y-91537000D03*
%TD*%
D17*
%TO.C,C9*%
X102258000Y-111054000D03*
X103808000Y-111054000D03*
%TD*%
D33*
%TO.C,U2*%
X105525000Y-115410000D03*
X105525000Y-113810000D03*
X104325000Y-115410000D03*
X104325000Y-113810000D03*
D34*
X107575000Y-116515000D03*
X107575000Y-115245000D03*
X107575000Y-113975000D03*
X107575000Y-112705000D03*
X102275000Y-112705000D03*
X102275000Y-113975000D03*
X102275000Y-115245000D03*
X102275000Y-116515000D03*
%TD*%
D17*
%TO.C,C23*%
X153746000Y-115452000D03*
X155296000Y-115452000D03*
%TD*%
D26*
%TO.C,C13*%
X96228000Y-114804000D03*
X96228000Y-116354000D03*
%TD*%
D35*
%TO.C,U1*%
X94696000Y-115718000D03*
X94196000Y-115718000D03*
X93696000Y-115718000D03*
X93696000Y-117218000D03*
X94196000Y-117218000D03*
X94696000Y-117218000D03*
%TD*%
D25*
%TO.C,R3*%
X109497000Y-115221500D03*
X109497000Y-117046500D03*
%TD*%
D36*
%TO.C,L2*%
X93090000Y-113420000D03*
X94540000Y-113420000D03*
%TD*%
D25*
%TO.C,R12*%
X111087000Y-122159500D03*
X111087000Y-123984500D03*
%TD*%
D37*
%TO.C,D5*%
X121140000Y-95041800D03*
X121140000Y-93166800D03*
%TD*%
D11*
%TO.C,C28*%
X143002400Y-80400000D03*
X143002400Y-78850000D03*
%TD*%
D26*
%TO.C,C16*%
X97879000Y-114804000D03*
X97879000Y-116354000D03*
%TD*%
D23*
%TO.C,C24*%
X125895800Y-73346800D03*
X124345800Y-73346800D03*
%TD*%
D24*
%TO.C,R15*%
X105646000Y-76138900D03*
X105646000Y-74313900D03*
%TD*%
D38*
%TO.C,L1*%
X91900000Y-136280000D03*
X95600000Y-136280000D03*
%TD*%
D11*
%TO.C,C22*%
X93583000Y-90208100D03*
X93583000Y-88658100D03*
%TD*%
D39*
%TO.C,R11*%
X102845500Y-118247000D03*
X104670500Y-118247000D03*
%TD*%
D26*
%TO.C,C2*%
X109497000Y-112057000D03*
X109497000Y-113607000D03*
%TD*%
D25*
%TO.C,R16*%
X134166800Y-89712000D03*
X134166800Y-91537000D03*
%TD*%
D28*
%TO.C,D7*%
X126093000Y-93194500D03*
X126093000Y-95069500D03*
%TD*%
%TO.C,D6*%
X128879000Y-93194500D03*
X128879000Y-95069500D03*
%TD*%
D40*
%TO.C,D12*%
X86360400Y-117845000D03*
X86360400Y-115345000D03*
%TD*%
D17*
%TO.C,C6*%
X90774000Y-128930000D03*
X92324000Y-128930000D03*
%TD*%
D37*
%TO.C,D4*%
X117660200Y-95041800D03*
X117660200Y-93166800D03*
%TD*%
D26*
%TO.C,C1*%
X90660000Y-130568000D03*
X90660000Y-132118000D03*
%TD*%
D23*
%TO.C,C15*%
X97150000Y-122834000D03*
X95600000Y-122834000D03*
%TD*%
D39*
%TO.C,R1*%
X103082500Y-122453000D03*
X104907500Y-122453000D03*
%TD*%
D26*
%TO.C,C18*%
X99530000Y-114804000D03*
X99530000Y-116354000D03*
%TD*%
%TO.C,C21*%
X92262200Y-97681600D03*
X92262200Y-99231600D03*
%TD*%
D17*
%TO.C,C27*%
X111950600Y-73346800D03*
X113500600Y-73346800D03*
%TD*%
D41*
%TO.C,D3*%
X100566000Y-127028000D03*
X100566000Y-124228000D03*
%TD*%
D26*
%TO.C,C17*%
X105011000Y-130568000D03*
X105011000Y-132118000D03*
%TD*%
D24*
%TO.C,R10*%
X109436000Y-120555500D03*
X109436000Y-118730500D03*
%TD*%
%TO.C,R2*%
X119387400Y-91580400D03*
X119387400Y-89755400D03*
%TD*%
D23*
%TO.C,C26*%
X95974000Y-73804000D03*
X94424000Y-73804000D03*
%TD*%
D11*
%TO.C,C19*%
X109436000Y-123974000D03*
X109436000Y-122424000D03*
%TD*%
D42*
%TO.C,D11*%
X95525300Y-92299600D03*
X95525300Y-93249600D03*
X95525300Y-94199600D03*
X97895300Y-94199600D03*
X97895300Y-93249600D03*
X97895300Y-92299600D03*
%TD*%
D11*
%TO.C,C8*%
X94196000Y-120291000D03*
X94196000Y-118741000D03*
%TD*%
D25*
%TO.C,R7*%
X128887000Y-89712000D03*
X128887000Y-91537000D03*
%TD*%
%TO.C,R9*%
X111087000Y-118730500D03*
X111087000Y-120555500D03*
%TD*%
D23*
%TO.C,C5*%
X95118000Y-126263000D03*
X93568000Y-126263000D03*
%TD*%
D26*
%TO.C,C11*%
X101709000Y-130568000D03*
X101709000Y-132118000D03*
%TD*%
%TO.C,C10*%
X100058000Y-130568000D03*
X100058000Y-132118000D03*
%TD*%
%TO.C,C4*%
X92311000Y-130568000D03*
X92311000Y-132118000D03*
%TD*%
D23*
%TO.C,C7*%
X101806600Y-128930000D03*
X100256600Y-128930000D03*
%TD*%
D43*
%TO.C,D13*%
X90666000Y-120491000D03*
X90666000Y-122991000D03*
%TD*%
D24*
%TO.C,R4*%
X95974000Y-120555500D03*
X95974000Y-118730500D03*
%TD*%
D25*
%TO.C,R17*%
X136281800Y-89712000D03*
X136281800Y-91537000D03*
%TD*%
%TO.C,R21*%
X93583000Y-85201600D03*
X93583000Y-87026600D03*
%TD*%
D29*
%TO.C,J6*%
X86366000Y-105498400D03*
D30*
X88906000Y-104478400D03*
X86366000Y-103458400D03*
X88906000Y-102438400D03*
%TD*%
D41*
%TO.C,D2*%
X103106000Y-127028000D03*
X103106000Y-124228000D03*
%TD*%
D24*
%TO.C,R20*%
X93887800Y-99212700D03*
X93887800Y-97387700D03*
%TD*%
D26*
%TO.C,C3*%
X92037000Y-115693000D03*
X92037000Y-117243000D03*
%TD*%
M02*
